<?xml version="1.0" encoding="utf-8"?>
<!-- Generator: Adobe Illustrator 25.4.1, SVG Export Plug-In . SVG Version: 6.00 Build 0)  -->
<svg version="1.1" id="Layer_1" xmlns="http://www.w3.org/2000/svg" xmlns:xlink="http://www.w3.org/1999/xlink" x="0px" y="0px"
	 viewBox="0 0 223.9 256" style="enable-background:new 0 0 223.9 256;" xml:space="preserve">
<path d="M223.9,2.2c-0.5,11.1-2,22.1-4.6,32.9c-7.3,30-19.6,58.6-36.5,84.5c-13.5,21.5-29.6,41.2-48.1,58.7
	c-11.3,10.6-23.6,20-36.9,28.1c-2.1,1.3-4.3,2.5-6.5,3.7c2.9,5.4,4.7,8.8,8.4,15.6c3.7,6.8,7.2,13.4,12.8,18.7
	c1.1,1.3,2.1,2.8,2.8,4.4c-4.4,0.7-7.6-0.1-10.1-3.1c-1.5-1.7-2.9-3.4-4.1-5.3c-2.7-4.5-5.2-9.3-7.4-14.1
	c-2.9-6.8-6.8-12.9-9.7-19.6c-6.8-15.6-12.5-31.8-17.1-48.2c-0.3-0.8-0.6-1.6-1-2.4l-1,4.4c-2.4,9.3-4.9,18.8-9.9,27.1
	c-8.4,14.6-17.6,28.7-29,41.2c-2.4,2.4-4.4,5.2-5.9,8.2c6,0.4,11.6,0.9,17.3,1c10.9,0.4,21.6,1.6,32.3,2.9
	c16.8,1.9,32.6,6.8,48.4,12.6c0.7,0.3,1.3,1,2.8,1.9c-1,0.3-1.9,0.4-2.9,0.4L111,254c-20.6-6.8-41.9-9.1-63.2-10.1
	c-9.6-0.4-19.1-0.3-28.7-0.1c-4.7,0.1-9.4-0.6-14.1,1.5c-1.2,0.2-2.5,0.2-3.7,0c-2.4-4.1-1.5-7.2,2.1-9.6c2.5-1.6,4.8-3.3,6.9-5.3
	c8.7-8.7,16.6-18.2,23.5-28.4c5.7-8.1,11.6-16,15.9-25l6.6-14c2.1-4.7,5.1-11.3,6.3-14.3c1.2-2.9,1.9-3.4,5.4-2.4
	c-1.9,3.5-0.4,6.9,0.7,10.1c4.1,11,8.2,22.2,12.5,33.2c1.8,4.3,3.8,8.5,5.9,12.9l2.9-1.5c22.2-13.4,41.2-30.6,58.1-50
	c17.1-19.3,32-40.4,44.4-62.9c10-18.2,18.4-36.9,23.8-56.9c2.8-10.3,4.7-20.8,5.7-31.5C224,0.3,223.9,1.3,223.9,2.2z"/>
</svg>
