<svg xmlns="http://www.w3.org/2000/svg" viewBox="0 0 470.71 508.13"><defs><style>.cls-1{fill:#fff;}</style></defs><g id="Layer_1" data-name="Layer 1"><path d="M599.1,222a8.3,8.3,0,0,0,2.2.27c2.59-.68,5.15-1.45,7.72-2.19.2-.06.37-.29.57-.32,3.22-.55,6.42-1.22,9.66-1.56a87.37,87.37,0,0,1,9.57-.48,60.7,60.7,0,0,1,10.89.55c6.52,1.23,12.13,4.19,15.25,10.51a7.06,7.06,0,0,1,.74,2.8,63.49,63.49,0,0,1,0,8.94,19.56,19.56,0,0,1-1.95,6.14c-1.27,2.62-3,5-4.36,7.6a28.26,28.26,0,0,1-5.55,6.93c-2.58,2.56-5,5.35-7.79,7.64s-6,3.93-8.94,5.94c-5.2,3.53-11.14,5.48-16.87,7.85a54,54,0,0,1-6.61,1.78c-3.12.84-6.2,1.83-9.34,2.53a24.44,24.44,0,0,1-4.62.2,11.59,11.59,0,0,0-5.11.91c-1.38.67-3.23.37-4.88.47-1.29.08-2.58.11-4.51.19a38.66,38.66,0,0,0,2.58,5.23,64.52,64.52,0,0,1,7.71,15.45c1.06,2.94,2.58,5.7,3.7,8.61.77,2,1.17,4.14,1.79,6.2.41,1.33,1,2.63,1.35,4,.82,2.68,1.6,5.38,2.36,8.09a10.17,10.17,0,0,1,.38,2.26c0,1.65,0,3.26,1,4.76a5.21,5.21,0,0,1,.39,2.57c.09,2.73-.36,5.51,1.19,8.07a4.84,4.84,0,0,1,.19,2.28c0,9.28.05,18.56,0,27.84a16.46,16.46,0,0,1-.81,3.79c-.1.42-.5.84-.45,1.22.57,3.68-.87,7.08-1.52,10.57a77,77,0,0,1-2.17,7.79c-.59,2-1.26,3.9-1.86,5.86-.32,1-.56,2.06-.88,3.23.42.08,1,.38,1.2.21,2.25-1.7,4.84-1.13,7.32-1.21a30.6,30.6,0,0,0,3.32,0A6.45,6.45,0,0,1,608,418a5.54,5.54,0,0,0,2,1.61c3.17,1.19,4.11,4,4.23,6.76.28,6.6.76,5.12-3.71,14.79.38.45.69,1.17,1.23,1.41,3.16,1.46,5,4.18,6.86,6.89,1.52,2.19,2.82,4.37,2.62,7.19a29.3,29.3,0,0,0,0,5.62c.36,2.8-.85,5.24-1.71,7.65s-3.63,2.91-5.93,3.51a37.43,37.43,0,0,1-5.14.93A10.52,10.52,0,0,1,606,474c-.8-.12-1.6-.29-2.66-.49a22.23,22.23,0,0,1,0,3.31c-.48,2.77-.69,5.67-1.72,8.24-.94,2.35-3.52,3.28-6,3.46a38.75,38.75,0,0,1-9.26-.06c-2.68-.46-5.64-1-7.67-3.17-1.7-1.81-4-3.15-4.71-5.83a3.24,3.24,0,0,0-2.22-1.76c-5.86-1-9.06-5.45-12.53-9.48-1.61-1.87-1.6-2.11-3.43-.39-1.61,1.52-3.21,3-4.7,4.67-3.58,3.93-7.92,6.89-12.26,9.89-2.59,1.8-4.95,4-7.63,5.61-4.14,2.58-8.41,5-12.74,7.23a126.37,126.37,0,0,1-13.2,6.28c-4.84,1.85-9.47,4.31-14.71,5.14-2.32.37-4.53,1.44-6.8,2.15a9.23,9.23,0,0,1-2.26.44c-1.53.09-3.08-.13-4.37,1.1a2.13,2.13,0,0,1-1.58.28c-3.17-.55-6,.87-8.94,1.49-1.13.23-1.64,1.15-1.07,1.93,1.69,2.31,1,4.88,1.13,7.35,0,.55,0,1.11,0,1.66.58,5.86-1.64,10.64-5.65,14.72a84.65,84.65,0,0,1-7.83,7.57c-2.19,1.71-5,2.64-7.42,4-4.45,2.52-9.24,1.49-13.85,1.08a21.68,21.68,0,0,1-8.55-2.81,15.34,15.34,0,0,1-4.87-5.18c-.9-1.41-1.59-1.82-2.75-.81-2.27,2-4.91,2.25-7.74,2.15-2.53-.1-5.08,0-7.62,0a12.82,12.82,0,0,1-4.76-.89c-1.86-.7-4.12-.4-6.2-.46-2.4-.07-4.73.07-7-1.36-4.22-2.67-7.1-6.45-4.46-13,1.48-3.66,4.29-6.29,6-9.68.27-.52,1-.8,1.55-1.16a10.07,10.07,0,0,0,2.19-1.46c3.4-4,8.35-5.44,12.72-7.82,1.19-.65,2.39-1.28,4.3-2.31-4.43-1.23-8.16-2.18-11.84-3.29-2.82-.86-5.62-1.8-8.36-2.88-4.22-1.67-8.44-3.37-12.56-5.28-3.75-1.73-7.4-3.7-11-5.7-3.14-1.72-6.21-3.55-9.24-5.45-2-1.26-3.95-2.67-5.85-4.1-3.67-2.77-7.31-5.59-10.94-8.41a26,26,0,0,1-2.21-2c-3.53-3.5-7.22-6.85-10.51-10.55-3.56-4-6.78-8.33-10.1-12.56a79.11,79.11,0,0,1-4.85-6.55c-2.14-3.39-4.17-6.87-6-10.42a90,90,0,0,1-4.83-10.29c-1.83-4.86-4.19-9.52-5.12-14.73-.46-2.63-1.6-5.14-2.35-7.73-.24-.83-.14-1.75-.3-2.61-.23-1.28-.54-2.55-.84-3.81a10.13,10.13,0,0,1-.41-1.25c-.51-5.67-1.12-11.35-1.46-17-.23-4.06-.23-4.12-4.22-5.29-3.39-1-6.68-2.32-10-3.5a4.54,4.54,0,0,0-1.24-.42c-3.63-.19-7-1.41-10.35-2.63-2.56-.92-5.38-1.11-8.06-1.61-.68,2.81.07,4.95,5.63,16.55,1,0,2.23,0,3.42,0a8.08,8.08,0,0,1,8.23,8.38,26.9,26.9,0,0,0,0,3c.4,3.41-1.54,5.17-4.26,6.64C261.63,394,258,394,254.34,393.4a5.21,5.21,0,0,1-4.37-4.85,10.68,10.68,0,0,0-.81-2.8c-.9-2.14-.87-4,1-5.67a7.13,7.13,0,0,0,1.83-1.89,3.16,3.16,0,0,0,.31-2.35c-1.53-3.91-3.16-7.79-4.86-11.64-2.59-5.89-5.29-11.73-7.89-17.62-.79-1.77-1.44-3.6-2.12-5.42-.93-2.5-2.58-3.8-5.33-2.33-2.06,1.11-13.13,1.11-15.21.13a5.16,5.16,0,0,0-1.8-.68c-4.35-.15-7.81-2.62-11.5-4.42-5-2.41-8.45-6.64-11.91-10.67-2.57-3-4.07-6.79-5.36-10.69-1.23-3.7-1.09-7.29-1.21-11-.15-4.6,1.58-8.69,3.28-12.82,2.75-6.66,8.07-11.18,13.22-15.71,2.61-2.3,6.2-3.55,9.42-5.1a52.07,52.07,0,0,1,6.31-2.38,9.86,9.86,0,0,1,2.92-.4c3.53-.05,7.07.07,10.6,0,7.49-.22,14.22,2.4,20.18,6.39a40.59,40.59,0,0,1,10.73,10.62c2.55,3.72,4.66,8,4.89,13,.1,2.17,1.3,4.23,1.33,6.62a36.05,36.05,0,0,1-4.85,18.45,40.84,40.84,0,0,1-6.57,9.24c-2.92,2.84-6.65,4.86-10,7.23a2,2,0,0,1-.62.19c-3.62,1.05-4,2.12-2.19,5.55.72,1.34,1.45,2.66,2.06,4,.73,1.66,1.34,3.39,2.07,5.28,0,0,.22.22.33.16,3.27-1.73,6.08,0,9,1.12,1.9.73,3.89,1.22,5.84,1.83a8.06,8.06,0,0,1,2.12.74,2.08,2.08,0,0,0,2.71,0c1.7-1.28,3.53-.84,5.36-.28.93.28,1.91.93,2.8.82,3.77-.46,7,1.29,10.68,2.1,3.58-36.61,20.53-66.07,48-89.69-4.38-1.9-8.88-3.86-13.39-5.78a5.9,5.9,0,0,0-1.91-.38,11.59,11.59,0,0,1-7.27-3.3c-1.91-1.74-4-3.24-6.1-4.82-3.17-2.44-4.62-6-6.34-9.44-.53-1.06-.89-2.21-1.46-3.25-1.94-3.49-1-7.31-1.44-11-.58-5,1.68-9.15,3.34-13.48a63.68,63.68,0,0,1,3.86-7.87c.94-1.69,2.18-3.21,3.26-4.83.83-1.25,1.56-2.58,2.46-3.79,1.62-2.19,3.27-4.37,5-6.45,3-3.59,6.19-7,9.17-10.66,1.93-2.34,3.62-4.89,5.64-7.65-.48-.41-1.09-1.36-1.89-1.56-5.24-1.33-9.66-4.38-14.43-6.68-3-1.45-5.88-3.19-8.79-4.85a7.59,7.59,0,0,1-1.5-1.28c-2-2-4-4.12-6.11-6.06-3.63-3.34-6-7.51-8-11.93-.62-1.38-1.06-2.84-1.74-4.19-3.05-6.13-3.14-12.71-2.51-19.24.26-2.69,1.77-5.35,3.11-7.81,1.61-3,3.94-5.53,5.42-8.54,2.15-4.35,6-6.51,9.9-8.74,2.25-1.28,4.46-2.66,6.78-3.81a22.49,22.49,0,0,1,11-2.65c1.07,0,2.13,0,3.46,0-.11-1,0-1.61-.26-2-1.2-1.86-1.07-3.59-.13-5.59a34,34,0,0,0,1.92-6.15c1.39-5.51,4.5-10,8-14.33,4.67-5.78,11.27-8.4,17.54-11.62a4.9,4.9,0,0,1,1.93-.32c1.73-.1,3.48.17,5-1.1.56-.46,1.7-.28,2.57-.29,2.31,0,4.62,0,7,0,1.38-3.05,3.76-4.17,6.82-4.13a41.18,41.18,0,0,0,5,0c2.82-.28,4.91,1.29,7.27,2.4,5.34,2.5,6.46,7.95,9.11,12.33a3.74,3.74,0,0,1,.16,2,3.77,3.77,0,0,0,2.11,3.7,12.37,12.37,0,0,0,1.42-1.1c5.12-5.18,11.35-8.75,17.76-12,2-1,4.41-1,6.52-1.83A25.91,25.91,0,0,1,433.74,47c.6,0,1.19-.63,1.82-.69,2.05-.2,4.32-.87,6.13-.26,3.56,1.2,7.23,2,10.77,3.42,3.82,1.53,7.37,3.59,11.21,5,1.82.68,3.57,1.55,5.33,2.37.49.22,1.14.44,1.34.84,1.3,2.58,3.52,4.79,3.26,8a3.76,3.76,0,0,0,.27,2,4.9,4.9,0,0,1-.09,4.74c-.21.42,0,1,0,1.83,2.89-1.1,5.49-2.34,8.23-3.08s5.18-2.35,8.15-2a3.92,3.92,0,0,0,2.27-.22c3.76-2.11,7.82-1.15,11.7-1,2.48.12,4.9,1.55,7.37,2.32a18.53,18.53,0,0,1,4.27,1.44,33.14,33.14,0,0,1,6.8,5.72,6.84,6.84,0,0,1,2.18,4.67,4.76,4.76,0,0,0,1.32,2.8,4.56,4.56,0,0,1,1.37,3.55c-.07,2.1.06,4.2,0,6.3a43.9,43.9,0,0,1-.68,4.43c.64.09,1.45.27,2.26.31,1.53.08,3.1-.17,4.39,1a2,2,0,0,0,1.24.34,24.16,24.16,0,0,1,12.18,4.2c4.55,2.89,8.63,6.75,10.65,11.81,1.07,2.66,2.26,5.67,1.79,8.9-.53,3.63.88,7.49-1.34,10.93a1.69,1.69,0,0,0-.07,1c.43,4.19-2,7.18-4.62,9.78a17,17,0,0,1-8.56,4.46c-3,.63-3.8,2-2.26,4.69,1.81,3.22,1.8,6.69,1.81,10.19,0,.32-.15.66-.12,1,.55,5.76-2.34,10-6,13.94a17.67,17.67,0,0,0-1.9,3.08c-2.75,4.6-6.77,5.77-11.77,3.54a10.73,10.73,0,0,0-2.87-.53c-1.49-.2-3-.37-4.89-.6a50.68,50.68,0,0,1-1.7,6.22,13.84,13.84,0,0,1-2.64,3.66,25.76,25.76,0,0,1-2.65,2.25,74.27,74.27,0,0,0,4.87,6.39A41.42,41.42,0,0,1,522.72,219a3.35,3.35,0,0,1,.37.91c.39,6.66,2.5,13.21,1.48,19.93a76.72,76.72,0,0,1-2.28,8.5c3.16,1,6.36,1.89,9.43,3.1s5.56,3.12,9.35,4.25c-1.68-3.69-1.13-6.87-1.23-10-.07-2.19.22-4.43-1-6.46a2.25,2.25,0,0,1-.15-1.6c1.32-5,1.09-10.05,1.19-15.12a17.23,17.23,0,0,1,.7-3.5c.13-.53.45-1,.54-1.55.53-3.22.85-6.48,1.59-9.64.56-2.4,1.86-4.62,2.45-7,1.13-4.62,3.3-8.76,5.53-12.88,2.45-4.49,5.06-8.89,9-12.33a28.21,28.21,0,0,1,9.54-6c2.16-.74,4.21-1.37,6.32-1a17.54,17.54,0,0,1,5.39,2.21c5.77,3.38,10.5,7.72,12.76,14.29,1.22,3.56,3.22,7,3.78,10.61s2.17,7.1,1.79,11c-.26,2.59.3,5.26.44,7.89a20.81,20.81,0,0,1-.18,2.61C599.38,218.73,599.25,220.24,599.1,222Zm-121.2-33.9c0,.63.09,1.27.14,1.9,1.14-1,1.25-1.65-.22-1.84-.09-1.81-.19-3.63-.28-5.54h-4.82l-.33.69ZM432.24,515.27c-.39.1-1.06.13-1.12.33-.63,2.27-1.18,4.56-1.74,6.85A6.71,6.71,0,0,1,429,524c-1.6,3-3,6.12-5,8.79a8.52,8.52,0,0,0-1.47,6.21,5.15,5.15,0,0,0,7.26,4.22c1.3-.59,2.48-1.58,3.83-1.91,4.78-1.17,8.36-4.12,11.9-7.31a36.6,36.6,0,0,0,6.74-8.42c2.42-4.06,3.52-8.57,1.49-13.28-.64-.1-1.07-.19-1.5-.23-4.9-.47-8.92,2.34-13.37,3.57-2.31.64-4.62,1.38-6.75-.51.73-.68,2-1.22.33-3ZM206.76,330.53a18.57,18.57,0,0,1,2.69,1.06c3.76,2.22,7.67,3.92,12.15,3.89.33,0,.75-.08,1,.09,2.54,1.91,5.49,1,8.28,1.31s4.33-.61,5.43-3.15c.91-2.13,1.5-2.16,4.35-1.57a1.51,1.51,0,0,0,.92,0,51.31,51.31,0,0,0,6-3.26,33.22,33.22,0,0,0,8.35-8.33c1.35-2,3.06-4,2.27-6.68-1.42-.45-2.69-.76-3.87-1.26s-2.29-1.8-3-1.53c-1,.42-1.68,1.84-2.42,2.89-.24.34-.15.92-.4,1.24-.6.76-1.28,2-2,2-2.38.2-5,.55-7.12-.26a11,11,0,0,0-5.25-.63,18,18,0,0,0-1.79,3.26,20.14,20.14,0,0,0-.32,3.59c-.29,2.71-1.82,4.31-4.49,4.22a20.46,20.46,0,0,1-6.07-1.1c-3.23-1.17-6.33-2.73-9.5-4.13-1.48,1.22-3.18,3.77-3.31,5.63a3,3,0,0,1-1.92,2.78c.17-2.29.3-4.58.51-6.87.3-3.22,3.74-5.61,6.65-4.53,1.73.63,3.35,1.55,5,2.29,2,.88,4,1.76,6,2.54,1.83.7,2.72.14,2.93-1.8.11-1,0-2,.08-3a8.58,8.58,0,0,1,.69-2.82c2.56-4.87,6.39-5.32,11.21-3.73,3.57,1.17,4.3,1.11,6.1-2.47,1.32-2.59,3.77-4.15,6.36-3.64a11.63,11.63,0,0,1,3.37,1.84c2.35,1.46,4,1,5-1.53a7.46,7.46,0,0,0,.38-2.59c.05-2.1,0-4.2,0-6.3,0-3.75-1.67-6.95-3.57-10.12a6.46,6.46,0,0,0-.54,2.48c0,1.88.05,3.76,0,5.64-.15,3-2.61,4.36-5.33,3.09a21.22,21.22,0,0,1-6.17-4.76c-.82-.85-1.51-2.26-3.5-1.75,2,3.49,1.36,6.65-.82,9.43-6.26,1.8-10.72-1.95-15.91-5.1v4.14c0,1.77.09,3.54-.05,5.3-.18,2.31-3.27,4.78-5.4,4.22a33.17,33.17,0,0,1-5.7-2.14c-3.42-1.6-6.77-3.35-10.58-5.26-.61,1.56-1.21,3-1.74,4.49-.65,1.82-1.11,3.71-1.88,5.48-1,2.26-2.19,4.42-3.32,6.65,2.85,2.86,4.64,6.4,8.14,8.38C205.49,328.67,206,329.75,206.76,330.53ZM395.2,75.76A54.85,54.85,0,0,1,389.82,70a12.69,12.69,0,0,0-2.9-3,25.5,25.5,0,0,1-3-2.64c-2.75-2.71-5.5-5.41-8.19-8.19a6.84,6.84,0,0,0-5.6-2.24c-2.76.13-5.53,0-8.29.05a10.3,10.3,0,0,0-2.6.33c-2.69.76-5.41,1.45-8,2.46s-5.45,1.93-7.53,3.68c-5.7,4.79-10,10.6-11,18.32a3.11,3.11,0,0,1-.29.94,11.87,11.87,0,0,0,0,10.4c1.14,2.64-.14,4.74-3,5.23s-5.56.72-8.14-1c-.45-.3-1.41.07-2.1.25s-1.17.67-1.78.73c-5.8.59-10.18,4.06-14.58,7.36-3.21,2.42-5,6-6.77,9.56-2.26,4.55-5.37,9-3.32,14.59.43,1.18.05,2.63.12,4a7.92,7.92,0,0,0,.35,2.59c1.17,2.93,2.42,5.83,3.77,8.67a5.83,5.83,0,0,0,2,2.46c4.1,2.53,8.07,5.21,11.19,8.91,2.87,3.41,7,4.08,10.86,5.39,2.35.8,4.93.93,7.28,1.74,4.23,1.48,8.43,2.73,13,2.48,3.74-.2,7.51,0,11.26,0,1.75,0,3.44.23,4.52-1.87.51-1,2-1.47,3.17-2.22,2,1.83,3.18,3.69,3,6.41-.17,3.13.58,3.84,3.52,4.56a11.45,11.45,0,0,1,2.11.8c3.51,1.71,8.21-.37,9.61-4.05,1.35-3.53,3-6.95,4.42-10.24,5.38-.57,6-.17,6.51,4.71.19,1.66,1.25,2.37,2.44,3.23,2.25,1.62,4.76,1.35,7.27,1.44a3.82,3.82,0,0,0,4.09-2.63,34.2,34.2,0,0,0,1.63-4.89c.9-4,4.31-6,7.74-7.5,2.15-1,4.17.61,4.39,3a13.14,13.14,0,0,1,0,1.66c-.17,3.27,1.05,5.58,4.2,7s5.39.68,7-2.38c1-2,1.72-4.3,3.76-5.65s4-3.19,7.17-1.85c0,2.35,0,4.75,0,7.15,0,3.85,2.24,6,6.1,6.07,1.33,0,2.66-.06,4,0a9.68,9.68,0,0,0,7.34-3,15,15,0,0,1,4.52-3.15c1.88-.77,3.66-.35,4.08,1.5a8,8,0,0,1-.09,3.91,45.69,45.69,0,0,1-2.39,5.42,28.09,28.09,0,0,0,2.05,2.23c1.05.94,2.12,2.42,3.3,2.55,4.42.46,9,1.38,13-1.81a29.63,29.63,0,0,1,5.08-3c1.48-.74,2.35-.34,2.63,1.3.45,2.61.84,5.3-1.49,7.37a3.15,3.15,0,0,0-1,3.59,13.94,13.94,0,0,0,1.94,3.73c4.06,5.34,9.05,7,15.51,5.43,3.79-1,4.46-1.79,4.48-5.62,0-2,0-4,0-6,0-2.35,1.78-3.66,3.42-4.49a4.17,4.17,0,0,1,5.19.72c2.21,2.5,5.26,2.18,7.68,1.36a28.92,28.92,0,0,1,7.41-1.11,3.15,3.15,0,0,0,2.24-1c2.77-4.91,4.68-10,1.59-15.49-1.73-3-3.64-6.12-8-5.61-1.75.21-3.27-.2-3.95-2.3,2.41-2.44,4.45-5.3,8.09-6.43,1.38-.43,2.51-1.72,3.68-2.72,5.48-4.67,9.5-10.66,14.33-15.91a4.52,4.52,0,0,0,.69-5.24c-1.59-3.37-3.67-6.42-7.49-7.79a17.86,17.86,0,0,1-3.36-1.92c-2.1-1.35-4.09-2.9-6.29-4.07a20.69,20.69,0,0,0-5.23-1.83c-2.86-.63-5.33.64-7.69,2.08A27.51,27.51,0,0,1,508,111.93a8.23,8.23,0,0,1-1.32-.06c-2.51-.55-3.21-2.71-1.44-4.56s3.62-3.56,5.36-5.4a7.61,7.61,0,0,0,1.64-2.39c1-2.65,1.78-5.45,3.69-7.62,2.15-2.43,1.94-5.27,1.78-8.1a5.14,5.14,0,0,0-1.11-2.6,11,11,0,0,0-6.66-4.4c-3.25-.69-6.23-2.48-9.75-2.14-2,.19-4,0-6,0a5.39,5.39,0,0,0-2.25.37c-2.73,1.39-5.78,1.6-8.67,2.27a17.38,17.38,0,0,0-5.64,2.36c-2.83,1.85-5.71,3.68-7.88,6.35a3,3,0,0,1-3.31,1c-2-.51-4-1.26-6.07-1.93,2.05-1.49,2.13-1.49,2.18-4,.06-3.31,0-6.62,0-9.93a2.58,2.58,0,0,0-.32-1.58c-1.19-1.3-1.16-2.87-1-4.38.38-3.76-1.34-6-4.74-7.26-2.91-1.13-5.68-2.63-8.58-3.79-1.7-.69-3.55-1.54-5.29-1.47-4.77.2-9.69-1.25-14.3,1.15-.54.27-1.31.07-2,.14a4.57,4.57,0,0,0-1.92.34c-4.66,2.93-10.3,4.18-14.28,8.31-.43.46-1.22.55-1.68,1a35.3,35.3,0,0,0-5,5.13c-1.91,2.75-3.31,5.85-7.09,6.49A7.16,7.16,0,0,0,395.2,75.76ZM313.4,373.22l-.52.86c-1.13-.19-2.28-.35-3.41-.58a15.3,15.3,0,0,0-3.17-.74c-3.48.06-6.6-1.15-9.72-2.42-1.55-.63-2.15-.24-2.41,1.47-.95,6.09,1.64,11.88,1.49,17.89a.55.55,0,0,0,.12.31c1.87,2.6.91,6,2.42,8.72.8,1.47,1,3.27,1.46,4.92a56.12,56.12,0,0,0,1.77,5.88c1.62,3.89,3.32,7.75,5.19,11.53s3.87,7.5,6,11.13c1.78,3,3.77,5.92,5.82,8.76a100.59,100.59,0,0,0,7.64,9.84c4.81,5.17,9.93,10,15,15a27.93,27.93,0,0,0,2.79,2.3c2.89,2.17,5.78,4.34,8.7,6.47,1.31.95,2.67,1.82,4,2.68,3.12,2,6.14,4.17,9.42,5.83,6.55,3.32,13.2,6.44,19.9,9.44,2.84,1.28,6,1.85,8.84,3.14,2,.93,4.18,1.1,6.24,1.72,3.21,1,6.3,2.41,9.76,2.34.33,0,.75-.07,1,.1,2.67,2,5.73,1,8.64,1.24,1.2.1,2.59-.12,3.56.42a10.43,10.43,0,0,0,5.12,1c.77,0,1.74-.14,2.27.25,2.08,1.56,4.43,1,6.7,1.12a3.64,3.64,0,0,0,3.81-2.55c.89-2.09,1.82-4.16,2.6-6.3a18.79,18.79,0,0,0,1.48-5.28c.18-3.61,2.25-6.93,1.54-10.64a1.23,1.23,0,0,1,.26-.94c1.37-1.35,1-3.07,1.05-4.69.15-2.52.27-5.05.52-7.56.17-1.73.81-3.44.82-5.16.06-16.24,0-32.47,0-48.71a8.89,8.89,0,0,0-.23-3.28c-1.55-3.73-1-7.61-1.15-11.46,0-1.2.19-2.61-.35-3.57-1.12-2-.83-4-1.05-6.1-.38-3.68-1-7.34-1.48-11,0-.31-.33-.57-.42-.88-.29-1-.59-2.06-.8-3.11-.18-.85-.14-1.77-.4-2.59-.71-2.26-1.94-4.44-2.2-6.73-.36-3.16-1.72-5.83-3-8.58-1-2.16-1.94-4.38-3.93-5.94a2.42,2.42,0,0,0-2.67-.44,46.28,46.28,0,0,1-8,2.27c-3.87.59-7.62,2.12-11.66,1.54-.37-.06-.8.31-1.22.42a14.33,14.33,0,0,1-3.45.83c-6.74.08-13.48.05-20.22,0a5.29,5.29,0,0,1-2.58-.35c-1.83-1.17-3.8-1-5.77-1-3,0-6,0-8.95,0a17.12,17.12,0,0,1-2.93-.36,29.26,29.26,0,0,0-4.74-.95c-6.3-.11-12.6.11-18.89-.1-4.77-.15-9.53.7-14.33-1.1-3-1.13-6.54-.42-9.92-1.39a25.79,25.79,0,0,1-10.64-5.41c-4.18-3.8-6.81-8.52-6.69-14.44a11.81,11.81,0,0,0-.66-2.51c-.85,2.62-1.56,4.51-2.07,6.46s-1.2,3.89-1.66,5.89-.58,4.41-1.48,6.24a13.6,13.6,0,0,0-1,5.72c-.06,1,.11,2.16-.36,2.9-1.74,2.71-.85,5.49-.81,8.43,4.6,2,9.11,3.84,13.54,5.87A10.35,10.35,0,0,1,313.4,373.22ZM506,288.47l-.51.5c1.7,2.87,1.15,6,1.23,9a11.29,11.29,0,0,0,.94,5.08c1.7,3.44.31,6.3-3.24,7.78-.3.13-.57.33-.86.49a3.49,3.49,0,0,1-4,0,3,3,0,0,0-1.51-.61c-2.95,0-5.38-1.57-8-2.55-1.54-.59-3.1-1.14-5-1.83.88,3.23,2.12,5.9,2.2,8.61a22,22,0,0,0,2,7.46c1.19,3,.72,5.69.68,8.88-4.23-.45-8.13,1-11.94-1.23-1.92-1.1-4.29-1.4-6.33-2-.73.85-1.22,1.45-1.73,2-2.34,2.57-2.42,3.65-1,7.05a13,13,0,0,1,.43,3.44c-2.35.5-4.2.65-6.12-.39-3.18-1.74-6.07-1.72-9.53.29s-6.76,4.37-10.92,4.84c-.76.09-1.41,1.14-1.81,1.5,1.84,3.31,3.6,6.19,5.09,9.2A27.77,27.77,0,0,1,449,363.6c.43,2.4,1.81,4.62,2.38,7,.73,3.06,1.07,6.21,1.59,9.32a2.26,2.26,0,0,0,.3.94c1.16,1.54,1,3.33,1,5.09,0,.88-.23,1.94.17,2.61,1.64,2.78,1.23,5.77,1.18,8.72a7.2,7.2,0,0,0,2.05,5.47,11.62,11.62,0,0,0,1.06-.77c3.25-2.93,6.38-5.95,9.82-8.7,4.28-3.41,8.79-6.46,13.15-9.73,2.25-1.69,4.65-3.46,7.86-2.24.48.92,1.35,1.85,1.43,2.84a32.94,32.94,0,0,1,0,8.76,22.09,22.09,0,0,0-.84,4.4c0,3.75,0,7.51,0,11.26a22.76,22.76,0,0,0,.34,2.64c.77-.05,1.41.09,1.81-.15,4.83-2.95,9.57-6.05,14.45-8.9,3.55-2.07,7.24-3.91,11-5.67a2.81,2.81,0,0,1,4,2.25,16.54,16.54,0,0,1-.11,6.24c-1.08,3.82-3.16,7.3-4.16,11.21-.93,3.7-2.38,7.26-3.8,11.48a42.51,42.51,0,0,0,4.19-2c2.83-1.79,5.47-3.9,8.4-5.48,5.38-2.92,11-5,17.36-4.85,3.53.1,5.51,2.57,4.12,6.26a31.62,31.62,0,0,1-2.78,5.88c-2.22,3.5-3.43,7.42-4.94,11.22-.11.28.21.72.42,1.38,2.15-1.38,4-2.75,6-3.8,4.14-2.16,8.39-4.12,12.57-6.2,2.91-1.45,4.77-1.16,7,1.16.67.69,1.39,1.34,2.26,2.17a21.15,21.15,0,0,0,1.79-3.38c1.25-3.92,3.54-7.36,4.82-11.34,1.78-5.55,4.16-10.9,5-16.73a2.35,2.35,0,0,1,.36-1.23c1.17-1.18,1-2.63,1-4,0-.77-.21-1.77.18-2.28,1.74-2.27,1.07-4.85,1.17-7.33.12-2.84-.15-5.65,1-8.45a7,7,0,0,0-.06-4.84,18.63,18.63,0,0,1-1-7.14c0-2.32.66-5-.27-6.87-1.68-3.39-.44-7.16-2.3-10.51-1.19-2.15-.88-5.09-1.74-7.49a186.63,186.63,0,0,0-6.95-17.87c-2.84-6-6.3-11.65-9.72-17.32-2-3.28-4.34-6.32-6.62-9.39q-3.91-5.26-8-10.41c-1.57-2-3.25-3.87-4.93-5.77s-3.65-4-5.47-6l-.77.28-.18,3.79c-.15,3.38-2.59,4.91-5.66,3.38-2.44-1.22-5-2.23-6.94-4.34-.21-.24-.72-.21-1.57-.42a37.09,37.09,0,0,0,1,3.76c1.12,3,2.22,6,2.3,9.36.08,3.66-2.29,5.6-5.81,4.38-2.25-.77-4.9-1-6.77-3a23.89,23.89,0,0,0-4.46-3.26A5.63,5.63,0,0,0,506,288.47ZM339,208.37c-.27-3.06-.52-5.53-.69-8-.08-1.32,0-2.65,0-4-.2-4,1.86-7.1,3.84-10.19,1.69-2.63,3.77-5,6-7.89-2.5-.05-4.65-.06-6.8-.15a10.8,10.8,0,0,1-3.58-.44c-5.31-2.2-6.57-.53-9.3,3.15-2.13,2.88-4.1,5.9-6.41,8.63-2.55,3-5.35,5.75-7.71,9s-4.21,7-6.4,10.44c-1.91,3-3.35,6.3-5,9.46-2.13,4.11-4,8.29-3.3,13.11a8.28,8.28,0,0,1,0,2c-.5,4.47,1.57,8.29,3.36,12.07,2.87,6.08,8.49,9.55,13.72,13.32a3.79,3.79,0,0,0,1.84.66c3.55.24,6.71,1.77,9.77,3.31,6.53,3.31,13.28,5.78,20.62,6.42a2.62,2.62,0,0,1,1.28.26c1.94,1.53,4.22,1,6.38,1.11a32.6,32.6,0,0,1,3.55.5c1.25.24,2.48.69,3.74.84,1.63.21,3.54-.28,4.89.4,2.13,1.08,4.24,1,6.42,1,2.39.05,4.86-.42,7,1.18a3,3,0,0,0,1.62.19q14.75,0,29.5,0a11.35,11.35,0,0,0,2.49-.75l-3.94-1.1c1.55-.78,3.31-.56,4.45-1.29,1.68-1.07,3.34-1,5.07-1,8,0,15.91,0,23.87,0a6.76,6.76,0,0,0,3.22-.4,7.6,7.6,0,0,1,5.12-.92c4.48.6,8.54-2,13-1.55,2-1.54,4.38-1.19,6.67-1.29a9.22,9.22,0,0,0,1.57-.44c1.25-.31,2.5-.65,3.76-.88,1-.18,2-.08,2.95-.3,3.24-.78,6.48-1.58,9.68-2.5s6.25-1.82,8.91-3.82a41.37,41.37,0,0,1,5.81-4.15c4.34-2.18,6.93-5.72,9.06-9.9a15.29,15.29,0,0,0,1.58-6.92c0-2.65-.23-5.29-.25-7.94a23.19,23.19,0,0,0-2.27-9.12c-1.81-4.2-4.3-8.1-6.42-12.16a49.44,49.44,0,0,1-2.37-5.37,3.73,3.73,0,0,0-3.69-2.67c-2.65-.06-5.32.17-7.95-.07-3.48-.31-6.84-1.18-9.45-3.82-1.43-1.44-2.94-2.82-4.73-4.54-.1.95-.34,1.51-.16,1.74,1.21,1.51,1.16,3.25,1.18,5a4,4,0,0,0,.39,1.91,5.08,5.08,0,0,1,0,5.85c-.66,1.08-.15,2.81-.42,4.2a44.75,44.75,0,0,1-1.44,4.59,11.75,11.75,0,0,1,2.93-1c3.09-.1,6.18-.07,9.28,0a2.07,2.07,0,0,1,1.49.53c.76,1.09,3.44.38,2.73,2.59-.52,1.62-2.28.86-3.5.94-3.69.25-7.51-.67-11,1.36-1.78,1-3.88,1.72-5.34,3.09-2.37,2.21-5.08,4.11-6.45,7.35-1.05,2.48-2.79,4.65-2.54,7.59.05.58-.49,1.19-.67,1.81a6.93,6.93,0,0,0-.58,2.53c.27,2.46-.88,4.31-2.19,6.53-3.73-4-3.21-8.84-3.6-13.68-3.19,0-6,.06-8.89,0a23.55,23.55,0,0,1-7-1,30.72,30.72,0,0,1-11.3-6.14c-4.9-4.44-9.34-9.16-9.88-16.26a1.6,1.6,0,0,0-.31-.93c-1.27-1.25-.92-2.85-1-4.37-.15-2.35.66-4.48,1.19-6.73a28.59,28.59,0,0,1,7.9-14.34,45,45,0,0,1,6.59-5.32,25.32,25.32,0,0,1,11.43-4.15c1.75-.19,3.54,0,5.3-.05.9,0,1.89,0,1.95-1.25.07-1.47-1.05-1.43-2.06-1.47-.55,0-1.1,0-1.66,0-2.32,0-4.64.1-7,0a12.54,12.54,0,0,1-4.11-.88c-2.76-1.19-5.43-2.61-8.65-4.18-6.14,3.6-13,3.08-19.65-.14-2.35.88-4.74,1.42-6.71,2.62a9.87,9.87,0,0,1-5.66,1.24h-4a21,21,0,0,1-4.63-.1A25.23,25.23,0,0,1,386.9,169l-4.44,4.45c2.64,1.57,5.13,2.61,7.07,4.29,4.49,3.89,8.88,8,10.33,14.1.75,3.15,2.24,6.16,2,9.57a55.05,55.05,0,0,1-1.23,8.7,29.76,29.76,0,0,1-6.26,11.95c-1.25,1.55-3.24,2.52-4.87,3.78a22.78,22.78,0,0,1-14.91,4.74c-2.43-.06-4.87,0-7.3,0a17.74,17.74,0,0,0-2.36.36c-1.39,5.88,1,11.66-.76,17.34-1.07.08-1.93.21-2.8.19a3.73,3.73,0,0,1-4-3.53c-.44-3.72-.77-7.45-1-11.18-.14-2.2.25-4.47-.13-6.61a16,16,0,0,0-2.28-6.33,27.33,27.33,0,0,0-6-6c-1.56-1.16-3.38-2.42-5.65-2.19a2.79,2.79,0,0,1-1.91-.28c-1.62-1.45-3.53-1-5.36-1.06s-3.82-.12-6.23-.19C332,207.54,336,209,339,208.37ZM448.3,277l-.23-.82h-8.51q-6.3,0-12.6,0c-1.38,0-2.81.12-2.95,1.9-.25,3-2.2,5.77-1.56,9a1.94,1.94,0,0,1-.32,1.26c-1.73,2.9-2.93,6.19-5.69,8.37-1.69,1.35-3.52,2.52-5.21,3.86-2.51,2-5.81,1.73-8.5,3.16-6.73-.6-13.62,1.48-20.22-1.27a1.45,1.45,0,0,0-.66-.05c-3.84.3-7.19-1.33-10.52-2.84-3.86-1.74-7.88-3.42-10.41-7.06a33.05,33.05,0,0,1-4.45-7.93c-1-3-1.09-6.23-1.48-9.38-.35-2.81-.55-3.07-3.51-3.15-1.77-.06-4.08.6-5.18-.28-2.34-1.85-3.89-.15-5.66.44a5.66,5.66,0,0,0-2.25,1.87c-1.6,1.95-3,4.1-4.66,5.95-3.33,3.64-7,6.94-9.82,11.08-2,2.85-4.75,5.1-6.69,8.12-2.5,3.9-5.49,7.39-6.8,12.06-.93,3.29-2.7,6.34-2.51,9.94a6.39,6.39,0,0,1-.59,1.83,17.15,17.15,0,0,0-.71,2.8c-.2,1.88.83,3.58,1.12,5.3.78,4.67,3.77,7.59,7.06,10.26,1.53,1.23,3.73,1.62,5.62,2.4a21.12,21.12,0,0,0,9.34,1.42,1.85,1.85,0,0,1,1.24.34c1.28,1.26,2.87,1,4.38,1H366.2c1.1,0,2.45-.23,3.24.3,1.84,1.23,3.78,1,5.74,1.07,5,.3,10.16-.95,15,1.29a2.42,2.42,0,0,0,1,.07h13.59c.55,0,1.25.11,1.63-.17,2.47-1.82,5.3-1,8-1.21a30.68,30.68,0,0,0,3.58-.43c1.25-.23,2.47-.66,3.73-.91.75-.15,1.58,0,2.3-.18,2.27-.7,4.48-1.59,6.76-2.28,3.7-1.1,7.46-2,11.16-3.16a33.33,33.33,0,0,0,5.66-2.24c3.56-1.87,7-4,10.53-5.93,6-3.22,9.52-11.15,6.9-17.14-2-4.53-4-9.18-7.94-12.64a102,102,0,0,1-9.36-9.35,12.84,12.84,0,0,1-2.95-5.64,10.38,10.38,0,0,1,1.38-8.2C446.81,278.82,447.58,277.91,448.3,277Zm1.85,222.65c5.11,0,9.72,0,14.33,0a6.33,6.33,0,0,0,1.26-.4,31.06,31.06,0,0,1,4.12-.85c2.59-.23,5.3.5,7.67-1.23.39-.28,1.08-.09,1.63-.18,3.21-.54,6.48-.87,9.62-1.7,4-1.05,7.87-2.41,11.74-3.8,4.38-1.58,8.77-3.18,13-5.07,2.79-1.24,5.26-3.16,8-4.5,5.77-2.81,10.58-7,15.69-10.75a83.16,83.16,0,0,0,8.19-7.18c2.3-2.2,4.39-4.63,6.54-7,.74-.81,1.32-1.78,2.1-2.55a15.45,15.45,0,0,0,4.19-6.42A48,48,0,0,0,561,436.54a3.66,3.66,0,0,0-3.36.38c-4.91,2.8-10,5.3-14.86,8.14a8.3,8.3,0,0,1-6.38.57c-3.21-.74-4.17-3.39-2.8-6.46a5.14,5.14,0,0,0,.64-1.83c0-2.51,1.23-4.61,2.24-6.77,1.42-3,2.89-6,4.45-9.23-3.25-.86-5.61.88-8,1.83-5.06,2.05-9.55,5.2-14.05,8.3a10.34,10.34,0,0,1-7.41,2,4.13,4.13,0,0,1-3.8-4.17,42.71,42.71,0,0,1,2.09-11.58c1.25-4.28,3.17-8.37,5-13.11-1.51.64-2.44.92-3.26,1.39-3.55,2.07-7.07,4.19-10.6,6.29-2.25,1.33-4.41,2.84-6.76,3.93-4.71,2.2-9.62-.2-9.59-5.49,0-4.42-.08-8.84.05-13.26a20.75,20.75,0,0,1,.93-4.77,10.85,10.85,0,0,0-.13-6.27,15.54,15.54,0,0,0-2.32,1c-.73.47-1.29,1.21-2,1.69-3.52,2.31-7.17,4.42-10.58,6.89-3.16,2.29-6.05,5-9.09,7.44a10,10,0,0,1-2,1.1,3.86,3.86,0,0,0-2.47,3.89c.09,2.87,0,5.74.05,8.61a15.61,15.61,0,0,0,.52,2.57,22.29,22.29,0,0,1,.78,4.15c.09,6.52.07,13,0,19.56,0,2.5.45,5.08-1.15,7.38-.33.47-.16,1.29-.21,1.95-.41,5.66.71,11.34-1.21,17-1,3-.09,6.36-1.37,9.6-.94,2.4-.62,5.28-1.34,8a86.88,86.88,0,0,1-2.72,9.27A13.31,13.31,0,0,0,450.15,499.63ZM609.94,248.19a12.8,12.8,0,0,0-3.37.71c-10.5,5.63-21.39,10.51-31.38,17.13-3.36,2.23-7.23,3.83-10.73,6-1.14.7-1.44,1.44-.8,2.37,1.45,2.07,3,4.08,4.64,6a3.19,3.19,0,0,0,2.19,1.19c4.55-.31,9.25,1.2,13.67-1.06a7,7,0,0,1,2.29-.22,16,16,0,0,0,2.58-.43c2.38-.71,4.73-1.53,7.1-2.25,3.6-1.1,7.39-1.76,10.78-3.3,5.23-2.38,10.67-4.26,15.57-7.49a98.44,98.44,0,0,0,13-10.57,45.08,45.08,0,0,0,5.9-6.68c3.7-5.21,5.5-11.32,7.38-17.34a3.2,3.2,0,0,0-.9-3.32,17,17,0,0,0-11-5.2,7.26,7.26,0,0,1-2.87-.51,10.32,10.32,0,0,0-8.33-.49,25.41,25.41,0,0,1-7.43,1,8.69,8.69,0,0,0-2,.17c-3,.82-6,1.69-9,2.56-3.4,1-6.88,1.77-10.17,3a74.43,74.43,0,0,0-9.7,4.65c-4.07,2.28-8.22,4.38-12.16,7a75.45,75.45,0,0,0-13.42,10.95c-.84.89-1.71,1.73-2.59,2.57a30.29,30.29,0,0,0-6.64,10c2.09,1.65,4.08,3.19,6,4.79,1.78,1.46,2.57,1.62,4.71.4,2.43-1.39,4.77-2.94,7.18-4.37,6.25-3.72,12.46-7.54,18.81-11.09,6-3.33,12.08-6.38,18.16-9.5a10,10,0,0,1,2.43-.45Zm-41.85-9.66c1.06.64,1.69-.16,2.52-.73,2.3-1.59,4.64-3.12,7-4.55,3-1.79,6.07-3.48,9.15-5.16,1.19-.66,1.73-1.6.87-2.66-1.13-1.38-.82-2.9-.93-4.41-.46-6.65.77-13.32-1.17-20-1.12-3.88-.11-8.18-1.43-12.31s-2.37-8.14-5.57-11.24-5.83-3.68-9.45-1.09c-3.83,2.75-7.42,6-9.8,10.11-2.91,5.08-5.76,10.19-7.55,15.81-1.11,3.5-2.58,6.88-3.58,10.4-.77,2.7-1,5.54-1.54,8.32a1.75,1.75,0,0,1-.33.91c-1.2,1.15-.93,2.63-1,4-.09,2.38.49,4.85-1.19,7-.29.36-.18,1.07-.18,1.62,0,6.62-.16,13.25.1,19.86a11,11,0,0,0,2.22,5.26c1.22,1.79,2.34,1.64,3.72,0a13.71,13.71,0,0,0,.82-1.39,59.56,59.56,0,0,1,4.14-6.19,99,99,0,0,1,7.14-7.35c1-1,1.51-1.8.59-3.09a2,2,0,0,1-.14-1.45c.84-3.36,2.45-6.55,2.15-10.16a2.11,2.11,0,0,1,.24-1.28c1.37-2,1-4.22,1.1-6.4.22-4.46-.84-9,1.27-13.34a3.22,3.22,0,0,0,.08-1.64c-.27-2.23-.59-4.45-.9-6.79,1.53-.61,2.17-.06,2.28,1.56a15.62,15.62,0,0,0,.66,4.51,16.29,16.29,0,0,1,.29,10,26.3,26.3,0,0,0-.94,6.43c0,3.64.05,7.28,0,10.93A35.1,35.1,0,0,1,568.09,238.53Zm-38.37,38c.88-3.91.82-7-2.33-9.59s-5.85-5.68-8.77-8.53c-.92-.89-1.91-1.73-2.69-2.43-2.74,2-5.09,4-7.7,5.49s-4.64,3.56-7.78,4c-1.85.26-3.52,1.56-5.35,2.16a25,25,0,0,1-6.28,1.57c-3.4.19-6.47,2.18-10,1.6-.27-.05-.58.28-.9.36a27.35,27.35,0,0,1-3.4.87c-3.66.56-7.32,1-11,1.55-.31.05-.58.32-.89.41-1,.3-2.05.6-3.1.83-.83.17-1.68.23-2.42.33-1.09,4.87.75,8,4.88,10.16a10.77,10.77,0,0,1,3,2.5,87.86,87.86,0,0,1,5.6,6.9c2.45,3.47,4.63,7,4.31,11.66-.24,3.4,0,6.84-.06,10.26,0,2,.14,3.85-1,5.73-1,1.67.05,3.14,2.06,3.5a10,10,0,0,1,3.12.75c1.82,1,3.49.79,5.46.08-.26-.79-.46-1.39-.64-2-.69-2.17-1.42-4.32-2-6.51-.73-2.6-1.32-5.25-2.05-7.85-.93-3.31-3-6.41-1.77-10.08,2.3-1.8,4.57-2.6,6.83.06a3.18,3.18,0,0,0,1.15.62c3.59,1.57,7.27,3,10.74,4.78a6.33,6.33,0,0,0,5.22.4c-.75-4.11-1.62-8-2.13-12a52,52,0,0,1,0-7.28c0-1.95,1.83-4.57,3.67-5s3.78-.41,5.48,1.26a49.79,49.79,0,0,0,6.42,5c.48.34,1.35.14,2.29.21a9.86,9.86,0,0,0,0-2.59c-.6-1.84-1.56-3.58-2-5.45-.69-2.82-2.19-5.41-2.07-8.48a3.75,3.75,0,0,1,2.32-3.63c1.45-.67,2.64-.17,3.86.93,2.6,2.36,5.38,4.52,8.12,6.72A7.09,7.09,0,0,0,529.72,276.48ZM603,421.85a3.4,3.4,0,0,0-3.56-2.23c-1.1.08-2.21,0-3.32,0-4.72.11-8,2.59-10.35,6.47-.56.92-.72,2.08-1.25,3-2.45,4.39-4.86,8.8-7.5,13.07a68.68,68.68,0,0,1-6.76,9.59,22.49,22.49,0,0,0-4,6.66c-.53,1.28-.89,2.64-1.33,3.95,1.65,4.14,4,7.59,8.69,8.66,2.28-2.77,4.33-5.89,9-3.82,0,2.14.33,4.39-.07,6.51-.85,4.59.06,7.42,5.25,8.61a18,18,0,0,0,7,.39c1.92-7.69.8-14.4-5-19.56.57-3.29,3.15-3.76,5.23-4.83,1.34,1.07,2.69,2.13,4,3.22a2.25,2.25,0,0,1,.52.84,6.74,6.74,0,0,0,3.7,3.41c3.34,1.58,5.61.35,5.64-3.42,0-4.14.5-8.35-1.4-12.28-1.5-3.1-2.51-6.56-6.73-7.28a3.12,3.12,0,0,1-2.84-3.48c0-.87-.62-1.79-1.14-3.13l5.82-3.94c-.41-1.23-.8-2.82-1.44-4.29-.78-1.8-.86-3.37.72-4.78A14.08,14.08,0,0,0,603,421.85ZM250.45,292.35l.94-.3c0-1.84-.07-3.69,0-5.53s-.5-3.73.94-5.39c.25-.29-.12-1.61-.57-1.95-5.15-3.78-10.05-8.09-16.86-8.61a1.55,1.55,0,0,1-.93-.27c-1.35-1.35-3.06-1-4.69-1.07-4.78-.31-9.17,1.21-13.69,2.49-5.53,1.58-9.86,4.95-14.19,8.36-1.46,1.15-2.38,3-3.48,4.62-2.95,4.29-6,8.55-6,14.13,0,.8-.67,1.58-.83,2.4-.2,1-.66,2.48-.18,3.13,1.26,1.71.75,3.59,1.16,5.35.52,2.28.94,4.82,3.44,6.07.64-1.61,1.21-2.88,1.63-4.19a24.4,24.4,0,0,0,1.65-5.88,11,11,0,0,1,2-5.84,10.77,10.77,0,0,1,9,1.71c2.9,1.93,5.82,3.75,9.56,4.32.09-.86.23-1.7.25-2.55,0-2.53.18-5.09,0-7.61-.23-2.68,1.59-3.94,3.22-5.36a1.73,1.73,0,0,1,1.53-.19,24.18,24.18,0,0,1,3.92,2.26,47.13,47.13,0,0,0,9,5.51,6.56,6.56,0,0,0-.24-4.38c-.39-1.24-.51-2.56-.78-3.84-.54-2.65,1.45-3.73,3.13-4.91,1.5-1.05,2.74.14,3.92.86a16.14,16.14,0,0,1,2.51,2.11C247.35,289.29,248.89,290.83,250.45,292.35Zm166.36-14.81h-4c-7.06,0-14.13,0-21.19,0a19.43,19.43,0,0,1-3.52-.52,23.7,23.7,0,0,0-3.44-.79c-2.87-.12-5.74,0-8.61-.05-.76,0-1.76.21-2.26-.19-2.16-1.7-4.63-1-7-1.2a8.59,8.59,0,0,1-3.48-.62c-1.82-1.05-3.51-.81-5.72-.23.22,1.25.38,2.38.63,3.49a12,12,0,0,1,.74,2.76,8,8,0,0,0,2.25,5.61c3.32,3.6,6.41,7.61,11.42,9.18,1.13.36,2.13,1.08,3.26,1.45a34.68,34.68,0,0,0,6.18,1.74,33.83,33.83,0,0,0,6.6,0,6.45,6.45,0,0,0,2.74-.88q8.64-5,17.2-10.19A17.61,17.61,0,0,0,416.81,277.54Zm6.53,231.57c-.34-.91-1.57-1.14-3-1.18-2.49-.06-5,.43-7.36-1.14-.58-.39-2,0-2.75.39-6,3.24-12.54,5.48-17.76,10a30.6,30.6,0,0,0-5.05,5.06c-1.68,2.38-2.72,5.2-4.27,7.69a3.31,3.31,0,0,0,.15,3.95c1.88,3.05,6.66,4.19,10.16,2.39,2.21-1.14,4.33-2.71,6.69-3.27s5.08-.45,7.59-1.46a9,9,0,0,0,3.34-1.81c2.88-2.88,5.8-5.72,8.61-8.67a9.64,9.64,0,0,0,2.87-6.71A45.48,45.48,0,0,1,423.34,509.11Zm-74-320.51c.55.12.68.2.77.17,3.49-1.33,6.45-4.13,10.55-3.81.29,0,.58-.3.89-.39a14.85,14.85,0,0,1,3.39-.83c3.42-.11,6.84-.06,10.25,0a7.15,7.15,0,0,1,2.59.32c5.11,2.2,9.5,5.27,12.26,10.32a39.56,39.56,0,0,0,2.86,4l.63-.33a28.69,28.69,0,0,0-6-12.56,20.44,20.44,0,0,0-12.55-7.1c-7.63-1.26-15.29-.45-21.59,4.88C351.78,184.62,349.58,185.83,349.38,188.6Zm91.73,19.88c4.67-7.38,4.67-7.06,11-10.73.84-.49,1.76-.85,2.55-1.41,1.44-1,1.15-2.54.8-3.93s-1.51-1.79-2.84-1.78c-1.52,0-3-.13-4.38,1-1.07.85-2.56,1.14-3.8,1.8-3.91,2.08-7.55,4.45-9.56,8.65-.63,1.32-2.24,2.5-.33,3.94a19.29,19.29,0,0,0,3.83,2.42A7.33,7.33,0,0,0,441.11,208.48Zm-12.51-6.9c.75-.68,1.48-1,1.65-1.55,1-3.13,3.54-5,5.81-7a26,26,0,0,1,14.57-6.62,6.36,6.36,0,0,0,1.91-.38,12,12,0,0,1,10.37,0,3.27,3.27,0,0,0,3.37-.14c-4.95-5.62-16-6.64-23.81-3.25C436.13,185.41,426.73,195.89,428.6,201.58Zm-76.22-6.3c2.92,3.47,5,3.74,8.58,2.62,2.82-.88,5.63-3.1,9-.67a3.64,3.64,0,0,0,4.8-1c.79-1,1.22-3.83.56-5-.9-1.61-2.35-2.1-4.18-2-3,.11-6-.22-8.94.09C358.14,189.71,354.48,191.13,352.38,195.28ZM260.87,382c-3.55,0-6.21.7-7.33,4.32-.7,2.25-.25,3.95,2.07,4.27a11.56,11.56,0,0,0,4.27,0c2-.51,4.05-1.36,5-3.37,1.29-2.61-.39-7.28-3-8.56a2.65,2.65,0,0,0-3.31.4ZM464.41,338l.37-.65c-.88-.75-1.33-2.48-3.6-1.09C462.48,336.9,463.45,337.42,464.41,338ZM356.7,173.11l.6.67,1.47-1.61-.53-.51Z" transform="translate(-185.13 -42.91)"/><path class="cls-1" d="M441.11,208.48a7.33,7.33,0,0,1-2.76-.07,19.29,19.29,0,0,1-3.83-2.42c-1.91-1.44-.3-2.62.33-3.94,2-4.2,5.65-6.57,9.56-8.65,1.24-.66,2.73-1,3.8-1.8,1.39-1.1,2.86-1,4.38-1,1.33,0,2.48.4,2.84,1.78s.64,2.91-.8,3.93c-.79.56-1.71.92-2.55,1.41C445.78,201.42,445.78,201.1,441.11,208.48Z" transform="translate(-185.13 -42.91)"/><path class="cls-1" d="M352.38,195.28c2.1-4.15,5.76-5.57,9.82-6,2.95-.31,6,0,8.94-.09,1.83-.07,3.28.42,4.18,2,.66,1.17.23,4-.56,5a3.64,3.64,0,0,1-4.8,1c-3.37-2.43-6.18-.21-9,.67C357.34,199,355.3,198.75,352.38,195.28Z" transform="translate(-185.13 -42.91)"/><path class="cls-1" d="M464.41,338c-1-.53-1.93-1.05-3.23-1.74,2.27-1.39,2.72.34,3.6,1.09Z" transform="translate(-185.13 -42.91)"/><path d="M356.7,173.11l1.54-1.45.53.51-1.47,1.61Z" transform="translate(-185.13 -42.91)"/><path class="cls-1" d="M432.24,515.27l.25-3.13c1.64,1.81.4,2.35-.33,3Z" transform="translate(-185.13 -42.91)"/><path d="M477.82,188.19c1.47.19,1.36.87.22,1.84-.05-.63-.1-1.27-.14-1.91Z" transform="translate(-185.13 -42.91)"/><path d="M350.93,111.91c0,6.65-1.5,13,2.35,18.91a5.61,5.61,0,0,1-5.28-3.76c-.81-2.9-1.75-5.75-2.53-8.65a12.64,12.64,0,0,1-.24-3,12.37,12.37,0,0,0-1-5.46,6,6,0,0,1-.28-4.2c1.74-5,2.33-10.41,6-14.67,1.16-1.35,1.68-3.24,3.33-4.32a4.25,4.25,0,0,1,4.07-.71c1,2.84,1.93,5.91,3.09,8.89a38.31,38.31,0,0,0,2.85,5.87c2,3.28,4,6.57,6.83,9.23a31.56,31.56,0,0,1,3.85,4.53,29.72,29.72,0,0,0,10.26,8.57,10.83,10.83,0,0,1,3.18,2.82c1.27,1.61.31,3.56-1.77,3.83a11.61,11.61,0,0,1-9.7-2.91c-1.22-1.09-2.85-1.74-4-2.87-2-1.92-3.74-4-5.56-6.11-1.23-1.41-2.38-2.89-3.62-4.29-1.41-1.59-2.74-2.79-5.34-1.86C355.64,112.45,353.37,111.91,350.93,111.91Zm3.29-11.51c-3.2,1.55-1.43,4.89-3.27,7a10.9,10.9,0,0,0,6.8-.23C356.57,104.91,355.48,102.82,354.22,100.4Z" transform="translate(-185.13 -42.91)"/><path d="M482.86,97.1a9.5,9.5,0,0,1,1.63,2c1.89,4.55,4.54,9,5.31,13.76.92,5.69.49,11.67,0,17.47-.17,2.2-2,4.27-3.1,6.4-.4.77-.8,1.53-1.31,2.53-2.58.12-5.5,1.39-7.58-1.92a7.8,7.8,0,0,1,.77-1.72,31.28,31.28,0,0,0,5.14-9.37,16.42,16.42,0,0,0,.63-6.45c-2.6-1.24-4.79-2.39-7.07-3.31a3.71,3.71,0,0,0-2.34.32,3.16,3.16,0,0,0-1.2,1.11c-3.66,4.66-9,6.85-14.13,9.11a69.57,69.57,0,0,1-9,2.73c-2.17.63-3.68-1-5.92-1.88.77-.76,1.33-1.83,2.05-1.94,5.13-.81,9.32-3.55,13.46-6.37a29.08,29.08,0,0,0,9.52-9.77,71,71,0,0,1,5-7.65c1.47-2,2.83-4.26,5.9-4.14C481.32,98.07,482,97.48,482.86,97.1Zm-.37,5.89c-1.41,3.29-2.81,6.57-4.26,10h6C485.63,109.1,482.6,106.28,482.49,103Z" transform="translate(-185.13 -42.91)"/><path d="M428.16,431.37c1.33,4.73,2.49,9.52,5.1,13.73-.81,1.55-1.83,2.42-3.52,2.06-1.95-.42-2.32-2.35-2.87-3.7-1.3-3.16-1.49-6.68-2.73-9.93-.39-1,.26-2.46.46-3.89a1.38,1.38,0,0,0-1.85,1.18c-.19,1.08-.07,2.21-.25,3.29-.2,1.26-.64,2.48-.86,3.74s-.81,2.81-.34,3.82c.94,2,.17,3.51-.73,5.35h-3.15c-.51-1.93-.91-3.71.35-5.42a2.18,2.18,0,0,0,.46-.86c.53-3,1-6,1.52-9,.05-.32-.1-.75.06-1,2.61-3.76.18-6.92-1.11-10.28-1.2-3.1-2-6.33-3.22-9.44-.88-2.32-2.06-4.54-3.09-6.8-3-6.53-6-13.06-8.88-19.61-.22-.5-.16-1.65.06-1.73a2.6,2.6,0,0,1,2.05,0,5,5,0,0,1,1.63,2q4.56,9.14,9,18.34,3.11,6.45,6,13a59.82,59.82,0,0,1,2.86,7.24c.61,2,2.27,2.84,3.65,4.05q4.95,4.33,9.67,8.91c.38.37.15,1.36.2,2.07-.78-.07-1.81.15-2.29-.26-1.84-1.58-3.49-3.37-5.23-5.07-.75-.73-1.57-1.42-2.35-2.13Z" transform="translate(-185.13 -42.91)"/><path d="M420.68,264a14.25,14.25,0,0,1-7.69-1.46,17.63,17.63,0,0,0-14.42-.22,36.25,36.25,0,0,1-8.35,1.75c-2.26.33-3.54-1.73-5.15-2.79a6.27,6.27,0,0,1-2.23-3.81,5,5,0,0,1,2.53-5.3c2.44-1.6,2.83-3.15,1.7-5.86-.46-1.11-1.11-2.15-1.66-3.23a5.61,5.61,0,0,1,.07-5.36c3.19-6.59,8.6-7.48,15.36-5.61a47.77,47.77,0,0,0,8.35,1.63,14.13,14.13,0,0,0,5.15-.78c3.79-1.12,7.49-1.63,11.3,0,4.55,1.89,6.15,6.5,3.59,10.79-.33.57-.72,1.1-1.08,1.66-1.56,2.4-1.95,4.81-.48,7.46s.65,5.62,0,8.39a3.66,3.66,0,0,1-3.38,2.76A29.28,29.28,0,0,1,420.68,264Zm-19.09-6.61c-2.11-2-4.06-3.88-6-5.74-2.86-2.68-2.8-6.35.24-8.9a13.54,13.54,0,0,1,7.6-2.94l2.94-.29a15.13,15.13,0,0,1,12.45,4c2.71,2.48,2.76,8.1-1.26,10.21a25.84,25.84,0,0,1-5.22,2,3.63,3.63,0,0,0-2.63,2c4.15,2.39,8.43,2.49,12.75,2.18,2.3-.16,2.8-.91,2.85-3.16a7.21,7.21,0,0,0-1.62-4.57,5,5,0,0,1,0-6.43,23.36,23.36,0,0,1,1.61-2.1,6.55,6.55,0,0,0,1.4-5.27c-.15-1.61-1-2.51-2.59-2.28a55.31,55.31,0,0,0-6.11,1.3c-5,1.36-9.85,1.79-14.77-.65A15.91,15.91,0,0,0,392,235.13c-4.53,1.12-6.15,4.39-3.74,8.24a18.17,18.17,0,0,1,1.66,3.22c1.1,3,.36,5.32-2.39,7.1-1.41.91-2.55,2-2.13,3.69a3.66,3.66,0,0,0,3.44,3.1,16.81,16.81,0,0,0,4.81-.39C396.22,259.39,398.74,258.37,401.59,257.38Zm-1.19-5.31c2.23.5,4.43,1.06,6.66,1.47,1.2.22,2.25-.19,2.42-1.59s.27-2.66-1.39-3.29c-.95-.36-1.84-.89-2.77-1.35,1.14-2.57,2.72-1.87,4.32-1.34,3.5,1.14,3.2,3.91,2.59,7.27a35.6,35.6,0,0,0,3.67-1.54,3.62,3.62,0,0,0,1.61-4.8,5.68,5.68,0,0,0-3.43-3.38c-2.25-.83-4.62-1.33-6.93-2-3.36-1-6.31.15-9,1.93-3.17,2.06-3.13,4.19.07,6.72,1.39-2.19,2.88-4.33,6.6-4.86C402.43,247.31,400.05,248.5,400.4,252.07Z" transform="translate(-185.13 -42.91)"/></g></svg>