<?xml version="1.0" encoding="utf-8"?>
<!-- Generator: Adobe Illustrator 25.4.1, SVG Export Plug-In . SVG Version: 6.00 Build 0)  -->
<svg version="1.1" id="Layer_1" xmlns="http://www.w3.org/2000/svg" xmlns:xlink="http://www.w3.org/1999/xlink" x="0px" y="0px"
	 viewBox="0 0 268 16.2" style="enable-background:new 0 0 268 16.2;" xml:space="preserve">
<g>
	<path d="M267.2,1.4c-0.5,0.2-1.2,0.5-1.4,0.8c-3,4.3-7.4,6.3-12.1,7.6c-10.1,2.6-20,1.7-29.9-1.7c-3.4-1.2-6.9-2.6-9.5-5.5
		c-0.8-0.9-1.5-0.5-2.4,0.4c-3,3.3-6.9,5.7-11.3,6.9c-6.7,2-13.7,2.2-20.5,0.7c-6.5-1.2-12.8-3.4-17.8-8.2c-0.6-0.5-1.3-1-2-1.4
		l-1.5,1.2c-8.5,7.3-19.8,10.7-31,9.3C119,10.4,111,7.9,105.5,0c-1.5,1.1-3,2.3-4.5,3.2c-12.8,7.8-26.4,8.3-40.4,4
		c-2.6-0.8-5-2.4-6.8-4.5c-1.3-1.5-2.3-1.3-3.8,0.1c-1.4,1.4-3,2.6-4.6,3.7c-12,6.9-24.2,7.2-36.8,1.9c-2.8-1.2-5.4-3-7.5-5.2
		C0.7,2.8,0.3,2.4,0,2.1v3c11.2,14.8,40.7,14.8,52.1-0.4L52.6,5c3.8,4.9,9,7.4,14.8,8.8c10.3,2.6,19.9,0.5,29.3-3.7
		c3-1.3,5.7-3.1,7.9-5.5c0.4-0.4,0.8-0.8,1.3-1.1c2.4,3.8,5.8,6.7,10,8.4c3.8,1.7,7.9,2.8,12.1,3.1c11.3,0.7,21.7-1.5,30.6-8.8
		l1.5-1.2c2.2,2.7,4.9,4.9,8.1,6.4c4.5,2.4,9.6,3.8,14.7,4c11.7,0.6,22.7-1.1,31.4-10c2.6,2.5,5.7,4.6,9,6c8,3.4,16.8,4.5,25.4,3.1
		c7.2-1.2,13.9-3.7,19-9.4c0.1,0.1,0.2,0.1,0.3,0.2V2.3C267.7,2,267.4,1.7,267.2,1.4z"/>
</g>
</svg>
