<?xml version="1.0" encoding="utf-8"?>
<!-- Generator: Adobe Illustrator 25.4.1, SVG Export Plug-In . SVG Version: 6.00 Build 0)  -->
<svg version="1.1" id="Layer_1" xmlns="http://www.w3.org/2000/svg" xmlns:xlink="http://www.w3.org/1999/xlink" x="0px" y="0px"
	 viewBox="0 0 1174.8 18.6" style="enable-background:new 0 0 1174.8 18.6;" xml:space="preserve">
<path d="M1156.2,9.8c-9.4,1.2-18.9-1.6-26.1-7.8l-1.3-1c-0.6,0.3-1.2,0.7-1.7,1.2c-4.2,4-9.5,5.9-15,6.9c-5.7,1.3-11.7,1-17.3-0.6
	c-3.6-1-6.9-3-9.5-5.8c-0.7-0.7-1.3-1.1-2-0.3c-2.2,2.4-5.1,3.6-8,4.6c-8.3,2.8-16.7,3.6-25.2,1.4c-4-1.1-7.7-2.8-10.2-6.4
	c-0.2-0.3-0.8-0.5-1.2-0.7c0,0,0,0,0,0c0,0,0,0,0,0c-0.4,0.2-1,0.4-1.2,0.7c-2.5,3.6-6.2,5.3-10.2,6.4c-8.5,2.2-16.9,1.4-25.2-1.4
	c-2.9-1-5.7-2.2-7.9-4.5v0.2c-4.6,6.5-11.3,8.6-18.6,9.5c-9.4,1.2-18.9-1.6-26.1-7.8l-1.3-1c-0.6,0.3-1.2,0.7-1.7,1.2
	c-4.2,4-9.5,5.9-15,6.9c-5.7,1.3-11.7,1-17.3-0.6c-3.6-1-6.9-3-9.5-5.8c-0.7-0.7-1.3-1.1-2-0.3c-2.2,2.4-5.1,3.6-8,4.6
	c-8.3,2.8-16.7,3.6-25.2,1.4c-4-1.1-7.7-2.8-10.2-6.4c-0.2-0.3-0.8-0.5-1.2-0.7c0,0,0,0,0,0c0,0,0,0,0,0c-0.4,0.2-1,0.4-1.2,0.7
	c-2.5,3.6-6.2,5.3-10.2,6.4c-8.5,2.2-16.9,1.4-25.2-1.4c-2.9-1-5.7-2.2-7.9-4.5v0c0,0,0,0,0,0c0,0,0,0,0,0v0
	c-4.6,6.5-11.3,8.6-18.7,9.5c-9.4,1.2-18.9-1.6-26.1-7.8l-1.3-1c-0.6,0.3-1.2,0.7-1.7,1.2c-4.2,4-9.5,5.9-15,6.9
	c-5.7,1.3-11.7,1-17.3-0.6c-3.6-1-6.9-3-9.5-5.8c-0.7-0.7-1.3-1.1-2-0.3c-2.2,2.4-5.1,3.6-8,4.6c-8.3,2.8-16.7,3.6-25.2,1.4
	c-4-1.1-7.7-2.8-10.2-6.4c-0.2-0.3-0.8-0.5-1.2-0.7c-3.4,3.7-7.8,5.1-12.5,6.2c-7.2,1.6-14.3,1.8-21.5-0.5c-3.4-0.9-6.4-2.9-8.7-5.6
	c-1-1.2-1.9-1.2-2.5,0.2c-0.8,1.5-2,2.7-3.6,3.4c-9.3,4.6-18.9,6.1-29.1,3.6c-3.8-0.9-7.3-3-10-5.8l-1.8-1.6c0-0.1-0.1-0.2-0.1-0.3
	l-1.8,1.6c-2.7,2.8-6.2,4.9-10,5.8c-10.2,2.5-19.8,1-29.1-3.6c-1.6-0.7-2.8-1.9-3.6-3.4c-0.6-1.4-1.5-1.4-2.5-0.2
	c-2.3,2.7-5.3,4.7-8.7,5.6c-7.2,2.3-14.3,2.1-21.5,0.5c-4.7-1.1-9.1-2.5-12.5-6.2c-0.4,0.2-1,0.4-1.2,0.7c-2.5,3.6-6.2,5.3-10.2,6.4
	c-8.5,2.2-16.9,1.4-25.2-1.4c-2.9-1-5.8-2.2-8-4.6c-0.7-0.8-1.3-0.4-2,0.3c-2.6,2.8-5.9,4.8-9.5,5.8c-5.6,1.6-11.6,1.9-17.3,0.6
	c-5.5-1-10.8-2.9-15-6.9c-0.5-0.5-1.1-0.9-1.7-1.2l-1.3,1c-7.2,6.2-16.7,9-26.1,7.8c-7.3-0.9-14.1-3-18.7-9.5v0c0,0,0,0,0,0
	c0,0,0,0,0,0v0c-2.2,2.3-5,3.5-7.9,4.5c-8.3,2.8-16.7,3.6-25.2,1.4c-4-1.1-7.7-2.8-10.2-6.4c-0.2-0.3-0.8-0.5-1.2-0.7c0,0,0,0,0,0
	c0,0,0,0,0,0c-0.4,0.2-1,0.4-1.2,0.7c-2.5,3.6-6.2,5.3-10.2,6.4c-8.5,2.2-16.9,1.4-25.2-1.4c-2.9-1-5.8-2.2-8-4.6
	c-0.7-0.8-1.3-0.4-2,0.3c-2.6,2.8-5.9,4.8-9.5,5.8c-5.6,1.6-11.6,1.9-17.3,0.6c-5.5-1-10.8-2.9-15-6.9c-0.5-0.5-1.1-0.9-1.7-1.2
	l-1.3,1c-7.2,6.2-16.7,9-26.1,7.8c-7.3-0.9-14-3-18.6-9.5V2.2c-2.2,2.3-5.1,3.5-7.9,4.5c-8.3,2.8-16.7,3.6-25.2,1.4
	c-4-1.1-7.7-2.8-10.2-6.4c-0.2-0.3-0.8-0.5-1.2-0.7c0,0,0,0,0,0c0,0,0,0,0,0c-0.4,0.2-1,0.4-1.2,0.7c-2.5,3.6-6.2,5.3-10.2,6.4
	c-8.5,2.2-16.9,1.4-25.2-1.4c-2.9-1-5.8-2.2-8-4.6c-0.7-0.8-1.3-0.4-2,0.3c-2.6,2.8-5.9,4.8-9.5,5.8c-5.6,1.6-11.6,1.9-17.3,0.6
	c-5.5-1-10.8-2.9-15-6.9c-0.5-0.5-1.1-0.9-1.7-1.2l-1.3,1c-7.2,6.2-16.7,9-26.1,7.8C11.3,8.6,4.6,6.6,0,0v3C0.1,3,0.2,2.9,0.3,2.8
	c2,3.2,4.9,5.7,8.4,7.1c3.2,1.5,6.7,2.4,10.2,2.6c9.5,0.6,18.3-1.3,25.8-7.4l1.3-1c1.8,2.3,4.2,4.1,6.8,5.4
	c3.8,2.1,8.1,3.2,12.4,3.4c9.9,0.5,19.1-0.9,26.5-8.4c2.2,2.1,4.8,3.9,7.6,5.1c6.7,2.9,14.2,3.8,21.4,2.6c5.9-1,11.3-3,15.5-7.4
	c4.2,4.5,9.7,6.5,15.5,7.4c7.2,1.2,14.7,0.3,21.4-2.6c2.8-1.2,5.4-3,7.6-5.1v0.9c0.1-0.1,0.2-0.1,0.3-0.2c2,3.2,4.9,5.7,8.4,7.1
	c3.2,1.5,6.7,2.4,10.2,2.6c9.5,0.6,18.3-1.3,25.8-7.4l1.3-1c1.8,2.3,4.2,4.1,6.8,5.4c3.8,2.1,8.1,3.2,12.4,3.4
	c9.9,0.5,19.1-0.9,26.5-8.4c2.2,2.1,4.8,3.9,7.6,5.1c6.7,2.9,14.2,3.8,21.4,2.6c5.9-1,11.3-3,15.5-7.4c4.2,4.5,9.7,6.5,15.5,7.4
	c7.2,1.2,14.7,0.3,21.4-2.6c2.8-1.2,5.4-2.3,7.6-4.4c0.1-0.1,0.2-0.1,0.3-0.2c2,3.2,4.9,5.7,8.4,7.1c3.2,1.5,6.7,2.4,10.2,2.6
	c9.5,0.6,18.3-1.3,25.8-7.4l1.3-1c1.8,2.3,4.2,4.1,6.8,5.4c3.8,2.1,8.1,3.2,12.4,3.4c9.9,0.5,19.1-0.9,26.5-8.4
	c2.2,2.1,4.8,3.9,7.6,5.1c6.7,2.9,14.2,3.8,21.4,2.6c6.1-1,11.7-3.1,16-7.9c1.2,0.9,2.4,1.9,3.7,2.7c6.4,4.1,13.5,5.6,21,5.4
	s14.4-1.7,19.6-7.4c2.2,1.7,4.5,3.3,6.9,4.8c5.4,3,11.3,3.9,17.4,3.9c3.9,0,7.7-0.7,11.3-2c3.6-1.2,6.8-3.4,9.2-6.4
	c2.5,3,5.7,5.3,9.5,6.6c3.6,1.3,7.4,2,11.3,2c6.1,0,12-0.9,17.4-3.9c2.4-1.5,4.7-3.1,6.9-4.8c5.2,5.7,12.1,7.2,19.6,7.4
	s14.6-1.3,21-5.4c1.3-0.8,2.5-1.8,3.7-2.7c4.3,4.8,9.9,6.9,16,7.9c7.2,1.2,14.7,0.3,21.4-2.6c2.8-1.2,5.4-3,7.6-5.1
	c7.4,7.5,16.6,8.9,26.5,8.4c4.3-0.2,8.6-1.3,12.4-3.4c2.6-1.3,5-3.1,6.8-5.4l1.3,1c7.5,6.1,16.3,8,25.8,7.4c3.5-0.2,7-1.1,10.2-2.6
	c3.5-1.4,6.4-3.9,8.4-7.1c0.1,0.1,0.2,0.1,0.3,0.2c2.2,2.1,4.8,3.2,7.6,4.4c6.7,2.9,14.2,3.8,21.4,2.6c5.9-1,11.3-3,15.5-7.4
	c4.2,4.4,9.6,6.4,15.5,7.4c7.2,1.2,14.7,0.3,21.4-2.6c2.8-1.2,5.4-3,7.6-5.1c7.4,7.5,16.6,8.9,26.5,8.4c4.3-0.2,8.6-1.3,12.4-3.4
	c2.6-1.3,5-3.1,6.8-5.4l1.3,1c7.5,6.1,16.3,8,25.8,7.4c3.5-0.2,7-1.1,10.2-2.6c3.5-1.4,6.4-3.9,8.4-7.1c0.1,0.1,0.2,0.1,0.3,0.2V4.8
	c2.2,2.1,4.8,3.8,7.6,5.1c6.7,2.9,14.2,3.8,21.4,2.6c5.9-1,11.3-3,15.5-7.4c4.2,4.4,9.6,6.4,15.5,7.4c7.2,1.2,14.7,0.3,21.4-2.6
	c2.8-1.2,5.4-3,7.6-5.1c7.4,7.5,16.6,8.9,26.5,8.4c4.3-0.2,8.6-1.3,12.4-3.4c2.6-1.3,5-3.1,6.8-5.4l1.3,1c7.5,6.1,16.3,8,25.8,7.4
	c3.5-0.2,7-1.1,10.2-2.6c3.5-1.4,6.4-3.9,8.4-7.1c0.1,0.1,0.2,0.1,0.3,0.2v-3C1170.2,6.8,1163.5,8.9,1156.2,9.8z"/>
</svg>
