<svg xmlns="http://www.w3.org/2000/svg" viewBox="0 0 360.08 521.4"><defs><style>.cls-1{fill:#fff;}</style></defs><g id="Layer_1" data-name="Layer 1"><path d="M337,507.1c-8.21-2.92-15.07-7.31-22-11.46-4.11-2.46-7.8-5.61-11.71-8.41a113.68,113.68,0,0,1-17.58-15.72c-2.93-3.18-5.62-6.58-8.26-10-2.86-3.73-5.72-7.49-8.25-11.45a123.5,123.5,0,0,1-11.93-23.17c-1.85-4.93-3.8-9.83-5.42-14.83-1.07-3.3-1.62-6.78-2.4-10.17q-.94-4.06-1.88-8.12c0-.1,0-.2,0-.3-.33-3.7-.87-7.39-1-11.09-.16-6.69-.07-13.38,0-20.07,0-2.72-.36-5.47.8-8.09a4.69,4.69,0,0,0,.13-1.81c0-3.63,1-7.08,1.81-10.57.77-3.1,1.32-6.25,2.18-9.33,1.09-3.94,2.28-7.86,3.63-11.72a119.35,119.35,0,0,1,8.16-18.65c2.39-4.29,4.89-8.54,7.65-12.6a158.46,158.46,0,0,1,10.37-14c4.39-5.13,9.25-9.84,14-14.69a16.54,16.54,0,0,1,2.6-1.82c-1.92-2.09-3.25-3.7-4.74-5.14-4.66-4.51-7.2-10.36-10-16a39.21,39.21,0,0,1-3.36-11.13c-.41-2.55-1-4.86.08-7.32a3,3,0,0,0,.14-1.5c-.66-5.79,3.59-8.59,7.14-11.83,2.7,0,5.55-.46,8,.25,2.72.77,5.14,2.6,7.63,4.08s4.71,3,7.15,4.55c.13-.19.44-.44.41-.64a51.78,51.78,0,0,0-1.08-5.84,22.55,22.55,0,0,1,0-12.51,5.41,5.41,0,0,0,.18-1.5c0-5.16,1.48-10,2.77-14.92a151.62,151.62,0,0,1,4.79-15.07,2.79,2.79,0,0,0-.41-2.15,7.48,7.48,0,0,0-2-1.76c-1.56-1.08-3.26-2-4.73-3.17a7.46,7.46,0,0,0-7.06-1.64c-1.6.53-3,2.25-4.05,3.75s-1.35,3.3-2.14,4.9a12.86,12.86,0,0,1-1.8,2.25,3.56,3.56,0,0,1-.94-4.2c1.57-4.09,3.76-7.81,8.22-9.42a4.35,4.35,0,0,1,2.35-.35c3,.75,6,1.29,8.36,3.68a53.11,53.11,0,0,0,5.79,4.5c3.42-7,6.83-13.42,12.06-19.49-5.07,1-9.12-.13-12.94-1.78s-6.34-4.59-8.57-7.85c-1.32-1.93-.71-4.81,1.19-6.95a10.87,10.87,0,0,1,7-3.93c-.12-.63-.07-1.1-.27-1.36-2-2.54-2-5.57-1.52-8.4a9.68,9.68,0,0,1,4.43-6.51c2.53-1.59,5.22-2.92,7.82-4.38.15-.08.22-.32.55-.84-1.21-.9-2.41-1.88-3.7-2.71-2.82-1.82-2.9-2-1.31-5.19a44.18,44.18,0,0,1-2.56-3.88c-3.09-5.89-3.37-10.66,1.37-17,3.7-4.94,8.76-7.74,14.29-9.9a50.54,50.54,0,0,1,5.78-1.51,19.31,19.31,0,0,0,4-1.19,3.27,3.27,0,0,0,1.52-2.1c.93-5.45,3.85-10.06,6.33-14.8,1.32-2.53,3.58-4.58,5.51-6.76.4-.45,1.43-.88,1.79-.67a2.73,2.73,0,0,1,1.21,1.86c.14,2.41.05,4.83.05,7.78,1.43-.78,2.48-1.27,3.44-1.9a20.15,20.15,0,0,1,7.78-2.89c1.46-.25,2.88-.8,4.34-1,6.63-.7,12,1.84,17.34,6.48,1.09-1.61,2.21-3.2,3.25-4.82,3.64-5.7,8.76-9.29,15.09-11.68,5.21-2,10.49-2.15,15.75-1.67a37.57,37.57,0,0,1,17.37,5.82c4.52,2.93,7.39,7,10,11.42,1.67,2.84,3.05,5.85,4.47,8.83a9.1,9.1,0,0,1,.59,2.61c.32,2.19,1.49,3.23,3.52,2.47a9.73,9.73,0,0,1,7.31,0c1.31.5,3,.09,4.82.09-1.22-7.83-3.28-15-8.46-21.08,3.16-2,6.32-1.74,9.71-.88,7.65,1.93,11.75,7.68,15.47,13.91A59.85,59.85,0,0,1,500,62.55a56.39,56.39,0,0,1,1.21,7c.38,2.26.75,4.53,1.16,7,1.2.43,2.39.92,3.62,1.29,3,.93,4.55,3.41,6,5.9,1.69,2.84,3.31,5.71,5,8.55,2.24,3.78,2.31,7.84,1.61,12-.24,1.45-.59,2.89-.92,4.48,2.6.8,4.84,1.53,6.57,3.37,3.24,3.45,4.52,9.87,2.68,14.31-1.1,2.64-2.19,5.29-3.36,8.11,2.36,1.83,5.58,3.46,5.25,7.79-.25,3.43-.18,6.83-4,8.85,1.87,2.36-.2,4.43-.35,6.75l-3.94.51c1.79,2.57,3.13,4.66,4.68,6.56.3.38,1.53.3,2.2.05,1.39-.53,2.69-1.32,4-2a6.39,6.39,0,0,1,1.94-.67c4.11-.41,4.94-.1,5.86,4.51.65,3.28,1.91,6.6,1.19,10.08a4.17,4.17,0,0,1-.18.57c-2.31.64-3,.34-3.62-1.55-.9-2.64-2.37-5.1-2.2-8.07,0-.67-.69-1.39-1.23-2.38-1.81,1.07-3.8,1.78-5.07,3.16-.7.75-.56,2.75-.15,4a26.23,26.23,0,0,1,1.71,9.67,19,19,0,0,0,.69,6c.59,2.16.86,4.59-.4,6.8a3.66,3.66,0,0,0-.3,1.46c-.33,3.28-.62,6.57-1,9.84a19.16,19.16,0,0,1-.82,2.93c2.34-1.76,4.24-3.35,6.29-4.71s3.82-2.84,6.26-3.36c3.59-.75,7.11-1.12,10.61.35a8.41,8.41,0,0,1,4.24,4.09,17.33,17.33,0,0,1,1.27,13.08,41.18,41.18,0,0,1-3.07,8.08,3.46,3.46,0,0,0-.35,3.11,3.57,3.57,0,0,1-.9,3.89,27.27,27.27,0,0,0-3.21,4.7c-.91,1.55-.59,2.23.81,3.31,3,2.26,6,4.45,8.72,6.94a137,137,0,0,1,15.55,16.59c3.52,4.48,6.61,9.32,9.72,14.1,5.22,8,9,16.75,12.34,25.66,1.39,3.71,2.29,7.61,3.41,11.42.92,3.14,2,6.27,2.73,9.45.57,2.32.79,4.73,1.21,7.09.58,3.23,1.28,6.44,1.77,9.69.25,1.58.07,3.23.21,4.84.19,2.09.51,4.17.75,6.26a21.7,21.7,0,0,1,.17,2.42c0,3.24,0,6.49,0,9.73a32.28,32.28,0,0,1-.72,8.11c-.61,2.28-.11,4.84-.25,7.26a32.38,32.38,0,0,1-.7,4.11c-.07.4-.21.78-.26,1.18-.34,3.08-.45,6.2-1,9.23-.88,4.47-2,8.91-3.22,13.3A113.48,113.48,0,0,1,594,426.73c-2.09,4.54-4.06,9.16-6.38,13.58s-4.93,8.46-7.4,12.69a2.21,2.21,0,0,0-.11.85c.16.19.29.47.41.47,3.2-.1,6.09,1,8.95,2.26a5.19,5.19,0,0,1,3.42,3.83c.8,3.39,2.18,6.65,3.2,10a15.85,15.85,0,0,1-1.72,13.33c-1.64,2.7-4.78,3.5-7.73,4.25a6.84,6.84,0,0,0-1.67.56,11.52,11.52,0,0,1,6.8,2.8c2.75,2.52,3.23,5.89,3.95,9.19.67,3.1,1.16,6.24,1.82,9.34a6.67,6.67,0,0,1-1.71,5.85c-2.77,3-5.34,6.32-9.1,8.33-4.23,2.25-8.54,3.28-13.2,1.46a3.61,3.61,0,0,0-1.06,0c-.45,2.91-2.42,4.46-4.78,6a29.51,29.51,0,0,1-8,4,23,23,0,0,1-10.74.28A8.59,8.59,0,0,0,542,537.3,45.42,45.42,0,0,1,529,544c-3.91,1.25-8,1.42-12,2.15-7.58,1.4-15.12.4-22.66.76a21.09,21.09,0,0,1-4.37-.76,4.86,4.86,0,0,0-1.5-.16c-3.58.53-7-.51-10.43-1.16a127.48,127.48,0,0,1-13.14-3.77c-5-1.55-9.4-4.41-13.65-7.45-2.91-2.09-4.58-5-6.11-8.14-.13-.26-.27-.51-.42-.8-1.28,2.11-3.24,2.6-5.44,2.59-7,0-14,0-21,0-1.47,0-2.92.61-4.4.7a31.19,31.19,0,0,1-5.38-.14,16.07,16.07,0,0,1-3.27-1.15c-2.05,3.15-5.44,4.6-8.47,6.52-2.2,1.4-4.3,3-6.6,4.17-2.66,1.37-5.47,2.45-8.26,3.55a79.76,79.76,0,0,1-7.6,2.69c-2.19.63-4.48.9-6.72,1.33l-6.75,1.31a21.09,21.09,0,0,1-3.48.65c-4.16.08-8.32-.05-12.47,0a41.59,41.59,0,0,1-14.78-1.92c-2.16-.74-4.38-1.28-6.59-1.83-3.85-1-6.84-3.25-9.54-6a10.42,10.42,0,0,1-1.8-11.68c2-4.17,5.25-7.05,8.83-9.73a61.1,61.1,0,0,1,14.29-7.55A10.51,10.51,0,0,0,337,507.1Zm53.41-253.92c1.26,0,2.52,1.74,4.14-.31l-4.18.32c.79-.72,1.5-1.89,2.41-2.07a9.68,9.68,0,0,1,5.1.07c2.1.79,4.15.67,6.25.75a5.17,5.17,0,0,1,2.1.13c2.11,1.11,4.34.78,6.55.84a4.4,4.4,0,0,1,1.8.11c2.48,1.39,5.15.85,7.74.88,5.78.06,11.56,0,17.33,0,.81,0,1.8.25,2.4-.11,3-1.82,6.49-.55,9.73-1.65,3-1,6.54-.07,9.82-1.11,2.44-.78,5.1-.81,7.66-1.23,1.37-.22,2.74-.52,4.1-.83,2.13-.49,4.28-.9,6.36-1.56,3.14-1,6.2-2.22,9.32-3.28,4.33-1.47,9-2.16,12.55-5.41,3.13-2.86,6.74-5.41,9.14-8.8A55.23,55.23,0,0,0,519,212c1-3.64,2-7.27,2.8-11a37.77,37.77,0,0,0,1.08-7.07c.16-5.37.06-10.75,0-16.12,0-.67-.1-1.33-.18-2.47-1.9,1.5-3.45,2.71-5,4-2.58,2.09-5.14,4.22-7.73,6.31-.69.56-1.57.9-2.21,1.51-1.33,1.28-3.18,2-3.66,4.18a41.18,41.18,0,0,1-2.7,8.76,41.75,41.75,0,0,1-14.19,17.27c-5.76,3.91-12.25,5.75-19,6.94-1.26.22-2.71-.42-4-.79-.76-.21-1.44-.94-2.18-1-3.74-.22-6.86-2.2-10.06-3.71-6.28-3-10.92-8-14.49-13.79a51.33,51.33,0,0,1-7-17.09,92.12,92.12,0,0,1-1.09-11c-.14-1.91-.07-3.85,0-5.77a3.06,3.06,0,0,0-1.6-3c-2.6-1.58-5.16-3.14-8.4-2.77-.9.1-1.83-.08-2.73,0-2.37.31-4.76.61-7.09,1.13a2.62,2.62,0,0,0-1.64,1.58,24.12,24.12,0,0,0-1.11,6.45c.21,6.28-1.48,12.08-3.84,17.76-.4,1-.73,2-1.09,2.93.31.13.41.21.47.19a2.48,2.48,0,0,0,.78-.39c3.27-3.31,7.34-4.33,11.81-4.06,1.28.08,2.52.73,3.8.8a9.06,9.06,0,0,1,5.86,2.78,15,15,0,0,1,4.15,7.77c1.76,6.87-.1,12.61-5.9,16.41a9.5,9.5,0,0,1-6.23,1.76,31.74,31.74,0,0,0-3.65,0c-5.56.19-9.71-2.39-12.51-6.93-2.11-3.42-3.67-7.18-1.7-11.35.12-.27-.09-.69-.23-1.59-1.54,1.66-2.73,3-4,4.28s-2.38,2.42-3.6,3.6a32.36,32.36,0,0,1-2.49,2.2,18.91,18.91,0,0,1-2.94,2.05,22.19,22.19,0,0,1-11.2,2.83c-2.53-.09-5.08.1-7.6,0a14.94,14.94,0,0,1-9.34-3.59,49.3,49.3,0,0,0-7-5.71c-3.38-2-5.31-5.3-7.37-8.27-3.84-5.53-5.86-12-7-18.65a5.72,5.72,0,0,0-2.27-3.7c-1.69-1.42-3.42-2.78-5.17-4.11-2.54-1.92-5.11-3.79-8.1-6-1.22,3.44-2.37,6.28-3.24,9.2s-1.4,6-2.25,9a32.28,32.28,0,0,0-1.72,9.07,17.64,17.64,0,0,1-.27,2.7,17.27,17.27,0,0,0-.67,3.47c.18,3.69-.4,7.35.76,11.08.73,2.31.95,4.82,2,7.11a51.23,51.23,0,0,0,7.94,13c3.16,3.52,6.86,6.55,10.34,9.78.21.19.59.18.85.32a99.83,99.83,0,0,0,18.7,7.72l2.53-1.79c-.13,1.12-.22,1.85-.3,2.52a39.79,39.79,0,0,0,4.72,1.24c3.26.46,6.54.73,9.82,1.08.4,0,.8.1,1.19.16,1.57.27,3.13.56,4.7.8.9.14,1.81.15,2.71.28,1.48.21,2.94.57,4.43.67C385.3,253.06,387.82,253.1,390.37,253.18ZM336.94,428.94c1.22,1,2.35,2,3.53,3,3.12,2.53,6.28,5,9.39,7.56a84,84,0,0,0,14.73,9.7c4.11,2.1,8.11,4.52,12.41,6.09,5.69,2.08,11.38,4.24,17.41,5.36,3.41.64,6.73,1.8,10.26,1.79a2.63,2.63,0,0,1,1.48.18c1.46,1,3.1.77,4.69.77,6.08,0,12.17.13,18.25,0,3.69-.1,7.36-.64,11-1l.3-.05c3.53-.92,7.08-1.82,10.61-2.78,3.82-1,7.77-1.8,11.41-3.31a161.69,161.69,0,0,0,17-8.09c4.51-2.51,8.6-5.79,12.86-8.75a75.78,75.78,0,0,0,12-10.07c2.55-2.69,5-5.48,7.38-8.34,2.77-3.33,5.74-6.55,8-10.21A129.64,129.64,0,0,0,531.15,388a98.7,98.7,0,0,0,4.6-15.09c.34-1.75.93-3.45,1.26-5.2.6-3.23,1.19-6.47,1.6-9.73a86.23,86.23,0,0,0,.77-9.35c.06-2.81-.24-5.62-.42-8.43,0-.6-.26-1.19-.29-1.79a77.17,77.17,0,0,0-.87-10.79c-.84-4.6-1.89-9.13-2.95-13.67a100.14,100.14,0,0,0-7.73-20.43,97.92,97.92,0,0,0-12.42-19.81c-2.8-3.42-5.39-7.06-8.45-10.23-3.5-3.63-7.37-6.92-11.19-10.23-1.32-1.15-2.8-2.09-4.92-1.37A36.05,36.05,0,0,1,484,252.9c-2.87.41-5.75.72-8.62,1.19-3.23.53-6.44,1.18-9.67,1.77-.49.09-1.09-.05-1.49.18-1.87,1.12-3.92.77-5.93.82-2.53.05-5.19-.41-7.56.23a29.37,29.37,0,0,1-7.49.72c-3.95,0-7.91-.07-11.86,0-2,.06-4,.56-6,.7a39.65,39.65,0,0,1-5.45,0c-2.4-.16-4.78-.65-7.18-.73-3.75-.13-7.51,0-11.26,0a19.58,19.58,0,0,1-2.41-.2c-1.68-.23-3.35-.63-5-.72-2.73-.14-5.7.58-8.16-.26-4.21-1.45-8.55-.2-12.79-1.6-3.43-1.13-7.33-.82-11-1.14a2.83,2.83,0,0,1-.3,0L351,251.48c-2.85,2.39-5.7,4.51-8.22,7a113.25,113.25,0,0,0-9.5,10.18c-3.26,4.07-6.44,8.17-9.33,12.49-2,3-4.49,5.77-3.82,9.82.08.47-.39,1.1-.73,1.57-1.1,1.55-2.25,3.06-3.39,4.58-3.41,4.54-5.3,9.75-6.73,15.16-.7,2.7-1.3,5.42-2.1,8.09a38.83,38.83,0,0,0-1.74,8.73,18.47,18.47,0,0,1-.23,2.1c-.23,1.35-.64,2.69-.75,4.06-.23,3,.14,6-.82,9-.61,1.9-.05,4.2.12,6.31.12,1.48.56,2.94.65,4.43.13,2.12-.2,4.3.17,6.37.76,4.3,1.83,8.54,2.8,12.8a74.85,74.85,0,0,0,2.17,9A144.51,144.51,0,0,0,319.48,405c.26.47.82.76,1.32,1.21,1.7-1.63,3.17-3.16,4.76-4.55,1.89-1.64,1.87-1.7.44-3.82-2.29-3.35-4.06-6.9-3.84-11.16.13-2.6.52-5.13.88-7.69a33.53,33.53,0,0,1,4.78-13.08,28.94,28.94,0,0,1,9.47-9.56c4.56-2.88,9.3-5.07,14.82-5,2.23,0,4.48-.17,6.69.05a22.15,22.15,0,0,1,6.4,1.3c6.29,2.63,11.71,6.32,15.57,12.28a32,32,0,0,1,5.37,17.1c0,1.77-.46,3.63.8,5.27.2.26-.1.93-.22,1.39a10.45,10.45,0,0,0-.57,2c-.18,3.89.06,7.76-.83,11.68-.58,2.58-1.24,4.82-3.19,6.55-2.11,1.86-4.33,3.6-6.44,5.47a22.64,22.64,0,0,1-9.2,4.79c-2.78.76-5.6,1.37-8.37,2.18a26.12,26.12,0,0,1-11.83.08,17.25,17.25,0,0,0-5.42-.14c-.55.05-1.54,1.19-1.43,1.5C340.35,425.29,338.4,426.61,336.94,428.94ZM531.8,410.08l-.64-.4c-1.68,1.24-3.33,2.53-5,3.72-1.31.91-2.61,1.92-4.35,1.8a2.91,2.91,0,0,0-2.71,1.57,49.26,49.26,0,0,1-5,6.71c-5.82,5.85-11.29,12-17.87,17.16a101.27,101.27,0,0,1-14.07,9.67c-9.57,5.12-19.32,9.91-30.09,12.25-5,1.1-9.94,2.8-15.18,2.8a1.49,1.49,0,0,0-.88.17c-1.32,1.06-2.88.86-4.37.79-9.25-.46-18.55,1-27.77-.94-2.92-.62-6-.53-8.91-1.14a91.94,91.94,0,0,1-10.27-2.85,123.13,123.13,0,0,1-13.4-5c-6.59-3.13-13.22-6.25-19.17-10.61-4.29-3.15-8.78-6-12.53-9.84-1.5-1.52-3-3-4.54-4.49a14.66,14.66,0,0,0-1.8-1.2c-.11,2.06-.19,3.73-.29,5.73l-3.73-.63c-1.07,1.4-3.18,2.21-3.12,4.7,0,.51-.7,1.3-1.25,1.52a9.84,9.84,0,0,0-4.68,4.44,53.62,53.62,0,0,1-4,5.07,7.87,7.87,0,0,0-1.84-.82c-.84-.11-1.9.31-2.56-.05-3.06-1.67-6-3.54-9.07-5.39l-3,1c-.39-2.35-.67-4.42-1.1-6.45a3.25,3.25,0,0,0-1.08-2c-2-1.16-4.18-2.1-6.74-3.34,0,2.78,0,5,0,7.2-.05,3.2-1.78,4.36-4.77,3.15a38.05,38.05,0,0,1-4-2c-1.9-1.08-3.76-2.22-6-3.55a29.39,29.39,0,0,0-1.61,4.65c-.52,3.09-.87,6.25,1.1,9,1.21,1.72,2.57,3.34,3.9,5,1.71,2.11,3.61,4.09,5.18,6.3,4.13,5.83,9.55,10.45,14.69,15.27a124.81,124.81,0,0,0,12.38,9.65c3.89,2.8,7.9,5.46,12,7.94a138.24,138.24,0,0,0,17.22,8.6,5.26,5.26,0,0,0,3.77.25,47.83,47.83,0,0,1,6-1.62c3.36-.51,6.76-.71,10.14-1q.75-.08,1.5-.21a22.41,22.41,0,0,1,4.38-.74c4.61.18,9.24-.63,13.84.84,2.21.7,4.7.46,7.09.89a44.86,44.86,0,0,1,9.93,3.21c4.63,2,8.27,5,9.29,10.32.2,1.05.21,2.48.88,3s2.11.39,3.22.39c10.34,0,20.68,0,31,0h2.94c1.73-5.8,5.67-9.27,10.49-11.86a55.93,55.93,0,0,1,24.86-6.86,5.71,5.71,0,0,0,1.5-.19c4.76-1.56,9.67-.86,14.44-.49,2.14.17,4.34.58,6.54.72a16.83,16.83,0,0,1,3.5.7,4.66,4.66,0,0,0,5-1.11,51.83,51.83,0,0,1,6.06-4.48c5.46-3.77,11.12-7.26,16.36-11.31a127.06,127.06,0,0,0,12.11-11c4.4-4.43,9.22-8.47,12.82-13.69,2.88-4.19,6.18-8.1,9.14-12.24,1.74-2.43,3.12-5.1,4.79-7.59.82-1.23.8-2.36.27-4l-8.14,5.79a11.22,11.22,0,0,1-2.61-1.46,4.06,4.06,0,0,1-1.41-2.52,17.9,17.9,0,0,1,1.24-5.18c.82-2.08.43-4.07.49-6.61-1.42.78-2.37,1.28-3.3,1.82-1.56.89-3,1.92-4.67,2.69a3.76,3.76,0,0,1-4.66-1c-1.71-1.71-1.15-3.6-.66-5.61.65-2.67,2.1-5.25,1.25-8.26-3.22.6-5.51,2.81-8.09,4.45-2.1,1.34-4,3.14-6.73,3.06-.19,0-.4.4-.53.55a31.34,31.34,0,0,1,.84,3.22c.46,3.15.8,6.32,1.25,9.48.23,1.62-.46,2.54-2,2.25a5.15,5.15,0,0,1-1.79-1c-2.5-1.77-2.61-4.81-3.9-7.52-1.38,4.87-3.53,9.3-3.4,14.31a1.93,1.93,0,0,1-2.08,2.12c-1.34.09-2.63-.63-2.68-1.88a14.59,14.59,0,0,1,.48-5c1.2-3.76,2.73-7.42,4.06-11.15a1.61,1.61,0,0,0-.27-1.31,1.12,1.12,0,0,0-1.08,0c-2.14,2.57-5.67,4-6.4,7.76-.15.78-1.05,1.44-1.68,2.08a3.14,3.14,0,0,1-3.67.43,2.42,2.42,0,0,1-1.33-3.07,6.88,6.88,0,0,1,1.64-2.74c4.46-4.56,9-9.06,13.51-13.56C528.93,416.55,530.09,413.17,531.8,410.08ZM398.53,143.68c1.45-.39,2.5-.64,3.53-1,2.26-.68,4-2.26,6-3.39a15,15,0,0,0,6.37-8.08,33,33,0,0,0,2.23-12,7.61,7.61,0,0,1,.06-1.51c.28-1.42,1.62-2,2.7-1.08a3.81,3.81,0,0,1,1.14,2.28,41.59,41.59,0,0,1,0,5.47,4.35,4.35,0,0,0,1.41,3.53c.66.63,1.32,1.26,1.93,1.94a11.12,11.12,0,0,0,7,3.88c3.17.35,6.73,1.18,9.54-2.22.71,1,1.65,1.8,1.68,2.59.08,2.19,1.4,3.48,2.75,4.87,2.37,2.44,4.7,4.92,7.35,7.7,1.86,0,4.19,0,6.52,0,3.09,0,4.24-.81,5-3.65a6.5,6.5,0,0,0,.11-2.41c-.24-2.1.7-3.44,2.8-4.6a8.17,8.17,0,0,1,1.07,2.31,15.68,15.68,0,0,1-.15,3.93c-.32,2.08,1,4.76,2.92,5.26a37,37,0,0,0,6.16,1.09c2.11.16,4.51.56,6.32-.22,4.54-2,9.39-3.67,12.34-8.13l.18-.25c1-1.33,2.22-1.55,3.84-.54-1,3-2,5.84-2.81,8.78a6.63,6.63,0,0,0,0,3.59,12.38,12.38,0,0,0,5.06,6.22,2.8,2.8,0,0,0,4.51-1.72c.31-2.11,1.9-3,3.16-4.25a1.8,1.8,0,0,1,2.7.15,4.27,4.27,0,0,1-.12.92c-.92,2.4-.55,3.48,1.61,4.66,2.63,1.44,5.46.58,7.47-2.32-1.37-2.29-1.33-5.38-4-6.87,1.59-1.79,1.59-1.79,4-2s2.63-.61,3.12-2.85a12.22,12.22,0,0,0-.37-6.47c-2-.75-2-.75-3.65,0a4.67,4.67,0,0,1-6.55-2c.95-2,3-2.6,4.71-3.55,3.16-1.75,4.79-4.78,5.66-7.91,1.2-4.28-1.38-11.64-7-12.54-4.19,4.45-6.41,4.26-10.24-1.15l3.13-1.28c2.72-3.37,2-7.73,3.41-11.46a2.74,2.74,0,0,0-.1-1.49,53.22,53.22,0,0,0-4.73-11.29,7.91,7.91,0,0,0-5.45-4.41c-1.88,3.3-1.32,6.78-1.55,10.19a31.61,31.61,0,0,1-1.1,6.47,76.05,76.05,0,0,1-2.8,7.88,31.84,31.84,0,0,1-8.45,12.39c-.55.48-1.53,1-2.09.81-1.56-.5-3.36-.84-4.25-3l3.79-4.24c-6.06-7.09-13.3-12.73-20.43-18-3.14,1.24-4.95,4.85-9.35,3.11a21.33,21.33,0,0,1,2.28-2.25c1.6-1.17,3.49-2,4.89-3.38,2.43-2.38,5-4.6,6.84-7.61a41.88,41.88,0,0,0,5.14-11.09c.54-2.11.75-4.33,1.48-6.36a9.22,9.22,0,0,0,.24-5,61.33,61.33,0,0,0-7.39-.91,28,28,0,0,0-6.19,1c-.61.13-1.48.73-1.58,1.24-.31,1.52-1.6,1.77-2.6,2.26-1.84.92-3.24-.11-3.62-2.19A26,26,0,0,0,454.26,55c-1.88-3.87-4.21-7.51-6.32-11.27a23.25,23.25,0,0,0-6.75-7.92c-4-2.84-7.71-5.38-12.7-6.41a25.77,25.77,0,0,0-14.17.74c-7.87,2.8-13.11,8.62-17.09,15.57.71,1.91,2.47,3.37,1.28,5.39-1.53.59-2.46-.06-3.3-1.08-1.6-1.93-3.22-3.84-4.84-5.75a11,11,0,0,0-6.82-3.58A28.18,28.18,0,0,0,368,42.72,7.48,7.48,0,0,0,365,44.77c-.8,1-2,2.26-1.39,3.8,1.54,4.2,3.06,8.42,4.84,12.53a78,78,0,0,0,10.87,17.25,99.6,99.6,0,0,0,14,13.87,4.06,4.06,0,0,1,1.44,4.88c-3.79,1.77-5.88-1.57-8.75-2.56-3.36,2.59-6.69,5.14-10,7.73s-7.31,4.37-10.56,7.74c1.56,1.22,2.83,2.18,4.05,3.2a5,5,0,0,1,.77,1.16c-.47.28-1,.87-1.39.79a7.51,7.51,0,0,1-3-1.19c-2.46-2-5.21-3.4-7.28-6a91.75,91.75,0,0,1-7.05-10.06c-2.19-3.64-3.34-7.68-4.54-11.69a39.76,39.76,0,0,1-1.13-5.85c-.32-2.39-.5-4.8-.72-7.2a5.59,5.59,0,0,1-.05-2.4c1.48-3.42.26-7,1.14-11a48.75,48.75,0,0,0-4.78,1.4c-3.11,1.3-6.32,2.28-9.24,4.12s-5.08,4.25-7.42,6.59c-2.73,2.73-3.49,8.53-2,12.08a16,16,0,0,0,6.55,7.58c3.23,2,6,4.71,9.23,6.76,1.45.92,1.33,1.68,1,3-.73,0-1.44.29-1.89,0-1.95-1-3.72-.41-5.75-.1-4.25.65-7.44,3-10.46,5.53a8,8,0,0,0-3.26,7.09c.27,2.78,1.88,4.8,3.24,7,.55.88,1.13,1.74,2.06,3.16-1.82,0-3,.25-4,0-3.16-.92-5.38.4-7.3,2.69a3.28,3.28,0,0,0,0,4.61,35.78,35.78,0,0,0,5,4.88c2.19,1.6,4.67,2.9,7.48,1.06a5.15,5.15,0,0,1,1.45-.37,44.44,44.44,0,0,0,6-1.77c2.55-1.13,4.9-2.67,7.37-4,1.33-.71,2.67-2,4.59-.13-1.8,1.94-3.55,3.8-5.16,5.53.76,3,2.34,4.69,5.24,5.12.47-.68.92-1.45,1.47-2.13,1.5-1.87,3-3.72,4.58-5.56a2.25,2.25,0,0,1,3.31-.49c0,1.93.58,3.89-.61,5.81a1.9,1.9,0,0,0,.83,2.84c2.09,1.16,4.08,2.67,6.31,3.34s4.73,1,6.52-1.07a36.27,36.27,0,0,0,4.57-6.16c.84-1.53,1.63-1.43,3.27-1l-.79,5c.78,1.8,2.43,2.61,4.87,2.53,2.18-.07,4.38.38,6.57.53a2.94,2.94,0,0,0,1.37-.35,9,9,0,0,0,5.61-7.24c.36-2.5,1.1-2.94,3.79-2.3,0,.85.29,1.88-.06,2.62-.8,1.73.09,2.88,1,4.06A14.08,14.08,0,0,0,398.53,143.68ZM543.67,287c-2.77.7-4.72.56-6.44-1.44-2.08-2.41-4.42-4.59-6.65-6.88-1.05,1.78-1.26,5.05-.24,6.79,2,3.44,4.13,6.82,6.21,10.23,1,1.71,2.08,3.42,3.14,5.13,3.6,5.8,7.3,11.55,10.79,17.42,3.24,5.44,6.44,10.91,9.33,16.54,3.49,6.78,6.78,13.67,9.8,20.66a9.41,9.41,0,0,1,.15,6.18c-.84,2.49-2.57,4.71-4,7-3.56,5.56-6.52,11.44-9.5,17.31-3.37,6.62-7,13.1-10.69,19.53-1.95,3.38-4.3,6.54-6.42,9.83a6.53,6.53,0,0,0-.39,1.88c2.51-1.53,4.63-2.88,6.81-4.15,3-1.71,6-2.7,9.34-1.38,1.14,1.89,1.84,3.78,1.31,5.87s-1.21,4-1.72,6a13.9,13.9,0,0,0,0,2.79,15.59,15.59,0,0,0,2.14-1,24.72,24.72,0,0,1,6.77-3.81,2.69,2.69,0,0,1,3.75,2.57c-.14,3.68.78,7.45-.83,11,0,.11.17.33.48.91a28.47,28.47,0,0,0,2.57-1.78c2.18-1.89,4.5-3,7.42-1.55.37-.41.84-.72,1-1.16,2.4-5.82,4.9-11.61,7.08-17.52a111.1,111.1,0,0,0,6-22.11,28.49,28.49,0,0,1,1.08-5.56c1.21-3.35.92-6.89,1.68-10.29a21.29,21.29,0,0,0,.06-4.86c-.16-10.43.8-20.93-1.93-31.22-.81-3.07-1.12-6.27-2-9.32a139,139,0,0,0-4.82-15,213.81,213.81,0,0,0-9.41-20.11c-3.16-5.81-7.29-11.1-10.59-16.84a10.47,10.47,0,0,0-9.44-5.75c-.09,2.13-.19,4.21-.28,6.25-5.45,1.82-7.87-2.64-11.57-5.59ZM283,280.55c-1.61,2.35-3,4.57-4.56,6.62a134.07,134.07,0,0,0-12.61,20.89,155,155,0,0,0-8.47,20.43c-.73,2.16-1.51,4.32-2,6.53-.81,3.47-1.28,7-2.17,10.47A42.83,42.83,0,0,0,251.37,357a3.8,3.8,0,0,1-.14,1.8c-1.26,2.28-.83,4.74-.85,7.13,0,5.17,0,10.34,0,15.51a5.58,5.58,0,0,0,.12,2.4c1.85,3.45.22,7.37,1.71,11,1,2.31.64,5.12,1.23,7.62.76,3.27,1.93,6.45,2.8,9.7a125.73,125.73,0,0,0,8.2,21.46c1.22,2.55,2.64,5,4,7.52a46.86,46.86,0,0,1,2.89-5.22,5.67,5.67,0,0,1,5.2-2.47c1.9.25,3.7,1.36,5.54,2.1.79.33,1.57.69,2.61,1.14.08-1.12.16-1.9.2-2.69s-.05-1.62,0-2.43a4.46,4.46,0,0,1,6.47-3.63c1.43.71,2.77,1.6,4.17,2.37.47.26,1,.43,2,.83a33.6,33.6,0,0,0,.13-4.48,7.36,7.36,0,0,1,2-5.58c1.1-1.3,2.65-2.49,4.61-1.58.1.2.2.3.18.39-.11.66-.24,1.31-.36,2,2.7,1.81,2.78,1.8,4.47-1-1.62-2.51-3.34-5.07-4.94-7.7-4.22-6.95-8.16-14.08-12.65-20.85-4.23-6.36-9.12-12.28-13.5-18.54-3-4.35-5.74-8.94-8.56-13.45a4.89,4.89,0,0,1,0-5.4c2.08-3.66,4-7.4,6.07-11.09,1.54-2.8,3-5.66,4.69-8.36,3-4.74,6.18-9.37,9.2-14.1.67-1.05.81-2.48,1.55-3.47,1.61-2.19,3.44-4.21,5.21-6.28a23.31,23.31,0,0,0,1.86-2,91.15,91.15,0,0,1,12.31-15.18,16.05,16.05,0,0,0,1.24-1.48l-3.2-6.27c-1.25,1.21-2.53,2.47-3.83,3.72-1.46,1.41-3.25,1.06-4.85.59-1.32-.39-1.48-1.76-1.43-3.06a10,10,0,0,0-.21-1.81,45.48,45.48,0,0,1-4.66.23c-2.52-.12-3.51-1.46-3.21-3.95a18.26,18.26,0,0,0-.17-2.62C287.22,281.79,285.31,281.72,283,280.55Zm242.3,225.79a9.16,9.16,0,0,0,2.66,1.24,26.72,26.72,0,0,1,9.76,3.54c5.29,2.9,7.61,7.47,7.78,13.32,0,1.87.11,3.75.16,5.68,2.11,0,3.9.34,5.51-.07,3.08-.79,6-2.09,9.09-3a8.73,8.73,0,0,1,4.37-.45c1.71.45,2.2-.19,2.58-1.52s.83-2.88,1.2-4.12c1.75-1.58,3.75-1.6,5.8-1.54a9.59,9.59,0,0,0,3.31-.17c3.2-1.14,6.38-2.37,9.45-3.8,3.62-1.68,5.78-4.81,5.18-8.66-.55-3.46,0-7-1.15-10.46a11.4,11.4,0,0,0-3-4.66,2.47,2.47,0,0,0-2.79-.53c-2.43.81-2.67.63-3-2l-2.58-.78a15.11,15.11,0,0,1,5.42-5.39c1.13-.68,3-4.36,2.45-5.39-1.1-1.94-.49-3.95-.71-5.92a4.89,4.89,0,0,1,1.86-4.81,2,2,0,0,0,.93-2.35c-.48-1.51-.82-3.06-1.3-4.91-2.14-.91-4.48-2-6.9-2.89a3.47,3.47,0,0,0-4.34,1.19c-.57.8-1,1.72-1.6,2.5-3.86,4.89-7.51,10-11.69,14.58a181.67,181.67,0,0,1-18.44,17.51,66.39,66.39,0,0,1-5.27,4.05C535.2,499.85,530.26,503.06,525.29,506.34Zm-34-.65H480.66a10,10,0,0,0-2.12.07c-4,.9-7.9,1.93-11.87,2.78a35.28,35.28,0,0,0-12.56,5.59c-4.1,2.79-5.73,7.38-4,11.13a11.53,11.53,0,0,0,1.59,2.19c4.44,5.42,10.62,8.09,16.89,10.58a17,17,0,0,0,7.66,1.12c1.3-.1,2.84-.39,3.9.14,2.27,1.13,4.13,0,6.05-.59,3.5-1,7-.67,10.44-.19a19.25,19.25,0,0,0,3.53.58c5.42-.28,10.85.66,16.27-.84,2.73-.75,5.73-.35,8.64-1a29.88,29.88,0,0,0,9.45-3.63c3.89-2.36,5-7,2.44-10.35a49.48,49.48,0,0,0-6.77-7.72c-4.14-3.57-8.69-6.64-14.64-6a8.71,8.71,0,0,1-5.42-1.43,18,18,0,0,0-10-2.52C497.19,505.8,494.25,505.69,491.31,505.69ZM349.79,543c1.23-1.29,1.9-2.42,2.89-2.94,2.21-1.17,4.52-2.28,7.17-2,3.09.36,5.93-.66,8.83-1.45a80.56,80.56,0,0,1,10.45-2.39,22.9,22.9,0,0,0,7.66-2.48c2.94-1.51,5.59-3.59,8.53-5.1,3.34-1.72,4.91-4.05,4.7-7.94-.15-2.69-1.09-4.37-3.43-5.48s-4.43-2.44-6.77-3.32c-2.59-1-5.33-1.59-8-2.31a31.22,31.22,0,0,1-4.06-1c-4-1.71-8.16-1.09-12.24-.78-3.64.28-7.25,1.14-10.87,1.72-2.37.39-4.84.44-7.1,1.16-5.51,1.76-11,3.6-16.35,5.84a35.5,35.5,0,0,0-13.56,9.9c-3.35,4-3.2,7.67.73,11.13,1.84,1.62,4.2,2.67,6.34,3.94,2.56,1.52,5.58,1.43,8.32,2.36a19.78,19.78,0,0,0,5.55,1C342.41,543.14,346.26,543,349.79,543Zm82.49-366c.08,1.67-.23,3.73.37,5.46a13.5,13.5,0,0,1,.72,4.39,9.31,9.31,0,0,0,.07,2.12,62.87,62.87,0,0,0,5,12.46,38.5,38.5,0,0,0,8.71,10.66,25.43,25.43,0,0,0,4.31,3.19c1.63,1,3.43,1.63,5.14,2.46,2.27,1.11,4.6,2,7.18,1.7,1.78-.22,3.54-.6,5.3-.94,2.05-.4,4.26-.49,6.12-1.32,8.33-3.72,15.52-8.83,19.62-17.36a40.4,40.4,0,0,0,2.9-6.87c1.06-3.94,1.72-8,2.5-12a2.34,2.34,0,0,0-.15-1.49c-1.16-1.87-.75-3.92-.85-5.92a12.75,12.75,0,0,0-.32-3,79.41,79.41,0,0,0-2.73-8.19c-.89-2.13-1.55-4.51-4-5.66-1.34-.62-2.4-1.88-3.76-2.42-3-1.2-5.82-3.28-9.38-2.69a17.33,17.33,0,0,1-8.57-1.23c-3.29-1.17-6.31-1.16-9.24.52a14.23,14.23,0,0,1-12.72.78c-3.62-1.4-6.71-1.45-9.47,1.53a.51.51,0,0,1-.24.17c-4,1.66-5.09,5-5.47,8.89-.19,2-1.12,3.93,0,5.92a1.36,1.36,0,0,1-.06,1.18C431.74,171.7,432.59,174.3,432.28,177ZM307.12,305.9a31.35,31.35,0,0,0-2.87,3.22c-2.21,3.35-4.35,6.75-6.46,10.16-4.75,7.68-9.55,15.34-14.18,23.09-2.77,4.65-5.26,9.48-7.91,14.2a2.09,2.09,0,0,0-.14,2.5c3.42,5.08,6.69,10.27,10.25,15.25,2.64,3.67,5.88,6.92,8.44,10.65,3.92,5.7,7.45,11.67,11.2,17.49,2.69,4.18,5.47,8.3,8.25,12.51,1.1-1.36,1.87-2.43,2.77-3.37a2,2,0,0,0,.34-2.73c-.66-1.13-1.34-2.24-1.91-3.42-2.73-5.68-5.82-11.24-8-17.12a91,91,0,0,1-4.48-16.07c-.78-4.43-2-8.76-1.86-13.3a2.1,2.1,0,0,0-.13-.9c-1.06-2.42-.81-5-.82-7.49q0-4.56,0-9.13a17.76,17.76,0,0,1,.11-2.73c.57-3.63,1.22-7.26,1.81-10.9.41-2.45.56-5,1.21-7.37C304,315.77,305.5,311.17,307.12,305.9ZM313.84,290a7.73,7.73,0,0,0,1.38-1.25c2-3.11,3.84-6.35,6-9.35,2.68-3.73,5.62-7.27,8.48-10.87,1-1.18,2-2.28,3-3.4,1.42-1.56,2.78-3.19,4.3-4.65s3.33-2.91,5-4.32c1.39-1.16,2.85-2.22,4.22-3.4.78-.67,1.43-1.48,2.12-2.2-4.12-1.82-7.89-3.42-11.59-5.15-2.64-1.22-5.22-2.57-7.77-4a2.21,2.21,0,0,0-2.75,0c-6.19,4.6-12.62,8.9-18.56,13.8-5.45,4.48-10.4,9.56-15.52,14.44a22.22,22.22,0,0,0-2.28,3,10.24,10.24,0,0,0,3.25-.91c2.06-.72,3.38.16,3.38,2.38a23.91,23.91,0,0,1-.59,3.5c-.11.72-.14,1.46-.22,2.32,2.38-.39,4.08-2.37,6.65-1.06.13,1.54.28,3.25.44,5.07,2.81-1.18,5-3.92,7.44-2.61C313.31,284.06,311.22,287.77,313.84,290Zm88-119c0-2.43-.1-4.87,0-7.29a8.71,8.71,0,0,0-1.9-5.6,5.41,5.41,0,0,1-1-1.48c-1-3.65-4.15-5.5-6.67-7.79-1.44-1.31-3.54-2-5.54-.49-.31.24-.8.23-1.12.45-1.48,1-2.9.74-4.57.32-2.58-.64-5.1-1.54-7.88-1.56a59.82,59.82,0,0,0-14.51,1.86,48.23,48.23,0,0,0-11.77,4.12,13.3,13.3,0,0,0-6.25,6c-1.24,2.58-1.54,5.35-2.66,7.89a4.16,4.16,0,0,0,.16,2.37c.52,2.31,1.17,4.59,1.65,6.9a6,6,0,0,1-.24,2.08c-.09.47-.4,1-.32,1.4a47.73,47.73,0,0,0,4.66,13.18c2.06,4,5.3,7,8.23,10.36,4.76,5.41,11,6.49,17.49,6.16,3.43-.17,7,.08,10.46-1.16,1.84-.65,3.58-1.1,5-2.51.56-.57,1.3-1,1.88-1.51,2.38-2.29,5.07-4.36,7-7a53.47,53.47,0,0,0,5.15-9.47,25.51,25.51,0,0,0,2.77-11.52C401.82,174.9,401.87,173,401.87,171Zm96,78.61c.92.74,2,1.47,2.92,2.37,4,4,8.38,7.58,12.11,11.9a141.6,141.6,0,0,1,9.37,12.1c1.08,1.57,2.24,2.74,4.26,2.89a2.75,2.75,0,0,0,.22-.89,4.05,4.05,0,0,1,2.72-4.28c1.79-.77,3.3.29,4.54,1.64.82.89,1.7,1.73,2.49,2.65.54.63,1,1.34,1.44,2,.38-.28.52-.34.52-.4.06-2.52,0-5.06.2-7.58a5.83,5.83,0,0,1,.84-2.75c1.72-2.57,4.84-2,6.91-.22.87.73,1.68,1.54,2.52,2.31l.6-.33c0-1.49-.44-3.18.13-4.41s2.1-1.8,3.28-2.72c-10.69-11.95-24.17-20.63-36.82-30.69C513,242.2,505.89,246.19,497.89,249.65ZM526,407.12l3.37-1.83c1.74-1,3.4-2.44,5.24-2.71a5.1,5.1,0,0,0,3.82-2.51c1.15-1.75,2.08-3.65,3.24-5.39,4.65-7,8.43-14.49,13.46-21.25a107.45,107.45,0,0,0,7.5-12.35,4.83,4.83,0,0,0,.14-3.68c-1.82-4.35-3.74-8.68-5.92-12.85-4.56-8.73-9.31-17.35-14-26l-2.61-4.82-.72.27c.4,2.72.42,5.57,1.31,8.12,1.11,3.19.43,6.59,1.7,9.68-.38,11.53.85,23.08-1.75,34.58-1.12,4.92-2,10-3.44,14.78-1.61,5.41-4.15,10.57-6.42,15.78C529.5,400.17,527.83,403.32,526,407.12Zm-207.18-164c-1.28-2.75-2.51-5-3.44-7.44A51,51,0,0,0,303.46,217a65.3,65.3,0,0,0-8-6.86c-3.75-2.58-6.4-1.9-9.24.76a12,12,0,0,0-3.3,7.54,29.62,29.62,0,0,0,2.17,15.28c3,6.9,6.41,13.61,11.32,19.4,1.07,1.27,2.37,2.34,3.67,3.6a32.76,32.76,0,0,1,3.64-3.33c1.24-.83,2.73-1.29,3.21-3-2.7-3.84-5.46-7.66-8.11-11.54s-5.27-7.94-7.94-12a10.92,10.92,0,0,1,1.31-1.18c.21-.13.57,0,.86,0a21,21,0,0,0,1.61,3.13c1.31,1.79,2.76,3.46,4.17,5.17,1.79,2.15,3.61,4.28,5.39,6.44.45.54.79,1.17,1.2,1.75,1.49,2.09,3,4.17,4.58,6.37C313.13,246.55,316,244.78,318.8,243.07Zm73.35-97.62c2.33.8,4.4,1.42,6.39,2.25.85.35,2.08,1.09,2.15,1.74.17,1.86,1.54,2.73,2.46,4,1.68,2.32,3.92,4.38,3.68,7.69a3.61,3.61,0,0,0,1.63,3.14c7.45-1.66,14.64-3.59,21.55.89a6.61,6.61,0,0,0,.34-.92,4,4,0,0,0,0-.91c-.37-3.2,1.05-5.59,3.31-7.68,2.63-2.43,4.81-5.41,8.66-6.43-.37-.8-.54-1.26-.79-1.67-1.84-3-3.79-5.89-5.52-8.94-.76-1.33-1.68-1.61-3.09-1.86-3-.52-6.2-.67-8.69-2.83-1.11-1-2.21-1.93-3.4-3-.48,1.4-1.23,2.63-1.24,3.85,0,4.86-2.76,8-6.32,10.68-2,1.51-6.72,1.91-8,.47s-2.72-1.48-4.27-.7a2.88,2.88,0,0,1-3.38-.2c-1.12-.87-2.29-1.68-3.54-2.59ZM341,410c2.29-1.31,2.29-1.29,4.55-.74q2.16.54,4.32,1c1.17.25,2.35.44,3.53.64a6.29,6.29,0,0,0,2.07.26c2.72-.55,5.45-1.09,8.1-1.87,10.47-3.12,16.39-10.63,18.49-20.88a26.38,26.38,0,0,0-.74-14.56c-2.26-6.1-5.16-11.46-10.79-15.36-4.65-3.23-9.82-4.2-15-5.17-1.82-.34-3.89.48-5.82.91a43.25,43.25,0,0,0-6,1.63c-4.11,1.57-7.4,4.33-10.47,7.45-5.26,5.36-7.15,12.1-8,19.23-.17,1.49.8,3.08.86,4.64.13,3.3,1.44,6.14,2.86,9a3.13,3.13,0,0,0,2.37,2.06c1.61.22,2.37,1.41,3.28,2.48,1.42,1.69,2.67,3.61,4.37,4.93A4.55,4.55,0,0,1,341,410ZM520.69,226.91c2.24.67,4.22,1.22,6.18,1.86,2.21.72,2.72.65,4.09-1.27,2-2.77,3.76-5.67,5.81-8.38a13.66,13.66,0,0,1,5.16-4.67l1.41,2.71c-1.17,5.76-5.46,9.75-8.25,14.93l7.31,4.11a12.14,12.14,0,0,0,2-2.79,61.75,61.75,0,0,1,6.43-12.88c2.33-3.77,3.22-7.61.68-11.69a12.6,12.6,0,0,1-1.06-2.47,5.21,5.21,0,0,0-6.74-3.34c-4.52,1.65-9,3.5-11.92,7.64a3,3,0,0,1-.65.63,17.31,17.31,0,0,0-5.81,7.5C524.15,221.68,523.06,224.51,520.69,226.91ZM384.49,92.62c-.83-.91-1.47-1.65-2.16-2.34-2.35-2.38-4.72-4.74-7.08-7.1-1.8-1.81-1.84-1.88-4.11-.7-6.13,3.17-12.22,6.41-18.28,9.6,0,3.87,6.21,13.31,10.8,16.27C371,104.08,377.05,97.88,384.49,92.62Zm-62.73,70.22c2.37,1.56,4.63,3,6.84,4.54S332.84,171,336,172a68.41,68.41,0,0,1,.07-7.49,18.17,18.17,0,0,1,1.59-5.08c.34-.78,1.5-1.23,1.8-2,1.27-3.23,4.28-4.33,6.89-5.93A30.56,30.56,0,0,1,357,147.35c-1.84-1.41-3.52-2.65-5.13-4a2.27,2.27,0,0,0-2.8-.31c-2,1.25-4.27,1-6.18.49-2.46-.62-5-1.88-5.1-5.16,0-.2-.4-.39-.71-.66-1,.54-2.22.83-2.8,1.63A94.81,94.81,0,0,0,321.76,162.84Zm91.91,55.57c2.33-1.45,4.53-2.65,6.53-4.12s3.49-3.34,3.36-6.08c-.09-1.72.06-3.45-.05-5.16a10.45,10.45,0,0,0-.69-2.53c-1-2.84-3.33-4.56-5.51-6.27a6.81,6.81,0,0,0-6-1.18c-3.9,1.05-6.59,3.65-8.59,7-1.07,1.82-2.17,3.7-1.77,5.93.8,4.54,2.83,8.37,7.12,10.5A40.25,40.25,0,0,0,413.67,218.41ZM467,91.28c3.64,2.75,7.26,5.24,10.59,8.07s6.55,6.11,9.81,9.18c.55-.46.89-.61,1-.85,1.35-3.44,2.82-6.84,3.9-10.36.48-1.54.51-3.34-1.36-4.56-5.31-3.5-10.53-7.13-15.88-10.76Zm-114.83-.67,19.16-11.36c-.21-2.16-2-3.33-2.73-5-1.16-2.65-3-3.39-5.71-3.36-3.39,0-6.83.64-10.18-.79-1.06-.45-2.5,0-3.7.05a45.25,45.25,0,0,0,1.82,18.74A7,7,0,0,0,352.19,90.61ZM334.9,410.32l-5.22-4.61-12.87,14.76c.62,2.1,2.38,4,1,6.24-2.57,1.05-3.27-1.66-5.14-2.33a39.28,39.28,0,0,0-8.29,9.69l7.62,5.66a28.2,28.2,0,0,0,2.2-3c.76-1.37,1-3.05,2-4.23,2.53-3.11,5.31-6,8-9,.69-.78,1.56-1.32,1.24-2.8s1-2.26,2.24-2.85c.68-.32,1.44-.49,2.08-.87C332.28,415.47,333.6,413,334.9,410.32ZM499.24,160.4c4,7.14,6.43,14.26,6,22.19.57-.23.82-.25.91-.38,2.86-4.42,7.33-7,11.35-10.14a2.26,2.26,0,0,0,.26-.16c2.87-2.92,4.32-3,2.11-7.62a12,12,0,0,1-.9-1.88,2.35,2.35,0,0,0-2.65-1.95,7,7,0,0,1-4.86-2,19,19,0,0,0-1.8-1.11c-.54,2.46-2.69,2.55-4.24,3.54C503.35,162.21,501.66,160.83,499.24,160.4Zm-6.34-71c2.06-3.31,1.9-15.25-.15-21.19H480.08c-1.36,3.87-2.63,7.49-3.89,11.1Zm-110,308.9c-3.18,3.84-6,7.69-10.28,10.48a31.5,31.5,0,0,1-17.68,5.44c-2.18,0-4.46-.55-6.52.78-.26.16-.77,0-1.15-.1-1.63-.33-3.25-.67-4.83-1-1.27,2.56.83,4.08.7,6.3,5.85-.59,11.51,1,17-1.07.93-.34,1.87-.65,2.81-.95,4.69-1.49,9.32-3.07,12.8-6.82a3.41,3.41,0,0,1,.9-.8C382,408.1,382.07,403,382.86,398.3ZM364.18,67.9c.06-.63.16-.86.09-1-1.27-3-2.45-6.1-3.89-9a4.16,4.16,0,0,0-3.73-2.65,26.42,26.42,0,0,1-3.45-.71,15.46,15.46,0,0,0-2.17,0c-1.21,4.42-3.06,8.65-1.88,13.45Zm122.1-18.45c-2,.77-3.62,1.3-5.15,2-1.22.57-2,1.74-1.31,3,1,1.84.69,3.73.74,5.62s0,3.58,0,5h11.61A59.3,59.3,0,0,0,486.28,49.45Zm-1.93-2.59c-1.63-4.06-8.26-9.39-11-9l6,11.32C481.52,49.56,483.09,48.53,484.35,46.86ZM358.07,39.23c-3,3.07-4,7.36-5.91,11.17-.67,1.35-.38,2.18,1.07,2.49a38.25,38.25,0,0,0,5.32.41,70.51,70.51,0,0,1-.9-7.11C357.58,43.85,357.92,41.5,358.07,39.23ZM300.82,441.84l13.1,6.51.51-.53c-.49-1-1-2.05-1.46-3.07-5.18.3-7.87-4.05-12.15-6.16Zm16.06,6,5.11-6.77-2.52-2.3c-1.13,1.61-2,2.93-3,4.19C314.87,445.13,314.85,445.31,316.88,447.85Zm9-17.8c-1,1.32-1.76,2.13-2.33,3.06a2.29,2.29,0,0,0,.91,3.37c1.36.66,2-.32,2.57-1.33a17.82,17.82,0,0,0,.76-1.92Zm10.53-10.36c2.26,1.46,3.24,1.15,3.47-.95a33.26,33.26,0,0,0,0-3.46l-.63-.15Zm78.75,102.49,0-.75c-1.56,0-3.14-.08-4.7.05-.53,0-1.4.57-1.45,1-.14,1,.81,1,1.46.92C412,523,413.56,522.58,415.13,522.18Zm78.94-366.57c.2-2.8.08-3.33-.85-3.71s-1.56-.19-2,1.12ZM303.42,426.7l.95-2.12c-.34-.14-.77-.48-1-.38C302,424.76,302.58,425.66,303.42,426.7ZM457.14,149.35l.09-.45h-5.49l0,.45ZM326,238.52l-1.3-.8c-.15.31-.45.65-.39.92s.48.67.71.65S325.56,238.87,326,238.52Z" transform="translate(-246.42 -25.64)"/><path d="M415.13,522.18c-1.57.4-3.13.86-4.72,1.19-.65.13-1.6,0-1.46-.92.05-.4.92-.93,1.45-1,1.56-.13,3.14-.05,4.7-.05Z" transform="translate(-246.42 -25.64)"/><path d="M390.33,253.19l4.18-.32c-1.62,2-2.88.32-4.16.32Z" transform="translate(-246.42 -25.64)"/><path d="M326,238.52c-.43.35-.69.74-1,.77s-.66-.38-.71-.65.24-.61.39-.92Z" transform="translate(-246.42 -25.64)"/><path d="M421.49,405.85c-1.63-5.56-2-11.23-5.67-16.05a3.56,3.56,0,0,1,3.61,2.56c.95,2.17,1.62,4.46,2.36,6.72q.93,2.81,1.71,5.65c.48,1.72.86,3.46,1.27,5.2a18.28,18.28,0,0,1,.69,3.46c.09,2.78-1.48,4.58-3.92,4.75a4.84,4.84,0,0,1-4.9-4.32C416.07,409.93,417.94,407.47,421.49,405.85Z" transform="translate(-246.42 -25.64)"/><path d="M414,234.24c2.71-2.06,4.59-3.47,6.45-4.9a11.69,11.69,0,0,0,2-1.69c.87-1.08.81-1.14,2.59-1a7.29,7.29,0,0,1-3.8,8.23c-3.12,1.5-6.29,2.8-10.22,1.64-3.36-1-6.53-1.93-8.86-4.54a14.73,14.73,0,0,1-2.14-4.2c-.11-.27.3-1,.62-1.14s1,.22,1.16.54c1.44,2.37,3.16,4.49,5.83,5.41C410,233.37,412.41,234.45,414,234.24Z" transform="translate(-246.42 -25.64)"/><path d="M438.05,180.29c.85-7.93,3.3-14.39,9.05-19.53a29.77,29.77,0,0,1,8.82-5.58,36.25,36.25,0,0,1,6.34-1.56A20.61,20.61,0,0,1,467,153a24.6,24.6,0,0,1,6.19.79c7.64,2.28,13,7.33,16.56,14.35a30.86,30.86,0,0,1,1.65,5.36,18.91,18.91,0,0,1,1,3.76,26.5,26.5,0,0,1-4.5,17.34c-3.67,5.18-8.49,9.42-15,11a50.48,50.48,0,0,1-5.85,1c-5.67.67-10.68-1.42-15.44-4.08a26.06,26.06,0,0,1-11.94-14.24C438.63,185.66,438.49,182.68,438.05,180.29Zm4.61,7.41c.58-3.15.94-5.82,1.59-8.42a20.43,20.43,0,0,1,4.59-8.28c4.58-5.43,10.91-6.6,17.37-7.59a12.87,12.87,0,0,1,6.15,1,20.94,20.94,0,0,1,11.33,9.32,18.69,18.69,0,0,1,2.8,11.15,15.34,15.34,0,0,0,.4,5.47c1.52-3.46,2.71-6.89,2.59-10.7a39.66,39.66,0,0,0-.94-5.87,21.34,21.34,0,0,0-4.12-8.88c-4.92-6.63-12.3-8.8-19.95-10.3a3.34,3.34,0,0,0-1.43.33c-.56.18-1.11.41-1.67.59a32.91,32.91,0,0,0-5.63,1.76,26.11,26.11,0,0,0-11.81,11.5C440.8,174.88,440.45,180.89,442.66,187.7Zm33-9.45a11.61,11.61,0,0,0,0-1.44c-.39-3.14-2.49-4.84-5.1-6.2-1.89-1-3,.51-4.37,1.17-2,1-2.91,4.27-1.73,6.61a9.22,9.22,0,0,0,4.33,4C472.07,184.14,476.24,182.85,475.64,178.25Z" transform="translate(-246.42 -25.64)"/><path d="M369,202.8c-8.64.55-14.39-4.44-19.26-11.05a19.71,19.71,0,0,1-3.25-6.41c-1.09-3.91-2.55-7.64-.92-11.91.82-2.17,1-4.67,2.13-6.79,3.51-6.4,8.49-11.1,15.68-13.06,2.77-.76,5.58-1.35,8.4-1.89a6.23,6.23,0,0,1,2.35.31c.48.11.93.52,1.39.52,5.2,0,9.15,3,12.81,6a19.55,19.55,0,0,1,5.74,8.67,28.1,28.1,0,0,1,1.95,9.9,26,26,0,0,1-27,25.73Zm-21-24.1c.39-.21.66-.27.7-.4,1.71-5.53,4.51-10.24,9.73-13.2a19.08,19.08,0,0,1,8.11-2.74c4-.29,7.76.75,11.64,1.11a5,5,0,0,1,1.35.61,16.72,16.72,0,0,1,7.26,6.69c3.21,5.21,4.74,11,2.39,17.19-.14.38.06.9.14,1.8a15.9,15.9,0,0,0,3.65-8.42,25,25,0,0,0-1.93-13.5,23,23,0,0,0-10.67-11.05c-4.4-2.23-9.2-2.61-14.07-2.22a5.49,5.49,0,0,0-1.72.46,30,30,0,0,0-10.91,7.79c-3.61,4.14-4.9,9.05-5.87,14.17A6,6,0,0,0,348,178.7Zm28.29,2.41c1.83.31,4-.05,4.55-2.39a11.46,11.46,0,0,0-.23-5.87c-.95-3-3.49-3.82-6.54-3.56-2.55.22-5.73,2.49-6.26,4.87a2.64,2.64,0,0,0,.19,1.43A9.73,9.73,0,0,0,376.27,181.11Z" transform="translate(-246.42 -25.64)"/><path d="M377.3,383.41c0,.91,0,1.82,0,2.73a18.75,18.75,0,0,1-5.56,13.47c-2.6,2.74-5.46,5.07-9.12,6.14-4,1.16-7.92,2.47-12.26.84-1.9-.72-4-1-5.91-1.91a24.26,24.26,0,0,1-12.93-14.36c-1.36-3.94-2.11-8.12-.77-12.66A27.88,27.88,0,0,1,339.5,364a23.89,23.89,0,0,1,7.57-3.95,19.64,19.64,0,0,1,7.7-.87,27.54,27.54,0,0,1,3.18.64,26.71,26.71,0,0,1,4,.48c1.86.59,3.92,1.15,5.37,2.36a30.63,30.63,0,0,1,7.91,9.07A20.74,20.74,0,0,1,377.3,383.41ZM347,362.81c-2.89.13-4.81,1.92-6.85,3.65.63.85,1.37,1.43,1.54,2.15.94,3.85,3.1,7.13,4.91,10.55,2.43,4.58,5.1,9,7.67,13.55,1.29,2.26,2.55,4.54,3.87,6.78.57.95.68,1.79-.38,3.09a46.65,46.65,0,0,1-3.21-4.56c-3-5.45-5.9-10.93-8.69-16.47-2.27-4.52-4.31-9.14-6.45-13.73-6.48,4.23-8.7,16.36-4.14,24.32,6.47,11.27,19.24,16,29.78,8.89-1.87-3.3-3.9-6.53-5.58-9.93-4.07-8.25-8-16.57-11.9-24.91a13.41,13.41,0,0,1-.62-3.45,25.71,25.71,0,0,1,2,2.93c.94,1.86,1.61,3.85,2.58,5.68q7,13.27,14.09,26.46a11.3,11.3,0,0,0,2,2.06c2.55-3.82,4.84-7,6-11.28a20.91,20.91,0,0,0-.67-12.34c-2.24-7-7.45-11.58-14.27-14.6a5.08,5.08,0,0,0,.22,1.17c1.59,3.23,3.14,6.48,4.82,9.66,2.38,4.49,4.86,8.94,7.3,13.4a2.71,2.71,0,0,1-.19,2.85,25.63,25.63,0,0,1-2.33-3.21c-2.76-5.4-5.43-10.85-8.16-16.26-1.34-2.69-2.74-5.34-4.17-8.13C353,361.38,349.66,360.09,347,362.81Z" transform="translate(-246.42 -25.64)"/><path class="cls-1" d="M475.64,178.25c.6,4.6-3.57,5.89-6.88,4.13a9.22,9.22,0,0,1-4.33-4c-1.18-2.34-.25-5.64,1.73-6.61,1.36-.66,2.48-2.16,4.37-1.17,2.61,1.36,4.71,3.06,5.1,6.2A11.61,11.61,0,0,1,475.64,178.25Z" transform="translate(-246.42 -25.64)"/><path class="cls-1" d="M376.27,181.11a9.73,9.73,0,0,1-8.29-5.52,2.64,2.64,0,0,1-.19-1.43c.53-2.38,3.71-4.65,6.26-4.87,3.05-.26,5.59.54,6.54,3.56a11.46,11.46,0,0,1,.23,5.87C380.27,181.06,378.1,181.42,376.27,181.11Z" transform="translate(-246.42 -25.64)"/></g></svg>