<svg id="Layer_1" data-name="Layer 1" xmlns="http://www.w3.org/2000/svg" viewBox="0 0 310.8 586"><defs><style>.cls-1{fill:#fff;}</style></defs><path d="M0,320.7c1.2-2.4,3.4-2.8,5.5-3.1s5.7-.6,8.6-.9c15.6-1.5,31.4-.2,47-.9,2.9-.1,5.7-.7,8.6,0a4.1,4.1,0,0,0,2.9-1,96.8,96.8,0,0,0,14.5-11.4C59.8,286.3,43.6,262,40.9,230s8.9-58.7,32.4-80.4L72,148.1a41,41,0,0,1-9.4-16.3,16.8,16.8,0,0,1-.2-10.4c1.3-4.4,5-7.6,10.3-5.2a86.9,86.9,0,0,1,7.7,4.6l1,.4a32.6,32.6,0,0,1-.5-4.1c-.1-2.5-.2-5-.1-7.4A59.4,59.4,0,0,1,83.2,97a3.3,3.3,0,0,0-.1-2.2c-3.3-5.5-7.6-9.6-14.2-11.3-.4,2.5-2,2.6-3.9,2.4H63.3c-2,.2-4.1.7-3.8-2.6a19.2,19.2,0,0,0-11.4,6c-4.4,4.6-6.2,10.2-6,16.6a18.5,18.5,0,0,0,.1,2.3c1.2,28.6.5,57.2.7,85.8,0,.9-.1,1.8-.1,3-1.6-.9-1.2-1.9-1.2-2.8-.2-4.7-.2-9.5-.3-14.2-.1-8.6-.3-17.1-.4-25.7-.1-11.9-.3-23.7-.4-35.6,0-3.6.3-7.3.4-11,0-1.6-.3-3.2-.4-4.8a17.2,17.2,0,0,1,2.7-10.2c1.6-2.5,3.6-4.7,5.5-7.3l-1.1-.3c-3.7-.4-4.6-1.3-5.7-4.9-.5-1.7-.7-3.1.6-4.2a7.6,7.6,0,0,1,6.1-2c2.9.4,3.4.8,5.6,3.9l2.2-.3,2-.3a13.5,13.5,0,0,0-.1-5.3,15.7,15.7,0,0,1,.8-6.8c3.4-10,10.3-16.5,20.6-19.1,3.4-.8,6.4.1,10.8,2.8l2.6-1.4L91.5,46c-1.4-.8-2.6-1.6-1.8-3.6.2-.4-.4-1.2-.7-1.8a20.1,20.1,0,0,1-1.4-2.5c-2-4.7.5-8.6,3.4-11.3a22,22,0,0,1,10.8-5.3,4.8,4.8,0,0,0,4.4-4,28.9,28.9,0,0,1,5.5-10.4,19.9,19.9,0,0,1,2.2-2c1.5.5,1.2,1.6,1.3,2.5s.1,1.9.2,3.2l2.3-.9a55.7,55.7,0,0,1,8-2.2c3.9-.7,7.2,1.3,10.5,3.8l1.3-1.7A19.5,19.5,0,0,1,150.8.4a31.4,31.4,0,0,1,7.5-.3c4.2.4,8.2,1.4,11.5,4.1A24.4,24.4,0,0,1,174,8.5c2.1,3.2,4.5,6.3,5.2,10.3.1.5,1.2,1.3,1.5,1.2,2.3-.7,4.4-.1,6.6.2l1.5-.3c-.2-4.8-2.1-8.9-4.6-13a2.7,2.7,0,0,1,2.6-1.2,12.1,12.1,0,0,1,10.4,5.4c4,5.3,6.7,11.2,7.1,18,.2,2.2.8,4.1,3.4,4.6s2.7,2.2,3.6,3.7,1.4,2.7,2.2,4a11,11,0,0,1,1.8,9.6,7.2,7.2,0,0,0-.2,2.2l3.7,1.6c2.5-2,5.2-3.5,8.5-3.4a29.2,29.2,0,0,1,5.9.3A25.2,25.2,0,0,1,245.8,59a16.7,16.7,0,0,1,4.6,9.7l.6,4c2.8.9,2.8.9,3,3.9,5,2.5,7.2,1.6,9.9-2.6a6.2,6.2,0,0,1,4.1,3.9,3.7,3.7,0,0,1-1.4,4.4,5.4,5.4,0,0,1-5.6-.7,7.5,7.5,0,0,1-1.3-1.8,23.6,23.6,0,0,0-4.3-.9,2.1,2.1,0,0,0-1.8.8c-.5.8.2,1.3.9,1.8a59.6,59.6,0,0,1,6.5,4.7c4.5,3.9,7.1,9.1,8.6,14.7a31.2,31.2,0,0,1,.9,7.4c.1,8.9.1,17.8,0,26.6-.2,17.1-.5,34.1-.8,51.2-1.3,6,.8,11.8,1.3,17.7s1.6,13.3.4,20.1c-.5,2.7-.5,5.5-.8,8.3a74.1,74.1,0,0,1-6.1,23.6c-2.7,6.1-5.9,11.9-8.9,17.8l-.6,1.1,5.7,2a3.6,3.6,0,0,1,2.5,2.8A50.5,50.5,0,0,0,265,285a9.9,9.9,0,0,1-.5,8.1,7.8,7.8,0,0,1-2.3,2.5,20.2,20.2,0,0,1-3.6,1.7c3.6.6,5.3,2.8,5.9,6a68.8,68.8,0,0,1,1.5,7.9,9.7,9.7,0,0,1-1.4,3.9c-.5.8-1.3,1.4-2.3,2.6,16.6.9,32.8.5,48.5,5.4-.1,3.8-2.1,6.6-5.4,8.5a31,31,0,0,1-11.3,4.2l-2.6.7c-5.5,1.8-7.8,5.8-6.8,11.6.3,2.3.9,4.5,1,6.8s-2.7,5.7-5.9,3.7-6.4-2.4-9.7-3.3l-19.9-5.8c-2.3-.7-4.5-1.9-6.8-2.7l-8.2-2.5c-6.3-1.9-12.5-3.8-18.8-5.5a59.4,59.4,0,0,0-15.7-2.1,139.5,139.5,0,0,0-15.8.4,36.8,36.8,0,0,1-15.8-1.8,12,12,0,0,1-6.7-4.8c-.1-.2-.4-.3-.9-.6v22.6c0,2.2.1,4.4.2,6.6a14.9,14.9,0,0,0,.2,2.1c0,5.6.1,11.3.2,17l.6,24.8c0,2.1.2,4.1,0,6.1s.1,3.6,1.9,4.8.8,1.3,1.3,1.8a4.4,4.4,0,0,0,1.7,1.4c7.9,2.1,12.9,7.3,16.1,14.6,4.3,10.1,2.5,19.5-3.5,28.4l-1.2,1.7h8c2.3.2,2.9,1.1,2.8,3.4a8.7,8.7,0,0,0,.4,3.6c6.4,16.3,12,32.7,17.4,49.3,4.2,13.1,8.5,26.1,12.8,39.2.7,1.9,1.4,3.8,1.9,5.7a2.8,2.8,0,0,1-.3,2.4c-2.6,2.8-4,6.3-5.8,9.6l-4.6,8.3a2.5,2.5,0,0,1-2.3,1.4c-3.7.1-7.3.5-11,.6l-48.3.4-39,.2-14.8-.2a20.9,20.9,0,0,1-3.2-.5c.7-2.4,1.2-4.4,1.8-6.4,5-15.6,9.9-31.2,15-46.7s10.2-31,15.4-46.5c1-3,2.5-5.8,3-8.8s1.7-3.7,3.4-5.1l10.4-8.2a23.9,23.9,0,0,1,2.2-1.2,26.7,26.7,0,0,1,7.2-45.3V404.2c0-1.1-.1-2.1-.1-3.2-.2-11.2,0-22.4-.8-33.5s-.2-20.4-.4-30.6a67.4,67.4,0,0,1,.5-7.5,40.3,40.3,0,0,0-4.6,2.9c-1.8,1.4-3.8,1.7-5.9,2.1a43,43,0,0,1-12.4.5,122.1,122.1,0,0,0-13.5-.7c-2.4,0-4.9.6-7.3.2a3.3,3.3,0,0,0-2.5.6c-2,1.4-4.4,1.8-6.7,2.3l-15.1,3.8L65.1,346c-2.5.7-5,1.9-7.6,2.6l-17.7,4-10,2.5a3.3,3.3,0,0,1-3.3-.7,2.7,2.7,0,0,1-.3-3.2l.9-2.1a13.9,13.9,0,0,0,.9-9.6,11.8,11.8,0,0,1-.4-2,10.3,10.3,0,0,0-7.7-8.1L11.2,328c-4.2-.5-7.3-2.7-9.9-5.9A8.3,8.3,0,0,0,0,320.7ZM178.7,451.8c-1.8-.1-3.1-.7-3.7-2.6s-.9-1-1.9-1.9c-.5,6-2.7,10.7-7.1,14.2,4.1,1.4,4.2,1.5,5.5.4,3.3-2.7,6.1-5.8,7.1-10.2.4-1.1,1.2-2.1,1.1-3.3h-.8C178.8,449.4,178.8,450.6,178.7,451.8Zm-18.1,12.6c-.2-2.8,2.4-3.6,4-5.6-4.8-.1-7.3-2.1-8-6.7s-1.3-10.7-.4-16a3.3,3.3,0,0,0-1-3.4c-2.9,3.2-3.7,4.2-4.2,6.5s-.2,2.6-.5,4c-1.1,5.1.4,9.7,2.8,14.2,1.3,2.4,4,3.6,5.1,6.2.2.5,1.5.5,2.2.7s.9,1.4-.2,1.7-3.1,1.2-4.8.4a1.8,1.8,0,0,0-1.6.3c-.7,1-1.5.8-2.5.3l-4.8-2.5-2.1-.8a47.6,47.6,0,0,1-4.4,3.9c-2.2,1.7-4.6,3.1-6.9,4.7a17.2,17.2,0,0,0-1.8,1.6h43.9l8.7-9.8c-.6-.4-.9-.8-1.3-.8-3.8-.3-7.6-.7-11.1,1.7-1.4,1-2.8,1.5-4.4,0a3.6,3.6,0,0,0-2.1-.5ZM144.1,317.6h.1c0-.3-.1-.7.1-.8,2.1-2.4,2.1-4.3-.1-6.4s-2-1.7-2.9-2.5c-1.9.7-1.4,2.1-1.4,3.3s-.7,3.3-3,3.9a18.2,18.2,0,0,1-7.7.5,76.8,76.8,0,0,0-11.7-.9,14.6,14.6,0,0,0-9.1,3.9,10.8,10.8,0,0,0-3.8,5.9,4.3,4.3,0,0,0,4.2,5.4l21.3.6c3.4,0,6.8-.1,10.1-.4a8.6,8.6,0,0,0,6.9-4.7c1.8-3.2.6-6.2,0-9.5Zm99.5-232L242,81.8h-1.3l-1.6.5c-5.5,1.9-9.4,5.8-13,10.2l-1.7,1.8a4.7,4.7,0,0,1,.4-1.6,26.7,26.7,0,0,1,9.4-9.5c2.6-1.5,5.4-2.5,8.2-3.8.3-3.7.7-7.6-2.1-10.8l-3-3.1c-5.4-5.1-16.9-4.1-18.5,4.4,3.1,1.6,3.9,4.4,2.9,7.5s-2.1,4-2.3,6.3c-.1.7-1.2,1.2-2.1,2,3.1,2.8,3.1,7.2,4.8,10.9l2.4-2.4a5.7,5.7,0,0,1-.4,1.4,11.1,11.1,0,0,0-1.1,8.9,8.1,8.1,0,0,1,.1,3.1c-.3,2.4-.8,4.7-1.1,7.1a10.6,10.6,0,0,0,.2,2.3,20.7,20.7,0,0,0,2-1.5c2.9-2,5.9-3.6,9.6-3.2s4.3,1.2,5.3,3.4a14.4,14.4,0,0,1,1.1,5.3,43.4,43.4,0,0,1-1.7,6.9,11.1,11.1,0,0,0-.8,3,4.6,4.6,0,0,1-1,3.2,9.4,9.4,0,0,0-1,2.2l6.8-1.4c2.4-.5,4.8-.7,7-1.7,4.1-1.8,8.4-3.7,9.1-9a1.3,1.3,0,0,1,1-.8c.4-.1,1.1.4,1,.7a8.1,8.1,0,0,1-.4,3.5,15.6,15.6,0,0,1-9.2,7.5,109.6,109.6,0,0,1-14,3.3,93.9,93.9,0,0,1-11.7,1.6,136.8,136.8,0,0,1-25.6-.9c-4.7-.6-9.3-1.4-14-1.9-3-.4-6-.5-9.3-.7-.1,2.4-.2,4.5-.3,7,2.4,0,4.5-.2,6.5,0,3.9.3,7.7.8,11.5,1.2l15.4,1.9a77.1,77.1,0,0,0,19.2.8c5.6-.6,11.2-1.6,16.8-2.5,8.2-1.4,14.5-5.9,19.6-12.2,1.7-2.1,2.1-5.3.6-7.3a7,7,0,0,0-6.4-3.1c-4.1.2-7.5,2.1-10.5,4.8a30.1,30.1,0,0,0-6.3,7.9c1.5-6.3,9-13.6,15.3-14.8,4.2-.8,7.5.8,10.2,4l1,1.5a4.5,4.5,0,0,0,.3-1.1c.1-5.2.3-10.4.4-15.6a3.2,3.2,0,0,0-.2-1.4c-.7-2.5-1.4-5-2.3-7.4-2.1-6.6-5.4-12.3-11.4-16.2a9.1,9.1,0,0,0-2.2-.9c-.2,1.5-.3,2.7-.5,3.9h-5a25.7,25.7,0,0,1-4-.6c-.3,0-.4-.7-.6-1l7.6-.5c.3-1.4.8-2.7-1-3.2a8.6,8.6,0,0,0-6.1-.3C243.9,82.9,243.7,84.2,243.6,85.6Zm-69.1,77a8.2,8.2,0,0,1,4.5,5,15,15,0,0,1-.8,12.1l-1.8,3.6c2.2-.2,2.8,1.2,3.3,2.7l1.9,5.1c4.7,13,9.3,26.1,14,39.1l2.2,6.1,2.4-1.5,13.6-9.4,12.4-8.9c.8-.6,1.9-1.5,2-2.3a57.6,57.6,0,0,0,.6-10.1,112.5,112.5,0,0,0-1.8-14.2c-2.8-14.8-10-27.2-20.2-38-2.4-2.6-5.1-4.7-8.8-5s-7.3-1-11.1-.1-7.7,1.2-11.6,1.6l-10.4.7a11.7,11.7,0,0,0-2.6,1,24.5,24.5,0,0,1-4.8,2c-7.9,1.7-15.7,1.7-23-2.4a15.1,15.1,0,0,0-4.1-1.3c-1.9-.4-4-.4-5.9-.7l-15.6-2.5a3.1,3.1,0,0,0-1.9.4,41.4,41.4,0,0,0-5,4.4,111.9,111.9,0,0,0-9,10.4c-2.3,3-5.2,5.8-5.1,10.1,0,.5-.6,1-1,1.4a30.1,30.1,0,0,0-5.3,10.2c-1.3,5.1-2.6,10.2-3.6,15.4a52.7,52.7,0,0,0-.6,9.7c.1,3.6.8,7.1,1.1,10.6a3,3,0,0,0,2,2.8l19.7,10.3,5.6,2.7.7-.9c3.7-9.8,7.4-19.6,11.2-29.4.8-2.2,2-4.4,2.4-6.8a31.9,31.9,0,0,1,2.3-6.1c1-2.2,2.2-3.5,4.7-3.2l.5-.2c-1.1-2.2-2.3-4.3-3.3-6.5-2.6-5.1-1.7-9.8,1.9-14.1,4.9-5.9,11.5-8.5,18.7-10.2,4.5-1.1,9-.7,13.5-.6a21.7,21.7,0,0,1,5.5,1.2l3.4,1.1c-.1.2-.3.6-.2.7l2.1,1.5c5.6,3.5,8.2,8.6,8.1,15.2a4.9,4.9,0,0,0,.1,1.2h.6a25.9,25.9,0,0,0,.5-4.7A15.4,15.4,0,0,0,174.5,162.6ZM129.8,475.5c-10.2,36.5-22.1,72.6-33.6,109.3a31.9,31.9,0,0,1,3.7-.5c6-.3,12.1-.6,18.1-.7l31.2-.7,22.6-.3,30-.3a9.4,9.4,0,0,0,2-.3c-2.7-8.9-5.3-17.6-7.8-26.4s-5-17.4-7.4-26.1-5.1-17.5-7.3-26.3-4.1-17.8-6.1-26.6h-1.7c-8-.2-16.1.1-24.2-.6C143,475.3,136.6,475.6,129.8,475.5Zm96.8-230.2a57.7,57.7,0,0,0-6.3,2.6,18,18,0,0,0-4.5,3.3c-2.8,2.9-5.3,6.1-8.1,9a3.1,3.1,0,0,0-.7,3.4c.5,1.3.7,2.6,1.3,3.8a2.9,2.9,0,0,1,0,3c-.8,1.7-2.1,3.2-2,5.3,0,.3-1.1,1-1.7,1-5.7.3-11.3.6-17,.6a31.7,31.7,0,0,0-9.6,1.6,76.2,76.2,0,0,1-13.1,3.3c-4.8.7-9.8.5-14.7.7-7.6.3-14.8-1.4-22-3.5a24.3,24.3,0,0,0-6-1l-18.2-.5a64.8,64.8,0,0,1-7.7-.6,4.4,4.4,0,0,1-2.4-1.3c-1.4-1.1-1.2-2.7-.7-4.2s2.2-6,3.2-9a3.2,3.2,0,0,0-.1-2.7c-1.5-1.8-3.3-3.3-5.1-5.1l-1,1.5-.8,1-1-.2H87.2c.2.7.3,1.2.4,1.6a7.7,7.7,0,0,1,.2,1.5,1.8,1.8,0,0,1-2.6,1.8,19.6,19.6,0,0,1-3.2-1.7L78.6,258c-1.6,1.7-.8,4.4-3.2,5.5s-4-.7-6.3-.8c0,1.5.1,2.7,0,4s-1.1,2.7-3.1,2a39.8,39.8,0,0,1-4.1-2.1l-2.2-1.1c-2.1,4.3-2,6.2.5,9.6a82.1,82.1,0,0,0,6.3,8,109.3,109.3,0,0,0,20.4,17.3,3.9,3.9,0,0,0,4.7.1,45.2,45.2,0,0,1,8.6-4.1c2.1-.9,2.9-.4,3.8,1.7a13.2,13.2,0,0,1,1,3.9,7.6,7.6,0,0,0,1.6,3.8c2.5,3.3,6.5,4,9.6,6.3h.5l6.3.5c1.7.1,3.3.1,4.9.3s4.8.4,7.2.4,2.8-.7,2.8-3,.1-3.3,3.3-3.7a5,5,0,0,1,1.7-.2c3,.2,5.8.8,7.4,3.7s2.3,4.7,3.6,7.3h5.9c.2-.6.5-1,.4-1.3-.5-2.5,1.1-3.8,2.7-5.2a25.4,25.4,0,0,1,9.3-5c2.1-.6,2.9-.1,3.1,2.1s3,5.4,5.9,6.4a21.6,21.6,0,0,0,7.1.8,30.3,30.3,0,0,1,12.7,2.1l1.4.3c1.6,0,7.7-5.4,8-7a11.1,11.1,0,0,0,.2-1.7c-.2-1.9-.5-3.8-.7-5.7s-.4-2,.6-2.7a2.7,2.7,0,0,1,3.2-.3l2.5,1.4c4.4-3.3,9-6.4,13-10a141.5,141.5,0,0,0,12.5-13.2c3.1-3.6,5.5-7.7,8.1-11.6a1.7,1.7,0,0,0-.1-2.5l-3.7,2.7a2,2,0,0,1-2.6-.2,1.8,1.8,0,0,1-.9-2.2,17.3,17.3,0,0,0,.7-3.1c.1-1.1,0-2.2,0-3.8l-3,1.8c-1.5.7-2.9,1.9-4.5.6s-.9-2.9-.6-4.6,1.4-2.6.3-4.2c-2.4.2-3.8,2.2-5.9,3l-4.1-2.1Zm-107-1.3a8.9,8.9,0,0,0,4.9,2.9,1.7,1.7,0,0,1,1.3,2.2,1.6,1.6,0,0,1-2.3,1.1l-2.3-1.1a31.1,31.1,0,0,1-2.7-1.8,18.1,18.1,0,0,0,3,6.4,1.6,1.6,0,0,1-.4,2.5,2.2,2.2,0,0,1-2.7-1c-.1-.3-.1-.6-.2-.8l-2.6-7.7c-.2-.5-.4-1.2-.8-1.4-2.1-1.2-4.2-2.2-6.4-3.3l-.8,1.3-5.8,16.9c-.5,1.3-1.7,2.7-1.5,4s-.9,4-1.5,6-1,3.1-1.5,4.9h3.4c7-.5,14-1.2,21-1.5,8.8-.4,17.7-.3,26.5-.6,16.5-.7,33-.6,49.4-.8h3.2c-2.8-7-4.6-14-7.4-21.2-.9,2.8.3,5.2-.9,7.3-3.1-.9-3.2-.9-2.7-3.6s.6-3.1.8-4.6-.1-1.1-.1-1.7h-.6c-.5,1-1,2-1.4,3s-1,2.5-1.7,3.7-2.8,2.1-4.7-.3c1.9-2.4,3.7-4.9,5.9-7.8-1.2-.1-1.9-.4-2.4-.2a42.2,42.2,0,0,0-4.5,1.8c-1.8.9-3.1.6-4.5-1.4a11.6,11.6,0,0,1,2.7-1.4l7.9-1.3c2.5-.4,3.6-2.2,2.9-4.7q-7.5-24.4-14.8-48.9l-1.7-.2c-11.5-.2-22.9.4-34.4-.6-4.5-.4-9-.2-13.9-.3-.8,1.8-1.8,3.9-2.5,6-2.4,7.4-4.6,14.9-6.8,22.3s-3.9,12.3-5.9,18.6l4.1,2.7c1.8,1.2,3.5,2.2,5.8,2a15,15,0,0,1,3.7.5,1.8,1.8,0,0,1,1.5,2.2c-.2,1.1-1.2,1.1-2.1.9ZM90.1,63c-1.4,0-2.3.1-3.1,0a4.1,4.1,0,0,0-3.6,1.3c-1,1-1.6,2.2-.5,3.3a20,20,0,0,0,4,3.7,4.8,4.8,0,0,0,3.3.6c3.6-.9,7.3-1.9,10.3-4.2.7-.5,1.4-1.2,2.3-.4s-.9,1.7-1.5,2.5-1.3,2.1-.4,3.2,2,1.2,3.3,0a28.1,28.1,0,0,0,2.9-3.1c1.1-1.3,1.4-1.2,2.6.2s.4.4.5.5.3.1.4,0c10.8-3.9,22.2-5.3,33.6-6.2,1.5-.1,3.2.2,4.5-.4s1.1-2.7,1.4-4.2.8-.9,1.2-1.3,1,.9,1.1,1.4a28.7,28.7,0,0,1,.1,4.2l2.9.2a114.5,114.5,0,0,1,17.5,1.3A104.4,104.4,0,0,1,197.6,72a30.6,30.6,0,0,0,5,1.2c.4,1.8,2.6,2.2,4.2,3.4l5.2,3.6c1.5,1.1,2.4,3.1,5.1,3.8l-2.4-5.5a5.4,5.4,0,0,1,1.3-.7c2.5-.6,3.3-1.7,3-4.2s-.8-2.4-2.8-1.9-3.1.7-4.2-1.4a14.4,14.4,0,0,1,2.5-1.8,8.8,8.8,0,0,0,3.7-4.2,6.6,6.6,0,0,0-3.9-9.1c-3.3,2.5-4.7,2.3-6.1-.8.7-.7,1.8-1.3,2.1-2.2,1.2-3.2,2-6.5.6-9.8a44.4,44.4,0,0,0-2.4-4.9,3.9,3.9,0,0,0-3.4-2.2c-.3,1.1-.6,2.2-.8,3.3s-.3,4.1-.7,6a25.1,25.1,0,0,1-6.3,13.1c-1.9,2.2-2.7,2.1-4.9-.3l2.1-2.8c-3.7-4.7-8.3-8-12.7-11.4-2.1.2-3.2,2.9-6.1,1.6,3.8-2.9,7.6-5.5,9.7-9.6s3.6-8.1,3.5-12.9c-3.8-1.2-7.3-1.3-10.3,1.4-1.4,1.3-3,1.1-3.2-.5-.5-4.6-3.4-8.1-5.5-11.9s-5.4-6.3-9.2-8a16.3,16.3,0,0,0-10.7-1c-5.2,1.4-8.6,4.8-11.6,8.9a2.6,2.6,0,0,0-.3,3c.5.6.9,1.5,0,1.9s-1.3-.4-1.9-.8-.6-.7-.9-1.1c-3-4.3-7.4-5.4-12.2-4.6a18.3,18.3,0,0,0-5.8,2.4c-1.2.7-1.5,1.8-1.1,3.3a49.5,49.5,0,0,0,10.4,19.1,104.5,104.5,0,0,0,8.2,8.1c.9,1,1.8,1.8.9,3.2s-3.5-.9-5.4-1.4l-13,9.5,3,3.4c-3,.2-4.7-1.5-6.1-2.9a30,30,0,0,1-7.9-11.9c-1.6-5-2.6-10-1.9-15.3a36.8,36.8,0,0,0,0-4.7c-.7-.1-1-.3-1.2-.2a31.2,31.2,0,0,0-11.5,6.4c-4,3.8-2.6,10.8,1.5,13.2a79.5,79.5,0,0,1,6.6,4.8c.3.3.5.9,1,1.6l-2,.2H95.7c-2.6.2-4.7,1.7-6.6,3.3s-3.3,4.5-1.3,7.6C88.4,60.4,89,61.4,90.1,63ZM227.5,174.2c-.3,1.9-.9,3.4-.6,4.6a74,74,0,0,0,2.9,9.1c1,2.6,2.1,5.1,3.3,7.6s2.6,6.9,5.2,9.7c1,1.1.6,2.6-.5,3.7s-4.6,4.7-6.7,7.2a6.6,6.6,0,0,0-1.5,3c-1.2,4.2-2,8.4-3.4,12.5s-3.1,7.1-4.7,10.5c-.6,1.3-.9,2.4.6,3.2s4.5-2.9,7-2.9c2.8,1.9.1,4.4,1.3,6.5a13,13,0,0,1,2.5-1,10.9,10.9,0,0,1,3-.7c2.8,0,4.1,1.6,3.6,4.3s-.7,2.4-.9,3.6a6.5,6.5,0,0,0,.2,1.9c1.7-1,3.1-1.9,4.6-2.6s3-.3,3.1,2.1,0,4.1,0,6.5c2.3-1,3.9-3,6.3-2l.4-.4,1.6-3.6c5.6-12.8,9.1-25.9,8.9-39.9a82.8,82.8,0,0,0-2.4-21.1c-3.3-12.8-9.4-24.2-16.9-34.9-1.3-1.8-3-2.2-5.1-2.2-.2,1.2-.3,2.5-.5,3.6-3.3,1.3-4.7-1.7-7.2-2.9-.2,2.9-.3,5.5-.4,8.2-4.3.6-5.2-3.7-8.2-5a5.5,5.5,0,0,0,.5,5ZM86,250.3a15.1,15.1,0,0,0-1.9-7.4,80.2,80.2,0,0,1-7.5-19.6,2.8,2.8,0,0,0-1.1-1.8c-2.4-1.5-4.3-3.6-7.2-4.3a7.5,7.5,0,0,1-2-1.2l1.3-3.4c2.9-7,6-13.9,8.5-21.1,1.8-5.1,2.8-10.6,6-15.2a3,3,0,0,0,.5-2.4c-.7-2.1-1.6-4-2.5-6.3a26,26,0,0,1-2.7,2.4c-1.6,1.2-3.3.5-3.9-1.5l-.4-1c-1.4-.2-2.8.1-3.6-.5s-1.2-1.9-1.8-3.1h-.4c-.2,0-.4.2-.5.1-2.7-.7-3.8,1.1-5,2.9a98.1,98.1,0,0,0-18.5,49,75.6,75.6,0,0,0,.6,19,98.2,98.2,0,0,0,6.8,23.8l3.8,7.7,1.1-1.5c2.2-3.4,3.6-3.8,7.3-2.1l2.2.7c.1-1.2.1-2,.2-2.9s2.3-3.3,4.5-2.3l3.2,1.6a23.7,23.7,0,0,0,.2-3.5,2.8,2.8,0,0,1,1.8-3c1.8-.6,3.8-.4,5.4-1.2S83.6,250,86,250.3Zm127.9,52.5-.5.2v5.7c0,2-1.6,3.7-.5,5.9-1-1.2-1.9-1.6-3-.4l-4.5,4.8c1.5,2.3,1.9,5,2.1,7.8s-2.2,5.2-3.2,7.9c3.4.5,6.5.9,9.6,1.5,11,2.3,21.7,5.8,32.3,9.4,8.5,2.8,17.1,5.2,25.7,7.7,2.7.8,5.5,1.2,8.5,1.8a7.9,7.9,0,0,0,.2-2c-.4-3-.8-6-1.3-9.1-.1-.5-1-1.1-1.6-1.3-3.8-.7-7.6-1.3-11.3-2.1-7.8-1.6-15.6-3.5-22.8-7a29.3,29.3,0,0,1-5.6-3.5c-1.7-1.5-1.6-3.5.4-4.6a16.8,16.8,0,0,1,5.3-1.9,70.2,70.2,0,0,1,15.2-.1,178.6,178.6,0,0,1,20.6,2.7,95.8,95.8,0,0,1,13,3.5,7.5,7.5,0,0,0,5.3.3q3-.9,6-2.1a7.3,7.3,0,0,0,4.8-4.2,150.7,150.7,0,0,0-23-2.9c-7.5-.2-15-1-22.6-.9l-22.9.5-.2.5,2.9,1.7c-3.3.2-5.7-1.6-8.4-2.9a67.8,67.8,0,0,1-7.6-4.7,73.6,73.6,0,0,1-7-5.5C217.7,307.4,215.9,305,213.9,302.8ZM102.8,330.4c-2.3-6.2-.1-10.6,4.7-14l4.9-3.4c-6.8-2.6-10.3-7.6-11.2-14.6-1.3.1-2.4-.1-3.1.3a43.7,43.7,0,0,0-5.9,4.5c-1.9,1.7-3.4,4-5.3,5.7-4.5,4-10.1,6.4-15.8,9.2l1.8.5c1.1.6,2.5.7,2.7,2.3a3.4,3.4,0,0,1-1.8,3.7,58.2,58.2,0,0,1-6,3.4,142.7,142.7,0,0,1-21.9,7.8l-15,4c.1,1,.2,1.9.3,3a28.2,28.2,0,0,1,3.5-1.4l17.2-5c6.3-1.9,12.8-3.5,18.9-6.1A99.6,99.6,0,0,0,97.1,314a19.9,19.9,0,0,1-3.5,4.1c-7.6,6.2-15.6,11.7-24.9,15-7.3,2.6-14.8,4.6-22.3,6.8-4.8,1.4-9.8,2.6-15,3.9l-2.8,9.3a26.4,26.4,0,0,0,5.1-1.4,157.1,157.1,0,0,1,21.1-6.8c4.8-1.3,9.4-3.5,14.2-4.9,8.8-2.7,17.7-5,26.6-7.5ZM207.7,576.6c3.2-4.7,6.3-8.4,8.6-12.8a5.3,5.3,0,0,0,.3-4.6c-5.8-17.1-11.7-34-17.2-51.1-4-12.5-7.4-25.1-11.2-37.6a18.3,18.3,0,0,0-1.1-2.9c-1.8,1.5-3.4,2.6-4.7,3.9a55.8,55.8,0,0,0-4,4.9C189.8,508.4,197.7,542.4,207.7,576.6Zm-78.8-431c-1.9-3.1-3.5-6-2.6-9.6s3.1-5.8,5.5-8.6l-4.1-.8a88,88,0,0,1-27.3-9.6c-6.3-3.5-11.8-8-15-14.7-.1-.2-.4-.2-1-.5-.3,2.5-.6,4.7-1,7a24.3,24.3,0,0,0,2.8,16.9,33.7,33.7,0,0,0,1.9,3.2,31.5,31.5,0,0,0,10.4,9.5,56.4,56.4,0,0,0,7.1,3.1c2.4,1,5.1,1,7.4,2.3l.9.2,12.8,1.8A9.8,9.8,0,0,0,128.9,145.6ZM254.4,296.2a24.3,24.3,0,0,1,2.8-2c2.1-1.2,2.5-3,2.1-5.3s-.7-4.1,1.1-5.7a2.7,2.7,0,0,0,.4-1.8c-.1-2.4-1.6-3.5-3.7-4.1s-3.2-.8-5.1,1.6-5.2,6.9-8.1,10.1a99.3,99.3,0,0,1-19.1,16.3,28.5,28.5,0,0,0-3,2.1c2.6,1.8,4.7,3.5,7,4.8s6.5,3.4,9.8,4.9a8.9,8.9,0,0,0,3.6.7c3-.1,5.9-.5,8.9-.7a19.4,19.4,0,0,0,9.3-3.4,4.5,4.5,0,0,0,2.2-4.2,41.7,41.7,0,0,0-.8-7.1c-.6-3.1-1.6-3.6-4.8-3.4ZM150.5,65.6c-5.4.4-11.1.5-16.7,1.3a141.2,141.2,0,0,0-17.1,3.9,64.7,64.7,0,0,0-21,10.1c-4.7,3.6-8.2,8-9.3,14a10.4,10.4,0,0,0-.1,3.5,19.1,19.1,0,0,0,3.8,8c4.1,5.2,9.5,8.6,15.4,11.4,10.5,4.9,21.8,7.3,33.3,8.5a143.4,143.4,0,0,0,26.2.4,113.9,113.9,0,0,0,26-5c6.7-2.2,13.2-4.9,18.8-9.4,3-2.4,5.8-5.1,7.3-8.8,2.3-5.8.7-11.4-2.3-16.4s-5.7-6.3-9.3-8.5c-11.3-7-23.9-10-36.9-11.7C162.7,66.1,156.7,66,150.5,65.6Zm67.2,42a3.6,3.6,0,0,0-.9.8,29.2,29.2,0,0,1-7.7,6.8c-9.1,6.2-19.3,9.4-30,11.3L167,128.4c1.1,2,1.7,4,4.5,4a4,4,0,0,1,4.2,2.5,2.5,2.5,0,0,0,1.6.9c1.8.1,3.6-.1,5.4.1l18.3,1.8a5,5,0,0,0,3.2-.8,24.2,24.2,0,0,0,7.2-7.4c3.9-6.5,5.4-13.7,6.7-21A3.1,3.1,0,0,0,217.7,107.6Zm-59,78c5.9,1,7,.7,10.3-3s4.8-11.2.3-16.3a16.1,16.1,0,0,0-6.8-4.7,32.7,32.7,0,0,0-26.8,2.5,17.6,17.6,0,0,0-8.4,8.8c-1.5,3.4-1.3,7,1.2,9.7s5.2,4.9,9.2,3.8c-.9-2.7-1.7-5.3-2.6-7.9a5,5,0,0,1-.1-1.7,12.2,12.2,0,0,1,4-6.8,17.8,17.8,0,0,1,15.4-4.1c9.8,1.8,11.3,12.3,6.8,17.3Zm7.8,125.6c-2.6,1.5-3.2,4.1-3.1,6.7a54.1,54.1,0,0,0,1.1,8.9,6.2,6.2,0,0,0,2,3.6c3.4,2.8,7.1,5,11.7,4.7l16.4-.8a5.9,5.9,0,0,0,3.1-1.4,39.7,39.7,0,0,0,4.2-4c1.6-1.8,1.2-7-.7-8.5a8.9,8.9,0,0,0-3.7-1.7,46.4,46.4,0,0,0-8.2-1.2c-4.1,0-8.3.2-12.4.4C170.7,318.3,168.5,316.9,166.5,311.2ZM105.9,144.7c-.3-.3-.4-.6-.5-.6-3.9-1.9-7.8-3.8-11.8-5.5a2.4,2.4,0,0,0-2,.3,73.5,73.5,0,0,0-7.8,5.6c-4.5,3.7-8.8,7.7-13.2,11.6a14.1,14.1,0,0,0-1.6,2.1h3.6v4.7c3.6-.8,3.6-.8,4.6,2.5l.9-.2c3.7-1.8,4.2-1.5,5,2.6a8.7,8.7,0,0,0,1.1,2.2A84.5,84.5,0,0,1,105.9,144.7ZM83.7,93.8c2.8-5.6,5.4-11,7.9-16.1l-6.5-3.1c-.8-.4-1.9-1.4-1.8-2s-.7-2.4-1.5-3.3c-1.9-2.5-1.7-4.5.7-6.5s2.2-1.4,3.4-2.2-.3-.9-.4-1.3a7.8,7.8,0,0,1-.5-1.4c-.7-2.3-.7-2.4-3.1-2.3h-2c-7.8,1.7-12.7,9.3-13,16.8a2.4,2.4,0,0,0,.5,1.6c1.3,1.3,1,3,1,4.6s.1,1.9.2,2.9A22.9,22.9,0,0,1,83.7,93.8ZM293,330.6l-1.6-.6c-4.6-.9-9.2-1.9-13.8-2.6-6.7-1-13.3-2.2-20.1-2l-2-.2a26.9,26.9,0,0,0-4-.3q-3.3.2-6.6.6c-2,.3-4.2.4-5.8,2.5a11.7,11.7,0,0,0,2.4,2.1,40.2,40.2,0,0,0,4.6,2.4,115.2,115.2,0,0,0,21.5,6.3l12.1,2.3C281.9,334.7,287,332.6,293,330.6ZM267.5,186.2h.5c.2-8.9.6-17.8.6-26.7s.8-17.7.1-27.1l-1.4,1.6c-2.5,3.1-5.1,6.3-8.7,8.3s-5.4,4.9-7,8.4a4,4,0,0,0,.5,4.8,82.8,82.8,0,0,1,12.7,22.9ZM21.1,326.8c5,2.4,8.5,5.6,9.3,10.7h1.2c9.8-3,19.7-5.8,29.5-8.9,3.4-1.1,6.6-3,9.9-4.6a2.9,2.9,0,0,0,2.1-3,18.3,18.3,0,0,0-2.5-.6c-3.8-.6-7.6-.2-11.4.1-11,.8-21.8,3.3-32.7,5.1C24.9,325.8,23.3,326.3,21.1,326.8ZM227,220.8l-.6-.5-26.9,21.2,6.3,18.1A75.4,75.4,0,0,0,227,220.8ZM81.5,142.9c2-1.1,3.7-2.2,5.5-3.3l-2.9-6.8a33.9,33.9,0,0,0-11.6-14.1c-2.9-2.1-5.9-1.4-7.4,1.8a13.3,13.3,0,0,0-.8,8.8c1.4,6.2,4.5,11.6,8.4,16.6a17.4,17.4,0,0,0,2.4,2.2l4.5-3.7-4-5.7L70,130.6c-.4-.7-.9-1.5.3-2.2Zm-1,81.3-.6.4,1.5,5.2c1.3,5.2,5,9.5,5.7,14.9,0,.2.2.3.3.5a77.5,77.5,0,0,0,4.6,6.6c1.6,2,3.6,3.7,5.8,6l6.5-19.2Zm75.4,239.4-5-3.7c-1.4-1-2.8-2-4.1-3.1s-1.8-3.3-2.1-5.2c-.6-4-.9-8,.4-12a16.2,16.2,0,0,1,9.1-10.2c.8-.3,1.9-.9,2.1-1.6,1-2.9.5-5.8-.5-8.8a18.7,18.7,0,0,0-11.8,6.8c-6.5,7.4-7.7,16.1-4.7,25.3,1.7,5.5,5.6,9.3,9.9,12.8C150.7,465,153.6,464.8,155.9,463.6ZM138.4,128.7c-2.9-1.8-4.8-.8-6.2,1.5a23.1,23.1,0,0,0-1.4,1.9c-2,3-2.3,6-.5,9.2a15.8,15.8,0,0,0,6.8,6c5.4,2.9,11.1,3.1,16.9,2.4a16.4,16.4,0,0,0,10.2-5.1,8.8,8.8,0,0,0,2.5-5.9c.3-3.6-1.3-6.3-3.7-8.7s-2-1.5-4.2-.4a21.2,21.2,0,0,1,1.2,2c1.5,3.9,1,7.4-1.8,10.5-5.2,5.6-16,5.8-21.3.1a8.3,8.3,0,0,1-.4-11.5A17,17,0,0,1,138.4,128.7Zm83.3-65.9,1.5-.5a14.1,14.1,0,0,1,8.6-1.3c4.8.6,10.2,4.8,11.4,10.1.4,1.7,1.2,2.2,2.8,2.1l3-.2c-.1-2.3.2-4.3-.8-6.4-3.7-8.2-10.3-12.5-19.1-13.4-3.3-.3-6.6.5-8.8,3.3ZM147.5,145a14,14,0,0,0,7.9-2.5c3.7-2.7,4-6,3.3-9.4s-2.6-4.1-5.3-4.2-7.1.4-10.6-.6a3.8,3.8,0,0,0-2.8.4c-3.7,2.9-5.5,7.4-2.3,11.6S143.6,144.8,147.5,145ZM60.4,74.8c1.2.2,2.3.5,3.5.6s2.2-.2,2.2-2V72A16.5,16.5,0,0,1,72,57.6c3.2-2.8,6.8-4.5,11.2-3.7A2.5,2.5,0,0,0,86,52.7c.6-.9,1.3-1.7,2.2-2.9l-2.7-1.5a11.1,11.1,0,0,0-8.4.5A28.4,28.4,0,0,0,62.6,61.4C60.2,65.4,58.6,69.7,60.4,74.8Zm170.4,60.4c.6-1.2,1.1-2,1.5-2.9a65.4,65.4,0,0,1,3-5.9c2.4-3.4,2.8-6.7.6-10.4-1.1-1.8-2.4-2.7-4.5-2.1a18.3,18.3,0,0,0-7.1,4.2c-3.4,3-5.1,7-6.9,11,4.7,2.2,4.8,2.2,7.5-1.8.2-.3.3-.7.6-.9,1.5-1.7,2.4-4,4.8-5,1.5,1.5.7,3.1-.1,4.4s-2.6,4.2-4.1,6.6Zm-74.5,48.2c.5-1,1.2-2.1,1.8-3.3a7.5,7.5,0,0,0-7.2-10.4c-4.3.2-8.8,4-10,8.5-.6,2,.3,3.6,1.1,5.2s2.3.8,3.4.7C148.9,184,152.3,183.7,156.3,183.4Zm80.5-31c-1.2-2.1-3.1-2.9-6-2.8a84.5,84.5,0,0,1-20.1-.4,10.9,10.9,0,0,0-1.7.1,3,3,0,0,0,.5,1c2.9,3.7,5.8,7.4,8.8,11a6.3,6.3,0,0,0,1.8,1.2,6.4,6.4,0,0,0,.6-1c1.3-2.7,2.6-3,4.8-1l2.1,2,.5-.2c0-1.3.1-2.7.2-4s2.2-3.7,4.5-2.4a14,14,0,0,1,1.8,1.3C235.4,155.6,236,154.2,236.8,152.4ZM129,43.1c-.3-.5-.3-.8-.5-1s-3.1-3.2-4.7-4.7-1.7-1.7-3.7-.7-6.5,3.3-9.7,5.1c-1.6.8-1.8,1.3-.9,2.9a52.3,52.3,0,0,0,4.1,6.3c1.8,2.4,2.4,2.4,4.9.4l1.1-.8ZM165,430c1.3,1,2.4,2.4,4,3.1a23.3,23.3,0,0,1,7.5,5.7c1.8,1.8,3.6,3.7,3.5,6.6,1.2-11.9-4.4-22.9-12.6-24.9C166.6,423.6,165.8,426.7,165,430ZM2.5,321.3c2.1,2,4.1,3.6,6.7,4.1s5.1,1.2,7.6.9,4.5-1.9,6.7-2.9V323l-7.7.7v-.6c9-2.4,18.6-1.5,27.6-4.7H39.1a262.5,262.5,0,0,0-29.4.9C7.4,319.4,4.9,319.4,2.5,321.3ZM187.4,36.1,182.6,42l13.1,11.1a19.4,19.4,0,0,0,2.9-7.9,2.6,2.6,0,0,0-.8-1.9Zm-79,5.8c4.2-2.9,8.4-4.9,12.6-7.7l-2.2-3.6A3.2,3.2,0,0,0,116,29l-7.5-.6c-1.6-.1-2.1.3-2.2,1.9A26.5,26.5,0,0,0,108.4,41.9Zm82.3-14.6c-.8,2.5-1.6,4.7-2.5,7.2,3.8,2,7.1,4.4,10.7,6.2,1.4-3.2,1.2-8.9-.3-13.4Zm4.1,211.2c1.5-1.2,1.5-1.2.9-2.9-5.2-15.5-10.4-30.9-15.7-46.4a13.1,13.1,0,0,0-1-2.1c-1.6,1.6-1.3,3.2-.9,4.8s1.1,3.4,1.7,5.2c4.4,12.3,8.9,24.7,13.4,37.1C193.7,235.6,194.3,237,194.8,238.5Zm-60.6,40c8.2,4,35.7,2.9,38.6-.9-1.3,0-2.5-.1-3.6,0-5.7.1-11.3.3-17,.3h-13C137.7,278,136.2,278.3,134.2,278.5Zm23.5,69.3c.5-3.5,1.2-6.3-.4-9.1s-2.1-4-3.1-6.1-1.5-3.4-2.2-5h-.7c.2,3.8-.6,7.7.6,11.5A19.6,19.6,0,0,0,157.7,347.8Zm-51-320.7c3.2,0,6.3.5,9.6-.4-1-2.3-1.8-4.4-2.8-6.5a2.6,2.6,0,0,0-1.6-1.1,23.8,23.8,0,0,0-4-.7C107,21.2,105.8,23.8,106.7,27.1Zm50.2,333.4.7-.2c.1-2.1.1-4.2.3-6.2a6.2,6.2,0,0,0-1.8-5.3,25.2,25.2,0,0,1-3-4.5l-1.3-1.9c-.7,3.6.4,6.6.4,9.6S154.7,358,156.9,360.5ZM157,375l.8-.4c0-2.3-.2-4.6,0-6.8.5-4.5-3-6.4-5-9.3-.2,3.4-.6,6.9-.1,10.1S155.2,373.2,157,375Zm48.5-104.6c1.6-1.3,1.9-2.4,1.3-4.1q-3.2-8.2-6-16.5c-.9-2.4-1.7-4.7-2.5-7-2.3.4-1.4,1.7-1.1,2.7L205,269A10.9,10.9,0,0,1,205.5,270.4ZM157.1,388.9h.8c0-2.3-.1-4.6,0-6.8s-.1-4.7-2.4-6.3a13.7,13.7,0,0,1-2.4-2.9c0,3.2.1,6.2-.1,9.2S154.7,387.2,157.1,388.9Zm-3.9-66.6c-.1,1.6-.6,3.4-.1,4.7a43.1,43.1,0,0,0,3.8,7.4c.2.4.7.6,1.5,1.2V322.3l-2.9-.2Zm-.1,65.1v5c-.1,1.6-.7,3.5-.2,5s2,2.6,3.1,3.9a14.7,14.7,0,0,0,1.7,1.5c.2-3.4.4-6.3.4-9.2a3,3,0,0,0-.7-2.1A58.6,58.6,0,0,0,153.1,387.4ZM198.3,25a27.9,27.9,0,0,0-3.7-9.7c-1.1.5-2.1.7-3,1.2a2,2,0,0,0-1,1.3c.2,2.5.5,4.9.7,7.2ZM173.1,145.2a16.4,16.4,0,0,0,.7-9c-.3-2.2-1.3-2.7-3.5-2.5a40,40,0,0,1,0,6,51.6,51.6,0,0,1-1.9,6.1ZM165,456.7c0-.7.1-1.3.1-1.8s-.6-3.2-.4-4.8c.5-3.5-1.7-5.5-3.5-7.8h-.6c.4,4.5.9,9,1.3,13.7ZM47.9,76.4c-2.9,0-3.8.6-3.8,3s1.3,3.9,3.6,3.9,3.6-1.4,3.5-4.2S50.5,76.4,47.9,76.4Zm196.2,2.9,7.2.8V75.2h-6.7C244.4,76.6,244.3,77.9,244.1,79.3Zm-91.3,321,.3,4.3c0,3.5,1.4,5.4,4.8,6.7,0-1.5,0-3-.1-4.5a2.5,2.5,0,0,0-.6-1.5ZM74.7,217.7l.7-.3c-.2-3.7-.5-7.4-.8-11.1h-.7c-.8,2.8-1.7,5.5-2.4,8.4a1.9,1.9,0,0,0,.8,1.6A12,12,0,0,0,74.7,217.7Zm156.7-17c-.8,2.4-.8,9.1.1,11.5l3.7-3.1ZM163.2,428.8a7.6,7.6,0,0,0,.7-5.8l-2.5.4c-1.8.4-1.8,2.9-3.7,3.3-.3.1-.4,1.2-.6,1.8a5.4,5.4,0,0,0,.3,1,17.1,17.1,0,0,1,2.7-.9A17.8,17.8,0,0,1,163.2,428.8ZM172,309.1c-2.9.5-3.8,1.3-3.3,2.8.9,3.2,4.5,4.8,8.1,3.4C173.7,314.2,172.4,312.1,172,309.1Zm-2.8,140.2c.9-4,.8-4.2-1.6-6a28.3,28.3,0,0,1-2.5-2.4l-3.1-3.2C162.5,443.2,167.3,445,169.2,449.3Zm-10.6-25.8,6-2.8-.6-3.2C160.2,417.4,157.9,420.1,158.6,423.5Zm15.8,19.9c.4-4.2-1-6.1-5.5-7,.5,1.5,1,2.8,1.3,4.1S172.1,443.5,174.4,443.4ZM220,138l-6.1-4.6-2.4,5.1h7.3ZM98.9,72.2c-1.9.3-2.5,1.9-3.4,3.2s-2.1,2.5-2.5,4.8l7.5-5.1ZM66.3,77.4H60.4l1.1,3.5h4.7C66.2,79.8,66.3,78.9,66.3,77.4ZM186.6,8l3.1,6.1c.5,1.1,1.4,1.2,2.6.5s1.3-1.5.4-2.4S189.6,8.4,186.6,8ZM153.3,409.5c-.2,2.6-.4,4.7.3,6.8,2.6.2,2.9-2,4-3.3ZM112.6,17.3c-.2-1.3-.4-2.5-.5-3.6a34.1,34.1,0,0,1-.2-3.7c-2.4,2.2-2.5,4.6-3.6,6.6C109.7,18,110.9,17.7,112.6,17.3ZM143.2,185c1.1,1.4,1.1,1.6,2.2,1.5,2.7-.3,5.6.9,8-1.5Zm13.9,245.6c.4,1.6.9,3.2,2.5,3.2s2.5-1.7,3-3.2C160.8,428.8,159.1,429.6,157.1,430.6Zm94.6-284.5-6.1,1.5,3.6,3.8C250.1,149.6,250.7,148.1,251.7,146.1Zm12.2-69.5c-1.3.7-2.4,1.5-1.9,2.9a3.5,3.5,0,0,0,2.2,1.5,2.1,2.1,0,0,0,1.7-1.2C266.5,78.2,265.2,77.5,263.9,76.6Zm-211,6.6L59,81.1c-1-1.9-1.7-2-5.3-1.2A32.3,32.3,0,0,0,52.9,83.2ZM168,440.2c-.6-5.1-1.7-6.4-4.9-5.6C164.7,436.4,165.5,438.7,168,440.2Zm-8.3-3.6c-.3.2-.7.3-.7.4-.1,3.9,0,7.8,0,11.7a16.7,16.7,0,0,0,.4-5.9C159.3,440.7,161.3,438.8,159.7,436.6Zm-20.3-255c.3-2.3.5-4.4.8-7C137.5,178.2,137.4,179.5,139.4,181.6Zm22.5,233.5c-2.5-1-3.4-.2-3.5,2.9Zm4.1,33.6h-.8c.7,2,.2,4.4,2.2,6.1C166.9,452.8,166.5,450.7,166,448.7ZM66.8,83.5a6.9,6.9,0,0,0-5.6-.3A5,5,0,0,0,66.8,83.5Zm-.4,233.9H63.3l-1.2.5A4.7,4.7,0,0,0,66.4,317.4ZM176.8,444.7l.4-.2-.6-1.4-.4.2Z"/><path d="M155.9,507.4c2.1-3,5.6-2.4,8.4-3.6s3.8.4,4.1,2.9-1,6.4-4,7.6-6.2.4-8.5-2.3l-.8-.7-1.5,1.7a5.5,5.5,0,0,1-6.4.7c-2.4-1.3-3-3.7-1.2-5.8a16.2,16.2,0,0,1,3.2-3.2c2.3-1.9,4.4-1.4,5.8,1.2Zm2.6.3c-1,2.1-.7,3.5,1.1,4.4a4.5,4.5,0,0,0,6.2-3.9,1.3,1.3,0,0,0-1.8-1.3,4.4,4.4,0,0,0-1.5.8C161.2,509,159.9,509,158.5,507.7Zm-6.7-.9a10.2,10.2,0,0,1-2.7,1.1c-1.4.2-1.6,1-1.7,2.2a1.9,1.9,0,0,0,1.7,1.9,2.5,2.5,0,0,0,2.9-1.3A3.9,3.9,0,0,0,151.8,506.8Z"/><path d="M164.7,536.8c-1.9-.1-3.3,1.7-5.4.6.5-.5.7-1.1,1.1-1.3l5.3-2.3a3.2,3.2,0,0,1,1.9-.3,2,2,0,0,1,1.2,1c.2.3-.2.9-.6,1.2a5.3,5.3,0,0,1-1.5.7l1.3,1.1a3.7,3.7,0,0,1-.8,6.1,10.5,10.5,0,0,1-8.3,1.4,6.1,6.1,0,0,1-5.1-6.1,12.6,12.6,0,0,1,4-10.4,10.2,10.2,0,0,1,2.2-1.4c1.3-.5,2.1.1,2.6,1.6-3.5.4-4.7,2.8-5.4,5.5s-.9,3.3-.2,5.1,5.3,4.1,7.5,1.7S165,538.2,164.7,536.8Z"/><path d="M144.8,525.4l.4,8.7c1.4-1.1,1.9-2.8,2.7-4.2s.8-3.2,3.5-3.1c-.4,1.2-.7,2.1-1.1,3.1a42.9,42.9,0,0,1-2.4,5.9c-.5,1.1-.6,2,.5,2.7s2.2,3.5,4.6,4,.8,2.3.8,3.7c-2.3.4-3.2-.9-4.1-2.3s-1.9-2.5-3.3-4.3c-.6,1.7-1,2.8-1.3,4s-1.1,2.6-3.7,1.2c2-4.6,1.5-9.5,1.7-14.4C143.2,528.7,143.1,526.9,144.8,525.4Z"/><path d="M132.2,505.6a13.4,13.4,0,0,0,2.7-.7c2.7-1.1,4.7-.1,5.3,2.8a7.9,7.9,0,0,1-1.3,6,4.2,4.2,0,0,1-2.7,1.8,6.7,6.7,0,0,1-6.4-2.7c-1.8-2.2-.6-5.9,2.4-7.2a22,22,0,0,0-1.3,3.6c-.5,2.1,1.3,3.8,3.8,4s2.6-.7,2.6-3.2a7.2,7.2,0,0,0-.1-1.7Z"/><path d="M127,505.2l.6,3.9c.2,2,.5,4,.5,6s-.6,1.2-1,1.8-1.7-.8-1.7-1.2c-.1-3.2,0-6.5.1-9.7a7.4,7.4,0,0,1,.4-1.4Z"/><path d="M174.5,162.6l-4.2-3.3C172.1,159.9,173.8,160.5,174.5,162.6Z"/><path d="M156.9,249.2l-4.4-.7c1.2-2.3,3.3-1.6,4.9-2s2.7-.5,3.4.8a29.3,29.3,0,0,1-1.4,3.9,4.9,4.9,0,0,1-1.5,1.7c-2.9,1.8-5.9,2.2-8.9-.1-2.9,2.5-4.6-.1-6.8-1.8l-1.2,2.3c-.4,1-1.1,1.2-2.1.7-.8-4.4-.4-10.6.8-12.4,1.3,2.1.1,4.4,1,6.7,2.4-2.2,2.6-5.6,5.4-7.8.1,3.5-2.3,5.8-2.8,8.8,1.2,1.3,2.6,2.6,4.8,2.7a12.3,12.3,0,0,1,2.7-7.3,16.5,16.5,0,0,1,3.6-2.8c.3-.2,1.1.3,1.7.4s-.6,1.1-1,1.2c-3,1.1-3.5,3.9-4.2,6.4-.2.5.6,1.6,1.3,1.9S156,251.4,156.9,249.2Z"/><path d="M166.9,237.9a13.5,13.5,0,0,1-3.7-1.3c-2.8-1.8-2.9-5-.1-6.8s2.8-1.6,4.2-2.5a4.4,4.4,0,0,1,5.5.7c1.6,1.6,1.6,3.5.9,5.4S170.4,237.6,166.9,237.9Zm-.2-2.3c2.6-.1,4.4-1.6,4.7-3.5s-1.6-3.5-2.3-2.7-1.7.6-2.6.5a3.3,3.3,0,0,0-3.1,2.6c-.2,1.4.7,2.4,2.2,2.9Z"/><path d="M129.2,232c0,3.1-1.2,5.1-3.2,5.8a7.2,7.2,0,0,1-6.5-1.5,3.9,3.9,0,0,1-.6-3.6,7.5,7.5,0,0,1,6.5-5,3.7,3.7,0,0,1,3.6,2.8A5,5,0,0,1,129.2,232Zm-6.5-2.4c-.6.9-1.2,1.5-1.6,2.2s-.5,2.8,1.2,3.7,3.1.5,3.9-1.1a2.7,2.7,0,0,0-1.4-4A11.7,11.7,0,0,0,122.7,229.6Z"/><path d="M138.4,236.9c-2.9-.1-4.9-1.3-5.2-3.2s1.4-3.9,3.8-4.8l1.6-.6c1.5-.8,2.6-.2,3.6.9a6,6,0,0,1,.6,5.9C142,236.6,141.3,236.9,138.4,236.9Zm1.7-6.3c-1.7.8-3.4-1.1-4.4,1s-.5,2,.4,2.7a3.2,3.2,0,0,0,4.4-.2C140.4,233.2,140.3,232.1,140.1,230.6Z"/><path d="M151.8,235.6a25.2,25.2,0,0,1-4.1-.6c-2.5-1-2.8-3.1-.8-4.9a10.1,10.1,0,0,1,2.5-1.4l2.6-1.1a3.6,3.6,0,0,1,5.1,1.5c1.2,2.1.6,4.8-1.5,5.7A17.2,17.2,0,0,1,151.8,235.6Zm-4.9-3.2a6.7,6.7,0,0,0,2.7,1.1,13.5,13.5,0,0,0,4.5-.2c1.1-.3,1.1-1.5.8-2.5a1.3,1.3,0,0,0-1.7-1.1,4.4,4.4,0,0,1-1.6.2C149,229.4,148.5,229.6,146.9,232.4Z"/><path d="M117.4,228.3a5.8,5.8,0,0,1,.5,1.6c.2,2,.3,4,.4,6s-.5.9-.8,1.4-1.1-.7-1.1-1c0-2.6.1-5.3.1-7.9Z"/><path d="M214.6,316.3a62,62,0,0,1,4.5,4.4,66.6,66.6,0,0,0,19.6,14.5c7.4,3.8,14.7,7.7,22.6,10.2,3.9,1.3,7.9,2.2,11.9,3.2a8.2,8.2,0,0,1,2.6,1c-1.7,1.1-3.4.7-5.1.4-11.7-2.5-22.3-7.5-32.7-13.3-5.8-3.2-11.3-6.7-15.9-11.4-2.8-2.8-5.3-5.8-7.9-8.7Z"/><path d="M297.9,328.3l-12.4-2.4C288.2,325.4,295.9,326.7,297.9,328.3Z"/><path d="M152.8,124.3c-6.5-.6-13-.9-19.5-1.8-10.3-1.6-20.3-4.2-29.5-9.4-4.2-2.4-8.1-5.2-10.9-9.3s-3.8-11.3.1-16.9a28.2,28.2,0,0,1,7.8-7.2,70.5,70.5,0,0,1,23-9.1A121.9,121.9,0,0,1,143.7,68c4.2-.2,8.5-.7,12.7-.4,6.2.4,12.4,1.4,18.5,2.3a72.2,72.2,0,0,1,20.9,6.3c5.2,2.5,10,5.5,13.5,10.2,5,6.6,4.7,14.3-.8,20.5a33.1,33.1,0,0,1-9.3,7.3,80.4,80.4,0,0,1-24,7.8A184.7,184.7,0,0,1,152.8,124.3Zm7.5-3.5,1,.2c4.6-.6,9.2-.9,13.7-1.7a86.7,86.7,0,0,0,18.8-5.6,36.9,36.9,0,0,0,11.1-7.3c5.2-5,6.3-10.9,2.9-16.6a23,23,0,0,0-4.5-5.3c-4.6-4.3-10.4-6.8-16.3-8.9-10-3.5-20.4-4.7-30.9-5.5a92.4,92.4,0,0,0-21,.8c-8.8,1.2-17.6,3.2-25.8,7.1a38.3,38.3,0,0,0-12.9,8.9c-4.5,5.1-5.2,10.7-.8,16.2a31.2,31.2,0,0,0,6.6,6c11.2,7.4,23.9,10.1,37,11.5a7.4,7.4,0,0,1,3.6-6.6c2.7-1.8,5.6-1.8,8.6-1.7A9.4,9.4,0,0,1,160.3,120.8Zm-3.3.3c-2.2-5.2-4.8-6.7-9.9-6.1-3.3.3-5.3,2.1-6,5.6A83.8,83.8,0,0,0,157,121.1Z"/><path d="M116.8,318.3a4.3,4.3,0,0,1,4.7,3.1,4.8,4.8,0,0,1-1.6,5.6c-2.7,2.3-7.7,2.2-10.4-.2a3.7,3.7,0,0,1-.7-4.9,8.3,8.3,0,0,1,5.5-3.4Zm-1.7,8.1a13.2,13.2,0,0,0,2.9-1.5,2.1,2.1,0,0,0,.5-3,4.7,4.7,0,0,0-4.2-1.9c-1.9.5-3.7,2.4-3.5,3.7S112.7,326.1,115.1,326.4Z"/><path d="M144.1,317.6c-1.3.4-2.7.9-4.1,1.2s-2.8.6-4.4.9c2.7-1.5,6.5-2.4,8.6-2Z"/><path d="M192.9,332a20.1,20.1,0,0,1-3.5-1c-2.9-1-3.5-3.3-2.3-6.1a7.9,7.9,0,0,1,3-3,10.4,10.4,0,0,1,6.3-1.2c2.5.3,3.6,1.3,3.7,3.8S198.2,331.6,192.9,332Zm4.2-6.8c.2-1-.4-1.6-1.5-1.9l-3-.9c-1.6-.2-2.5.7-3.2,2s-.9,3.2,0,4a5.2,5.2,0,0,0,5.1.8C196.2,328.7,197.1,327.2,197.1,325.2Z"/><path d="M148.8,132.2h.3c2.9.2,5.4,2.6,5.3,5.1s-1.9,3.9-5.3,4.2a7.2,7.2,0,0,1-5.3-2c-2-1.8-1.9-4.4.4-5.8a35.2,35.2,0,0,1,4.5-1.8Zm-.9,7.2h1.6c1-.1,2.1-.2,2.4-1.6a2.5,2.5,0,0,0-1.1-2.7,4,4,0,0,0-4-1,3.8,3.8,0,0,0-2.2,1.9,3,3,0,0,0,1.1,2.4A5.5,5.5,0,0,0,147.9,139.4Z"/><path d="M180.9,116.2c-9.9-1-16.9-7.1-16.8-18.4.1-8.1,7.3-15.9,18.5-16,8.4,0,16.1,7.7,16,17.2S191.1,116,180.9,116.2ZM166.6,102c.5-1.6.9-3.2,1.5-4.6a12.9,12.9,0,0,1,6-6.8,14.5,14.5,0,0,1,9.9-2,13.2,13.2,0,0,1,10.8,13.2,23.1,23.1,0,0,0,.2,3.4c3.3-5.4,1.8-14.3-4.3-18.5s-12.5-5.3-19.1,0C166.6,90.6,164.3,98.7,166.6,102Zm18.6-1c1.8,0,2.6-.9,2.7-2.9s-2-5.2-4.1-5.2a3.9,3.9,0,0,0-3.5,3.6A5.2,5.2,0,0,0,185.2,101Z"/><path d="M119.7,113.7c-7.4,1-15.9-7.5-15.7-16s7.2-16.4,17.4-16.6c7.9-.2,15.1,6,15.3,16.1S129,114.2,119.7,113.7Zm12.8-9.1c3.2-4.5,3-11.2-.5-16s-9.6-7-14.8-5.7-11.6,8.3-11,14.4c2-3.9,4.2-7.1,8-8.7a14.7,14.7,0,0,1,11.8.3C130.9,91.3,134,96.4,132.5,104.6Zm-8.6-4.8c1.9,0,2.7-.5,3.1-1.9a4.3,4.3,0,0,0-5.2-5.7c-1.9.5-3.7,2.9-2.9,4.2S121.3,100,123.9,99.8Z"/><path class="cls-1" d="M185.2,101a5.2,5.2,0,0,1-4.9-4.5,3.9,3.9,0,0,1,3.5-3.6c2.1,0,4.1,2.6,4.1,5.2S187,101,185.2,101Z"/><path class="cls-1" d="M123.9,99.8c-2.6.2-3.9-1.5-5-3.4s1-3.7,2.9-4.2a4.3,4.3,0,0,1,5.2,5.7C126.6,99.3,125.8,99.8,123.9,99.8Z"/></svg>