<svg id="Layer_1" data-name="Layer 1" xmlns="http://www.w3.org/2000/svg" viewBox="0 0 550.7 463.6"><defs><style>.cls-1{fill:#fff;}</style></defs><path d="M5,184.7c-.1-.3-.4-.5-.4-.9-.4-3.1-.7-6.2-1.1-9.3a32.4,32.4,0,0,0-1.2-6.2A63.1,63.1,0,0,1,.7,157.7c-.3-2.1-.5-4.2-.7-6.4a8.6,8.6,0,0,1,.1-1.6,2.4,2.4,0,0,1,1-1,1.7,1.7,0,0,1,1.3.8c.2,3.3,3,5,4.9,7,8,8.4,16.6,16.2,24.4,24.8S45.5,195.2,52,202.4s12.7,13,18.8,19.7S83,234.8,89,241.3s10.7,11.3,16.1,17,8.7,9,13,13.6,6.5,7.2,9.8,10.7,8.8,9.5,13.3,14.2c7.7,8,15.5,15.9,23.1,24s12.7,13.7,19.1,20.6c3.7,3.9,7.6,7.6,11.2,11.5,7.2,7.6,14.1,15.4,21.2,23,3,3.2,6.2,6.2,9.3,9.4,1.5,1.4,2.9,3,4.3,4.5,3.6,3.8,7.3,7.6,10.9,11.5l11.1,11.8c6,6.4,12.1,12.8,18.2,19.1,1.7,1.7,1.5,2.4,4.5.9l29-14.2L325.5,408l23.2-11.8c4.7-2.4,9.4-4.8,14.2-7s8.8-3.7,13.1-5.7,8.7-4.3,13.1-6.3l11.6-5.2c2.6-1.2,5.1-2.5,7.6-3.8l.6-.5c3-.5,4.8-2.2,4.8-4.8-1.9-5.2-3.6-10-5.2-14.8a15.4,15.4,0,0,1-.3-4.8c.2-2.3,1.9-3.5,4-2.8a40.1,40.1,0,0,1,3.7,2.5l1.8.9.9-1.8c1.4-2.9.2-5.2-1-7.7-2.5-5.1-4.8-10.2-7.3-15.6l-3.2.5-7.3,1.5-1.6.2c-3.5-.6-6.8.7-10.1,1.3l-5.7,1.3c-1.4.3-2.5,1.6-3.9,2.3a54.6,54.6,0,0,1-6.4,3.2c-2.9,1.2-6,2.2-9,3.2s-6.3,1.7-9.4,2.6l-5.4,2-1.6.2-2.8.8a10.9,10.9,0,0,1-2.6.3c-3.7.2-7.5-.4-11.2.8a2.2,2.2,0,0,1-1.1.1c-3.7-1.6-7.6-.6-11.4-.8-1.9-.2-3.8.2-5.6-.8a3.6,3.6,0,0,0-1.8-.2l-10.3-.2c-1.9,0-3.8.1-5.5-.9a4.9,4.9,0,0,0-2.1-.2h-8.7a8.6,8.6,0,0,1-4.4-.8c-1-.5-2.4-.3-3.7-.3s-3.4.2-4.9-.9a1.1,1.1,0,0,0-.8-.2l-10.3-1.3-.7.2c0,.4-.2.8-.1,1.2,1.5,4.6,2.8,9.2,4.4,13.8,1.1,2.8,2.5,5.5,3.7,8.3a19,19,0,0,1,1.4,4,3.7,3.7,0,0,0,2.7,3,12.6,12.6,0,0,1,5.3,3.2c1.1,1,2.3,1.8,3.5,2.7s4.8,3.5,7.1,5.4,1.8,1.5.8,3.9c2.4,2,2,4.3.9,6.4,1.8,4.3,3.4,8.3,5,12.4.1.1-.2.4-.5.8a63.5,63.5,0,0,1-6.4-10.1c-1.2-2.1-2.4-4.1-4.9-5.1a52,52,0,0,1-6-3.5l-3.4-1.9c.4,2.9,1.6,5.1,2.5,7.4a58.3,58.3,0,0,1,2.2,6.3,2.4,2.4,0,0,1-.9,2.9,2.9,2.9,0,0,1-3.5-.4,15.2,15.2,0,0,1-3.1-3.6,5.5,5.5,0,0,0-3.9-3,14.8,14.8,0,0,1-2.7-1c-1-.5-2.1-.6-2.6.4s-2.3,3.1-1.2,5c-.6.5-1.4.7-1.7,1.3s-1.5,2.8-2.3,4.2-5.2,2.5-6.6.7a2.6,2.6,0,0,1-.4-2.4,21.7,21.7,0,0,1,1.9-4.4,14.3,14.3,0,0,1,1.2-2.1c1.1-2.2.9-2.7-.7-4.6-3.3-4-7.2-7.5-10.5-11.5s-7.3-7.3-10.6-11.4c-5.1-6.5-11.5-11.9-17.2-18l-.7-.8c-.1-.1-.1-.3-.2-1a8.2,8.2,0,0,1,1.9,1l13.6,13.7a65.5,65.5,0,0,1,5.8,6c3.5,4.5,8,8.1,11.6,12.4a80.7,80.7,0,0,0,6.8,7.5l1.4,1.1c2.5-1.8,3.1-3.7,1.6-6.1s-1.8-2.9-2.7-4.3a55.1,55.1,0,0,1-4.5-7.3,82.4,82.4,0,0,1-4-9.7,5.3,5.3,0,0,1-.1-2.2l.7-.2,1.8,3.1c2.5,4.6,5.1,9.2,7.7,13.8a37.9,37.9,0,0,0,2.5,3.5c.6.8,1.5.6,1.8-.4s1.7-5,2.3-7.6a9,9,0,0,0-.2-4c-1.4-5.1-2.8-10.3-4.4-15.3s-2.9-8.7-4.4-13c-.7-2-2.5-2.4-4.2-2.8l-14.5-3.6-1.5-.8a13.9,13.9,0,0,0-7.9-2.7c-2.3-.1-4.4-1.3-6.6-1.8s-6.9-1.4-10.2-2.4-7.8-2.6-11.6-4.2a172.9,172.9,0,0,1-15.9-7.2c-6.2-3.3-12.1-7.2-18.2-10.8s-10.2-7.3-15.2-11.1a94.1,94.1,0,0,1-8.3-7.1c-6.1-5.9-12.1-11.9-17.9-18-2.5-2.6-4.7-5.6-7-8.4s-4.1-5.2-6.1-7.9-4.6-6.5-6.8-9.9a168.5,168.5,0,0,1-12.7-22.7,15.2,15.2,0,0,0-3.6-5.2,10.2,10.2,0,0,1-2.9-4.8,35,35,0,0,0-5.5-10.7,44.9,44.9,0,0,0-8.1-8.2c-4.1-3.4-8-6.9-10.7-11.5a19.9,19.9,0,0,1-1.9-5.5,22.7,22.7,0,0,1-1.2-6.3c0-3.6,2.6-6.2,6.4-5s4.8,2.3,7.1,3.8a2.4,2.4,0,0,1,1,3.2,17.7,17.7,0,0,1-2-1.7c-1.9-2.2-4.4-3-7-3.8a2.1,2.1,0,0,0-2.7,1.8,9.2,9.2,0,0,0,0,3.7c1.3,4.1,2.4,8.3,5,11.8,1.3,1.5,2.4,3.3,4,4.3,3.7,2.5,6.4,6,9.7,8.9a6.2,6.2,0,0,0,2.1,1.3c-.5-2.1-.8-4.2-1.4-6.2a107.5,107.5,0,0,1-4-15.8c-.5-2.9-.8-5.8-1.2-8.7,0-.4.1-.8-.1-1.1-1.4-2.4-.8-5.1-.9-7.7-.1-.5.1-1.1-.1-1.6-1.4-4.1-.8-8.3-.8-12.5a34.3,34.3,0,0,1,.6-5.6,14.6,14.6,0,0,0-.2-6.2l-2.5.8c-4.5,2-9,4.2-13.6,6.1-2.8,1.2-5.9,1.8-8.7,2.9s-8.1,3.8-12.1,5.7a75.7,75.7,0,0,1-12.9,5.2c-2.6.7-5,1.9-7.5,2.8s-4.4,1.5-6.4-1A4.7,4.7,0,0,1,7,142.1l10.2-3A48.1,48.1,0,0,0,27.5,135c0-.8-.1-1.5-.1-2.1s.3-2.7.5-4a11.6,11.6,0,0,0,.4-1.8,47.5,47.5,0,0,1,4.2-15.7,34.7,34.7,0,0,1,1.7-4.5c3-5.2,6.4-10,11.2-13.6A100.3,100.3,0,0,1,58,85.7a61.7,61.7,0,0,1,11.8-4.3c2.8-.7,5.9-.3,8.8-.4.9-.1,2.1.4,2.5,0A10.3,10.3,0,0,0,83,77.6a6.1,6.1,0,0,0,.1-1.9,30.2,30.2,0,0,1,1.7-11.9,19.4,19.4,0,0,1,4.1-7.1c2.4-2.3,2.4-2.4.5-4.8s-3-7.3-3-11.3A22.6,22.6,0,0,1,88,31.4a23.2,23.2,0,0,1,7.2-9.8,31.4,31.4,0,0,1,8.5-4.9,4.9,4.9,0,0,0,2.5-2.6c2-3.9,5.2-6.1,9-7.7a21.9,21.9,0,0,1,12.6-1.6c3.9.7,8.1,1.4,10.6,5.1.2.3.6.4,1.1.6a3.6,3.6,0,0,0,1.1-1c1.8-3.8,5.3-5.6,8.8-7.1A62.9,62.9,0,0,1,156.8.2a2.8,2.8,0,0,1,1.8-.1c3.2,1.2,6.7,1.2,9.6,3.1a15.3,15.3,0,0,1,5.3,6c2.5,4.7,3,9.8,2.6,15.1a15.6,15.6,0,0,1-.8,2.8c8.4-.8,15.8,2,22.9,6.5a19.2,19.2,0,0,0,2.9-1.4,22.4,22.4,0,0,1,7.8-2.9c1.6-.2,3.3-.9,4.9-.8a27.7,27.7,0,0,1,13.4,4.1c4.3,2.4,7.3,6.2,10.8,9.6a15.3,15.3,0,0,1,2.6,4,2,2,0,0,0,2.9,1.1l6.2-2.6,10.6-4.6,11.4-4.6c3.3-1.4,6-.3,8.7,1.7s5.5,4.8,8.4,7,5.4,5.3,8.4,7.4c5.3,3.7,9.2,8.7,13.9,13a17.3,17.3,0,0,1,1.7,2.1c.7,1,1.6,1.9,2.4,2.9l9.1-2.8a7.5,7.5,0,0,1,2.1-.2h8.4a27,27,0,0,1,3.9.8l1.5.3c5.7-.2,10.3,2.7,14.9,5.5a35.1,35.1,0,0,1,4,2.7c3.5,2.9,5.7,6.9,7.9,10.8.8,1.3,1.5,2.6,2.4,3.9a18.6,18.6,0,0,1,2.9,7.5c.5,3.4,1.6,4.3,5,3.1a10.8,10.8,0,0,1,5.9-.1c1.5.3,3.1.4,4.7.6h.3c1.5-.3,1.8-.8,1.4-2.3s-1.1-5.2-1.8-7.8a41.6,41.6,0,0,0-2.3-5.4c-1.4-2.7-2.9-5.3-4.5-8.1,2.9-2.2,6.4-1.9,9.6-1.2,6.3,1.5,11,5.3,14.7,10.7a65.3,65.3,0,0,1,8.3,16.2c.7,2.1,1.3,4.4,2,6.5s.6,5.1.9,7.7a11.6,11.6,0,0,0,1.2,4.6,4.4,4.4,0,0,0,3.1,2.2c4.1.7,5.9,3.8,7.8,6.8s3.7,6.3,5.5,9.5a17.1,17.1,0,0,1,1.5,14.3,10.9,10.9,0,0,0-.4,2.6c-.1,1.2.4,1.8,1.7,2.2,4.4,1.3,7,4.3,8.4,8.7s1.2,8.4-.9,12.5c-1,2.1-1.8,4.4-2.8,7l1.8,1.4c2.5,2,4.4,4.2,3.8,7.7a5.6,5.6,0,0,0,2.1,5.3l5.2,4.3c1,1,2.2,1.8,3.2,2.8l35.4,35.4c7.7,7.7,15.4,15.3,23,23.1,2.8,2.9,5,6.4,7.6,9.5s4.1,4.3,6.1,6.4l11,11.1a40.2,40.2,0,0,1,6.8,9,4.7,4.7,0,0,1,.2,3.5,15.1,15.1,0,0,0-.4,5.2c0,1.2.6,2.4.6,3.6.2,3,.1,3,2.7,4.3a18.4,18.4,0,0,0-1.5,3.6c-.2,1.3.3,2.6.3,4s.4,3.2-.5,4.8a7.8,7.8,0,0,1-1.6-.2,1.9,1.9,0,0,0-2.4,1.3c-1.4,3.5-4.3,5.4-7.4,6.8s-4.6,2.9-7.4,2.6c-2.9,1.8-6.1.9-9.2,1.1a6.3,6.3,0,0,1-2.4-.3c-3.7-1.4-7.5-.8-11.2-.8a17.8,17.8,0,0,0-4.9,1.3,22.7,22.7,0,0,0-9.5,6c-1.7,2-3.1,4.4-4.7,6.5s-2.8,3-4.1,4.6c-3.1,3.7-7.3,5.6-11.5,7.5-2.7,1.2-5.7,1.6-8.5,2.4-6.5,1.9-12.9.5-19.2,1-1.5.1-3,0-4.4.8s-3.4.6-5.1,1.3-5.6,2.1-7.9,4-2.7,1.8-3.9,2.9a34.6,34.6,0,0,0-6.4,7.8,26.5,26.5,0,0,1-8.8,8.5c-1.2.8-2.3,1.7-3.6,2.4a47.5,47.5,0,0,1-5.6,2.5c-3.5,1.3-6.9,2.8-10.7,2.5-6.9,2.3-13.9.6-20.8,1.1a19.5,19.5,0,0,0-8.9,2.9c-4.8,2.8-8.3,7-12,11.1a47.9,47.9,0,0,1-7.3,6.2,44.8,44.8,0,0,1-13.8,6.5,30.6,30.6,0,0,1-10.9,1.5,13.2,13.2,0,0,0-5.8.8,36.4,36.4,0,0,1-5.9,1.5c-7.8,1.9-15.1,5-20.8,11a5.3,5.3,0,0,0-1.1,1.5c-.8,1.7-1.6,3.4-2.5,5s.2,4.1.4,6.1a5.6,5.6,0,0,0,.7,1.9c-3,1.1-4.4.8-6.9-2.8s-4.8-8-7-12.1-2.7-4.5-4.5-5.7l-1.1.6c-2.5,2-5.2,1.8-7.8.3a21.5,21.5,0,0,1-5.6-4.9c-3-3.8-5.4-8-8.1-12-4.4-6.5-8.8-13-13.4-19.4a69.7,69.7,0,0,0-6.7-7.7c-1.9-2-4-3.1-7.2-1.8s-6,.4-8.7-1.4a28.6,28.6,0,0,1-7.7-7.8c-2-2.8-3.9-5.8-5.7-8.8a52.1,52.1,0,0,1-3.3-6.7,78.1,78.1,0,0,0-9-15.6c-1.1-1.6-2.7-1.1-4.2-.8a10,10,0,0,0-2.5,1c-3.9,1.8-7.1.4-9.9-2.3a27.1,27.1,0,0,1-5.9-9.6c-2.5-6.4-5-12.8-8.6-18.7-2.5-4.1-4.2-8.7-6.2-13.1s-2.2-3.7-5.1-1a13,13,0,0,1-2.3,1.8c-2.6,1.6-5,.5-7.3-.7-5.4-2.9-8.7-7.6-11.1-13s-2.9-8.3-4.6-12.3-3.8-8.5-5.9-12.6-3-5.7-4.6-8.5-1.6-2.1-3.7-2.9a37.4,37.4,0,0,0-2.7,4.2c-1.6,3-4.9,2.8-6.3.6a48.7,48.7,0,0,1-4.6-7.5c-2.2-4.8-3.8-9.9-5.9-14.7a74.9,74.9,0,0,0-4.2-7.2l-2.1-3.1c-.9-1.2-1.8-1.5-3-.7a28.2,28.2,0,0,0-3.9,2.9c-2,1.6-4.2,1.7-5.9-.2a11.6,11.6,0,0,1-1.8-2.7,136.2,136.2,0,0,1-6.2-14.8c-1.3-3.9-3-7.7-6.1-10.6-1.1-1.1-2.2-1.9-3.8-1.7a51.7,51.7,0,0,0-5.5.7,8.1,8.1,0,0,1-9.4-6.2c-.6-3.4-1.4-6.9-2.3-10.3a31.8,31.8,0,0,0-4.7-9.6,5.9,5.9,0,0,0-6.6-1.8c-.2.1-.5.2-.6.4C7.8,184.2,7.8,184.2,5,184.7ZM427.6,369.5c1.8.4,1.8.4,2.1-1.1l1.6.2c1,.1,1.5-.4,1.4-1.4l2.9.2c-1-1.4-1.9-.8-2.8-.2l-3,1.3-2.2,1-2.4.9C426.9,371.1,427.5,370.8,427.6,369.5Zm-140.1,64c0,.1,0,.2-.1.2l-12.2,4.9a2.6,2.6,0,0,0-1.8,3.2,16.4,16.4,0,0,0,1.3,4.3c.1.3.8.4,1,.4,3.2-4.9,7.3-8.5,11.8-12.1v-.9c.8.5,1.5.7,2.1-.5ZM240.3,184.4a19.6,19.6,0,0,1-2,2.6c-.8.9-1.8,1.5-2.5,2.4a2.7,2.7,0,0,0-.7,2.2,5.9,5.9,0,0,0,4.1,4.5,1.8,1.8,0,0,0,2.1-.8c2-2.6,4.1-5.2,6.3-7.6a3,3,0,0,1,2.4-.8c1.1.1,1.3,1.1,1.2,2.1a33.5,33.5,0,0,1-.7,4.4c-.3,1.2-.6,2.4.5,3.2,3.3,2.5,6.6,4.6,11,4.3a5.6,5.6,0,0,0,4.6-2.7,62.8,62.8,0,0,1,4.8-6.4,2.4,2.4,0,0,1,1.9-.5,1.8,1.8,0,0,1,.9,1.4,3.9,3.9,0,0,1-.3,2.4c-.8,1.4-.2,2.3.7,3.3a4.3,4.3,0,0,0,3.3,1.5c2.9,0,5.8-.5,8.6.5.4.2,1-.1,1.5-.3a10.9,10.9,0,0,0,6.2-7.9,5.7,5.7,0,0,1,1.4-2.8c1.2-1.2,2.7-.5,2.8,1.2a5,5,0,0,1-.2,2.1c-.5,2.2.7,3.5,2,5s2.4.7,3.6,0h.8c4.4-.6,7.3-3.7,10.5-6.2,1.1-.8,1.7-2.3,2.5-3.5a22.3,22.3,0,0,0,3-7.9c.5-3.3.8-6.6,1.3-9.8a1.1,1.1,0,0,1,.2-.8,1.8,1.8,0,0,1,3-.7,4.3,4.3,0,0,1,1,2.4c.1,2-.1,4.1.1,6.2a5.9,5.9,0,0,0,1.1,3.2,21.9,21.9,0,0,0,7.6,6.2c3.3,1.6,6.7.9,10.1.8a2.8,2.8,0,0,0,1.3-.7c2.2-1.5,3.7-1.1,4,1.4a8.9,8.9,0,0,0,2.8,5.1c2.5,2.5,4.8,5.3,7.2,7.9a2.6,2.6,0,0,0,1.7.7h8.6a2.9,2.9,0,0,0,2.6-1.6,9.1,9.1,0,0,0,1.5-5.6c-.3-2.1.8-3.5,2.9-4.3,2.3,1.8,1.4,4.2,1.3,6.5-.1.5-.5,1-.4,1.4a6,6,0,0,0,5.3,4.9l2.6.4a18.6,18.6,0,0,0,3.4.6c3.5.3,7,.1,10-2.2a3.9,3.9,0,0,1,1.5-.6c2.8-.3,4.5-2.5,6.3-4.3a28.3,28.3,0,0,1,2.4-2.5,5,5,0,0,1,2.2-1.3c1.4-.3,2,.5,1.6,1.9a20.2,20.2,0,0,0-.7,2.3c-.6,1.9-.9,3.8-1.6,5.6a7.5,7.5,0,0,0,.1,5.7c.9,2.4,2.8,4,4.6,5.5s4.9,1.2,5.6-1.8,2.4-3.4,4-4.5,1.6-.1,2.7-.1a13.7,13.7,0,0,0-.5,1.9,6.2,6.2,0,0,0-.2,2.3c.7,2.3,4.2,3.8,6.5,3.1s4.3-2.4,3-5.8a11.8,11.8,0,0,0-.7-2,8,8,0,0,0-1.5-2.1c-1-1.1-1-1.5,0-2.6s2.2-.7,3.3-.8,2.5-.1,2.9-1.4a11.6,11.6,0,0,0,.2-8.2,2.2,2.2,0,0,0-2.8-1.3,4.1,4.1,0,0,0-1.5.7,6.9,6.9,0,0,1-5.3,0c-2.1-.8-2.4-2.5-.6-3.9s2.4-1.5,3.6-2.3a13.7,13.7,0,0,0,6.9-11.7c.2-3.2-1.3-5.8-2.9-8.2s-2.8-2.2-4.4-2.8-2,1.3-2.9,2-5.4,1.3-6.9-.3l-2.5-2.9a9,9,0,0,1,2.2-1.4,3,3,0,0,0,2.3-1.9c2.2-3.8,2.1-8.1,2.8-12.2.3-1.8-.9-4-1.6-5.8s-2.4-5.1-3.6-7.6a8.9,8.9,0,0,0-6.5-4.9,39,39,0,0,0-1.3,5.7c-.3,3.1-.2,6.2-.9,9.3s-1.5,6.4-2.5,9.5c-2.2,6.3-5.3,12-10.3,16.5-1.7,1.6-2,1.7-4,.7l-1.5-.7c-1.8-1-2-2.1-.6-3.7s1.9-2.1,3-3.2l-1.9-2.2c-3.8-3.4-6.9-7.5-11.3-10.3-2.8-1.8-5.1-4.2-7.6-6.4s-2.2-1.4-4-.2l-3.8,2.5a3.5,3.5,0,0,1-4-.1c-.1-1.5.8-2,1.8-2.5a38.7,38.7,0,0,0,5.3-3.7,46.1,46.1,0,0,0,10.7-13.6c2.7-5.3,3.6-11.1,5.1-16.8a6.1,6.1,0,0,0-.1-1.9,2,2,0,0,0-.8-1.3,14.5,14.5,0,0,0-9.2-1.1,31.1,31.1,0,0,1-4.4.8,3.1,3.1,0,0,0-3,1.9c-.6,1.6-2.1,1.9-3.3,2.4s-3.3-.6-3.3-2a15.5,15.5,0,0,0-1.4-6c-.8-2.1-1.7-4.3-2.7-6.3s-1.8-2.7-2.6-4.1c-2.9-5.1-5.1-10.6-10.6-13.5l-.2-.2a22.9,22.9,0,0,0-8.2-5.2c-1.7-.6-3.7-.7-5.3-1.4s-3.5-.7-5.3-.9c-3.5-.4-6.7.5-10,1.5-1.6.5-3.5.9-3.8,2.4a13.1,13.1,0,0,0-3,1c-3.2,1.6-5.4,4.4-7.8,6.9a39.3,39.3,0,0,0-4.1,5.7,2.9,2.9,0,0,0,0,3.5,6.5,6.5,0,0,1,.8,2.2c.3,1.5-.7,2.4-2,2a4.3,4.3,0,0,1-1.9-1.4l-4.7-5.5c-3.2-3.5-7.2-4.9-12-5.1a44.1,44.1,0,0,0-10.3,1.4,15.3,15.3,0,0,0-6.6,3.3,4.4,4.4,0,0,0-1.3,5.5l.3,1a55.7,55.7,0,0,0,4.2,11.6,94,94,0,0,0,10.4,16.8c1.7,2.1,3.5,4,5.1,6.2a55.6,55.6,0,0,0,8.4,8.4c1.7,1.3,3.3,3,4.9,4.5a3.9,3.9,0,0,1,1.1,4.2c-.7,1.3-2.1,1-3.2.9a5.8,5.8,0,0,1-2.7-.9c-1-.5-1.9-1.3-3-1.8a2,2,0,0,0-1.7,0c-1.9,1.3-3.7,2.8-5.5,4.2s-4.1,3.5-6.3,5-5.6,3.7-8.5,5.6a13.6,13.6,0,0,0-1.7,1.7,9.1,9.1,0,0,0,3.7,3.6c.8.5,1.6,1,1,1.9s-1.3.5-2.1.6-.6-.2-.9-.4l-6.7-4-.7-.8-2.5-3.1c-2.5-3.4-5.5-6.5-7.4-10.2-4-7.5-6.7-15.4-6.7-24.1a9.8,9.8,0,0,0-.5-2.9,7.8,7.8,0,0,1,.2-5.8,5.6,5.6,0,0,0,.3-2.3c.1-1.8.1-3.6.1-5.4s-.8-3.1-3.2-2.2-4.3,2.1-6.6,2.8a22.9,22.9,0,0,0-10.3,6.3,56.6,56.6,0,0,0-4.2,4.3,9.9,9.9,0,0,0-1.3,2c-1.4,2-1.2,4.3-1.1,6.5a14.1,14.1,0,0,0,6.9,12,48.7,48.7,0,0,1,4.7,3.2l6.8,5.2c1,.7,1.8,1.3,1.3,2.6a1.9,1.9,0,0,1-2.6.7c-3.1-1.7-6.2-.3-8.8.7-4.3,1.8-8.4,4-11.2,8.4-1.7,2.8-1.9,5.2-.7,7.9s2,3.5,3,5.1,2,1.8,1.1,2.8-2.1.5-3.2.7h-.5c-3.7-.6-6.4.6-8.3,3.6-.5.9-.7,1.7.4,2.5a3.1,3.1,0,0,1,1.4,1.8c.8,4,3.8,5.8,7,7.2a5,5,0,0,0,5.4-.1,3.8,3.8,0,0,1,1.5-.5,28.9,28.9,0,0,0,9.9-3.3l5.8-3.4C237,183.6,238.3,182.9,240.3,184.4Zm200.1,50.2a10.9,10.9,0,0,0-1.9,1l-4.1,3.3-8.1,6.7c-.7.6-1.5.9-2.2,1.5s-3.8,2.3-4.3,4.9a37,37,0,0,1-3.9,11.6c-1.6,2.9-3.7,5.6-5.6,8.4a35.2,35.2,0,0,1-12.2,10.8,56.8,56.8,0,0,1-12,4.8,37.5,37.5,0,0,1-6,1.3,7.7,7.7,0,0,1-3.7-.2c-2.3-.8-4.7-1.4-6.8-2.3-4.1-1.8-8.5-3.1-12.3-6a43.5,43.5,0,0,1-12.2-13.1c-4-7-7.9-14.3-8-22.8a8.3,8.3,0,0,0-.4-1.5c-.2-1.1-.6-2.3-.7-3.4-.1-3.3.1-6.6,0-10-.1-.9-.2-2.2-.8-2.7-2.3-2-5-3.7-8.1-3.8s-8.8-.5-13,1.2c-1.5.6-2.2,1.1-2.4,2.8s.1,2.1-.4,2.9a7.9,7.9,0,0,0-.7,4.7c.4,3.8-.6,7.4-1.5,10.9s-2.2,6.1-3.3,9.1c-.1.4-.1.9-.3,1.8a9,9,0,0,0,1.9-1.2,18.6,18.6,0,0,1,10.4-3.8c2.2-.1,4.2.8,6.3,1a11.1,11.1,0,0,1,6.6,3.2c3.8,3.3,4.7,7.8,5.3,12.4a16.9,16.9,0,0,1-1.1,7.4,10.9,10.9,0,0,1-4.3,6c-3,2.2-6.1,3.6-10,3.1a38.4,38.4,0,0,0-4.8,0,5.3,5.3,0,0,1-2.2-.3c-4.1-1.2-7.7-3.4-9.9-7.2s-4-7.7-2.2-12.3c.1-.3-.2-.9-.4-1.8a35.4,35.4,0,0,0-4.3,4.5,40.8,40.8,0,0,1-3.6,3.6l-2.6,2.3c-3.7,3.7-8.4,5.1-13.3,5.7a78.8,78.8,0,0,1-11.9,0,16,16,0,0,1-9.4-3.5l-10.1-8a18.6,18.6,0,0,1-2.3-2.6,10.1,10.1,0,0,0-1.4-2c-3.1-2.5-4.3-6.1-6.1-9.4s-3.6-10-4.7-15.3a6.3,6.3,0,0,0-2.7-4c-1.4-1.1-2.8-2-4.1-3.1s-4.2-3.6-6.4-5.3a36.5,36.5,0,0,0-4-2.1,14.2,14.2,0,0,0-1.6,3.3c-1.1,3.2-2,6.4-3,9.7s-1.8,5.4-2.4,8.2a92.5,92.5,0,0,0-1.2,9.2c-.3,2.6-.2,5.3-.8,7.8-1.1,4.9.1,9.7,1.2,14.3s5,11.1,8.2,16.3,9.3,8.9,13.6,13.7l.5.3c6,2.6,12.1,5.3,18.2,7.8,1.7.7,3.8,1.7,5.9-.5,0,2.4,1.2,2.8,2.8,2.9h9.7l2.8.2v.4l-1.7,1.2c1.7.2,3.1,0,4.1.5s3.8.7,5.8.8a25.4,25.4,0,0,1,2.9.4l3.7.6c2.3.1,4.5,0,6.8,0s3.2.3,4.2-1.5a1.7,1.7,0,0,1,1.2-.5c1.9,0,3.9-.4,5.6.2s4.6.7,6.9.8a8,8,0,0,1,2.7.2c2.1.9,4.2.8,6.3.8l3.5.4a30.7,30.7,0,0,0,4.2.7c7.8.1,15.6.2,23.4,0,3.6-.1,7-1.5,10.6-1.3l.5-.2,3.7-.6c2.9-.1,5.8.4,8.5-1h.8l8.7-1.4,4.6-.9c2.2-.4,4.6-.5,6.6-1.4a54.2,54.2,0,0,1,9.5-3.5c3.4-.8,6.6-2.1,9.9-3.2a13.3,13.3,0,0,0,3.4-1.6,62.1,62.1,0,0,0,9.5-8.3,23.4,23.4,0,0,0,5.1-6.6c1.8-3.9,3.8-7.7,5.4-11.7s3.6-9.7,4-14.9a6.1,6.1,0,0,1,.3-1.3c.3-1.2.5-2.4.8-3.6a20.5,20.5,0,0,0,.5-2.4,15.5,15.5,0,0,0,.6-3.1c.1-5.8.1-11.7,0-17.5A16.8,16.8,0,0,0,440.4,234.6ZM89.5,184.8a19.3,19.3,0,0,0,.1,2.5c.2,1.7.6,3.3.8,5,.4,3.8.2,4-3.7,4.3-1.8.2-2.4,1.2-1.4,2.7a15.9,15.9,0,0,0,2.9,3.8c9.5,9,17.9,18.9,28,27.2,5.1,4.3,9.8,9,14.6,13.6l24.4,23.5c5.7,5.5,11.3,11.1,16.9,16.7l20.5,20.6c1.3,1.2,2.4,2.5,2.1,4.4s.4,1.7,1.4,2c3.1,1.2,6.1,2.4,9.3,3.5l9.9,3.1a84.1,84.1,0,0,0,8.3,2.1,52,52,0,0,0,6.9.7,40.1,40.1,0,0,1,9.7,1.6,1.2,1.2,0,0,0,.8.1l6.3-2.3c-1.6-2-3.7-2.6-5.7-3.2a68,68,0,0,1-13.6-6.5,133.9,133.9,0,0,1-11.9-8.3,10.7,10.7,0,0,1-2.5-2.7l-5.9-8.7c-2.6-3.8-4.9-7.6-5.1-12.3,0-.3-.4-.5-.6-.9a14.6,14.6,0,0,1-3.5,2.2,25.5,25.5,0,0,1-4.2.5,6.6,6.6,0,0,0,2.4,4.1,11.3,11.3,0,0,1,3.5,6.4c.5,3-1.4,5.2-3.6,5.2s-2.4.5-3.7.7a8.6,8.6,0,0,1-7.2-1.4c1.7-1.4,3.6-.5,5.2-1a47.2,47.2,0,0,1,5.4-1.3,3.3,3.3,0,0,0-.6-3.3c-1.5-1.7-3-3.6-4.4-5.4a14.9,14.9,0,0,1-2.4-3.2c-.8-1.3-.3-2.3.9-3.2a8.3,8.3,0,0,1,5.3-1.4c2.5.1,3.2-.9,2.6-3.4s-.7-2.5-1.1-3.8-1.1-2.2-1.6-3.4-.4-3.3,1.7-4.2c.4-.2.8-.6,1.2-.6,2.9-.2,3.2-2.5,3.6-4.6a12.2,12.2,0,0,0,.1-2.7c.1-1.1,0-2.2.2-3.2,1-4,1.9-8,3-11.9s3.1-10.1,4.7-15.1c1-3,.6-4.1-2.1-5.7l-5.6-3.8c-4.2-2.7-9.7-3.1-12.3,2.8-.9,1.8-1.6,3.6-2.4,5.4s-1.1,2.1-2.6,1.8a5.2,5.2,0,0,1-.2-4.7c1.4-3.2,3-6.3,6-8.4s4.4-2.5,7-1.8a18.3,18.3,0,0,1,9.3,5.1,14.1,14.1,0,0,0,5.4,3.5l2.8-5.8c.9-1.7,1.9-3.5,2.9-5.1s2.3-3.4,3.5-5.1l3.3-5-.8-.3c-3.6,1-6.9-.9-10.4-1-.3,0-.6-.3-.9-.4-3.4-1-5.6-3.6-8.2-5.7a5.2,5.2,0,0,0-3.4-1.2,31,31,0,0,1-4.3-.2,63.6,63.6,0,0,1-7.3-1.6,78.8,78.8,0,0,1-10.5-3.1c-4.6-2-9.2-4.4-13.7-6.8a86.7,86.7,0,0,1-17.4-12.8c-.6-.6-1.4-.9-2.3-1.6a15.2,15.2,0,0,0-.3,2.4c-.1,2.4-1.3,4.2-3.6,4.7a9,9,0,0,1-4,.1c-3.4-.9-6.8-2-9.7-4.3a14.8,14.8,0,0,0-3.5-1.9c-1.1-.5-1.9-.1-2,1s-.4,3.6.2,5.1.7,5.1.6,7.7-1.6,4.1-4.5,4-5.3-1.5-7.7-2.8l-5.8-3.4c.2,1.8-.1,3.1.4,4,1.3,2.7.7,5.5.8,8.2s-.8,2.7-2.6,2.8a6.7,6.7,0,0,1-3.1-.5C97,187.7,93.5,186.3,89.5,184.8ZM430.1,306.1c3.6,3.1,5.5,7.1,7.7,11l1.6,3.4c.7,1.4,1.4,2.9,2,4.4a1.9,1.9,0,0,1-.7,2.6c-1.4-.5-2.8-1-3.5-2.5s-2-4.6-3.2-6.8a57.1,57.1,0,0,0-3.5-6.4,37.5,37.5,0,0,0-2.6-3.3c-2.1.7-8.9,6.1-10,7.9l1.5,2.5c2.6,4.2,5.3,8.3,7.2,12.9a6.4,6.4,0,0,0,4.6,4.1,5.5,5.5,0,0,1,2.4,1.2l7,5.8,6.4,4.9a2.7,2.7,0,0,0,3.2,0,65.4,65.4,0,0,1,6-2.8c4.3-2.1,8.8-3.7,12.9-6.2,6.2-3.6,12.9-6.3,19.3-9.6l16.9-8.4,10.7-5.2,11.1-5.3,13-6.6-1.9-1.7a34.7,34.7,0,0,1-4.3-3.5c-5.5-5.8-11.7-10.9-16.4-17.4-2.3-3.1-5.3-5.6-8.1-8.3-9.9-9.9-20-19.8-29.9-29.8l-18-17.9c-.8-.8-1.5-1.9-2.8-2l.6,4.3a5.3,5.3,0,0,0,.5,1.8c1.2,2.1.7,4.4.6,6.6a1.4,1.4,0,0,1-2.1,1.3,3.2,3.2,0,0,1-1.9-1.7c-1-2.8-2.7-5.5-2.6-8.7a3.5,3.5,0,0,0-2-3.2c-1.4.8-2.7,1.8-4.2,2.6a2.5,2.5,0,0,0-1.5,3.3l.6,2.4c.7,3.1,2,6.1,1.7,9.4s-.2,5.2.8,7.7a7.1,7.1,0,0,1,.3,2.1c.2,2.3-.6,4.4-1,6.6s-.4,6-1.1,9c-1.3,5.2-2.2,10.5-4.3,15.5-1.2,3.1-1.6,6.5-4.3,8.9a2.1,2.1,0,0,0-.3.7c.4,2.3-1.3,3.8-2.1,5.7a3.2,3.2,0,0,1-2.6,2.1,2.2,2.2,0,0,0-1.5,1.3C431.5,302.4,430.9,304.2,430.1,306.1ZM85.4,84.4c-1,1.6-1.8,2.7-2.4,3.9-1.6,3.7-3.2,7.3-4.6,11.1a60.4,60.4,0,0,0-3.2,10.2,102.5,102.5,0,0,0-1.7,11.1c-.1.5-.4,1-.5,1.5s-.4,1.8-.5,2.6,0,3.8,0,5.7a15,15,0,0,1-.4,3.7,8.1,8.1,0,0,0,0,6.3,11.6,11.6,0,0,1,.4,1.8c.3,4.2-.1,8.3.8,12.5s1.1,7.1,1.6,10.6c.2.9.2,1.8.4,2.7l2.7,10c1.2,4,2.4,8,3.7,12a11.1,11.1,0,0,0,1.4,2.9,2.2,2.2,0,0,0,2.8.7c1-.5.6-1.2.4-2-.8-2.8-1.5-5.5-2.2-8.4,2-4.1,4.5-3.7,7.4-2.4l8.1,3.6a18.1,18.1,0,0,0,2.2.4c-.1-1.4-.1-2.7-.3-3.9s-1.1-4.1-1.6-6.1a6.1,6.1,0,0,1-.1-1.9c.3-3.2,3-4.6,5.7-3l6,3.6,6.9,3.5c.1-1.2.2-2,.2-2.8V162.4c.1-2.3,1.2-3.4,3.5-3.6s5.1,1.1,7.5,2.5a89.5,89.5,0,0,0,8.8,4.3c1.3.5,2.1-.1,2.2-1.5a10.2,10.2,0,0,0-.3-3.5c-1.7-4.7-2.6-9.7-5.9-13.6a9.1,9.1,0,0,1-.9-1.7,43.5,43.5,0,0,1-4.2-12.1,19.4,19.4,0,0,1,0-8.3,22.9,22.9,0,0,1,9.1-14.1,31.4,31.4,0,0,1,17.7-6h7.3c2.8.2,5.8-.5,8.4,1.1.4.3,1.1.1,1.6.2a51,51,0,0,1,6.8,1.3c3.1,1.2,6,3,9.1,4.1,1,.3,1.9,1.9,3.3,1-1.8-3.5-3.8-6.8-5.2-10.3a67.2,67.2,0,0,1-4.5-15.1c-.5-4-1.3-8-1.3-12,0-6.2.3-12.5,2.5-18.5,1.4-4,2.4-8.2,4.9-11.8.6-.8,1.1-1.7.3-2.8s-2.7,0-3.9-.6-3.6-.6-5.7-.3c0,2.1-.1,4.1-.1,6.2a31,31,0,0,1-.2,4.3,24.4,24.4,0,0,1-10.2,14.7,97.5,97.5,0,0,1-9.9,5.7c-3.1,1.6-6.2,2.9-9.8,2.5a9,9,0,0,0-1.6.4c0,1.1-.1,2.1,0,3.2A20.6,20.6,0,0,1,145.3,90a18.6,18.6,0,0,1-7.1,7.1c-2.9,1.6-6,1-9,1.2a10.6,10.6,0,0,1-8.4-2.7,20.2,20.2,0,0,1-2.8-3l-4.1,2a54.6,54.6,0,0,1-7.2,2.1,12.4,12.4,0,0,1-6-.7,29.7,29.7,0,0,1-7.2-2.7A18.7,18.7,0,0,1,85.4,84.4Zm43,9.6c4.8.6,8.2-1.8,10.2-5.7a19.6,19.6,0,0,0,2-9.9,54,54,0,0,0-.8-6.9,3.5,3.5,0,0,0-.8-1.6c-1.4-2.4-1.3-3.1,1-4.6a11.3,11.3,0,0,1,3.2-1.3,2.7,2.7,0,0,1,3.6,1.8c.5,1.4.8,2.9,1.2,4.3s.9,1.9,1.9,1.6a26.8,26.8,0,0,0,4.9-2.1c3.1-2,6-4.2,9.1-6.2,5.6-3.5,7.2-9.2,8.7-15a1.7,1.7,0,0,0-.1-1.4c-1.1-2.9-2.5-5.7-5.5-7.2-1.4-.8-1.3-1.3-.2-2.5a12.2,12.2,0,0,0,2.4-3.2,24.5,24.5,0,0,0,1.2-12c-.2-1.4-.4-2.8-.7-4.2-.8-4.5-2.8-8.5-7.3-10.2a13.4,13.4,0,0,0-6-.5,20.5,20.5,0,0,0-5.3,1.7c-2.8,1.2-4.4,3.6-5.7,6.2a21.2,21.2,0,0,1-1.1,2.1,3,3,0,0,1-3.5,1.2c-2-.6-3-1.5-2.9-3.1s-.1-3-1.7-3.9-4.5-2.7-7.3-2.3h-3.2c-3.5-.3-6.5,1-9.5,2.5a9.3,9.3,0,0,0-4.6,5.1c-.3.8-.6,1.6-1,2.5-1.1,2.6-2.3,3-4.7,1.5s-2.1-1-3.1-.3-4.7,2.9-6.2,5c-3,4.3-5.2,9.1-4.8,14.7.2,3.8,1.3,7,4,9.6a29.5,29.5,0,0,1,2.5,2.5,1.4,1.4,0,0,1,0,2.3c-.6.6-1.4,1.4-2.1,1.4a4.1,4.1,0,0,0-3.6,2.5l-1.7,3.3a18.2,18.2,0,0,0-1.8,10.2,48.3,48.3,0,0,0,1.5,8.3,15.2,15.2,0,0,0,6.1,7.6,13.4,13.4,0,0,0,9.4,2.4,15.2,15.2,0,0,0,7.8-3.4,10,10,0,0,1,2.9-1.5c2.1-.8,3.5,0,3.3,2.2-.3,3.7,2.1,4.9,4.6,6A11.4,11.4,0,0,0,128.4,94ZM3.1,154.5a44.6,44.6,0,0,0,.6,4.8c1.1,5.2,2.3,10.4,3.5,15.6.4,1.3.9,2.5,1.4,3.8s1.1,1.4,2.3,1.1a7.9,7.9,0,0,1,9.3,3.4,35.5,35.5,0,0,1,3.6,6.3,92.8,92.8,0,0,1,3.5,11.7c.9,3.8,2.3,5.2,6.2,5.2h4a8.1,8.1,0,0,1,7.6,3.2,28,28,0,0,1,3.4,4.5c1.7,3.7,3.2,7.6,4.9,11.3s3.4,7.3,5.2,10.9a1.5,1.5,0,0,0,2.5.5l2.6-1.8c2.9-2.1,5.7-1.7,7.9,1.1l1.2,1.2c1.8,2.7,4,5.3,5.4,8.2,3,6.1,5.6,12.3,8.5,18.5a34.7,34.7,0,0,0,2.3,3.7l2-2.6a23.1,23.1,0,0,1,2.4-2.9c1.6-1.3,4.7-1,5.8.7a73.1,73.1,0,0,1,5.8,8.7c3.4,6.7,6.8,13.5,9.7,20.5a103.3,103.3,0,0,0,6,12,17.9,17.9,0,0,0,6.8,6.3,3.8,3.8,0,0,0,4.9-.6c.6-.5,1.1-1.2,1.7-1.6,3.1-2.4,6.3-1.9,8.1,1.2s2,4.4,3,6.6,1,2.5,1.7,3.7c1.8,3.4,3.8,6.7,5.4,10.1,2.8,5.8,5.4,11.7,8,17.6a13.3,13.3,0,0,0,7.4,7.3c2.6-1.2,5.2-2.4,8.3-2.1s3.1.6,4,1.9a105.5,105.5,0,0,1,5.9,8.9c1.9,3.4,3.4,7.1,5.3,10.6s4.4,7.5,6.7,11.2a41.5,41.5,0,0,0,4.6,5.6c1.9,1.8,4.1,3.2,6.9,3.1l6.7-.5a5.9,5.9,0,0,1,4.9,1.8q3.6,3.6,6.9,7.5c1.6,2.1,3,4.4,4.6,6.6l10.2,14.4c3.1,4.4,5.5,9.2,9.1,13.3s4.3,3.6,7.9,2,3.6-.7,5.3,1a15,15,0,0,1,3.9,5.4,5.3,5.3,0,0,0,3.1,3.1,30.1,30.1,0,0,0-1.1-4.3,16,16,0,0,0-4.5-7.3c-3.6-3.4-6.7-7.2-10.1-10.8l-14.9-15.9L230,398l-1.1-1.3-20.3-21.9c-1.8-2-3.8-3.8-5.6-5.7-6.7-7.1-13.2-14.3-19.8-21.3l-8-8.4c-6-6.4-11.8-12.8-17.7-19.2-2.9-3-5.9-5.8-8.7-8.8-5.9-6.4-11.7-13-17.6-19.3s-12.8-13.4-19.2-20L97,256.2c-6.3-6.8-12.4-13.7-18.7-20.4s-12-12.7-18-19c-1.2-1.3-2.5-2.5-3.7-3.9l-13.5-15c-3.5-3.8-7.4-7.3-10.6-11.4s-6.4-6.7-9.4-10.3c-4.6-5.5-9.8-10.5-14.7-15.7-1.2-1.3-2.3-2.8-3.5-4.1Zm152.2,7.6c4.3,3.1,8.4,6.2,12.7,9a70.4,70.4,0,0,0,13.5,6.6,58.4,58.4,0,0,0,14.9,3.9l1.5.4c2,.7,2.1.7,2.8-1.3,1.4-3.7,4.2-5.8,7.6-7.2s2.1-.8,1.3-2.8-1.6-3.4-1.5-5.4c0-4.9,1-4.9-4.7-6.3a45.3,45.3,0,0,1-8.6-3.4c-4-2-7.8-4.1-11.6-6.2s-7.9-4.6-11.8-6.9l-11.2-6a6.1,6.1,0,0,1-3.1-4.5,18,18,0,0,1,4.2.3,69.5,69.5,0,0,1,8.9,3.7c9.1,5.1,18.2,10.4,27.2,15.8,3.3,2.1,6.9,3.3,10.4,4.8a3.9,3.9,0,0,0,4.4-.9,41.7,41.7,0,0,1,6.1-3.8l3.1-1.6q1.9-1.2,0-2.4l-4.1-2.6c-1.5-1-1.7-1.8-1-3.4s.3-3.1-1.4-4.3a38.8,38.8,0,0,1-3.3-2.3c-.4-.3-.8-.9-1.3-.9-3.5-.3-5.7-2.9-8.5-4.5s-5.9-4-9-5.7-8.2-4.5-12.4-6.5-5.4-2.7-8.5-2.7a1.8,1.8,0,0,1-1-.2,25.6,25.6,0,0,0-10.6-2c-2.6.1-5.2,0-7.8,0-.6,0-1.5.2-1.9-.2s-3-.2-4.4.3l-2.4,1.3c-5.6,3.4-7.9,8.7-8.1,14.9-.1,2.8.9,5.8,1.8,8.6,2.5,7,7.1,12.8,11.7,18.5l1.5,1.5c.9.7,1.8,1.2,3,.5l4.1-2.3C157.9,158.2,156.5,159.9,155.3,162.1Zm68.6-52.9c1.3-.6,2.3-1.2,3.4-1.6s4.7-1.8,7-2.5,5.5-1.6,8.2-2.4a2.9,2.9,0,0,0,1.2-4.6,3.5,3.5,0,0,1-1-2.9c-.3-4.9.6-9.8-1-14.6-.8-2.4.1-5.1-1.2-7.6s-.6-4-1.4-5.8-2.4-5.3-3.5-7.9c-1.8-4.5-4.8-8.4-7.5-12.4-1.4-1.9-2.7-3.8-4.1-5.6a28.7,28.7,0,0,0-2.9-3.1,19.6,19.6,0,0,0-3.2-2.5c-2-1.2-4.2-2.3-6.5-1.6s-6.9,2-9.9,4.5A34.7,34.7,0,0,0,192.9,49a49.5,49.5,0,0,0-5.4,17.5c-.1.5-.3,1-.4,1.5a11.9,11.9,0,0,0-.5,3.2c.2,4.9-.7,9.8.8,14.6.8,2.4.7,5,1.4,7.4,1.8,6.3,3.7,12.6,7.5,18.2,1.7,2.5,3,5.1,5.9,6.7s5.5,3.9,8.3,5.8a3.3,3.3,0,0,0,1.5.4,20.8,20.8,0,0,1,8.2-12,2.8,2.8,0,0,0,1.1-3.3c-.4-1.3-.7-2.5-1-3.8-1.2-4.3-2.3-8.5-3.4-12.7-.5-2-.8-4-1.2-6s-1.1-6.2-1.7-9.2-2-7-1.7-10.8c.1-1.7.1-3.5.1-5.2l.7-.2a16.5,16.5,0,0,1,1.4,2.6c.8,2.4,1.5,4.8,2.2,7.1s.8,3.8,1.1,5.7.7,5.5,1.1,8.2.3,2.3.5,3.5.7,4.2,1.1,6.3,1.3,4.5,1.7,6.8.6,4.3,1,6.4C223.2,108.1,223.5,108.5,223.9,109.2ZM375.5,283.5a70.6,70.6,0,0,0,7.9-1.3,40.2,40.2,0,0,0,12.4-5.8,39.8,39.8,0,0,0,13.6-14.9c2.5-5.1,4.6-10.4,4.8-16.3,0-.7.5-1.5.6-2.3s.7-3,.2-4.2-.8-4.5-.9-6.8a9.2,9.2,0,0,0-.3-2.9c-.8-2.8-1.9-5.6-2.8-8.4s-2.3-6.1-5.4-7.8l-2.3-1.4c-3.9-2.4-7.9-4.2-12.6-3.8a19.4,19.4,0,0,1-4.8-.3c-1.9-.4-3.7-1.5-5.6-1.8s-5-.8-7.5.7a16.3,16.3,0,0,1-9.7,2.6,23.4,23.4,0,0,1-9-2.2,3.9,3.9,0,0,0-2.8,0c-2.4,1.3-4.8,2.8-7.1,4.3s-2.6,3.3-3.1,5.4-1.1,4.5-1.5,6.7c-.1.5.4,1,.4,1.6a21.6,21.6,0,0,1,0,3.6c-.1.7-.6,1.4-.6,2,.2,4.6-1,9.2.9,13.6a2.9,2.9,0,0,1,.1,1.6c-.2,4,1.3,7.5,2.5,11.2a21.5,21.5,0,0,0,2.2,4.6c1.7,3,3.3,6.2,5.5,8.8,3.8,4.3,7.7,8.6,13.4,10.5l.7.4C367.7,282.3,370.7,283.7,375.5,283.5Zm-70.4-53.8a10.6,10.6,0,0,0,.1-1.5c.1-5.6.4-11.2-3.7-15.8a2.5,2.5,0,0,1-.4-.7c-.6-2-2.2-3.2-3.6-4.6a20.9,20.9,0,0,0-2.8-2.4c-1.8-1.4-3.8-2.1-6-1a7.2,7.2,0,0,1-2.2,1,12,12,0,0,1-4.2.2c-3.6-.8-7-2-10.8-1.7-2.3.1-4.7-.1-7,.2s-5.3,1.3-8,1.8a47.5,47.5,0,0,0-13.1,4.6c-1.8.9-3.9,2-4.8,3.6s-4.1,5.6-3.9,9.3a3.2,3.2,0,0,1-.6,1.5c-.8,1.4-.5,2.8,0,4.4s1.1,5,1.6,7.5a1.1,1.1,0,0,1,0,.8c-1.4,2.5-.2,5,.4,7.3,1.2,4.7,3.6,9.1,6,13.4s5,5.9,7.7,8.6,8.7,7.1,15,6.4a19.4,19.4,0,0,1,2.4.2h2.6a41.5,41.5,0,0,1,4.9-.3c2.9.2,5.5-1.3,8.4-1.5a2.3,2.3,0,0,0,1.2-.6l6.7-5.3c4.3-3.5,7.2-8.1,9.6-13.1s5.1-12.4,4.5-19.4Zm4-156.6c-2.6-1.6-2.9-2-4.5-4.7a4.4,4.4,0,0,0-1.4-1.3c-3.6-3-7.4-5.8-10.9-9-6.1-5.6-12-11.3-18-16.9a3.9,3.9,0,0,0-2.6-1,15.8,15.8,0,0,0-4.8,1.5c-6,2.4-12,4.7-17.8,7.3-1.8.7-4,.7-5.1,2.4l3.9,9.8a2.9,2.9,0,0,0,2.6,2,16.1,16.1,0,0,1,5.3,1.5c4.3,2.4,8.8,4.6,12.1,8.5s4.7,4.8,6.8,6.9c4.4,0,8.4-.9,12.5.7s7.5,3.2,10.6,6.3c1.9-2.8,3.3-5.4,5.1-7.7A73.6,73.6,0,0,1,309.1,73.1ZM35.3,131.2a33.7,33.7,0,0,0,3.7-.9c2.5-.9,4.8-1.9,7.3-2.7l17.4-6c1.4-.5,2.7-1.3,4.2-1.9s1-1,1.2-1.8c.3-2.9.8-5.7,1.3-8.5a63.4,63.4,0,0,1,3.5-12c1.2-3.1,2.5-6.1,3.8-9.1.5-1.4,1.2-2.6,1.6-4s-.5-2.1-1.8-1.7l-7.1,2.5c-3.3,1.3-6.7,2.6-9.4,5l-9.2,8.2a3.7,3.7,0,0,1-3.1,1.3,2.5,2.5,0,0,0-1.6.6,32.9,32.9,0,0,0-5.7,8.1c-3.1,6.2-4.4,13-6,19.6A11.5,11.5,0,0,0,35.3,131.2Zm149.3,174a7.3,7.3,0,0,0-1-1.3l-12-12.1L152.8,273l-18.1-18.1L107.8,228c-2.3-2.3-4.5-4.7-6.7-7l-3.3-3.9-3.9-4.5c-.9-1-1.6-2.2-3.5-2.8,2.5,6.9,6.2,12.7,9.8,18.4,14.1,22,31,41.5,51.9,57.3a193.9,193.9,0,0,0,31.5,19.8C183.8,305.4,184.1,305.3,184.6,305.2ZM337,222.4c.1-1.4.2-2.5.2-3.5a6.6,6.6,0,0,1,1.9-4.9c3.1-3,5.6-6.6,9.6-8.5,1.6-.8,1.7-1.2.7-2.7l-6.3-10.3a3.3,3.3,0,0,0-1.6-1.3l-6.8-1.4a5.4,5.4,0,0,1-2.5-.9l-5.4-3.8c-1.6,2.3-1.5,2.3-1.8,4.2s-1,5.7-3.1,7.8a33.4,33.4,0,0,1-4,3.5c-2.4,1.9-5.1,1.4-7.8,1.2a2.1,2.1,0,0,1-1.1-.7c-1.4-1.6-3-1.5-4.7-.7a4.3,4.3,0,0,1-4.1-.3l-3.7-2.6-1.8,2.8a19.2,19.2,0,0,0,2.7,1.5c1.5.6,3.1.9,4.6,1.5s1.7,1.1,1.8,1.8,1.8,3.2,2.9,4.7,4.3,4.9,3.9,8.6a5.2,5.2,0,0,0,.8,1.9,1.7,1.7,0,0,0,2.6,1,25,25,0,0,1,2.9-.5l4.1-.7c3.2-.5,6.5-.8,9.6.2Zm202.3,92.7-.7-.3-5.2,3.1a109.7,109.7,0,0,1-10.5,4.8c-6.4,2.8-12.4,6.2-18.6,9.3l-11,5.3-11.1,5.4c-3.6,1.7-7.1,3.7-10.6,5.4L455.2,356c-2.2,1.1-4,2.7-6.6,3.2s-3.8,1.8-5.6,2.8a3.1,3.1,0,0,0-1.2,3.4c.3,1.1,1.3,1.1,2.2,1,4.9-.4,9.7.6,14.6-.9,3.1-.9,6.4-1.4,9.5-2.5s6-3,7.7-6.2a36.2,36.2,0,0,1,8-10.6,28.3,28.3,0,0,1,5.1-3.4,40.6,40.6,0,0,1,8.4-4c2.2-.6,4.1-1.9,6.6-1.7a8.4,8.4,0,0,0,2-.5c4.1-1.1,8.2-.5,12.3-.4.2,0,.3.2.5.3l2.5.6c4,.4,7.7-1,11.2-2.8a7.9,7.9,0,0,0,3-2,61.8,61.8,0,0,0,3.7-6.1C537,322.5,538.4,318.8,539.3,315.1ZM423.2,373l-.5-.7c-.3,0-.7-.2-1-.1l-6.3,2.6-10.3,4.8-7,3-5.5,2.5c-3.3,1.6-6.6,3.4-9.9,4.9s-9.3,3.8-13.9,5.8c-2.2.9-4.4,1.7-6.6,2.8-4.8,2.3-9.6,4.9-14.4,7.2l-13.9,6.5-10.5,4.9-13.5,6.5-6.3,2.6L296,430a2.2,2.2,0,0,0,1.9.6l4.7-1.7c2.2-.6,4.4-1.2,6.6-1.6s5.2.5,7.6-1c.3-.2.7,0,1.1-.1a51.2,51.2,0,0,0,5.6-1.5c3.3-1.3,6.4-2.8,9.6-4.2a25.9,25.9,0,0,0,5-2.5c2.9-2.3,5.6-4.8,8.3-7.2s3.8-4.4,6.1-5.7,5.9-4,9.7-3.8l.8-.2a14.7,14.7,0,0,1,3.5-.8h15.7a9.7,9.7,0,0,0,2.4-.2l7.1-2c1.7-.5,3.5-.6,5-1.5a54.8,54.8,0,0,0,8-5.6,48.5,48.5,0,0,0,6.8-7.5c2.9-3.6,6.1-7.3,10.2-9.7ZM215.6,220.5l3.3,1.8a26.4,26.4,0,0,1,3.5,2.3c2,1.5,3.9,3.1,6,4.5a7.7,7.7,0,0,0,2.7.9c.1-1.2.2-2.1.2-3s-.1-3.6.1-5.3.6-3.8,1.6-5c2.4-2.8,4-6.4,7.7-8.1s5.8-3.5,9.1-4.4c1.7-.4,3.3-1.1,4.9-1.6-2.1-1.6-4-3.1-5.9-4.4a2.8,2.8,0,0,0-2.3-.4c-1.9,1.2-3.9.9-6,.9a8.3,8.3,0,0,1-6.2-3.2,11.3,11.3,0,0,1-1.3-3.2,4.1,4.1,0,0,0-3.5,1.6c-1.7,2.1-3.1,4.4-4.6,6.6-3.8,5.6-6.1,11.9-9,17.9A11.8,11.8,0,0,0,215.6,220.5Zm69.7-78.8a9.6,9.6,0,0,0-1-1.8l-9.6-9.7a2.8,2.8,0,0,0-3.2-.5c-1.7.8-3.3,1.5-4.9,2.4l-14.7,7.8c-1.8.9-2.2,1.8-1.3,3.6a82.1,82.1,0,0,0,4.8,8.1,67.5,67.5,0,0,0,4.8,6.1c1.5,1.6,1.7,1.6,3.7.5s2.4-1.9,3.6-2.7a57.9,57.9,0,0,0,10.7-8.5l1-.8Zm44.1,126.8c0-1.7,0-3.2-.1-4.7a4.7,4.7,0,0,0-.6-1.5c-1.3-3.2-4-5.2-6.6-7.2a7.2,7.2,0,0,0-6.2-1.2c-4.7,1.2-7.9,4.4-10.2,8.5-1.3,2.4-2.2,4.9-1.3,7.7a18.2,18.2,0,0,0,5,8.4c2.4,2.4,5.5,2.7,8.5,3.6s2.5-1.5,3.9-1.9l.2-.2c1.3-.8,2.6-1.5,3.9-2.4A8.6,8.6,0,0,0,329.4,268.5Zm77.4-123.1a4.2,4.2,0,0,0-2.5-4l-1.4-.8L389.1,131c-2.1-1.4-2.9-1.1-4.3,1s-2,2.7-3.1,4l-2.6,2.7a1.4,1.4,0,0,0,.1,2.3l4.5,3.3a70.4,70.4,0,0,1,10.8,8.8l3.2,3.3c3.6,3.6,4.1,3.5,6-1.3C404.9,151.9,405.8,148.7,406.8,145.4ZM244.8,323l5.9,1.9c3.1,1,6.2,2.1,9.6,2.1s6.1-.5,9,1c.5.3,1.2.1,1.8.1s3.8-.1,5.7,0a16,16,0,0,1,2.9.5,19.1,19.1,0,0,0,3.3.6h15.7c1.1,0,2.1.2,3.2.3a52.1,52.1,0,0,0,5.5.8c6.3.2,12.6.4,18.9.4,3.3,0,6.6-.2,9.9-.4a1.5,1.5,0,0,0,1-.3c1.3-.9,2.8-.6,4.2-.8l7.5-1.4c.1-.1.1-.3.3-.6s-1.5-.6-2.4-.6q-4.2-.2-8.4,0c-2.4.1-4.7.6-7.1.7a15.1,15.1,0,0,1-5.6,0,38.2,38.2,0,0,0-8.9-.7H305a6.4,6.4,0,0,1-2.4-.1c-2.9-1.4-5.8-1-8.8-1s-4.4.4-6.4-.2-6-.8-9.1-.9a16,16,0,0,1-2.3-.3l-4.2-.7L260.1,322c-.3,0-.7-.3-1-.4-3.5-.7-6.9-1.6-10.5-.2Zm.8-200.4c-.5,5.1,1.4,9.7,2.4,14.5.4,1.8,1.7,2.2,3.3,1.3s3.8-2.5,5.7-3.6c4-2.5,8.2-4.8,12.3-7.2,1.9-1.2,2-1.3.8-3.3a48,48,0,0,0-3-4.8,4.2,4.2,0,0,0-4.3-2.2c-1.2.1-2.5,0-3.7,0-3-.1-5.9.4-8.8-1-.8-.4-1.9-.1-2.9-.1s-1.7.7-1.8,1.9ZM421.4,241.7c.4-.2.7-.3.8-.5,2.8-4.1,7.4-6.2,10.7-9.8a10.5,10.5,0,0,1,1.1-.7l2.9-2.3a4,4,0,0,0,1.1-5.1c-.6-1.3-1.1-2.7-1.7-4a2.7,2.7,0,0,0-2.5-1.8,8,8,0,0,1-6.2-2.6c-.8-.9-1.6-.7-2.2.2s-.7,1.2-1.2,1.4c-2.6,1.3-5.2,3-8.3,1.3-.2-.1-.5.1-1.1.2,1.7,3.9,3.6,7.5,4.7,11.4S420.8,237.5,421.4,241.7ZM408.5,128.6h.4c-.4-4.2-.9-8.5-1.3-12.7-.1-1.4-.9-1.9-2.2-1.9h-11a2,2,0,0,0-2.1,1.6c-1.1,3.2-2.2,6.2-3.4,9.3a2,2,0,0,0,1.1,2.9l2.8,1.5,11.8,7.4c2.5,1.6,3.6,1.1,3.8-1.9S408.5,130.6,408.5,128.6Zm-154-14.7h6.4c2.1-.1,2.4-.6,1.5-2.5s-2.4-5.3-3.5-8.1a5.3,5.3,0,0,0-4.9-3.8,7.2,7.2,0,0,1-2.9-.6c-2.1-.8-2.6-.7-3.3,1.5s-.5,3.5-1.2,4.9-.9,4.2-.9,6.4.4,2.2,2.3,2.2Zm151.6-3.4a9.7,9.7,0,0,0-.4-1.9c-1.2-3.6-2.5-7.2-3.8-10.8s-2.6-5.1-7.2-2.8a4.1,4.1,0,0,0-1.1.7,2.2,2.2,0,0,0-1.1,2.8c1.3,3.3.6,6.7.8,10.1,0,.7.1,1.5.1,1.9Zm38.1,97.2a17.5,17.5,0,0,1-2.3,7h-.5c-2.6.1-3.1.9-1.7,3s1.9,2.4,2.8,3.7,1.6,1.9,3.7.9,5.3-3.1,8.6-2.8l.6-.6ZM384.8,79.9l4.7,7.8c.6,1.2.9,2.5,1.5,3.7s2.4,2,4.5.7,2.3-2.4.9-4.1a44.2,44.2,0,0,0-5.3-5.3A16,16,0,0,0,384.8,79.9ZM255.4,84.2l-.6-.2a9.1,9.1,0,0,0-3.1,6.2,13.2,13.2,0,0,1-.8,3.3c-1,2.6-.1,3.8,2.7,3.8h.8c1.9-.2,2.6-.9,2-2.6s-.7-5.1-.8-7.7C255.5,86.1,255.5,85.1,255.4,84.2ZM411.2,342.7c-.2.7-.4,1-.4,1.2,1.2,3.8,2.3,7.7,3.5,11.5.1.3.8.6,1.1.6a1.5,1.5,0,0,0,.7-1l.9-6.4a1.9,1.9,0,0,0,0-1.3A9.4,9.4,0,0,0,411.2,342.7ZM252.2,82.6l4.9-6.2c-1.8-2.6-4.6-5.3-6.5-6ZM422.1,360.9c3.1-.3,5.1-1.6,7.4-3.1-1.1-2.6-3-4.4-4.8-6.7-.6,1.9-1.1,3.4-1.5,5S422.5,359.1,422.1,360.9ZM266.8,82.7a7.7,7.7,0,0,0-5.8-2.8c.1,2-.4,3.8.4,5.7C263.6,85.5,264.9,83.9,266.8,82.7ZM434.1,348.1l-.7.7,3,4.5a1.3,1.3,0,0,0,2.1.4,1.3,1.3,0,0,0-.1-2.1ZM266.4,385.3c.1-2.7-1.3-4.2-2.6-6.1-1.6,2.5-1.7,3-.6,3.9ZM407.9,211.4c.7-2,.6-3-.5-3.4a1.9,1.9,0,0,0-1.6.3c-.2.1-.1,1,.2,1.4A16.2,16.2,0,0,0,407.9,211.4Zm-42.4-6.5v-.2h-2.9v.2ZM295.3,431.5v-.7l-1.5.2v.5Z"/><path d="M59.3,196.3a17.9,17.9,0,0,1-2.3-2.5c-2.9-3.9-5.6-8-8.6-11.9-1.8-2.4-4-4.5-6-6.8l-4.9-6.6L30,158.3l-.8-1.3a7.1,7.1,0,0,0-5-3.9v-2.7l1.2.6c3.3,3.3,6.6,6.6,9.1,10.7a56.6,56.6,0,0,0,6.1,7.8c3.8,4.6,7.9,9,11.6,13.7S58.5,190.9,59.3,196.3Z"/><path d="M160.8,302.3a4.4,4.4,0,0,1,1.5.8l6.2,5.9c4,4,8.1,8,12,12,1.4,1.5,2.5,3.3,3.9,4.8s4,3.9,5.9,6,6.1,6.7,9.2,10.1c.2.2.2.7,0,1.4l-4-3.6-4.6-4.6c-4.9-5.1-9.7-10.3-14.3-15.6s-8.4-8.8-12.6-13.2l-2.8-2.5a4.7,4.7,0,0,1-.7-1.2Z"/><path d="M281.1,352.1c-.6-.2-1.4-.1-1.8-.5-2.5-2.5-6.1-3.9-7.7-7.4-.2-.6-.9-1-1.4-1.5l-6.1-7.4c1.5-.3,2,.7,2.7,1.3l9.7,9.6,3.4,3.4,1.6,2Z"/><path d="M319.9,398.9l-.7-.8c-2.2-3.1-4.3-6.3-6.5-9.3s-3.7-4.4-5.5-6.6-1.6-2.5-2.6-4.1c2.6,1,11.9,12.1,14.6,17.4C319.6,396.4,321.1,397.3,319.9,398.9Z"/><path d="M352.6,355.7c1.5-.6,1.7.4,2.1,1s2.7,4.2,4.1,6.2c3,4.4,6.2,8.7,9.2,13.1a1.8,1.8,0,0,1,.5,1.4,3.9,3.9,0,0,1-1.1-.6,53.3,53.3,0,0,1-7.7-10c-1.9-3.2-4-6.3-6-9.4Z"/><path d="M365.5,204.9h-2.9v-.2h2.9Z"/><path d="M304,291.4l4.2,4.5a8.9,8.9,0,0,0,6.3,3.1,11.5,11.5,0,0,1,1.7.6c2.3.8,3.1.4,4.8-1.4s3.2-2.3,4.7-3.5a10.7,10.7,0,0,0,2.7-2.5c.6-.7,1.2-1.2,2-.8a2.6,2.6,0,0,1,1.1,1.6,6.6,6.6,0,0,1-1.9,5.2c-2,2.2-4.2,4.1-7.5,4.2a4.4,4.4,0,0,0-1.5.5,7.8,7.8,0,0,1-2.1.4c-4.7-.9-9.5-1.8-12.9-5.6a17,17,0,0,1-2.4-3.9C302.8,293,302.9,292.9,304,291.4Z"/><path d="M467.1,285.2c2.8,1.5,4.4,3.8,6.2,5.9s4.2,4.2,7.1,5,1.9.3,2.1-1.3a13.2,13.2,0,0,0-1.1-7.1c-3.1-7.1-5.9-14.3-9.7-21.1a106.7,106.7,0,0,0-6.4-9.6c-1.8-2.8-4.2-5-6-7.8a4.2,4.2,0,0,1-.8-2.8,3.5,3.5,0,0,1,1,.8c3,3.5,6.2,6.9,9,10.6a68.9,68.9,0,0,1,5.7,8.4c2.7,4.7,5.3,9.5,7.6,14.4,1.4,2.9,2.2,6.1,3.4,9a12.9,12.9,0,0,1,.9,5.8,3.9,3.9,0,0,1-3.8,4,10,10,0,0,1-7.3-2,31.6,31.6,0,0,1-7.7-8.2C466.6,288,466.1,286.8,467.1,285.2Z"/><path d="M480,326.3c-2.7-1.6-4.1-4.4-5.7-6.9s-4.2-6-6.3-9l-7-9.8c-1.5-2.1-3.2-4.1-4.5-6.3a15.3,15.3,0,0,1-1.7-13.3,10.2,10.2,0,0,1,5.3-5.9,1.8,1.8,0,0,1,2.5.8,7.4,7.4,0,0,0-4.5,3.4c-1.9,2.9-1.5,6.2-.9,9.3s3.2,7.1,5.6,10.3,6,8.6,9.4,12.6,4.2,6.2,6.2,9.4a37.5,37.5,0,0,1,2.1,5Z"/><path d="M516.9,305.5l-.7-.6c.1-.1.3-.4.4-.4a.7.7,0,0,1,.6.3C517.3,304.9,517.1,305.2,516.9,305.5Z"/><path d="M345.7,239.5c.1-6,2.3-11.2,5.1-16.1a18.7,18.7,0,0,1,3.6-4.3c3-2.8,6.1-5.6,10.1-7s6.8-2.6,10.5-2.3h.6c2.6-1.1,5.3-.3,7.8,0a20,20,0,0,1,10.7,4.7,38.5,38.5,0,0,1,8.3,9.2,28.7,28.7,0,0,1,3,8.5,37.8,37.8,0,0,1,1.1,7.4c.1,3.1-1.1,5.8-1.7,8.6a14.2,14.2,0,0,1-1.6,4.5c-2.3,4.9-9.1,11.6-14.1,13.6-2.1.9-4.5,1.1-6.6,2a21.1,21.1,0,0,1-6,1.1c-3.8.1-7.2-1-10.7-2.3a31.1,31.1,0,0,1-13.7-10c-2.5-3.2-4.7-6.6-5.2-10.8C346.6,244,346.1,241.7,345.7,239.5Zm54.5,10.1h.6a7.8,7.8,0,0,0,1.1-2c.7-3.1,1.6-6.2,1.4-9.5a52.2,52.2,0,0,0-1.1-5.7A19.6,19.6,0,0,0,398,223c-4.9-6.3-11.3-10.3-19.5-11a3.5,3.5,0,0,1-1.7-.6,2.9,2.9,0,0,0-3.5.1,7.3,7.3,0,0,1-2,.5l-2.4.6a22.6,22.6,0,0,0-7.3,3.6,27.2,27.2,0,0,0-7.5,7.2,27.6,27.6,0,0,0-4.8,18.9c.1,1.1.2,2.1,1.5,2.7a3.7,3.7,0,0,0,.4-1.1c.7-4.4,1.9-8.6,4.6-12.2a26,26,0,0,1,6.3-6.1c3.3-2.1,6.6-4.4,10.9-3.8a1.1,1.1,0,0,0,.8-.1c4.4-1.8,8.4-.6,12.4,1.1s5.7,3.7,8.1,6.1a20.7,20.7,0,0,1,5.6,13.3c.1,1.6,0,3.3,0,4.9Zm-12.1-12.1a8.3,8.3,0,0,0-3.3-6.9,7.8,7.8,0,0,0-4.3-1.8c-4.2-.1-6.9,4.6-5.4,8.5s3.5,4.2,6.2,5.2,4.9.1,5.9-1.7A17.8,17.8,0,0,0,388.1,237.5Z"/><path d="M269,264.9h-1.8c-5.9.3-10.7-2.3-14.9-6.1a30.6,30.6,0,0,1-6.9-8.3,50.8,50.8,0,0,1-2.9-7.7,9.5,9.5,0,0,0-.5-1.8c-1.2-2.2-.8-4.6-.5-6.8s1.2-4.3,1.7-6.5c1.2-4.4,4-7.7,7-10.9s8.9-6.2,14.1-8h1.6a4.9,4.9,0,0,0,2.1-.1c2.7-1.2,5.2-.5,8-.1s5.6,1.6,8.2,2.9a19.8,19.8,0,0,1,5.4,3.4,30.5,30.5,0,0,1,4.5,5.7,26.8,26.8,0,0,1,4.5,14.1,29.8,29.8,0,0,1-4.6,17.3,30.7,30.7,0,0,1-4.1,4.7c-3.6,3.7-8,5.8-12.9,7.3A27.9,27.9,0,0,1,269,264.9Zm-23.9-28.2h.4l1.4-2.8c1.9-4.1,4.3-7.8,8.4-10.5a21.5,21.5,0,0,1,12.3-3.8H270l9.2,1.2,1,.5c4.9,3.1,8.7,7.1,10.6,12.7l.6,2.4a18.6,18.6,0,0,1-.1,10.7,12.1,12.1,0,0,0-.1,1.9l.6.2a18,18,0,0,0,3.4-8.8,29.1,29.1,0,0,0-1-11.7c-2.3-6.8-6.3-12.1-12.7-15.2-3.6-1.8-7.5-3.5-11.8-2.9h-1.3c-4.6-.6-8.3,1.8-11.7,4.1a29,29,0,0,0-8.8,9.9c-1.8,3.3-2.1,6.8-3.1,10.2A2.6,2.6,0,0,0,245.1,236.7Zm31.3,3.9c4.2,0,5.5-1.3,5.6-5.4v-.8c-.1-4.4-2.7-7-7-7h-1.6c-2.5.2-5.9,3-6.4,5.4a2.7,2.7,0,0,0,.3,1.8C269.6,237.8,271.8,241.1,276.4,240.6Z"/><path d="M279.8,53.6l-1.6.9c.6,3.1,3.6,4.5,5.1,7s3.3,4.5,4.8,6.9c-1.8-.4-2.7-1.8-3.7-3.1s-4.1-5.2-6.2-7.7l-2.5-3.5a1.3,1.3,0,0,1,.1-1.2,1.4,1.4,0,0,1,1.1-.2C277.9,52.9,278.8,53.3,279.8,53.6Z"/><path class="cls-1" d="M388.1,237.5a17.8,17.8,0,0,1-.9,3.3c-1,1.8-3.4,2.6-5.9,1.7s-5-2.4-6.2-5.2,1.2-8.6,5.4-8.5a7.8,7.8,0,0,1,4.3,1.8A8.3,8.3,0,0,1,388.1,237.5Z"/><path class="cls-1" d="M276.4,240.6c-4.6.5-6.8-2.8-9.1-6a2.7,2.7,0,0,1-.3-1.8c.5-2.4,3.9-5.2,6.4-5.4H275c4.3,0,6.9,2.6,7,7v.8C281.9,239.3,280.6,240.6,276.4,240.6Z"/></svg>