<svg id="Layer_1" data-name="Layer 1" xmlns="http://www.w3.org/2000/svg" viewBox="0 0 451.1 564"><defs><style>.cls-1{fill:#fff;}</style></defs><path d="M95.1,307.4c5.1-2.4,8.6-6.1,9.7-11.8l.6-2.7a8,8,0,0,0-.5-4.8,95.3,95.3,0,0,1-6.6-19.5c-1-5-2.1-9.9-2-15v-8.5a66.3,66.3,0,0,1,4.2-22.9,59.6,59.6,0,0,1,15-23.3c1.9-1.8,4.1-3.3,6.2-5s3.2-1.7,3.7-3.7a1.7,1.7,0,0,1,1-1,2.3,2.3,0,0,1,1.8-.3c.3.1.6.9.6,1.4a4.7,4.7,0,0,1-.3,1.7c-1.4,5.5-3.1,11-4.1,16.6a85.3,85.3,0,0,0-.9,16.8c.3,8,1.2,15.9,4.1,23.4,1.5,3.9,3.5,7.6,5.3,11.4l17.4-3.5c.6-.1,1.1-.7,1.9-1.2l-7.8-11.3a8.7,8.7,0,0,1-.9-1.1c-1.3-2.6-3.3-3.8-6.2-3.3s-3.3-1.1-4.1-2.6a4.1,4.1,0,0,1,.6-4.8,3.7,3.7,0,0,1,1.5-1.3c2.9-.9,3.6-3.3,4.4-5.8,3-10.5,6.1-21,9.3-31.4l13.2-42.3c1.1-3.4,2.3-6.8,3.4-10.1h.6c-.4,1.6-.7,3.3-1.2,4.9-3,10.7-5.9,21.3-9,32l-12.1,41.2c-.8,2.7-1.7,5.3-2.4,7.9a5.1,5.1,0,0,0,0,3c.6,1.4,1.7,1.7,3.4,1.3l20.6-5.8,16.2-4.2,28.7-7.9,11.1-2.9a5.6,5.6,0,0,0,4.2-6.8,55.2,55.2,0,0,1-1.1-7.1c-1.8-13.3-3.5-26.7-5.2-40.1l-3-22.9c-.7-6.1-1.5-12.2-2.2-18.4-.5-4.1-.9-8.2-1.5-12.3s-1.3-9-1.6-13.5-.9-6.9-1.4-10.4v-.8c-.3-4-.5-8-.9-11.9s-1.1-9.6-1.7-14.6c-3.3-.9-6.9-1.7-9.5-5.1C148.1,83.6,98.7,120.1,49,156.1l-.4-.5a4.8,4.8,0,0,1,.9-1.1l27.8-21,25.9-19.1,49.7-37,22.5-16.6,20-14.7a5.1,5.1,0,0,0,1.9-3,41.8,41.8,0,0,1,2.8-5.6A284,284,0,0,1,179,10.4c8.2,8.3,16.3,16.7,23.6,26.1l2.2-1.2a7.8,7.8,0,0,1,10.9,4c.5,1.4,1.2,2.7.9,4.4s.6,2,1,3.2l-1.8,1a7.5,7.5,0,0,0,1.1,1.3l20.3,19.7a260.5,260.5,0,0,1,22.7,25.4,3.4,3.4,0,0,0,4.3,1,4.8,4.8,0,0,1,5.3.7,8,8,0,0,1,2.7,5.8,7.7,7.7,0,0,1-3.7,7.3c-5,3.2-8.5,2.5-12.9-.7-2.5-1.8-2.8-5.9-.9-8.6.8-1.2,2-2.2,3-3.4-7.8-7.4-15.6-14.7-22.6-22.7l-20.8-24L209,52.2l2.1,11.7c.3,2.3.5,4.7.8,7s.5,3.7.9,5.6c.6,4.2,1.4,8.4,2,12.5.4,2.2.6,4.4.9,6.5,1.3,9.8,2.5,19.6,3.8,29.4l2.7,21.8c.9,7.3,1.9,14.5,2.8,21.8.4,3.1.7,6.2,1,9.3s.9,6.2,1.3,9.3.7,5.4,1,8.1.6,6.6,1,10.1a6.3,6.3,0,0,1,5.6,2.2c1.6,1.8,3.6,1,5.4,1s4.1-.4,6.2-.6l14.5-1.4,6-.2c-1.5-5.7-2.1-11.3-5.3-16a7.5,7.5,0,0,1-.7-1.2,2.4,2.4,0,0,1,.5-2.9,2.4,2.4,0,0,1,2.9-.5l7.6,3.7c4.9,2.3,8.3,6.3,11.3,10.7l3.1,4.5,5.8-.5c4.7-.3,9.5-.2,14.2-.9,2.9-.5,5.9-.2,8.7-.7s8.1-.2,11.9-.9,6.5-.4,9.7-.6l9.3-.8c.5-.1,1.3-.6,1.4-1.1,1.5-5.5,5.4-8.6,10.4-10.6a.9.9,0,0,0,.5-.3l.3-.5c1.1-14.1.9-28.3.8-42.5-1.4-6-.4-12.1-.9-18.3-1.5-.5-3.1-.8-4.6-1.4a10.8,10.8,0,0,1-6.1-5.2c-2.5-5.3,1.2-12.4,7.6-13.9,2.8-.6,2.7-.6,2-3.4-1.4-5.6-2.7-11.3-4-17-1.7-7.3-3.3-14.7-5-22-.9-4-2.1-7.9-2.9-11.9a3.4,3.4,0,0,0-2.8-3c-2.4-.8-4.7-1.8-5.8-4.3s-1.5-5.7.4-8.4a31.5,31.5,0,0,1,2.2-2.9,8.8,8.8,0,0,1,9.3-2.1,8.3,8.3,0,0,1,5.2,7.5,19.1,19.1,0,0,1-.2,4.8,10.1,10.1,0,0,1-2.5,3.7,3.5,3.5,0,0,0-1.1,3.1c.6,3.7,1.1,7.3,1.8,11s1.3,7,2,10.6,1.5,7.9,2.1,11.9,1.2,7.2,1.8,10.9,1.3,7.4,1.9,11.2a1.1,1.1,0,0,0,.6.3c4.8.7,7.5,3.8,7.8,8.7s-1.1,7.9-4.9,10.2c-1.1.6-2.3.9-3.2,1.3v5.2a94.9,94.9,0,0,0,1.4,15.9c.7,5.2.8,10.6,1,15.9s-.1,9.7,0,14.6c.1,2.8.5,5.6.8,8.6a12.8,12.8,0,0,1,8.6,3.7c.9.8,1.6.2,2.5-.3,5.1-3.5,10.2-7,15.4-10.4L424,157c3.5-2.4,6.7-5.3,10.1-7.9s10.3-3.5,14.1.7c5.4,5.8,2.7,13.3-3.4,15.8s-12.2,1-15.6-4.2l-.7-1c-9.4,5.1-18.3,10.8-27.3,16.1l-27.4,16.2.8,2.1c1.8,5.6,2.1,11.1-1.9,16.1a13.3,13.3,0,0,1-13.3,4.6c-2.9-.8-2.9-.7-4.6,1.9-5.7,8.7-11.5,17.4-17.3,26.1S327.9,258,323,265.1l-13.1,18a3,3,0,0,0-.5,1c.7.6,1.4,1.4,2.2,2,3.2,2.2,6.4,4.4,9.7,6.4a36.7,36.7,0,0,1,15.2,19.3,20.4,20.4,0,0,1-.3,14.6c1.8,1.2,3.4,2.4,5.2,3.4s3.7,1.8,5.6,2.7a21.9,21.9,0,0,1,8.8,7.4c2.2-.6,4.3-1.3,6.4-1.7a20.1,20.1,0,0,1,4.9.2c3.3.4,5.1,2.1,5.5,5.4a2.5,2.5,0,0,0,1.9,2.3c3.4.8,4.8,3.4,5.7,6.5a6.5,6.5,0,0,0,.4,1.3c1.9,3.8.6,7-1.9,9.9-.5.7-1.3,1.4-1.3,2.1.1,2.9-1.6,4.8-3.3,6.7a3.2,3.2,0,0,0-.6,3.6c.4,1.5,1.7,1,2.8,1.3a31.3,31.3,0,0,1,6,1.6,8.2,8.2,0,0,1,5.3,8.4c-.2,2.7-.7,5.4-1.1,8.1-.1.4-.5.8-1.3,1.1V393c0-1.5.1-3.1,0-4.6a7.6,7.6,0,0,0-6.5-6.6l-3.2-.6c-.2.4-.5.7-.4.9.4,2.4,1,4.8,1.5,7.2a56.9,56.9,0,0,1,1.3,8.1,118.5,118.5,0,0,1,0,14.6,93.9,93.9,0,0,1-1.6,11.7c-.5,3-1.5,5.9-2,8.8s-2.3,8.2-4,12.1c-2.8,5.8-6,11.5-8.6,17.4s-7.1,10-10.3,15.3-9.7,11.2-15,16.3a47.4,47.4,0,0,1-5.2,4.2l3.5,2c4.8,2.3,8.3,6.1,11.7,10a167.1,167.1,0,0,1,10.2,13.3c3.4,4.8,6.8,9.7,9,15.4,1.1,2.9,2.5,5.6,3.8,8.5a6.9,6.9,0,0,1,.5,1.3c.8,2.1.6,4.2-.4,4.8a5.5,5.5,0,0,1-6.1-1.6c-1.3-1.9-2.3-4-3.5-5.9-4.1-6.2-8.2-12.5-12.5-18.6-2.8-3.8-6.1-7.3-9.2-10.8s-6.8-7.4-10.3-11.1-2.6-2.7-5.8-.8c-6.3,3.7-13.3,5.4-20.3,7.1-4.2,1-8.5,1.5-12.8,2.4s-7.8,1.8-12.1,2.8a9.2,9.2,0,0,0,1.4,1.1A59.4,59.4,0,0,1,295,531.3a55.6,55.6,0,0,1,6.4,9.4c2.5,4.3,4.8,8.8,7.1,13.3a3.5,3.5,0,0,1-.4,4.4c-1.7,1.9-4,1.7-5.4-.5l-7.4-11.8a115,115,0,0,0-18.8-21.7c-2.5-2.4-5.4-4.3-7.8-6.3-8.1.7-16,1.1-23.8,1.9-5.2.5-10.4,1.5-15.6,2s-8.4.3-12.5.4c-.6.1-1.2-.1-1.7.2l-8.7,4c-.3.1-.5.3-.8.3-4.4.5-8.9,1.6-13.3,1.4-10.2-.3-19.5-3.5-27-11a25.1,25.1,0,0,1-3.5-4.4,4.6,4.6,0,0,0-4-2.3h-.6c-4.8-.2-9.6-.3-14.4-.8s-6.9-1.1-10.4-1.6c-2-.4-4.1-.9-6.1-1.1a4.6,4.6,0,0,0-2.5.6,122.7,122.7,0,0,0-17.2,11.5,119.3,119.3,0,0,0-13.5,13.1,93.4,93.4,0,0,0-10,13.4c-3.5,5.5-6.5,11.4-9.8,17-.8,1.5-.8,1.5-2.4,1,1.5-9.3,5.5-17.4,10.7-25.1,2-3,4.3-5.8,6.6-8.6s4.2-4.9,6.4-7.2c6-6.3,13-11.4,20.3-16.1l1.3-.9-4.9-1.4c-6.9-1.5-13.8-2.8-20.6-4.6a94.9,94.9,0,0,1-11.2-4.2c-2.8-1.1-5.5-2.4-8.6-3.8a31.4,31.4,0,0,0-3.5,2.4c-5.2,5-10.5,10-15.3,15.4A119.3,119.3,0,0,0,37.3,530c-2.9,5.3-5.6,10.7-8.4,16-.5.9-.6,1.8-1,2.7a9.5,9.5,0,0,1-1.7,2.7c-.3-5.2,7.8-22.8,15.5-33.8s15-20.1,25.1-28.2c-2.3-1.9-4.4-3.4-6.2-5.2-3.3-3.1-6.4-6.3-9.6-9.5s-4-5.3-7.2-6.7a1.3,1.3,0,0,1-.7-.8c.1-2.2-1.6-3.4-2.7-4.9-3.7-5.4-6.8-11-8.4-17.3-.9-3.4-2.1-6.7-3-10.1a10.1,10.1,0,0,1-.2-2.5c0-6.6-.3-13.2,0-19.7a58.5,58.5,0,0,1,2-11.7c1.2-5.1,2.9-10.2,4.4-15.3.3-1,.5-2.2.7-2.9l-3.6-5c-1.2-1.7-4.5-2-6.5-.3a19.5,19.5,0,0,0-3.5,4.1c-1.2,2-2.6,3.5-5.2,3.8a5.4,5.4,0,0,1-.2-6.1,14,14,0,0,1,6-6.3c.4-.2.7-.6,1.2-.9a10.3,10.3,0,0,1-.4-1.4c-.9-5.4-.4-8.5,5.6-12.2,1.2-.8,2.6-1.5,3.9-2.2-1.4-5.1,1.7-8.3,4.9-11.1a13,13,0,0,1,12.3-3,5.2,5.2,0,0,0,5.1-1.4,115.1,115.1,0,0,1,10-8.5,63,63,0,0,1,8.4-4.8c3-1.4,6.1-2.7,9.2-3.9a3.2,3.2,0,0,0,2.2-2.7,18.2,18.2,0,0,1,9.3-13c.2-.1.3-.4.5-.6Zm-7.8,56.4c-2-1.2-3.7-3-6.3-3.9,0,.7-.1,1.2,0,1.3,2,1.2,3.8,2.8,6.4,2.6.2.3.3.7.6.8a90.7,90.7,0,0,0,8.7,3.2c5.8,1.7,11.7,3.1,17.6,4.5,2.6.6,5.3.9,8.4,1.4-.3-2.6.4-5-.5-7.2-4,1.1-7.4-.1-10.9-1.4s-6.1-4.4-7.6-7.9c-1.8-.5-3.3,1.3-5.6.3a46.3,46.3,0,0,1,4.7-1.9c1.9-.5,2.6-.1,3.6,1.7s3,4.7,5.9,5.4a19.8,19.8,0,0,0,11.8-.3c1.9-.6,2.3-1.2,1.6-3.2a7.7,7.7,0,0,1-.1-5.2,29.7,29.7,0,0,1,5.3-10.1c2.9-3.5,4.7-7.2,4.3-11.9-.1-2.4.2-4.7.3-7.3l-3.1-1.6c-2.5-1.1-4.8-2.3-5.5-5.3a1.6,1.6,0,0,0-.7-.9,35.1,35.1,0,0,1-7.4-7.5c-2.5-3.5-5.1-6.8-7.7-10.2a20.9,20.9,0,0,0-1.4-1.7,7.9,7.9,0,0,0-3.9,8.9c.6,2.1,1.2,4.2,1.7,6.3s.6,2.7-.1,4.2c-2.9-2.8-3-6.6-4.6-9.8-5.2,1.1-9.7,3-11.2,8.7a16.2,16.2,0,0,0-.7,4.4,26.2,26.2,0,0,0,.9,5.6c1.1,3.8,4.5,5.4,7.6,7.4-1.7,1.2-1.7,1.2-2.8.8a12,12,0,0,1-5.9-4.3l-4.1-5.8c-1.2,2.1-2.5,4-3.5,6.1a33.7,33.7,0,0,0-1.5,5c-1.8.7-2.4,2.7-2.4,5a5.9,5.9,0,0,1-.2,1.4c-1,2.7.6,5.3.4,7.9a1.5,1.5,0,0,0,.8,1.1c2.1,1,3.2,2.9,4.7,4.6s4.5,3.8,7.8,2.6a1.7,1.7,0,0,1,1,.1c.1,1.8-.2,2.5-1.9,4.5S89.3,364.5,87.3,363.8Zm106-86.9c-.6,1.8-2,1.7-3.3,1.6a25.5,25.5,0,0,0-10.9,2.1c-4.2,1.7-8.3,3.8-12.4,5.8-1,.5-2,1.2-3,1.8l.2.7h4.2c2.8.2,5.7.5,8,2.4s1.5.5,2.4.1a34.3,34.3,0,0,1,4.5-1.6c2.2-.5,4,.1,6,1.8l-5.7,2.4a24.7,24.7,0,0,1-4.6,1.5c-2.4.5-3.5,2.1-4.1,4.3a41.5,41.5,0,0,1-1.8,5.3c-3.2-2.4-2.7-5.7,1.5-12.3-4.9-1.6-9.6-2.5-14.7-1.1-3,.9-6.3,4-6.6,7.1s-.5,6.4-.7,9.6a8.6,8.6,0,0,1-.4,2.8c-1.4,2.1-1.3,4.2-.5,6.5s.9,2.7,1.3,4.1.8,2.3-.4,3.6c-1.9-2.7-2.9-5.7-4.4-8.5-2.5,1.7-5,3.4-6.7,6a6.2,6.2,0,0,0-1.4,3.1,16.9,16.9,0,0,0,1.9,10.1c1,1.7,2.2,3.2,3.5,5a3.4,3.4,0,0,1-1.7.1c-3-1.3-5.5-.3-7.8,1.7-4.4,3.6-6.1,8.5-6.4,13.9s.3,5.2,4.4,6.5a30.7,30.7,0,0,0,16.2.9,10.8,10.8,0,0,1,2.6,0,23,23,0,0,1-2.5,2.3,12.6,12.6,0,0,1-6.6,2.1H130.8a11.4,11.4,0,0,0-2.6.2c-2,.5-2.6,1.6-2.4,3.9s.6,1.8,2.8,2.1c4.2.7,8.5,1.3,12.7,1.8,7.3.8,14.6,1.6,21.9,2.1,3.7.3,7.4,0,11.1,0a1.5,1.5,0,0,0,.7-.3c-.1-1.7-.3-3.3-.5-4.9l-2.7-1.5-2.9-1.7c-1.7,6-1.9,6.3-3.8,6.9.2-2.9.6-5.8.6-8.7s-1.3-5.5-1.1-8.4c1.9,2.1,2.6,4.6,3.4,7.1a3.5,3.5,0,0,0,1.3,2c5.9,2.3,11.7,4.3,18.2,3.5a47.2,47.2,0,0,0,16.1-4.5c.8-.4,1.6-1.4,3-.6-.3.5-.4,1.1-.8,1.4a22.4,22.4,0,0,1-5.1,3.6,35.2,35.2,0,0,1-19.2,3l-3.2-.4c.2,1.2.3,2.2.5,3.3l1.7.2c15.2,0,30.4.1,45.5,0,2.6,0,5.1-.7,6.8-3a38.5,38.5,0,0,1,3-2.7,4.2,4.2,0,0,0,1.8-3.6c0-1.2.1-2.3,0-3.4-.3-4.1.9-6.4,4.7-7.9a52.2,52.2,0,0,1,7.9-2.6,2.6,2.6,0,0,1,3.3,1.1,23.4,23.4,0,0,0,10.8,7.8,7.7,7.7,0,0,0,7.5-.9,36.8,36.8,0,0,0,3.7-3.2c1.3-1.2,2.4-2.6,4.8-3-.2.9-.1,1.6-.5,2.2a18.8,18.8,0,0,1-9.9,8.9,6.7,6.7,0,0,1-4.1.6,21.4,21.4,0,0,1-12-8.2c-2.5-3.4-2.5-3.3-6.5-1.9-1.8.6-3.5,1.2-4.3,3a27,27,0,0,0-.8,3.9c-.7,4.2-1.8,8.2-6.1,10.3l-2.1,1.7a21.3,21.3,0,0,0,2.2.1c5.3-.4,10.6-.6,15.9-1.2,7.6-.8,15.1-1.9,22.7-2.9a6.1,6.1,0,0,0,5-3.3,28,28,0,0,1,2.5-3.5,53.8,53.8,0,0,0,8.3-17c1.1-3.5,2.1-7,3.1-10.6l.7.2a87.6,87.6,0,0,1-2.4,16.5,7.1,7.1,0,0,0,2.1-.5l8.2-4.6a12.4,12.4,0,0,0,5.9-7.7,14.5,14.5,0,0,1,.9-2.2c1.1,3.8-.3,6.8-2.6,9.4a32.9,32.9,0,0,1-11.7,8.6c-3.3,1.4-5.7,3.1-6.9,6.5-.2.6-.9,1.1-1.2,1.6l-3,4.4h2.9l4.5-.8,19-4.6a65.9,65.9,0,0,0,6.7-2.2c.4-2.5.6-4.5.9-6.5-2.8-1-5.9,1.3-8.9-.8.7-.6,1.1-1.1,1.5-1.2a31,31,0,0,1,4.2-.8c2.1-.3,4.2,0,6.1-1.2l3.4-2.1c1.7-1,2-1.7,1.6-3.8a24.5,24.5,0,0,1-1.2-8.1,9.2,9.2,0,0,0-.3-.9c-3.4.7-6.8,2.6-10.2,0a4,4,0,0,1,2.3-1.2c3,.1,5.4-1.4,8-2.7,4.4-2.2,5.9-5.7,6.1-10.4s-1.7-11.1-4.8-15.9a29.9,29.9,0,0,0-5.4-6.9,135,135,0,0,0-12-9.1,22.1,22.1,0,0,1-7.8-10.3,23.7,23.7,0,0,1-1.6-7.9c-1.7,5.5-2.7,11.1-4.6,16.4s-4.5,10.4-6.8,15.7c2,1.9,2,1.9,2.1,3.9a7,7,0,0,1-2.5.1c-2.9-.6-6-1-8.6-2.8a10.7,10.7,0,0,0-7.6-1.7c-1,.1-2,.6-3,.6-4.1.2-6.8,2.8-9.2,5.7a35.8,35.8,0,0,1-2.6,2.9l-3.5-1.4v6.9l2.4-.6c-.5,1-.6,1.8-1.1,2.3-2.2,2.5-4.6,4.9-7.8,6s-4.8,1.1-7.1,1.8-10.4-.1-13.3-2.2a4.8,4.8,0,0,1-1.1-.9,2,2,0,0,1-.1-3c8.4,5.1,16.5,3.1,24.7-.4-1.2-5,1-9.3,2.2-13.8a19.2,19.2,0,0,1-2.1-1.6,40,40,0,0,1-4-4.3c-1-1.3-1.4-3.2-3.4-3.4a26.2,26.2,0,0,1,5.9-9.6,4.9,4.9,0,0,0,.2-7.3,22.6,22.6,0,0,0-3.5-2.8,52.6,52.6,0,0,0-19.8-7.6,24.7,24.7,0,0,1-2.9-1c3.7-2.5,7.5.5,11.2-.7l.3-7.5c1.9.2,2,1.4,2.3,2.5a28.4,28.4,0,0,1,.6,3.1c.1,1.1.2,2.2.2,3l14.3,7.6a17.1,17.1,0,0,0,4-5.9c-2.8-.6-5.6.3-8.2-.6v-.7l8.5-2.1c0-1.9,0-3.4-.1-4.9s-.9-4.9-3.5-6.2c-1-.5-2-1.4-3-2-3-1.9-6.1-3.2-9.6-1.9-.4.1-.9.3-1.1.1s-2.7-.1-3.8.3c-3.4,1.4-6.7,3.2-10,4.8l-1.9.7-.3-.6,5.6-3.8a17.6,17.6,0,0,0-2-.9,2.2,2.2,0,0,0-1.6.1,50.5,50.5,0,0,0-6,4.3,27.2,27.2,0,0,1-9.9,6,11.2,11.2,0,0,0-1.5,1.1c7.2,2.5,7.2,2.5,7.5,5.4a30,30,0,0,0-3.2-1.5c-3.4-1.3-6.8-2.9-10.7-2.4s-7,.9-10.4,1.6-6.1,2.8-8.5,6.2l2.6-.6C186.6,276.4,189.9,274.2,193.3,276.9Zm31.8,231.9c.7,0,1.3.3,1.6.1,4.5-2.3,9.6-1.3,14.3-1.8,8.3-.8,16.7-.6,25.1-.9a103.7,103.7,0,0,0,12.5-1.1c8.3-1.4,16.7-2.8,24.8-5.4,6.4-2.1,12.6-4.6,18.8-7.3,3.3-1.5,6-3.7,9.1-5.3a29.6,29.6,0,0,0,10.6-10.2c4-5.9,8.1-11.9,10.3-19s5-15.2,7.3-23c1.5-5.2,2.5-10.7,3.9-16,3-11.4,3.7-23.1,3.3-34.9a12.4,12.4,0,0,0-.4-1.6,20.4,20.4,0,0,0-7.1,2.3,57.6,57.6,0,0,0-14.8,10.5c-4.6,4.3-8.7,8.9-13,13.3-1.7,1.8-3.5,3.5-5.2,5.4-4.1,4.7-8.1,9.6-12.2,14.3a2.9,2.9,0,0,0-.6,3.7c2.9,6.9,4.6,14.1,4,21.6a60.4,60.4,0,0,1-2.2,12c-2.4,8.6-6.3,16.6-12.5,23.2s-15,13.5-25.9,14.6a32.4,32.4,0,0,1-12.4-.7l-2.2-.5c-11.5-1.3-21.1-6.4-29.2-14.3a60,60,0,0,1-15.6-26.2c-2.1-6.7-3.6-13.6-3.2-20.7a13.4,13.4,0,0,0-.1-2.1,24.6,24.6,0,0,1-3.6-2.2,18.7,18.7,0,0,0-9.1-4.3c-6.5-1.4-13-.8-19.4-.7a7.6,7.6,0,0,0-5.2,1.9c.1.7.1,1.3.2,1.8a46.9,46.9,0,0,1,2.2,14.3,58.1,58.1,0,0,1-.5,10.2c-.8,5.6-3.5,10.6-6.2,15.5a13.5,13.5,0,0,0-.9,2.2c2.2-.7,3.4-2.8,6.1-2.1L173,480a27,27,0,0,0-6.1,7.8c-5.6,11.6-2.5,21,6.7,27.9s19.1,7.7,29.8,4.3a5.5,5.5,0,0,0,3.1-2.7c3.2-5.6,4.4-11.9,5.3-18.1a50.1,50.1,0,0,0-.5-18.9c-.3-1.1-.2-2.7,1.2-2.8s4.8-.8,6.9,1.3c4.6,4.5,6.6,10.2,7.2,16.3C227.1,499.7,227,504.2,225.1,508.8Zm-139-84.9c3.4-4.4,7.1-8.1,11.8-10.4s10.6-4.9,16-7a19.7,19.7,0,0,1,6.3-1.3c7.5-.3,15,0,22.3,2.1,9.1,2.7,17.1,6.9,23,14.5,1.1,1.4,2.1,3.1,3.5,3.7a4.5,4.5,0,0,1,2.7,3,6.1,6.1,0,0,0,1.2,1.6,21.9,21.9,0,0,1,11.2-3.4h12.6a32.2,32.2,0,0,1,14,3.5l4.3,2.5c.4-.2.6-.2.7-.4,3.6-6.3,9-10.9,15.1-14.8,7.7-5,16-8.9,25.1-10.6a124.5,124.5,0,0,1,13.5-1.7c6.5-.5,12.9.8,19.1,2.3a30.9,30.9,0,0,1,18,11.5,7.3,7.3,0,0,1,1.7,3.8c.1.9.9,1.7,1.6,2.8l6.7-8c2.3-2.5,4.5-5.1,6.9-7.6s4.6-4.8,6.9-7.2,4.7-5.1,7.1-7.5,5-4.4,7.5-6.6,5.6-3.7,8.2-6.5a18.7,18.7,0,0,1-4-1.3c-1.5-.8-2.6-.3-3.9.5a11,11,0,0,1-7,2c-4.7-.3-9.2-1.1-13.2-3.7a2.8,2.8,0,0,0-2.9-.5c-1.9.8-3.9,1.3-5.9,2a155.1,155.1,0,0,1-20,5.3c-4.6.9-9.2,2.1-13.8,2.9s-12,2-18.1,2.7c-7.6.8-15.3,1.5-23,2.1-4,.3-8,.4-12,.5s-7.2.3-10.8.2-10.3-1-15.4-1c-9.8,0-19.6-.7-29.4-1.2a131.9,131.9,0,0,1-18.9-2.3c-2.8-.5-5.6-1.3-8.4-1.6a171.2,171.2,0,0,1-17.7-2.3c-5-1-10.1-1.4-15.1-2.5-8.4-2-16.7-4.4-25-6.7-3-.8-6-2-9-3l-.6.9-.6,2.5c-.9,3.6-3.8,5.1-7.2,3.7l-3.3-1.5-2.3,1.4c-3.3,2.8-6.9,2.8-10.6,1.1a3.4,3.4,0,0,0-1.6-.4c-2.3.8-4.5,1.8-7.1,2.8l34.2,41.9a20.4,20.4,0,0,0,1.7-2C83.6,422.7,84,422.7,86.1,423.9Zm69.5-168.8,3.7-1,13.2-4.6a33.9,33.9,0,0,1,13.8-1.4c4.3.3,8,2.2,11.5,4.7a3.2,3.2,0,0,0,2.2.7c4.2-1.4,8.4-1.3,12.7-1.3a45.8,45.8,0,0,1,16.1,3.7,2.2,2.2,0,0,0,1.6-.1,27.1,27.1,0,0,0,5.2-2.2,17.1,17.1,0,0,1,7.6-2.2c4.9-.5,9.1,1.4,12.9,4.3a4.7,4.7,0,0,0,3.4,1.2h3.2c5.2-10.1,8.6-34.3,4.6-46.8l-29.5,2.7c-.5,4.6-2.5,7.9-7.4,8.3s-6.9-2.3-8.7-7a14.9,14.9,0,0,0-2.1.2l-25.1,6.3-19.9,5.2c-9,2.3-17.9,4.7-26.9,6.6-2.9.7-4.5,1.8-4.9,4.8a3.5,3.5,0,0,0,.9,3.1c1.6,1.7,3.2,3.5,4.7,5.3ZM109.7,499.2l-2.8-1.3a45.4,45.4,0,0,1-19.3-15.4c-4.9-7-7.3-15-9.8-22.9a25.2,25.2,0,0,1-1.2-9.8c.6-6.7,2-13.3,3.1-20.3-14.4-13.3-27.1-28.5-40.1-44-1,3.1-1.8,5.8-2.6,8.5-1.9,6.1-3.5,12.3-3.7,18.7s-.1,12.6,0,18.9a15.1,15.1,0,0,0,.6,3.6c.8,2.8,1.9,5.6,2.5,8.4,1.5,7.1,5.3,13.1,9.7,18.6A131.8,131.8,0,0,0,65,482.1a58.2,58.2,0,0,0,14.3,8.7C89,494.8,99,498,109.7,499.2Zm106.7-60.7h-.1l.9,7.3c1.6,12.6,6,24,14,33.8A55.2,55.2,0,0,0,246,492.4c6.4,3.8,13.4,5.1,20.6,5.6a24.1,24.1,0,0,0,5.9-.6,27.6,27.6,0,0,0,13.3-5.2c7.9-5.5,13-13.2,16.5-22.1a66.4,66.4,0,0,0,3.4-13.1,48,48,0,0,0,.6-10c-.4-5.2-.6-10.6-2-15.7-.7-2.8-1-5.8-2-8.5a16.7,16.7,0,0,0-10.7-9.7c-8.4-3-17.1-4.7-26.2-3.7s-18.6,3.1-27.1,7.4a62.9,62.9,0,0,0-20.6,15.5,6.6,6.6,0,0,0-1.2,3A16.9,16.9,0,0,0,216.4,438.5Zm90.8-156.3c.5-.3.8-.4.9-.6,14.5-23.1,27.7-47,43.6-69.5-3.2-2.6-4.3-6.2-4.9-10l-3.8.5-10.2.7h-.5c-3.3.5-6.5,1.1-9.8,1.4s-7.6.6-11.3.8h-.9l-10.4,1.4-10.2.9a5.1,5.1,0,0,0-1.4.4c1.2,2.7,2.4,5.2,3.4,7.7a102.4,102.4,0,0,1,5.5,18.9,80.1,80.1,0,0,1,1.6,12.1c.3,6.1.1,12.3.1,18.5v2.8l1.4.3c3.2.3,4.9,2.1,4.8,5.6a12.9,12.9,0,0,0,0,3.4C305.3,279.4,305.5,281.1,307.2,282.2ZM126.6,409.5c-4.4,0-8.8-.1-13,1.5l-9.5,3.7a28.8,28.8,0,0,0-9.9,6.1,32.7,32.7,0,0,1-3.5,3,13.7,13.7,0,0,0-5.4,8.1c-.4,1.8-.5,3.9-1.5,5.4s-1.4,4.7-1.5,7.1a14.3,14.3,0,0,1-.4,2.2,27.1,27.1,0,0,0-.1,4c.1,1.3.3,2.6.5,3.9a23.3,23.3,0,0,1,.5,2.8c.6,3.5,2.3,6.8,1.9,10.5a4.4,4.4,0,0,0,.5,2.2,44.2,44.2,0,0,0,13.6,18.9,41.7,41.7,0,0,0,25.5,9.2c1.5,0,3-.6,4.5-.6a29.3,29.3,0,0,0,10.9-2.8c10.6-4.5,18.6-11.8,23.3-22.4a161.9,161.9,0,0,0,6.9-18.4,47.5,47.5,0,0,0,1.7-10c.1-2.6-.8-5.3-.7-7.9s-1.4-6.2-3.7-8.6-5-5-7.6-7.4a25.6,25.6,0,0,0-4.6-3.3A54.1,54.1,0,0,0,126.6,409.5Zm207.1-76,1.4.8a26.7,26.7,0,0,1,10.8,8.6,8,8,0,0,1-.3,11.1,33.5,33.5,0,0,1-10.5,7.8c-10.8,5.7-22.4,9.4-34.3,12.1-7.4,1.7-14.9,3-22.4,4.2s-14.3,2.1-21.4,2.9c-4.5.5-8.9.6-13.4.9h-1.4c-5.3.5-10.6,1.3-15.9,1.4-12.7.2-25.5.2-38.3.1-5.8-.1-11.6-.6-17.4-.9h-1.1c-4-1.6-8.4-1.4-12.6-1.9-7.4-1-14.9-1.5-22.4-2.4a193.6,193.6,0,0,1-33.6-6.5,123.3,123.3,0,0,1-24.5-9.9,24.5,24.5,0,0,1-8.8-7.5,9.5,9.5,0,0,1-.7-10c1.7-3.6,5-5.7,8.1-7.9s6.1-5.2,7.6-9.5l-4.2,1.7c-6,2.8-12,5.8-17,10.3a18.3,18.3,0,0,0-5.1,7.2c-1.8,4.7-.1,8.8,3,12.3a40.8,40.8,0,0,0,12.1,8.9,5.1,5.1,0,0,0,3.6.8,2.2,2.2,0,0,1,2.7,1.1c.8,1.6,2.2,2.2,3.8,2.7,7.1,2.3,14.3,4.7,21.5,6.8,4.5,1.3,9.2,2.2,13.8,3.1l12.8,2.4,6.8.8,8.7.9,9.8,1.4c2.9.2,5.8.2,8.8.7,4.5.6,9,.6,13.6.8h12.9c12.3-.3,24.5.4,36.8-.7,6.2-.6,12.4-.6,18.5-.9h1.2l11.2-1.4c3-.3,6-.4,9-.9s8.3-1.4,12.5-2.1,9.5-1.5,14.2-2.6c12.4-2.7,24.6-5.9,36.1-11.4,5.8-2.8,11.5-5.7,15.9-10.5,2.6-2.8,4.8-5.8,5.2-9.9s-.3-5.8-2.8-7.9c-4.1-3.4-8-7-13.4-8.8ZM104.8,278.9A85.2,85.2,0,0,0,117.1,302c1.6,2.2,2.8,4.8,5.7,5.8a1.2,1.2,0,0,1,.6.6c2.2,4.5,6.2,7.2,10,10.2,1.8,1.3,2.3,1,4-.5a15.4,15.4,0,0,1,3.1-2.5,11.3,11.3,0,0,0,6-10.5,18,18,0,0,1,.3-4c.9-4.5,2.2-8.7,7.1-10.5a2.2,2.2,0,0,0,.9-.8c-3.4-2.2-6.8-4.1-9.9-6.4a87.2,87.2,0,0,1-8.7-7.4,74.7,74.7,0,0,1-5.9-7.7,2,2,0,0,0-2.9-.8c-2.1,1.1-4.4,1.9-6.5,3Zm-.4-.7a138.2,138.2,0,0,1,24-12.8c-5.2-8.3-8.3-17.1-10.5-26.1a106.3,106.3,0,0,1-15.5-6.1c5,1,9.6,3.2,14.8,4.4a21.6,21.6,0,0,0-.1-3.7,52.9,52.9,0,0,1,0-17.3,2.9,2.9,0,0,0-.3-2.1c-1.8-2-3.8-3.9-6.1-6.2C97.6,230.8,96.5,253.8,104.4,278.2Zm89.8-18.7-.5-.4c.2-.4.2-.9.5-1.1s1.8-1.8,2.6-2.7.8-1.7-.6-2.2l-3.1-1.3a20.9,20.9,0,0,0-7.7-2c-6.4-.4-12.3,1.3-18.1,3.4-.7.3-1.8.3-2.1.8-1.2,2.2-3.6,2.4-5.3,3.6a7.9,7.9,0,0,0-3.6,4.4l2.8,2.6-.3.6c-3.8-1.4-7.5-3.2-11.6-3.9a31.3,31.3,0,0,0-12.9.6c2.4,3.9,4.7,7.4,7.7,10.2,2.2-.2,4.1-1.1,6.2-.1l-4.5,1.7c1.8,3.4,6.1,7.4,8.3,8-1-3.6-.1-4.4,2.8-6.2s7.2-2.9,10.9-3.7a5.7,5.7,0,0,1,4.8,1.5l4,3.7a17.3,17.3,0,0,0,3-1.6c2.7-2.5,5.4-5.2,8-7.8-2.1-3.8-5.6-5.2-9.2-5.9s-5.6-.9-7.7,2.5a11.4,11.4,0,0,1,6.1-7.7,2.1,2.1,0,0,1,2.6.2l-2.8,2a12.2,12.2,0,0,0,3.7.5,15.9,15.9,0,0,1,3,.6,11.2,11.2,0,0,1,6.8,4.9c.7.9,1.3,2,2.7,1.8,5.5-.5,11-.9,16.2-2.9s7.5-5.2,11.1-7.9c.1-.1,0-.4,0-.9l-9.4-.9c-1,0-2,.6-3.1.6C201.1,254.7,197.2,255.9,194.2,259.5Zm84.6,43,1.4-3.5c1.7-3.5,3.6-6.9,5-10.5a77.3,77.3,0,0,0,4.8-17.7c.3-2-.4-2.9-2.4-3a4.8,4.8,0,0,0-1.2,0l-22.3.2a3.4,3.4,0,0,0-3.1,1.9,115,115,0,0,1-7.1,9.7c-2.7,3.1-3.8,6.2-2.2,10.1a2.7,2.7,0,0,1-1.2,3.7c-2.1,1.4-3.3,3.6-4.6,5.6,3.3,3.7,8,4.5,11.8,6.8C263.9,299.3,270.8,298.3,278.8,302.5ZM38.7,356.1c.1,1.3-.3,2.1-1.9,2.5a22.1,22.1,0,0,0-5.5,2.3c-2.9,1.6-4.5,4-4,7.5.2,1.9.5,2.2,2.3,2.6s4.5.7,6.2,1.9,3.9,3.7,5.9,5.7a7.5,7.5,0,0,0,1.6,1.5c2.9,1.5,7.8-.2,9.4-3.2.8-1.5,1.6-1.9,3.8-1.6a12.3,12.3,0,0,1,.2,1.9c.2,2.6,1.7,3.5,4.1,2.7a9.1,9.1,0,0,0,4.8-3.8,3.7,3.7,0,0,1,3.8-2.1c1,1.8,1.6,3.9,4.2,3.9,1.9-3.9,1.4-5.6-2.2-7.5S61.8,365.1,58,361a6.8,6.8,0,0,1-1.9-3.4,16.5,16.5,0,0,0-3.9-8.7C51,347.4,50,346,50.8,344c-5.8-1-10.2,1-13.3,5.6S35.1,353.6,38.7,356.1Zm328.7-12.6c-2-1.2-4.3-1.7-5.7-.9a12.3,12.3,0,0,0-3.5,2.9c-.4.4-.3,1.4-.4,2.1a35.7,35.7,0,0,1-1.1,5.5,23.4,23.4,0,0,1-4.9,7.3c-6.7,6.8-14.6,11.8-23.1,16l-2.4,1.2c.2.4.2.7.4.8a19.9,19.9,0,0,0,13.7,2.5,5.5,5.5,0,0,0,4.3-3c.7-1.6,1.8-1.8,3.5-1.6s5.3.1,8,.2c.9,0,2-.3,2.8.1s2.8.1,4.1-.4,5-2.2,6.6-4.7a6.1,6.1,0,0,1,1.7-1.5,4.7,4.7,0,0,0,1.9-3.1c-2.5-.8-4.8-1.6-7-2.5s-2.1-1.9-.7-3.5a3.1,3.1,0,0,1,1.2-1.1c1.9-1,3.7-2.1,5.9-2.1a3.1,3.1,0,0,0,3-3.4,5,5,0,0,0-3-4.2,20.1,20.1,0,0,0-4.1-.9c-1.9-.3-3.8-.6-5.2-2.6ZM288.2,232.8l-3.2.5-9.9,2.6c-2,.4-2.2.6-2.6,2.7-1.1,4.6-2,9.2-3.4,13.8a43.7,43.7,0,0,1-4.2,10.3c-.7,1.2-1.2,2.5-1.9,4l27.4-1A96.6,96.6,0,0,0,288.2,232.8ZM351,201.2a18.7,18.7,0,0,0,.5,3,10.5,10.5,0,0,0,7.7,6.7c4.4.9,7.2.1,9.1-2.9,3.5-5.5,2-11.3-2.8-14.9a8.9,8.9,0,0,0-8.7-1.3C353.1,193.4,351.1,196.6,351,201.2ZM287.8,231a85.9,85.9,0,0,0-8.5-22l-3.3.3a2.9,2.9,0,0,0-2.8,3c0,.8.1,1.5.1,2.3v20.7ZM136.6,504.2a88.8,88.8,0,0,0,22,1.7c0-2.7-.1-5.1-.1-7.6s1.6-4.5,1.1-7.3A98.3,98.3,0,0,1,136.6,504.2ZM364.1,115.7c0-3.6-3-7.8-5.7-7.8a7.4,7.4,0,1,0,0,14.7C361.7,122.5,364.1,119.6,364.1,115.7ZM324.5,361.1a35.4,35.4,0,0,0,9.5-4.9,44.1,44.1,0,0,0,5.2-4.5c1.3-1.3,2.3-3,1.3-4.9a31.7,31.7,0,0,0-7.9-9.2c0-.1-.2,0-.3,0a2.9,2.9,0,0,0-.5,3.1l.9,3c1.4,4.8-.3,9.1-4.7,11.2C325.5,356.2,324.8,358.1,324.5,361.1ZM172.2,278c-2.7-2.2-5.3-4-9-2.6s-6,2-7.9,5-1.3,4.3,1.2,5.5,2.5,1.8,4.2,1a33.2,33.2,0,0,0,10.7-7.8C171.8,278.8,171.9,278.4,172.2,278ZM78.7,360.4a5.4,5.4,0,0,0,0-4.8c-1.8-5-4.7-9.6-5-15.3a12,12,0,0,0-4.8,5.5A6.5,6.5,0,0,0,69,352C71.2,355.9,74.7,358.2,78.7,360.4ZM344.2,34.9c-4,.2-5.8,1.8-5.7,5.3s3.4,6.4,6.2,6.3a5.5,5.5,0,0,0,5.7-5.9C350.3,36.9,348.1,34.8,344.2,34.9Zm88.3,123.8c2.6,3.3,6.3,4.5,9.7,3.3a5,5,0,0,0,3.4-5.8,4.6,4.6,0,0,0-4.8-4.2h-4.6c-1.8.1-2.3.6-2.3,2.5S433.9,157.5,432.5,158.7ZM262.9,107.9a6,6,0,0,0,5.8-5.4c.2-3-3.2-5.5-6.1-5.6s-6.5,3.5-6.4,6S259.4,107.8,262.9,107.9ZM123.2,195.1a44.4,44.4,0,0,0-11.7,12.4c3.5,4,4.4,4.7,6.3,4.8C118.8,206.4,121,200.8,123.2,195.1ZM205.8,38.8a4.8,4.8,0,0,0-4.7,4.2c-.2,2.2,2.6,4.6,5.5,4.7s4.6-1.3,4.8-4.1S209.4,39,205.8,38.8Zm66.4,166.8c1.5-.2,3.2.7,4.1-1.2-2.1-4.3-6.8-9.9-9-10.9C268.9,197.4,270.5,201.3,272.2,205.6ZM135,234.8a2.7,2.7,0,0,0,2.6,2.9c.9,0,2.9-2.1,2.9-3a2.9,2.9,0,0,0-3.1-2.7A2.4,2.4,0,0,0,135,234.8Zm127.6,23.9h-3.7l1.9,3.9C261.6,261,262,260,262.6,258.7ZM107.7,295.6l.6-.8c-.1-.3-.4-.5-.6-.7s-.5.3-.4.5S107.5,295.1,107.7,295.6Z"/><path d="M13.1,89.3c.8,2.4,1.7,4.8,2.3,7.2l6,27.1,5.1,23c.5,2.4,1.1,4.7,1.6,6.9,3.2-.2,6.1-.4,9-.8a8.8,8.8,0,0,1,6.1,1.7,15.6,15.6,0,0,1,5.7,7c.4,1,.7,2,1.2,3.2l60.4-16.7c.7-1.2,1.3-2.5,2.1-3.7a5.5,5.5,0,0,1,5.4-1.9,3.8,3.8,0,0,1,2.7,5.2l-.5,1.1c-1.8,3.8-3.2,4.4-7.2,2.5a5,5,0,0,0-3.8-.3l-32,8.3c-5.7,1.5-11.4,2.8-17.2,4.2l-10.1,2.4a16.6,16.6,0,0,0-.2,2.4c.5,5.3-2.1,9.1-5.9,12.2-1.9,1.6-1.9,1.6-.9,3.7,5.2,12.3,10.4,24.5,15.7,36.7s9.8,22.7,14.6,34l14.7,34.4c1.9,4.5,3.9,8.9,5.7,13.4a35.1,35.1,0,0,1,1.5,4.9h0c-1.7.5-2.4-.6-3-1.9l-3.3-7.6c-4.6-11-9.3-22-13.9-33.1L64.5,239.8c-4.3-10.2-8.7-20.3-13-30.5-1.7-3.8-3.2-7.7-4.9-11.5-.6-1.4-1.7-2.7-2.3-4.1s-2.1-5.1-3-7.7c-.4-1.1-.6-2.2-.9-3.2-2.9.1-5.6.2-8.3.5-.7,0-1.5.9-1.7,1.5-3.2,12.2-6.2,24.4-9.3,36.6s-5.8,21.9-8.7,32.8c-.3,1.3-.8,2.6-1.1,3.6s2.1,3.1,2.6,4.7a6.6,6.6,0,0,1-3,8.5,8.1,8.1,0,0,1-9.6-2,6.9,6.9,0,0,1,3.5-10.5,14.1,14.1,0,0,1,2.2-.6,2.9,2.9,0,0,0,2.3-2.5c1.1-4.2,2.1-8.4,3.3-12.6,3.2-11.6,6.6-23.2,9.9-34.8,2-6.9,4.1-13.8,6.1-20.7.2-.6.1-1.3.3-2,.7-2.8.8-2.8-1.7-4a14.4,14.4,0,0,1-8.3-11.8c-.6-5.1,1.4-9.3,5.1-12.7l2-1.6c-1.3-6-2.5-11.8-3.6-17.6s-2.5-12.5-3.7-18.8-2.6-11.7-3.6-17.6c-.6-4-2.2-7.8-1.9-12Zm21.3,90.9c6,.6,10.8-3.3,12-9.5s-.6-10.6-6.4-14.2c-2.4-1.5-5-2.8-8.1-2.1a15.9,15.9,0,0,0-5.5,2.8,12.9,12.9,0,0,0-5,11.8C22.1,175.4,28.8,181,34.4,180.2Zm-22.7,84c-.2-.4-.4-1.7-1.1-2.3A24.7,24.7,0,0,0,6,259.6c-.3-.1-.8.2-1.1.4a11.3,11.3,0,0,0-2.2,2.8,4.3,4.3,0,0,0,1.1,5,4.9,4.9,0,0,0,5,1.2C10.5,268.4,11.6,266.6,11.7,264.2Z"/><path d="M306.1,156.7c.5,2.5,1.2,4.3,1.3,6.1a7,7,0,0,1-9.1,6.6l-1.1-.3c-6.1-2.7-4.9-6.5-1.8-10.1a5.7,5.7,0,0,1,2.8-1.8,15.2,15.2,0,0,0,6.4-3.7c10.4-9,21.9-16.4,33.3-24,2.6-1.7,5-3.8,7.5-5.7a29.2,29.2,0,0,1,2.3-1.9c0,1.9-1.1,2.6-1.9,3.3-3.6,3.1-7.2,6.2-11.1,9-9,6.4-18.1,12.9-26.3,20.4Z"/><path d="M220.2,40.7l14-4.1,24.1-6.7a5.2,5.2,0,0,0,2.5-2.1,5.7,5.7,0,0,1,5.4-3.1c2.1.1,3.6,2.3,3.8,4.3s-1.9,4.3-3.8,4.3a9.4,9.4,0,0,1-4.1-.8,4.8,4.8,0,0,0-4-.4l-25.9,6.6-10.1,2.4a10.8,10.8,0,0,1-1.8,0Z"/><path d="M167.9,138.6c-3.7-.1-6.4-2.4-6.4-5.6s3.4-6.3,6.5-6.4,5.9,3.4,5.8,6.1S171.6,138.8,167.9,138.6Zm-.7-9.7c-1.4,0-3.2,1.9-3.2,3.5s2.2,3.5,4,3.4a3.1,3.1,0,0,0,2.7-3.1C170.7,131,168.7,128.8,167.2,128.9Z"/><path d="M13.2,89.2l-2.2.6a6.4,6.4,0,0,1-6.2-2.4,2.4,2.4,0,0,1-.2-2.7,7.4,7.4,0,0,1,7.3-4.1c1.9.3,3.3,3,2.6,5.2s-.9,2.3-1.4,3.5Z"/><path d="M179.3,5c0,2.8-1.1,4.1-3.4,4.3s-5.3-1.4-5.7-3.7A5.3,5.3,0,0,1,174.6,0,4.3,4.3,0,0,1,179.3,5Zm-6.7-1.5c-.5,1.6-.3,2.9,1.4,3.3a3.1,3.1,0,0,0,2.5-.6c1.1-1.4,0-2.6-.7-3.8Z"/><path d="M189.7,360.5c4.7.2,7.7-3.3,11.9-2.9a13.9,13.9,0,0,1-2.1,2.1,24.7,24.7,0,0,1-8.1,3.3,3.4,3.4,0,0,1-4.2-3.2,24.8,24.8,0,0,1-.2-2.9c-3.4-.3-6.7-.5-9-3.3a8.1,8.1,0,0,1-.4-1.9c2.6,1.8,4.9,3.2,7.7,2.8a2.7,2.7,0,0,0,0-3.3,7.5,7.5,0,0,0-.7-1.2c-1-1.6-1.5-3.2-.2-4.8s3-2.7,5.2-2.3a19.5,19.5,0,0,0,11.4-1.7c2.1-.9,4.2-1.8,6.2-2.9a12.2,12.2,0,0,0,3.2-2.8c2-2.3,1.8-3.6-.3-5.7a40.3,40.3,0,0,1-3.8-4.6,3.1,3.1,0,0,1-.1-2.7l3.8,3.8c.3-2,.5-3.4.9-5.3.9.8,1.5,1.2,1.7,1.7a21.3,21.3,0,0,1,1.5,11.7,7.5,7.5,0,0,1-4.1,5.5c-4.1,2.1-7.8,4.8-12.4,5.7-1.1.2-2.2.5-3.3.6s-2.9-.1-4.3,0-2.3,1-1.8,2.2a13.9,13.9,0,0,1,.4,6.7C188.4,356.8,189.3,358.7,189.7,360.5Z"/><path d="M227.5,354.1c-6.6-1.6-12.9-1.8-19-3.2.2-1.5,1-1.7,1.9-1.7,3.3.2,6.6-.1,10,.6s5.6-.2,8.4-.3l.6-.2c4.2.4,6.5-2.5,8.8-5.3a33.9,33.9,0,0,1,4.1-4.4,3.8,3.8,0,0,1,4-1.1c-1.8,3.8-4.7,6.4-7.4,8.9s-5.9,4.8-8.7,7a52.5,52.5,0,0,1,.3,5.6,4,4,0,0,1-3,4.3,9.5,9.5,0,0,0-3.8,2.4,4.6,4.6,0,0,1-1.6,1.1c-2.6.6-3.7,2.5-4.6,4.7l-1.3,3.7a1.9,1.9,0,0,1-1.9-2.5c.8-4.3,2-8.2,6.6-9.9,1.6-.5,3.1-1.4,4.8-2a2.3,2.3,0,0,0,1.8-2.5Z"/><path d="M191.4,331a22.2,22.2,0,0,1,.6-4.4c1.3-3.6.2-6.9-1.3-10.1a5.3,5.3,0,0,0-.6-1c-2.1-2.4-1.5-4.8,1.2-7.2a13.9,13.9,0,0,1,3.8-2.5c3.6-1.5,7.3-2.8,10.9-4.1,1.8-.7,3.7-1.1,5.2-2.8-.6-2.2-.9-4.7-1.9-6.9-2.2-5.2-4.9-7-10.9-7l-1.5-.2c3.3-1.7,7.9-1.4,10.3.6a16.1,16.1,0,0,1,6.3,13.1,3.2,3.2,0,0,1-2.6,3.6l-5.3,1.8c-.4,2.1-2.2,3.2-4.3,4.2s-4.7,2.6-6.9,3.9a9.8,9.8,0,0,0,.1,6.1c.7,1.5.5,3.5.3,5.3a17.9,17.9,0,0,1-2.8,7.8Z"/><path d="M293.8,297.9a7.9,7.9,0,0,1,2.2.6l7.1,5.2a19.2,19.2,0,0,0,2.2,1.8,9.5,9.5,0,0,1,3.8,5.2c.6,2.2,1.1,2.4,3.3,1.7s4.3-1.8,6.6-2.5c4-1.1,6.5,1,5.9,5.3a19.1,19.1,0,0,1-2.1-1.4l-2-1.9c.3,2.5-1.7,2.1-2.6,2.9v8.7c-1.2-.1-1.3-1-1.4-1.8s-.6-4.1-.9-6.6c-1,.2-2,.1-3,.4s-4.9,1.3-7.7-.1a51.4,51.4,0,0,1-1.5-5.4,11.6,11.6,0,0,0-4.7-6.8l-5.6-4.4Z"/><path d="M167.1,352a3.1,3.1,0,0,1-.4-4,55.4,55.4,0,0,1,3.8-6.3,8.3,8.3,0,0,0,1.9-5.8c-.1-2.6,0-5.3,0-7.9-3.4-2.2-7.6-2.5-10.9-5.7a18.7,18.7,0,0,1,2.1-.1c3.3.7,6.7,1.3,9.9,2.3a9.2,9.2,0,0,0,6.9,0,19.1,19.1,0,0,1,2.7-.6,7.6,7.6,0,0,1-1.2,1.7c-1.1.8-2.3,1.4-2.8,3s-1.3,1.3-2.1,1.8a3.8,3.8,0,0,0-1.7,4.1,9.2,9.2,0,0,1-2.8,8.8,17.5,17.5,0,0,0-4,6.1C168.1,350.3,167.6,351,167.1,352Z"/><path d="M299,326.1c-7.9,3.8-15.1,4.2-22.2-.8,1.2-.8,2.3-.1,3.1.3,5.9,2.3,11.6,1.3,17.1-1.3,1.2-.5,2.2-1.7,3.3-2.5l2-1.5c.5,1.9.8,3.3,1.2,4.8s1.6,5.8,4.8,7c.4.1.6.5.9.9-2.2,2.6-4.7.9-6.9.4S298.5,329.8,299,326.1Z"/><path d="M265.1,355.2c.4-1.6,1.6-2.2,2.8-2.7a15,15,0,0,0,8.4-11.1,11.8,11.8,0,0,0-.2-2.6,4.3,4.3,0,0,1,1.2-3.7,13,13,0,0,1,1.3,1.9c.6,2.5,1.2,5,1.6,7.5s-3.4,8.7-6.9,9a6,6,0,0,0-3.2,1C268.6,355.5,267,355.5,265.1,355.2Z"/><path d="M239.7,290.6c-1.7.9-3,.3-4.4-.5-3.9-2.2-8-2.3-12.3-1.6-2.3.3-4.6.8-7.2,1.3.5-.5.8-1,1.2-1.2,2.9-1.7,5.8-3.5,8.9-5a5.5,5.5,0,0,1,5.9.5l6.7,4.9A11.1,11.1,0,0,1,239.7,290.6Z"/><path d="M250.4,346.2c-.7-1.8.1-2.6,1.1-3.1l8.2-3.8c-.3-2-3.4-3.8-1.7-6.7l7.8,10c-.8.1-1.2.3-1.5.2-3-1.3-5.7-.5-8.4,1a24,24,0,0,1-2.7,1.6A22.9,22.9,0,0,1,250.4,346.2Z"/><path d="M207.7,312.8l2,.7a9.7,9.7,0,0,0,8.9.5c2.2-.9,4.4-1.7,6.7-2.4a16.6,16.6,0,0,1,3.2-.3l.2.6a10.9,10.9,0,0,1-2.7,2.2,62.4,62.4,0,0,1-8.6,3c-3.7,1-6.9-.4-9.6-2.9-.1-.2-.2-.3-.2-.5S207.6,313.3,207.7,312.8Z"/><path d="M156.1,304.9l3.6,1.9c-.3-1.8-.5-3.3-.7-5.4a47.4,47.4,0,0,0,4,5.4c1.3,1.5,3.1,2.5,4.5,3.9s3.9,1.4,4.8,3.8a2.6,2.6,0,0,1-2.9.1A33.5,33.5,0,0,1,156.1,304.9Z"/><path d="M143.6,347.6c6.5,2.4,12-.5,17.7-1.8l.2.6a15.4,15.4,0,0,1-3,2.2,65.2,65.2,0,0,1-7.3,2.9C147.6,352.8,145.6,351.8,143.6,347.6Z"/><path d="M232.2,307.6a13.3,13.3,0,0,1,10-2.4,3.5,3.5,0,0,1,1.9,1.5c1.2,2,2.2,4.1,3.3,6.2-1.4.7-3.1.3-4.4-1.4a13.8,13.8,0,0,1-1.4-2.7,2.2,2.2,0,0,0-2.2-1.5Z"/><path d="M300.4,444.8c.6,10.3-3.2,18.2-9.5,24.9a29,29,0,0,1-17.9,9.1,31.3,31.3,0,0,1-6.8.6c-13.5-1.1-24.3-6.7-30.7-19.3a29.6,29.6,0,0,1-3.3-16.8c.6-5.5,2-10.8,5.6-15.3,2.1-2.7,4.2-5.6,6.5-8.2a9,9,0,0,1,2.9-1.6l1.5-.8c5-3.4,10.6-4.6,16.5-4.9a8.8,8.8,0,0,0,1.7-.2c3.6-1.9,7.1-.8,10.5.3,12.1,3.8,19.2,12.4,22.3,24.5a13.4,13.4,0,0,1,.7,2.7C300.5,441.7,300.4,443.6,300.4,444.8Zm-7.2-8.7h-.5c-3.2,16.5-11.9,26.8-29.8,25.6-12.9-.8-21.6-7.9-25.7-20.7-.4.7-.6,1-.6,1.3a27.2,27.2,0,0,0,3.1,16.1c7.7,13.5,19.9,17.8,33.2,15.7,8.7-1.4,14.9-6.9,18.8-14.7a29.5,29.5,0,0,0,2.7-18.3C294.1,439.3,293.6,437.7,293.2,436.1Zm-22.5-16.6a8.2,8.2,0,0,0-7.3-.5c-2.5,1-5.3,1.5-7.7,2.7a40.8,40.8,0,0,0-8.1,4.7,11.7,11.7,0,0,0-4.4,5.8,4.7,4.7,0,0,0,3.1,6.1c1.2.3,2.6.6,3.6-.7a23.2,23.2,0,0,1,9.1-6.7c2.4-1.2,4.8-2.1,7.2-3.3S271.2,423.1,270.7,419.5Z"/><path d="M87.7,337.5a12.7,12.7,0,0,1,2.8.6c1.5.9,2.7,2.1,4.1,3s2.8,2.3,4.4,2.5c3.5.5,6.9,1.7,10.6.5s3.9-.3,5.8,1.5c-.7,3-2.9,4.6-5.6,5.6a2.8,2.8,0,0,1-2.5-.7c-1.7-2.1-3.9-2.4-6.2-2.1-3.9.7-6.5-1-8.8-3.9l-4.8-6.3Z"/><path d="M109.2,326.4c4.8,2.2,10,3.9,12.6,9.4,3.1-1.7,5.8-3.1,8.5-4.7,1.1-.6,2.1-.7,2.8.2s.1,1.9-.6,2.4a22.4,22.4,0,0,1-4,2.2,11.8,11.8,0,0,1-2.7.6,6.3,6.3,0,0,0-4.4,7.2,19.9,19.9,0,0,1,.5,3.4c0,.9.3,2-1,2.4a2.9,2.9,0,0,1-2.8-2c-.9-3.1-1.4-6.1,1.1-8.8.1-.1.1-.3.3-.9A43.5,43.5,0,0,1,109.2,326.4Z"/><path d="M157.8,447.1c0,16-6.6,26.9-19.4,33.7-9.4,5-19.5,4.7-29.3.8a36,36,0,0,1-19.3-17.3,34.4,34.4,0,0,1-3.5-19.4A34.9,34.9,0,0,1,100,420.7c4.8-3.8,10.1-7,16.4-8.2,11.5-2.2,21.5.7,30,8.6A33.1,33.1,0,0,1,156.9,440C157.4,442.7,157.6,445.6,157.8,447.1Zm-6.5-7.1-.4.4c-.1.5-.1,1-.2,1.5a24,24,0,0,1-10.3,17.7c-7,5.1-15,6.1-23.4,4a33.4,33.4,0,0,1-12.4-6.1,26.1,26.1,0,0,1-9.1-14.1c-1-3.6-.8-7.2-.5-11a.9.9,0,0,0-.6.6l-.6,1c-4,8.9-4.2,17.8-.1,26.8a32.7,32.7,0,0,0,13.5,14.3c4.9,2.8,10.3,3.8,15.7,4.4a19.9,19.9,0,0,0,4.8-.7,33.6,33.6,0,0,0,6.1-1.4c6.4-2.3,11.1-6.7,14.6-12.6,2.2-3.7,3.2-7.7,4.1-12s0-7-.3-10.4A14.4,14.4,0,0,0,151.3,440Zm-44.6-8.5a6.6,6.6,0,0,0,2-.1l8.6-2.6,10.3-2.8c1.2-.3,2.6-.5,3.4-1.3a6.5,6.5,0,0,0,1.7-6.5c-.7-2.5-2.2-3.9-4.8-3.8l-3,.4c-5.1,1.1-9.8,3.4-14.5,5.7a20.9,20.9,0,0,0-6.4,5.4c-1,1.2-2.1,2.6-1.3,4.2S105.2,431.6,106.7,431.5Z"/><path d="M125.1,306a108.5,108.5,0,0,1,18.7-13.5l.4.6-18.7,13.4Z"/><path d="M252.3,284.5c1-1.6,2.1-1.2,3.2-.9,4.2,1.4,8.4,2.9,12.7,4.2s7.4,2.4,10.6,4.8c.2.1.3.4.5.7-2.4.3-4.4-.6-6.4-1.4l-16.8-6.2Z"/><path class="cls-1" d="M270.7,419.5q.8,5.4-4.5,8.1c-2.4,1.2-4.8,2.1-7.2,3.3a23.2,23.2,0,0,0-9.1,6.7c-1,1.3-2.4,1-3.6.7a4.7,4.7,0,0,1-3.1-6.1,11.7,11.7,0,0,1,4.4-5.8,40.8,40.8,0,0,1,8.1-4.7c2.4-1.2,5.2-1.7,7.7-2.7A8.2,8.2,0,0,1,270.7,419.5Z"/><path class="cls-1" d="M106.7,431.5c-1.5.1-3.2.2-4-1.4s.3-3,1.3-4.2a20.9,20.9,0,0,1,6.4-5.4c4.7-2.3,9.4-4.6,14.5-5.7l3-.4c2.6-.1,4.1,1.3,4.8,3.8a6.5,6.5,0,0,1-1.7,6.5c-.8.8-2.2,1-3.4,1.3l-10.3,2.8-8.6,2.6A6.6,6.6,0,0,1,106.7,431.5Z"/></svg>