<?xml version="1.0" encoding="utf-8"?>
<!-- Generator: Adobe Illustrator 25.4.1, SVG Export Plug-In . SVG Version: 6.00 Build 0)  -->
<svg version="1.1" id="Layer_1" xmlns="http://www.w3.org/2000/svg" xmlns:xlink="http://www.w3.org/1999/xlink" x="0px" y="0px"
	 viewBox="0 0 340.9 808.3" style="enable-background:new 0 0 340.9 808.3;" xml:space="preserve">
<style type="text/css">
	.st0{fill:#FFFFFF;}
</style>
<path d="M0,254.8c0.6-1.5,1.1-2.4,1.4-3.4c3.9-12.4,7.7-24.6,11.5-37l1.5-5.1c0.2-0.4,0.5-0.7,0.8-1L37.8,185
	c0.3-0.4,0.7-0.6,1.1-0.9c0.9,0.8,1.8,1.5,2.8,2.1L81.1,208l51,28.1l13.2,7.5l1.5,0.7c3.5-5.8,6.8-11.6,10.3-17.3
	c7.7-12.1,15.5-24.1,23.3-36.1c1.3-2,2.9-3.7,4.3-5.5c0.7-0.9,1.8-1.1,2.7-0.6c1.5,0.6,3.3,0.1,5,0l7.3-1c0.7,0,1.4-0.2,2.1-0.6
	l34.7-20.3h0.1c-2.3-16.2-4.5-32.1-6.8-48.3c-0.7-0.1-1.4,0-2.1,0.1c-14,6-27.9,12.1-41.9,18c-8.8,3.8-17.5,7.3-26.3,10.8
	c-1,0.4-2.1,1.5-3.3-0.1c4.6-6.2,9.9-11.6,14.8-17.4s10.1-11.1,14.8-16.4c0-1.5,0.2-3,0.5-4.5c2.2-9.7,4.5-19.3,6.8-29
	c0.5-1.7,0.5-3.6,0.2-5.4c-3.5-18.2-7-36.6-10.4-54.8c-0.6-3.3-1.1-6.6-1.7-10C181,5,180.8,4,180.6,2.8l-1.7,2L160.8,27l-9,11.4
	c-0.2,0.4-0.6,0.6-0.7,1.1c-3.2,9.1-7.8,17.3-11.8,25.8c-1.5,3.4-3.2,6.7-4.9,10.3l3.3,7c1.5,3.3,2.5,7,2.8,10.8
	c0.3,3.1-0.3,4-2.7,2.4c-4.2-2.8-8.5-5.9-12.9-8.2c-2.6-1.3-3.5-3.5-4.2-6.5s-1.3-4.8-2-7.5l-1.3,1.8l-20.8,35.4
	c-0.8,1.1-1.7,2.1-2.7,2.9l-32.2,27.7c-1.3,1-2.3,2.5-2.8,4.3c-1.4,3.9-3.2,7.6-4.9,11.4c-3.9,8.4-7.8,16.9-11.6,25.3
	c-0.4,0.9-1,1.6-1.7,2.1c0.3-1,0.6-1.9,1-2.8c5.4-12.4,10.7-24.7,16.2-37c0.6-1.2,1.3-2.2,2.1-3.1l34.9-30.8c0.8-0.7,1.4-1.5,2-2.4
	c7.2-12.6,14.3-25.3,21.4-38.1c5.3,1.5,10.1,4,14.8,5.9c1.4-3.4,2.6-6.7,4.1-9.9c3.9-8.8,7.8-17.5,11.8-26.2c1.1-2,2.4-3.9,3.8-5.6
	c3.3-4.4,6.6-8.7,10-13l16-19.8l1.6-1.7c0.9,0,1.6,1.5,2.7,0.5s1.1,1,1.5,1.6c1.8,3.5,3.6,7,5.2,10.5c5.7,12.6,11.3,25.2,16.7,37.9
	c1.3,2.9,2.9,5.6,4.9,8c5,6,9.6,12.2,14.6,18.2c5,6,12.4,14.7,18.6,22c0.7,0.8,1.3,1.7,1.8,2.7l13,31.9l9.4,22.8
	c0.8,2.1,1.7,4,2.3,6.1c0.3,1.2,1,2.2,1.9,2.7c9.5,5.3,18.3,12.1,27,19l7.9,6.1c0.6,0.6,1.1,1.3,1.5,2.1c0.6,1.6,1.1,3.2,1.8,4.8
	c5,10.4,9.1,21.2,13.3,32.1c4.2,10.9,9.4,25.2,14.1,37.8c0.8,2,1.4,4,2,6c0.6,2.1,0.4,2.8-1.1,3.5c-1,0.6-1.7,1.7-2.1,2.9
	c-5.2,10-10.1,20.2-15.4,30.1c-8.6,15.8-17.4,31.3-26.1,47c-2.4,4.3-4.8,8.3-7.1,12.6c-0.3,0.6-0.5,1.3-0.5,2.1l-2.1,25.3l-3,30.7
	l-2.7,26.2c-1.3,11.9-2.5,23.7-3.7,35.7c-0.5,4.7-1,9.3-1.4,14c-0.1,0.5,0,1-0.2,1.3c-2.3,4-1.8,8.8-2.3,13.2
	c-1.6,15.4-2.9,30.8-4.5,46.3c-1.2,10.9-2.6,21.8-3.9,32.7c-0.4,2.9-0.7,6-1,8.9c-0.3,2.3-0.7,4.6-1.4,6.7c-0.8,2.6-0.8,5.6-1.2,8.3
	c-2.4,16.2-4.7,32.3-7.1,48.5c-1.8,12.5-3.9,24.8-5.8,37.3l-2.1,13.5c-0.1,0.6-0.2,1.2-0.4,1.7l-6.8,14.8
	c-9.7,21.3-19.5,42.6-29.3,63.9c-1,2.3-2,4.7-3.1,6.9c-0.7,1.3-2.1,1.8-3.2,1c-0.4-0.3-0.6-0.6-0.8-1.1c-3.1-6.6-6.1-13.2-9.1-19.8
	l-12-27l-0.8-1.7c-2,3.4-3.8,7-5.3,10.8c-1.4,0.4-1.7-1.1-2-2.3l-5.4-18.2c-1.8-6.5-3.6-13.1-5.5-19.6c-0.4-1-0.9-2-1.4-2.9
	c-0.4-0.8-0.6-1.8-0.8-2.7c-1.7-13.2-3.4-26.4-5.2-40l-34.1-6.7l-15.5-31.1c-13.9-28.3-27.8-56.7-41.8-84.8
	c-1.3-2.7-1.9-5.9-1.6-9.1c0.1-2.6,0.4-5,0.5-7.6l0.9-24.2l1.5-29.5c0.2-4,0.5-8.1,0.8-12c0-1,0.2-1.8-0.8-2.4
	c-1-0.6-0.7-1.5-0.9-2.3c-3.7-13.6-7.5-27.2-11.1-40.9c-4.2-16.2-8.4-32.3-12.4-48.6c-2.3-9.7-5.7-18.7-8.6-28L4.1,268.7
	C2.6,264,1.3,259.1,0,254.8z M152.7,648.5c1.2,1.2,2.3,1,3.6-0.1l21.9-16.4l3-2.2l-1-1.2c-9.3-9.3-18.4-18.7-27.8-27.9
	c-12.1-11.6-24.1-23.4-35.7-35.9c-0.7-0.7-1.5-1.1-2.3-1.2c-2.7-0.5-5.4-0.7-8.1-1.1L94,561.1l-15.9-2.2c-3.6-0.6-7.3-1.2-10.9-1.6
	c-1.3-0.1-2.6-0.9-3.8,0.1l58.8,116.9l1.7-1.1l25.5-19.7l2.6-2.1C153.8,650.9,153,649.6,152.7,648.5z M115.1,561l2-2.6l24.6-35.1
	c6.4-9.2,12.9-18.2,19.5-27.3c6.6-9.1,11.8-16.4,17.8-24.5c1.5-2.1,2.5-4,1.8-6.9c-0.1-0.8-0.1-1.6,0-2.3c-0.2-8.9-0.3-18-0.6-26.9
	c-0.2-9.4,0.1-18.7,0.8-28c0.1-1-0.2-1.9-0.9-2.4l-8-8.4L143.6,366c-13.7-14.6-27.8-28.5-40.7-44.1c-0.4-0.5-0.8-0.9-1.3-1.2
	c-4.4-2.8-8.9-5.4-13.2-8.2l-46-29.5l-35-22.5l-5.8-3.8c0.5,1.5,0.7,2.4,1,3.3c3.7,11,7.5,21.9,11,33l28.2,88.7
	c0.2,0.7,0.6,1.3,1,1.8l36.5,46.3c5.5,6.9,10.9,13.7,16.3,20.7c1.8,2.3,3.6,4.8,5.3,7.2c1.7,2.4,1.2,2,1,2.6c-0.2,1-0.2,2.1,0,3.2
	c1,6.7,2,13.3,2.9,20.2c3.3,24.6,6.6,49.2,9.7,73.9C114.6,558.5,114.8,559.4,115.1,561z M39.2,186l-23.5,23c-0.2,1.5-0.4,3-0.8,4.4
	L5,244.1c-1.2,3.8-2.6,7.6-3.9,11.4c1,0.6,1.7,1.2,2.5,1.6c6.1,3.8,12.3,7.5,18.4,11.4l46.1,29.1l32.5,20.6c0.8,0.4,1.6,0.6,2.5,0.6
	l5-0.6l19-2.8c5-0.7,10.1-1.2,15.2-1.8l21.6-2.8l15.9-1.8l22.1-2.8l16.7-2l19.4-2.3l9.3-1.1l-47.2-114.8l-12.1,0.7
	c-0.8,0-1.2,0.6-1.6,1.5c-0.8,1.8-1.7,3.6-2.6,5.3c-4.5,7.3-8.9,14.7-13.6,21.8c-6.5,9.7-13.2,19-19.7,28.4
	c-2.5,3.4-2.5,3.4-5.4,1.7l-44.8-25l-39.8-22.2L39.2,186z M181,470.8l-63.3,91.4c1.4-0.2,2.7-0.6,4-1.2l86.4-35.2
	c0.5-0.1,1-0.4,1.5-0.7c0.9-1,2-1.6,3.2-1.8l16.1-5.6l36.4-12l4.8-1.7c0.6-5.6,1.1-11,1.7-16.4c1.1-11.7,2.3-23.4,3.5-35.1
	s2.5-24.4,3.8-36.6c1-9.5,2-19.1,3.1-28.6c0.6-5,1.4-10,2-15.1c0.4-1.2,0.2-2.5-0.4-3.5l-11.4-17c-3.2-4.5-5.8-9.7-9.3-13.7
	c-12.4,12.6-25.7,23.6-38.9,34.5c-13.2,10.9-26.8,21.5-40.3,32.4c0.2,2.9,0.6,6.1,0.6,9.3l-0.3,44.1c-0.1,2.9-0.2,6-0.2,9.1
	c0,3.1-1.6,2.4-1.6,4.3L181,470.8z M249.3,305.5h-1l-17,2.3l-11.9,1.2l-23.5,2.7l-13.4,1.3l-21.4,2.3l-6.4,0.6l-19.5,2.1l-10,0.9
	l-20.3,1.7h-1.3l77,81.9l0.9-1.5l0.6,1c13.3-11.5,26.3-23,39.5-34.1s26.4-22.3,40.3-32.4L249.3,305.5z M201,185l47.5,114.1
	c9.8-18.1,19.2-35.9,28.8-53.5s19.4-35,29.2-52.6l-10.1-6.4c-8.9-5.3-17.5-11.6-25.5-18.8c-1.2-1-2.6-1.6-4-1.6
	c-4.3-0.2-8.6-0.4-12.9-0.7c-4.3-0.4-8.8-0.9-13.1-1.1c-1.4-0.2-2.9,0-4.2,0.6l-27.3,15.5L201,185z M242.4,716.5
	c1.7-11.1,3.3-21.9,4.9-32.7l9-59.8c1.3-9.2,3.5-18.2,4.2-27.5c0.1-1.1,0.3-2.2,0.4-3.7l-1.7,0.7l-71.5,33.2
	c-0.6,0.4-1.3,0.6-1.6,1.2c-1,1.7-2.3,3.1-3.9,4l-23.8,17.6l-2.2,1.8l5.2,3.1c0.5,0.4,1.2,0.6,1.4,1.1c0.2,0.5,2.1,2.2,3.3,3.2
	s3.5,2.3,5.2,3.7c20.6,15.5,41.2,31,61.7,46.6C236.1,711.3,239,713.8,242.4,716.5L242.4,716.5z M183.4,623.8
	c9.4-31.8,16.7-64.5,26.8-96.2l-91.3,36.1C141.3,582.8,161.7,604.2,183.4,623.8L183.4,623.8z M100.4,461L86,467.2l-17.6,7.5
	c-1.2,0.5-1.7,1-1.8,2.6c0,5.1-0.3,10.4-0.4,15.5s-0.3,9.8-0.5,14.6c-0.3,9.2-0.6,18.4-1,27.5l-0.6,17.3c0,1.1,0.1,2.2,0.1,3.3
	l48.3,5.3C108.5,527.3,104.4,494.3,100.4,461L100.4,461z M307.1,196.7c-16.5,35.1-36.4,67.1-54.2,101c27.2-9.2,54.1-18.4,81.4-25.9
	l0.4-0.2l0.2-0.2v-0.4C325.5,246.6,315.1,222.6,307.1,196.7z M336.4,276.1c-27.6,8.9-55.2,17.6-83.1,24.6l-1.6,0.6
	c0,0.7,0.1,1.6-0.2,2s-0.3,2.6,0.2,3.8c3.7,9.1,7.4,18.2,11.2,27.3c0.5,1.2,1.1,2.3,1.9,3.3c2.6,3.8,5.3,7.5,8,11.3l11.8,16.6
	C302,335.8,318,305.1,336.4,276.1z M162.4,723.5h4.5l19-1.1l12.5-0.6l16.9-0.6l18.9-0.6l4.4-0.2c-27.5-22.5-56.1-43-83.2-66.8
	c0.6,7.7,1.1,15.1,1.6,22.3c0.2,2.9,0.2,5.9,0,8.8c-0.3,1.9-0.2,3.9,0.1,5.8c1.4,8.3,2.7,16.6,4,25C161.5,718,162,720.7,162.4,723.5
	z M261.4,589.3c2-26.1,5.8-52,9.6-78c-27.3,37.7-54.2,75.8-81.9,113.3L261.4,589.3z M266.2,164c-1.1-2.4-2.1-4.5-2.9-6.6l-8.9-21.4
	c-4.5-10.8-9.8-21.2-12.9-32.9c-0.2-0.7-0.6-1.4-1.1-2c-3.9-5.1-7.8-10.5-12-15.5s-10.5-12-15.6-18.1c-2.4-2.8-4.3-6.4-6.8-9.1
	c-2.3-2.4-4.1-5.3-5.4-8.7L183.2,7.2l-0.7-1.5c0.2,2.1,0.7,4,1,6c3.6,18.2,7.2,36.5,10.5,54.8c0.8,4.4,2.8,8.4,5.6,11.3
	c9.8,11,19.4,22.4,29.1,33.7c1.4,1.6,2.3,3.7,2.7,6l2.1,11.1c1.8,11.3,3.6,22.5,5.5,33.9L266.2,164z M212.2,524.8
	c-6.2,31.1-14.9,60.8-22.1,91.1l78-108.7l-3.5,1.1l-42.5,13.2C218.7,522.4,215.3,523.7,212.2,524.8L212.2,524.8z M203.1,802.4
	c0.2-0.6,0.4-1.2,0.5-1.8c0.6-7.1,1.3-14.1,1.9-21.2c0.6-7.1,1-12.6,1.9-18.8c1.7-11.3,3.8-22.5,5.6-33.8c0.2-1,0.3-2,0.4-3.1h-2.9
	l-33.7,0.6l-13,0.2l-1.7,0.2c4.4,13.6,8.6,26.9,13,40.6c1-2.4,1.8-4.5,2.5-6.6c0.7-2.1,1-2.7,2.4-2.8c1.4-0.1,1.6,1.3,2.1,2.4
	c6,12.5,12,24.8,17.9,37.3L203.1,802.4z M42.6,386.2c7.9,29.4,15.6,58.5,23.5,88.1l33-15.2L42.6,386.2z M160.2,141.7l67.4-28.6
	l-32-37.2c-0.2,1-0.3,2-0.5,2.9c-1.7,8.8-3.3,17.6-5,26.4c-0.4,2-0.6,4.2-2.8,4.7c-0.4,0.1-0.8,0.9-1.2,1.3L165,136L160.2,141.7z
	 M239.6,723.5c-8.3-0.1-16.4-0.5-24.4,0.5c-0.9,11.5-1.6,22.9-2.8,34.1s-3,22.6-4.6,33.9C218.3,769.2,227.3,745.3,239.6,723.5z
	 M155.2,680.9c-0.3-9.4-0.5-18.7-0.7-28.4l-32.1,22.8L155.2,680.9z M119.2,72c1.1,3.4,2.2,6.2,2.9,9.3c0.6,2.8,2.3,5.1,4.6,6
	c3.2,1.5,6.3,3.5,9.6,5.4c-2.5-7.6-3.2-11.5-2.6-14.2L119.2,72z"/>
<path class="st0" d="M152,651.4c0-1.1-0.2-2.3,0.7-2.9C153.6,647.9,153.8,650.9,152,651.4z"/>
</svg>
