<svg id="Layer_1" data-name="Layer 1" xmlns="http://www.w3.org/2000/svg" viewBox="0 0 340.9 660.6"><defs><style>.cls-1{fill:#fff;}</style></defs><path d="M128.9,298.5c.6-1.2,1.1-2,1.4-2.8,3.9-10.1,7.7-20.1,11.5-30.2l1.5-4.2a3,3,0,0,1,.8-.8l22.6-19a4.1,4.1,0,0,1,1.1-.7,26.1,26.1,0,0,0,2.8,1.7L210,260.3l51,23,13.2,6.1,1.5.6c3.5-4.7,6.8-9.5,10.3-14.1,7.7-9.9,15.5-19.7,23.3-29.5,1.3-1.6,2.9-3,4.3-4.5a2.4,2.4,0,0,1,2.7-.5c1.5.5,3.3.1,5,0l7.3-.8a5,5,0,0,0,2.1-.5l34.7-16.6h.1c-2.3-13.2-4.5-26.2-6.8-39.5a7.6,7.6,0,0,0-2.1.1c-14,4.9-27.9,9.9-41.9,14.7-8.8,3.1-17.5,6-26.3,8.8-1,.3-2.1,1.2-3.3-.1,4.6-5.1,9.9-9.5,14.8-14.2s10.1-9.1,14.8-13.4a19.5,19.5,0,0,1,.5-3.7c2.2-7.9,4.5-15.8,6.8-23.7a8.2,8.2,0,0,0,.2-4.4c-3.5-14.9-7-29.9-10.4-44.8-.6-2.7-1.1-5.4-1.7-8.2-.2-.7-.4-1.5-.6-2.5l-1.7,1.6-18.1,18.2-9,9.3c-.2.3-.6.5-.7.9-3.2,7.4-7.8,14.1-11.8,21.1-1.5,2.8-3.2,5.5-4.9,8.4l3.3,5.7a22.7,22.7,0,0,1,2.8,8.8c.3,2.5-.3,3.3-2.7,2-4.2-2.3-8.5-4.8-12.9-6.7-2.6-1.1-3.5-2.9-4.2-5.3s-1.3-3.9-2-6.1l-1.3,1.5-20.8,28.9a12.2,12.2,0,0,1-2.7,2.4l-32.2,22.6a7,7,0,0,0-2.8,3.5c-1.4,3.2-3.2,6.2-4.9,9.3-3.9,6.9-7.8,13.8-11.6,20.7a4.6,4.6,0,0,1-1.7,1.7,16,16,0,0,1,1-2.3c5.4-10.1,10.7-20.2,16.2-30.2a10,10,0,0,1,2.1-2.5l34.9-25.2a9.5,9.5,0,0,0,2-2c7.2-10.3,14.3-20.7,21.4-31.1,5.3,1.2,10.1,3.3,14.8,4.8,1.4-2.8,2.6-5.5,4.1-8.1,3.9-7.2,7.8-14.3,11.8-21.4a27.3,27.3,0,0,1,3.8-4.6c3.3-3.6,6.6-7.1,10-10.6l16-16.2,1.6-1.4c.9,0,1.6,1.2,2.7.4s1.1.8,1.5,1.3c1.8,2.9,3.6,5.7,5.2,8.6,5.7,10.3,11.3,20.6,16.7,31a26.4,26.4,0,0,0,4.9,6.5c5,4.9,9.6,10,14.6,14.9s12.4,12,18.6,18a9.6,9.6,0,0,1,1.8,2.2l13,26.1,9.4,18.6c.8,1.7,1.7,3.3,2.3,5a3.3,3.3,0,0,0,1.9,2.2c9.5,4.3,18.3,9.9,27,15.5l7.9,5a6.1,6.1,0,0,1,1.5,1.7c.6,1.3,1.1,2.6,1.8,3.9,5,8.5,9.1,17.3,13.3,26.2s9.4,20.6,14.1,30.9a50.5,50.5,0,0,1,2,4.9c.6,1.7.4,2.3-1.1,2.9a4.4,4.4,0,0,0-2.1,2.4c-5.2,8.2-10.1,16.5-15.4,24.6-8.6,12.9-17.4,25.6-26.1,38.4-2.4,3.5-4.8,6.8-7.1,10.3a3.1,3.1,0,0,0-.5,1.7l-2.1,20.7-3,25.1-2.7,21.4c-1.3,9.7-2.5,19.4-3.7,29.2-.5,3.8-1,7.6-1.4,11.4-.1.4,0,.8-.2,1.1-2.3,3.3-1.8,7.2-2.3,10.8-1.6,12.6-2.9,25.2-4.5,37.8-1.2,8.9-2.6,17.8-3.9,26.7-.4,2.4-.7,4.9-1,7.3a26.1,26.1,0,0,1-1.4,5.5c-.8,2.1-.8,4.6-1.2,6.8-2.4,13.2-4.7,26.4-7.1,39.6-1.8,10.2-3.9,20.3-5.8,30.5l-2.1,11a5.7,5.7,0,0,1-.4,1.4l-6.8,12.1Q353,718,338.3,744.1c-1,1.9-2,3.8-3.1,5.6a2.3,2.3,0,0,1-4-.1c-3.1-5.4-6.1-10.8-9.1-16.2l-12-22.1-.8-1.4a60.4,60.4,0,0,0-5.3,8.8c-1.4.3-1.7-.9-2-1.9l-5.4-14.9c-1.8-5.3-3.6-10.7-5.5-16a18.8,18.8,0,0,0-1.4-2.4,8.3,8.3,0,0,1-.8-2.2c-1.7-10.8-3.4-21.6-5.2-32.7l-34.1-5.5-15.5-25.4c-13.9-23.1-27.8-46.3-41.8-69.3a12.3,12.3,0,0,1-1.6-7.4c.1-2.1.4-4.1.5-6.2l.9-19.8,1.5-24.1c.2-3.3.5-6.6.8-9.8,0-.8.2-1.5-.8-2s-.7-1.2-.9-1.9c-3.7-11.1-7.5-22.2-11.1-33.4-4.2-13.2-8.4-26.4-12.4-39.7-2.3-7.9-5.7-15.3-8.6-22.9L133,309.9C131.5,306,130.2,302,128.9,298.5ZM281.6,620.2c1.2,1,2.3.8,3.6-.1l21.9-13.4,3-1.8-1-1c-9.3-7.6-18.4-15.3-27.8-22.8-12.1-9.5-24.1-19.1-35.7-29.3a4.8,4.8,0,0,0-2.3-1c-2.7-.4-5.4-.6-8.1-.9l-12.3-1.1L207,547c-3.6-.5-7.3-1-10.9-1.3-1.3-.1-2.6-.7-3.8.1l58.8,95.5,1.7-.9,25.5-16.1,2.6-1.7C282.7,622.2,281.9,621.1,281.6,620.2ZM244,548.7l2-2.1,24.6-28.7c6.4-7.5,12.9-14.9,19.5-22.3s11.8-13.4,17.8-20c1.5-1.7,2.5-3.3,1.8-5.6a6,6,0,0,1,0-1.9c-.2-7.3-.3-14.7-.6-22a194,194,0,0,1,.8-22.9,2,2,0,0,0-.9-2l-8-6.9-28.5-24.9c-13.7-11.9-27.8-23.3-40.7-36a4.1,4.1,0,0,0-1.3-1c-4.4-2.3-8.9-4.4-13.2-6.7l-46-24.1-35-18.4-5.8-3.1c.5,1.2.7,2,1,2.7,3.7,9,7.5,17.9,11,27l28.2,72.5a4.9,4.9,0,0,0,1,1.5l36.5,37.8c5.5,5.6,10.9,11.2,16.3,16.9,1.8,1.9,3.6,3.9,5.3,5.9s1.2,1.6,1,2.1a5.7,5.7,0,0,0,0,2.6c1,5.5,2,10.9,2.9,16.5q5,30.1,9.7,60.4C243.5,546.7,243.7,547.4,244,548.7ZM168.1,242.3l-23.5,18.8a21.8,21.8,0,0,1-.8,3.6l-9.9,25.1c-1.2,3.1-2.6,6.2-3.9,9.3,1,.5,1.7,1,2.5,1.3,6.1,3.1,12.3,6.1,18.4,9.3L197,333.5l32.5,16.8a5.6,5.6,0,0,0,2.5.5l5-.5,19-2.3c5-.6,10.1-1,15.2-1.5l21.6-2.3,15.9-1.5,22.1-2.3,16.7-1.6,19.4-1.9,9.3-.9L329,242.2l-12.1.6c-.8,0-1.2.5-1.6,1.2a49.2,49.2,0,0,1-2.6,4.3c-4.5,6-8.9,12-13.6,17.8-6.5,7.9-13.2,15.5-19.7,23.2-2.5,2.8-2.5,2.8-5.4,1.4l-44.8-20.4-39.8-18.1ZM309.9,475l-63.3,74.7a16.7,16.7,0,0,0,4-1L337,519.9a5.2,5.2,0,0,0,1.5-.6,5.9,5.9,0,0,1,3.2-1.5l16.1-4.6,36.4-9.8L399,502c.6-4.6,1.1-9,1.7-13.4,1.1-9.6,2.3-19.1,3.5-28.7S406.7,440,408,430c1-7.8,2-15.6,3.1-23.4.6-4.1,1.4-8.2,2-12.3a3,3,0,0,0-.4-2.9l-11.4-13.9c-3.2-3.7-5.8-7.9-9.3-11.2-12.4,10.3-25.7,19.3-38.9,28.2s-26.8,17.6-40.3,26.5c.2,2.4.6,5,.6,7.6l-.3,36c-.1,2.4-.2,4.9-.2,7.4s-1.6,2-1.6,3.5Zm68.3-135.1h-1l-17,1.9-11.9,1L324.8,345l-13.4,1.1L290,348l-6.4.5-19.5,1.7-10,.7-20.3,1.4h-1.3l77,66.9.9-1.2.6.8c13.3-9.4,26.3-18.8,39.5-27.9s26.4-18.2,40.3-26.5Zm-48.3-98.4,47.5,93.2c9.8-14.8,19.2-29.3,28.8-43.7s19.4-28.6,29.2-43l-10.1-5.2a164.6,164.6,0,0,1-25.5-15.4,6.6,6.6,0,0,0-4-1.3c-4.3-.2-8.6-.3-12.9-.6s-8.8-.7-13.1-.9a9.7,9.7,0,0,0-4.2.5l-27.3,12.7Zm41.4,434.3c1.7-9.1,3.3-17.9,4.9-26.7l9-48.9c1.3-7.5,3.5-14.9,4.2-22.5.1-.9.3-1.8.4-3l-1.7.6-71.5,27.1c-.6.3-1.3.5-1.6,1a10.4,10.4,0,0,1-3.9,3.3l-23.8,14.4-2.2,1.5,5.2,2.5c.5.3,1.2.5,1.4.9s2.1,1.8,3.3,2.6,3.5,1.9,5.2,3c20.6,12.7,41.2,25.3,61.7,38.1C365,671.5,367.9,673.6,371.3,675.8Zm-59-75.8c9.4-26,16.7-52.7,26.8-78.6l-91.3,29.5C270.2,566.5,290.6,584,312.3,600Zm-83-133-14.4,5.1-17.6,6.1c-1.2.4-1.7.8-1.8,2.1,0,4.2-.3,8.5-.4,12.7s-.3,8-.5,11.9c-.3,7.5-.6,15-1,22.5l-.6,14.1c0,.9.1,1.8.1,2.7l48.3,4.3C237.4,521.2,233.3,494.2,229.3,467ZM436,251c-16.5,28.7-36.4,54.8-54.2,82.5,27.2-7.5,54.1-15,81.4-21.2l.4-.2.2-.2v-.3C454.4,291.8,444,272.2,436,251Zm29.3,64.9c-27.6,7.3-55.2,14.4-83.1,20.1l-1.6.5c0,.6.1,1.3-.2,1.6s-.3,2.1.2,3.1c3.7,7.4,7.4,14.9,11.2,22.3a12,12,0,0,0,1.9,2.7c2.6,3.1,5.3,6.1,8,9.2L413.5,389C430.9,364.7,446.9,339.6,465.3,315.9Zm-174,365.6h4.5l19-.9,12.5-.5,16.9-.5,18.9-.5,4.4-.2c-27.5-18.4-56.1-35.1-83.2-54.6.6,6.3,1.1,12.3,1.6,18.2a34.7,34.7,0,0,1,0,7.2,12.3,12.3,0,0,0,.1,4.7c1.4,6.8,2.7,13.6,4,20.4C290.4,677,290.9,679.2,291.3,681.5Zm99-109.7c2-21.3,5.8-42.5,9.6-63.7-27.3,30.8-54.2,61.9-81.9,92.6Zm4.8-347.5c-1.1-2-2.1-3.7-2.9-5.4l-8.9-17.5c-4.5-8.8-9.8-17.3-12.9-26.9a4.2,4.2,0,0,0-1.1-1.6c-3.9-4.2-7.8-8.6-12-12.7s-10.5-9.8-15.6-14.8c-2.4-2.3-4.3-5.2-6.8-7.4a20.7,20.7,0,0,1-5.4-7.1L312.1,96.2l-.7-1.2c.2,1.7.7,3.3,1,4.9,3.6,14.9,7.2,29.8,10.5,44.8a16.7,16.7,0,0,0,5.6,9.2c9.8,9,19.4,18.3,29.1,27.5a9.5,9.5,0,0,1,2.7,4.9l2.1,9.1c1.8,9.2,3.6,18.4,5.5,27.7Zm-54,294.8c-6.2,25.4-14.9,49.7-22.1,74.4l78-88.8-3.5.9L351,516.4C347.6,517.2,344.2,518.2,341.1,519.1ZM332,746a7.9,7.9,0,0,0,.5-1.5c.6-5.8,1.3-11.5,1.9-17.3s1-10.3,1.9-15.4c1.7-9.2,3.8-18.4,5.6-27.6a14.5,14.5,0,0,0,.4-2.5h-2.9l-33.7.5-13,.2-1.7.2c4.4,11.1,8.6,22,13,33.2,1-2,1.8-3.7,2.5-5.4s1-2.2,2.4-2.3,1.6,1.1,2.1,2c6,10.2,12,20.3,17.9,30.5ZM171.5,405.9c7.9,24,15.6,47.8,23.5,72l33-12.4ZM289.1,206.1l67.4-23.4-32-30.4c-.2.8-.3,1.6-.5,2.4-1.7,7.2-3.3,14.4-5,21.6-.4,1.6-.6,3.4-2.8,3.8-.4.1-.8.7-1.2,1.1l-21.1,20.2Zm79.4,475.4c-8.3-.1-16.4-.4-24.4.4-.9,9.4-1.6,18.7-2.8,27.9s-3,18.5-4.6,27.7C347.2,718.8,356.2,699.3,368.5,681.5Zm-84.4-34.8c-.3-7.7-.5-15.3-.7-23.2l-32.1,18.6Zm-36-497.6c1.1,2.8,2.2,5.1,2.9,7.6a6.9,6.9,0,0,0,4.6,4.9c3.2,1.2,6.3,2.9,9.6,4.4-2.5-6.2-3.2-9.4-2.6-11.6Z" transform="translate(-128.9 -90.3)"/><path class="cls-1" d="M280.9,622.6c0-.9-.2-1.9.7-2.4S282.7,622.2,280.9,622.6Z" transform="translate(-128.9 -90.3)"/></svg>