<svg xmlns="http://www.w3.org/2000/svg" viewBox="0 0 397.6 551.7"><defs><style>.cls-1{fill:#fff;}</style></defs><g id="Layer_1" data-name="Layer 1"><path d="M187.5,159c13.2-.1,26.4-.3,39.5,1.9,4.5.8,9,1.2,13.4,2.3,7.6,1.7,15.1,3.7,22.6,5.8,2.8.8,5.7,1.7,7.7,4.2.3.4.9.5,1.5.7,4.2,1.7,8.5,3.2,12.6,5.2a214.2,214.2,0,0,1,26.1,14.5,190.1,190.1,0,0,1,39.2,34.6,188.4,188.4,0,0,1,28.3,43.2,177.8,177.8,0,0,1,10.9,29c1.8,6.4,3.2,12.9,4.7,19.3a30.6,30.6,0,0,1,1,4.1c.1,1.4,0,2.8.2,4.2.3,3.4,1,6.7,1.2,10.1.3,5.5.3,11,.4,16.5a174.4,174.4,0,0,1-3.6,37.4,179.4,179.4,0,0,1-9.1,32A197.6,197.6,0,0,1,363,464.2a201.5,201.5,0,0,1-36.7,40.4,186.4,186.4,0,0,1-33.4,22.2A170.3,170.3,0,0,1,269,537.4l-11.2,4.1c-2.9,1-5.8,2-8.7,2.7-4.6,1-9.1,1.8-13.7,2.4-8.1,1.1-16.2,2-24.3,2.9-2.7.4-5.4.2-7.9.8a33.2,33.2,0,0,1-10.4,1.1c-6.1-.4-12.1-.4-18.1-1.1a189.8,189.8,0,0,1-26.9-4.9,157.9,157.9,0,0,1-31.2-11.5c-7.3-3.6-14.4-7.7-21.3-12a171.1,171.1,0,0,1-26.8-21.2,180.7,180.7,0,0,1-27.8-33.8,235.5,235.5,0,0,1-21.5-41.4q-2.8-7.3-5.1-15a143.6,143.6,0,0,1-3.7-14.7c-1.2-5.4-2.2-10.9-2.9-16.5s-1.1-10.7-1.3-16.1c-.2-7.4-.3-14.8.1-22.2a189.5,189.5,0,0,1,3.4-24.8,219.1,219.1,0,0,1,6.4-24.1,232.5,232.5,0,0,1,9.2-24,213.2,213.2,0,0,1,16-28.8,192.1,192.1,0,0,1,19.6-24.4l2.1-2.7c-1.7-.9-3.4-1.4-4.4-2.5a14.8,14.8,0,0,1-2.5-4.4A18.1,18.1,0,0,1,55,191.6a5.4,5.4,0,0,0,0-1.8c-1.2-.8-2.6-1.5-3.8-2.4-3.4-2.5-6.9-4.9-10.1-7.7a68.9,68.9,0,0,1-13.2-16.2,66.9,66.9,0,0,1-8.4-22c-.1-1.1-.6-2.4-1.7-2.2-2.6.4-5.1-.6-7.6.3s-6.7-.5-9.2-3a2.6,2.6,0,0,1-.7-3.1l1.9-4.3L.6,127.8c-1.2-1.1-1.8-2.7-.9-4.1a32.8,32.8,0,0,1,4.2-5.6c1.2-1.1,2.1-2,2-3.8a4.6,4.6,0,0,1,2.5-4.5c.7-.4,1.9-.1,2.7-.6,2.8-1.8,5.5-1.7,8,.8.5-.7,1-1.1,1.1-1.6.9-2.5,1.6-5,2.6-7.5a54.8,54.8,0,0,1,12-19A48.5,48.5,0,0,1,56.5,69.2a3.2,3.2,0,0,0-1.3-1c-2.3-1.8-4.6-3.6-6.8-5.5a31.2,31.2,0,0,1-3.2-4,33,33,0,0,1-6.3-16.3,18.7,18.7,0,0,0-.4-2.5A12.7,12.7,0,0,1,39.9,30c1.7-2.8,6.9-5.7,10.6-3.9a37.5,37.5,0,0,1,11.9,8.5l3.2,3.6c1.1,1.2,2.1,1.2,3-.1s.4-1,.7-1.5a11.2,11.2,0,0,1,1.8-2.8,5.2,5.2,0,0,0,1.8-3.4,9,9,0,0,1,3.6-7.1c2.6-1.9,5.5-3.5,8.9-3.5a69.8,69.8,0,0,1,7.9.5,16.7,16.7,0,0,1,2.9.4,8.8,8.8,0,0,0-.1-2.9c-1.1-2-.2-3.7.7-5.3s1.9-3.5,4.2-4,3-.3,4.2-1a16.3,16.3,0,0,1,9.4-2.6c4.1,0,8.1.4,11.8,2.3,2.1,1,4.2,2.2,6.2,3.3,1.1-2,2.1-3.7,3-5.6s3.9-4,6.8-4.5l4.8-.6c6.5-.6,12.3,1,16.8,5.9a19.4,19.4,0,0,1,5.2,10.5,18.3,18.3,0,0,1,3.2-.2,20.7,20.7,0,0,1,16.4,10.4,12.6,12.6,0,0,1,1.3,3.4c1,3.2.4,6.3-.4,9.5-1.8,7.3-6.7,11.9-13,15.2l-5.3,2.8c1.5,1.1,2.7,1.9,3.7,2.8,5.4,4.7,10.8,9.6,15,15.5,3,4.3,5.2,8.7,2.2,14a6.5,6.5,0,0,0-.4,1.3c-1.8,4.4-4.6,7.8-9.3,9.4a24,24,0,0,0-2.7,1.6,46.8,46.8,0,0,1-12.8,6,11.3,11.3,0,0,0-2.5,1.2l3.6,8.1c2.5,5.5,4,11.2,3.2,17.3a56.7,56.7,0,0,1-1.5,6.9,13.4,13.4,0,0,1-7.4,9.5l-1.4,1.2a15.8,15.8,0,0,0,1.8,1.3c2.2,1.2,4.5,2.3,6.7,3.7s2.8.9,4.5.2a92.3,92.3,0,0,1,10.5-3.5c1.5-.4,3.2-.6,4.2,1.1s-3.6,1.4-4.7,4.1Zm-95,103.5a17.4,17.4,0,0,1-8.1,4.4c-3.4.7-6.8,1.9-10.4,1.7a3.2,3.2,0,0,0-2.3,1.3,27.7,27.7,0,0,0-2,5.3c-.5,1.9.2,2.9,2.1,3.8s4.8.9,7.2.5c4-.6,8-1.3,11.7-3.4s6.1-.5,8.3,1.9l.5.7c2.5,3,2.9,3.1,6.5,1.7a33.7,33.7,0,0,0,9.3-6c3.2-2.9,6.7-5.5,10-8.4a9.4,9.4,0,0,1,7.5-2.1c7.4,1,14.9,1.8,22.2,3.2a99.5,99.5,0,0,1,16,4.3,36.3,36.3,0,0,1,18.9,14.3,11.7,11.7,0,0,1,1.9,6.8c-.2,8.3.6,7.2,6,10.4a18.8,18.8,0,0,1,8.5,10.7,57.5,57.5,0,0,1,2.7,13.6c.8,7.1-2.1,12.6-7,17.2a14.3,14.3,0,0,1-7,3.1l-3.9.7a8.5,8.5,0,0,0-6.3,4.5c-.7,1.5-1.8,2.9-2.4,4.5-1.7,4.4-5.4,5.9-9.7,6.1a25.9,25.9,0,0,1-5.6-.5l-15.6-4.4c-1.4-.4-2.8-.7-4.1-1.2a8.7,8.7,0,0,0-5.3.1,5,5,0,0,0-4,3.3c-1.2,3-3.6,4.3-6.8,4.2h-3.4a7.1,7.1,0,0,0-7.4,6.4,22.4,22.4,0,0,0,0,7.3c.5,2.5.4,2.8-1.9,3.7-4.5,1.8-6.3,5.8-8.3,9.5-.7,1.3-.5,3.6,0,5.2,1.3,3.9,3.1,7.6,4.7,11.3s3.3,6.8,4.8,10.3.5,4.7-.3,7.2a73.7,73.7,0,0,0-2.9,11.2,17.3,17.3,0,0,0,.8,7.1c1.7,5.1.6,10.1-.5,15.1a52.8,52.8,0,0,0-1.3,6.7,8.6,8.6,0,0,1-4.1,6.8c-3.6,2.5-7.4,3.6-11.4,1-2.3-1.6-4.7-3.2-6.8-5-4.2-3.5-7.5-7.9-11-11.9a62,62,0,0,0-8.2-8c-1.8-1.5-4.2-2.4-6.4-3.5a20.6,20.6,0,0,1-8-7.5,70.5,70.5,0,0,1-7.6-16.8c-1.9-6.1-4.3-12-6.4-18a49.4,49.4,0,0,1-1.3-5.2c-1.5-5.5-3.4-10.9-4.2-16.5a49.4,49.4,0,0,0-7.1-18.7c-2.3-3.7-4.4-7.5-5.2-11.9s-.7-6,1-8.8,2.3-5,3.4-7.5c-7.7-3.5-10.3-10.2-11.2-18a22.2,22.2,0,0,1,3.4-14.2,34.4,34.4,0,0,0,2.5-5.4c-2.5.5-3.9,1.2-4.5,3.5-1.9,7.2-3.4,14.5-4.8,21.9-2.7,14.5-2.6,29.1-2.3,43.7.2,12.4,2.4,24.5,5.3,36.5a195.5,195.5,0,0,0,10.6,31.6,196.2,196.2,0,0,0,44,63.1,166.5,166.5,0,0,0,26.1,20.6c5,3.1,10,5.9,15,8.8a39.5,39.5,0,0,0,3.7,1.7l.7-.4c3.2-4.2,7.5-3.7,11.7-2.5,6,1.7,11.9,3.9,17.9,5.9a14.4,14.4,0,0,0,9.4-.1,68.9,68.9,0,0,1,11.1-2.6c3-.4,5.7,1.1,8.4,2.4a59.3,59.3,0,0,0,19.5,5.7c6,.8,12.1.8,18.1,1.9a27.2,27.2,0,0,0,15.4-1.3,20.2,20.2,0,0,0,4.8-3c3.3-2.6,6.5-5.5,9.9-8.1,1.7-1.3,3.7-2,5.9-1s1.8,1.7.9,3.4-2.6,5.2-3.8,7.9a4.1,4.1,0,0,0-.3,2.2c.2,1.5,1,2.1,2.6,1.8a27.3,27.3,0,0,0,4.1-1,202.6,202.6,0,0,0,36-15A197.7,197.7,0,0,0,361.8,461a162.4,162.4,0,0,0,13.4-24.1c3.1-6.9,6-13.8,8.5-20.9a141.3,141.3,0,0,0,6.5-25c1.1-7.8,2.2-15.6,3.1-23.4.3-2.5,0-5.1.1-7.7a170,170,0,0,0-.9-24.7,38.5,38.5,0,0,0-.8-4.7l-1.9,2.1c-3.2,5.2-6.4,10.3-9.7,15.4-1.8,2.9-3.9,5.6-5.8,8.5s-2.4,4-3.5,5.8.2.8.3.9c3.5,3.3,4.5,7.8,4.8,12.2a67.4,67.4,0,0,1-1.3,19,42,42,0,0,1-10.1,19.2,55.3,55.3,0,0,1-11.2,9.9c-4.9,3.2-7.4,8.2-9.3,13.3a56.5,56.5,0,0,1-5.3,10.4c-4.1,5.9-8.1,11.9-12.3,17.8-2.1,2.9-4.4,5.7-6.8,8.4a57.7,57.7,0,0,0-10,16.2c-2.4,5.5-5.9,10.2-9.3,14.9a66.2,66.2,0,0,1-5.9,7,11.6,11.6,0,0,1-6.9,3.1c-2.3.4-3.5-.6-3.4-2.9a18.2,18.2,0,0,1,1.9-8.5,65.9,65.9,0,0,0,3.2-8.8c1.2-3.4,2.5-6.8,3.6-10.2a32.6,32.6,0,0,0,.5-3.3,5.8,5.8,0,0,0-3.2-6.2c-2.3-1.3-3.4-3.3-4.3-5.7-1.8-4.6-2.8-9.3-1.9-14.2.2-1,0-2.1.1-3.1a6.5,6.5,0,0,0-4.7-6.5c-4.2-1.3-7.6-3.9-11-6.5a8.3,8.3,0,0,1-3.1-9.6c.9-2.8,1.7-5.6,2.8-8.3s1.1-7.7-2.1-10.9-4.8-8.7-1.6-14.2,7.9-8.3,14.3-8.2a9.4,9.4,0,0,0,6.9-2.8,16.4,16.4,0,0,1,7.1-4.1c2.8-.8,5.6-1.8,7.7-4a10.3,10.3,0,0,0,2.5-3.4c1.2-3.6,3.8-5.5,7.3-6.6a42.9,42.9,0,0,0,5-1.9,6.5,6.5,0,0,0,3.3-3.4,62.2,62.2,0,0,1,5-7.6,8.6,8.6,0,0,1,8.8-3.2,10.8,10.8,0,0,0,4,0c2.5-.2,4.5-1.2,5.3-3.9s1.2-3,1.7-4.5c1.1-3.5,4.9-4.4,7.7-3.4a17.1,17.1,0,0,1,6.5,4.4c1.8,1.8,3.5,3.7,5.4,5.5s3.6,1.4,4.7-1.3a10.8,10.8,0,0,0,.5-6.9,44.6,44.6,0,0,1-.7-5.1c-.1-2.5.8-3.2,3.3-2.7s2.1.4,2.9-.6.5-2.1-.1-3.2a35.5,35.5,0,0,1-2.3-4.3,25,25,0,0,1-1.3-5.4c-.1-1.8.8-2.4,2.5-2.3,4.2.1,5.9-.8,7.3-4.7a37.6,37.6,0,0,0,2.3-13.7c0-.3.1-.8-.1-1.1a105,105,0,0,0-5.7-10.4c-1.4-2.2-3.4-1.5-4.4,1-1.7,4.3-2.1,8.8-2.5,13.3a73.5,73.5,0,0,1-1,8.2c-.6,2.9-2.6,3.7-5.4,2.8s-4.9-2.6-5.3-6.1a80.8,80.8,0,0,1-.2-13.9c.5-4.9-.9-9.4-3.1-13.7a51.7,51.7,0,0,0-8.4-11.8c-3.9-4.4-7.7-8.9-11.8-13.1a77.4,77.4,0,0,0-8.4-6.4,7.8,7.8,0,0,0-5.4-1,54.4,54.4,0,0,1-5.7.3c-2.3-.1-3.2-1.2-3.1-3.5s1.7-4.2,3.3-5.8a16.2,16.2,0,0,0,1.9-1.8c.7-.8,1.3-1.7.3-2.7s-2.8-1.2-3.6-.3a13.1,13.1,0,0,0-1.7,2.4c-3.1,4.7-7.8,7-13.1,8.4h-.2c-2.2.3-4.4.1-5.5-2s-.2-3.9,1.1-5.5.9-1,1.3-1.5,2-4.4.1-6-3.3-4-3.3-6.7a15.7,15.7,0,0,1,3.4-9.5c.1-.2.2-.4.3-.4,3.5-1.2,6.5-3.6,10.3-4s7,1.7,9.6,4.7,3.8,4.2,5.8,6.2a6.9,6.9,0,0,0,2.2.9c-.2-1.7,0-3-.5-4-2.7-5.4-6.5-9.8-12.2-12.1a7.7,7.7,0,0,0-8.3,1.3l-3.5,3c-3.4,2.7-6,2.5-9.3-.4s-3.4-4.9-3.8-8l-.6-5.9a9.5,9.5,0,0,0-6.2-8.5,20,20,0,0,0-9.3-2c-3.6.2-5.4,1.9-6.4,5.8s.5,4.8,3,6.5a24,24,0,0,1,2.7,1.6c2.9,1.9,3.7,4.4,3,8.5s-3.2,4.8-6.5,5.1a36.2,36.2,0,0,1-5.7,0c-2.4-.1-3.9-1.8-5.3-3.5l-3.5-4.2a8.8,8.8,0,0,0-5.7-2.9l-16.9-2.4-2.7-.5c-.8,0-1.7-.2-2.2.1-2.3,1.3-4.6.9-7,.4l-1.8-.5a4.7,4.7,0,0,0,0,1.2c.9,2.5.5,4.7-1.7,6.2-3.8,2.6-7.9,4.5-12.8,3.7s-5.2-2.9-4.3-6.5a5.9,5.9,0,0,1,1.8-3.7,4.7,4.7,0,0,1,5.8-.5l.7.5c3.5,2.3,5.8,1.9,8.5-1.9-7-4.8-13.5-10.3-15-19.7-3.2,1.7-5.3-.2-7.6-1.9l-6.5-4.5a10.1,10.1,0,0,0-5.4-1.6l1.4,2.5c.3.8.5,1.5-.3,2.1s-1.6,1-2.5.1a14.9,14.9,0,0,1-3.6-3.9c-1.5-3.2-2.5-3.7-5.8-3-7.5,1.6-14.8,3.4-22.2,5.2a3.8,3.8,0,0,0-1.3.6c-1.4.8-5.9,5.7-7.5,8.2l5.2,2.2q3.8,1.5,7.5,3.3c2,.9,2.3,2.7.8,4.3s-1.7.6-2.6.1l-6.6-3.2-2.7-.9c-.9,3,.1,4.8,2.8,4.9,6.6.2,11.4,3.7,15.1,8.8a14.4,14.4,0,0,1,2.1,5.8c.4,1.8-.2,2.5-1.8,3.3a6,6,0,0,1-4.7.5l-4.6-1.6c-3.4-1.3-4.4-.9-6.1,2.5l-1.2,2.9a7.4,7.4,0,0,1-3.7,4.1c-2.8,1.3-5.1.3-6.1-2.6l-1-3.2c-2.4,2.3-5.2,2.6-7.9,2.3-1.7,3.2-1.1,5.5,1.4,7.4s4.6,1.7,7.1,1.8,3.6-.1,5.4.1a5.1,5.1,0,0,0,5.1-2.9c3-5.1,2.2-4,7.6-2.4a7,7,0,0,1,4.3,3.8c2.3,4.6,6.3,7,10.7,9a43.7,43.7,0,0,1,4.9,2.3,6.7,6.7,0,0,1,2.2,2.5,2.6,2.6,0,0,1-1.5,3.9,37.5,37.5,0,0,1-4.3,1.6,2.2,2.2,0,0,0-1.7,2.8,1.7,1.7,0,0,0,1.8,1.7c1.8-.1,3.7,0,5.5-.2,5.2-.6,9.8,1.3,13.7,4.3s4,6,3.2,9.8a4.5,4.5,0,0,1-1.7,2.5,13.2,13.2,0,0,1-6.9,3.1c-7.9,1.3-14.5-1.7-20.6-6.2a69.1,69.1,0,0,1-7.1-6.1c-2-1.8-2.7-1.9-5.1-.5s-3.4,2.2-5.5,1.9a18.6,18.6,0,0,1-4.6-1.3c-1.5-.6-2.9-1.6-4.8-2.6-.1,1.5-.2,2.4-.2,3.3s.2,1.5.2,2.2a3.9,3.9,0,0,1-5.6,4.1l-3-1.5a36.6,36.6,0,0,0,.3,3.9c.5,3.2-.5,4.5-3.7,4.6h-2.9c-3-.1-4.4-1.6-4.6-4.6V259c-6.7,5.9-11.3,5.3-15.7.8A33.2,33.2,0,0,1,92.5,262.5Zm67.1-30.2c-4.6-2.2-8.6-5-10.3-10.1a6.7,6.7,0,0,0-.9-1.4c-1.9-2.5-3.3-2.5-4.9.1s-5.7,5.2-10.2,4.4c-2.5-.4-5.1-.1-7.6-.6-5.1-.9-8.7-4.3-8.3-9.5.3-2.9,1.4-4.1,4.2-4.4h1.5c2.3-.2,2.7-.6,2.9-2.9s.6-3.8.8-5.6a5.9,5.9,0,0,0-1.4-4.4l-2.2-2.6c-1.1-1.4-1.6-1.7-4.2-2a17.5,17.5,0,0,0,.4,3.3c.8,3.3.3,4.3-2.8,5.8-1.6.7-3.1,1.5-4.7,2.1s-3.8.3-4.5-2.2a2.5,2.5,0,0,0-2.9-2c-2.2.1-3.7-.7-4.2-2.9a9.3,9.3,0,0,0-1-2,6.4,6.4,0,0,0-6,1.3c-5,4.2-10.2,8.3-15.1,12.5-11.5,9.9-21,21.4-29.4,33.9A174.4,174.4,0,0,0,32.3,273c-2.2,5.5-4.3,11-6.5,16.4-.3,1-.4,2-.7,3.3,4.2-1.1,6.6-3.9,9.4-6.1,3.1,1.3,3.4,1.9,1.4,4.2-4.3,4.7-7,10.4-10.1,15.8s-2.3,8.4-1.2,12.8,2.2,7.1,5,9.7,3.4,1.9,5.3-.3a14.5,14.5,0,0,0,3.5-6.3,42.4,42.4,0,0,1,3.9-11,43.4,43.4,0,0,1,7.1-8.4c2.6-2.5,5.6-4.6,8.4-6.9s2.3-1.2,3.2-.3,1.1,1.9.2,3.3-1.2,2.2-1.7,3.3a8.9,8.9,0,0,0-.6,4.6c.4,4.2-.8,8.3-2.5,12.1-2.4,5.5-6.3,10.2-10.2,14.7-1.8,2.1-4.4,3.6-6.7,5.3a8.3,8.3,0,0,0-2.9,4c-2.4,5.8-.8,10.9,2.4,15.9s5.4,8.8,6.7,13.8a54.1,54.1,0,0,1,1.2,9c.4,4.2.1,8.5.8,12.7a96.5,96.5,0,0,0,3.8,14c1.9,5.9,3.8,11.7,6.2,17.4a85.8,85.8,0,0,0,6.6,12.3,12.5,12.5,0,0,0,6.7,5c4.6,1.6,8,4.7,11.2,8.1s5,6.3,7.8,9.1a92.8,92.8,0,0,0,11,9.8c3.4,2.6,6.8,1.8,9.5-1.5a5.4,5.4,0,0,0,1-2c.8-3.6,1.5-7.3,2.3-10.9a32.8,32.8,0,0,0,.7-10.4c-1-7.2-.9-14.4,2-21.3a7.3,7.3,0,0,0,0-5.8c-1.5-3.2-2.9-6.4-4.4-9.5a64.8,64.8,0,0,1-5-13.3,7.1,7.1,0,0,1,.5-5c2.7-4.5,4-8,9.8-10.9,0-2.5-.1-5.2,0-7.8a11,11,0,0,1,3.5-7.3,9.3,9.3,0,0,1,6.1-2.7h1.7c3.3.5,5.5-.6,6.9-3.9s4.6-3.8,7.7-4.1a22.1,22.1,0,0,1,9.2,1.3c4.4,1.5,8.9,2.8,13.4,3.9a59.9,59.9,0,0,0,7.4.6,5.3,5.3,0,0,0,5.3-3.2l2.7-5A11.4,11.4,0,0,1,191,345c6.3-.5,10.3-4,13.1-9.3,1.6-3,1.4-6.4,1.1-9.7a48.4,48.4,0,0,0-3.1-13,15.7,15.7,0,0,0-6.9-7.7l-2.7-1.6c-3.1-1.5-3.9-4.2-4.1-7.3a19.3,19.3,0,0,1,0-3.4,10.5,10.5,0,0,0-2.6-7.4c-4.9-5.8-10.8-10.3-18.3-12.5-4.1-1.2-8.1-2.8-12.2-3.8s-11.1-2.3-16.7-3.3a7.2,7.2,0,0,0-2.5.3,38.2,38.2,0,0,1-4.4.9,7.7,7.7,0,0,0-4.6,2.2c-2.9,2.3-5.7,4.8-8.4,7.3a30.6,30.6,0,0,1-11.6,7,16.3,16.3,0,0,1-4.4.8,5.8,5.8,0,0,1-5.2-2.4c-3-4-3-3.8-7.6-2a35.2,35.2,0,0,1-16.7,2.6,17.6,17.6,0,0,1-4.3-1.3c-2.5-1.1-3.2-3.5-3-6a32.8,32.8,0,0,1,1.9-6.8,4.7,4.7,0,0,1,4.6-3.5c3.6-.2,7.2-.7,10.8-1.2a15.1,15.1,0,0,0,8.3-4c1.1-1,2.2-1.9,1.9-3.9s1.2-2,2.5-1l7.5,5.3c3-.7,4-3.2,5-5.7.4-1,.5-2.2.9-3.3,1.8-5,6.4-6.7,10.8-8.5.6-.2,1.8.5,2.4,1.1a2.6,2.6,0,0,1-.1,2.1c-.9,1.3-2,2.5-3,3.8a27.2,27.2,0,0,0-5.6,11.1c-.4,2,.4,2.9,2.3,3s2.7-.4,2.6-2.6-.3-3.3-.2-4.8,1.4-3,3.6-2,1.9,1.3,2.9,1.8,2.1.3,2.1-1.3a33.9,33.9,0,0,1-.2-4.5c.1-2.7,1.8-4.1,4.4-3.3a19.8,19.8,0,0,1,5.1,2.4,5.1,5.1,0,0,0,5.8.2c6-3.2,7.5-2.9,12.3,1.7s10.2,8.1,16.9,9.5a12.5,12.5,0,0,0,8.3-.8c3.6-1.8,4.1-6,.9-8.6a14.8,14.8,0,0,0-8.8-3.4c-2.6,0-5.2.1-7.7,0s-4.7-1.6-4.9-4.7v-2c.1-2.4.7-3.1,3-3.9l3.9-1.3v-.9Zm224,70a86.9,86.9,0,0,1-.7,8.8,21.3,21.3,0,0,1-2.4,5.4,6.1,6.1,0,0,1-6,3.4,5.1,5.1,0,0,0-1.4.4,12.9,12.9,0,0,0,.5,2.1c.8,1.3,1.7,2.6,2.4,3.9a12,12,0,0,1,1.3,3.1c.7,3.1-.1,6.3-5,6.8l-1.8.2c.3,1.1.5,2.1.7,3.1.8,3.3,1,6.5-.7,9.7s-5.7,5.8-9.7,1.9c-1.9-1.9-3.7-3.9-5.6-5.7a23.3,23.3,0,0,0-4.6-3.7c-2-1.2-3.4-.6-4.4,1.5a31.7,31.7,0,0,0-1.4,4,7.7,7.7,0,0,1-8,6h-6.5a4.7,4.7,0,0,0-3.8,1.5,16.5,16.5,0,0,0-4.3,6.3c-1.5,4.5-4.8,6.7-9.1,8l-1.3.3c-2.9.9-5,2.4-5.9,5.6s-2.9,4.7-5.4,6a57.2,57.2,0,0,1-6.8,2.8,12.4,12.4,0,0,0-5.3,3.1,11.2,11.2,0,0,1-8.7,3.6c-7.2-.2-11.1,3.9-13.7,10-.8,1.8-.4,2.7,1.2,4.2l3.5,3.4c3.7,3.9,4.6,8.6,3.5,13.7-.5,2.5-1.2,4.9-1.9,7.4s-.2,4.8,2.4,6.3,5.3,3.3,8.1,4.8c4.5,2.5,7.3,6,7,11.4-.1,2.2,0,4.4-.1,6.5a17.6,17.6,0,0,0,1.4,7.5,10,10,0,0,0,4.2,4.9,8.3,8.3,0,0,1,4.2,7.6,54.4,54.4,0,0,1-.3,5.7c-.3,2.5-.5,5-1,7.5a19,19,0,0,1-5.1,9.7,47.2,47.2,0,0,0-4.1,5,4.7,4.7,0,0,0-.5,4.3,2.7,2.7,0,0,0,3-1.3c2.4-2.9,4.8-5.9,7-8.9a72.7,72.7,0,0,0,8.6-15.1,48.2,48.2,0,0,1,8.7-13.7,147.5,147.5,0,0,0,14.8-20.2,43.7,43.7,0,0,1,3.1-4.4,43.5,43.5,0,0,0,6.1-11.2,36.6,36.6,0,0,1,13.5-17.8A44,44,0,0,0,368,399.9a19,19,0,0,0,1.4-4c1.2-5.3,2.6-10.4,2.5-16a36.3,36.3,0,0,0-1.9-11.4c-1.4-3.9-.5-7.3,1.3-10.6s5-8.6,7-13.1c3-6.5,7.3-12.2,10.8-18.4,1.1-2,1.8-4,1.1-6.4-1.6-6-2.8-12-4.3-18a12.8,12.8,0,0,0-1.1-2.4C383.3,300.4,383.7,301.4,383.6,302.3ZM130,13.5a18.7,18.7,0,0,0-4.9-3.4c-4.4-2.1-9.1-3.3-14-1.9a16.7,16.7,0,0,0-8.7,5.6c-1.8,2.3-1.6,4.7-.8,7.2a13.9,13.9,0,0,1,1,2.6,3.2,3.2,0,0,1-.6,2.3,1.8,1.8,0,0,1-2.5.3,15.8,15.8,0,0,0-2.4-1.5c-5.9-2.5-11.8-2.9-17.5.5a14.6,14.6,0,0,0-3,2.7c2.2,1.8,2.8,4,3.7,6.2s1.3,1.8,1.9,2.8A5.7,5.7,0,0,1,83.4,39a2.4,2.4,0,0,1-1,1.8,11.5,11.5,0,0,1-3.3.4,7.3,7.3,0,0,1-2.4-.7,4.5,4.5,0,0,0-4.6.6,80.2,80.2,0,0,0-6.3,5.3c-2.2,2.1-2.2,4.9-.4,7.3a14.8,14.8,0,0,0,9.7,5.9c.9.1,1.7.8,3,1.4-3,3-5,5.9-3.5,10.2l2.2.3,5.3.6a17.1,17.1,0,0,0,3.2-.1c2.1-.1,3.1.7,3.6,2.8v.3c.3,1.3-.2,3.1,1.7,3.5s4.2.7,6-.9a12.4,12.4,0,0,0,1.8-2.2c.7-1.4,1.2-2.8-.2-4.2a3.1,3.1,0,0,1-.6-3.9,34,34,0,0,1,3.4,1.2,8,8,0,0,0,5.9-.1c2-.8,2.5-2.4,1.5-4.4l-.3-.4c-.5-1-1-2.2,0-2.8a2.7,2.7,0,0,1,2.6.2,7.6,7.6,0,0,0,6.8,1c1.8-.6,2.4-1.5,2.2-3.4s-.2-2-.4-3c2.3-.5,2.9-.4,4,1.4s1.3,2.1,2.7,2.2a3.8,3.8,0,0,0,4.2-4.2c-.1-1-.5-1.9.8-2.3s2,.4,2.6,1.4.8,1.7,1.3,2.4a5.2,5.2,0,0,0,6.1,1.7c1.3-.5,2.4-1.3,2.3-2.9s.5-2.1,1.7-2.2,1.9.9,2.2,1.9a4.9,4.9,0,0,0,3.4,3.8,4.7,4.7,0,0,0,4.7-1.1c.5-.3.6-1.3.8-2s-.1-1.3.2-1.9a1.3,1.3,0,0,1,2-.8l1,.6c3.3,3.2,6.9,3.1,11,1.5a31.9,31.9,0,0,0,12.5-9.9c3.4-4.3,4.4-9.2,3.8-14.5-.1-1.5-1.1-3-1.9-4.3a14.5,14.5,0,0,0-11.6-7.3,14.7,14.7,0,0,0-3.6.4,12.9,12.9,0,0,1-1.9.4c-2,.1-2.7-.5-2.5-2.4a13.1,13.1,0,0,0-2.1-7.5c-3.2-5.4-8.2-7.1-14-7.2A5.4,5.4,0,0,0,146.4,4a16.1,16.1,0,0,1-3.1,1.9c-4.2,1.6-6,5.2-8.1,9C133.1,15.8,131.6,15.1,130,13.5ZM67.7,186.8c3.7.8,7.5,1,11.1,1.8a27.2,27.2,0,0,1,4.4,1.8c1.1.4,2.2,1.2,3.4,1.2,3.2,0,6.4-.3,9.6-.5h7.1c2.2-1.3,4.7-.4,7-1.2a56.9,56.9,0,0,0,6.9-2.5,98.6,98.6,0,0,0,9.2-4.6c2.5-1.4,2.7-2.1,1.4-4.9s-3.8-8.2-5.8-12.3-3.8-7.8-5.6-11.8a22.5,22.5,0,0,1-.9-3.5l-1.2-4.6c-.6-2.9-2.7-4.7-4.3-6.9a24.4,24.4,0,0,1-3.2-7.4c-.9-3.6-1.4-7.3-2.2-11.3a13.9,13.9,0,0,0-3.3,1c-6,3.3-11.9,6.6-16.7,11.7-2.7,2.9-5.2,6-7.8,8.9-5.3,5.8-9.1,12.6-13.5,19.1a65.2,65.2,0,0,0-7.5,15.2l-.4,1c-1.4,4.3.2,6.2,5.9,6.3C62.7,185.8,65.3,186.3,67.7,186.8Zm36.7-99.4c-.9-3-2-6-1.1-9.7-.7.5-1.1.6-1.2.8-1.7,2.7-4.2,3.8-7.2,4.1s-3.4.8-3.5,3.2A10.5,10.5,0,0,1,90.2,89c-2.1,4.3-2,8.8-1.1,13.3a9.6,9.6,0,0,0,5.2,6.1,28.5,28.5,0,0,0,13.4,3.5l1.9-.3c1.8-.2,3.7-.8,5.3-.5a43.1,43.1,0,0,0,16.4-.2c3.2-.5,6.4-.6,9.6-1s7.5-.8,11.2-1.4a80.4,80.4,0,0,0,18.1-4.7A77.9,77.9,0,0,0,185.4,96a9,9,0,0,0,4-5c.7-2,2-3.8,2-6.2.1-4.3-2-7.7-4.7-10.6-4.3-4.8-8.8-9.4-13.3-14a11.8,11.8,0,0,0-2.5-1.9,2.6,2.6,0,0,0-2.1-.2c-2.8,1.4-5.6.7-8.4.2a1.5,1.5,0,0,0-1.1.2c2.8,1.9,6.1,2.9,8.5,5.6s2.7,6.3,3.1,9.7c1.2.8,2.7-.6,4.1,1l-2.2.7a10.6,10.6,0,0,0-6.4,3.4,7.7,7.7,0,0,0-2.1,6.8c.3,2,.4,4.1.6,6.2,0,.5.2,1.1,0,1.4s-1.1,1.4-1.7,1.6-1.6-.5-1.8-1.4-.3-2.3-.5-3.4-.4-2-.7-3.2c-5,1-9.8,1.5-14.1-1.6a12.8,12.8,0,0,1-4.9-6.8c-2.2-7.1.4-12.6,6-17.1-.8-1.4-1.4-2.1-3-1.3-3.4,1.5-6.9,2.2-10.3-.1a19.4,19.4,0,0,1-3.5,1.8,44.3,44.3,0,0,1-5.1.6,7.1,7.1,0,0,0-2.6.4,13.5,13.5,0,0,1-8.1,3.2c-.4,0-.8.3-1.2,1a4.5,4.5,0,0,0,1.6.3c6.5-1.5,14.6,3.5,16.5,11.2,1.1,4.2-.3,8.1-2.9,11.5a13.4,13.4,0,0,1-9.3,5.4l-3,.5c-.9,2.1.5,4.4-1.3,6.5l-1.5-2.7c-1.1-2.9-2.2-5.6-4.9-7.4a10.7,10.7,0,0,0-8.1-2,20.6,20.6,0,0,1-2.6.3C99.3,87.5,102.2,88.7,104.4,87.4Zm-6.3,26c-2.6-.5-5.2-1.3-7.1-3.4-.2-.3-.6-.7-.8-.7-2.2.4-3.8-1.4-5.9-1.5a7.4,7.4,0,0,1-4.8-2.6c.2-2.1,1.7-2.9,3-3.8a4,4,0,0,0,1.8-4.6l-3.6-1.3c-2.6-1-3-3-1.1-5s2.4-3.1,3.9-4.9a45.8,45.8,0,0,1-5-.6c-1-.2-2.4-.4-2.4-1.7a5,5,0,0,1,1.2-2.7,10.5,10.5,0,0,1,2.2-2c-.1-.3-.2-.6-.3-.6a8.6,8.6,0,0,1-7.7-4.6,2.2,2.2,0,0,0-2.9-1.1A63.8,63.8,0,0,0,53,78.6,52.7,52.7,0,0,0,38.8,91a54.5,54.5,0,0,0-8.9,16.6,78.9,78.9,0,0,0-2.3,9.6,27,27,0,0,0-.7,4.1,1.8,1.8,0,0,0,.4,1.5c3,2,3.7,5.4,5.5,8.2l1,1.7a33.9,33.9,0,0,0,1.1-3.7c.2-1.4.3-3,.6-4.5s1.5-2.5,3.3-1.3,4.5,4.7,5.9,7.8c.4,1,.8,2,1.5,3.5,1.6-2.5,1.8-4.8,2.4-6.9a23.8,23.8,0,0,1,1.1-3.8c1-2.2,2.5-2.4,3.7-.4s2.4,4.6,3.5,6.9,1.1,2.5,1.7,3.8c1.8-1,3.7-3.5,4.9-6.1a7.1,7.1,0,0,1,1.9-3.1c1.3-1.4,2.6-1.2,3.3.6s1.9,4.7,2.8,7.1,1.2,4.4,1.8,6.6c.5-.1,1-.1,1.2-.3,5.2-5.8,10.4-11.6,17.2-16.5a11.8,11.8,0,0,1-2.8-.5c-1.5-.4-1.8-1.3-.8-2.5l2.4-2.8-6.3-2.7,3.6-3.5v3.5l6,2.1c-.9,1.4-1.5,2.4-2.3,3.5,1.9,1.1,3.7,1.4,5.6.4l6.2-2.5C102.2,114.8,100.4,113.9,98.1,113.4ZM323.8,209c2.3,2.5,3.2,5.6,3.8,8.7a3.7,3.7,0,0,1-3.3,4.5c-3.4.6-5.6-1.4-7.7-3.6s-3-3.7-4.5-5.5-5.1-3.5-8.1-2.2c-1.5.7-2.6,1.6-2.7,3.5a10.5,10.5,0,0,1-1.2,3.2c-1.2,2.6-1.5,5.1.3,7.8s1.1,7.1-.9,9.5l-3.5,4.2v.9a10.9,10.9,0,0,0,2.6-.3,16.9,16.9,0,0,0,10.1-7.9c1.3-2.3,3.1-4.1,6.1-3.7a8.3,8.3,0,0,1,5.5,2.7,4.6,4.6,0,0,1-.2,6.4c-1.1,1.1-2.2,2.1-3.3,3.3s-1.1,1.5-1.7,2.3l.4.6,3.5-.5a11.1,11.1,0,0,1,7.2.7,44.4,44.4,0,0,1,14,10.6c4.6,5.2,9.2,10.4,13.5,15.8s6.2,8.8,6.9,14.2a72.2,72.2,0,0,1,.2,10.4c-.2,4.1-.5,8.2.8,12.2a3,3,0,0,0,2.7,2.3c1-1.6.9-3.5,1-5.4a73.9,73.9,0,0,1,2.5-16.2,12.3,12.3,0,0,1,1.2-2.6,4.8,4.8,0,0,1,6.5-2.4c1.3.5,2.5,1.1,4.3,2a168.7,168.7,0,0,0-18.1-35.1,189.4,189.4,0,0,0-41.9-46l-.4.4Zm-94.3-32.1a95.5,95.5,0,0,1-14.1-1c-3.8-.6-7.6-.9-11.3-1.3-1.5-.2-2.1.4-2,1.9a8.5,8.5,0,0,0,2.7,5.5,43.9,43.9,0,0,0,23.3,11.7c5,.9,10.1,1.3,15.2,1.8s10.1,2.6,13.4,7.1l.8,1.2c2.2,2.8,4.5,3.6,8,2.6a3.9,3.9,0,0,0,1.7-6.6,24.4,24.4,0,0,0-3.3-2.3c-4.2-2.7-4.9-6.5-3.5-11.8,1-3.6,3.6-6,8.6-6.2a23.3,23.3,0,0,1,13.9,3.2,11.3,11.3,0,0,1,6.1,8.8c.3,2.7.6,5.4.7,8.2a7.2,7.2,0,0,0,1.8,4.4c2,2.4,3,2.4,5.4.4l1.9-1.7c4.8-4.5,11.3-4.8,16.8-1.5l2.1,1.2.4-.4c-1.6-1.3-3.1-2.6-4.7-3.7a211.5,211.5,0,0,0-31.9-19.3c-3.4-1.7-6.9-3.2-10.4-4.7a3,3,0,0,0-1.6-.3c-3.6,1.3-6.6-.6-9.8-1.7s-8.7-2.6-13-3.8a1.1,1.1,0,0,0-.8.1A19.3,19.3,0,0,1,229.5,176.9ZM105.6,115.7c2.4,0,3.1,1.8,3.4,3.5a28.8,28.8,0,0,0,8.1,14.9c2.5,2.5,4.3,5.5,6.5,8.2a7.2,7.2,0,0,0,2.1,1.8l10.9,4.3,1,.3,9.7,2.1c6.5,1.3,11.9-.9,16.6-5.4,1.2-3,2.7-6,3.4-9.2,2-8.7.2-16.9-3.8-24.7a14.5,14.5,0,0,1-1.1-2.6l-12.7,2.4c-.1.9-.1,1.6-.2,2.2-.1,4.8-1.3,6.7-5.7,8.3s-6.7,2.9-10.4,2.1-9-2.3-12.7-5.5c-1.2-1-2.3-2.3-3.8-3.8H104.7C105.3,115.3,105.4,115.7,105.6,115.7ZM65.7,128.5c-1.3,2.3-2.5,4.6-4,6.9s-3.9,2.2-5.3-.4-1.5-3.3-2.3-4.9-1.1-1.9-2-3.5L51,129.3c-.8,2.3-1.4,4.7-2.4,6.9s-2.6,2-3.8.3a21.5,21.5,0,0,1-2.1-4c-1-1.7-1.9-3.5-3-5.2s-.7-.7-1.5-1.3l-.7,3.9a30.9,30.9,0,0,1-1.3,4.6c-.6,1.6-1.9,2-3.2.9a10.3,10.3,0,0,1-2.4-3.1c-1.1-1.8-1.9-3.6-3-5.7-1.5,2.7-1,11.7,1.5,19.8a76,76,0,0,0,8.3,18.1c2.8,4.5,11.1,12.6,14.3,14,.1-.1.4-.2.4-.3,1.3-3.5,2.4-7,3.8-10.4a61.6,61.6,0,0,1,3.4-6.8c2.5-4.1,5-8.3,7.6-12.3a30.2,30.2,0,0,1,3.2-3.9c2-2.2,2.8-4.4,1.5-7.3s-2.4-6.1-3.7-9.2a7.5,7.5,0,0,0-.8-1.4A15.8,15.8,0,0,0,65.7,128.5ZM249.5,529.1c-2.6.7-4.3,2.4-6.1,3.8a18.9,18.9,0,0,0-2,2c-4.4,4.9-10.1,6.7-16.6,6.6-2.5-.1-4.9.1-7.4-.1s-4.1-.6-6.2-.8l-9.3-.8a60.8,60.8,0,0,1-24-6.4,14.4,14.4,0,0,0-10.7-1.5c-2.1.6-4.2,1.2-6.3,2a18.8,18.8,0,0,1-12.8-.1l-18.4-5.9c-1.9-.5-3.8-.4-5.1,2a11.4,11.4,0,0,0,2.3,1.5c7,2.5,14,5.1,21.2,7.4s16,3.8,24.1,5c3.1.5,6.3.7,9.4.9,6.1.5,12.3,1.1,18.4,1.3a86.9,86.9,0,0,0,11.4-.4l15-1.4,20-2.4c.3,0,.5-.2,1.1-.4C246.4,537,248.4,533.3,249.5,529.1ZM59.6,48.3,63.7,42c.8-1.1.3-2-.5-2.8-2.2-2.3-4.6-4.5-6.6-6.9s-5.1-3.3-8-4a3.7,3.7,0,0,0-4,2.4,11.9,11.9,0,0,0-.8,4.1,87.1,87.1,0,0,0,2,8.5c1.6,5.2,4.7,9.7,7.8,14.2A36.1,36.1,0,0,0,63.2,67l.7.4c.9.3,1.9,1.3,2.9.4s0-2-.5-2.8c-3.1-6-6.2-12-9.2-18-.4-.9-1.8-1.5-.9-3.7Zm73.1,129.1a19.9,19.9,0,0,0,2.2-1.5c2-2.2,4.1-4.5,5.9-6.8.6-.7.6-1.8.9-2.9a12.1,12.1,0,0,0,2.9-2.7c1.6-3,3-6.1,4.4-9.2a2.1,2.1,0,0,0,0-.8c-3-1.3-10.3-2.3-14.6-2v2c-4,.5-8.1-.7-14.5-3.8C123.5,159.2,128.3,168,132.7,177.4Zm101.6-11.5c-5.9-.9-11.7-2.2-17.7-2.2a13.5,13.5,0,0,0-4.5.5c-3,.9-6.3,1.5-8.8,3.6-.8.7-1.4,1.4-2.5,2.5l3.1.6,22.7,3.2a20.1,20.1,0,0,0,14.1-3.1,4.6,4.6,0,0,0,2.6-3.2C240.1,167.1,237.2,166.4,234.3,165.9ZM6.7,126.4c1-.3,2.1-.6,2.8.6s.4,2.2-.8,2.4-3.4,2-4.7,3.5-.8,3,1.3,3.7,2.8.5,4.2-1.4,1.6-2.3,2.5-2.4,1.3,2,2.1,3.2l1.2.3c2.3,0,2.6-.4,2.6-2.7,0-4.4,0-8.9.1-13.3,0-1.2.4-2.4.5-3.6a23,23,0,0,0,.2-3.7,2.8,2.8,0,0,0-4.2-2.1c-2.7,1.7-3.2,2.9-2.4,6a5.2,5.2,0,0,1,.2,1.1,2.9,2.9,0,0,1-.3.9l-4.3,1A5.8,5.8,0,0,0,5.2,121a29.8,29.8,0,0,0-3.1,4.5C3.8,127.2,5.2,126.9,6.7,126.4Zm135.1,68c0,1.4,2,2.8,0,4.4-2.3-.7-4.7-.8-6.2-3.3s-3.1-.7-3.7.7a4.8,4.8,0,0,0-.4,1.5c1.7,1.6,3.3,3.1,4.7,4.7s1.3,2.3,0,3.2-2.6,4.1-.9,6.7l-2,1.9c.3.2.7.6.8.5a6,6,0,0,0,2-1.4c.7-1.1,1.2-2.4,1.8-3.5a24.3,24.3,0,0,1,2-3.5c1.6-2.3,3.6-2.9,6.4-2.1l5.5,1.7a12.8,12.8,0,0,0,2.9.2C154.5,200.3,147,193.8,141.8,194.4ZM68.4,206.3c3.2-2.7,4.9-6.4,6.7-10l-14-3.6c-1.1,2.4,0,4.7.8,6.9s1.8,2.6,1.9,3.9-1.4,2.3-2.1,3.4C63.8,208.4,66.1,208.1,68.4,206.3Zm66.7-93.2a23.7,23.7,0,0,1-8.4,1.1c-1.7-.1-3.5,0-5.2,0l-.3.6a6.6,6.6,0,0,0,1.4,1.8,23.3,23.3,0,0,0,3.8,2.6,6.4,6.4,0,0,0,2.4.5c1.2.1,2.5-.2,3.7,0,4.3.7,7.7-1.2,11.1-3.3a3.5,3.5,0,0,0,1.8-4A22.2,22.2,0,0,0,135.1,113.1Zm54.2,50.3c-1.1,2-1.1,2-5.3,2.9l10.9,7.6c1.7-2.4,2.9-5,4.9-6.7s4.6-2.7,7.6-4.3C201.1,163,195.2,162.4,189.3,163.4ZM53.1,303.7c-4.2,4-7.9,8.4-9.4,14.2-.8,3.1-1.7,6.2-2.6,9.3.3.1.6.3.8.2,3.4-2.5,7-4.6,8-9.4s2.3-8.3,3.5-12.5a8.4,8.4,0,0,0,.3-1.8Zm95.7-140.5,17-3.1v-.5L152.6,153Zm59.2,37a7.1,7.1,0,0,1-5.1-1.4,2,2,0,0,0-3.2.5,12.4,12.4,0,0,0-1.5,3.3,2.2,2.2,0,0,0,1.7,2.6,5.5,5.5,0,0,0,2.5.4A13.4,13.4,0,0,0,211,201a.8.8,0,0,0,.2-.5c.1-.2,0-.3,0-.9ZM151.7,62.7A10.1,10.1,0,0,0,145,72c2.1-3.3,4.1-6.2,8.1-6.9a23.9,23.9,0,0,1,10.6.5C161.6,62.2,156.8,61.2,151.7,62.7ZM83.9,94.1l5-10.7-4.1-5.3L79.7,82c1.2,1.4,2.5.9,3.7.9s2.5-.1,3.1,1.2a2.9,2.9,0,0,1-.7,3.4l-2.7,2.9-2.2,3Zm32.2-16.4a13.2,13.2,0,0,1,5.9,3.7c.8.9,1.9.6,2.9-.3a1.7,1.7,0,0,0,.1-2.5c-2.2-2.7-5.3-3.6-8.4-4.1-.9-.2-1.9.2-2.1,1.9S115.4,77.6,116.1,77.7Zm-6.6-4.9a44,44,0,0,1,6.2-.4,19.5,19.5,0,0,1,6.3,1.2,37.8,37.8,0,0,1,5.7,3.6C125,69.7,114.6,67.1,109.5,72.8Zm44.5-5a1.7,1.7,0,0,0-1.4,2.5,1.7,1.7,0,0,0,2.5,1.1,7.6,7.6,0,0,1,4.7-.4,4,4,0,0,0,1.9-.1c.6-.4,1.3-1,1.4-1.6s-.8-1.3-1.3-1.6a19.5,19.5,0,0,0-2.7-.8C157.2,67.2,155.6,67.4,154,67.8Zm-84.5.1c.8-2,1.5-3.5,2.2-5.3l-5.9-3.3-.7.4C66.5,62.3,67,65.3,69.5,67.9ZM128.3,186a27.9,27.9,0,0,0-6.9,3.6l5.4,3.8Zm-23.6,11.4c3.3,0,4.8-.9,6-4a30.6,30.6,0,0,0-8.2,1.6C102.4,196.8,103.2,197.3,104.7,197.4ZM82.6,104.6c.8,1.8,2.4,1.4,3.7,2.2a3.2,3.2,0,0,0-1.6-3.6Zm29.5,150.6c1.1-1.9,2.1-3.8,3.1-5.7l-.4-.4C112.7,250.5,112.4,252.8,112.1,255.2Zm.9-57.5c1.9.1,1.9.1,2.2-2.7ZM105.6,72.6c-.7-.1-1.1-.3-1.3-.2s-1.1,1.1-.2,2Zm-24,123.3c.2-.1.3-.4.7-1.3L80.4,196l.3.4Z" transform="translate(0.7 0.3)"/><path class="cls-1" d="M114.5,76.4c.4.3.9,1.2,1.6,1.3a13.2,13.2,0,0,1,5.9,3.7c.8.9,1.9.6,2.9-.3a1.7,1.7,0,0,0,.1-2.5c-2.2-2.7-5.3-3.6-8.4-4.1C115.7,74.3,114.7,74.7,114.5,76.4Z" transform="translate(0.7 0.3)"/><path class="cls-1" d="M159.1,66.9c-1.9.3-3.5.5-5.1.9a1.7,1.7,0,0,0-1.4,2.5,1.7,1.7,0,0,0,2.5,1.1,7.6,7.6,0,0,1,4.7-.4,4,4,0,0,0,1.9-.1c.6-.4,1.3-1,1.4-1.6s-.8-1.3-1.3-1.6A19.5,19.5,0,0,0,159.1,66.9Z" transform="translate(0.7 0.3)"/><path d="M55.4,448.5a4.4,4.4,0,0,1-3.4-1.2c-.9-.9-2-1.7-3-2.6a53.1,53.1,0,0,1-9.2-10.8c-3.2-5.1-4.6-11-6.6-16.6a5.9,5.9,0,0,1,.8-5.7,2.9,2.9,0,0,1,2.2-1.3c2-.1,5.1,2.9,5.8,4.9a16.9,16.9,0,0,0,2,4.3l10.1,14.4a25.4,25.4,0,0,1,4.2,10.9C58.4,447.8,57.8,448.4,55.4,448.5ZM41.3,426.4a71.8,71.8,0,0,0,11.9,14.1c.3-2.1-.7-3.7-1.5-5.1-3.8-6.2-7.7-12.4-11.6-18.6-.5-.8-1-1.9-2.6-1.7A24.1,24.1,0,0,0,41.3,426.4Z" transform="translate(0.7 0.3)"/><path d="M274.2,290.2c2.2,3.7,2.9,7.4,3.8,11.1s0,7.6-1.7,11.1a37.5,37.5,0,0,0-3.4,19c.3,4.3,1.2,8.4,3.7,12a8.1,8.1,0,0,0,2.1,2.4,3.1,3.1,0,0,0,2.3.4,1.3,1.3,0,0,0,.4-2.5,10,10,0,0,1-4.4-7.3,87.4,87.4,0,0,1-.7-10.2,24.5,24.5,0,0,1,2.4-12.2c2.2-5,1.9-10.2.5-15.3a47.1,47.1,0,0,0-2.2-5.9C276.4,291.3,276.4,291.3,274.2,290.2Z" transform="translate(0.7 0.3)"/><path d="M225,336c.3-.6.6-.9.7-1.2.6-3.1,1.3-6.1,1.7-9.2a19.1,19.1,0,0,0-1-8.2,35.6,35.6,0,0,0-7.9-13c-1.7-1.7-3.4-3.6-5-5.4s-4.5-6.6-4.4-10.8a5.4,5.4,0,0,0-.6-2.5,1.5,1.5,0,0,0-1.3-.7c-.4,0-1,.6-1.1,1.1-1.1,3.5-.3,6.9,1.3,10.1s4.8,6.6,7.8,9.4,7,7.9,8.7,13.1c1.1,3.3,1.9,6.5,1.1,10a23.9,23.9,0,0,0-.4,6C224.5,335,224.8,335.3,225,336Z" transform="translate(0.7 0.3)"/><path d="M176.3,212.8c.2,5.1.4,10.2.5,15.3.1,1.8-.8,2.4-2.8,2.1a39.8,39.8,0,0,1-10.5-3.2c-3.7-1.8-4.4-4.5-1.5-7.4s5.3-4.3,7.9-6.4a9.3,9.3,0,0,1,6-2.4A14.2,14.2,0,0,1,176.3,212.8Zm-1.7,1.6c-4.4,2.6-8.7,4.5-11.6,9a25.2,25.2,0,0,0,11.6,4Z" transform="translate(0.7 0.3)"/><path d="M260.4,433.3c-.3,6.9.9,13.2,6.4,18.2l5.6,4.8a14.3,14.3,0,0,1,4.7,10,4.8,4.8,0,0,0,0,1.2c.3.5.6,1.5.9,1.5a4.2,4.2,0,0,0,1.9-.9,2.9,2.9,0,0,0,.4-1.6c-.1-4.5-1.5-8.4-5-11.3l-7.4-5.9a15.1,15.1,0,0,1-5.4-9.1c-.3-1.9-.4-3.8-.7-5.6a6.7,6.7,0,0,0-.6-1.5Z" transform="translate(0.7 0.3)"/><path d="M153.8,181.9a5.5,5.5,0,0,1-1.7-6c.7-2.1,2.7-2.5,4.6-2.8s4.5-.3,6.7,1.3,3.5,2.2,4.7,3.9,1.1,3.8-.8,5.2-3.3,1.9-4.6,1.7C158.9,185,156.1,184,153.8,181.9Zm2.2-5.6c-1.1.5-1.1,1.4-.7,2.3,1.5,3.8,7.8,4.8,10.7,1.6C164.2,175.9,159.9,174.2,156,176.3Z" transform="translate(0.7 0.3)"/><path d="M128.1,497.5a5.7,5.7,0,0,0,1.3,5.6c3.5,4.4,8.2,6.9,13.6,8.3,2.1.6,4.4.9,6.6,1.5s6.2,1.8,9.2,3,3.9,2.4,6,3.7c.2-1.7-1.1-2.7-2.3-3.4a24.5,24.5,0,0,0-5.8-3c-4.2-1.5-8.6-2.9-12.9-4.2a22.2,22.2,0,0,1-12.2-8.4A6.7,6.7,0,0,0,128.1,497.5Z" transform="translate(0.7 0.3)"/><path d="M218.2,340c1.1-3.8,2.3-7.6,3.3-11.4a10.2,10.2,0,0,0-1.2-8,82.2,82.2,0,0,0-11.6-15.3,10.3,10.3,0,0,0-1.8-1.4,9.7,9.7,0,0,0,2.6,6.8l7.2,8.8a13.1,13.1,0,0,1,2.5,12.6c-.7,2.5-1.1,5.1-1.7,7.7Z" transform="translate(0.7 0.3)"/><path d="M254.3,462c1.1-1,.5-1.9.4-2.8-1-4.8-2-9.7-2.8-14.5-.5-3.2-.4-6.4-.7-9.6s-.5-4.1-.7-6.1h-.8a39.7,39.7,0,0,0-.7,4.8,105.3,105.3,0,0,0,2.3,23.1,16.8,16.8,0,0,0,1.6,3.9A5.5,5.5,0,0,0,254.3,462Z" transform="translate(0.7 0.3)"/><path d="M309.4,252.6c-.8,1.5-.1,2.7.9,3.9a22.2,22.2,0,0,0,9.3,6.4c1.4.5,2.8,1.2,4.2,1.8a20.9,20.9,0,0,1,10.5,10.4l.6.9c0,.1.1.1.5.2s0-2.1-.4-3a21.4,21.4,0,0,0-9.1-9.5l-6.9-3.4a17.2,17.2,0,0,1-7.1-6C311.3,253.5,310.9,252.4,309.4,252.6Z" transform="translate(0.7 0.3)"/><path d="M239.8,515.9a2.6,2.6,0,0,0-2.6-2.2,42,42,0,0,0-7.9-.5c-1.1.1-2.2,1.1-3.1,1.8a15.4,15.4,0,0,0-1.7,1.9c-2,2.3-3.8,2.7-6.5,1.1s-3.6-2.5-5.4-3.7l-2.1-1.4a14.7,14.7,0,0,0,.6,1.9c1.9,2.5,4,4.8,7,6.1s5.3.8,7.5-1.5a9.8,9.8,0,0,0,1.7-2.3,4.4,4.4,0,0,1,4.7-2.4,22.6,22.6,0,0,1,3.7.1A42.4,42.4,0,0,1,239.8,515.9Z" transform="translate(0.7 0.3)"/><path d="M348,318a3.9,3.9,0,0,1,4.2-4c3-.2,4.3.7,4.9,3.3a16.6,16.6,0,0,0,.6,1.6c.9,3.1-.7,5.2-3.9,5.3A5.5,5.5,0,0,1,348,318Zm4.4,3.2a3.6,3.6,0,0,0,2.3.1c.4-.2.9-1.2.7-1.6a4.7,4.7,0,0,0-1.6-2.1,5.9,5.9,0,0,0-2-.4C350.7,319.1,350.8,320.4,352.4,321.2Z" transform="translate(0.7 0.3)"/><path d="M182,217c1.1-1.9,3-2.2,4.3-.6a10.9,10.9,0,0,1,3,9.7,3.5,3.5,0,0,1-5.8,1.8,11.2,11.2,0,0,1-3-6.7A22.9,22.9,0,0,1,182,217Zm2.9,8.7c.8,1,1.6.9,2.2-.3a3.1,3.1,0,0,0,.3-1.3,11.6,11.6,0,0,0-1.8-6.6C183.4,219.9,183.2,223.6,184.9,225.7Z" transform="translate(0.7 0.3)"/><path d="M117.7,498c.9,1.6,1.3,2.8,2,3.9,2.4,3.5,5.8,5.9,9.4,8.1s5.1,3,7.7,4.4l1.4.3a10.9,10.9,0,0,0-3.9-3.6,77.9,77.9,0,0,1-11.7-9.8A9.1,9.1,0,0,0,117.7,498Z" transform="translate(0.7 0.3)"/><path d="M22.7,367c3.7,6.2,5.5,12.9,6.6,20h.8c.3-.5.9-.9.9-1.4a10.8,10.8,0,0,0-.2-3.1A47.2,47.2,0,0,0,25.6,369a25.2,25.2,0,0,0-2.1-2.5Z" transform="translate(0.7 0.3)"/><path d="M315,267.5a26.5,26.5,0,0,1-8.3-5.8c-2.5-2.5-2.1-6.2-3.4-9.3h-.7a7.6,7.6,0,0,0-.9,1.8c-.4,3.5,1.3,6.3,3.6,8.7a25.8,25.8,0,0,0,8.4,5.2c.3.2.8,0,1.2,0Z" transform="translate(0.7 0.3)"/><path d="M264.7,305.9c1.7,5.2.7,10.5,0,15.8a2.3,2.3,0,0,0,2.4-2,24.5,24.5,0,0,0-.6-12.9c-.2-.5-.7-.8-1.1-1.2Z" transform="translate(0.7 0.3)"/><path d="M209.3,502.9c.2,3.5,2.2,5.5,4.8,7s5.5,1.3,8.5.2a4.2,4.2,0,0,0-1.5-.4c-4.5.7-7.4-1.7-10-4.8C210.6,504.2,209.9,503.6,209.3,502.9Z" transform="translate(0.7 0.3)"/><path d="M278.3,233.6c-1.6,3.3-2.9,6.3-2.5,9.8,0,.8.3,1.5,1.3,1.5s1.2-.8,1-1.6c-.5-2.3.1-4.5.8-6.7S279.7,234.9,278.3,233.6Z" transform="translate(0.7 0.3)"/><path d="M283.1,307.2c-.6,4.5.9,9.1-2.8,12.6l.4.4c.6-.1,1.4,0,1.6-.3s1.7-1.8,1.7-2.8c.1-3-.1-6-.3-9C283.7,307.9,283.4,307.7,283.1,307.2Z" transform="translate(0.7 0.3)"/><path d="M260.8,453.9c-.2.6-.4,1-.3,1.2.9,2.2,1.9,4.3,2.9,6.5a4.5,4.5,0,0,0,1,1.3,1.9,1.9,0,0,0,1.3.1,1.1,1.1,0,0,0,.1-1c-1.2-2.5-2.6-5-3.9-7.5Z" transform="translate(0.7 0.3)"/><path d="M257.1,442.6c.3-4.1-1.8-7.6-2.6-11.5C253.8,433.7,255.4,440.9,257.1,442.6Z" transform="translate(0.7 0.3)"/><path d="M204.1,298.3c.1,2,.4,3.8,2.5,5A4.4,4.4,0,0,0,204.1,298.3Z" transform="translate(0.7 0.3)"/><path d="M24.6,384.7c.3,2,.5,3.9.8,5.9,1.2-2.1.1-3.9-.1-5.9Z" transform="translate(0.7 0.3)"/><path d="M272.3,241.6a16.2,16.2,0,0,1,.4-1.9h-.5l-.6,1.8Z" transform="translate(0.7 0.3)"/><path d="M70.1,252.1a4.1,4.1,0,0,1-1.8-5.9,8.2,8.2,0,0,1,1.7-2,18.2,18.2,0,0,1,9.8-4.8c2.4-.3,4.9-.7,7.3-.8a10.4,10.4,0,0,1,3.5.7,1.1,1.1,0,0,1,.3,2.1c-1.5,1-1.6,2.5-1.7,4a13.6,13.6,0,0,1-.2,2,6.4,6.4,0,0,1-6,5.8c-1.4.1-2.9,0-4.3,0C75.8,253.2,72.8,253.6,70.1,252.1Zm6.8-1.8a19.3,19.3,0,0,0,4.8,0c2.7-.1,4.1-1.4,4.7-4a34,34,0,0,0,.7-3.4c-2.8.2-5.2.3-7.6.6a11.6,11.6,0,0,0-8,4.9C73,250.4,75.1,250,76.9,250.3Z" transform="translate(0.7 0.3)"/><path d="M44.6,259.2c1.2-3.4,3.3-5.5,5.2-7.6s6-6.1,9-9.1a4.4,4.4,0,0,0,.8-1.1c-1.5-1.5-2.4-1.7-3.8-.4a25.9,25.9,0,0,0-4.1,4c-3.4,3.9-7.5,7.3-9.8,12.1a10.6,10.6,0,0,0-.9,3.5c-.2,2.1.7,2.9,2.7,2.3a7.3,7.3,0,0,0,3.5-1.8c4.1-4,8.7-7.5,11.4-12.7a8.2,8.2,0,0,0,1-2.6c.1-.4-.4-1-.7-1.5s-.9.6-1.1,1C55.8,250.2,50.2,256.3,44.6,259.2Z" transform="translate(0.7 0.3)"/><path d="M67.8,373.4c-1.7,1.3-1.8,3-2.1,4.4a65.9,65.9,0,0,0-1,7.6c-.3,4.9-.6,9.8-.7,14.7,0,2.8.4,5.5.6,8.2A4.3,4.3,0,0,0,65,410a3,3,0,0,0,1.8,1c.9,0,1.1-.9,1-1.7-1-5-.8-10-.9-15a87,87,0,0,1,.9-18.4A20.6,20.6,0,0,0,67.8,373.4Z" transform="translate(0.7 0.3)"/><path d="M185.7,308.7a25.1,25.1,0,0,0-.4,2.7,48.7,48.7,0,0,1-2.9,15c-1.3,3.4-2.1,4.1-5.6,4.3a1.5,1.5,0,0,0,1.6,1.8,7,7,0,0,0,3.5-.9c1.7-1.2,2.3-3.2,2.8-5.1a53.9,53.9,0,0,0,1.9-16.9,2.4,2.4,0,0,0-.2-.8Z" transform="translate(0.7 0.3)"/><path d="M44.1,285.9c1.8.3,2.3-.6,2.5-2a68.3,68.3,0,0,1,1.1-7.9,40.6,40.6,0,0,1,2.5-6.6c.1-.3.3-.5.3-.8s0-1-.3-1.2-.9,0-1.3.1a3.1,3.1,0,0,0-.7.9,33.8,33.8,0,0,0-4.6,14.8,9.7,9.7,0,0,0,.1,1.7C43.7,285.2,43.9,285.4,44.1,285.9Z" transform="translate(0.7 0.3)"/><path d="M56.5,388.5c.5-.8.8-1.1.8-1.3.6-6.2-.1-12.5,1.6-18.6l-.7-.5c-2.5,2.6-2.4,6.1-2.7,9.1S54,384.5,56.5,388.5Z" transform="translate(0.7 0.3)"/><path d="M31.8,306.1c-.2.3-.7.6-.8,1-.8,5-1.7,10.1-1.1,15.2a5.8,5.8,0,0,0,.3,1.4c.2.4.6.9.9.9a2.1,2.1,0,0,0,1.3-.9,4.7,4.7,0,0,0,.1-1.7c.1-4.5.1-9.1.2-13.6C32.7,307.6,33.1,306.6,31.8,306.1Z" transform="translate(0.7 0.3)"/><path d="M113.3,213.6c-1.8,3.7-2.5,7.5-.8,11.4.7,1.6,1.1,1.7,3.1.7-2.3-3-2.4-6.3-1.5-9.8C114.2,215.2,114.7,214.2,113.3,213.6Z" transform="translate(0.7 0.3)"/><path d="M40.3,283.1a1.4,1.4,0,0,0,1.7-1.4c.2-2.4,1.3-4.8.4-7.5C40.1,276.3,39.2,280.8,40.3,283.1Z" transform="translate(0.7 0.3)"/><path d="M153.8,233.9l-9-6.2a4.9,4.9,0,0,0-1.4-.3C144.1,229.7,149.8,233.6,153.8,233.9Z" transform="translate(0.7 0.3)"/><path d="M70.7,295.8c-1.3,3.4-2.9,6.2-3.6,9.4,1.6.5,1.9-.5,2.2-1.4C71.5,298.5,71.8,297.3,70.7,295.8Z" transform="translate(0.7 0.3)"/><path d="M172.3,251.9l3.6,3c1,.8,1.1,2.6,2.8,2.9C179,254.6,175.6,251.3,172.3,251.9Z" transform="translate(0.7 0.3)"/><path d="M178.4,322.6c-.8-.9-1.2-.5-1.5.2-1.2,2.8-2.4,5.7-3.7,9C176.7,329.4,176.5,325.4,178.4,322.6Z" transform="translate(0.7 0.3)"/><path d="M69.8,389.2c-.5,2.8-1,5.5,0,8.3C71.4,394.7,69.7,392,69.8,389.2Z" transform="translate(0.7 0.3)"/><path d="M106.8,223.7c1.4-3.4.3-6.7.1-10C105.9,215.7,105.8,221.2,106.8,223.7Z" transform="translate(0.7 0.3)"/><path d="M166.1,252.4l7.4,5.6C172.9,255.1,170.1,253,166.1,252.4Z" transform="translate(0.7 0.3)"/><path d="M60.8,390.3c1.3-1.9,1.1-5.5-.5-8.6,0,1.7-.1,3,0,4.3S60.6,388.5,60.8,390.3Z" transform="translate(0.7 0.3)"/><path d="M63.8,305.8a9.8,9.8,0,0,0,2.5-6.6C64.6,300.2,63.7,302.6,63.8,305.8Z" transform="translate(0.7 0.3)"/><path d="M136.2,228.9c1.2,1.2,2.2,1.8,3.8.8C138.8,228.7,138,227.5,136.2,228.9Z" transform="translate(0.7 0.3)"/><path d="M177,312.2c0,.1-.1.2-.2.4l.3.2s.2-.1.1-.2S177.1,312.4,177,312.2Z" transform="translate(0.7 0.3)"/><path d="M288.1,434.2a12.9,12.9,0,0,1,5.6,5.5c3.2,5.4,4.7,11.4,5.7,17.5.2.9-.3,2-.4,3a2.4,2.4,0,0,0,.4,1.5,2.2,2.2,0,0,0,1.6,0,2.4,2.4,0,0,0,1.6-2.9c-.5-2.3-.9-4.7-1.5-6.9-1.3-4.8-2.9-9.5-6.1-13.4a36.1,36.1,0,0,0-3.3-3.5A3.3,3.3,0,0,0,288.1,434.2Z" transform="translate(0.7 0.3)"/><path d="M355.5,387.8c2.9-1.2,2.4-3.6,3-5.4a2.6,2.6,0,0,0-1.1-3.1C356.8,382.1,356.2,384.8,355.5,387.8Z" transform="translate(0.7 0.3)"/><path d="M360.9,384c2.2-.9,2.7-3.1,1.8-6.9-1.2.9-.5,2.3-.8,3.3A31,31,0,0,0,360.9,384Z" transform="translate(0.7 0.3)"/><path d="M295.6,432.1a11.3,11.3,0,0,0-4.3-6.6C291.8,428.3,293.3,430.1,295.6,432.1Z" transform="translate(0.7 0.3)"/><path d="M151.3,32.9a15.5,15.5,0,0,1-1.2,2.2,59,59,0,0,1-5,5c-.9.6-2.3,1.1-3.2.1s.3-2,1.1-2.8c5-4.9,8.4-10.6,9.5-17.7a18.3,18.3,0,0,1,1-2.5,13.5,13.5,0,0,1,7.2,9.6,21.7,21.7,0,0,1-.7,10.4c-.1.3-.6.6-.9.8-.4-2.8-.7-5.4-1.1-8C153.7,29.6,153.1,29.8,151.3,32.9Zm5.4-5.6a14.8,14.8,0,0,0-.3-2.7c-1.5.8-1.6,1.7-1.7,3.3C155.6,27.6,156.7,27.5,156.7,27.3Z" transform="translate(0.7 0.3)"/><path d="M111.2,45.5c-3.8-.5-7.6-1.2-10.9-3.6-1.2-1-2.5-.5-4.3.9s-.7,2-.3,2.9a20.9,20.9,0,0,0,2.7,3.9c.6.8,1.5,1.4.6,2.4a2.3,2.3,0,0,1-3.1,0,8.6,8.6,0,0,1-2-2.7,49.2,49.2,0,0,1-1.4-5.5c-1-3.9.4-7.4,1.5-10.8a3.9,3.9,0,0,1,4.4,1.2,6.9,6.9,0,0,1,1.1,1.3,21.1,21.1,0,0,0,13.1,8l1.4.5A2.3,2.3,0,0,1,111.2,45.5ZM97.4,39.6l-2.1-3.5h-.5c-.1,1.2-.2,2.4-.3,4Z" transform="translate(0.7 0.3)"/><path d="M145.1,93.7c-.3.6-.8,1.1-1.1,1.7-2,3-4.2,3.1-6.5.3a14.5,14.5,0,0,0-2.3-1.9c-1,1.9-.8,4.1.3,5.2a7,7,0,0,0,6.6,1C144.7,98.8,146,96.7,145.1,93.7Z" transform="translate(0.7 0.3)"/></g></svg>