<svg xmlns="http://www.w3.org/2000/svg" viewBox="0 0 705.7 467.7"><defs><style>.cls-1{fill:none;stroke:#000;stroke-miterlimit:10;}.cls-2{fill:#fff;}</style></defs><g id="Layer_1" data-name="Layer 1"><path d="M10.7,255.7H5.2a7.6,7.6,0,0,1,5.5-.7Z" transform="translate(0 48.9)"/><path d="M1.4,256.6,0,256.4v-.3H1.4Z" transform="translate(0 48.9)"/><path d="M202-48.9l2.1.2C203.1-48,203.1-48,202-48.9Z" transform="translate(0 48.9)"/><path class="cls-1" d="M170.3,119.5s-29.2-4.2-39.6-6.1-25.9-6.5-27.8-9.5,8.1-10.3,57.4-13.3" transform="translate(0 48.9)"/><path class="cls-1" d="M110.1,95.1S133.9,83.5,244,85.6s147.2,16.3,147.2,16.3" transform="translate(0 48.9)"/><path d="M515,215.6c3.7-3,8-2.3,10.6,1.5,1.3,2,1.4,2.1,3.5,1.3a13.9,13.9,0,0,1,7.8-.6c.4.1.8.4,1.2.3,4.6-.7,6,2.8,7,5.9s.8,7-2.4,9.6a8.3,8.3,0,0,1-1.5,1.1c-1.4,1-2,2-.9,3.7s.8,3.6.1,5.5a4.9,4.9,0,0,0,4.1,6.5l4.4,1.2a9.1,9.1,0,0,1,.9-1.7,15.2,15.2,0,0,1,2.6-3.5,17.8,17.8,0,0,1,12.4-3.7,5.3,5.3,0,0,1,4.1,2.7l2.7,3.9,6.6-1.2a5,5,0,0,1,6,3.5c.7,1.9,1.9,2.1,3.5,1.3l-5.3,4.7a13.1,13.1,0,0,0-.8-3.3c-.9-2.2-2.3-4.2-4.8-4.6a4.9,4.9,0,0,0-5.2,2.9,7,7,0,0,1-1.5,1.4,15.4,15.4,0,0,0-1.4-2.3,19.4,19.4,0,0,0-3.2-4.2,8.3,8.3,0,0,0-10-1c-3.1,1.6-5.9,3.5-5.3,7.7,0,.3-.3.6-.4.8s-.5.2-.7.1l-2.3-.8c-6.2-1.9-11.7,2.5-10.9,8.9a2.5,2.5,0,0,1-.4.8h-2.6a5.5,5.5,0,0,0-5.1,3.6c-.9,2.1-.2,4,1.3,5.6l2.3,2,4.3,3.1c.4.2.6.6,1,.7,2.7,1.3,8.9.1,11-2.1s1.8-1.8,4.1-.4,4,1.3,6.2-.8l.9-.9c1.4-1.2,2-1.2,3.5,0,3.2,2.8,4,2.8,7.8.5,1.8-1.1,2.1-1.1,3.2.8a2.4,2.4,0,0,0,3.2,1.2l2.3-1c2.5-1.3,2.9-1.2,3.4,1.7a7,7,0,0,0,5.2,5.7c1.8.3,2.7-.1,3-1.9a3.2,3.2,0,0,1,2.7-2.7,4.7,4.7,0,0,0,1.5-.6c1.6-.7,2.2-2.1,2.4-3.8s-1.4-1.9-2.3-2.6-.3-.3-.5-.8.7-1.4,1.4-1.8a6.1,6.1,0,0,0,3.2-5.4,48.6,48.6,0,0,0-.3-6.6,4.3,4.3,0,0,0-2.4-3.5,9.8,9.8,0,0,0-5.8-1.2h-2.8c3.1-2.1,6.3-2,9.6-.5l2,1.1a9.9,9.9,0,0,1,1.4,16c-1.5,1.2-2,2.2-1.5,4a7.1,7.1,0,0,1-.9,5.5c-.8,1.2-.4,2,.5,3.1a35.3,35.3,0,0,0,9.4,7.8c4.4,2.6,7.6,6.6,11.1,10.3a10.5,10.5,0,0,0,4.7,3.1,149.2,149.2,0,0,1,44.2,23.9,107.3,107.3,0,0,1,19.1,18.4c3.7,4.8,6.9,9.9,8.4,15.9a23.5,23.5,0,0,1,.5,3.7c.1,1.5.8,2.2,2.2,2.2,3.6-.1,5.5,2.1,6.3,5.1,1.9,7.2,1.6,14.1-2.5,20.5a11.8,11.8,0,0,1-5.8,4.8,5.8,5.8,0,0,1-6.2-1.1,11.5,11.5,0,0,1-4.1-7.3c-.4-2.5-.6-5-.9-7.8a23,23,0,0,0-2.8.6,35.1,35.1,0,0,1-13.6,2.3h-2a1.9,1.9,0,0,0-1.9,2,16.9,16.9,0,0,1-.1,3.2c-.3,1.9-1.2,3.4-3.3,3.8a16.1,16.1,0,0,1-8.7.1c-3.4-1-5.4-3.4-5.5-6.8s-.1-4.4-4.4-5.5a140.9,140.9,0,0,1-22.1-7.7,11.8,11.8,0,0,0-7.2-1c-.2-2.6-2-3.5-3.8-4.4A117.8,117.8,0,0,1,590.1,356l-3.2-2.3a24.3,24.3,0,0,0-.5,2.8c-.1,13.4-.2,26.9-.2,40.3a13.4,13.4,0,0,1-.3,3.5,5.9,5.9,0,0,0,1.6,5.8l4.6,4.4c.7.6,1.7,1,1.2,2.7a10.2,10.2,0,0,1-2.1-.8c-1.3-1.2-2.6-2.6-3.8-3.9s-4.3-2.2-6.1.1-2.9,3.3-3.5,5.5-2,3-4.3,2.3a7.7,7.7,0,0,1,1-1.8c2.1-2.4,4.2-4.8,6.4-7.1a7.5,7.5,0,0,0,2.3-5.7v-12c.3-12,.5-24,.9-35.9a5.7,5.7,0,0,0-1.8-4.5c-2.9-2.9-5.7-6-8.5-8.9-.8-.8-1.5-1.6-2.8-1.1a2.5,2.5,0,0,0-1.6,2.7v3.8c-.1,13.6-.2,27.2-.4,40.7a70.2,70.2,0,0,1-.7,7.9,5.8,5.8,0,0,1-.5,1.4c-2.1,3.5-4.1,7-6.2,10.4-.7,1.2-1.5,2.4-3.7,1.4,1.2-1.4,2.4-2.6,3.4-4s1.7-2.8,2.8-4.7c-1.1,0-1.7-.2-2.2.1l-5.8,3.1c-1,.6-2,1.3-3-.3,2.9-2.7,7.1-3,10.4-5.7-4.3-1.2-8.4.4-12.5-1.2.5-.3,1-1,1.6-1,2.4,0,4.8.2,7.2.4l4.7.3a2,2,0,0,0,2.1-2v-2.3c.1-13.4.2-26.8.4-40.3,0-2.2.5-4.4.5-6.6s-.1-3-2.9-3.3a40.8,40.8,0,0,1-15.9-5.2,101.8,101.8,0,0,1-18.4-12.3,34.3,34.3,0,0,0-3.1-2.4,21.1,21.1,0,0,0-.5,2.8c-.1,14.8-.1,29.6-.1,44.4a7.6,7.6,0,0,0,2.1,5.2l2.9,2.9c.9.8,1.6,1.8.5,2.7s-1.9-.2-2.5-1.1-1.5-2.3-2.3-3.5l-1.7-1.9c-.1,2.1-.2,3.5-.3,5s0,3.4-.2,5a1.7,1.7,0,0,1-.9,1.1c-.5-.2-1.3-.7-1.4-1.1s.2-2.7.3-4.1.1-2.8.2-4.3l-.7-.3-1.7,2.4c-.9,1.5-1.7,3-2.5,4.5s-1.2,1.6-2.3.8-.2-1.5.3-2.2l6.1-8.1a7.3,7.3,0,0,0,1.5-4.7V320.4a9,9,0,0,0-.2-2.3c-.1-1-.8-1.5-1.9-1.6l-8.8-.9c-2.2-.2-2.7.2-2.8,2.4l-.3,13.3-.6,22.2c-.1,2.8-.3,5.5-.5,8.3a1.8,1.8,0,0,1-.3,1.2l-4.8,7.4c-.8,1.1-1.8,1.4-3.3.1l5.1-6.1c-4.4-.3-7.5,3.5-12.1,3.3.4-2.6,2.5-2.4,3.8-3.1s2.9-1.1,4.8-1.9c-3.2-1.8-6.5.2-9-1.8-.1-1.3.8-1.5,1.6-1.4,3.1.2,6.1.4,9.2.8s2.9,0,3-2.3c.1-.1,0-.2,0-.3.3-10.1.5-20.1.7-30.2.1-3.4.1-6.7.3-10.1s-.7-3.4-2.7-4c-8.4-2.7-16.1-7.1-23.4-12-3.4-2.4-6.7-5.1-10.1-7.7a18.5,18.5,0,0,0-2.5-1.6,33.7,33.7,0,0,0-.4,4c-.1,9.6,0,19.1-.1,28.6,0,4.5-.2,8.9-.4,13.3a10,10,0,0,0,2.1,7.1,30.4,30.4,0,0,1,2.7,3.9c.4.6.4,1.9,0,2.2s-1.7,0-2.2-.9-.6-1.4-1-2l-1.5-2.6-.7.2c-.4,3.5-.9,7.1-1.3,10.7-1.9,0-1.9-1.1-1.8-2.2s.5-5.3.7-7.9V345c-3.2,1.5-3.8,5.3-7.3,6.9.3-1.1.2-1.9.6-2.3s3.3-3.6,5-5.3a6.6,6.6,0,0,0,2.3-5.3c0-16,.2-32.1.2-48.2a6.2,6.2,0,0,0-1.2-3.5c-3.6-4.2-7.2-8.3-10.9-12.4a14.3,14.3,0,0,0-1.6-1.3,9.5,9.5,0,0,0-.4,1.7v21c0,6.5.1,13.1-.1,19.7s-.4,10.5-.7,15.8a6.7,6.7,0,0,1-.7,2.4c-1.8,3.1-3.7,6.2-5.6,9.2-.7,1-1.5,2-3.4,1.7.3-3.3,3.7-4.7,4.6-8-2.2.8-4,1.6-5.9,2.1s-3.7.5-6,.9c.5-1,.6-1.8,1-1.9a25.2,25.2,0,0,1,3.9-1.2,25.2,25.2,0,0,0,7.7-2.9c-4.1-2.3-7.8,1.3-11.7-.5.7-.7,1-1.4,1.5-1.5,2.4-.4,4.8-1.4,7.4-.6a19.7,19.7,0,0,0,3.5.4,1.8,1.8,0,0,0,2.1-1.9,20.9,20.9,0,0,0,.1-2.5c.1-14.4.1-28.8.3-43.2,0-4,.6-8,.8-12a5,5,0,0,0-.5-2.7c-1.7-3.7-3.5-7.2-5.2-10.9a4,4,0,0,0-3.3-2.5c-4.1-.7-8.3-1.5-12.4-2.6a35.2,35.2,0,0,1-12.6-6.5c-3.7-2.9-5.7-5.8-7.9-11.6h-.5a64.4,64.4,0,0,1-2.3,11.6c-1.4,4.6-2.7,9.2-4.4,13.6a142.8,142.8,0,0,1-10.3,22.5,20.7,20.7,0,0,1-1.9,3.2c-1.6,2.1-1.4,3.9.1,6.1,3.5,4.9,6.8,9.9,10.2,14.9,1.6,2.3,3.2,4.5,4.7,6.8s1.6,2.4,4.2,1.6,3.6-1,5.5.3,2.6,2.7,1.8,4.6-.1,3.5,1.1,4.9,3.9,4.6,6,6.6a50.3,50.3,0,0,1,9.9,13.1,29,29,0,0,1,2.3,6.2,4.2,4.2,0,0,1-.6,2.9c-.8,1.1-2.4.7-3.2,0a62.3,62.3,0,0,1-5.8-5.7,35.8,35.8,0,0,1-3-3.6c-2.4,1.7-4.3,3.3-6.4,4.5a37.9,37.9,0,0,1-4.8,1.4c-1.8.5-3-.1-4.1-1.6s-1.3-.7-1.9-1.1-2.1-2.1-2.4-4.2c.8.5,1.2.6,1.4.9,1.9,2.4,2.1,2.4,4-.1a8.2,8.2,0,0,0,1.7-6.6c-.1-.8-.4-1.9,1.2-2.3,1.4,1.9.8,4,.3,5.9a12,12,0,0,1-1.7,3.4c-.3.5-1,1-1,1.5a3.3,3.3,0,0,0,.5,2.2,1.9,1.9,0,0,0,1.9-.1c2.5-2.3,5.8-4,6.9-7.7a17.7,17.7,0,0,1-.1,2.3c-.1,1.1-.2,2.4,1.1,2.6s1.7-1.2,1.8-2.4a16.4,16.4,0,0,0,.2-2.2c1.7-.4,2.2.9,2.8,1.7s3.2,4.5,4.9,6.7,1.9,2.8,3.9,2.9.7-2.1.3-3.2a38.8,38.8,0,0,0-8.6-13.6c-3.3-3.4-6.3-7.1-9.4-10.7a7.1,7.1,0,0,1-1-1.4l-2.2,1.2-8.7,6.2c-2.4,1.6-2.3,1.6-1.8,4.3s2,4.3,1.1,7.2a11.9,11.9,0,0,1-1-1.7c-.6-1.6-1.2-3.2-1.9-4.7a3.5,3.5,0,0,0-3.3-2.6,3.5,3.5,0,0,1-1.7-.6c-2.4-1.2-3-3.3-1.7-5.6s1.7-2,2.5-3.1l.6.4-1.2,2.4c.7.2,1.4.7,1.8.5,2.6-1.2,5.1-2.5,7.6-3.9.5-.3.6-1.3.9-1.9,3.3.4,4.2-2.3,6.2-4.3-3.9,0-4.7.6-5.5,3.3a2.3,2.3,0,0,1-.7,1l-5.5-.3-17-23.3-6.8,10-5.6,8.3c-.2.3-.7.7-.7,1,.4,2.5-1.4,3.4-3.5,4.7,1,.5,1.5,1,2.1,1.2,3,.9,4.1,3.2,4.5,6s.6,4.1.8,6.2-.2,6.4-2.6,8.8a2.6,2.6,0,0,0-.5,3.7c2.5,4.1,2.9,8.8,3.6,13.4a4.6,4.6,0,0,1-.7,3c-2.5,3.2-5.2,6.5-9.5,7.5a18.3,18.3,0,0,1-4.7.3,3.1,3.1,0,0,0-2.7,1.2,15.3,15.3,0,0,1-14.4,5.5,8.9,8.9,0,0,0-6.9,1.7,33.2,33.2,0,0,1-15.1,5.2,84.4,84.4,0,0,1-14.2.6c-8.6-.3-17.1-1.6-25-5.2-3.7-1.8-7.4-3.8-9.5-7.6a2.4,2.4,0,0,0-3.2-1.1,11,11,0,0,1-3.1.4l-17.5.6c-.1,0-.2.1-.3,0-3.5-1.4-6,.7-8.5,2.6-7.3,5.2-15.5,8-24.3,9.5s-17.5,1.4-26-1.4a22.3,22.3,0,0,1-5.6-2.7c-4.7-3.2-5.3-8.3-1.5-12.6,2.2-2.4,4.5-4.4,7.8-5.2,1.4-.4,2.9-.8,3.7-2.6l-2.5-2.2c-3.6-3-7.4-5.8-10.7-9s-9.3-9.3-13.8-14c-15.2-15.5-29.1-31.9-40.9-50.1a145.5,145.5,0,0,1-15.6-30.4c-.3-.9-.8-1.7-1.3-2.8l-2,1.3c-2.8,2.4-5.5,5-8.4,7.2a44.4,44.4,0,0,1-8.4,5,12,12,0,0,1-7.3.3c-5.3-1.3-8.3-4.7-10.6-9.1a56.9,56.9,0,0,1-5.9-17.4c-.3-1.8-1.3-3.6-1-5.5s.3-2.7.5-4.1a16.1,16.1,0,0,0,.1-3.1c-.3-3.9-1-4.3-5-4-9,.8-18.1,1.4-27.1,2l-2.6.2-.7.7,4.3,1.9c-1.8,1.7-3.5,1.5-5.5,1.6.6-2-1-2-2.1-2.4L23.1,226v-.9a13.9,13.9,0,0,1,2.6-1c2.3-.2,4.7-.2,7-.3a220.5,220.5,0,0,0,30.3-3l1.1-.5c.5-4.1.9-8.2,1.4-12.4L67,197.3c.4-2.5.4-2.8-1.7-3.9l-7.6-3.8a16.4,16.4,0,0,0-2.2-.3,24.4,24.4,0,0,1,2.1,3,4.7,4.7,0,0,1,.3,1.7,4.7,4.7,0,0,1-2,.2,7.2,7.2,0,0,1-2.1-1.2l1.3-.5c-.4-2.9-3.7-4.4-3.6-7.5,1.6-.7,2.5.2,3.6.8l10.6,5.7c2.1,1.2,3.2.4,3.7-1.8s.7-3.5,2.7-4.3H72l-1.9,5.1c-.8,2.3-.5,3,1.7,4s2.7,1.2,4,1.8a5.8,5.8,0,0,1,1.3,1.4l-.5.7-7.4-2.4a15.7,15.7,0,0,0-1.2,2.8,102.3,102.3,0,0,0-1.6,19.2c0,1.8,1.6,2.1,2.3,3.1s.1.6,0,.7c-2.2,1.4-2.2,3.3-2.1,5.7a94.2,94.2,0,0,0,3.2,19.7c1.7,6.1,5.7,10.7,10.2,14.8a3.3,3.3,0,0,0,5-.4c2.6-3.9,5.6-7.6,7.3-11.8a44.1,44.1,0,0,0,3.3-14,58.7,58.7,0,0,0-.6-13.9,60,60,0,0,1-.3-12,33.5,33.5,0,0,0-1.8-12.2c-1.3-4.3-2.3-8.8-4.9-12.7a16.4,16.4,0,0,0-6.5-6.3c-.4-.2-.7-.7-1.2-1.1a1.9,1.9,0,0,1,2.4-1.1,5.8,5.8,0,0,1,1.8.8c5.9,4.2,12.4,7.5,17.9,12.4,3.4,3,7.2,5.6,10.9,8.3s2.8,1.7,5-.1c8.3-7,18-11,28.5-13.1,4.5-.9,9-1.2,13.5-1.8l2.4-.6a25.6,25.6,0,0,0-1.6-3.3,28.8,28.8,0,0,1-4-12.3c-.1-3.4-.1-7,2.4-9.9s8.6-4.7,13-1.2l3.4,2.9c.3-2.7.8-4.7.5-6.5-.6-3.9.6-7.4,1.3-11s2.8-9.3,4.3-13.9c.8-2.2.8-2.6-1.1-4a39,39,0,0,0-3.6-2.5c-3-1.7-5.3-1.1-7,1.8-.5.9-.9,1.9-1.4,2.9s-.7.7-1.4,1.4c-.2-1.1-.5-1.8-.3-2.4,1.6-5.5,6.3-8.4,12.3-4.3,1.3.9,2.4,1.9,3.8,3,2.1-1.8,2.9-4,3.8-6.7l-4.7-.9c-2.9-.2-4-2.5-5.1-4.5s.1-2.4.8-3.1a18.5,18.5,0,0,1,4.8-3.5,47,47,0,0,1,16.8-4.4c6-.6,12-1.2,18-1.5s10.7-.9,16.1-.1,8,.3,12.1.3a8.2,8.2,0,0,0,2.2-.2c7.8-2.1,15.7-1.5,23.6-1.3s17.2.6,25.7,1.4,19.6,2.1,29,5.2a36,36,0,0,1,7,3c4.2,2.5,4.6,5,1.5,9.1l-1.1,1.7a21.8,21.8,0,0,0,3.4.2c7.5-.7,15-1.3,22.4-2.3,9.5-1.4,19-3,28.5-4.6a18.2,18.2,0,0,0,4.4-1.7c1.8-.9,1.8-2.2.2-3.4a4.1,4.1,0,0,0-1.1-.7c-5.7-2.2-11.2-4.8-17.4-5.8s-13.8-3-20.8-4.4c-4-.8-8.1-1.3-12.2-1.8l-17.3-1.9c-3-.3-5.9-.4-8.9-.5l-32.3-1.7c-5.7-.4-11.5-.4-17.1-1.4s-11.6-.4-17.3-.9a2.4,2.4,0,0,1-1.7-.9,9.4,9.4,0,0,1,1.6-.4l10.1.3,8.3.3c6.5.3,13,.5,19.5,1,4.4.3,8.8.8,13.2,1.3l4.5.2,10.7.5h3.1v-.7l-1.5-.4c-.7-.1-1.4.1-1.9-.2-3-1.7-6.2-1-9.3-1-1.5,0-3,.1-4.3-1.4,1.2-1.8.2-4.1,1.5-6.1.2-.4-.4-1.7-1-2.1-2.8-2.1-5.8-4.2-8.8-6.2s-2.1-.9-3.5.7l-2.2,2.6c-1.5,1.7-1.4,2.1.4,3.6l7.9,6.2,1.5,1.3c-1.9.4-2.7.4-3.9-1.2a25.9,25.9,0,0,0-7.1-6.1c-1.8-1-4,.5-5.9,2.1l2.6,4.6c-2.8,0-5.2.1-7.6,0s-1.6-.9-1.7-1.9-.4-4-.6-6.2l4.1-2.5a4.5,4.5,0,0,1,4.5-.2c1.9,1.2,3.3.6,4.4-1s3.2-4.9,4.7-7.5.3-2.3-1.2-2.9l-4.9-2.3a27.7,27.7,0,0,1-13.3-13.5,81.8,81.8,0,0,1-6.8-21.7,8.6,8.6,0,0,1,0-1.6l.4-.3,1.7,4.4c2,5.1,4,10.2,6.1,15.3a20.4,20.4,0,0,0,5.6,7.2c3.3,2.7,6.4,5.5,9.6,8.3s3,2.2,5.5,2.5c1-2.4,3.1-2.8,5.4-2.7H300c1.3-.2,2-1,1.6-2.2a39.1,39.1,0,0,0-2.7-6.7c-.8-1.6-3-1.5-4.3,0a16.3,16.3,0,0,0-1.5,2.7l-5.9-14.2,4.5-.7a17.7,17.7,0,0,0-1.3-1.7,72.1,72.1,0,0,0-11.1-7.9,36.6,36.6,0,0,1-13.7-12.8,17.6,17.6,0,0,0-2.4-3,4.9,4.9,0,0,0-4.6-1.4c-3.1.6-6.2.8-9.2,2s-5,3.1-7.1,5.2A102.1,102.1,0,0,1,234,25c-5.7,4.5-11.6,8.8-17.5,13.1-2.4,1.8-2.7,2.4-1.8,5.2a2.7,2.7,0,0,1,.3,1.2c-.5,5.8,2.5,10.4,5.2,15.1.9,1.5,1.8,1.8,3.4.8a50.5,50.5,0,0,0,6-4.3,68.5,68.5,0,0,0,15.5-20.3c.9-1.8,1.4-3.8,2.6-5.6-.8,2.8-1.3,5.7-2.3,8.4-2.8,7-6.3,13.7-11.7,19.1a60.3,60.3,0,0,1-7.6,5.7c-2,1.3-2.2,1.8-.8,3.6a3.9,3.9,0,0,0,.8,1c4.6,4.9,2.5,4.6,9.6,4.4,3.1,0,5,1.8,6.5,4s-.4,7-3.5,7.3a34.1,34.1,0,0,1-5.5-.2,13,13,0,0,0,0-2.8,3.3,3.3,0,0,0-4.7-1.5,15.3,15.3,0,0,0-3,2.7,2.7,2.7,0,0,1-3.1,1.2c.7-3.3,4.4-3.7,5.8-6.6a31.2,31.2,0,0,0-6.5-6.6c-.4-.4-1.6-.1-2.3.2s-3.3,1.6-4.9,2.3L209.1,75c2-1.5,4-3,6.1-4.4s2.2-1.2,3.2-2a2.3,2.3,0,0,0,.9-1.8c-.1-2.1-3.1-4.7-5.1-4.8l-7.3-.5c-1.7-.1-2.3.4-2.4,2.1a23,23,0,0,0,1.1,9.4c.8,2.2.9,2.2,3.6,1.7-1.9,1.4-2.2,3-1,5a5.3,5.3,0,0,1,.6,2.1c-2.3.1-2.8-1.2-3.4-2.7a44.1,44.1,0,0,1-2.1-25.9,7.5,7.5,0,0,0-.1-2c-.8.9-1.5,1.3-1.7,1.9-1,2.3-2,4.6-2.8,7s-2.3,7.7-4.1,11.4c.2-1.3.4-2.6.7-3.9,1.7-8.5,4.2-16.6,10.6-22.9,1.6-1.6,2.6-3.6,4-5.4l2.4-2.8c1.9,1.6,3.4,1,5.1-.3,6.5-5.2,13.2-10.2,19.7-15.4a35,35,0,0,0,3.8-3.9c3.9-4.7,9-7,15-7.8a12.2,12.2,0,0,1,9.4,2.4c8.8,6.3,17.8,12.2,26.6,18.6a153.6,153.6,0,0,1,14.6,12.1c5.9,5.5,9.4,12.5,11.4,20.2a81.5,81.5,0,0,1,2.8,22,8.8,8.8,0,0,0,.2,1.7c2.9,2.6,6.4,1.7,9.7,2.2l25.1,3.4c1,.1,2.1,0,3.1.2,7.6,1.6,15.4,2.6,22.8,5.3,2.6.9,5.3,1.3,7.9,2.4a50.8,50.8,0,0,1,5.9,3.5c.8.5,1.5,1.2,2.3,1.6a2.9,2.9,0,0,1,.4,5.2,11.7,11.7,0,0,1-4.1,2.2c-4.5,1.3-9,2.5-13.6,3.5a219.5,219.5,0,0,1-33.3,4.1L326.2,121a13.3,13.3,0,0,0-3,.5c1,1.6,1.7,3,2.7,4.7,1.2-.4,2.3-1,3.5-1.3,2.9-1,4.4-.2,5.1,2.8a47.1,47.1,0,0,1,.8,5c0,.7-.7,1.4-1.1,2.1s-1.3-.8-1.5-1.4a33.9,33.9,0,0,1-1.5-4.5c-.3-.9-.7-1.8-2-1.6a2.9,2.9,0,0,0-2.3,2.9,24.4,24.4,0,0,0,.6,3.1c1.7,4.1.9,8.4,1,12.5s0,5.5,0,8.6l2.2-.9c2.3-1.6,4.6-3.1,7.6-2.8a1.3,1.3,0,0,0,.9-.1c1.9-1.9,3.8-.7,5.5.3a6.5,6.5,0,0,1,3.5,5.3c.2,3.6.9,7.4-.9,10.9-.6,1.2-1.4,2.5-2.2,3.9a4.8,4.8,0,0,0,1.8.6,87.5,87.5,0,0,1,16.1,2,80.4,80.4,0,0,1,19.8,6.4c2.9,1.4,5.4,3.5,8.1,5.3a22.7,22.7,0,0,1,3.5,2.6A47.1,47.1,0,0,1,406.1,206c.4,1.3,1,2.7,1.6,4.2.9-.9.5-1.9.5-2.8-.1-3.1,1.2-5.3,4.2-6.4a3.3,3.3,0,0,0,2.5-3.2,8.7,8.7,0,0,1,.5-2.2c1.4-3.5,4.3-5.7,7-8a5.3,5.3,0,0,1,5.7-.7,19.8,19.8,0,0,0,2.6.6,16.6,16.6,0,0,0,.2-7,24.2,24.2,0,0,1-.5-4.7c.1-7.6.4-15.2.6-22.8,0-3.1.1-6.2.1-9.3.1-23.8-.3-47.6.5-71.4.4-13.1.4-26.2.9-39.3.4-8.8,1.1-17.5,1.7-26.3a20.7,20.7,0,0,1,.5-3c3.1.9,5.3-.9,7.9-1.6A60.9,60.9,0,0,1,452.8.2c6.5-.3,12.9-.3,19.4,0a36.4,36.4,0,0,1,8.6,1.7,6.5,6.5,0,0,1,4.6,7.9c-.8,2.8-1.8,5.6-2.8,8.4-.3,1-.8,2-1,3s-.1,3.4,2.2,4.2a29.8,29.8,0,0,0,6.7,1.6,40.8,40.8,0,0,0,20.1-3.5c5.1-2.1,10.5-2.9,16-3.4h.7c1.1.1,2.2.5,2.1,1.8a2.9,2.9,0,0,1-1.7,1.9,17.9,17.9,0,0,1-5.5,1.1c-5.5.1-10.3,2.4-15.3,3.8A41.5,41.5,0,0,1,484,29c-6.4-1.7-7.5-4.3-5.4-10.6.7-2,1.5-3.9,2.3-5.9a21.7,21.7,0,0,0,.7-2.4c.5-3.3-.3-4.7-3.6-5.6A39.4,39.4,0,0,0,469,3c-6.7-.3-13.5,0-20.3-.1-3.9-.1-7.4,1.4-11.2,2-1.6.3-1.8,1.6-1.6,2.9,1.5,9.1.6,18.2.8,27.3.2,11.4,0,22.8,0,34.3,0,1,.1,2,.1,3.1h1.6c5.1-2.4,10.6-1.7,15.9-1.4s8.2,4.7,7,9.9a34.3,34.3,0,0,0-.9,4.4c-.5,2.9.5,4.7,3.3,5.6a12.1,12.1,0,0,0,3.7.7c4.9.4,9.7.5,14.4-1.3l18.8-6.7.9-.4c2.9-1.2,5.1-2.7,5.7-6.3,1-5.8,3.7-11.2,6.1-16.6s5.1-12.8,8-19,5.3-10.8,8.1-16.2c.1-.2.4-.4,1-.9-3.5,9.1-7.2,17.6-9.9,26.4s-7.8,17.2-9.4,26.7l2.1,1c.1,2-1.3,3-2.7,3.6-5.6,2.8-11.2,5.6-16.9,7.8a96,96,0,0,1-15.8,4.8c-3.2.7-6.7.3-10.1.2-1.1,0-2.2-.6-3.4-.7-5.2-.7-8-4.7-7-9.9a50.2,50.2,0,0,0,.8-5.4,5,5,0,0,0-4.4-5.6,50.3,50.3,0,0,0-5.6-1c-3.3-.6-6.4.5-9.5,1.5-1.5.4-2,1.6-2,3.2.1,11.1-.1,22.2,0,33.3.2,14.5,1.5,29,1,43.5,1.7,8.8.6,17.7.9,26.5.1.4.2.8.3,1.4s2.6-.4,3.9-.8a10.1,10.1,0,0,1,10.4,2.7l.2.2c1.7,3,2.8,3.1,5.5,1.2a6.7,6.7,0,0,1,4.2-.8c2.6.1,4.7,1.2,5.5,4a10.9,10.9,0,0,0,1.4,2.1l-3,3.3c-1.7-2.8-3.2-5.4-6-6.4s-5.4,1.1-7.5,3.3l-1.4-2.2c-2.8-5.5-8.4-5.7-12.5-3.9a8.7,8.7,0,0,0-5.1,5,2,2,0,0,1-3,1.3l-1.8-.5c-4.4-1.1-8,.4-10.8,3.7a6,6,0,0,0-1.4,5.6,19.5,19.5,0,0,1,.2,2.5h-1.2c-3.2-.9-5-.1-6.1,3a4.7,4.7,0,0,0,2.3,6.2,15,15,0,0,0,3.4,1.6c2.4.7,4.7,1.2,6.4,3.5s5.2,1.3,7-1,1.2-2.2,2-3.2,2.3-1.1,2.6.2a2.8,2.8,0,0,0,3,2.7,4.9,4.9,0,0,0,4.5-2.4,7.8,7.8,0,0,1,.9-2.1,10.5,10.5,0,0,1,2.1-1.8c.3,1.4.4,2.2.5,3,.3,2.7,2.5,3.8,4.8,2.4s2.3-2.2,3.5-3.2l2.3-1.8.7.3a19.2,19.2,0,0,1,0,2.4c-.3,1.6.6,2.6,1.9,3.3a3.2,3.2,0,0,0,3.6-.2l3.9-2.6a13.1,13.1,0,0,1,.2,3.2c-.5,1.7.4,2.6,1.6,3.4a6.8,6.8,0,0,0,7.9-.1l2.3-1.7a5.3,5.3,0,0,0,1.1-7.6l-1.4-1.9,4.1-5.4c2.5-3.4,1.5-6.9-.2-10.1s-3.2-2.3-5.3-2.4a18.6,18.6,0,0,1-3.3-.4c4.4-2,10.2-.3,13.2,3.7s1.9,9.2-2.8,14.7c.4,2.1.7,4.3,1.2,6.8l6.6,1.2a11,11,0,0,1,4.7-6.4c4.5-2.9,8.9-2.2,13.3-.3,2,.9,2.8,2.9,3.4,4.8s1.2,2.2,2.8,1.7c-1.2,1.4-2.4,2.7-2.4,4.7-.1.4-.8.9-1.2,1.3a5.8,5.8,0,0,1-1.4-1.3,5.1,5.1,0,0,1-.6-2.1,11.7,11.7,0,0,0-4.4-6.5,8,8,0,0,0-10.2.4c-1.9,1.7-3.3,3.7-1.7,6.4a3.2,3.2,0,0,1,.3.9c-.1.4-.2.9-.5,1.1a1.4,1.4,0,0,1-1.1,0,4.1,4.1,0,0,1-1.1-1.2c-2.1-2.5-5-2.7-7.6-1.8s-5.1,2.9-7.5,4.6-1.6,3.2-.2,5l1.1,1.6-.4.4h-1.3a5.4,5.4,0,0,0-5.6,3.6c-1,2.3-.8,4.8,1.2,6.4s6.2,4.9,10.1,5.7,5.7.3,7.4-2.8c.4-.8,1.4-1.2,2-1.7,3.2,3,4.6,3.2,8.4,1.4A14.5,14.5,0,0,0,501,240l1.8-1c2.6,3.2,4.2,3.6,7.4,1.8l.5-.4c1.7-1,2.3-.8,3.2.9s2,2.5,4.4,2a38.1,38.1,0,0,0,4.5-1.3c.3.4.7.6.8,1,.8,2.4,2.8,3,5,3.3a8.1,8.1,0,0,0,6-1.6,14.5,14.5,0,0,1,2.9-1.9,2.3,2.3,0,0,0,1.4-2.8c-.2-1.4-.8-2.4-2.3-2.6l-3-1,2.5-2.4,3.7-3.5c2.8-3.1.8-9-2.3-10.4a10.7,10.7,0,0,0-12.1,2.4c-.4.4-1.3,1-1.5.8a3.8,3.8,0,0,1-1.1-1.6,1.3,1.3,0,0,1-.1-.6c-.5-4.1-2.8-5.9-6.8-5.5Zm-6.5,73.1,1.6,1.5,8.1,10.1c1,1.1,2.2,2.1,3.8,3.6,0-3.2-.5-5.4-2.1-7.6,3.8,0,2.4,4.8,5.9,5.5-.3-3.2-.6-6.1-.9-9.4a45.8,45.8,0,0,1-4.4,1.8c-3.7,1.2-3.7,1.1-5.8-2.1a26.7,26.7,0,0,0-3.2-4.3c-1.6-1.7-2.2-1.4-3,1l-2-1.5a19.4,19.4,0,0,0,.7,3,28.6,28.6,0,0,1,1.5,4.1c.8,4,3.4,6.6,6.5,8.9a25.2,25.2,0,0,1,3,2.7,43.9,43.9,0,0,1,3.3,4c.5-.9.7-1.5.5-2a24.7,24.7,0,0,0-3.1-4.6C514.9,298.9,511.1,294.2,508.5,288.7Zm85.7,34.2a9.8,9.8,0,0,1,2.2,1.7c1.3,1.8.8,5.2-1,7.4s-3.6,3.4-6.3,2.7l-3-.9c.3,2.9-.5,5.4.7,8.1.4-.6.8-.8,1-1.2,2.1-4.9,6.6-5.1,10.9-5.4,2.8-.3,5.7.3,8.5.5s3.4,1,2.5,3.9a11.1,11.1,0,0,1-.3,1.3,4.2,4.2,0,0,0,4.5-1.8,3.7,3.7,0,0,0-.5-4.8l-2.4.5c-3.4.6-6.5-.4-9.5-1.8a3.1,3.1,0,0,1-2.2-2.9,36.5,36.5,0,0,1,.8-7.4,4.9,4.9,0,0,1,4.8-3.6l2.2-.5-4.5-5-7.5,6.6c-1,.8-1.5,1.6-.8,2.7a5.5,5.5,0,0,0-4.1,1c-2,1.3-4,2.4-6,3.6a33.7,33.7,0,0,0-3.1,2.1c4.2-.5,4.2-.5,7.8,1.8,1.7,1.1,2.5,1,4-.2S596,326.8,594.2,322.9ZM315.7,121.5c1.7.2,3.6.9,4.6-1s2.1-1.9,3.4-2.6c5.3-2.6,6-6.7,1.8-10.1s-6.9-2.8-10.7-3.4-7.9-.9-11.8-1.6-6.8-1.7-10.5-1.2a9.7,9.7,0,0,0-.1,1.6c.7,2.7-.5,4.3-2.8,5.4a18.3,18.3,0,0,0-2.8,1.4c-1.5,1-1.6,2.5-.1,3.6a4,4,0,0,0,1.8.7l8.8.7c2.5.2,4.2-1,5.5-3l1.5-2.4c.6-.8,1.3-1.2,2.3-.3a20.4,20.4,0,0,0-.9,2.2c-1.2,4.4-.5,7,1.9,9s3.1,1.5,4.7-.3l2.2-2.9c.6,1.8.9,3,1.3,4.3l-3.7,1.4a31.9,31.9,0,0,1-4,1.2c.8,2.3,1.6,4.3,2.2,6.4s.9,4.2,1.4,6.5c7.4-5,7.4-5.1,7.3-12.8a2.5,2.5,0,0,0-.2-.7ZM133.5,214.4a10,10,0,0,1-2.6-.9c-2.5-1.5-5-3.2-7.4-4.9s-5.7-4.4-8.7-6.4c-5.3-3.6-10.8-7-15.6-11.5a30.2,30.2,0,0,0-7.1-5c-.2.5-.4.8-.3.9,1.2,3.2,2.5,6.5,3.8,9.7a7.1,7.1,0,0,1,.4,2.1c.2,1.2.2,2.5.3,3.7.5,4.2,1.4,8.4,1.6,12.6.2,6.3-.1,12.7.2,19,.1,3.7-.9,7.1-1.2,10.6a34.3,34.3,0,0,1-.6,3.4c-.6,2.3-1.1,4.6-1.6,6.9a34,34,0,0,0,7.6-5.2c6.4-6.2,13.7-11.5,20.5-17.2,2.4-1.9,5.1-3.4,7.3-5.4s4.5-2.3,5.8-5.2c-10.1-3.3-18.6-9.1-26.5-15.8a67.7,67.7,0,0,1,6.5,3.6c5.1,3.1,10.2,6.1,15.4,9,1.3.7,2.9,1.7,5.1.8l-3-4.9c3.2.5,5.2-1.4,7.3-3.4-1.9-.7-3.8-1-5.2-2s-2.2-2.6-3.5-4.2l-4.3,3.7a28.6,28.6,0,0,0,2.9,2.1A5.3,5.3,0,0,1,133.5,214.4ZM627.8,368.2c1.2-.6,2.4-1.1,3.6-1.8,3.3-2,6.5-4,9.6-6.1,1.1-.7,2.1-1.5,1.2-3.4a5.5,5.5,0,0,0-2.5.3c-2.6,1.1-5.1.6-7.7.3a49.2,49.2,0,0,0-9.4-.1,6.5,6.5,0,0,0-5.3,3.6,1.9,1.9,0,0,0,.5,2.8,22.5,22.5,0,0,0,10,4.4,4.5,4.5,0,0,1-3.7,2.5,10.7,10.7,0,0,0-2.1,1.5c4,1.5,7.4,2.7,10.7,4.1,10,4,20.5,5.6,31.2,6.7,4.8.5,9.6-.6,14.4-1.4a30.5,30.5,0,0,0,5.1-1.7c1.8-.6,2.8-2,3.7-3.7a20.7,20.7,0,0,1,3.9-6c2.2-2.1,2.8-4.1,2.1-6.8a16,16,0,0,0-1.1-3.3c-3.8-9-10.3-16-17-22.8-.4-.5-1.2-.7-1.9-1.1l-1.1,1.3c-3,3.1-5.7,6.5-8.9,9.4-6.8,6.4-14.6,11.6-22.4,16.7C636.7,366.1,632.6,368.3,627.8,368.2ZM182.1,217a23.1,23.1,0,0,0-2,2.6c-4.4,9.9-5.9,20.4-6.4,31.1-.2,3.3.5,6.7.9,10.1a81.1,81.1,0,0,0,6.6,22.7,33.5,33.5,0,0,0,2.8,5.7c3.2,4.2,5.9,8.8,9.9,12.4,2,1.8,3.3,4.4,5.2,6.3,7.6,7.9,16.9,13.4,27.1,17.2a68.6,68.6,0,0,0,20.4,4.6c6.1.3,12.2.5,18.3-.6a95.7,95.7,0,0,0,18.4-4.8A81.8,81.8,0,0,0,308,309c3.2-2.9,6.4-5.8,8.6-9.7-.3-.5-.4-.9-.6-1.2-3.7-5.4-3.1-10.7,1.6-15.3,2-2,2-2.5.9-5-3.1-6.9-6.1-13.8-5.5-21.6a4,4,0,0,0-.3-1.5c-1-4.9.4-6.6,5.4-6.7s9.3-.4,13.9-.7c1.9-.1,2.2-.5,2.1-2.3a74.7,74.7,0,0,0-6-26.8c-.7-1.9-1.8-3.7-3.1-6.3-1.3,3.1-2.3,5.5-3.4,7.8a147,147,0,0,1-12.7,22.1,91.4,91.4,0,0,1-8.2,10.4c-5.7,6.1-11.5,12-18.6,16.5a47.7,47.7,0,0,1-8.4,5c-4.7,1.8-7.9,2.1-9.7-4.1-1.3-4.4-2.4-9-3.8-13.4a32.3,32.3,0,0,0-3.4-8.1c-.8-1.2-3.2-1.4-4.8-2l-1.2-.3h-2.4c-.6,1.5-1.4,2.7-1.5,4-.3,3.7-1.9,6.9-3.2,10.1s-3.1,6.3-4.6,9.4-1.7,3.4-4.9,2.9a11.5,11.5,0,0,1-2.9-1.1c-1.4-.7-2.7-1.7-4.1-2.3-8-3.4-14.9-8.5-21.2-14.4-8.5-8.2-14.7-17.9-19.7-28.5Zm-30.5,94.3c0,1-.2,1.4,0,1.7,1.7,3,3,6.5,5.3,9,7.6,8,15.6,15.8,23.5,23.6a3.2,3.2,0,0,0,1.8,1.1c2.1-.1,3.3,1.2,4.5,2.5l3.5,3.7c4.1,4.3,8.6,6.3,14.8,4.7a72.5,72.5,0,0,1,14.1-1.6,78.5,78.5,0,0,1,10.7.9,26.1,26.1,0,0,1,10.1,3.6,8.9,8.9,0,0,1,3.8,4.9,40.2,40.2,0,0,0,2.7,5.6c3.7-3.1,7.7-2.4,11.5-2.4s6.4-.1,9.5,0a3.4,3.4,0,0,0,3.4-1.9c1.5-3.3,4.3-5.1,7.4-6.7,6.5-3.3,13.6-4.2,20.8-4.8a40.3,40.3,0,0,1,13.8,1.7,10.8,10.8,0,0,0,3.1.2,9.1,9.1,0,0,1,4.6.7c3,1.2,4.1.8,6.1-1.6s3.7-4.3,5.4-6.5c4.3-5.2,8.5-10.5,12.7-15.7s6.1-7.5,9-11.3a3.7,3.7,0,0,0,.8-2.6,10.8,10.8,0,0,1,1.1-5.9,65.6,65.6,0,0,0,2.3-6.2c.9-2.7-.1-3.8-2.9-3.8l-1.2.2c-2.6.7-5.2.9-7.4,2.6a5.4,5.4,0,0,1-2,1c-1.8.5-3-.3-3.1-2.1a17,17,0,0,1,.5-5,3.8,3.8,0,0,0-1.8-4.3l-6.5,4.8c-.6.5-1.5,1.2-2.1,1.1-3.5-.4-7.1.5-10.4-1.1-1.6-.7-2.6-.2-3.8,1-3.8,3.9-7.6,7.7-11.6,11.3s-11.3,7.9-17.5,10.8a72.5,72.5,0,0,1-26.5,7.1,100,100,0,0,1-19.7-.4,78.1,78.1,0,0,1-25-7.7c-3.9-1.9-7.7-4.1-11.4-6.3a34.8,34.8,0,0,1-5.8-4.3,86.8,86.8,0,0,1-14-16.8c-.8-1.2-1.4-2.6-3.3-2.8a3.2,3.2,0,0,0-.3,1.6c.2,1.6.5,3.3.8,5s-.3,3.1-2.4,3a13.2,13.2,0,0,1-3.9-1,32.9,32.9,0,0,1-4.2-1.8,37.7,37.7,0,0,0-.3,5.5,6.4,6.4,0,0,1-2.6,5.9l-4-1.1a5.9,5.9,0,0,0-.5,1.2,17.9,17.9,0,0,0,.2,2.3c.1,2.3-.6,3-2.8,2.3a66.5,66.5,0,0,1-6.1-2.7Zm86-159.4c-2.1,1.9-4.1,3.3-5.6,5.1-3.9,4.5-15.6,4.9-19.5,2.5a42.3,42.3,0,0,1-9.1-7.3,27.3,27.3,0,0,1-7.2-14.6,8.9,8.9,0,0,0-1.9-3.9,68.2,68.2,0,0,0-5.8-4.9c-.8-.6-1.8-.9-3-1.6l-1.9,5c-3,8-2.9,16.4-3.3,24.8-.3,6.7,1.8,13,3.9,19.1,4.1,12,8.9,23.5,16.5,33.8s17.8,20.3,30.4,26.4c10.9,5.4,22.3,5.6,34,3.6h.3c9.1-1.8,16.4-7,23-13.2,3.1-2.8,5.4-6.4,7.9-9.8a61.4,61.4,0,0,0,5.9-8.5c3.6-7,7.4-14,9.8-21.6,1.8-5.7,3.9-11.4,5-17.3a20.8,20.8,0,0,1,1.2-5.5c1.3-3,1.3-6.3,1.7-9.4.6-5.2.2-10.6.1-15.9a20.8,20.8,0,0,0-.5-2.4c-2.4,1.9-4.4,3.6-6.5,5.1a6.3,6.3,0,0,0-2.8,4.1,28,28,0,0,1-8,13.8c-4.5,4.4-10.1,6.5-16.2,7.4a2.5,2.5,0,0,1-1.5-.1c-3.8-1.5-7.9-2.7-11.4-4.8-6.7-4-10.1-10.6-12.2-17.9a31.7,31.7,0,0,1-1.4-11.9,4.1,4.1,0,0,0-3-4.6,13.8,13.8,0,0,0-9.6-.3,3.4,3.4,0,0,0-1.9,1.8,11.1,11.1,0,0,0-.9,4.3,31.7,31.7,0,0,1-2.1,10.6,12.7,12.7,0,0,0-.2,2.2,36.4,36.4,0,0,1,4.2-1.5c4.2-.9,9.7-.1,11.8,3.9a12,12,0,0,1,1.1,9.8,9.5,9.5,0,0,1-3.4,4.5c-2.3,1.7-4.8,1.4-7.3,1.3-4.6-.1-8.2-2.6-9.5-7A47.5,47.5,0,0,1,237.6,151.9Zm123.7,40.8c-.1,1.6-.1,2.7-.2,3.7s-1,3.2-3.3,3.5a11.3,11.3,0,0,1-6.7-1.3l-2.8-1.5c-.4,1.2-.8,2-1.1,2.8-1.5,4.8-3.4,5.4-7.3,2.5l-2.3-1.3c-.1,2.2-.1,3.9-.3,5.6s-.5,2.4-.9,2.5a4.6,4.6,0,0,1-2.8-.8c-1.6-1.2-3.1-2.5-4.7-3.9a3.1,3.1,0,0,0-.5,3.7,29.6,29.6,0,0,0,2.8,5.3c5.5,7.5,11.1,15,16.7,22.4,2.6,3.4,5.1,6.8,7.7,10.1,8.3,10.7,17.2,21,24.3,32.6a15.3,15.3,0,0,0,1.3,1.5,9.6,9.6,0,0,0,1.5-2.2c3.9-7.8,8.1-15.5,10.7-23.9,1.4-4.3,2.9-8.6,4-13.1a49.5,49.5,0,0,0,1.2-8.6c.2-2.4.1-4.9.1-7.3,0-5.3,0-10.5-2.1-15.5a61.5,61.5,0,0,0-5.9-11c-3-4.5-7.3-7.1-11.9-10.2-.9,2.8-3.3,2-5.1,2.4a6.7,6.7,0,0,0-.6,1.2c-1.2,2.5-1.9,3.1-4.6,2.9a18.7,18.7,0,0,1-3.4-.8ZM130.2,234.1c-.7.4-1.4.5-1.8.9l-15.1,13c-1.7,1.4-2.2,2.9-1.3,5,1.9,4.3,3.5,8.8,5.5,13.1,7.3,15.4,17.1,29.2,27.7,42.5a23,23,0,0,0,2.2,2c2-3.2,4.3-2.4,6.8-1.2s2.9,1.8,4.8,1.5l.6-1.8c1.5-3.7,3.9-4.6,7.4-2.7l2.1.8a16.2,16.2,0,0,0,.2-1.8c0-2.5-.2-4.9,0-7.3s1.6-3.9,4.3-2.6A34.9,34.9,0,0,0,177,297c1.2-6.9,1.2-6.9,3.4-9.7-7.2-10.9-8.5-23.5-10.1-36.1a5.7,5.7,0,0,0-1.5,2.4c-2.3,6.1-4.5,12.3-6.8,18.4s-3.6,9.7-5.5,14.5c-.7,1.8-1.4,2.1-3.2,1.7a3.5,3.5,0,0,1-2.7-2.4c-2-5.1-4.2-10.1-6.2-15.3-4.4-11.2-8.6-22.5-12.9-33.7A21.9,21.9,0,0,0,130.2,234.1Zm419.9,44.2-.7.3c-4.5,4.5-8.3,5.3-14.2,2.5-1.5-.7-2.4-.2-3.3.9-5.5,6.8-6.4,14.9-1.6,22s11.2,10.7,19,12.8a43.9,43.9,0,0,0,17.3,1.3c10.5-1.4,19.6-5.1,27.2-12.9,5.3-5.4,5.6-15,2.3-20.9-1.3-2.2-2.6-2.4-4.5-.7a5.8,5.8,0,0,1-7.2,1,10.2,10.2,0,0,1-3.2-2.6c-1-1.5-2.1-2.2-3.9-1.3s-3.5.5-4.7-1.3-.7-.7-1.3-1.2c-3.5,3.2-6.8,1.8-9.8-1a8.7,8.7,0,0,1-5.5,3.5C553.5,281,552.2,278.5,550.1,278.3ZM511.6,243c-2.2,1.2-4.5,2.4-6.8.6s-2.8-.9-4.1.5a5.6,5.6,0,0,1-6.5,1.1l-2.1-.7c-1.4-.7-2.4-.6-3.4.8a6,6,0,0,1-7.1,2.5c-3-1.3-4.7-.2-6.5,1.7a3.2,3.2,0,0,1-1.3,1c-3.9,1.8-4.8,5.3-5.1,9.1s1.7,9.5,5.2,13.2c5.6,6,12.8,9.2,20.7,10.9a41.2,41.2,0,0,0,16.4.5c4.7-.8,9.4-2.5,14-4,1.7-.6,3.3-1.3,4.2-3.5-3-2.3-5-5.3-4.2-9.3-6.1-2.6-11.6-6.2-12.8-8.4,2.2-2.7,5.5-3.2,8.3-4.7l.4.6c-1.5,1.3-2.9,2.7-4.6,4.3l9.7,6a10.2,10.2,0,0,1,6.6-3.3c1.1-.1,1.3-.9,1.5-2a22.1,22.1,0,0,1,1.2-4.2c.4-1.1,1.2-2,1.4-3.1a5.3,5.3,0,0,0-.2-3.3c-.1-.3-1.7-.2-2.5-.1-4,.8-7.8.5-11.1-2.2a3.8,3.8,0,0,0-3.2-.9,6.9,6.9,0,0,1-5.7-1.5Zm-78.5-27.5-1.1.8c-3.6,3.4-6.8,3.8-11.2,1.5a3.9,3.9,0,0,0-1.8-.6,15.3,15.3,0,0,1-7.7-2.5l-2.9-1.6c-.1,1-.5,1.7-.2,2.2,1.6,3.2.8,6.6,1.1,9.9a3.3,3.3,0,0,0,.5,1.2l1.9-3c.6-.8.8-2.1,2.5-2.4a7.2,7.2,0,0,1-.7,1.5,10,10,0,0,1-.8,1.4c-2.7,5.3-2.7,10.5.5,15.7a23.3,23.3,0,0,0,7,7.3c10.1,6.9,21.4,8.5,33.3,6.9,6.9-1,13.2-4,19.5-6.5,1.1-.4,2-1.4,3.4-2.4a29.8,29.8,0,0,1-4.9-2.1,13.3,13.3,0,0,1-4.1-2.9,24.9,24.9,0,0,0-12.1-8c-.5-.1-.8-.5-1.5-1,3-2.5,5.7-4.8,9.6-5.4-1.7,1.8-3.5,3.5-5.6,5.5l7.7,3.4a12.5,12.5,0,0,1,7.2-7.7c-.1-3.9-.1-3.7-3.1-5a13.9,13.9,0,0,1-4.1-2.7,3.6,3.6,0,0,0-3.6-1.3,4.9,4.9,0,0,1-4.6-1.6c-1.6-1.8-3-1.8-5-.7s-5.2,1.8-7.8,0a2.3,2.3,0,0,0-2,.1C439.4,217.4,436.3,217.6,433.1,215.5Zm-286.8-6.1c-.2,1.5-.5,2.4-.5,3.3s.4,3.5.6,5.3.3,4.5,1.2,6.5a3.8,3.8,0,0,1-1.1,5c-1.5,1.3-3.3,1-5,0a36.2,36.2,0,0,0-4.5-2c-2.5,2.3-2.5,2.3-1.4,5s2.2,5.5,3.2,8.3c2,5.4,4,10.7,5.9,16.1s3.8,12.8,7.2,18.6A39.6,39.6,0,0,1,154,280c.9-1.6,1.5-2.5,2-3.5l14.2-33.9c.9-2.4,1.5-4.9,2.2-7.3l3.7-12.1a12.1,12.1,0,0,0,.5-1.8,9.8,9.8,0,0,1,2.5-5.1,16.3,16.3,0,0,0,1.7-2.2L176,210c-4.5,3.1-4.5,3.1-7.4-.3-2.3.6-4.5,1-6.6-.7a3.4,3.4,0,0,0-2.6.2c-1.3.7-2.4,1.7-3.7,2.4a6.3,6.3,0,0,1-6.6.1A29.2,29.2,0,0,1,146.3,209.4Zm230,79.8a11.7,11.7,0,0,1-.5-1.1l-18.3-27.5c-4.6-7-9.2-13.9-13.7-20.9-2.5-3.8-4.6-7.9-6.8-11.8a20.2,20.2,0,0,0-2-2.6c-.3.7-.6,1-.6,1.2,1,6.5,2.4,12.9,2.5,19.5,0,.3.3.5.6.9l1.7-.6c2.6-.9,4.5,0,4.9,3.4.2,1-.4,2-.7,3s-1.8,3-1.5,5c.8,4.7-1.4,8.8-2.6,13.2a14.6,14.6,0,0,1-3.2,6c-.8.9-1.7,2.2-.4,3.4,3.4,3.2,3.7,7.4,3.5,11.7-.1,1,0,2,0,3.2a17.8,17.8,0,0,1,3.1-.8c2.4-.4,3.7.7,3.5,3.1s-.4,1.7-.4,2.5-1,2.4.2,3.9a15.2,15.2,0,0,1,3.3-1.8c.7-.3,2-.5,2.3-.1s2.2.8,3.4.6a23.8,23.8,0,0,1,3.8-.1c2.6.3,3.7,1.8,3.1,4.4l-1.6,5.9C362.7,310.9,372.3,296.9,376.3,289.2ZM243.4,245.1l-3.2-1c-14.6-3.5-26.4-11.6-36.3-22.7a100.3,100.3,0,0,1-19.2-32.6c-1.1-2.9-1.6-3.1-4.7-2.9a14.8,14.8,0,0,0-2.4.5c.2,1.9.3,3.7.6,5.4,1.5,6.9,4.1,13.5,6.5,20.2,6.3,16.6,15.4,31.3,28.8,43.1a66.5,66.5,0,0,0,15,10c2.8,1.4,3.1,1.2,4.7-1.4,2.9-4.6,5.8-9.1,8.6-13.7C242.6,248.6,243.8,247.3,243.4,245.1Zm64.1,136v.5c4.8-.3,9.5-.3,14.2-.9a20.3,20.3,0,0,0,9.3-2.9c2.7-1.8,3.5-4.4,1.8-7.2s-2.7-4.3-5.4-5.1a3.8,3.8,0,0,1-1.8-1.3,12.1,12.1,0,0,0-10.1-4.2,8.8,8.8,0,0,1-2.7-.6c-1.9-.3-3.8-.7-5.6-.8s-5.5,0-8.3-.1a41,41,0,0,0-14.7,2.2,26.6,26.6,0,0,0-8.1,4c-3.7,2.8-4.2,6-.8,9.4,5.9,5.9,13.1,7.8,21.1,7.5Zm-106.3,3.1c1.4-.2,3-.2,4.5-.5l6.5-1.6,5.1-1.6a47.1,47.1,0,0,1,7.3-2.2c5-.8,9-3.7,13-6.4s2.5-6.4-.7-8.2a41,41,0,0,0-18.4-5.1c-1.6-.1-3.1.5-4.7.6a63,63,0,0,0-20.5,5.1,27.2,27.2,0,0,0-9.2,6.2c-3.5,3.8-3.1,6.8,1.1,9.6S195.5,383.6,201.2,384.2Zm69-115.6,3.4-1.9c3.6-2.1,6.6-5,10-7.5,6.3-4.6,10.6-10.9,15.9-16.3a28.6,28.6,0,0,0,3.6-4.8c2.2-3.5,4.4-7,6.5-10.6A115,115,0,0,0,321,200.7c1.7-5.5,2.9-11.1,4.4-16.6.4-1.5,1.4-2.9,1.9-4.3s-.4-1.1-.6-1.7-1.1.5-1.3.9a11.9,11.9,0,0,0-1.1,2.6c-1.7,4.5-3.1,9-5,13.4a115.2,115.2,0,0,1-10.5,19.2c-3,4.3-5.9,8.7-9.6,12.4s-5.1,5.4-7.9,7.8a69.3,69.3,0,0,1-9.8,7.3c-5.9,3.2-12.1,5.8-19.1,5.4a8.6,8.6,0,0,0-2.5.6C266.2,253.4,266.8,261.5,270.2,268.6Zm-8.8-134.8c.5,8.9,1.2,12.9,5.8,19.6s11.8,12,21.7,8.9a24.3,24.3,0,0,0,14-10.3c5.3-8.4,6.1-17.4,2.4-26.7a12.7,12.7,0,0,0-11.6-8.2,25.9,25.9,0,0,1-6.2-1c-2.4-.5-4.6-.6-6.7.8a5.6,5.6,0,0,1-4.5,1c-3.1-.6-6.1.2-9.1.8s-4.6,1.7-5.1,5.5S261.6,130.9,261.4,133.8Zm72.3,228.6a13.7,13.7,0,0,1,2.2,1.9,11,11,0,0,1,2.8,7.8c0,3,.8,3.6,3.6,3a44.4,44.4,0,0,0,5.2-1.5,10.3,10.3,0,0,1,3.4-.7,2.5,2.5,0,0,0,2.9-2.2c.6-2.1,2.1-2.7,4.1-2.7a7.2,7.2,0,0,0,2.5-.3,4.1,4.1,0,0,0,1.7-1.2l3.9-5.4a8.9,8.9,0,0,0,1.7-7.9c-.9-3.3-3.2-4.8-5.6-6.5s-1.7-1.4-3-2.4l3.6-1.8c2.5-1.2,4.3-2.9,4.2-6.1a7.5,7.5,0,0,1,.7-3.6q3-6-3.6-6.9ZM178.2,205c-1-5.4-1.8-10.2-2.7-15.1a9.9,9.9,0,0,0-1-2.7,1.7,1.7,0,0,0-1-1,43.2,43.2,0,0,0-8.7-1.1,87,87,0,0,0-22.1,4c-4.6,1.5-9.1,3.4-13.5,5.3-.9.4-2.1,1.3-2.2,2.1s-.6,4.5.4,6.9a5.2,5.2,0,0,0,1.3-.6c1.2-.8,2.4-1.7,3.6-2.4s3.5-.5,4,1.7.3,1.5.5,2.2c.7,2.4,1.9,3,4.3,2.2s3.1-1.2,4.8-1.6,3.3,0,4.3,2.4,1.9,3.1,4.5,1.7l4.2-2.8a3.5,3.5,0,0,1,4.4.1c2.3,1.8,2.4,1.7,4.9-.1s2.2-2.2,4.1-2.1l1.7,2.4Zm155.6-1.5c.1-1.6.1-2.9.2-4.1s1.3-2.8,3.2-1.6l3.2,2.5c1,.8,2.1,2.2,3.3,1.4s1.2-2,1.4-3.2.1-2.5.4-3.8.7-1.9,1.4-2.1a4.2,4.2,0,0,1,2.5.7c.5.3.8,1,1.3,1.4a16.4,16.4,0,0,0,3.9,2.1c2.6.9,3.6,0,3.1-2.7a14.8,14.8,0,0,1-.3-1.9c-.2-3,1.9-4.5,4.7-3.5,1.1.4,2.1,1.1,3.2,1.5a24.5,24.5,0,0,0,3.8,1.2c.4-2.5-.4-5.1,2.6-6.8l-10.2-2.7c-3.1-.8-6.2-1.8-9.5-1.9l-1.5-.2a36.9,36.9,0,0,0-4.6-.8c-3.8-.3-7.6.5-11.3-.9-.9-.4-2.1-.1-3.3-.1,1.1,5.9,0,11.3-.8,16.8a1.6,1.6,0,0,1-.3.9C328.8,199.3,329.1,201,333.8,203.5Zm-93.1-72.2v-5.2c-.1-5.5-4.5-9.2-8.6-11.2a2.3,2.3,0,0,0-1.8,0c-1.9,1-3.7.4-5.5,0s-2.9-.5-4.4-.6c-5.6-.2-10.9,1.3-16,3.5a11.6,11.6,0,0,0-6.8,13.1,50.5,50.5,0,0,1,.6,5.6,15.1,15.1,0,0,0,.7,3.7,27.4,27.4,0,0,0,9.1,13.5,13.4,13.4,0,0,0,5.9,2.8,37,37,0,0,0,8.8.1,14.5,14.5,0,0,0,5.5-1.5,25.1,25.1,0,0,0,9.2-9.9C239.7,140.6,241.2,135.8,240.7,131.3Zm96.4,123.3h-2.6c-5.6.3-11.2.7-16.7-.3a4.3,4.3,0,0,0-1.6,0c-2.1.2-2.6.8-2,2.9a88.5,88.5,0,0,0,7.9,19.1c1.7,3.1,5.3,3.2,7.2.1a20.7,20.7,0,0,0,1.9-3.2c1.6-4,3-8,4.6-12A14.2,14.2,0,0,0,337.1,254.6ZM645.2,357c4-2.1,8.3-5.9,9.1-7.8-1.2-.4-2.4-.7-3.6-1.2s-2.4-1.9-1.2-3.7a8.5,8.5,0,0,0,1.1-6.9c-1.2-5.8,2.1-10.3,7.9-10.9l1.4-.5c-3.4-4.1-22-14.3-26-14.2-.4,1.1-.9,2.3-1.3,3.5,2,.2,3.8.2,5.6.5s3.6,1.1,3.8,3.5a4.3,4.3,0,0,0,1.3,2.1l4.5,3.5c1.3.9,2.8,1.8,2.3,3.7s-1.2,3.9-3.5,4.6a25.4,25.4,0,0,0-3.7,1,6.8,6.8,0,0,0-2.4,1.2c-1.7,1.6-3.3,3.4-4.9,5.2l3-.2c3.5-.6,5.5.5,5.7,5.5a5.8,5.8,0,0,1-3.5,5.6c-2.6,1.2-5.4,2.2-8.2,3.3,2.1,1.6,4.2,1.2,6.3.4S643.7,354,645.2,357ZM171.8,182.5l6.6-.4c2.8-.3,3.3-1.2,2.7-3.8s-1.7-5.4-2.3-8.2a8.2,8.2,0,0,0-5-6,33.9,33.9,0,0,1-3.9-2.7c-1.3-1-2.6-2.1-4-3a4,4,0,0,0-5.9,2.2,16.7,16.7,0,0,0-.5,3.1c-.4,4.7,1.1,9,3.3,13C166.2,183,164.8,182.4,171.8,182.5Zm69.7-69.8c1.4,1.2,2.3,1.8,3,2.5s1.9,3.5.5,5.1a3.4,3.4,0,0,0-.6,4c.8,1.6,2.3,1.2,3.4,1a19.4,19.4,0,0,1,11.2.3l.8-.3c0-1.6,1.8-3.3-.5-4.9s-1.7-1.9,0-3.5a46.6,46.6,0,0,1,4.9-3.9c1.8-1.2,1.6-2.8,1.3-4.5s-1.7-1.5-3-1.6c-3.4-.3-6.6-1.2-8.8-4.2-.2-.3-.7-.4-1.4-.7C250.4,107,246.8,110.2,241.5,112.7Zm92.2,178.6c0-2.7.3-5-1.2-6.9s-2.6-3.8-5-4c-6.1-.4-10.5,1.5-11,8.7a8.8,8.8,0,0,0,.1,2.8,9.4,9.4,0,0,0,12.8,7.1C333.1,297.7,334.3,294.6,333.7,291.3Zm287,26.9c0-3.8-.1-4-3.1-6.2l-1.2-.9c-2.8-2.3-5.8-2.5-8.6-.5s-2,2.4-.7,4l2.6,2.3a3.3,3.3,0,0,1,.8,3.5c-.4,1.3-1.6,1.2-2.7,1.2a16.2,16.2,0,0,0-2.2.1c-.7.2-1.8.6-2.1,1.2a22.4,22.4,0,0,0-1.3,5.7,3.2,3.2,0,0,0,1.6,2.5c2.3.9,4.7,1.7,7.4,1.1s2.8-1.3,3.1-3.1a5.1,5.1,0,0,1,2.7-3.8C620,323.7,620.9,321.1,620.7,318.2Zm79.8,64.2c-.3-3.1-.4-5.5-.6-7.9a6.2,6.2,0,0,0-.9-2.7c-1.6-2.9-4.7-3.3-6.8-.8a14.3,14.3,0,0,0-2.3,3.7,27.7,27.7,0,0,0-.8,15.1,13,13,0,0,0,2.2,4.4c1.7,2.2,3.9,2.3,5.6.1a13.3,13.3,0,0,0,2.6-5A52.1,52.1,0,0,0,700.5,382.4ZM634.4,318c-2.8-.1-4.3,1.6-4,4.4a16.6,16.6,0,0,0,.6,2.1,4.4,4.4,0,0,1-1.8,5.3,25.1,25.1,0,0,0-3.2,2.5c-1.9,1.9-1.7,3.7.5,4.9a12.9,12.9,0,0,0,4.1,1.6,7.1,7.1,0,0,0,7-3.4,6,6,0,0,1,2.5-2.2c1.5-.7,3.2-.9,4.7-1.6a4.9,4.9,0,0,0,2.3-2.4c.6-1.3-.5-2-1.6-2.7a21.4,21.4,0,0,1-3.2-2c-1.3-1.1-3.2-2.2-3.5-3.5S636.5,318,634.4,318ZM670,333.9a4.2,4.2,0,0,0-.6-1.5c-3.3-2.3-5.8-6.4-10.9-4.7a6.3,6.3,0,0,0-4.3,2.9,8.1,8.1,0,0,0-1,6.1,16.7,16.7,0,0,1,.1,5.9c-.8,3.9-.9,3.9,2.9,3.2,1.5-.3,3.4-.4,4.4-1.3a107.1,107.1,0,0,0,8.1-8.4A9.8,9.8,0,0,0,670,333.9ZM195.3,131c.2-1.9.4-3,.4-4.1a8.7,8.7,0,0,1,2-5.5c2.3-2.9,5.4-4.6,8.7-6.2l2.6-1.3c-1.5-1.7-2.6-3-4.7-2.5s-6-.3-7.7-3.4c-.1-.2-.4-.2-.7-.3l-.9.7c-3.8,4.4-5.7,9.8-8,15a2.3,2.3,0,0,0,.4,2C189.7,127.2,192.1,128.8,195.3,131ZM607.5,338.5c-1.4-.6-2.2-1.2-3-1.2a80.3,80.3,0,0,0-8.5,0,5.8,5.8,0,0,0-2.1.7c-2.6,1.1-3,3.5-3.6,5.9s1,3.4,2.4,4.4l11.6,8.3c1,.7,2.1,1.6,3.5.8s1.1-2.8.4-4.2a5.6,5.6,0,0,0-1.8-1.6c-.7-.4-1.6-.4-2.4-.8-2.9-1.2-3.8-3.3-2.4-6a21.1,21.1,0,0,1,3-3.7A28.1,28.1,0,0,1,607.5,338.5ZM255.4,154.2v-.9c-.1-3.3-2.5-6.8-5.5-7.7s-5.5.6-7.5,2.9l-1.3,1.8c-1.7,3.1-1.2,6.2,1.3,9.1s4.2,3.5,7,2.7S255.4,158.1,255.4,154.2ZM567.3,321.3c-2.3-.3-3.7.9-5.2,2-3.7,2.9-7.5,5.5-12.2,6.4-.9.2-1.9.3-2.1,1.9a47.1,47.1,0,0,0,10.7,4.9,24.1,24.1,0,0,0,5.9,1.4c3.1.4,3.9-.3,3.8-3.4a9,9,0,0,0-1.1-4.4c-1.6-2.1-2-4.4-2.4-6.9C566.7,324.2,567,323,567.3,321.3ZM306.1,50.3c1.7,5.7,3.1,11.4,2.8,17.3s-.6,11.7-2.6,17.6c2.9,1.6,6.1.5,9.2,1.2.4-6.6-.8-12.8-2-19S310.7,55.1,306.1,50.3Zm-86.9,50.6a9.8,9.8,0,0,0-2.3-.2c-4.6.5-9.2,1-13.7,1.9-1.7.4-3.1,1.8-4.5,2.9s-.9,2.3.1,3.4a3.5,3.5,0,0,0,3.7,1.3c1.8-.4,2.5-1.6,2.6-3.4s.3-2.1,1.6-2,1,1.4,1,2.3v.6c-.9,2.1.2,3.4,1.9,4a12.9,12.9,0,0,0,5.5,1.1c2.5,0,5.5-4,5.2-6.5,0-.2,0-.5-.2-.6S218.9,102.7,219.2,100.9Zm16.5,5,.5.6.3,1.2c.5,2.9,2.2,4.1,4.9,3.1a15.1,15.1,0,0,0,4.9-3.3c2-2.1,3.9-4.5,3.8-7.6-4-1.4-19.8-.6-24.7,1.1,1.2,1.9,3.2,2.8,4.7,4.1S233.5,107.7,235.7,105.9ZM606.2,307.6l.8.2,1.2-.4c4-1.6,7.7-1.8,10.5,2.2l.5.4c3.6,3.1,4.8,9.5,2.5,13.6a15,15,0,0,1-3,3.2c-.8.8-1.7,1.6-.9,3s2.5-2.2,4.6-1.4c-.1,1.3-.2,2.7-.4,4.8a57.8,57.8,0,0,1,4.8-4.3,4.1,4.1,0,0,0,1.7-4.9,4.9,4.9,0,0,1,1.2-5.6c.1-.2.1-.5.3-1.1l-2.6.3c-2.3.2-3.1-.7-3-3.2a24.6,24.6,0,0,0,0-4.7,3.4,3.4,0,0,0-3.1-3.4l-10.8-2.6C606.9,302.8,606.2,303.5,606.2,307.6ZM286.9,101.7l-.3-1-10.6-.4c-3.7-.1-7.4-.6-11-.5s-7-.7-10.8-.1a7.1,7.1,0,0,0,3.2,3.9c3.1,2.2,6.6,1.3,10.6.5a10.4,10.4,0,0,0-.9,3,3.2,3.2,0,0,0,.6,2.2c.3.3,1.4.2,2-.1s3.8-2.2,5.7-3.4a7.3,7.3,0,0,1,3.9-1C282.2,104.8,284.4,103,286.9,101.7Zm219,194.1-15.4,8.5c5.7,2.8,10.6,6.1,16.9,7.2a26.7,26.7,0,0,0,1.1-3.4c.3-1.8.3-3.6.5-5.4S508,297.5,505.9,295.8Zm104.5,64.4,2.4,1.2a1.8,1.8,0,0,0,2.8-1c1.5-3.4,4.4-4.7,7.7-5.4l2.5-.5a12,12,0,0,0-4.2-3.1c-1.9-1.1-.8-3.1-1.5-4.8-5.1,1.1-10.1,1.5-13.9-2.8-1.6.6-2.3,1.8-1.9,2.9s1.3,1.4,2.1,2a3.7,3.7,0,0,0,1.5.4c2.1.4,3.3,1.6,3.3,3.7S610.7,357.3,610.4,360.2ZM331.6,170.3c4.8.5,4.8.5,6.4-3.1a14,14,0,0,1,1-1.6c2.1-3.6,3.5-7.3,2-11.5-.7-1.9-1.9-2.6-3.6-1.9a40.2,40.2,0,0,0-6.5,3.4,5.3,5.3,0,0,0-2.1,2.6c-.6,2.6-1,5.3-1.4,8a12.2,12.2,0,0,0,.3,1.7l.7.4c1.9-3.7,3.8-7.5,8.2-8.8C338.2,164.4,334.3,166.8,331.6,170.3Zm154.1,114c-1.4-1.2-2.5-2.7-4.3-3a25.9,25.9,0,0,0-5.6-.5,30,30,0,0,0-5,.7c1.3-2.8,4.3-1.6,6.8-2.4l-6.9-6.1c-3.1,4.8-2.6,9.7,1.1,13.6s5.5,3.4,9,1.1ZM302.9,74.1c1.2-2.5.8-4.9.8-7.2-.3-6.6-1.6-7.6-8.2-6.8a2.4,2.4,0,0,0-2.4,2.1,24.2,24.2,0,0,1-1,3.6,2.2,2.2,0,0,0,.9,3l8.2,4.9A10.8,10.8,0,0,0,302.9,74.1ZM488.2,290l-1.5.3a4.7,4.7,0,0,0-3.4,3.4c-.5,1.8.7,2.8,1.9,3.7a33.2,33.2,0,0,0,3.6,2.6c3.7,2.2,6,1.9,9.1-1s1.6-5.1-.1-5.8-5.7-2.1-8.6-3.1Zm143.5,61.4a11.8,11.8,0,0,0,7.7-2.2,4,4,0,0,0,1.4-5c-.3-.6-1.2-1.4-1.8-1.3-4.7.4-9.3.9-13.9,1.5a3.3,3.3,0,0,0-2.3,1.8c-.2.7.6,1.9,1.3,2.6A9.1,9.1,0,0,0,631.7,351.4ZM327,248.9v-.2H316.9c-1.2,0-2.8,0-2.7,1.8s1.5,1.4,2.7,1.5l4,.4a54.4,54.4,0,0,0,16.1-1c.8-.2,1.8-.2,1.7-1.4s-1-1.2-1.9-1.2ZM648.9,383.3c0,5.8,1.7,7.9,6.4,8.7a5.2,5.2,0,0,0,5.7-5.6,2.1,2.1,0,0,0-1.8-1.9c-2-.3-4-.7-6-.9S650.5,383.4,648.9,383.3ZM460.1,263.8c6.4-3.2,7.9-5.2,7.3-9.6-2.7-.2-11.6,1.9-13.5,3.3ZM527,304.3c-.3,2.3-.7,4.4,1.3,6.1l11.5,9.9a6.1,6.1,0,0,0,2,.9l3.1-3.8A42.2,42.2,0,0,1,527,304.3Zm24,23.1a23.7,23.7,0,0,0,4.7-2.5c1.5-1.2,1.3-2.9-.4-4s-6.4-2-9.8-1.6c-1.4.2-2.7,2.8-1.8,3.8A16,16,0,0,0,551,327.4ZM513.2,287a10.6,10.6,0,0,0,4.9,5.5,4.3,4.3,0,0,0,2.7-.2,12.8,12.8,0,0,0,7.7-9.6,62.7,62.7,0,0,1-7.4,2.9A61.7,61.7,0,0,1,513.2,287ZM215.2,59.6c-1.3-2.7-2.2-5-3.4-7s-2.6-1.7-4.2-1.4a3,3,0,0,0-2.5,2.5,33.2,33.2,0,0,0-.6,4.4c0,1,.4,2,1.6,2A28.9,28.9,0,0,0,215.2,59.6ZM600.7,306l-.7-.6a7.9,7.9,0,0,0-1.7,1.4,15.9,15.9,0,0,1-6.2,5.6,5.1,5.1,0,0,0-2.6,3.7c-.2,1.6-.4,3.2-.7,5.4,3.4-2.6,6.4-4.9,9.2-7.3.7-.5,1.5-1.7,1.3-2.3s.5-2.4.8-3.6Zm-73.4,7a3,3,0,0,0,.7,4.3l14.1,10.8a4.4,4.4,0,0,0,4.2.3c-.1-.5-.1-.9-.3-1.1Zm55.4,8.2c4.2-.1,5.2-1.5,4.1-5.8-3.5,1.8-7.5,2.3-11.2,4.4,1.1,2.3,2,4.2,3,6.6l5-2.3C583.3,323,583,322.2,582.7,321.2ZM465.4,279.5a75.4,75.4,0,0,0,2.1-8.1c.5-2.5-2.4-5.5-4.4-4.9s-4.1,4.8-2.5,7.1S463.5,277.1,465.4,279.5ZM144.9,212.4l-.8-.5c-1.5.9-3,1.8-4.4,2.8s-3,2.2-2.3,4.3.8,4.4,3.8,4.1c.5-.1,1.1.4,2.3.9C143.9,219.8,144.7,216.2,144.9,212.4ZM573.6,332.7c-1.1-3-3.1-5.9-2.6-9.8,2,1.9,1.2,5,4.1,6.1.9-3.4-.7-6.1-1.1-9.6-1.6,1-3.3,1.4-3.7,2.3a20.9,20.9,0,0,0-2,7.3C568,331.9,570.7,333.6,573.6,332.7ZM194.4,104.8c-2.8.8-5.3,1.3-7.8,2.2s-3.4.9-3.5,2.7,2.1,2.1,3.5,2.6c2.9,1,4.2.4,5.3-2.4A46.7,46.7,0,0,1,194.4,104.8Zm325.9,209c-3-3.7-5.7-6.9-9.1-10.5v9.2A13.7,13.7,0,0,0,520.3,313.8Zm101.6,55.4.3-.8-7.1-3.3c-2.4-1.1-4.3-3.2-7.2-3.4-.5,2.6.5,4.1,2.7,4.9a15.1,15.1,0,0,1,3.1,1.6C616.3,369.9,619.1,369.6,621.9,369.2ZM504.6,293.5l-1.3-.9c-2-1.6-4.5-2.9-6.1-4.9a6.1,6.1,0,0,0-6.1-2.4l-.6,3.2c1.8.7,3.4,1.9,5.1,2s4.9,1.6,5.6,4.5c0,.3.4.4.9.8Zm107.3,50.6c2.8,1.7,5.6,1.5,6.4-.8a21.7,21.7,0,0,0,1-6.2,3.2,3.2,0,0,0-2.2-3.4c-.2,2.2.2,4.4-.6,6S613.6,342.5,611.9,344.1ZM604.5,294a5.2,5.2,0,0,0-.7,1.2c-1.1,3-.6,3.7,2.5,4.1l5.3.8h2.2C612.5,297.9,608.7,295.4,604.5,294Zm.6,68.7c.1-2.5-.4-3.5-2.6-4.8s-4.6-3.4-7.7-1.5C597.5,359.2,602.7,362.4,605.1,362.7Zm-26.6-28c1.1,2.5,3,4.2,5.6,5.8.5-2.6.9-4.8,1.2-7,0-.3-.9-1.2-1.2-1.1C582.2,332.9,580.1,332.9,578.5,334.7Zm-127-72.2c0,6.3,3,10.9,7.7,14.7A76.3,76.3,0,0,0,451.5,262.5Zm8.3,4c-3.7-2.7-4.8-7.3-8.6-9.9-.1,2.6,3.2,8.9,6.1,12h.7Zm127.1,80.7c-1.1,1.8-.8,3,.4,4l4.7,3.6c.4.3,1,.7,1.4.6a1.9,1.9,0,0,0,1.5-.8,1.8,1.8,0,0,0-.3-1.6C592.1,351,589.6,349.2,586.9,347.2ZM477.1,290c.9,2.7,2.5,3.9,5.1,4,0-2.8,1.9-4.4,4.3-5.7C483.1,287.7,480.5,290.5,477.1,290Zm149.3,18.6c.1,1.8.2,3.4.2,5s0,.6.1.6,1.2.8,1.7.7,2.5-2.2,2.5-3.7-1.4-1.9-2.5-2.3A10.6,10.6,0,0,0,626.4,308.6ZM622.2,343l8.7-1.9a41.1,41.1,0,0,1-4.2-1.4c-1.3-.5-2.4-1.2-3.7-1.8A5.9,5.9,0,0,0,622.2,343ZM210,43.9c-2.3.8-2.5,2.5-2.9,3.9a1.9,1.9,0,0,0,.6,1.8,3.3,3.3,0,0,0,2.4,0c.3-.1.6-1,.6-1.5A40.7,40.7,0,0,0,210,43.9ZM291.4,41l-.5.5c.7,1.6,1.4,3.3,2.2,4.9a1.6,1.6,0,0,0,2.4.5,1.4,1.4,0,0,0,0-2.4Zm-68.8,67.6c-1.2,1.1-1.2,2.2-.2,3s2.8,1.1,4.5.2C225.9,109.9,224.4,109.2,222.6,108.6ZM447.8,261.7l1-.2c0-1.3.1-2.6,0-3.9s-.9-1.3-1.8-1.2a1.3,1.3,0,0,0-1.1,1.9A22.7,22.7,0,0,0,447.8,261.7ZM602.3,308l.7.2c.5-1.3,1.1-2.5,1.5-3.9s-.6-.8-1-1.2-.9.6-1,1A25.5,25.5,0,0,0,602.3,308ZM122,203.8l.9-.5.2-3.1c-1.5.5-2.7.7-2.6,2S121.5,203.2,122,203.8ZM576.1,340.3c-.2-2.9-.7-3.4-3.8-4.3C573.7,337.6,574.8,338.7,576.1,340.3ZM330.8,110.2c-.3,1.7-.5,2.8-.7,4.1C332.6,112.9,332.6,112.7,330.8,110.2Zm-27.7,8.4c.1-1.2.3-2.2-1-2.4a1.4,1.4,0,0,0-1,.7C300.8,118.2,301.7,118.4,303.1,118.6Zm163.5,147c-.1-1.1-.1-1.8-.3-3.2l-2.5,2.4Zm38.3,24.1c.9-1.6,1-2.4-.1-2.8s-.8.4-1.2.5A20.2,20.2,0,0,0,504.9,289.7Zm-3-1.3c-.5-1.7-1.3-2.1-2.8-1.3C499.6,288.5,500.5,288.6,501.9,288.4Zm58.8,32.5c-2.8-.5-2.8-.5-1.9,2.1ZM383.3,99.1v-.6l-1.6-.2V99Z" transform="translate(0 48.9)"/><path d="M439.4,21.1l2.2-2.5,2.2-2.7-5.3-4c2-.7,3.3-1.4,4.7-1.5s2.9-.4,3.9-2,2.3-1.4,2.6-.1c.7,3.6,3.6,3.2,6,3.8s2.2,0,2.6,1.9l-4.4,2.4c-2.3,1.1-2.2,1.1-1.9,3.7a18.5,18.5,0,0,1,.1,3.3c-1.6.9-2.3.1-3-1s-1.5-2.2-4-1A5.6,5.6,0,0,1,439.4,21.1Z" transform="translate(0 48.9)"/><path d="M468.7,22.2c-.5.5-.7,1.2-1.2,1.4s-1.5,1.2-1.8,2.3-1.5,1.8-2.3.8a4.5,4.5,0,0,0-4.4-1.8,2.5,2.5,0,0,1-1.7-1c-.2-.2.2-1.1.6-1.5a2.5,2.5,0,0,0,.8-2.2c-.2-1.4.7-2.2,2.1-2a12.9,12.9,0,0,1,6.9,2.7Z" transform="translate(0 48.9)"/><path d="M457.9,33.8a12.1,12.1,0,0,1,.3,1.4c.1,1.5-.7,2.1-2.1,1.5a6,6,0,0,1-1.3-.9l-1.2-1c-1.3.1-2.8,1.7-4-.5.9-1.3,2.2-2.5,1.2-4.4-.1-.3.7-1.4,1.3-1.5,2.6-.6,5.1.3,7.5,1.4a1.4,1.4,0,0,1,.2,2.4A10.6,10.6,0,0,1,457.9,33.8Z" transform="translate(0 48.9)"/><path d="M63.8,251.4c.5,1.7-.5,2.4-1.5,3l-8.1,4.4-3,1.4c.6,2.5-.6,3.9-3.3,4.5-.3-1.1-.8-2.2-2.3-2.1s-1-.5-1-.9a1.4,1.4,0,0,1,.6-1.2,15.8,15.8,0,0,1,2.6-1.3l14-7.2A11.7,11.7,0,0,1,63.8,251.4Z" transform="translate(0 48.9)"/><path d="M445.4,35.6a17.6,17.6,0,0,0-4.1-.7c-1.2.2-2.4.9-3.6-.5l2.2-3c-.6-1-1.3-1.9-1.9-2.8,1.4-2.6,3.9-1.2,5.8-1.5s2.5,1.3,3.5,2.3a2.1,2.1,0,0,1-.5,2.1C445.4,32.4,445.1,33.7,445.4,35.6Z" transform="translate(0 48.9)"/><path d="M466.9,14.6l-6.6-.4c-.2,0-.4-.5-.6-.9s2.7-2.1,1.9-4.2c-.1-.2,1.1-1.4,1.6-1.4a34.3,34.3,0,0,1,5.7,1.7c1.3.5,1.3,1.6.5,2.6Z" transform="translate(0 48.9)"/><path d="M213.4,86.4h-19a22.6,22.6,0,0,0-7.8.9c-1.5.6-3.4.3-5.1.3h-8.8C186.3,86.4,199.9,85.6,213.4,86.4Z" transform="translate(0 48.9)"/><path d="M583.5,418.8c-1-3-.1-5.9.3-8.8.5,2.4.9,4.8,1.3,7.2C585.2,417.8,585.1,417.9,583.5,418.8Z" transform="translate(0 48.9)"/><path d="M236.6,85.2a42.6,42.6,0,0,1-9.5.2C229.3,84.5,233.3,84.4,236.6,85.2Z" transform="translate(0 48.9)"/><path d="M20.5,230.5l3.2-.2v.5l-3.2.5Z" transform="translate(0 48.9)"/><path d="M72.1,185.4a23.3,23.3,0,0,0,.5-2.8l.7.3c-.4.8-.8,1.6-1.3,2.4Z" transform="translate(0 48.9)"/><path d="M132.6,92.5h1.6v.2h-1.6Z" transform="translate(0 48.9)"/><path d="M504.9,289.7a20.2,20.2,0,0,1-1.3-2.3c.4-.1.9-.6,1.2-.5S505.8,288.1,504.9,289.7Z" transform="translate(0 48.9)"/><path d="M501.9,288.4c-1.4.2-2.3.1-2.8-1.3C500.6,286.3,501.4,286.7,501.9,288.4Z" transform="translate(0 48.9)"/><path d="M383.3,99.1h-1.6v-.7l1.6.2Z" transform="translate(0 48.9)"/><path d="M253.4,284a51.7,51.7,0,0,1,3.3,11,2.9,2.9,0,0,1-2.5,3.7c-1.7.2-3-1.1-3.3-3.1a4,4,0,0,1,1.2-3.8c1.8-1.3,1.7-2.9,1.2-4.7s-.4-2-.6-3Z" transform="translate(0 48.9)"/><path d="M225.6,168.2a8.7,8.7,0,0,1,4.1-5.1,6.7,6.7,0,0,1,4.2-.8c3.4.4,6.6,1.4,8.9,4.3a22.6,22.6,0,0,0,2.8,2.5c3.5,2.7,7,2.6,10.6.3l6.9-4.5c3.1-2.1,7.1-1.5,8.9,1.8a38.4,38.4,0,0,1,3.4,7.8,120.2,120.2,0,0,1,4.1,35.8l-.3,9.8c-.1,5.7-5.5,7.1-9.4,5.9a21.1,21.1,0,0,1-3.3-1.8l-5.4-3.3c-8.9-5-17.6-4.4-26.2.5a68,68,0,0,1-7,3.8c-4.6,2-8,.4-9.1-4.5a49.6,49.6,0,0,1-.6-17.6c.5-3.8.6-7.6,1.2-11.3.9-5.8,1.9-11.5,3.3-17.2.5-2.3,1.9-4.3,2.9-6.5a20.5,20.5,0,0,1-.5,2.4c-.6,2.5-.2,3.5,2,4.8l2,.9c5.8,3,12.3,2.9,18.5,3.5a54.4,54.4,0,0,0,16.1-1,25.9,25.9,0,0,0,6-1.8c3.3-1.6,4-3.3,2.7-6.3-.6-1.5-.9-3.4-3-3.7s-2.5,1.6-3.6,2.9a5,5,0,0,0-6.9.6c-2.5,2.6-5.8,2.9-9,3.5s-6.3-2.1-9.6-2.8c-.1,0-.3-.2-.4-.4-.9-1.8-2.6-2.4-4.5-2.4,1-2.1,1-2.3.1-3.2s-2.6-1.2-4.5.1l2.2,2.6c.9,1.4.8,1.6-1.3,2.7a16.7,16.7,0,0,1-.8-2c-.8-2.2-1.6-2.6-3.7-1.6A7.5,7.5,0,0,0,225.6,168.2Zm29.3,41.2c-2.7-.7-4.1,1.7-6.2,2.4-1.9-1.3-3.2-4.4-6.2-1.5s-2.7,3-1.7,6.3c2.5-.5,5-1.4,7.5-1.5s5.3.5,8.1.7C258,213.4,256.1,211.5,254.9,209.4Zm12.4-44.1c-2.2-.1-2.2-.1-2.8,1.8C266.5,167,266.5,167,267.3,165.3Z" transform="translate(0 48.9)"/><path d="M563.1,314.7c-2.8-.6-5.8-1-8.6-1.9s-3.7-3.6-.9-5.8a17.2,17.2,0,0,1,9.1-3.6,25.3,25.3,0,0,1,10.6.8c1.6.6,3,1.3,3.3,3.1a4.1,4.1,0,0,1-2.1,4.3A23.4,23.4,0,0,1,563.1,314.7Zm-5.3-5.1c1.8,1.1,3.5,2.6,5.7,2.5s6.3-.3,9.1-2.1,1.5-2.6-.4-3.5l-1.8-.7a15.3,15.3,0,0,0-11.9,2.6C558.2,308.6,558.1,309,557.8,309.6Z" transform="translate(0 48.9)"/><path d="M553,292.8l-7.5-5.7.2-.3c3.4,1.6,6.8,3.2,10.1,5,.6.2,1.3,1.1,1.2,1.5a3,3,0,0,1-1.6,1.7l-8.6,3.1-2.4.9c-.9.3-1.8.4-2.6-1.1a11.8,11.8,0,0,1,1.8-1.3l6.2-2.3A27.3,27.3,0,0,0,553,292.8Z" transform="translate(0 48.9)"/><path d="M571.1,295.3a35.2,35.2,0,0,1,9.3-6.8c-.9,2.4-4,3.3-4.6,6.5,2.1,1.4,4.3,2.7,6.4,4.2.6.3.9,1,1.3,1.5l-2.1.7a1.4,1.4,0,0,1-.9-.3Z" transform="translate(0 48.9)"/><path d="M505.4,268.6a58.3,58.3,0,0,1,7,1.5,3.5,3.5,0,0,1,2.7,3.5,4.3,4.3,0,0,1-2.5,4.1,20.1,20.1,0,0,1-16.6.8c-1.7-.7-3.4-1.6-3.5-3.7s1.7-3.2,3.2-4.1S501.1,268.9,505.4,268.6Zm-5.8,6c1.5,1,2.7,2.5,4,2.5a25.1,25.1,0,0,0,7-1.5c.6-.2,1.5-1.1,1.5-1.7a2.6,2.6,0,0,0-1.5-1.8C507.8,270.6,504.1,269.8,499.6,274.6Z" transform="translate(0 48.9)"/><path d="M479.8,264.2c4.5-3.3,9.7-4.2,14.3-6.5-.8-2.1-2.6-2.8-4-3.8a30.5,30.5,0,0,1-4.4-3.2,4,4,0,0,1,1.6.1c3.1,1.5,6.1,2.9,9.1,4.5a4.9,4.9,0,0,1,1.9,2.6c.2,1.4-1.3,1.7-2.4,2.1l-11.4,4.5C483.1,265,481.8,265.8,479.8,264.2Z" transform="translate(0 48.9)"/><path d="M440.5,250a10.7,10.7,0,0,1-3.1,0,10.1,10.1,0,0,1-3.8-2.1c-1.7-1.7-1.5-3.1.5-4.3s5.7-3.3,9.1-3.3l7.3-.6a14.4,14.4,0,0,1,4.6.8c2.9,1,3.4,4.1.9,5.9a17.2,17.2,0,0,1-5.2,2.3c-3.3.8-6.8,1.1-10.2,1.7Zm-1.7-3.8c2.4,2.2,5.1,1.2,7.6.8s6.1-.6,8-3.3l-.5-.8-.6-.3c-3.3-1.9-6.6-.9-9.8.3a18.2,18.2,0,0,0-4.3,2.4C439,245.3,439,245.6,438.8,246.2Z" transform="translate(0 48.9)"/><path d="M435.4,229.7c-2-3.2-5.4-3.8-7.7-6.4,4.3.9,7.9,2.3,10.9,5,.5.4.6,1.3,1,2l-1.9.9-12.9,4.3-.8.4c-.9.5-1.9.9-2.5-.1s.6-1.9,1.5-2.2,4.4-1.5,6.6-2.1Z" transform="translate(0 48.9)"/><path d="M298.7,141c2.4-3,1.8-6.3,1-9.5a14.1,14.1,0,0,0-5.6-8.2c-2.8-1.8-5.9-3-9.1-4.7,4-.6,7.2.7,10.2,3a18.5,18.5,0,0,1,7,12.4A18.5,18.5,0,0,1,284,154.6c-8.2.2-19.2-7.2-18.4-19.3.4-6.1,5.2-12.8,10.6-14.6-5.5,4.8-9.9,10-7.8,18a21.8,21.8,0,0,0,1.1-2.7c2.1-5.9,6.2-9,12.4-10.5s13.2,2.6,15.5,8.6a15,15,0,0,1,.9,4.3A20.2,20.2,0,0,1,298.7,141Zm-7.7-5.9c-.1-2.6-2.2-5.1-4.3-5.1a4.2,4.2,0,0,0-3.7,3.8c0,2.1,2.9,4.7,5.2,4.7S291.1,137.3,291,135.1Z" transform="translate(0 48.9)"/><path d="M218.4,152c-6.6-.1-12.3-4.4-15.2-11-4.1-9.1,2.1-19.7,10.5-22.2a35,35,0,0,1,6.4-1.5,16,16,0,0,1,5.2,1,15.5,15.5,0,0,1,11.2,13.6A17.6,17.6,0,0,1,218.4,152ZM233,140c3.4-2.7,1.4-11.4-1.9-15.3s-12.2-7.4-16.8-5.2-10,8.5-9.1,12.6c.7-.8,1.2-1.5,1.9-2.2a18.8,18.8,0,0,1,2.4-2.5c3.6-3.1,7.8-3.4,12.2-2.6a14,14,0,0,1,5.3,1.9c3.6,2.5,5.3,6.1,5.6,10.5C232.7,138.1,232.8,139,233,140Zm-10.7-10.8c-2.4,0-4.8,1.8-4.7,3.7s3,4.1,5.2,4.2,3.7-.9,3.7-3.4S224.9,129.3,222.3,129.2Z" transform="translate(0 48.9)"/><path d="M325.9,113.1l-1.7-2.9C325.9,110.8,326.9,111.3,325.9,113.1Z" transform="translate(0 48.9)"/><path d="M173.9,180c-.7-.5-1.7-.9-2.1-1.6-2.1-3.1-4.5-6.2-5.9-9.8a46.4,46.4,0,0,1,8.8,10.5Z" transform="translate(0 48.9)"/><path d="M267.3,165.3c-.8,1.7-.8,1.7-2.8,1.8C265.1,165.2,265.1,165.2,267.3,165.3Z" transform="translate(0 48.9)"/><path class="cls-2" d="M291,135.1c.1,2.2-1,3.4-2.8,3.4s-5.2-2.6-5.2-4.7a4.2,4.2,0,0,1,3.7-3.8C288.8,130,290.9,132.5,291,135.1Z" transform="translate(0 48.9)"/><path class="cls-2" d="M222.3,129.2c2.6.1,4.2,1.7,4.2,4.5s-1.1,3.5-3.7,3.4-5.2-2.5-5.2-4.2S219.9,129.2,222.3,129.2Z" transform="translate(0 48.9)"/></g></svg>