<svg id="Layer_1" data-name="Layer 1" xmlns="http://www.w3.org/2000/svg" viewBox="0 0 456.2 494.1"><defs><style>.cls-1{fill:#fff;}</style></defs><path d="M276.5,74.4c.1-.5.1-1,.2-2l2.1,1.2c2.4,2.1,4.9,4,7.1,6.2a57,57,0,0,1,4.8,6.2c3.9,5.2,5.8,11,7.5,17.1a87.4,87.4,0,0,1,1.9,11.2,117.5,117.5,0,0,1,1.3,17.8,62.2,62.2,0,0,1-5.2,25.9,1.7,1.7,0,0,0-.1.8l1.6-.5,8.9-3.7.9-.3c.7,0,1.5,0,1.8.3a2.1,2.1,0,0,1-.1,1.9,7,7,0,0,1-1.4,1.6l-12,13.2-1.6,2.1.4.5,7.5-2.9,10-4.2,1.4-.4c.9-.2,1.9-.5,2.6.3a2.9,2.9,0,0,1-.3,3.3l-3,3-9.4,8.7a9.7,9.7,0,0,0-1.6,2,23.9,23.9,0,0,0,2.7,0l6.9-1.1,2.4-.2c3-.1,4.2,1.8,2.7,4.5a31.8,31.8,0,0,1-2.8,4.3l-5.5,6.8a21.4,21.4,0,0,0-1.3,1.9l.3.5,5.5-.9c1.1-.2,2.3-.7,3,.7a2.9,2.9,0,0,1-.8,3.6,41.9,41.9,0,0,1-4.5,3.9c-.9.8-1.7,1.5-1.6,2.9s-.6,1.9-1.6,2.5l-4.4,2.6,2.1,1c-.9,1-1.5,1.6-1.2,2.9a7.7,7.7,0,0,1-.8,3.8c-.2.4-1.1.6-1.7.9l1.4,3a53.9,53.9,0,0,1,6.1,17.1c1.4,7.4,2.6,14.8,2.1,22.4-.2,3.4-.7,6.9-1.1,10.3s-.8,6-1.1,9.1-.9,7.7-1.1,11.5a53.2,53.2,0,0,0,.4,6.9c.1,1.2.8,1.7,2,1.8,6.2.2,12.4.6,18.5-.5,10-1.8,20.2-3.1,29.9-6.3a155.4,155.4,0,0,0,26.8-11.7c5-2.7,9.9-5.5,14.9-8.4s8.2-6,12.2-9.3a48,48,0,0,1,5.2-3.6c1-.6,1.9-.4,2.9.6a7.1,7.1,0,0,0,3.7,2c3.1.2,5.3,1.9,7.4,3.8a85.8,85.8,0,0,1,13.8,16.8,44.4,44.4,0,0,1,5.7,13.9c1.3,6,2.3,12,3.2,18,.6,3.6.8,7.3,1.2,11s.7,6.2.9,9.3c.1,1.4-.1,2.8-.1,4.2a23.6,23.6,0,0,0-.2,3.7c.2,5.4-.9,10.7-1.3,16s-1.7,10.9-2.4,16.4c-.5,3.2-.8,6.5-1.3,9.8a53.5,53.5,0,0,1-1.1,5.5c-.5,3-1.1,6-1.6,9-1,5.7-2.1,11.3-3.1,17a5.7,5.7,0,0,1-.4,1.4c-.8,2.2-1.9,3-4.1,1.1a55.5,55.5,0,0,0-14.2-8.1c-1.9-.8-3.8-1.6-5.7-2.2a20.5,20.5,0,0,0-4.2-.7l-11.6-.4a11.2,11.2,0,0,0-3.2.4,70.3,70.3,0,0,0-19.2,7c-5,2.8-9.1,6.5-13.2,10.3-2,1.8-4,3.5-5.8,5.4a20.9,20.9,0,0,0-2.7,3.9,35.5,35.5,0,0,0-2.1,4.4,1.8,1.8,0,0,1-2.4,1.1c-1.6-.4-2.9-.9-3.5-2.7a6.8,6.8,0,0,0-3.3-3.8c-2.6-1.4-5.3-2.8-8-4s-3.8-1.4-5.8-2.2-6.6-1.3-9.9-2c-5.7-1.2-11.2.1-16.7.8a12.1,12.1,0,0,0-5,1.9c-4,2.6-7.7,5.5-11.5,8.2l-1.7,1a31.4,31.4,0,0,0-8.9,5.9l-.7.4c-2.4-2.2-5-4-7-6.4a21.8,21.8,0,0,0-10.6-6.9l-1.4-.5c-3.6-2-7.4-1.2-11.1-1-1.9.1-2.1.6-2.4,2.5s-.6,4.7-1,7c-.8,5.7-3.6,10.6-6.1,15.6a49.4,49.4,0,0,1-10.9,14.7c-4.3,3.9-8.2,8.3-13.4,11.3a56.8,56.8,0,0,1-16.9,6.9c-2.7.5-5.4,0-8.1-.4l-3.6-.5a25.4,25.4,0,0,1-4.8-.9c-5.2-2-10.2-4.4-14.3-8.3a5.5,5.5,0,0,0-1.5-.8l.4-.8c2.1-.1,4.3-.3,6.5-.2,10.8.2,20.5-2.4,27.8-11a25.5,25.5,0,0,0,6.3-17,37.7,37.7,0,0,0-1.9-12.9,12.2,12.2,0,0,0-.7-1.7,11.2,11.2,0,0,0-6.5.9c-5.3,2.5-10.4,5.4-14.7,9.6a51.5,51.5,0,0,0-4.3,5l-1,1a26.3,26.3,0,0,0-7.2-8.6c-5.6-4.1-11.3-8.2-17.7-11a48.4,48.4,0,0,0-14.7-3.3c-3.4-.4-6.5.7-9.6,1.8l-2.4.8c-9,1.4-16.3,6.1-22.9,12l-1.9,1.6a13.1,13.1,0,0,1-1.2-1.5,39.8,39.8,0,0,0-9.4-11.4c-5.8-5-11.6-9.8-18.3-13.6a41.2,41.2,0,0,0-14-4.6c-7.9-1.3-15.5,0-23,2.1l-1.7.6c-4.5,2.6-9.4,3.8-14.3,5.2a38,38,0,0,0-4.7,1.8c-1.1.5-2,1.3-3.2,2l-4-2.2A3.6,3.6,0,0,1,8.8,426c-2.8-6.9-5.7-13.8-7.3-21-.3-1.1-.4-2.1-.6-3.2s-.5-3.6-.7-5.4a4.7,4.7,0,0,1-.1-1.7,30.3,30.3,0,0,0,.1-8.5,125.2,125.2,0,0,1,0-13.7c.2-5.9.4-11.9,1.1-17.7a146.4,146.4,0,0,1,6.2-28.5c1.8-5.4,3.6-10.9,5.8-16.2a72.7,72.7,0,0,1,10.5-17.3c2.9-3.6,5.8-7.3,9.6-9.9s5.3-3.4,8-5a3.7,3.7,0,0,1,4.9.8c4.5,4.2,8.8,8.5,13.4,12.5a84.8,84.8,0,0,0,21.1,13.4,139.7,139.7,0,0,0,23.8,8.3,55.9,55.9,0,0,0,18.2,1.4c4-.4,8.2-.4,12.1-2,2-.8,2.2-1,1.6-3.1-2.8-10.2-5.8-20.3-8.4-30.5-1.6-6.5-2.5-13.2-3.8-19.7-.9-4.5-.6-9.1-.4-13.6.3-7.3,1.2-14.5,5-21,1.9-3.4,4.5-6.5,6.7-9.7l1.3-1.6-2.6.7-17.5,6.7a10.5,10.5,0,0,1-2.9.8,15.7,15.7,0,0,1-2.7-.5c.9-2.9,3.7-3.3,5.1-5.2-1.1-1.5-2.4-1.3-3.8-.8l-4.5,2c-.9.4-1.8.9-2.9,0a4.5,4.5,0,0,1,1-1.3c1-.8,2.1-1.4,3.1-2.1s3.4-2.3,4.3-4.6,2.4-3,3.8-4.6l-1.9-.4a22.1,22.1,0,0,1-8.7-2c-2.9-1.5-3.4-3.5-1.7-6.3s3.3-3.1,5.4-4.2l2.3-1.2-2.5-1.2c-1.9-1.2-4-2.3-5.8-3.7s-1.9-3.4.6-4.8a12.3,12.3,0,0,1,8.4-1.2,5.9,5.9,0,0,0,2.3,0l-1.1-1.1c-7.3-6-14.6-11.9-21.8-18-.8-.6-2-1.2-1.4-2.5a2.7,2.7,0,0,1,3.3-1.1,41.4,41.4,0,0,1,4.9,1.9l12,4.6h.7l-1.3-2c-.9-1.6-.7-2.9.8-3.9a7.1,7.1,0,0,1,4.9-1.2l5.1.7c-1.9-2.7-5.1-3.7-6.3-6.6a4.6,4.6,0,0,1,5-2.5c2.3.3,4.6,1,6.8,1.5a7,7,0,0,0,3.3.4l-1.4-1.4c-3.1-2.6-6.2-5.2-9.2-7.9a8.4,8.4,0,0,1-1.8-2c-.7-1.1-.3-1.9.9-2.2a3.3,3.3,0,0,1,3,.8l12.2,9.4,1.1,1c1.3-.5,1.3-1.3.9-2.4a114,114,0,0,1-3.6-11.3,129.2,129.2,0,0,1-2.4-13.6,78.8,78.8,0,0,1,.3-18.8c1.3-9.4,3.9-18.3,8.9-26.4.9-1.5,1.9-3.1,3.9-3.5l2,1.2c-.8,2.4-.1,4.7.6,6.9,1.4,4.3,3,8.4,4.4,12.6s2.6,7.9,4.2,11.7a107.2,107.2,0,0,0,10.6,19l5.2,6.9,1.8,1.9c.7-1,.3-2,.2-2.9-.3-4.1-.8-8.2-1-12.3s-.3-8.1-.4-12.1a24.8,24.8,0,0,1,.3-2.7,2.3,2.3,0,0,1,2.1-2.1c1.2-.2,1.7.7,2,1.5,1.6,3.2,3,6.5,4.5,9.7a85.9,85.9,0,0,0,4.8,9.6,7,7,0,0,0,.3-1.4c0-3.5-.1-6.9-.1-10.4a12.7,12.7,0,0,1,.4-3.4,5.5,5.5,0,0,1,1.4-2.6c2.8-2.4,4.9-2.1,5.7,1.2s1.8,7.2,2.5,10.9c1.5,7.9,2.8,15.9,4.2,23.8.3,1.4.9,2.7,1.3,4h.5a26.8,26.8,0,0,0,.7-2.7l1.2-5.6a3.7,3.7,0,0,1,1-1.7,6,6,0,0,1,2.8-1.3c1.2,0,1.3,1.4,1.4,2.3a42,42,0,0,1,.6,6.2c.2,3.2.2,6.4.4,9.6a8,8,0,0,0,.6,3,2.8,2.8,0,0,0,.4-1.2c2.1-11.5,4.4-22.9,8-34,.7-2.1,1.4-4.2,2-6.4a5.5,5.5,0,0,1,4.4-4.2,2.9,2.9,0,0,1,1.2,2.8c.3,3.4.4,6.8.6,10.1s.5,7.9.7,11.8h.6c.6-1.9,1-3.9,1.6-5.8,1.4-4.3,2.7-8.5,4.3-12.7a8.5,8.5,0,0,1,4.5-5c2-.9,3.2-.4,3.8,1.7a29.5,29.5,0,0,1,1.2,6.6c.1,3.8-.2,7.7-.3,11.6v6.3l1.6-2.2c2-3.3,3.8-6.6,5.8-9.9s2.5-3.9,5.2-4.3c1.7,1.1,1.2,2.8,1,4.4l-1.2,8.8a1.8,1.8,0,0,0,.5,1.6l1.5-2.4c1-1.6,1.8-3.4,2.9-4.9a8.7,8.7,0,0,1,2.7-2.7c1.3-.9,2-.5,2.3,1a8.2,8.2,0,0,1,.2,2.7c-.1,2.4-.1,4.8-.4,7.2a10.4,10.4,0,0,1-1,3.3c-.7,1.4-1.8,1.4-2.6,0a16.9,16.9,0,0,1-1.1-3.2c-1,1.5-1.8,2.8-2.7,4s-2.1,2.1-3.7,1.6-2.7-1.5-2.9-3.6V130h-.5l-2.9,4.6-2.7,3.9a3.1,3.1,0,0,1-3.7,1.3c-2-.6-2.9-1.5-2.9-3.5.1-4.6.2-9.2.5-13.8a54.4,54.4,0,0,0-.5-8.8,25.4,25.4,0,0,0-3.1,7.6c-1.4,4.9-2.7,9.7-4,14.6a14.2,14.2,0,0,1-.8,1.8c-.6,1.1-1,2.5-2.6,2.2s-3.4-.9-3.8-2.7-.9-4.1-1.2-6.1-.5-5.8-.7-8.6c0-.3-.2-.5-.4-1.1-.6,1.9-1.1,3.4-1.5,5-2.5,9.2-4.3,18.5-5.9,27.9a38.1,38.1,0,0,1-1.3,4.5c-.5,1.2-.9,2.6-2.5,2.7a4.7,4.7,0,0,1-4.2-3c-.5-2.2-.8-4.4-1.1-6.6a23.5,23.5,0,0,1-.1-2.6c-.4-.1-.6-.2-.7-.1s-1.3,1.6-2.5,1.1-3.1-1.1-3.8-2.9a56.9,56.9,0,0,1-4.4-15.1c-1.1-6.8-2.3-13.5-3.4-20.3,0-.3-.2-.6-.6-1s-.2,1-.2,1.5c.3,4.3.6,8.7.8,13.1a14.1,14.1,0,0,1,0,2.9c-.2,2-1.2,2.6-3.1,2a5,5,0,0,1-3-2.7q-2.1-3.9-3.9-7.8c-1.9-4.1-3.6-8.3-5.4-12.5l-.8-1.4a6.3,6.3,0,0,0-.3,1.2c0,5.1,0,10.1.2,15.2.1,2.9.5,5.9.6,8.8a8.1,8.1,0,0,0,1.8,4.8,95,95,0,0,0,10.3,10.8l1.4-1.4c1.6-1.6,2.6-1.5,3.5.6a7.9,7.9,0,0,1,.8,2.6l1.2,9.3a1.9,1.9,0,0,1-.2.7c-2,.1-2.9-.3-3.2-2s-.4-2.5-.6-3.8-2,0-2.4,1.2l-1.5,4.7-.9,2.3c-.4.8-.9,1.4-1.9,1.3a2.3,2.3,0,0,1-2.1-1.5,31.1,31.1,0,0,1-.9-3.6,17.8,17.8,0,0,0-1,2.3c-.6,1.7-1.1,3.5-1.7,5.2s-2.2,3.1-4.6,1.2l-1-.9-1.1,3.1a33.6,33.6,0,0,1-1.4,4.5c-.5,1.4-1.3,1.7-2.7,1.1s-2.3-1-2.7-2.4l-1.1-1.7c-1.8,2-2.1,4.8-4.4,6.1-.2.1-.6-.1-1.1-.1l1.1-2.5c-.3-.3-.5-.8-.9-1a54.3,54.3,0,0,1-12.9-13.3,5.6,5.6,0,0,0-4.3-2.6c-4.3-.8-8.5-2.2-12.7-3.3l-2.2-.4c.6.6.8,1.1,1.1,1.3l7.2,4.3a23.9,23.9,0,0,0,2.2,1.2,3,3,0,0,1,.6,3c-.5.9-1.4.8-2.2.7L121,160.2a57.4,57.4,0,0,0-5.7-.9,14.5,14.5,0,0,0,1.3,1.8l6.6,5.2c.5.4,1.2.8,1.3,1.3a2.6,2.6,0,0,1,0,2.3c-.2.4-1.3.6-1.9.4-3.7-1-7.3-2.2-10.9-3.4s-4.9-2-7.3-3l-2.2-.6a15.6,15.6,0,0,0,1.5,1.7c6.9,5.8,13.8,11.8,21.9,16a3,3,0,0,1,1.1.7,6,6,0,0,1,.6,2.2c-.2.9-1.1,1-1.9.8l-6.3-1.1c-2.8-.5-5.7-.9-8.6-1.2a15.8,15.8,0,0,0-2.8.3,6.1,6.1,0,0,0,3.1,2.7,27.4,27.4,0,0,0,10.9,3.1,3.2,3.2,0,0,1,1.9.7,1.8,1.8,0,0,1-1.3,2.9c-2.2.3-4.5.4-6.7.9a12.1,12.1,0,0,0-6.3,3.1,9.7,9.7,0,0,0-1.5,1.9c1.6,1.7,3.5,2,5.3,2.3a54.8,54.8,0,0,0,5.7.5l10.6.4c1.1.1,2,.2,2.1,1.6s-.5,1.7-2,1.9l-4.6.7c-3.2.6-5.4,2.7-7.9,4.4-.2.1-.2.5-.4,1.2l3-.9,16.6-5.8a8,8,0,0,1,2.1-.5c.6,0,1.5.3,1.6.6a1.9,1.9,0,0,1-.6,1.7,2.8,2.8,0,0,1-1.4,1c-3.9,1.4-6.7,4.4-10.1,6.6l7.9-2.7a6.2,6.2,0,0,1,1.9-.7,7.8,7.8,0,0,0,4.4-2.9,35.1,35.1,0,0,1,3.3-3.4,27.7,27.7,0,0,1,2.3-1.7c2,2.7,1.4,6.4,4.1,8.7.6-2.2,1-4.2,1.7-6.1A47.6,47.6,0,0,0,156,196c.1-.5.2-1.2.5-1.4a6.6,6.6,0,0,1,2.7-1.5c1.1-.1,1.2,1.2,1.4,2a34.7,34.7,0,0,0,1.9,6c.3-1.2.6-2.4,1-3.7s.8-3,2.3-3.9,3.4-.9,4.2,1.5.8,2.7,1.2,4a10.7,10.7,0,0,1,.6,1.7,9.3,9.3,0,0,0,1.1-1.6l3-6.2c.8-1.6,1.6-3.1,3.3-3.9s2.6-.6,3.3,1.2a16.6,16.6,0,0,1,1.1,3.8c.5,2.5,2.2,4.2,3.6,6.1s1.3.8,2.1-.3,2.8-4.1,4.3-6.1a19,19,0,0,1,3.2-3.8c2.1-1.8,3.6-1.2,4,1.5a54.4,54.4,0,0,1,.3,5.7c.1.9-.3,2.1.8,2.4a3.5,3.5,0,0,0,2.5-.7c2.5-1.9,4.9-4,7.3-5.9a15.7,15.7,0,0,1,2.6-1.9c1.9-1,3-.3,2.9,1.9a13.8,13.8,0,0,1-.3,2c-.3,1.1-.5,2.2-.8,3.6a3.5,3.5,0,0,0,2-2.2c1.4-2.6,2.7-5.2,4.1-7.7a5.1,5.1,0,0,1,2.1-2c1.3-.7,2.2-.2,2.3,1.4s-.1,4.1-.2,6.2a12.5,12.5,0,0,0,.2,3.8c.4-.5.9-1,1.3-1.6,1.9-2.4,3.6-4.9,5.6-7.3a9,9,0,0,1,2.7-2c1.7-1,2.6-.5,2.8,1.5a36.9,36.9,0,0,1,0,4.7v2.1a6,6,0,0,0,1.4-1.2c1.3-1.7,2.3-3.5,3.7-5a9.2,9.2,0,0,1,3.1-2.4,1.6,1.6,0,0,1,2.5,1.3,17.7,17.7,0,0,1-.2,3.2l-.6,2.9a7.5,7.5,0,0,0,.1,1.2l1.7-1.5c1.6-1.1,3.2-2.4,4.8-3.4a1.5,1.5,0,0,1,2.4,1.1,8.6,8.6,0,0,1-.1,3.2,26.3,26.3,0,0,1-1.1,3.9,7.5,7.5,0,0,0,1.9-.3l3.2-1.4c2.4-1,3.4-.3,3.3,2.3a26.3,26.3,0,0,1-.6,3.9l-.6,2.7a8.4,8.4,0,0,0,5-.6c1.2-.6,2.5-.7,3.7-1.2s2.5-1,3.7-1.5l6.2-3.1c.7-.4,1.6-.8,2.2.2a2.1,2.1,0,0,1-.1,2.5,5.2,5.2,0,0,1-1,1.1c-3.8,2.5-5,6.9-7.7,10.1l.2.5,2-.4,6.1-1.9a10.2,10.2,0,0,1,3-.3,2,2,0,0,1,2,3c-.7,1.6-1.6,3.1-2.5,5l1.6-.6,3.5-1.1,2.3-1L298,214a1.6,1.6,0,0,0,.8-.5c1.5-3.4,4.6-5.1,7.1-7.5a11.4,11.4,0,0,0,1.1-1.1l-3.7-1.2c-2.5-1-2.9-2-1.4-4.1a65.5,65.5,0,0,1,4.5-5.9l4.5-5.6a10.1,10.1,0,0,0,.9-1.6l-2.4.2-7.4.6a5.8,5.8,0,0,1-2.9-.5c-2.3-.8-2.9-2.3-1.4-4.2s4.1-4.5,6.2-6.7a12.8,12.8,0,0,0,2.6-3l-1.8.6a84.6,84.6,0,0,1-8.4,3.1,10.2,10.2,0,0,1-4.6.4c-1.8-.3-2.2-1.5-1.4-3.1a12.7,12.7,0,0,1,1.8-2.7l10.2-11.1a18.6,18.6,0,0,1,2.6-2.3l-.3-.5-1.5.4a12.5,12.5,0,0,0-2.5.9c-2,.8-4.3,1.3-5.8,2.7s-2.2,3.6-3.3,5.5-3.7,5.8-5.6,8.7a3.3,3.3,0,0,1-4.1,1.3c-2.7-.7-4.4.6-4.3,3.3a28.1,28.1,0,0,0,.9,4.9c.2.9.5,1.7-.4,2.4-2.7-.2-3.4-.7-3.9-3.1s-.3-2.3-.5-3.4l-2.9-1.6c0-1.6,1.1-2,2-2.6s1.6-1.4,1-3l-2,2.6c-1,1.2-2.1,2.3-3.9,2.3s-3.9-1.2-3.9-3.7-.1-6.3-.1-9.4v-2.7c-1.3.5-1.6,1.6-2.1,2.3a2.6,2.6,0,0,1-2.9,1.4c-1.3-.3-2.3-.9-2.5-2.3l-.6-3.9-1.2.7c-2.5,1.8-5,.9-5.5-2s-.5-4.8-.7-7.2a9.7,9.7,0,0,1-.2-1.2c-2.5,2.2-3.1,5.2-5.1,7.8-.2-.7-.6-1.2-.4-1.5,1.6-3.2,3.2-6.3,5-9.4a2.3,2.3,0,0,1,1.8-.9c.5.1,1,1,1.2,1.6s.4,2.1.7,3.6a23.7,23.7,0,0,0,2.7-2,66.5,66.5,0,0,0,7.7-9c5.4-7.4,8.6-15.6,11.1-24.2a95.9,95.9,0,0,0,3.7-33.3c-.1-2.2-.3-4.4-.4-6.7a8.7,8.7,0,0,1,.5-2.2c.7,3.9,1.4,7.8,2.2,11.8,1.8-.7,3.5-1.1,4.8-2.4a51.2,51.2,0,0,0-6-9.1A3.5,3.5,0,0,0,276.5,74.4Zm-123,92.7a14.5,14.5,0,0,0,5,4.5,20.4,20.4,0,0,0,2.5-6.8c-2.6,1.6-4.8,2.9-7.5,2.4a34,34,0,0,0,6.3-3.2c4.3-3.2,8.8-6.1,13.3-9,2.4-1.5,4.9-2.8,5.4-6,.1-.4.5-.7.7-1.1s-.4-.6-.6-.7a85.4,85.4,0,0,1-12.9-13.3c-.9-1.1-1.4-1.2-3-.4l-16.3,8.3-6.7,3.6c.4,1,.6,2,1,2.8a72.8,72.8,0,0,0,7.8,13.2C150,163.4,151.8,165.2,153.5,167.1Zm58.2,208.1c1.5,1.8,2.6,3.1,3.6,4.5s3,4.6,4.7,6.7,2.8,2.7,5.3.6l.5-.5c3.7-2.7,5.8-2.2,8,1.8,1.2,2.2,2.2,4.6,3.5,6.8,2.6,4.3,5.3,8.6,10.3,10.7.6.2.8,1.5,1.1,2.3a4.4,4.4,0,0,1-.2,1.5c2.6.8,5,1.7,7.5,2.3,4.1,1,8.3,2.2,12.5,2.8a50.6,50.6,0,0,0,16-.6c8.4-1.6,15.9-4.9,22.1-10.9,1.7-1.7,3.3-3.3,3.8-5.7a6.2,6.2,0,0,1,1-2.2,53.3,53.3,0,0,0,5.6-15.8c1.2-7,.1-13.8-1.6-20.6-1.1-4.5-2.7-9-4.1-13.4-1-2.8-1.9-5.7-3.1-8.4-3.7-7.8-7.6-15.6-11.4-23.3-2.8-5.6-3.7-11.6-3.8-17.8a77.9,77.9,0,0,1,.9-9.6c.6-4.8,1-9.7,1.9-14.4a130,130,0,0,0,2.7-25.5c0-5-.3-9.9-.7-14.9a12.2,12.2,0,0,0-2.2-5.6l-4.1,2.8c-1.4.9-2.7.1-3.9-.6s-.9-1.8-.7-2.8a2.5,2.5,0,0,0-.1-1.2l-2.5.8c-1.2.2-3.4-.6-3.8-1.4s.2-2.1.8-3l1.4-2.2,1.8-2.7-1.9.4-4.4,1.7c-2.6,1.1-5.2,1-7.8.9-.8,0-1.6-.6-2.8-1.1l2.2-3c.5-.7,1.4-1.7,1.2-2.2s.3-2,.8-2.9l1.6-2.1a3.8,3.8,0,0,0-2.2.4c-1.6.6-3,1.4-4.6,1.9s-5.1.2-6.7-2.5h-2.3c-.2,2-1.9,1.9-3.3,2.1s-.3,1.6-.5,2.5l4.6-.4c1.8-.3,2.8.5,3.5,2.4l-2.9.7c-4.5.9-9,1.5-13.3,2.7s-6.9,2-9.1,5.2c-.1.2-.7.2-1.1.3a3.5,3.5,0,0,0-1.1.3l-2.6,2.1c-.6,2.5-.6,2.5-3.1,2.8-.8,2-1.3,2-2.5.5l-1.1-1.5c-7.8,2-15,.7-21.5-4.6l-1.5,2c2.1.8,4.1,1.3,4.6,3.9a12.9,12.9,0,0,1-2.5.6,35.4,35.4,0,0,1-4.7-.7c-2.8-.7-3.2-1.7-2.2-4.4l-.2-.6h-3.7c-2.5-.3-3.1-1.2-2.5-3.7.1-.2,0-.3,0-.6l-2.4-.2c-2.1-.4-2.5-1.2-1.9-3.3a2.2,2.2,0,0,0,.1-.9c-1.7-.1-3.5.4-4.7-1.3.5-1,1-2,1.6-3.4-1.7.3-2.9.9-4,.7-3.3-.6-6.4.1-9.6.7-.1.1-.3-.1-1-.3a57,57,0,0,1,6.8-1.5,4.2,4.2,0,0,0,3.8-2.9c.3-.7.4-1.7,1.8-1.6-.2,1.2-.4,2.2-.7,3.6l4.2-1.9c1.8-.8,2.5-.4,3.1,1.4a5.8,5.8,0,0,1,.5.9c5.8.3,9.5,4.1,12.8,8.5l.2.2c3.4,3.3,7,6.2,11.8,7.3a19.7,19.7,0,0,0,14.3-2.2c.3-.8.5-2.2,1-2.4s2.7-2.7,4.4-3.3c.2-2.2.2-2.2,2.5-3.2a2.1,2.1,0,0,1,1.1-2.4c1.1-.9,2.1-.2,3.3.4-.2-1.1-.3-1.8-.4-2.8l-2.1.6c-3.3,1.4-6.5,2.9-9.9,4.1a20.8,20.8,0,0,1-6.9,1.5,12.7,12.7,0,0,1-5.6-1.8,86.1,86.1,0,0,1-8.3-4.9c-3-1.9-5.9-4-8.9-5.8s-5.3-2.2-8.2-.5c-.8.4-2.5.4-2.8-.1s-3-1.8-4.6-2.4a3.3,3.3,0,0,1-2.1-2.2,4,4,0,0,0-.7-1.2,10.9,10.9,0,0,1-1,1.7c-1.3,2.5-2.5,5-4,7.4s-2.1,2.1-4.3,1.2-2.1-2.2-3-3.8c-.5,2-.8,3.6-1.2,5.2s-2.2,3.3-4.6,2a5.2,5.2,0,0,1-1.9-2.2,31.1,31.1,0,0,1-1.2-3c-.2.3-.5.5-.5.7-.8,3.7-1.7,7.4-2.5,11.1-.3,1.7-.9,2.2-2.5,1.7a4.4,4.4,0,0,1-2.3-1.7c-1.6-2.2-3.1-4.5-4.7-6.9a9.7,9.7,0,0,0-6.2,5c-1.5,2.6-2.8,5.2-4.2,7.8l-1.6-.5-.7,1.2c-3.5,6.3-4.6,13.3-5.1,20.4a78.1,78.1,0,0,0,1.3,19.3c2.1,11.4,5.4,22.6,8.8,33.7a142,142,0,0,1,5.3,26.4,58.8,58.8,0,0,1-2.5,24.3c-2.6,8.4-5.1,16.9-6.9,25.5a39,39,0,0,0,.5,18.6c3,9.9,9.5,16.4,19.3,19.7,6.6,2.2,13.3,2.4,20.1,2.4a48,48,0,0,0,5.2-.5,5,5,0,0,0,3.4-2.1,48.8,48.8,0,0,1,4.8-5.3,30.3,30.3,0,0,0,6.6-8.9,29.9,29.9,0,0,1,3.7-6.2c2-2.5,3.4-2.4,5.4.2.6-.7,1.2-1.3,1.7-2,2.5-3.1,3.8-6.8,5.3-10.4C210.3,377.4,210.9,376.6,211.7,375.2Zm187.2-67.3-.5-.4-2.6,1.7c-6.2,5.5-13.5,8.9-20.9,12.1a163.7,163.7,0,0,1-16.4,6.4c-10.4,3.5-20.8,6.8-31.3,10.1l-3.1.7a15.8,15.8,0,0,1,.6,2.6c.3,1.7.7,3.4.9,5.1s.5,5.1,1,7.6c1.1,5.9.6,11.8.5,17.7a34.2,34.2,0,0,1-.4,4.5c-1.5,8.2-4.2,16-9.2,23a7.9,7.9,0,0,0-1.3,2.6,95.6,95.6,0,0,1-6.7,15.4l-5.7,11.1c1.2.1,2,.4,2.9.4,9.7-.3,19.5.1,29,2.4a1.9,1.9,0,0,0,2.3-.8,205.5,205.5,0,0,0,20.1-26.3c3.6-5.6,7-11.2,10.4-16.9,2.3-3.8,4.6-7.6,6.6-11.6,3.9-7.9,7.2-15.9,10.4-24.1s7.5-18.8,9.9-28.7a10.1,10.1,0,0,0,.3-1.7,18.4,18.4,0,0,1,.5-4.1c.5-1.8,1.3-3.5,1.9-5.3A24.9,24.9,0,0,0,398.9,307.9Zm-89.5,1,12.3,26.8,1.7-.6c5.2-1.4,10.4-2.8,15.5-4.4,6.6-2,13.2-4.2,19.8-6.3a211.3,211.3,0,0,0,26.7-10.5c1.6-.7,3.3-1.1,4-3,.1-.3.6-.5,1-.7l8.3-5.8,3.4-2c.8,1.8-.4,2.9-.8,4.1-2.7,6.8-3.7,13.9-5.5,20.8-1.1,4.2-2,8.5-3.3,12.7s-3.5,9.2-5.1,13.9a177.8,177.8,0,0,1-12.3,27.9q-6.2,10.9-12.9,21.6a202.6,202.6,0,0,1-19.8,26.9,11.5,11.5,0,0,0-1.4,2c4.9,1.4,9.3,3.3,12.5,7.8l3.4-6.5c.9-1.7,1.8-3.4,2.8-5s3.7-5.4,5.3-8.3c3-5.3,5.9-10.7,8.6-16.1s6.2-13.7,9.3-20.6,5.4-12.4,8-18.6c1.5-3.7,2.8-7.6,4.3-11.3s4.3-9.7,6.2-14.6c3.1-8,6.2-16,9.1-24,1.7-4.7,3.5-9.4,3.5-14.4a1.4,1.4,0,0,1,.4-1.1,16.5,16.5,0,0,1,2.3-2,25.2,25.2,0,0,1,2.1,2.5c1,1.4,1.7,3,2.6,4.5a62.1,62.1,0,0,1,7.2,18.9c1.3,5.8,2.2,11.6,3.1,17.5,1.3,8.4,2.6,16.8,2.6,25.3,0,2.4.2,4.9.4,7.4.3,4.1,1,8.2,1.1,12.3.2,7.7.1,15.5,0,23.3a16,16,0,0,1-.4,4.9c-1,2.8.6,4.2,2.5,5.8a2.6,2.6,0,0,0,.4-1c1.1-6.5,2.2-13,3.1-19.5s1.5-12.7,2.1-19.1c.3-3.1.5-6.3.7-9.4s.8-9,.9-13.5-.3-8.4-.4-12.6a118.1,118.1,0,0,0-2-17.9c-.9-4.9-1.8-9.7-2.8-14.6a60.1,60.1,0,0,0-2.3-8.3c-1.9-5.4-4.1-10.6-6-16a50.2,50.2,0,0,0-8.1-14.9,7.7,7.7,0,0,0-2.6-2.5c-2.7,2.5-5.2,4.9-7.9,7.1-5.3,4.5-11.4,7.8-17.5,11.1-10,5.3-20.1,10.3-30.8,14-9.1,3.2-18.4,4.5-27.7,5.9a56.7,56.7,0,0,1-8.2.7c-3.7.2-7.3.1-11,0ZM55.9,312.6c.2,1,.2,1.5.3,1.9,1.5,4.1,2.9,8.3,4.5,12.4s3.2,7.7,4.8,11.6c3.5,8.9,6.9,17.9,10.5,26.7,2.4,6,5.2,11.9,7.8,17.9,1.7,3.8,3,7.7,4.9,11.4a164.4,164.4,0,0,0,20,29.7c1.3,1.6,2.5,3.3.9,5.5l1.8,2.3,4.4-2.4a29.4,29.4,0,0,1,22.1-2.7l2.9.7a60.1,60.1,0,0,1,13,3.7c1.8.8,3.7,1.3,6,2.2-3.3-4.1-6.2-7.6-9.2-11.1s-7.4-8.5-10-13.5a3.4,3.4,0,0,0-1.2-1.2c-5.6-4.7-8.2-11.1-10-17.9-1.1-3.9-.8-8-.8-12a5.1,5.1,0,0,0-.3-2.2,43.3,43.3,0,0,1-2.6-10c-1.1-7.4-2.3-14.8-2.2-22.4,0-2.4,0-4.9-.1-7.4s-.3-1.8-1.8-2l-5.2-.5-12.2-2a94.3,94.3,0,0,1-10.6-2c-5.2-1.5-10.3-3.3-15.3-5.1-7.5-2.7-14.7-5.9-21.1-10.8ZM40.1,281.4,39,282a41.3,41.3,0,0,0-9.8,10.2,85.5,85.5,0,0,0-10.8,19.1c-2.3,5.8-3.8,11.7-5.6,17.7-3.5,12-4.8,24.3-6,36.7-.3,3.2-.4,6.4-.7,9.6a69.5,69.5,0,0,0-.5,15.8c.3,2,.4,3.9.7,5.9.5,3.8.9,7.5,1.7,11.2a55.4,55.4,0,0,0,4.7,13.1,10.1,10.1,0,0,0,.7,1.5l.6,1.5c-.5-3.2-1.3-6.3-1.8-9.5s-.2-4.1-.4-6.1-.8-6.7-1-10.1c-.3-8.1.6-16.2,1.4-24.2s1.6-13.3,2.7-19.8a118.2,118.2,0,0,1,3.6-16.7,216.3,216.3,0,0,1,7.4-20.4,129.7,129.7,0,0,1,6.9-14,10.1,10.1,0,0,1,3-3.2c1.7-1.3,2.5-.9,2.9,1.3s.7,4.5,1.3,6.8c2.1,7.9,4.2,15.7,6.4,23.6,1.1,4.1,2,8.2,3.4,12.1,2.5,6.9,5.2,13.8,7.9,20.6a187.9,187.9,0,0,0,15.8,29.7c4.7,7.3,9.7,14.6,13.6,22.4a70.5,70.5,0,0,0,15.3,20.6l1.7,1.4,3.7-4.2c-5.7-9.1-11.3-17.8-16.6-26.7-3.9-6.4-7.6-12.8-10.9-19.5s-5.3-12-7.9-18-4.3-9.3-6.2-14.1-3.3-8.9-4.7-13.5c-1.8-6.3-3.4-12.6-5.2-18.8-1-3.9-2.1-7.7-3.2-11.5a2.4,2.4,0,0,1,.7-2.8c4.6,2.3,8.8,5.1,13.5,6.7,8.3,3,16.9,5.5,25.5,7.9s16.2,2.9,24.3,4.2l9,1.3a2.4,2.4,0,0,1,2.1,2.4,2,2,0,0,1-2.1,2l-1.1.3c0,2.2-.3,4.4.1,6.4,1.2,8.4,2.6,16.8,3.9,25.1l.6,1.9c0,.1.2.1.2.1h.3l.3-.9c1.8-6.3,3.7-12.5,5.3-18.8,1.1-4.1,2.1-8.2,2.8-12.3s.4-10.7-.2-16.1c-.2-2.1-.7-4.1-1.1-6.3a28.2,28.2,0,0,1-3.5,1.4c-3.9.8-7.9,1.7-11.9,2.3a53.4,53.4,0,0,1-18.7-.2,110.3,110.3,0,0,1-21-6.3,89.9,89.9,0,0,1-25.6-14.9C50.9,291.3,45.6,286.3,40.1,281.4Zm-3.7,24.1h-.6c-.6,1.1-1.3,2.2-1.9,3.4-3.1,6.4-6,12.8-8.6,19.5a106.1,106.1,0,0,0-6.2,20.8c-1.4,7.9-2.8,15.8-3.8,23.8a194.4,194.4,0,0,0-1.9,20.2c-.3,9.2-.5,18.4,1.4,27.6l.7,3c5.8-4.5,12.2-6.2,18.7-7.8a42.1,42.1,0,0,1,4.8-1.2,16.7,16.7,0,0,1,4.4-.6c6,.2,12,.6,18,1a21.2,21.2,0,0,1,4.4.5,61.8,61.8,0,0,1,15.4,6.1l5.3,3a13,13,0,0,0-1.5-3.6c-3.8-6.4-7.3-13-11.4-19.2a205.9,205.9,0,0,1-21.8-43.5c-1.7-4.8-2.8-9.8-5.6-14.2a21.8,21.8,0,0,1-2.1-4.7c-2-6.3-3.9-12.6-5.6-19a67.4,67.4,0,0,1-1.4-9C36.8,309.5,36.6,307.5,36.4,305.5Zm379.3-3.8h-.4c0,.7-.1,1.4-.1,2.1a31.1,31.1,0,0,1-.6,4.4c-1.6,5.5-3.3,11.1-5.1,16.5s-4.2,12.7-6.5,19-4.4,11.5-6.6,17.3c-1.3,3.5-2.4,7-3.9,10.5-3,7.1-6,14.2-9.2,21.3s-6.5,13.9-9.8,20.8c-.2.4-.2.8-.5,1.6l1.5-.6a24.7,24.7,0,0,1,7.1-2.9l11.5-3a10.9,10.9,0,0,1,2.6-.4,160.3,160.3,0,0,1,18.3,1,47.2,47.2,0,0,1,14.7,4L434,416v-2.8c-.2-6.1-.3-12.1-.6-18.1-.1-3.5-.2-6.9-.5-10.4-.7-8.9-1.5-17.9-2.3-26.8-.2-2.2-.4-4.4-.7-6.6-1-6.4-2.2-12.7-3.2-19-1.3-8.1-3.3-16-7-23.3C418.4,306.5,417,304.1,415.7,301.7ZM214.4,452.4h.6a34.9,34.9,0,0,0,1.4-11.1,50,50,0,0,0-2.2-13.2c-2-5.5-3.9-11.2-8.5-15.5a3.2,3.2,0,0,1,1.7.6,28.6,28.6,0,0,1,3.9,4.7,45.1,45.1,0,0,1,6.1,15.3,40.3,40.3,0,0,1-3.1,27.1,29.6,29.6,0,0,0-1.5,3.1c-4.3,11.9-12.8,18.9-24.8,22l-5,1.3a3.6,3.6,0,0,0,2.3,1c6.2.5,12.2.3,18-2.2a56.2,56.2,0,0,0,21.3-15.3,25.9,25.9,0,0,0,3.7-5.6c1.2-2.4,2.2-5,3.2-7.5a114.2,114.2,0,0,0,4.6-15.1,111.1,111.1,0,0,1,3.4-12.9c1.8-5.3,2.8-10.7,1.9-16.3-.6-3.1-.9-6.4-3.1-9a49.8,49.8,0,0,1-7.6-13,16.4,16.4,0,0,0-1.4-2.2c-2.6,1.2-2.8,1.5-2.4,3.2,1.7,6.3,3.3,12.6,4.9,18.9a12.3,12.3,0,0,1,.2,2.7h-.5c-2.6-7-3.7-14.5-5.9-21.5a36.4,36.4,0,0,1-4.4-1,8.8,8.8,0,0,1-4.2-4.3c-1.1-1.8-2-3.7-3-5.5l-2-2.9c-.8,2.2-1.4,4-2.1,5.7a34.1,34.1,0,0,1-6.5,10.2c-1,1.2-2.4,1-3.2-.4a8.8,8.8,0,0,1-.7-1.4c-1.9,3.4-3.2,6.7-5.2,9.6a92.5,92.5,0,0,1-6.9,8l1.4,1.5,1.1.9c1.4,1.1,2.9,2.1,4.3,3.4a49.7,49.7,0,0,1,6.2,6.7c2.8,3.9,6.2,7.4,9.3,11.1a1.9,1.9,0,0,1,.4.9c1.1,3.8,2.3,7.7,3.3,11.6C213.9,448.2,214.1,450.3,214.4,452.4Zm67.3-284.8a24.3,24.3,0,0,0,1.4-2c1.9-3.6,4-7,5.6-10.7a75.3,75.3,0,0,0,4.7-16.2c.2-1.1-.4-1.6-1.3-2-3.5-1.5-6.9-3.2-10.4-4.6a36.8,36.8,0,0,0-9.5-2.4,72.7,72.7,0,0,1-11.3,18.4c3.4,3.6,6.4,7.1,9.8,10.2S277.8,164.4,281.7,167.6ZM139.6,144.2l23.6-13.4-2.1-2.8c-1.5-2-3.1-4-4.5-6.1s-3.2-5.4-4.8-8.1l-1.1-1.2-8.2,2.2-8.3,1.9C133.3,122.3,136.7,139,139.6,144.2Zm4.7,267-.4.4c1.3,1.6,2.5,3.2,3.9,4.7,3.3,3.6,6.6,7.2,10,10.7s6.8,6.9,10.4,10.1,10.1,6.3,13.7,11.1l7.8-7.1-1-.7a39.4,39.4,0,0,1-8.4-7.9l-7.5-8.8c-1.3-1.6-2.8-3-3.6-4.7s-1.8-2.2-3.6-2.2a38.4,38.4,0,0,1-15-2.8C148.5,413.2,146.4,412.1,144.3,411.2Zm167.2-5.8-.3-.3c-.3.1-.5.1-.7.3A44.1,44.1,0,0,1,290,416.9a5.1,5.1,0,0,0-3.8,3,7,7,0,0,1-1.5,2.3c-3.2,4.8-6.5,9.5-9.7,14l4.5,9.1,2.1-2c2-2.1,3.8-4.4,6.1-6.1a76,76,0,0,1,9-5.7,6.9,6.9,0,0,0,3.1-3c2.7-5,5.5-10,8.1-15C309.2,410.8,310.3,408.1,311.5,405.4ZM293.8,134.9c.1-1.3.3-2.2.3-3,.1-4.7.2-9.5,0-14.2a87.8,87.8,0,0,0-1.2-10c-.3-1.7-.5-1.9-2.3-1.6l-10.3,1.4c-2.2.3-2.3.3-2.6,2.5a89.5,89.5,0,0,1-4.1,16,13.2,13.2,0,0,0-.5,2.3A75.8,75.8,0,0,1,293.8,134.9Zm-9.6,283.7a16,16,0,0,0-2.2,0l-2.2.3c-8.4.8-16.6-.6-24.6-3.2l-8.1-2.4c.9,5.5,1.7,10.5,2.5,15.9,9-1.3,16.8,2.3,24.4,6.6C278,430.4,280.5,424.3,284.2,418.6Zm-80.3,15.1-.4-1.2a9.9,9.9,0,0,0-.9-1.5c-4.1-5.8-9.2-10.6-14.5-15.2a3.3,3.3,0,0,0-3-.5,50.6,50.6,0,0,1-13.9,1.9l-1.9.3a15.6,15.6,0,0,0,1.7,1.8l10.2,9.7a75.9,75.9,0,0,0,10.7,8.8c.8.5,1.5.9,2.4.2A27,27,0,0,1,203.9,433.7Zm49.2-231.6-.9-3.5-2.2,1.7a3.3,3.3,0,0,1-4.3.3,23.9,23.9,0,0,1-2.6-2.1c-.8,1.1-1.6,2.1-2.3,3.2a3.2,3.2,0,0,1-3.9,1.4c-2-.6-2.8-1.5-2.9-3.5v-3.4h-.5L232,198l-4,5a3,3,0,0,1-3.4.8,3.5,3.5,0,0,1-2.7-3.1c-.1-.6-.2-1.1-.4-2l-1.4,1.8a8.8,8.8,0,0,1-1.2,1.5c-1.5,1.8-2.6,2.1-4.6,1.4a3.4,3.4,0,0,1-2.5-3.8c0-.4-.1-.9-.2-1.7-3.2,2.2-5.8,4.8-9.6,5.4.2.4.2.6.4.8,4.8,2.9,9.4,6.2,14.6,8.2a10.2,10.2,0,0,0,8.2,0c2.9-1.2,5.7-2.6,8.6-3.9s6.1-2.4,9.5-2.2a3.4,3.4,0,0,0,2.2-.4c1.4-.8,2.6-.7,4.1,1.1C248.6,203.1,251.3,203.2,253.1,202.1ZM149.8,110.6a9,9,0,0,0-.8-1.9c-1-2.5-2.5-4.9-3-7.5s-2.3-4.8-5.1-5.9-2.9-1.4-4.5-2.2c-1.8,7.5-2.9,14.6-2.4,22.3A93.2,93.2,0,0,0,149.8,110.6ZM278.6,87.4v19l13.2-2.6c-1.5-6.6-3.4-12.8-7.4-18.3ZM142.5,78.2A40.8,40.8,0,0,0,136.8,92l7.7,3.3C143.8,89.3,143.1,83.7,142.5,78.2Zm125.1,96.3.7.2,6.3-9-7-6.9Zm-2.1-18.4-5.9-6.3-8,5.9c.1.6-.1,1.6,1,2.1s1.3-1.6,2-2.3a10.2,10.2,0,0,1,2.3-1.8c1.5-.7,2.4-.3,2.7,1.3a31.6,31.6,0,0,1,.3,3.2l.3,1.7Zm-89.2-.2c-2.5.7-10.4,5.4-12.6,7.4l2.3,4.5,1.1-3a18.3,18.3,0,0,1,1.4-3.2c1.7-2.8,3.7-3.1,6.5-1.2C175.4,158.9,175.9,157.5,176.3,155.9Zm15.3,44.5,6.1.8v-8.1h-.6ZM294.3,223l1.5-2.3,3.6,1.5.4-.5-1.2-2.9C294.7,220.2,293.9,220.9,294.3,223ZM181.9,152.7c.3,1.5-.2,3,1.2,4.5.6-2.2,1.2-4,1.8-6.2Zm10.8,58.8c-.4,1.1-.6,1.9-1,3.1l3.8-1.1Zm4.4,4c-.3,1.4-.5,2.3-.7,3.6l3-.8Zm64.1-14-.4-.5-2.8,1.4,2.5,1.4Zm17-32.8v2.4h.4l1.6-1.9Zm-155,42.2.2.3,1.3-.6c-.4-.2-.6-.2-.8-.1Z"/><path d="M88.2,68.8c-.6,2.4-1.3,4.7-2,7.1s-1,4.3-1.6,6.5a4.2,4.2,0,0,1-.3,1.2,7.5,7.5,0,0,1-1.9,1.7c-.9.3-2.6-.9-2.9-1.8a18.6,18.6,0,0,1-1-3.9c-.8-4.2-1.6-8.4-2.3-12.6-1-6.4-1.8-12.7-2.8-19.1-.5-3.4-1-6.8-1.7-10.2a25.3,25.3,0,0,0-1.2-3.6,16,16,0,0,1-.3-2.3c1.8-.3,2.1.8,2.3,1.8.8,3,1.5,5.9,2.1,8.9l3.9,21.4a91.2,91.2,0,0,0,2.7,10.9,7.6,7.6,0,0,0,.6-1.6l3-11.2a10.4,10.4,0,0,1,1.5-3.4,5.9,5.9,0,0,1,2.5-2.2c3.6-1.5,4.4-.2,5,2.3s.5,2.2.7,3.4c.7,5.6,1.3,11.2,1.6,16.9.3,7.3.7,14.6,1.5,21.9s1.2,16.4,3.2,24.5a9.5,9.5,0,0,1,.1,5.3c-.2.5-.6,1-.8,1.4-3.3.2-6.3-2.9-6.7-6-.5-4.7-1.2-9.4-1.7-14.2s-.7-8.6-1.1-13c-.1-2.4-.3-4.7-.4-7.1s-.3-7.4-.5-11.1l-.9-11.8Z"/><path d="M351.1,104.7a24.8,24.8,0,0,1-1.3,7.3c-2.5,9.1-6.3,17.7-10.2,26.3-.4,1-.7,2-1.3,3.5l1.7-1.3,6.5-5.3a18.5,18.5,0,0,1,4.5-2.1c2.2-.7,3.2.2,3.4,2.5s-.9,4.2-1.7,6.1c-2.1,4.7-4.2,9.3-6.4,14-3.4,7.1-7,14.2-10.3,21.4s-5.3,12.4-7.9,18.6l-.3.7c-1.7,4.7-2.2,4.4-6.3,2-1.5-.8-1.7-1.5-1-3.3,1.8-4.6,3.6-9.2,5.8-13.7,5.4-11.4,11.1-22.8,16.6-34.2a11.3,11.3,0,0,0,.6-1.6l-1.5,1-5.7,5.2a4.9,4.9,0,0,1-2,1.3c-1.6.5-2.9-.4-4.1-1.4s-.1-2.1.3-3c2.2-4.7,4.6-9.3,6.9-14a178.4,178.4,0,0,0,9.5-22.5l1.8-5.7A2.1,2.1,0,0,1,351.1,104.7Z"/><path d="M225.2,30l4-6.8c.8-1.5,1.7-3,2.6-4.5A5.3,5.3,0,0,1,236,16c1-.1,1.7.3,1.8,1.3a17,17,0,0,1,.2,3.9c-.8,6.8-1.7,13.5-2.6,20.3-.7,5-1.4,9.9-2,14.9A134.3,134.3,0,0,0,232,73.1c0,4.9-2.6,4.2-5.2,2.6s-1.6-2.2-1.4-3.7c.3-3.1.6-6.2,1-9.3,1-7.6,2.1-15.3,3.3-22.9a81.1,81.1,0,0,0,1.2-9.9l-1,1.2-3.4,5.1a2.4,2.4,0,0,1-3.1.9,2.6,2.6,0,0,1-2.1-2.5c0-3.7,0-7.4.2-11.1s.7-9.7,1.1-14.6c.1-2.3.2-4.6.4-6.9a1.9,1.9,0,0,1,1.7-2c.2.5.6,1,.6,1.4l-.6,13.9c0,.8-.1,1.6-.1,2.4V29.8Z"/><path class="cls-1" d="M123.2,210.9l.7-.4c.2-.1.4-.1.8.1l-1.3.6Z"/><path d="M248.2,378.1c-6.4.5-11.8-2.5-16.9-6.1a35.9,35.9,0,0,0-11.2-5.7,19.5,19.5,0,0,0-10.7-.2c-6.3,1.6-11.8,4.7-17.5,7.6s-8.9,4.9-13.9,6.1a13.9,13.9,0,0,1-15.2-6.1,22.6,22.6,0,0,1-3.1-11.3,38,38,0,0,1,2.7-15.3c2.4-6.1,2.3-12.3,1.4-18.7a21.1,21.1,0,0,0-2-6.6c-1.7-3.5-1-7.1-.3-10.6A19,19,0,0,1,163,307c1.4-3,2.9-5.9,4.5-8.8a13.8,13.8,0,0,1,6.4-6c4.5-2.1,8.7-1,11.4,3.3a39.5,39.5,0,0,0,2.8,4.3,28.9,28.9,0,0,0,3.5,3.5c1,1,2.1,1.7,3.7.9s1.8.3,1.8,1.2,1,2,2.2,2.4a35.2,35.2,0,0,0,18.2,1.7c6.9-1.1,13-3.6,18.1-8.3,2.1-2,3.9-4.3,5.8-6.5a23.7,23.7,0,0,1,13.2-8.2c4.7-1.1,8.7.3,12.1,3.5s5.4,8.4,6.5,13.4a44.3,44.3,0,0,1,.6,5.1,37,37,0,0,1-.6,7.4c-1.5,8.3-3,16.6-3.9,24.9-.5,5.2-.7,10.6,1.1,15.8a6.2,6.2,0,0,1-.1,4.8,3.3,3.3,0,0,0-.1,1.4c.7,4.7-1.2,8.2-5,10.8S253.7,378.6,248.2,378.1Zm15.7-8.3h.6a1.6,1.6,0,0,0,.8-.6,8.6,8.6,0,0,0,1.6-8.8,38.3,38.3,0,0,1-2.5-14.2,39.4,39.4,0,0,1,.5-6.9,118.7,118.7,0,0,1,2.2-11.9c.8-3.4,2-6.6,3.1-9.9.2-.7.6-1.7.3-2.2s-.6-4-.7-6a28.1,28.1,0,0,0-1.3-7.5,5.2,5.2,0,0,0-.2,1.1c-.1,2.7,0,5.3-.2,8a42.2,42.2,0,0,1-.7,6.1c-.5,2.2-1.7,2.6-3.8,1.9a4.1,4.1,0,0,1-2.8-3.4c-1-6-4.5-10.6-8.5-14.8-2.1-2.3-4.9-2.6-8.1-2.7a9.7,9.7,0,0,0,.7,1.9c3.4,5.5,4.4,11.7,4.9,18a86.7,86.7,0,0,1,0,11.4,83.2,83.2,0,0,1-1.3,8.5,9,9,0,0,1-.8,2.1,1.8,1.8,0,0,1-2.3.9c-1.8-.4-2.7-1.3-2.8-3.5a59,59,0,0,0-2.7-13.9,38.4,38.4,0,0,0-3.6-8c-1.9-3.3-5.2-4.6-9.1-5.5a25.1,25.1,0,0,1,2.7,13.4c-.4,7.4-3.1,14.1-6.7,20.6a15,15,0,0,1-1.9,2.5c-2.4,2.5-3.4,2.5-6,.3a2.4,2.4,0,0,1-1-2.4c.2-4,.5-7.9.6-11.8a67.5,67.5,0,0,0-.9-14.9,16.4,16.4,0,0,0-.8-2.4l-1.8,1.8c-3,3.4-4.9,7.4-6.7,11.5s-3,8.9-2.2,13.7a12.2,12.2,0,0,1,0,3.3c-.1,2.1-1.5,2.9-3.3,1.6a8.1,8.1,0,0,1-2.8-3.3c-2.6-5.7-4.5-11.6-4.4-17.9.2-4.8.5-9.7.8-14.7a13,13,0,0,0-1.8,1.5,43.7,43.7,0,0,0-3.1,4.4c-3,5.2-4.4,10.9-5.4,16.7a14.6,14.6,0,0,1-.5,2c-2.3-.3-2.6-.4-3.2-2.5a82,82,0,0,1-2.3-9.8,42,42,0,0,1,1.4-20.8c.1-.4.1-.8.2-1.2A37.9,37.9,0,0,0,167.3,317c-.4,1.1.2,1.7.6,2.5a92,92,0,0,1,4.4,8.9,23.9,23.9,0,0,1-.7,19.9l-2.7,4.9c2.6-.8,3.7.2,4.3,2.2,0,.4.4.7.6,1.1l5.1,8.5a52.9,52.9,0,0,0,3.2,5c1.6,2.2,3.1,2.4,5.2,1.1-2.9-5.4-3.9-10.2-3.1-15.4a17,17,0,0,1,1.3-4c1-2,3.7-2.4,4.7-.7,2.3,4.1,5.7,7.2,8.8,10.6s3.2,2.8,6.6,1.3h.2v-6.4c0-2.8,1.3-5.1,2.6-7.3s1.2-1.5,2-.9a2.4,2.4,0,0,1,.9,1.8c-.5,1.5.2,2.6,1,3.7a36.5,36.5,0,0,0,7.8,7.9c2.7,2.1,4.7,1.9,7-.7a10.8,10.8,0,0,0,1.8-2.4c1-2,2-3.9,2.9-6s1.1-2,2.6-1.8c.9,2.3,1.9,4.6,2.6,6.9a22.9,22.9,0,0,1,1,11.3c-.5,2.4-.4,2.5,1.6,3.6a5.7,5.7,0,0,0,4.6.4,6.8,6.8,0,0,0,4.4-3.7c1.9-3.8,4.2-7.5,4.3-12,0-1.5,1.6-2.8,2.6-2.2s3.8,1.6,4.8,3.7a47.7,47.7,0,0,1,2.2,5.2C263.1,365.8,263.4,367.9,263.9,369.8Zm-46.1-25a7.6,7.6,0,0,0,3.1-3.6,63.9,63.9,0,0,0,6.4-15.8,23.9,23.9,0,0,0-.5-12.7c-.6-2-1-2.1-3.1-1.7l-6.8,1.2c-1.9.3-2.7,1.6-2,3.5s.6,1.9.8,2.9a70.9,70.9,0,0,1,1.6,15.9c0,3,.1,6,.2,8.9A12.1,12.1,0,0,0,217.8,344.8Zm-22-36.3c-3.3,6.4-1.3,27,2.8,30.7.5-10.2,5.1-18.7,11.9-26.9A37.6,37.6,0,0,1,195.8,308.5Zm-15.5,18.8a11.4,11.4,0,0,0,.6-1.4c1.6-6.9,4.4-13.1,9.7-18,.5-.6.9-1.3,1.3-1.7l-8.4-9.3a4.5,4.5,0,0,0-3.3,3.2,47.7,47.7,0,0,0-1.7,6.5,54.9,54.9,0,0,0,.1,14.6A14.8,14.8,0,0,0,180.3,327.3ZM243,295.9v.8h3.7a12.4,12.4,0,0,1,9.4,3.7l3.8,4.2,3.8,4.8c.2-.9.4-1.5.5-2.1a50.6,50.6,0,0,0-1.3-14.5,4,4,0,0,0-3.3-3.2,10,10,0,0,0-2.4-.4C251.5,289.4,246.9,292.1,243,295.9Zm-2.2,5.8-10.7,7.5.3.3.7.3a14.1,14.1,0,0,1,9.3,8.3c1.7,3.6,2.9,7.5,4.4,11.3a11.8,11.8,0,0,0,.8,1.6C247.5,322.7,245.2,305.7,240.8,301.7Zm-58.9,72.9c-.4-.8-.5-1.8-1-2.1-4.7-2.7-7.6-6.9-10.1-11.5a16.2,16.2,0,0,1-1.3-3.3l-.6.7a23.3,23.3,0,0,0-1.2,13.3c.5,2.9,2.9,4.6,5.8,4.8S178.9,375.4,181.9,374.6Zm75-16.6c-2.4,6.2-5.1,11.8-10.5,16.2a28.5,28.5,0,0,0,11-.9,2.8,2.8,0,0,0,2.3-2.9,38.7,38.7,0,0,0-.2-6.8A9.1,9.1,0,0,0,256.9,358Zm-59.7,8.5a64.8,64.8,0,0,1-5.1-5.9,69.5,69.5,0,0,1-3.7-6.7c-2.4,5.7-1.9,13.6,1,16.4Zm29.1-2.6,8.5,4.9c2-4.9,1.1-9.5-.6-14.3Zm-59.5-48.3c2.5-8.3,7.7-14.7,13.7-20.6-1.8-1-3.1-1.1-4.6-.3s-3,1.1-2.9,3.2-.5,1.2-.9,1.7a26.9,26.9,0,0,1-2.6,3.3c-3,3.5-3.3,7.8-3.3,12.1C166.2,315.1,166.4,315.2,166.8,315.6Zm43.2,37c-2.9,2.8-3.6,6.2-2,9.4l7.3-1Zm-42.5,2.2c-2.7.6-2.9.5-3,1.5a25.4,25.4,0,0,0,.2,9.9A31.3,31.3,0,0,1,167.5,354.8Z"/><path d="M253,265.1c-4.1-.2-7.6-1.9-11.1-3.6a19,19,0,0,1-8.4-8.2c-3.6-7.6-4.5-15.5.5-22.8,3.2-4.8,7.5-8.4,13.5-9.7a27.9,27.9,0,0,1,11.1-.7c4.8.9,8.9,3,11.3,7.6a5.3,5.3,0,0,0,1.7,2.4c2.5,1.8,3.1,4.3,3.5,7a29.4,29.4,0,0,1,.8,4.9c-.4,5.8-1.9,11.2-6.3,15.5-2.8,2.7-5.7,5.1-9.5,6Zm-18.8-17.2c.1-.7.2-1,.2-1.2.4-5.6,2.4-10.3,6.8-13.7a30.9,30.9,0,0,1,7.2-3.8,14.9,14.9,0,0,1,4.3-.7,17.7,17.7,0,0,1,4.6.1,17.4,17.4,0,0,1,9.3,5.7,15.9,15.9,0,0,1,4.3,10.5c0,2,.1,3.9.1,5.9h.6a20.7,20.7,0,0,0,1.8-6.9,23.2,23.2,0,0,0-.7-6.9,21.7,21.7,0,0,0-4.1-8,19,19,0,0,0-8.2-5.8c-3.4-1.2-6.7-2.5-10.6-1.5a21.8,21.8,0,0,0-9.4,4.6,20.4,20.4,0,0,0-7.2,11.8C232.5,241.1,232.3,244.5,234.2,247.9Zm27.7-7a6,6,0,0,0-3.4-5.9c-2-1.1-3.4-.9-5.2.8a4.2,4.2,0,0,0-.9,5,7,7,0,0,0,3.8,3.6C258.9,245.6,262.2,244.7,261.9,240.9Z"/><path d="M195.1,239.7c-.4,5.7-2.1,10.7-6.1,14.8a19.3,19.3,0,0,1-6.3,4.7c-1.4.5-2.6,1.5-3.9,2-3.6,1.3-7.2.3-10.7-.4-8.2-1.7-12.5-7.5-15.3-14.7a15.2,15.2,0,0,1-1-6.3,22.7,22.7,0,0,1,5.7-13.6,24.2,24.2,0,0,1,11.3-6.7,19.3,19.3,0,0,1,6.3-1,24.5,24.5,0,0,1,10.6,3.7,18.8,18.8,0,0,1,8.2,11.5C194.5,235.7,194.7,237.7,195.1,239.7Zm-5.6,10a19.6,19.6,0,0,0,1.2-1.7,18.2,18.2,0,0,0,.9-13,18.4,18.4,0,0,0-11.8-12.9c-3.7-1.5-7.6-2.1-11.1-.8-8.4,2.9-13.2,9.2-14.4,18.1,0,.2.2.4.5,1s.9-1.6,1.2-2.3a17.4,17.4,0,0,1,7.9-8.8,13.9,13.9,0,0,1,6.6-1.8,25.3,25.3,0,0,1,7.8.8c1.3.4,2.8.4,3.7,1.2,4.7,3.5,7.8,8,7.8,14.1C189.7,245.5,189.6,247.4,189.5,249.7ZM178,243.2c3.4,0,4.4-1,4.4-4.4a2.2,2.2,0,0,0-.1-.8c-.6-4.7-4.7-5.8-8.2-4.1-1.1.5-1.9,1.8-2.7,2.9a2.2,2.2,0,0,0-.1,1.8C172.1,241,175.4,243.2,178,243.2Z"/><path d="M202.6,265.3l-1.9,2.1c-3,3.4-4.9,7.4-4.5,12.1s3.9,10.1,9,12.9,8.8,2.5,13.5,1.6a26,26,0,0,0,2.5-1c.5-.3,1-.8,1.5-.8,2.2.1,3.1-1.4,3.6-3.1a50,50,0,0,0,2-8.5c.5-4.4.4-8.9-3.1-12.4l-.9-1.2v-.2c.1-.2,0-.4.1-.5,2-3.4,3.8-3.1,6.3-.8a15.5,15.5,0,0,1,4.4,7,25,25,0,0,1,.8,9,12.4,12.4,0,0,1-2.8,6.3,15.8,15.8,0,0,0-1.2,1.5c-1.6,3.5-4.6,5.6-7.7,7.5a6.2,6.2,0,0,1-3.2,1.1,62.6,62.6,0,0,1-10.6-.3,19.9,19.9,0,0,1-13.8-8.3,16.9,16.9,0,0,1,1.8-21.4C200.3,265.9,200.5,265.8,202.6,265.3Z"/><path d="M212.1,473.1l9.6-12.6a62.3,62.3,0,0,0,9.6-17.5,31.8,31.8,0,0,0,1.7-13.7c-.2-1.7-.6-3.5-.8-5.3,1.4,1.9,1.5,4.2,1.8,6.5a35.6,35.6,0,0,1-3.7,19.2,73.3,73.3,0,0,1-17.6,23.4l-.4.3Z"/><path d="M211.5,388.5l1.5,14.6h-.6A51.6,51.6,0,0,1,211.5,388.5Z"/><path d="M213.8,407.6a14.9,14.9,0,0,0,.2,2.1h-.2l-.7-2.1Z"/><path d="M212.8,406.1V405h.3v1.1Z"/><path class="cls-1" d="M261.9,240.9c.3,3.8-3,4.7-5.7,3.5a7,7,0,0,1-3.8-3.6,4.2,4.2,0,0,1,.9-5c1.8-1.7,3.2-1.9,5.2-.8A6,6,0,0,1,261.9,240.9Z"/><path class="cls-1" d="M178,243.2c-2.6,0-5.9-2.2-6.7-4.6a2.2,2.2,0,0,1,.1-1.8c.8-1.1,1.6-2.4,2.7-2.9,3.5-1.7,7.6-.6,8.2,4.1a2.2,2.2,0,0,1,.1.8C182.4,242.2,181.4,243.2,178,243.2Z"/></svg>