<?xml version="1.0" encoding="utf-8"?>
<!-- Generator: Adobe Illustrator 25.4.1, SVG Export Plug-In . SVG Version: 6.00 Build 0)  -->
<svg version="1.1" id="Layer_1" xmlns="http://www.w3.org/2000/svg" xmlns:xlink="http://www.w3.org/1999/xlink" x="0px" y="0px"
	 viewBox="0 0 456.2 494.1" style="enable-background:new 0 0 456.2 494.1;" xml:space="preserve">
<style type="text/css">
	.st0{fill:#CCDBFD;}
	.st1{fill:#FFFFFF;}
</style>
<path class="st0" d="M276.5,74.4c0.1-0.5,0.1-1,0.2-2l2.1,1.2c2.4,2.1,4.9,4,7.1,6.2c1.7,2,3.3,4,4.8,6.2c3.9,5.2,5.8,11,7.5,17.1
	c0.9,3.7,1.5,7.4,1.9,11.2c0.9,5.9,1.3,11.8,1.3,17.8c0.1,8.9-1.6,17.7-5.2,25.9c-0.1,0.3-0.1,0.5-0.1,0.8l1.6-0.5l8.9-3.7l0.9-0.3
	c0.7,0,1.5,0,1.8,0.3c0.3,0.6,0.2,1.3-0.1,1.9c-0.4,0.6-0.9,1.1-1.4,1.6l-12,13.2l-1.6,2.1l0.4,0.5l7.5-2.9l10-4.2l1.4-0.4
	c0.9-0.2,1.9-0.5,2.6,0.3c0.6,1.1,0.5,2.4-0.3,3.3l-3,3l-9.4,8.7c-0.6,0.6-1.2,1.3-1.6,2c0.9,0.1,1.8,0.1,2.7,0l6.9-1.1l2.4-0.2
	c3-0.1,4.2,1.8,2.7,4.5c-0.8,1.5-1.8,2.9-2.8,4.3l-5.5,6.8c-0.5,0.6-0.9,1.2-1.3,1.9l0.3,0.5l5.5-0.9c1.1-0.2,2.3-0.7,3,0.7
	c0.6,1.2,0.3,2.7-0.8,3.6c-1.4,1.4-2.9,2.7-4.5,3.9c-0.9,0.8-1.7,1.5-1.6,2.9s-0.6,1.9-1.6,2.5l-4.4,2.6l2.1,1
	c-0.9,1-1.5,1.6-1.2,2.9c0.1,1.3-0.2,2.6-0.8,3.8c-0.2,0.4-1.1,0.6-1.7,0.9l1.4,3c3,5.3,5,11.1,6.1,17.1c1.4,7.4,2.6,14.8,2.1,22.4
	c-0.2,3.4-0.7,6.9-1.1,10.3s-0.8,6-1.1,9.1s-0.9,7.7-1.1,11.5c0,2.3,0.1,4.6,0.4,6.9c0.1,1.2,0.8,1.7,2,1.8
	c6.2,0.2,12.4,0.6,18.5-0.5c10-1.8,20.2-3.1,29.9-6.3c9.3-3,18.3-7,26.8-11.7c5-2.7,9.9-5.5,14.9-8.4s8.2-6,12.2-9.3
	c1.7-1.3,3.4-2.5,5.2-3.6c1-0.6,1.9-0.4,2.9,0.6c1,1,2.3,1.7,3.7,2c3.1,0.2,5.3,1.9,7.4,3.8c5.3,5,9.9,10.6,13.8,16.8
	c2.7,4.3,4.6,9,5.7,13.9c1.3,6,2.3,12,3.2,18c0.6,3.6,0.8,7.3,1.2,11s0.7,6.2,0.9,9.3c0.1,1.4-0.1,2.8-0.1,4.2
	c-0.2,1.2-0.2,2.5-0.2,3.7c0.2,5.4-0.9,10.7-1.3,16s-1.7,10.9-2.4,16.4c-0.5,3.2-0.8,6.5-1.3,9.8c-0.3,1.9-0.6,3.7-1.1,5.5
	c-0.5,3-1.1,6-1.6,9c-1,5.7-2.1,11.3-3.1,17c-0.1,0.5-0.2,1-0.4,1.4c-0.8,2.2-1.9,3-4.1,1.1c-4.3-3.4-9.1-6.1-14.2-8.1
	c-1.9-0.8-3.8-1.6-5.7-2.2c-1.4-0.4-2.8-0.6-4.2-0.7l-11.6-0.4c-1.1,0-2.2,0.1-3.2,0.4c-6.7,1.4-13.2,3.7-19.2,7
	c-5,2.8-9.1,6.5-13.2,10.3c-2,1.8-4,3.5-5.8,5.4c-1,1.2-2,2.5-2.7,3.9c-0.8,1.4-1.5,2.9-2.1,4.4c-0.3,0.9-1.3,1.5-2.3,1.1
	c0,0-0.1,0-0.1,0c-1.6-0.4-2.9-0.9-3.5-2.7c-0.6-1.6-1.8-3-3.3-3.8c-2.6-1.4-5.3-2.8-8-4s-3.8-1.4-5.8-2.2s-6.6-1.3-9.9-2
	c-5.7-1.2-11.2,0.1-16.7,0.8c-1.8,0.3-3.5,0.9-5,1.9c-4,2.6-7.7,5.5-11.5,8.2l-1.7,1c-3.3,1.4-6.3,3.4-8.9,5.9l-0.7,0.4
	c-2.4-2.2-5-4-7-6.4c-2.8-3.3-6.5-5.7-10.6-6.9l-1.4-0.5c-3.6-2-7.4-1.2-11.1-1c-1.9,0.1-2.1,0.6-2.4,2.5s-0.6,4.7-1,7
	c-0.8,5.7-3.6,10.6-6.1,15.6c-2.7,5.5-6.4,10.5-10.9,14.7c-4.3,3.9-8.2,8.3-13.4,11.3c-5.2,3.2-10.9,5.5-16.9,6.9
	c-2.7,0.5-5.4,0-8.1-0.4l-3.6-0.5c-1.6-0.1-3.2-0.4-4.8-0.9c-5.2-2-10.2-4.4-14.3-8.3c-0.5-0.3-1-0.6-1.5-0.8l0.4-0.8
	c2.1-0.1,4.3-0.3,6.5-0.2c10.8,0.2,20.5-2.4,27.8-11c4.1-4.7,6.4-10.8,6.3-17c0.1-4.4-0.5-8.7-1.9-12.9c-0.2-0.6-0.4-1.2-0.7-1.7
	c-2.2-0.4-4.5,0-6.5,0.9c-5.3,2.5-10.4,5.4-14.7,9.6c-1.5,1.6-3,3.2-4.3,5l-1,1c-1.8-3.4-4.2-6.3-7.2-8.6c-5.6-4.1-11.3-8.2-17.7-11
	c-4.7-1.9-9.7-3-14.7-3.3c-3.4-0.4-6.5,0.7-9.6,1.8l-2.4,0.8c-9,1.4-16.3,6.1-22.9,12l-1.9,1.6c-0.4-0.5-0.8-1-1.2-1.5
	c-2.4-4.4-5.6-8.2-9.4-11.4c-5.8-5-11.6-9.8-18.3-13.6c-4.4-2.4-9.1-3.9-14-4.6c-7.9-1.3-15.5,0-23,2.1l-1.7,0.6
	c-4.5,2.6-9.4,3.8-14.3,5.2c-1.6,0.5-3.2,1.1-4.7,1.8c-1.1,0.5-2,1.3-3.2,2l-4-2.2c-0.5-0.4-0.9-1-1.1-1.6c-2.8-6.9-5.7-13.8-7.3-21
	c-0.3-1.1-0.4-2.1-0.6-3.2s-0.5-3.6-0.7-5.4c-0.1-0.6-0.2-1.1-0.1-1.7c0.4-2.8,0.5-5.7,0.1-8.5c-0.3-4.6-0.3-9.1,0-13.7
	c0.2-5.9,0.4-11.9,1.1-17.7c1.1-9.7,3.2-19.2,6.2-28.5c1.8-5.4,3.6-10.9,5.8-16.2c2.7-6.2,6.2-12.1,10.5-17.3
	c2.9-3.6,5.8-7.3,9.6-9.9s5.3-3.4,8-5c1.6-1,3.7-0.7,4.9,0.8c4.5,4.2,8.8,8.5,13.4,12.5c6.3,5.5,13.4,10,21.1,13.4
	c7.7,3.5,15.6,6.3,23.8,8.3c5.9,1.5,12.1,1.9,18.2,1.4c4-0.4,8.2-0.4,12.1-2c2-0.8,2.2-1,1.6-3.1c-2.8-10.2-5.8-20.3-8.4-30.5
	c-1.6-6.5-2.5-13.2-3.8-19.7c-0.9-4.5-0.6-9.1-0.4-13.6c0.3-7.3,1.2-14.5,5-21c1.9-3.4,4.5-6.5,6.7-9.7l1.3-1.6l-2.6,0.7l-17.5,6.7
	c-0.9,0.4-1.9,0.7-2.9,0.8c-0.9-0.1-1.8-0.3-2.7-0.5c0.9-2.9,3.7-3.3,5.1-5.2c-1.1-1.5-2.4-1.3-3.8-0.8l-4.5,2
	c-0.9,0.4-1.8,0.9-2.9,0c0.3-0.5,0.6-0.9,1-1.3c1-0.8,2.1-1.4,3.1-2.1s3.4-2.3,4.3-4.6s2.4-3,3.8-4.6l-1.9-0.4c-3-0.1-6-0.7-8.7-2
	c-2.9-1.5-3.4-3.5-1.7-6.3s3.3-3.1,5.4-4.2l2.3-1.2l-2.5-1.2c-1.9-1.2-4-2.3-5.8-3.7s-1.9-3.4,0.6-4.8c2.6-1.4,5.5-1.8,8.4-1.2
	c0.8,0.2,1.5,0.2,2.3,0l-1.1-1.1c-7.3-6-14.6-11.9-21.8-18c-0.8-0.6-2-1.2-1.4-2.5c0.7-1.1,2.1-1.6,3.3-1.1c1.7,0.5,3.3,1.2,4.9,1.9
	l12,4.6h0.7l-1.3-2c-0.9-1.6-0.7-2.9,0.8-3.9c1.4-1,3.2-1.4,4.9-1.2l5.1,0.7c-1.9-2.7-5.1-3.7-6.3-6.6c0.9-1.9,3-2.9,5-2.5
	c2.3,0.3,4.6,1,6.8,1.5c1.1,0.4,2.2,0.5,3.3,0.4l-1.4-1.4c-3.1-2.6-6.2-5.2-9.2-7.9c-0.7-0.6-1.3-1.2-1.8-2
	c-0.7-1.1-0.3-1.9,0.9-2.2c1.1-0.2,2.2,0.1,3,0.8l12.2,9.4l1.1,1c1.3-0.5,1.3-1.3,0.9-2.4c-1.4-3.7-2.6-7.5-3.6-11.3
	c-1-4.5-1.8-9-2.4-13.6c-0.7-6.3-0.5-12.6,0.3-18.8c1.3-9.4,3.9-18.3,8.9-26.4c0.9-1.5,1.9-3.1,3.9-3.5l2,1.2
	c-0.8,2.4-0.1,4.7,0.6,6.9c1.4,4.3,3,8.4,4.4,12.6s2.6,7.9,4.2,11.7c2.9,6.7,6.4,13,10.6,19l5.2,6.9l1.8,1.9c0.7-1,0.3-2,0.2-2.9
	c-0.3-4.1-0.8-8.2-1-12.3s-0.3-8.1-0.4-12.1c0.1-0.9,0.2-1.8,0.3-2.7c0.1-1.1,1-2,2.1-2.1c1.2-0.2,1.7,0.7,2,1.5
	c1.6,3.2,3,6.5,4.5,9.7c1.4,3.3,3,6.5,4.8,9.6c0.1-0.5,0.2-0.9,0.3-1.4c0-3.5-0.1-6.9-0.1-10.4c0-1.1,0.1-2.3,0.4-3.4
	c0.2-1,0.7-1.9,1.4-2.6c2.8-2.4,4.9-2.1,5.7,1.2s1.8,7.2,2.5,10.9c1.5,7.9,2.8,15.9,4.2,23.8c0.3,1.4,0.9,2.7,1.3,4h0.5
	c0.3-0.9,0.5-1.8,0.7-2.7l1.2-5.6c0.2-0.6,0.5-1.2,1-1.7c0.8-0.7,1.8-1.1,2.8-1.3c1.2,0,1.3,1.4,1.4,2.3c0.4,2,0.6,4.1,0.6,6.2
	c0.2,3.2,0.2,6.4,0.4,9.6c0,1,0.2,2,0.6,3c0.2-0.4,0.4-0.8,0.4-1.2c2.1-11.5,4.4-22.9,8-34c0.7-2.1,1.4-4.2,2-6.4
	c0.5-2.2,2.2-3.8,4.4-4.2c0.9,0.6,1.4,1.7,1.2,2.8c0.3,3.4,0.4,6.8,0.6,10.1s0.5,7.9,0.7,11.8h0.6c0.6-1.9,1-3.9,1.6-5.8
	c1.4-4.3,2.7-8.5,4.3-12.7c0.7-2.2,2.4-4,4.5-5c2-0.9,3.2-0.4,3.8,1.7c0.6,2.1,1.1,4.4,1.2,6.6c0.1,3.8-0.2,7.7-0.3,11.6v6.3
	l1.6-2.2c2-3.3,3.8-6.6,5.8-9.9s2.5-3.9,5.2-4.3c1.7,1.1,1.2,2.8,1,4.4l-1.2,8.8c-0.1,0.6,0.1,1.2,0.5,1.6l1.5-2.4
	c1-1.6,1.8-3.4,2.9-4.9c0.7-1.1,1.6-2,2.7-2.7c1.3-0.9,2-0.5,2.3,1c0.2,0.9,0.3,1.8,0.2,2.7c-0.1,2.4-0.1,4.8-0.4,7.2
	c-0.1,1.1-0.5,2.3-1,3.3c-0.7,1.4-1.8,1.4-2.6,0c-0.5-1-0.8-2.1-1.1-3.2c-1,1.5-1.8,2.8-2.7,4s-2.1,2.1-3.7,1.6s-2.7-1.5-2.9-3.6
	V130h-0.5l-2.9,4.6l-2.7,3.9c-0.8,1.3-2.3,1.8-3.7,1.3c-2-0.6-2.9-1.5-2.9-3.5c0.1-4.6,0.2-9.2,0.5-13.8c0.1-2.9-0.1-5.9-0.5-8.8
	c-1.4,2.3-2.5,4.9-3.1,7.6c-1.4,4.9-2.7,9.7-4,14.6c-0.2,0.6-0.5,1.2-0.8,1.8c-0.6,1.1-1,2.5-2.6,2.2s-3.4-0.9-3.8-2.7
	s-0.9-4.1-1.2-6.1s-0.5-5.8-0.7-8.6c0-0.3-0.2-0.5-0.4-1.1c-0.6,1.9-1.1,3.4-1.5,5c-2.5,9.2-4.3,18.5-5.9,27.9
	c-0.3,1.5-0.8,3-1.3,4.5c-0.5,1.2-0.9,2.6-2.5,2.7c-1.9-0.1-3.5-1.3-4.2-3c-0.5-2.2-0.8-4.4-1.1-6.6c-0.1-0.9-0.1-1.7-0.1-2.6
	c-0.4-0.1-0.6-0.2-0.7-0.1s-1.3,1.6-2.5,1.1s-3.1-1.1-3.8-2.9c-2.2-4.8-3.6-9.9-4.4-15.1c-1.1-6.8-2.3-13.5-3.4-20.3
	c0-0.3-0.2-0.6-0.6-1s-0.2,1-0.2,1.5c0.3,4.3,0.6,8.7,0.8,13.1c0.1,1,0.1,1.9,0,2.9c-0.2,2-1.2,2.6-3.1,2c-1.3-0.4-2.4-1.4-3-2.7
	c-1.4-2.6-2.7-5.2-3.9-7.8c-1.9-4.1-3.6-8.3-5.4-12.5l-0.8-1.4c-0.1,0.4-0.2,0.8-0.3,1.2c0,5.1,0,10.1,0.2,15.2
	c0.1,2.9,0.5,5.9,0.6,8.8c0.1,1.8,0.7,3.4,1.8,4.8c3.1,3.9,6.6,7.5,10.3,10.8l1.4-1.4c1.6-1.6,2.6-1.5,3.5,0.6
	c0.4,0.8,0.7,1.7,0.8,2.6l1.2,9.3c0,0.2-0.1,0.5-0.2,0.7c-2,0.1-2.9-0.3-3.2-2s-0.4-2.5-0.6-3.8s-2,0-2.4,1.2l-1.5,4.7l-0.9,2.3
	c-0.4,0.8-0.9,1.4-1.9,1.3c-0.9,0-1.8-0.6-2.1-1.5c-0.4-1.2-0.7-2.4-0.9-3.6c-0.4,0.7-0.7,1.5-1,2.3c-0.6,1.7-1.1,3.5-1.7,5.2
	s-2.2,3.1-4.6,1.2l-1-0.9l-1.1,3.1c-0.4,1.5-0.8,3-1.4,4.5c-0.5,1.4-1.3,1.7-2.7,1.1s-2.3-1-2.7-2.4l-1.1-1.7
	c-1.8,2-2.1,4.8-4.4,6.1c-0.2,0.1-0.6-0.1-1.1-0.1l1.1-2.5c-0.3-0.3-0.5-0.8-0.9-1c-5-3.7-9.4-8.2-12.9-13.3
	c-0.9-1.5-2.5-2.5-4.3-2.6c-4.3-0.8-8.5-2.2-12.7-3.3l-2.2-0.4c0.6,0.6,0.8,1.1,1.1,1.3l7.2,4.3c0.7,0.4,1.4,0.8,2.2,1.2
	c0.7,0.8,1,2,0.6,3c-0.5,0.9-1.4,0.8-2.2,0.7l-12.8-2.9c-1.9-0.4-3.8-0.7-5.7-0.9c0.4,0.6,0.8,1.2,1.3,1.8l6.6,5.2
	c0.5,0.4,1.2,0.8,1.3,1.3c0.4,0.7,0.4,1.6,0,2.3c-0.2,0.4-1.3,0.6-1.9,0.4c-3.7-1-7.3-2.2-10.9-3.4s-4.9-2-7.3-3l-2.2-0.6
	c0.5,0.6,1,1.2,1.5,1.7c6.9,5.8,13.8,11.8,21.9,16c0.4,0.1,0.8,0.4,1.1,0.7c0.3,0.7,0.5,1.4,0.6,2.2c-0.2,0.9-1.1,1-1.9,0.8
	l-6.3-1.1c-2.8-0.5-5.7-0.9-8.6-1.2c-0.9,0-1.9,0.1-2.8,0.3c0.7,1.2,1.8,2.2,3.1,2.7c3.4,1.8,7.1,2.8,10.9,3.1
	c0.7,0,1.4,0.3,1.9,0.7c0.6,0.8,0.5,1.9-0.3,2.5c-0.3,0.2-0.6,0.4-1,0.4c-2.2,0.3-4.5,0.4-6.7,0.9c-2.4,0.4-4.6,1.5-6.3,3.1
	c-0.6,0.6-1.1,1.2-1.5,1.9c1.6,1.7,3.5,2,5.3,2.3c1.9,0.3,3.8,0.4,5.7,0.5l10.6,0.4c1.1,0.1,2,0.2,2.1,1.6s-0.5,1.7-2,1.9l-4.6,0.7
	c-3.2,0.6-5.4,2.7-7.9,4.4c-0.2,0.1-0.2,0.5-0.4,1.2l3-0.9l16.6-5.8c0.7-0.3,1.4-0.4,2.1-0.5c0.6,0,1.5,0.3,1.6,0.6
	c0.1,0.6-0.1,1.3-0.6,1.7c-0.4,0.5-0.8,0.8-1.4,1c-3.9,1.4-6.7,4.4-10.1,6.6l7.9-2.7c0.6-0.3,1.2-0.6,1.9-0.7
	c1.8-0.4,3.3-1.5,4.4-2.9c1-1.2,2.1-2.3,3.3-3.4c0.7-0.6,1.5-1.2,2.3-1.7c2,2.7,1.4,6.4,4.1,8.7c0.6-2.2,1-4.2,1.7-6.1
	c1.2-2.9,2-5.9,2.6-8.9c0.1-0.5,0.2-1.2,0.5-1.4c0.8-0.7,1.7-1.2,2.7-1.5c1.1-0.1,1.2,1.2,1.4,2c0.5,2.1,1.1,4.1,1.9,6
	c0.3-1.2,0.6-2.4,1-3.7s0.8-3,2.3-3.9s3.4-0.9,4.2,1.5s0.8,2.7,1.2,4c0.2,0.5,0.4,1.1,0.6,1.7c0.4-0.5,0.8-1,1.1-1.6l3-6.2
	c0.8-1.6,1.6-3.1,3.3-3.9s2.6-0.6,3.3,1.2c0.5,1.2,0.9,2.5,1.1,3.8c0.5,2.5,2.2,4.2,3.6,6.1s1.3,0.8,2.1-0.3s2.8-4.1,4.3-6.1
	c0.9-1.4,2-2.7,3.2-3.8c2.1-1.8,3.6-1.2,4,1.5c0.2,1.9,0.3,3.8,0.3,5.7c0.1,0.9-0.3,2.1,0.8,2.4c0.9,0.1,1.8-0.2,2.5-0.7
	c2.5-1.9,4.9-4,7.3-5.9c0.8-0.7,1.7-1.4,2.6-1.9c1.9-1,3-0.3,2.9,1.9c-0.1,0.7-0.2,1.3-0.3,2c-0.3,1.1-0.5,2.2-0.8,3.6
	c1-0.4,1.7-1.2,2-2.2c1.4-2.6,2.7-5.2,4.1-7.7c0.5-0.9,1.2-1.6,2.1-2c1.3-0.7,2.2-0.2,2.3,1.4s-0.1,4.1-0.2,6.2
	c-0.1,1.3-0.1,2.6,0.2,3.8c0.4-0.5,0.9-1,1.3-1.6c1.9-2.4,3.6-4.9,5.6-7.3c0.8-0.8,1.7-1.5,2.7-2c1.7-1,2.6-0.5,2.8,1.5
	c0.1,1.6,0.1,3.1,0,4.7v2.1c0.5-0.3,1-0.7,1.4-1.2c1.3-1.7,2.3-3.5,3.7-5c0.8-1,1.9-1.8,3.1-2.4c0.7-0.5,1.7-0.3,2.2,0.4
	c0.2,0.3,0.3,0.6,0.3,0.9c0,1.1,0,2.1-0.2,3.2l-0.6,2.9c0,0.4,0,0.8,0.1,1.2l1.7-1.5c1.6-1.1,3.2-2.4,4.8-3.4
	c0.7-0.5,1.6-0.4,2.1,0.3c0.2,0.2,0.3,0.5,0.3,0.8c0.2,1.1,0.1,2.1-0.1,3.2c-0.3,1.3-0.6,2.6-1.1,3.9c0.6,0,1.3-0.1,1.9-0.3l3.2-1.4
	c2.4-1,3.4-0.3,3.3,2.3c-0.1,1.3-0.3,2.6-0.6,3.9l-0.6,2.7c1.7,0.3,3.4,0.1,5-0.6c1.2-0.6,2.5-0.7,3.7-1.2s2.5-1,3.7-1.5l6.2-3.1
	c0.7-0.4,1.6-0.8,2.2,0.2c0.5,0.8,0.5,1.8-0.1,2.5c-0.3,0.4-0.6,0.8-1,1.1c-3.8,2.5-5,6.9-7.7,10.1l0.2,0.5l2-0.4l6.1-1.9
	c1-0.2,2-0.3,3-0.3c1.1-0.2,2.1,0.6,2.3,1.7c0.1,0.4,0,0.9-0.3,1.3c-0.7,1.6-1.6,3.1-2.5,5l1.6-0.6l3.5-1.1l2.3-1l3.9-2.6
	c0.3-0.1,0.6-0.3,0.8-0.5c1.5-3.4,4.6-5.1,7.1-7.5c0.4-0.3,0.8-0.7,1.1-1.1l-3.7-1.2c-2.5-1-2.9-2-1.4-4.1c1.4-2.1,2.9-4,4.5-5.9
	l4.5-5.6c0.3-0.5,0.6-1,0.9-1.6l-2.4,0.2l-7.4,0.6c-1,0.1-2-0.1-2.9-0.5c-2.3-0.8-2.9-2.3-1.4-4.2s4.1-4.5,6.2-6.7
	c1-0.9,1.9-1.9,2.6-3l-1.8,0.6c-2.7,1.2-5.5,2.2-8.4,3.1c-1.5,0.5-3.1,0.6-4.6,0.4c-1.8-0.3-2.2-1.5-1.4-3.1c0.5-1,1.1-1.9,1.8-2.7
	l10.2-11.1c0.8-0.8,1.7-1.6,2.6-2.3l-0.3-0.5l-1.5,0.4c-0.9,0.2-1.7,0.5-2.5,0.9c-2,0.8-4.3,1.3-5.8,2.7s-2.2,3.6-3.3,5.5
	s-3.7,5.8-5.6,8.7c-0.9,1.4-2.6,1.9-4.1,1.3c-2.7-0.7-4.4,0.6-4.3,3.3c0.2,1.7,0.5,3.3,0.9,4.9c0.2,0.9,0.5,1.7-0.4,2.4
	c-2.7-0.2-3.4-0.7-3.9-3.1s-0.3-2.3-0.5-3.4l-2.9-1.6c0-1.6,1.1-2,2-2.6s1.6-1.4,1-3l-2,2.6c-1,1.2-2.1,2.3-3.9,2.3
	s-3.9-1.2-3.9-3.7s-0.1-6.3-0.1-9.4v-2.7c-1.3,0.5-1.6,1.6-2.1,2.3c-0.5,1.1-1.7,1.7-2.9,1.4c-1.3-0.3-2.3-0.9-2.5-2.3l-0.6-3.9
	l-1.2,0.7c-2.5,1.8-5,0.9-5.5-2s-0.5-4.8-0.7-7.2c-0.1-0.4-0.2-0.8-0.2-1.2c-2.5,2.2-3.1,5.2-5.1,7.8c-0.2-0.7-0.6-1.2-0.4-1.5
	c1.6-3.2,3.2-6.3,5-9.4c0.4-0.6,1.1-0.9,1.8-0.9c0.5,0.1,1,1,1.2,1.6s0.4,2.1,0.7,3.6c0.9-0.6,1.8-1.3,2.7-2c2.8-2.8,5.4-5.8,7.7-9
	c5.4-7.4,8.6-15.6,11.1-24.2c3.2-10.8,4.4-22.1,3.7-33.3c-0.1-2.2-0.3-4.4-0.4-6.7c0.1-0.8,0.2-1.5,0.5-2.2
	c0.7,3.9,1.4,7.8,2.2,11.8c1.8-0.7,3.5-1.1,4.8-2.4c-1.7-3.2-3.7-6.3-6-9.1C277.3,74.5,276.9,74.4,276.5,74.4z M153.5,167.1
	c1.3,1.9,3,3.4,5,4.5c1.2-2.1,2.1-4.4,2.5-6.8C158.4,166.4,156.2,167.7,153.5,167.1c2.2-0.7,4.3-1.8,6.3-3.1c4.3-3.2,8.8-6.1,13.3-9
	c2.4-1.5,4.9-2.8,5.4-6c0.1-0.4,0.5-0.7,0.7-1.1s-0.4-0.6-0.6-0.7c-4.8-4-9.1-8.4-12.9-13.3c-0.9-1.1-1.4-1.2-3-0.4l-16.3,8.3
	l-6.7,3.6c0.4,1,0.6,2,1,2.8c2.1,4.7,4.7,9.1,7.8,13.2C150,163.4,151.8,165.2,153.5,167.1z M211.7,375.2c1.5,1.8,2.6,3.1,3.6,4.5
	s3,4.6,4.7,6.7s2.8,2.7,5.3,0.6l0.5-0.5c3.7-2.7,5.8-2.2,8,1.8c1.2,2.2,2.2,4.6,3.5,6.8c2.6,4.3,5.3,8.6,10.3,10.7
	c0.6,0.2,0.8,1.5,1.1,2.3c0,0.5,0,1-0.2,1.5c2.6,0.8,5,1.7,7.5,2.3c4.1,1,8.3,2.2,12.5,2.8c5.3,0.7,10.7,0.4,16-0.6
	c8.4-1.6,15.9-4.9,22.1-10.9c1.7-1.7,3.3-3.3,3.8-5.7c0.2-0.8,0.5-1.5,1-2.2c2.7-4.9,4.6-10.3,5.6-15.8c1.2-7,0.1-13.8-1.6-20.6
	c-1.1-4.5-2.7-9-4.1-13.4c-1-2.8-1.9-5.7-3.1-8.4c-3.7-7.8-7.6-15.6-11.4-23.3c-2.8-5.6-3.7-11.6-3.8-17.8c0.1-3.2,0.4-6.4,0.9-9.6
	c0.6-4.8,1-9.7,1.9-14.4c1.7-8.4,2.6-16.9,2.7-25.5c0-5-0.3-9.9-0.7-14.9c-0.3-2-1-3.9-2.2-5.6l-4.1,2.8c-1.4,0.9-2.7,0.1-3.9-0.6
	s-0.9-1.8-0.7-2.8c0.1-0.4,0-0.8-0.1-1.2l-2.5,0.8c-1.2,0.2-3.4-0.6-3.8-1.4s0.2-2.1,0.8-3l1.4-2.2l1.8-2.7l-1.9,0.4l-4.4,1.7
	c-2.6,1.1-5.2,1-7.8,0.9c-0.8,0-1.6-0.6-2.8-1.1l2.2-3c0.5-0.7,1.4-1.7,1.2-2.2s0.3-2,0.8-2.9l1.6-2.1c-0.8-0.1-1.5,0-2.2,0.4
	c-1.6,0.6-3,1.4-4.6,1.9s-5.1,0.2-6.7-2.5h-2.3c-0.2,2-1.9,1.9-3.3,2.1s-0.3,1.6-0.5,2.5l4.6-0.4c1.8-0.3,2.8,0.5,3.5,2.4l-2.9,0.7
	c-4.5,0.9-9,1.5-13.3,2.7s-6.9,2-9.1,5.2c-0.1,0.2-0.7,0.2-1.1,0.3c-0.4,0-0.8,0.1-1.1,0.3l-2.6,2.1c-0.6,2.5-0.6,2.5-3.1,2.8
	c-0.8,2-1.3,2-2.5,0.5l-1.1-1.5c-7.8,2-15,0.7-21.5-4.6l-1.5,2c2.1,0.8,4.1,1.3,4.6,3.9c-0.8,0.3-1.6,0.5-2.5,0.6
	c-1.6-0.1-3.2-0.4-4.7-0.7c-2.8-0.7-3.2-1.7-2.2-4.4l-0.2-0.6h-3.7c-2.5-0.3-3.1-1.2-2.5-3.7c0.1-0.2,0-0.3,0-0.6l-2.4-0.2
	c-2.1-0.4-2.5-1.2-1.9-3.3c0.1-0.3,0.1-0.6,0.1-0.9c-1.7-0.1-3.5,0.4-4.7-1.3c0.5-1,1-2,1.6-3.4c-1.7,0.3-2.9,0.9-4,0.7
	c-3.3-0.6-6.4,0.1-9.6,0.7c-0.1,0.1-0.3-0.1-1-0.3c2.2-0.6,4.5-1.1,6.8-1.5c1.7-0.1,3.3-1.2,3.8-2.9c0.3-0.7,0.4-1.7,1.8-1.6
	c-0.2,1.2-0.4,2.2-0.7,3.6l4.2-1.9c1.8-0.8,2.5-0.4,3.1,1.4c0.2,0.3,0.4,0.6,0.5,0.9c5.8,0.3,9.5,4.1,12.8,8.5l0.2,0.2
	c3.4,3.3,7,6.2,11.8,7.3c4.9,1.1,10,0.3,14.3-2.2c0.3-0.8,0.5-2.2,1-2.4s2.7-2.7,4.4-3.3c0.2-2.2,0.2-2.2,2.5-3.2
	c-0.2-1,0.2-2,1.1-2.4c1.1-0.9,2.1-0.2,3.3,0.4c-0.2-1.1-0.3-1.8-0.4-2.8l-2.1,0.6c-3.3,1.4-6.5,2.9-9.9,4.1
	c-2.2,0.9-4.5,1.4-6.9,1.5c-2-0.2-3.9-0.8-5.6-1.8c-2.9-1.5-5.6-3.1-8.3-4.9c-3-1.9-5.9-4-8.9-5.8s-5.3-2.2-8.2-0.5
	c-0.8,0.4-2.5,0.4-2.8-0.1s-3-1.8-4.6-2.4c-1-0.3-1.8-1.2-2.1-2.2c-0.2-0.4-0.4-0.8-0.7-1.2c-0.3,0.6-0.6,1.2-1,1.7
	c-1.3,2.5-2.5,5-4,7.4s-2.1,2.1-4.3,1.2s-2.1-2.2-3-3.8c-0.5,2-0.8,3.6-1.2,5.2s-2.2,3.3-4.6,2c-0.8-0.5-1.5-1.3-1.9-2.2
	c-0.5-1-0.9-2-1.2-3c-0.2,0.3-0.5,0.5-0.5,0.7c-0.8,3.7-1.7,7.4-2.5,11.1c-0.3,1.7-0.9,2.2-2.5,1.7c-0.9-0.3-1.7-0.9-2.3-1.7
	c-1.6-2.2-3.1-4.5-4.7-6.9c-2.7,0.7-4.9,2.5-6.2,5c-1.5,2.6-2.8,5.2-4.2,7.8l-1.6-0.5l-0.7,1.2c-3.5,6.3-4.6,13.3-5.1,20.4
	c-0.4,6.5,0.1,12.9,1.3,19.3c2.1,11.4,5.4,22.6,8.8,33.7c2.6,8.6,4.4,17.5,5.3,26.4c0.9,8.2,0,16.5-2.5,24.3
	c-2.6,8.4-5.1,16.9-6.9,25.5c-1.3,6.1-1.2,12.5,0.5,18.6c3,9.9,9.5,16.4,19.3,19.7c6.6,2.2,13.3,2.4,20.1,2.4
	c1.7-0.1,3.5-0.2,5.2-0.5c1.4-0.2,2.6-1,3.4-2.1c1.5-1.9,3.1-3.7,4.8-5.3c2.7-2.5,5-5.6,6.6-8.9c1-2.2,2.2-4.3,3.7-6.2
	c2-2.5,3.4-2.4,5.4,0.2c0.6-0.7,1.2-1.3,1.7-2c2.5-3.1,3.8-6.8,5.3-10.4C210.3,377.4,210.9,376.6,211.7,375.2z M398.9,307.9
	l-0.5-0.4l-2.6,1.7c-6.2,5.5-13.5,8.9-20.9,12.1c-5.3,2.4-10.8,4.6-16.4,6.4c-10.4,3.5-20.8,6.8-31.3,10.1l-3.1,0.7
	c0.3,0.8,0.5,1.7,0.6,2.6c0.3,1.7,0.7,3.4,0.9,5.1s0.5,5.1,1,7.6c1.1,5.9,0.6,11.8,0.5,17.7c0,1.5-0.2,3-0.4,4.5
	c-1.5,8.2-4.2,16-9.2,23c-0.6,0.8-1,1.7-1.3,2.6c-1.8,5.3-4,10.5-6.7,15.4l-5.7,11.1c1.2,0.1,2,0.4,2.9,0.4c9.7-0.3,19.5,0.1,29,2.4
	c0.9,0.3,1.8,0,2.3-0.8c7.4-8.2,14.1-17,20.1-26.3c3.6-5.6,7-11.2,10.4-16.9c2.3-3.8,4.6-7.6,6.6-11.6c3.9-7.9,7.2-15.9,10.4-24.1
	s7.5-18.8,9.9-28.7c0.1-0.6,0.2-1.1,0.3-1.7c0-1.4,0.2-2.8,0.5-4.1c0.5-1.8,1.3-3.5,1.9-5.3C398.5,310.3,398.7,309.1,398.9,307.9
	L398.9,307.9z M309.4,308.9l12.3,26.8l1.7-0.6c5.2-1.4,10.4-2.8,15.5-4.4c6.6-2,13.2-4.2,19.8-6.3c9.1-2.9,18-6.4,26.7-10.5
	c1.6-0.7,3.3-1.1,4-3c0.1-0.3,0.6-0.5,1-0.7l8.3-5.8l3.4-2c0.8,1.8-0.4,2.9-0.8,4.1c-2.7,6.8-3.7,13.9-5.5,20.8
	c-1.1,4.2-2,8.5-3.3,12.7s-3.5,9.2-5.1,13.9c-3.3,9.6-7.4,19-12.3,27.9c-4.1,7.3-8.4,14.5-12.9,21.6c-5.8,9.5-12.5,18.5-19.8,26.9
	c-0.5,0.6-1,1.3-1.4,2c4.9,1.4,9.3,3.3,12.5,7.8l3.4-6.5c0.9-1.7,1.8-3.4,2.8-5s3.7-5.4,5.3-8.3c3-5.3,5.9-10.7,8.6-16.1
	s6.2-13.7,9.3-20.6s5.4-12.4,8-18.6c1.5-3.7,2.8-7.6,4.3-11.3s4.3-9.7,6.2-14.6c3.1-8,6.2-16,9.1-24c1.7-4.7,3.5-9.4,3.5-14.4
	c0-0.4,0.1-0.8,0.4-1.1c0.7-0.7,1.5-1.4,2.3-2c0.8,0.8,1.5,1.6,2.1,2.5c1,1.4,1.7,3,2.6,4.5c3.4,5.9,5.8,12.2,7.2,18.9
	c1.3,5.8,2.2,11.6,3.1,17.5c1.3,8.4,2.6,16.8,2.6,25.3c0,2.4,0.2,4.9,0.4,7.4c0.3,4.1,1,8.2,1.1,12.3c0.2,7.7,0.1,15.5,0,23.3
	c0.1,1.6,0,3.3-0.4,4.9c-1,2.8,0.6,4.2,2.5,5.8c0.2-0.3,0.3-0.6,0.4-1c1.1-6.5,2.2-13,3.1-19.5s1.5-12.7,2.1-19.1
	c0.3-3.1,0.5-6.3,0.7-9.4s0.8-9,0.9-13.5s-0.3-8.4-0.4-12.6c-0.2-6-0.9-12-2-17.9c-0.9-4.9-1.8-9.7-2.8-14.6
	c-0.6-2.8-1.3-5.6-2.3-8.3c-1.9-5.4-4.1-10.6-6-16c-1.8-5.4-4.6-10.4-8.1-14.9c-0.7-1-1.5-1.9-2.6-2.5c-2.7,2.5-5.2,4.9-7.9,7.1
	c-5.3,4.5-11.4,7.8-17.5,11.1c-10,5.3-20.1,10.3-30.8,14c-9.1,3.2-18.4,4.5-27.7,5.9c-2.7,0.4-5.5,0.7-8.2,0.7
	c-3.7,0.2-7.3,0.1-11,0L309.4,308.9z M55.9,312.6c0.2,1,0.2,1.5,0.3,1.9c1.5,4.1,2.9,8.3,4.5,12.4s3.2,7.7,4.8,11.6
	c3.5,8.9,6.9,17.9,10.5,26.7c2.4,6,5.2,11.9,7.8,17.9c1.7,3.8,3,7.7,4.9,11.4c5.6,10.6,12.3,20.6,20,29.7c1.3,1.6,2.5,3.3,0.9,5.5
	l1.8,2.3l4.4-2.4c6.7-3.8,14.7-4.7,22.1-2.7l2.9,0.7c4.5,0.7,8.8,2,13,3.7c1.8,0.8,3.7,1.3,6,2.2c-3.3-4.1-6.2-7.6-9.2-11.1
	s-7.4-8.5-10-13.5c-0.3-0.5-0.7-0.9-1.2-1.2c-5.6-4.7-8.2-11.1-10-17.9c-1.1-3.9-0.8-8-0.8-12c0.1-0.7,0-1.5-0.3-2.2
	c-1.3-3.2-2.1-6.6-2.6-10c-1.1-7.4-2.3-14.8-2.2-22.4c0-2.4,0-4.9-0.1-7.4s-0.3-1.8-1.8-2l-5.2-0.5l-12.2-2c-3.6-0.5-7.1-1.1-10.6-2
	c-5.2-1.5-10.3-3.3-15.3-5.1c-7.5-2.7-14.7-5.9-21.1-10.8L55.9,312.6z M40.1,281.4L39,282c-3.8,2.8-7.1,6.3-9.8,10.2
	c-4.4,5.9-8,12.3-10.8,19.1c-2.3,5.8-3.8,11.7-5.6,17.7c-3.5,12-4.8,24.3-6,36.7c-0.3,3.2-0.4,6.4-0.7,9.6
	c-0.8,5.2-0.9,10.5-0.5,15.8c0.3,2,0.4,3.9,0.7,5.9c0.5,3.8,0.9,7.5,1.7,11.2c1,4.5,2.6,8.9,4.7,13.1c0.2,0.5,0.4,1,0.7,1.5l0.6,1.5
	c-0.5-3.2-1.3-6.3-1.8-9.5s-0.2-4.1-0.4-6.1s-0.8-6.7-1-10.1c-0.3-8.1,0.6-16.2,1.4-24.2s1.6-13.3,2.7-19.8c0.8-5.6,2-11.2,3.6-16.7
	c2.1-6.9,4.6-13.7,7.4-20.4c2-4.8,4.3-9.5,6.9-14c0.8-1.3,1.8-2.4,3-3.2c1.7-1.3,2.5-0.9,2.9,1.3s0.7,4.5,1.3,6.8
	c2.1,7.9,4.2,15.7,6.4,23.6c1.1,4.1,2,8.2,3.4,12.1c2.5,6.9,5.2,13.8,7.9,20.6c4.4,10.4,9.7,20.3,15.8,29.7
	c4.7,7.3,9.7,14.6,13.6,22.4c3.8,7.7,9,14.7,15.3,20.6l1.7,1.4l3.7-4.2c-5.7-9.1-11.3-17.8-16.6-26.7c-3.9-6.4-7.6-12.8-10.9-19.5
	s-5.3-12-7.9-18s-4.3-9.3-6.2-14.1s-3.3-8.9-4.7-13.5c-1.8-6.3-3.4-12.6-5.2-18.8c-1-3.9-2.1-7.7-3.2-11.5c-0.4-1-0.1-2.1,0.7-2.8
	c4.6,2.3,8.8,5.1,13.5,6.7c8.3,3,16.9,5.5,25.5,7.9s16.2,2.9,24.3,4.2l9,1.3c1.2,0.2,2.1,1.2,2.1,2.4c0,1.1-0.9,2-2,2
	c0,0-0.1,0-0.1,0l-1.1,0.3c0,2.2-0.3,4.4,0.1,6.4c1.2,8.4,2.6,16.8,3.9,25.1l0.6,1.9c0,0.1,0.2,0.1,0.2,0.1h0.3l0.3-0.9
	c1.8-6.3,3.7-12.5,5.3-18.8c1.1-4.1,2.1-8.2,2.8-12.3s0.4-10.7-0.2-16.1c-0.2-2.1-0.7-4.1-1.1-6.3c-1.1,0.5-2.3,1-3.5,1.4
	c-3.9,0.8-7.9,1.7-11.9,2.3c-6.2,1-12.5,1-18.7-0.2c-7.2-1.4-14.2-3.5-21-6.3c-9.3-3.5-17.9-8.6-25.6-14.9
	C50.9,291.3,45.6,286.3,40.1,281.4z M36.4,305.5h-0.6c-0.6,1.1-1.3,2.2-1.9,3.4c-3.1,6.4-6,12.8-8.6,19.5
	c-2.8,6.7-4.8,13.7-6.2,20.8c-1.4,7.9-2.8,15.8-3.8,23.8c-1,6.7-1.6,13.4-1.9,20.2c-0.3,9.2-0.5,18.4,1.4,27.6l0.7,3
	c5.8-4.5,12.2-6.2,18.7-7.8c1.6-0.5,3.2-0.9,4.8-1.2c1.4-0.4,2.9-0.6,4.4-0.6c6,0.2,12,0.6,18,1c1.5,0,3,0.2,4.4,0.5
	c5.4,1.3,10.6,3.4,15.4,6.1l5.3,3c-0.3-1.3-0.8-2.5-1.5-3.6c-3.8-6.4-7.3-13-11.4-19.2c-9-13.6-16.3-28.2-21.8-43.5
	c-1.7-4.8-2.8-9.8-5.6-14.2c-0.9-1.5-1.6-3.1-2.1-4.7c-2-6.3-3.9-12.6-5.6-19c-0.7-3-1.1-6-1.4-9C36.8,309.5,36.6,307.5,36.4,305.5z
	 M415.7,301.7h-0.4c0,0.7-0.1,1.4-0.1,2.1c-0.1,1.5-0.3,2.9-0.6,4.4c-1.6,5.5-3.3,11.1-5.1,16.5s-4.2,12.7-6.5,19
	s-4.4,11.5-6.6,17.3c-1.3,3.5-2.4,7-3.9,10.5c-3,7.1-6,14.2-9.2,21.3s-6.5,13.9-9.8,20.8c-0.2,0.4-0.2,0.8-0.5,1.6l1.5-0.6
	c2.2-1.3,4.6-2.3,7.1-2.9l11.5-3c0.8-0.2,1.7-0.4,2.6-0.4c6.1,0,12.2,0.3,18.3,1c5.1,0.5,10,1.9,14.7,4l5.3,2.7v-2.8
	c-0.2-6.1-0.3-12.1-0.6-18.1c-0.1-3.5-0.2-6.9-0.5-10.4c-0.7-8.9-1.5-17.9-2.3-26.8c-0.2-2.2-0.4-4.4-0.7-6.6
	c-1-6.4-2.2-12.7-3.2-19c-1.3-8.1-3.3-16-7-23.3C418.4,306.5,417,304.1,415.7,301.7L415.7,301.7z M214.4,452.4h0.6
	c1.1-3.6,1.5-7.3,1.4-11.1c-0.1-4.5-0.9-8.9-2.2-13.2c-2-5.5-3.9-11.2-8.5-15.5c0.6,0,1.2,0.2,1.7,0.6c1.5,1.4,2.8,3,3.9,4.7
	c3,4.7,5,9.9,6.1,15.3c2.1,9.1,1.1,18.7-3.1,27.1c-0.6,1-1.1,2-1.5,3.1c-4.3,11.9-12.8,18.9-24.8,22l-5,1.3c0.6,0.6,1.4,1,2.3,1
	c6.2,0.5,12.2,0.3,18-2.2c8.2-3.3,15.5-8.6,21.3-15.3c1.5-1.7,2.7-3.6,3.7-5.6c1.2-2.4,2.2-5,3.2-7.5c1.9-4.9,3.4-10,4.6-15.1
	c0.9-4.4,2-8.7,3.4-12.9c1.8-5.3,2.8-10.7,1.9-16.3c-0.6-3.1-0.9-6.4-3.1-9c-3.2-3.9-5.7-8.3-7.6-13c-0.4-0.8-0.9-1.5-1.4-2.2
	c-2.6,1.2-2.8,1.5-2.4,3.2c1.7,6.3,3.3,12.6,4.9,18.9c0.2,0.9,0.2,1.8,0.2,2.7h-0.5c-2.6-7-3.7-14.5-5.9-21.5c-1.5-0.2-3-0.6-4.4-1
	c-1.9-0.9-3.3-2.4-4.2-4.3c-1.1-1.8-2-3.7-3-5.5l-2-2.9c-0.8,2.2-1.4,4-2.1,5.7c-1.5,3.8-3.7,7.2-6.5,10.2c-1,1.2-2.4,1-3.2-0.4
	c-0.3-0.4-0.5-0.9-0.7-1.4c-1.9,3.4-3.2,6.7-5.2,9.6c-2.1,2.8-4.4,5.5-6.9,8l1.4,1.5l1.1,0.9c1.4,1.1,2.9,2.1,4.3,3.4
	c2.3,2,4.3,4.3,6.2,6.7c2.8,3.9,6.2,7.4,9.3,11.1c0.2,0.3,0.3,0.6,0.4,0.9c1.1,3.8,2.3,7.7,3.3,11.6
	C213.9,448.2,214.1,450.3,214.4,452.4z M281.7,167.6c0.5-0.6,1-1.3,1.4-2c1.9-3.6,4-7,5.6-10.7c2.2-5.2,3.7-10.6,4.7-16.2
	c0.2-1.1-0.4-1.6-1.3-2c-3.5-1.5-6.9-3.2-10.4-4.6c-3-1.2-6.2-2-9.5-2.4c-2.8,6.7-6.6,12.9-11.3,18.4c3.4,3.6,6.4,7.1,9.8,10.2
	S277.8,164.4,281.7,167.6z M139.6,144.2l23.6-13.4l-2.1-2.8c-1.5-2-3.1-4-4.5-6.1s-3.2-5.4-4.8-8.1l-1.1-1.2l-8.2,2.2l-8.3,1.9
	C133.3,122.3,136.7,139,139.6,144.2z M144.3,411.2l-0.4,0.4c1.3,1.6,2.5,3.2,3.9,4.7c3.3,3.6,6.6,7.2,10,10.7s6.8,6.9,10.4,10.1
	s10.1,6.3,13.7,11.1l7.8-7.1l-1-0.7c-3.2-2.2-6-4.9-8.4-7.9l-7.5-8.8c-1.3-1.6-2.8-3-3.6-4.7s-1.8-2.2-3.6-2.2
	c-5.1,0.1-10.2-0.9-15-2.8C148.5,413.2,146.4,412.1,144.3,411.2z M311.5,405.4l-0.3-0.3c-0.3,0.1-0.5,0.1-0.7,0.3
	c-5.7,5.6-12.8,9.6-20.5,11.5c-1.7,0.3-3.1,1.4-3.8,3c-0.3,0.9-0.9,1.6-1.5,2.3c-3.2,4.8-6.5,9.5-9.7,14l4.5,9.1l2.1-2
	c2-2.1,3.8-4.4,6.1-6.1c2.9-2.1,5.9-4,9-5.7c1.3-0.6,2.4-1.7,3.1-3c2.7-5,5.5-10,8.1-15C309.2,410.8,310.3,408.1,311.5,405.4
	L311.5,405.4z M293.8,134.9c0.1-1.3,0.3-2.2,0.3-3c0.1-4.7,0.2-9.5,0-14.2c-0.2-3.4-0.6-6.7-1.2-10c-0.3-1.7-0.5-1.9-2.3-1.6
	l-10.3,1.4c-2.2,0.3-2.3,0.3-2.6,2.5c-0.9,5.4-2.2,10.8-4.1,16c-0.2,0.8-0.4,1.5-0.5,2.3C280.3,129.5,287.3,131.7,293.8,134.9z
	 M284.2,418.6c-0.7-0.1-1.5-0.1-2.2,0l-2.2,0.3c-8.4,0.8-16.6-0.6-24.6-3.2l-8.1-2.4c0.9,5.5,1.7,10.5,2.5,15.9
	c9-1.3,16.8,2.3,24.4,6.6C278,430.4,280.5,424.3,284.2,418.6L284.2,418.6z M203.9,433.7l-0.4-1.2c-0.3-0.5-0.6-1-0.9-1.5
	c-4.1-5.8-9.2-10.6-14.5-15.2c-0.9-0.6-2-0.8-3-0.5c-4.5,1.3-9.2,1.9-13.9,1.9l-1.9,0.3c0.5,0.6,1.1,1.2,1.7,1.8l10.2,9.7
	c3.3,3.3,6.9,6.2,10.7,8.8c0.8,0.5,1.5,0.9,2.4,0.2C197.2,436,200.4,434.5,203.9,433.7L203.9,433.7z M253.1,202.1l-0.9-3.5l-2.2,1.7
	c-1.2,1.2-3,1.3-4.3,0.3c-0.9-0.6-1.8-1.3-2.6-2.1c-0.8,1.1-1.6,2.1-2.3,3.2c-0.8,1.4-2.4,2-3.9,1.4c-2-0.6-2.8-1.5-2.9-3.5v-3.4
	h-0.5L232,198l-4,5c-0.8,1-2.2,1.3-3.4,0.8c-1.5-0.3-2.6-1.6-2.7-3.1c-0.1-0.6-0.2-1.1-0.4-2l-1.4,1.8c-0.3,0.5-0.7,1-1.2,1.5
	c-1.5,1.8-2.6,2.1-4.6,1.4c-1.7-0.4-2.8-2.1-2.5-3.8c0-0.4-0.1-0.9-0.2-1.7c-3.2,2.2-5.8,4.8-9.6,5.4c0.2,0.4,0.2,0.6,0.4,0.8
	c4.8,2.9,9.4,6.2,14.6,8.2c2.6,1.1,5.6,1.1,8.2,0c2.9-1.2,5.7-2.6,8.6-3.9s6.1-2.4,9.5-2.2c0.8,0.1,1.5,0,2.2-0.4
	c1.4-0.8,2.6-0.7,4.1,1.1C248.6,203.1,251.3,203.2,253.1,202.1L253.1,202.1z M149.8,110.6c-0.2-0.7-0.5-1.3-0.8-1.9
	c-1-2.5-2.5-4.9-3-7.5s-2.3-4.8-5.1-5.9s-2.9-1.4-4.5-2.2c-1.8,7.5-2.9,14.6-2.4,22.3C139.4,114.3,144.7,112.7,149.8,110.6z
	 M278.6,87.4v19l13.2-2.6c-1.5-6.6-3.4-12.8-7.4-18.3L278.6,87.4z M142.5,78.2c-2.7,4.2-4.7,8.9-5.7,13.8l7.7,3.3
	C143.8,89.3,143.1,83.7,142.5,78.2z M267.6,174.5l0.7,0.2l6.3-9l-7-6.9V174.5z M265.5,156.1l-5.9-6.3l-8,5.9c0.1,0.6-0.1,1.6,1,2.1
	s1.3-1.6,2-2.3c0.7-0.7,1.5-1.3,2.3-1.8c1.5-0.7,2.4-0.3,2.7,1.3c0.2,1.1,0.3,2.1,0.3,3.2l0.3,1.7L265.5,156.1z M176.3,155.9
	c-2.5,0.7-10.4,5.4-12.6,7.4l2.3,4.5l1.1-3c0.4-1.1,0.8-2.2,1.4-3.2c1.7-2.8,3.7-3.1,6.5-1.2C175.4,158.9,175.9,157.5,176.3,155.9
	L176.3,155.9z M191.6,200.4l6.1,0.8v-8.1h-0.6L191.6,200.4z M294.3,223l1.5-2.3l3.6,1.5l0.4-0.5l-1.2-2.9
	C294.7,220.2,293.9,220.9,294.3,223z M181.9,152.7c0.3,1.5-0.2,3,1.2,4.5c0.6-2.2,1.2-4,1.8-6.2L181.9,152.7z M192.7,211.5
	c-0.4,1.1-0.6,1.9-1,3.1l3.8-1.1L192.7,211.5z M197.1,215.5c-0.3,1.4-0.5,2.3-0.7,3.6l3-0.8L197.1,215.5z M261.2,201.5l-0.4-0.5
	l-2.8,1.4l2.5,1.4L261.2,201.5z M278.2,168.7v2.4h0.4l1.6-1.9L278.2,168.7z M123.2,210.9l0.2,0.3l1.3-0.6c-0.4-0.2-0.6-0.2-0.8-0.1
	L123.2,210.9z"/>
<path class="st0" d="M88.2,68.8c-0.6,2.4-1.3,4.7-2,7.1s-1,4.3-1.6,6.5c0,0.4-0.1,0.8-0.3,1.2c-0.5,0.7-1.2,1.2-1.9,1.7
	c-0.9,0.3-2.6-0.9-2.9-1.8c-0.5-1.3-0.8-2.6-1-3.9c-0.8-4.2-1.6-8.4-2.3-12.6c-1-6.4-1.8-12.7-2.8-19.1c-0.5-3.4-1-6.8-1.7-10.2
	c-0.3-1.2-0.7-2.4-1.2-3.6c-0.2-0.8-0.3-1.5-0.3-2.3c1.8-0.3,2.1,0.8,2.3,1.8c0.8,3,1.5,5.9,2.1,8.9l3.9,21.4
	c0.7,3.7,1.6,7.3,2.7,10.9c0.3-0.5,0.5-1,0.6-1.6l3-11.2c0.3-1.2,0.8-2.4,1.5-3.4c0.6-1,1.5-1.7,2.5-2.2c3.6-1.5,4.4-0.2,5,2.3
	s0.5,2.2,0.7,3.4c0.7,5.6,1.3,11.2,1.6,16.9c0.3,7.3,0.7,14.6,1.5,21.9s1.2,16.4,3.2,24.5c0.5,1.7,0.6,3.6,0.1,5.3
	c-0.2,0.5-0.6,1-0.8,1.4c-3.3,0.2-6.3-2.9-6.7-6c-0.5-4.7-1.2-9.4-1.7-14.2s-0.7-8.6-1.1-13c-0.1-2.4-0.3-4.7-0.4-7.1
	s-0.3-7.4-0.5-11.1l-0.9-11.8L88.2,68.8z"/>
<path class="st0" d="M351.1,104.7c-0.1,2.5-0.5,4.9-1.3,7.3c-2.5,9.1-6.3,17.7-10.2,26.3c-0.4,1-0.7,2-1.3,3.5l1.7-1.3l6.5-5.3
	c1.4-0.9,2.9-1.6,4.5-2.1c2.2-0.7,3.2,0.2,3.4,2.5s-0.9,4.2-1.7,6.1c-2.1,4.7-4.2,9.3-6.4,14c-3.4,7.1-7,14.2-10.3,21.4
	s-5.3,12.4-7.9,18.6l-0.3,0.7c-1.7,4.7-2.2,4.4-6.3,2c-1.5-0.8-1.7-1.5-1-3.3c1.8-4.6,3.6-9.2,5.8-13.7
	c5.4-11.4,11.1-22.8,16.6-34.2c0.2-0.5,0.4-1.1,0.6-1.6l-1.5,1l-5.7,5.2c-0.5,0.6-1.2,1-2,1.3c-1.6,0.5-2.9-0.4-4.1-1.4
	s-0.1-2.1,0.3-3c2.2-4.7,4.6-9.3,6.9-14c3.7-7.3,6.9-14.8,9.5-22.5l1.8-5.7C348.9,105.4,349.9,104.5,351.1,104.7
	C351.1,104.7,351.1,104.7,351.1,104.7z"/>
<path class="st0" d="M225.2,30l4-6.8c0.8-1.5,1.7-3,2.6-4.5c0.9-1.5,2.4-2.6,4.2-2.7c1-0.1,1.7,0.3,1.8,1.3c0.2,1.3,0.3,2.6,0.2,3.9
	c-0.8,6.8-1.7,13.5-2.6,20.3c-0.7,5-1.4,9.9-2,14.9c-0.8,5.5-1.3,11.1-1.4,16.7c0,4.9-2.6,4.2-5.2,2.6s-1.6-2.2-1.4-3.7
	c0.3-3.1,0.6-6.2,1-9.3c1-7.6,2.1-15.3,3.3-22.9c0.6-3.3,1-6.6,1.2-9.9l-1,1.2l-3.4,5.1c-0.6,1.1-2,1.4-3.1,0.9
	c-1.2-0.2-2.1-1.3-2.1-2.5c0-3.7,0-7.4,0.2-11.1s0.7-9.7,1.1-14.6c0.1-2.3,0.2-4.6,0.4-6.9c-0.1-1,0.7-1.9,1.7-2
	c0.2,0.5,0.6,1,0.6,1.4l-0.6,13.9c0,0.8-0.1,1.6-0.1,2.4v12.1L225.2,30z"/>
<path class="st1" d="M123.2,210.9l0.7-0.4c0.2-0.1,0.4-0.1,0.8,0.1l-1.3,0.6L123.2,210.9z"/>
<path class="st0" d="M248.2,378.1c-6.4,0.5-11.8-2.5-16.9-6.1c-3.4-2.5-7.2-4.5-11.2-5.7c-3.5-1.1-7.2-1.1-10.7-0.2
	c-6.3,1.6-11.8,4.7-17.5,7.6s-8.9,4.9-13.9,6.1c-5.9,1.5-12-1-15.2-6.1c-2-3.4-3.1-7.3-3.1-11.3c-0.2-5.2,0.8-10.4,2.7-15.3
	c2.4-6.1,2.3-12.3,1.4-18.7c-0.3-2.3-1-4.5-2-6.6c-1.7-3.5-1-7.1-0.3-10.6c0.3-1.5,0.8-2.9,1.5-4.2c1.4-3,2.9-5.9,4.5-8.8
	c1.4-2.6,3.7-4.7,6.4-6c4.5-2.1,8.7-1,11.4,3.3c0.8,1.5,1.8,2.9,2.8,4.3c1.1,1.3,2.2,2.4,3.5,3.5c1,1,2.1,1.7,3.7,0.9
	s1.8,0.3,1.8,1.2s1,2,2.2,2.4c5.8,2.2,12.1,2.7,18.2,1.7c6.9-1.1,13-3.6,18.1-8.3c2.1-2,3.9-4.3,5.8-6.5c3.4-4.1,8-7,13.2-8.2
	c4.7-1.1,8.7,0.3,12.1,3.5s5.4,8.4,6.5,13.4c0.3,1.7,0.5,3.4,0.6,5.1c0,2.5-0.2,5-0.6,7.4c-1.5,8.3-3,16.6-3.9,24.9
	c-0.5,5.2-0.7,10.6,1.1,15.8c0.6,1.5,0.6,3.3-0.1,4.8c-0.1,0.5-0.2,0.9-0.1,1.4c0.7,4.7-1.2,8.2-5,10.8S253.7,378.6,248.2,378.1z
	 M263.9,369.8h0.6c0.3-0.1,0.6-0.3,0.8-0.6c2.1-2.4,2.8-5.8,1.6-8.8c-1.7-4.5-2.6-9.4-2.5-14.2c0-2.3,0.1-4.6,0.5-6.9
	c0.5-4,1.3-8,2.2-11.9c0.8-3.4,2-6.6,3.1-9.9c0.2-0.7,0.6-1.7,0.3-2.2s-0.6-4-0.7-6c-0.1-2.5-0.5-5.1-1.3-7.5
	c-0.1,0.4-0.2,0.7-0.2,1.1c-0.1,2.7,0,5.3-0.2,8c-0.1,2-0.3,4.1-0.7,6.1c-0.5,2.2-1.7,2.6-3.8,1.9c-1.5-0.5-2.6-1.8-2.8-3.4
	c-1-6-4.5-10.6-8.5-14.8c-2.1-2.3-4.9-2.6-8.1-2.7c0.2,0.7,0.4,1.3,0.7,1.9c3.4,5.5,4.4,11.7,4.9,18c0.3,3.8,0.3,7.6,0,11.4
	c-0.3,2.9-0.7,5.7-1.3,8.5c-0.2,0.7-0.4,1.4-0.8,2.1c-0.4,0.9-1.4,1.3-2.3,0.9c-1.8-0.4-2.7-1.3-2.8-3.5c-0.3-4.7-1.2-9.4-2.7-13.9
	c-0.9-2.8-2.1-5.5-3.6-8c-1.9-3.3-5.2-4.6-9.1-5.5c2.1,4.1,3.1,8.8,2.7,13.4c-0.4,7.4-3.1,14.1-6.7,20.6c-0.5,0.9-1.2,1.7-1.9,2.5
	c-2.4,2.5-3.4,2.5-6,0.3c-0.8-0.5-1.2-1.5-1-2.4c0.2-4,0.5-7.9,0.6-11.8c0.3-5-0.1-10-0.9-14.9c-0.2-0.8-0.5-1.6-0.8-2.4l-1.8,1.8
	c-3,3.4-4.9,7.4-6.7,11.5s-3,8.9-2.2,13.7c0.1,1.1,0.1,2.2,0,3.3c-0.1,2.1-1.5,2.9-3.3,1.6c-1.2-0.8-2.2-2-2.8-3.3
	c-2.6-5.7-4.5-11.6-4.4-17.9c0.2-4.8,0.5-9.7,0.8-14.7c-0.6,0.4-1.2,0.9-1.8,1.5c-1.1,1.4-2.2,2.9-3.1,4.4c-3,5.2-4.4,10.9-5.4,16.7
	c-0.1,0.7-0.3,1.3-0.5,2c-2.3-0.3-2.6-0.4-3.2-2.5c-1-3.2-1.7-6.5-2.3-9.8c-1.3-6.9-0.8-14.1,1.4-20.8c0.1-0.4,0.1-0.8,0.2-1.2
	c-4.9,4.2-8.6,9.5-10.8,15.5c-0.4,1.1,0.2,1.7,0.6,2.5c1.6,2.9,3.1,5.9,4.4,8.9c2.7,6.4,2.4,13.7-0.7,19.9l-2.7,4.9
	c2.6-0.8,3.7,0.2,4.3,2.2c0,0.4,0.4,0.7,0.6,1.1l5.1,8.5c1,1.7,2,3.4,3.2,5c1.6,2.2,3.1,2.4,5.2,1.1c-2.9-5.4-3.9-10.2-3.1-15.4
	c0.3-1.4,0.7-2.7,1.3-4c1-2,3.7-2.4,4.7-0.7c2.3,4.1,5.7,7.2,8.8,10.6s3.2,2.8,6.6,1.3h0.2v-6.4c0-2.8,1.3-5.1,2.6-7.3
	s1.2-1.5,2-0.9c0.5,0.4,0.9,1.1,0.9,1.8c-0.5,1.5,0.2,2.6,1,3.7c2.2,3,4.8,5.7,7.8,7.9c2.7,2.1,4.7,1.9,7-0.7
	c0.7-0.7,1.3-1.5,1.8-2.4c1-2,2-3.9,2.9-6s1.1-2,2.6-1.8c0.9,2.3,1.9,4.6,2.6,6.9c1.3,3.6,1.6,7.5,1,11.3c-0.5,2.4-0.4,2.5,1.6,3.6
	c1.4,0.8,3.1,0.9,4.6,0.4c1.9-0.5,3.6-1.9,4.4-3.7c1.9-3.8,4.2-7.5,4.3-12c0-1.5,1.6-2.8,2.6-2.2c1,0.6,3.8,1.6,4.8,3.7
	c0.8,1.7,1.6,3.4,2.2,5.2C263.1,365.8,263.4,367.9,263.9,369.8L263.9,369.8z M217.8,344.8c1.4-0.8,2.5-2.1,3.1-3.6
	c2.8-5,5-10.3,6.4-15.8c1-4.2,0.8-8.6-0.5-12.7c-0.6-2-1-2.1-3.1-1.7l-6.8,1.2c-1.9,0.3-2.7,1.6-2,3.5s0.6,1.9,0.8,2.9
	c1.1,5.2,1.7,10.6,1.6,15.9c0,3,0.1,6,0.2,8.9C217.6,343.9,217.7,344.3,217.8,344.8L217.8,344.8z M195.8,308.5
	c-3.3,6.4-1.3,27,2.8,30.7c0.5-10.2,5.1-18.7,11.9-26.9C205.4,312,200.4,310.8,195.8,308.5L195.8,308.5z M180.3,327.3
	c0.2-0.5,0.4-0.9,0.6-1.4c1.6-6.9,4.4-13.1,9.7-18c0.5-0.6,0.9-1.3,1.3-1.7l-8.4-9.3c-1.6,0.4-2.9,1.6-3.3,3.2
	c-0.7,2.1-1.3,4.3-1.7,6.5c-0.6,4.8-0.6,9.8,0.1,14.6C178.7,323.3,179.3,325.4,180.3,327.3L180.3,327.3z M243,295.9v0.8h3.7
	c3.5-0.2,6.9,1.2,9.4,3.7l3.8,4.2l3.8,4.8c0.2-0.9,0.4-1.5,0.5-2.1c0.3-4.9-0.2-9.8-1.3-14.5c-0.3-1.7-1.6-2.9-3.3-3.2
	c-0.8-0.2-1.6-0.4-2.4-0.4C251.5,289.4,246.9,292.1,243,295.9z M240.8,301.7l-10.7,7.5l0.3,0.3l0.7,0.3c4.2,1.2,7.7,4.2,9.3,8.3
	c1.7,3.6,2.9,7.5,4.4,11.3c0.2,0.6,0.5,1.1,0.8,1.6C247.5,322.7,245.2,305.7,240.8,301.7L240.8,301.7z M181.9,374.6
	c-0.4-0.8-0.5-1.8-1-2.1c-4.7-2.7-7.6-6.9-10.1-11.5c-0.6-1-1-2.2-1.3-3.3l-0.6,0.7c-1.7,4.2-2.1,8.8-1.2,13.3
	c0.5,2.9,2.9,4.6,5.8,4.8S178.9,375.4,181.9,374.6L181.9,374.6z M256.9,358c-2.4,6.2-5.1,11.8-10.5,16.2c3.7,0.4,7.4,0.1,11-0.9
	c1.4-0.2,2.4-1.5,2.3-2.9c0.1-2.3,0.1-4.5-0.2-6.8C259.3,361.5,258.4,359.5,256.9,358L256.9,358z M197.2,366.5
	c-1.8-1.9-3.5-3.8-5.1-5.9c-1.4-2.2-2.6-4.4-3.7-6.7c-2.4,5.7-1.9,13.6,1,16.4L197.2,366.5z M226.3,363.9l8.5,4.9
	c2-4.9,1.1-9.5-0.6-14.3L226.3,363.9z M166.8,315.6c2.5-8.3,7.7-14.7,13.7-20.6c-1.8-1-3.1-1.1-4.6-0.3s-3,1.1-2.9,3.2
	s-0.5,1.2-0.9,1.7c-0.8,1.2-1.6,2.3-2.6,3.3c-3,3.5-3.3,7.8-3.3,12.1C166.2,315.1,166.4,315.2,166.8,315.6L166.8,315.6z M210,352.6
	c-2.9,2.8-3.6,6.2-2,9.4l7.3-1L210,352.6z M167.5,354.8c-2.7,0.6-2.9,0.5-3,1.5c-0.6,3.3-0.5,6.6,0.2,9.9
	C164.9,362.3,165.9,358.4,167.5,354.8z"/>
<path class="st0" d="M253,265.1c-4.1-0.2-7.6-1.9-11.1-3.6c-3.6-1.8-6.5-4.6-8.4-8.2c-3.6-7.6-4.5-15.5,0.5-22.8
	c3.2-4.8,7.5-8.4,13.5-9.7c3.6-1,7.4-1.2,11.1-0.7c4.8,0.9,8.9,3,11.3,7.6c0.3,0.9,0.9,1.8,1.7,2.4c2.5,1.8,3.1,4.3,3.5,7
	c0.4,1.6,0.7,3.2,0.8,4.9c-0.4,5.8-1.9,11.2-6.3,15.5c-2.8,2.7-5.7,5.1-9.5,6L253,265.1z M234.2,247.9c0.1-0.7,0.2-1,0.2-1.2
	c0.4-5.6,2.4-10.3,6.8-13.7c2.2-1.6,4.6-2.9,7.2-3.8c1.4-0.4,2.8-0.7,4.3-0.7c1.5-0.2,3.1-0.1,4.6,0.1c3.6,0.9,6.9,2.9,9.3,5.7
	c2.7,2.9,4.2,6.6,4.3,10.5c0,2,0.1,3.9,0.1,5.9h0.6c1-2.2,1.6-4.5,1.8-6.9c0.1-2.3-0.1-4.6-0.7-6.9c-0.8-2.9-2.2-5.6-4.1-8
	c-2.2-2.6-5-4.6-8.2-5.8c-3.4-1.2-6.7-2.5-10.6-1.5c-3.5,0.7-6.7,2.3-9.4,4.6c-3.7,3-6.2,7.1-7.2,11.8
	C232.5,241.1,232.3,244.5,234.2,247.9L234.2,247.9z M261.9,240.9c0.2-2.5-1.2-4.8-3.4-5.9c-2-1.1-3.4-0.9-5.2,0.8
	c-1.4,1.3-1.8,3.3-0.9,5c0.8,1.6,2.1,2.9,3.8,3.6C258.9,245.6,262.2,244.7,261.9,240.9L261.9,240.9z"/>
<path class="st0" d="M195.1,239.7c-0.4,5.7-2.1,10.7-6.1,14.8c-1.8,2-3.9,3.6-6.3,4.7c-1.4,0.5-2.6,1.5-3.9,2
	c-3.6,1.3-7.2,0.3-10.7-0.4c-8.2-1.7-12.5-7.5-15.3-14.7c-0.8-2-1.1-4.2-1-6.3c0.3-5,2.3-9.8,5.7-13.6c3.1-3.2,7-5.6,11.3-6.7
	c2-0.7,4.2-1,6.3-1c3.8,0.4,7.4,1.7,10.6,3.7c4.1,2.6,7.1,6.7,8.2,11.5C194.5,235.7,194.7,237.7,195.1,239.7z M189.5,249.7
	c0.4-0.5,0.8-1.1,1.2-1.7c1.9-4.1,2.2-8.7,0.9-13c-1.5-6-5.9-10.9-11.8-12.9c-3.7-1.5-7.6-2.1-11.1-0.8c-8.4,2.9-13.2,9.2-14.4,18.1
	c0,0.2,0.2,0.4,0.5,1s0.9-1.6,1.2-2.3c1.5-3.8,4.3-6.9,7.9-8.8c2-1.1,4.3-1.8,6.6-1.8c2.6-0.1,5.3,0.1,7.8,0.8
	c1.3,0.4,2.8,0.4,3.7,1.2c4.7,3.5,7.8,8,7.8,14.1C189.7,245.5,189.6,247.4,189.5,249.7z M178,243.2c3.4,0,4.4-1,4.4-4.4
	c0-0.3,0-0.5-0.1-0.8c-0.6-4.7-4.7-5.8-8.2-4.1c-1.1,0.5-1.9,1.8-2.7,2.9c-0.3,0.6-0.3,1.2-0.1,1.8C172.1,241,175.4,243.2,178,243.2
	z"/>
<path class="st0" d="M202.6,265.3l-1.9,2.1c-3,3.4-4.9,7.4-4.5,12.1s3.9,10.1,9,12.9s8.8,2.5,13.5,1.6c0.9-0.3,1.7-0.6,2.5-1
	c0.5-0.3,1-0.8,1.5-0.8c2.2,0.1,3.1-1.4,3.6-3.1c0.9-2.8,1.6-5.6,2-8.5c0.5-4.4,0.4-8.9-3.1-12.4l-0.9-1.2v-0.2
	c0.1-0.2,0-0.4,0.1-0.5c2-3.4,3.8-3.1,6.3-0.8c2.1,1.9,3.6,4.3,4.4,7c0.8,2.9,1.1,6,0.8,9c-0.3,2.3-1.3,4.5-2.8,6.3
	c-0.4,0.5-0.8,1-1.2,1.5c-1.6,3.5-4.6,5.6-7.7,7.5c-0.9,0.7-2.1,1-3.2,1.1c-3.5,0.2-7.1,0.1-10.6-0.3c-5.6-0.7-10.6-3.7-13.8-8.3
	c-4.6-6.6-3.8-15.6,1.8-21.4C200.3,265.9,200.5,265.8,202.6,265.3z"/>
<path class="st0" d="M212.1,473.1l9.6-12.6c4.1-5.3,7.4-11.2,9.6-17.5c1.6-4.4,2.1-9.1,1.7-13.7c-0.2-1.7-0.6-3.5-0.8-5.3
	c1.4,1.9,1.5,4.2,1.8,6.5c0.6,6.6-0.7,13.3-3.7,19.2c-4.2,8.9-10.2,16.9-17.6,23.4l-0.4,0.3L212.1,473.1z"/>
<path class="st0" d="M211.5,388.5l1.5,14.6h-0.6C211.4,398.3,211.1,393.4,211.5,388.5z"/>
<path class="st0" d="M213.8,407.6c0,0.7,0.1,1.4,0.2,2.1h-0.2l-0.7-2.1H213.8z"/>
<path class="st0" d="M212.8,406.1V405h0.3v1.1H212.8z"/>
<path class="st1" d="M261.9,240.9c0.3,3.8-3,4.7-5.7,3.5c-1.7-0.7-3-2-3.8-3.6c-0.9-1.7-0.5-3.7,0.9-5c1.8-1.7,3.2-1.9,5.2-0.8
	C260.7,236.1,262.1,238.4,261.9,240.9z"/>
<path class="st1" d="M178,243.2c-2.6,0-5.9-2.2-6.7-4.6c-0.2-0.6-0.2-1.2,0.1-1.8c0.8-1.1,1.6-2.4,2.7-2.9c3.5-1.7,7.6-0.6,8.2,4.1
	c0.1,0.3,0.1,0.5,0.1,0.8C182.4,242.2,181.4,243.2,178,243.2z"/>
</svg>
