<svg id="Layer_1" data-name="Layer 1" xmlns="http://www.w3.org/2000/svg" viewBox="0 0 654.3 208"><path d="M0,93.7c4.3.2,8.7.6,13,.5,6.2-.3,12.3-.9,18.5-1.4-1.1-4.1-2.1-7.7-3.2-11.4-2.2-7.9-.7-15.4,2.1-22.8s5.4-14.5,7.8-21.8c.8-2.4.5-5,.4-7.5-.2-5.4-.6-10.8-1-16.2S36.7,4.7,36.3,0a11.8,11.8,0,0,1,7.1,9c.9,5,.5,10.1.6,15.1.2,8-3.1,15.1-5.2,22.6s-.7,15.6,2.8,23.1,5.5,12.6,8.2,19a34.8,34.8,0,0,1,.6,3.5l35.4-1.6c-4-3.6-4.7-6.2-3.2-9.9.8,2.3,1.6,4.4,2.4,6.5l.9-.3L83.5,75.6h.4c1.1,2.7,2.2,5.4,3.5,8.3L91,79.4l.9.6c-.7,1.3-1.2,3-2.3,3.8s-2.8,4.2-2.2,7.1c3.5.3,3.1-3.9,6-4.7l-2.5,5.2c15.8,1,30.6,6.5,45.8,10.4,6.2,1.6,12.5,2.8,18.8,4.2-.9-4.2-1.6-8.1-2.6-11.9s-.5-5.1,1-7.3c3.6-5.4,2.8-10.6.1-16.1s-4.9-10.3-7-15.6-1.3-13,1.3-19.2c1.5-3.4,3.7-6.5,5.6-9.7.2-.3.5-.4,1.2-1-.7,2.8-1.3,5.1-2,7.3-1.1,4,.2,7.8,1.5,11.5s3.9,9.9,5.9,14.9c2.9,7.1,3.2,14.4-.1,21.5s-1.5,14.1,2.7,20.5a30.1,30.1,0,0,1,1.6,3.1c1.7,4.2,1.9,4.4,6.6,4.4h3.2c-2.4-8-2.7-15.6,1.8-22.9.3,2.1.7,4.1.8,6.2.3,4.3.3,8.6.6,12.9s1.9,4.2,4.5,4.3h13.4c-2.4-3.9-4.5-7.4-6.7-10.8s-3.5-4.2-4.8-6.6a4.6,4.6,0,0,1,1.2-6.1c-.5,4.9,2.5,7.5,6,10.4-.1-5-.7-9.9,5.4-11.9-3.3,7.7-1.9,15,.9,22.7,2.6-2.3,5-4.4,7.3-6.7.3-.3.2-1,.1-1.5a31.9,31.9,0,0,1,.5-16.8,9.1,9.1,0,0,1,1.1-2.2l.7.2V95.7l1.3.4,9-15.9c-.2,11.9-7.2,20.1-15.5,28h8c.6-3,1.2-6.2,4.5-7.9-.2,2.3-.4,4.3-.5,6.3s.8,2.3,2.5,1.8a15.6,15.6,0,0,0,8.2-4.8c1.4-1.7,1.4-2.7-.2-4.2-3.8-3.8-4.5-11.9-1.6-16.3.1-.2.5-.2,1.2-.6-.8,4.8.4,8.9,3.1,13,1.3-5.7,1.8-11.8,9.4-13.7-.3,1.5-.3,2.6-.8,3.2a21.6,21.6,0,0,0-4.1,11.3c-.5,5.7-2.6,10.3-7.7,12.9l38.2,10.6c3.1-4.2,4.4-8.9,5.3-13.7s1.1-9.7-1.6-14.3c2.6,3.3,4.5,6.9,4.2,11s-1.1,9.9-1.8,14.8c-.5,2.8-.2,3.1,2.6,3.3s5.4.8,8.2,1.3l7.8,1.4a46.8,46.8,0,0,1-3.3-4.9c-2.7-5.5-2.8-10.8,1.4-15.7s5.2-8.5,4.2-13.7a67.4,67.4,0,0,0-2.9-9.7c-1.6-5.2-2.3-10.3,1.4-15l.9-1,1.3-.7c-.4,2.3-.6,4.1-1.1,5.9-1.3,5.4-.1,10.5,1.3,15.5s2.5,7.3,3.5,10.9c1.6,6.4,0,12.5-2.8,18.2-1.2,2.6-2,5.2-.9,7.9.4,1,1.5,2.2,2.4,2.2,3.9.1,7.9-.3,11.9-.3s8,.2,11.7,2.2l18.9,10.1a28.3,28.3,0,0,0,4.4,1.3c.3-1.9.6-3.5.9-5.3-4.8-.5-8.8-2-11.4-7.2,4.3,2.3,7.2,5.7,11.8,5.6l2.7-5.8c-2.6-2.5-5.4-5-4.3-9.5a38.5,38.5,0,0,0,2.4,5,24.4,24.4,0,0,0,2.7,2.9c1.2-1.6,2.5-3.1,1.8-5.3l-3.1-8.5c-3.1-.7-6.7.5-9.4-3.1l8.5,1.9c-1.1-3.5-2-6.5-3-9.4-.2-.5-1.1-.8-1.7-1.1s-3.9-2.2-5.7-3.6-1-2.1-1.5-3.1l.6-.4,8.1,6c.4-3.1.7-5.7,1.1-8.5-4.3-1.6-6-3.8-5.5-7.3l5.6,6.2c2.4-3.7,4.8-7.1,7.1-10.6l.9.5c-.7,2.6-1.6,5.3-2.2,8s-.6,5.4-.9,8.3c4.1.2,4.1-4.3,7.3-5.5a9.2,9.2,0,0,1-6.7,6.9c.7,1.5,1.1,2.9,1.8,4.2s2.8,2.8,4.6.5a34.7,34.7,0,0,1,3.9-4.7c-1.3,3.3-2.4,6.7-6.2,7.7.6,2.6,1.1,5.1,1.7,7.6,3.3-1.1,4.6-3.9,5.6-7.6.4,5.1-.8,6.8-4.9,8.4a2.7,2.7,0,0,0-1,1.3l-1.2,3.8c-.4,1.2-1,2.5-1.7,4.3l8.7-1.9c-.4,1.7-2.3,2.2-4.3,2.3-5.3.2-5.7.5-5.8,5.8v8.7l.8.6c1.3-1.5,2.9-2.9,4.1-4.5s2.2-3.6,3.4-5.5c.8,3.4-2.6,8.2-7.4,10.9.9,2.5.9,2.5,3.6,2.5h8a38.9,38.9,0,0,0,2.3-3.6l.5.2c-.3,1.2-.7,2.4-1.1,4,6.1,0,12.1-.3,18,0,8.6.5,17.2,1.3,25.8,2.2,17.1,1.7,33.5,6.7,50.1,10.6,4.7,1.1,9.3,2.4,14.3,3.7.8-4,2.6-7.4-.6-11.4s-3.6-8.7.3-13.5,3.1-8,.5-12.4a62.2,62.2,0,0,1-3.9-9.6c-.2-.3.3-1,.5-1.5a4.5,4.5,0,0,1,1.3,1,70.6,70.6,0,0,0,4.2,6.4c2.9,3.5,3,7.7,2,11.6a22.8,22.8,0,0,0,.2,12.7,21.9,21.9,0,0,1-2,16.9H484c-1.9-4.5-1.6-8.6,1.6-12.4.5-.6.3-2,0-2.9a22.8,22.8,0,0,0-2-3.8c-3.5-5.9-1.9-11.7,4.8-15l.2.3c-2.6,3.3-2.9,6.4-.4,10.2s1.3,7,.5,10.4c-1.3,4.9.8,8.6,3.4,12.2.5.6,1.8.7,2.7.7h41.6a69.1,69.1,0,0,0-1.8-8c-.3-1.1-1.5-2-2.4-2.9s-4.4-3.3-5-5.4c-1.3-5.1-4.9-5.8-9-6.6a13.5,13.5,0,0,1-9.7-7,10.2,10.2,0,0,1-.5-3.5c4.1,5.4,4.8,6,9,7.3-1.3-4.1-2.6-7.8-3.8-11.6l.6-.2c.9,1.6,1.9,3.1,3.1,5.1.9-2.1,1.6-3.7,2.4-5.3l.8.2a60.3,60.3,0,0,1-1.5,6.1,5.4,5.4,0,0,0,3.9,7.3l1.1.4c-.5-3.4-1.5-6.7.5-9.9.3-.5-.3-1.9-.8-2.6-2.3-3.2-2.4-3.2,1-5.8-2,2.3-.5,3.5.9,5.1s1.2,2.9,1.8,4.7c2.8-2.4,1.4-5.8,1.8-8.7h.9c.2,2.7.2,5.4.6,8.1a31.6,31.6,0,0,0,1.7,5.2c.2.7.5,1.4.7,2.2a4,4,0,0,0-1.5-.3c-2.1.2-2.8-.7-2.6-2.7a8.1,8.1,0,0,0,.1-1.6c-3.3,1.8-3.4,3.7-2.2,7.1a40.7,40.7,0,0,0,3.5,6.5,48.9,48.9,0,0,0,3.6,4.2c.2-3.7.5-6.5.7-9.3-3.5-.9-3.7-1.7-1.6-4,.1-.1.2-.4.3-.4,4.2-2.3,3.3-5.8,2.3-9.4a3.2,3.2,0,0,1,.5-2.4c1,2.2,2,4.4,2.9,6.6h.9l2.6-6.6h.5c0,1.1.3,2.4-.1,3.4-1.1,3.3-2.7,6.4-5.8,8.4a3.1,3.1,0,0,0-1,2.3c.1,3,.5,6.1.8,9.3,1-3.9,6.1-6.3,3.4-11.5h.7l1.7,2.2c3.2-4,4.6-8.4,3.5-13.5a9.9,9.9,0,0,1,1.6,8.5c-1.3,3.8-3.5,7.4-5.4,11s-3.3,5.1-4.6,7.8c-.4.8.3,2.2.5,3l2.3-3.5,1.5,1.1a28.2,28.2,0,0,1-.7,3.1c-.3.8-.9,1.4-1.2,2.1-1.3,3-.4,4.6,2.8,4.4l23.2-1.6h6.3c-1.9-3.4-4-6.5-5.2-10s-2.9-6.9.7-10.2c-.1,7.7,6,14.7,11,20.1a58.3,58.3,0,0,1-.4-6.8,89.3,89.3,0,0,1,.8-10.3c.3-1.7.4-3-1.4-3.8a18.8,18.8,0,0,1-1.8-1.2c-4.2-2.6-4.6-5.3-1.5-9.1l.5-.9c-6.5-2.7-11.8-6.4-13.4-13.7a4.6,4.6,0,0,1,.7-3.1c1.4,5.2,5,8.2,8.9,10.5-1-3.3-2.5-6.8-3.1-10.5s-.1-7.6,3.8-10.8c-1.5,6.6-.6,12.2,3.2,17.2a9.5,9.5,0,0,0,2.1,2.4c3.6,2.7,3.8,7.3.6,10.9s-2.2,2.8.7,4.6,5.1,5.6,3.8,10c-.5,1.6-.1,3.4-.1,5.6l5.6-3.6c.1-4.8-1.6-9.9,2.9-13.7-.7,3.5-1.4,7,.5,10.6,3.1-1.7,3.8-5,5-7.8.2-.4-.6-1.3-1.2-1.8a38.8,38.8,0,0,1-12.8-23.3c-.2-1.3.5-2.8,1.2-4.1,1,9.3,6.6,15.7,12.6,22.4V114c0-.3-.3-.6-.6-.8-5.9-5.7-5.3-13-4.9-20.3a16,16,0,0,1,1.3-5.1c.8,7.8.9,15.7,5.8,22.3,4.4-3.1,5.3-5.9,3.6-10.6-.7-2.1-1.3-4.4-1.9-6.6l.8-.3c1.8,3.2,4.1,6.3,5.3,9.7s-1.2,6.9-3.3,9.8a9.2,9.2,0,0,0-1.7,8c1.2,7.2,0,13.7-5.3,19.2-1,1.1-2.5,2.6-2.4,3.7s1.5,4.9,2.4,7.3c.1.3.7.5,1.1.5,3.9-.3,6.9-5.5,5.3-9.3-.7-1.6.7-5.1,2.8-6.9s3.4-2.4,5-3.8,4.9-5.4,4-9.6a9.5,9.5,0,0,1,2.4-8.5c-4.3-3.4-7.8-7.2-6.8-13.2a11.2,11.2,0,0,1,2-4.3c-1.9,7.2,3.8,10.6,7.6,15.5.6-2.4,1.5-4.7,1.6-7s-.5-5-.7-7.5a5.1,5.1,0,0,1,.8-2.9c.4-.5,2.1-.9,2.3-.6a5.1,5.1,0,0,1,1,2.9c.1,3.8.5,7.7-.1,11.5s-1.8,4.5-3.2,6.5-3,3.4-2.6,5.9c1,7.1-2.6,11.9-8,15.7a35.6,35.6,0,0,0-3.4,2.9,18.8,18.8,0,0,0,13.3-2.9c.6-.4.7-1.7.8-2.6a33.9,33.9,0,0,1,3.2-12.1h1l-1,11.8.8.4c1.4-1.5,2.8-2.9,4.1-4.5a2.6,2.6,0,0,0,.2-2.1,39.7,39.7,0,0,1-.6-21.6,5.1,5.1,0,0,1,1.5-2.2c-1.9,7.4,1,14.2,2.5,21.8,5.4-5.8,6.4-12.6,7.7-19.6a13.7,13.7,0,0,1,.7,2.9c.7,14.3-6.5,23.9-18.2,30.9-4.9,2.9-10,4.9-15.5,4.3-1,2.6-1.9,5-2.7,7.4,2.7-.3,5.6-.7,8.6-.8,4.5-.3,9-.4,13.6-.6s9.9-.5,14.9-.5,7.7.2,11.6.5c.6.1,1.1.9,1.7,1.3l-.5.9c-3.7-.2-7.3-.6-11-.5-8.5.2-16.9.5-25.4,1-5.8.4-11.6,1.1-17.4,1.6-2.8.2-3.3,2.3-3.7,4.2-.8,3.6-1,7.3-1.9,10.9a12.1,12.1,0,0,1-2.7,4.8,10.6,10.6,0,0,0-2.4,8.8c4.8-1.4,9.6-2.8,14.4-3.9,6.6-1.5,13.4,1.7,15.5,7.6,1.3,3.9-.1,6.1-4.1,6.3-7,.3-14,1.1-21,1.1s-12.8-.6-19.1-1.2c-1.2-.2-2.3-1.6-3.3-2.7s.4-1.7.9-1.9,1.6.2,2.8.3l9.7-4.9c-1.4-5.4,1.6-9.7,4.8-13.5-2.5-1.7-5.6-3-7-5.3s-5.6-4.8-8.2-7.3a2.5,2.5,0,0,0-1.2-.4l-18.3,1c-4.3.2-8.8.1-12.9,1.2-2.3.7-4.4.3-6.5.3H443.2c-6.3,0-12.7-.7-19-.4-9.9.6-19.9,1.7-29.8,2.6a110.4,110.4,0,0,0-13.6,2.3l13.7,3.7,22.3,6c8,2.1,16,4,24,6.2s16.3,4.9,24.5,6.8,19.1,4,28.7,5.5,16.9,2.1,25.4,2.7,18.9.8,28.3,1.8,18.9,2.8,27.7,6.6c3.1,1.3,6.5,2,9.6,3.2,1.4.5,2.4,1.7,3.6,2.6h-5.4c-3.5-1.1-7-2.1-10.3-3.5-11.8-5.1-24.3-6.1-36.9-6.8l-13.3-.6-7-.6c-5.5-.6-10.9-1.4-16.4-2.1s-13.4-1.2-20.1-2.3-15.8-3-23.6-4.9c-17.1-4.1-34.3-8.1-51-13.9-10.7-3.7-21.5-7.4-32.4-10.7-5.5-1.6-11.3-2.3-16.9-3.3-1.8,4.6-4.1,5.1-7.6,2.3a5,5,0,0,0-3.2-.9c-4.2-.1-8.4-.2-11.6-3.7a4.3,4.3,0,0,0-2-.7c-4.8-.4-9.5-.9-14.3-1-7.9-.2-15.9-.1-23.9-.1-.7,0-1.9.4-1.9.7-.1,2.3-1.7,2-3.2,2s-4.7.5-6.5-1.8c-.3-.5-1.5-.4-2.3-.3l-19,.5c-4.6.1-9.2.1-13.8.6-7,.7-14,1.8-21,2.7s-13.5,1.5-20.3,2.1c-3.5.4-7,.5-10.6.8,8.4,1.7,16.6,3.8,24.9,5.2,17.6,3,33.8,10.2,50.7,15.4,6.3,1.9,12.3,4.7,18.4,7.3,10.1,4.3,20.3,8.7,30.3,13.2,2.2,1,3.9,2.9,5.9,4.4H301.9l-.8-.5c-9-4.8-18.2-9.2-26.9-14.5A163,163,0,0,0,247,179.7c-14.1-5.3-28.8-7.9-43.5-11a286.1,286.1,0,0,0-47.1-5.9c-3.4-.2-6.9-.9-10.3-1.4l-17-2.4c-4.6-.6-9.4-.7-13.8-2-11.6-3.3-23.2-7-34.7-10.8s-22.6-8.3-33-14.6l-7.1-4.1-9.1,9.8c.1.5.1,1.4.3,2.2a120.9,120.9,0,0,0,13.5,34.3C52.8,186.3,61.9,197.5,74,206c.6.4.8,1.3,1.2,2h-6a71.4,71.4,0,0,1-21.9-22.2c-10.4-16-19.5-32.5-19.3-53.3-1.5,3.4-3,6.1-4,9-3.6,9.8-2.7,19.5.4,29.2s9.2,18.8,16.4,26.5c3.7,4,8,7.3,12.1,10.8H49.1c-4.2-4.1-8.7-7.9-12.5-12.3-9.2-10.3-15.4-21.9-16.6-36.1a46,46,0,0,1,3.9-23.2c2-4.4,4.4-8.7,6.6-13,.6-1.2.9-2-.5-3.1-6.8-5.3-13.5-10.5-21-14.6-2.9-1.5-6-2.6-9-3.9v-1.6a7.1,7.1,0,0,1,2.1.3c6.9,3.4,14,6.6,20.7,10.4,3.7,2.1,6.9,5.3,10.2,7.8,1.9-1.2,3.4-2.3,4.9-3.4,3.7-2.6,4.6-5.4,2.4-9.2s-5.2-8.3-7.8-12.3c-3.4.5-6.7,1.4-9.9,1.4-6.7.1-13.4-.3-20-.4a11.9,11.9,0,0,0-2.6.5Zm165.6,55.5c-1.9,0-3.8.1-5.7,0-5-.4-6.4-1.3-6.1-4.8.3-5.9,1-11.8,4.5-16.9a12,12,0,0,0,1.9-2.9,17.2,17.2,0,0,0-1.6-13.5,5.3,5.3,0,0,0-3.1-2.1c-2.4-.8-4.9-1-7.3-1.7s-7.3-2.8-11.1-3.8c-12.4-3.2-24.9-6.4-37.5-9.4-4.1-1-8.5-1.1-12.7-1.7l-1.3,4.9.5.4c1.6-1.4,3.3-2.7,5.3-4.3-.3,3.3-2.6,4.5-4.8,5s-2.3,1-2.4,2.3a52,52,0,0,0-.2,6.8c0,.6.8,1.5,1.2,1.5a3.6,3.6,0,0,0,1.8-1.2,34.9,34.9,0,0,0,1.5-3.4l1,.4a21.7,21.7,0,0,1-.7,3.5,29.9,29.9,0,0,1-2,4l-1.2-1.1,1.6,3.5,6.4-3,.5,1-6.7,4.1v4.6h8a3.8,3.8,0,0,1-2.3,1.1c-1.4.1-2.9-.1-4.3.1a3.1,3.1,0,0,0-2.1,1.3c-.4.9-.6,2.4-.1,3a4.2,4.2,0,0,0,3,.7c1,0,1.9-.7,2.9-1.1-.7,1.4-1.7,2.7-2.9,2.9s-3.3-.6-5-1a12.6,12.6,0,0,0-.7,2.5c-.1,1.3,0,2.6,0,3.9a31.1,31.1,0,0,0,4.4-.6,24.2,24.2,0,0,0,4-1.9c-2.5,2.6-5.1,4.6-9,3.6.5,2.4,1,4.5,1.5,6.6l4.4,1.9c5.4,1.9,10.9,3.6,16.1,5.8a69.5,69.5,0,0,0,21.5,5l11,1.3c6.4.8,12.7,1.9,19.1,2.5s10,.3,14.9.6,8.7.7,13,1a39,39,0,0,0,8.3.5c9.6-.9,19.1-2,28.6-3.2,5.9-.7,11.8-1.8,17.8-2.6s11.7-1.2,17.6-1.7c2-.2,4,0,6.7,0l-3.2-1.1,6.8-6.1c2.8-2.4,2.1-4.4-.6-6.7a15.2,15.2,0,0,1-5.6-8.2c-.7-2.9-.5-6.1-.6-9.2-2.8-.9-5.9-1.5-8.8-2.8a99.3,99.3,0,0,0-24.1-7.6c-2.5-.5-5.3-1.5-7.6-.8-5.3,1.5-10.1,4.2-12.1,10.1a12.8,12.8,0,0,1-2.1,4c-2.5,3.4-4,8.1-8.9,7.9l-3.7,13a2.7,2.7,0,0,1-3.6,2c-2.2-.8-.7-2.1-.3-3.3,1.3-3.4,1.1-5.9-.6-7.1-4.1-3-5.1-6.1-4.1-11.2.5-2.7,1.6-6.4.3-8a33.8,33.8,0,0,0-10.4-8.3c-2-1.1-5.1-.2-7.5-.2-.3,3.3-.2,6.4-1,9.2s-2.4,5.4-3.6,8.2a4.8,4.8,0,0,0-.6,2.6,77.9,77.9,0,0,0,.9,9.6C163.5,142.9,164.7,146.1,165.6,149.2Zm-84.3-8.3-.9-7.5c-4.2.5-6-2.7-8.2-5.1-.4-.5.2-2,.4-3.1l.8-.3c1.1,1.1,2.3,2.2,3.3,3.4s2,2.5,3.4,4.3l2.1-5.4c-6.1-3-8-6.4-5.5-10,2.1,2.7,4.1,5.4,6.2,8.3,2.8-4.2,2.8-4.6-.5-7.5s-4.6-6.1-3-9.5c1.9,3.1,3.5,6,5.2,8.9l.9-.4-4.1-10.1c-3.9-.4-4.4-.9-2.9-4.5l1.8,3.8.7-.7,1.2-5.7c-3.9.2-4.7-.9-5.6-7.1L50.5,93.8c-.6,4.8-1.4,10.1-1.8,15.3s-2.7,10.3-5.9,14.8Zm381.1,14.4a5.6,5.6,0,0,0-1.7-.6c-18.6-4.3-36.9-9.8-56-12-7.4-.9-14.8-1.8-22.2-2.1s-14.5-.1-21.8-.1c-.5,0-1.2,0-1.4.3-1.6,2-3.1,4.1-4.6,6.2l-.8-1c.2,2.8.5,5.7.9,9.4l11.1-8.3c-.6,6.5-7.7,6.3-11.1,9.9,4.5.9,8.9,1.5,13.2,2.6a34,34,0,0,0,17.9.1c5.1-1.3,10.4-1.7,15.7-2.3s8.2-.8,12.3-1.1,10.9-.9,16.4-1C441.1,155.1,451.9,155.3,462.4,155.3ZM326.9,139.8c10.2,1.1,11,1.1,12.4-.1a38,38,0,0,1-22.1-10.8c-1.6-1.6-3.9-3.3-5.9-3.5-6.1-.4-12.3-.1-19.3-.1,4.1,4.1,6.1,8.3,6.2,13.6s-2.1,9.6-5.4,14.7c9.8,0,18.7-.3,27.6.1s17.8,1.5,26.8,2.3l-2.4-6.3c-5.7,2.5-11.1,2.3-13.2-.5,4.2.6,8.3,1.2,12.2-.2-1.4-2.8-2.8-5.3-4.1-7.8C334.4,142.3,330.4,142.9,326.9,139.8ZM34.2,54.1c-8.3,17.6-6.4,33.2,8.9,52.6,1.3-2.9,2.6-5.6,3.7-8.4s2-4.3,1.7-6.3a22.3,22.3,0,0,0-3.1-8.1c-1.8-3.1-4.4-5.8-6.1-9C36,68.6,35,61.5,34.2,54.1Zm232.9,99.5c4.6,0,8.7-.2,12.8,0a3.4,3.4,0,0,0,3.5-2.1c1.7-3.1,3.5-6.2,5.1-9.4a51.3,51.3,0,0,0,3.3-7.6c1.3-3.6-1.4-9-4.4-9.3l-18.6-1.7c1.9,3.3,4.1,6.5,5.6,10a15.1,15.1,0,0,1,1,7C275.1,146,271.6,149.8,267.1,153.6Zm307.4,35.1.3,1.1c12.7,2.4,25.4,1.5,38.2,0-1.3-7.4-7.5-9.1-14.9-8.4-4.8.5-8.6,3.5-13.4,3.8S577.9,187.5,574.5,188.7ZM149.9,36l-.7-.2a85.2,85.2,0,0,0-2,9.8c-.7,7.3,2.1,13.7,5.7,19.9,2.2,3.9,3.6,8.2,5.3,12,2.1-3.5,4.4-7.6,2.5-12.4a78.5,78.5,0,0,0-3.8-7.7C153.5,50.6,149.4,44.1,149.9,36Zm193.9,90.1c-3.5,7.6-4.1,14.3.6,21a31.3,31.3,0,0,1,3.5,7.1c.7,1.7.5,3.7.9,5.5s1,2,1.5,2.1a3.9,3.9,0,0,0,2.8-1.1,5.4,5.4,0,0,0,.4-6.6,3.6,3.6,0,0,1-.8-1.9c-.2-3.2-2-5.5-4-7.7C343.9,139.5,342.7,133.6,343.8,126.1ZM283,155.7c3.3,1.7,5,1.3,6.6-.9a8.8,8.8,0,0,1,1.2-1.5,18.5,18.5,0,0,0,6.1-10.9c.5-4,0-8-2.8-10.5-1.7,4-3.1,8-4.9,11.9S285.1,151.6,283,155.7Zm-86.8-24.6.7.5a18.5,18.5,0,0,0,2.5-3.2c2.2-4.2,4-8.6,6.2-12.7,1.2-2,3-3.5,4.9-5.7h-9.7a2,2,0,0,0-1.1.6c-1.2,2.4-3,4.7-3.3,7.2C195.8,122.1,196.2,126.6,196.2,131.1Zm67.9-11.7c-2.4,5.1-3.1,10.2,0,15.1a39.6,39.6,0,0,0,4.7,5.3c2,2.2,2.2,4.3.2,6.6s-3.7,4-5.6,6a8.6,8.6,0,0,0,4.1-1.9c2.9-2.4,5.7-5,6.4-8.9.3-2,.7-3.9-.9-5.9C269.1,130.9,264.4,126.4,264.1,119.4Zm-101.7,2.3c.5-1.7,1.1-3.4,1.7-5.1,1.1-3.3,1.4-6.5-.5-9.8a106,106,0,0,1-5.8-11.1,62.3,62.3,0,0,1-2.4-6.5c-.6,2.1-1.4,4.3-1,6.3a64.5,64.5,0,0,0,3.2,10.3C159.4,111,163.1,115.6,162.4,121.7Zm18.1-11.6a16.8,16.8,0,0,0,3,2.2c5.5,2.4,6.1,6.5,5.3,12.3-.6,3.8-.9,8.6,3.4,10.3,1-8.3-2.8-16.8,2.4-24.8ZM285.1,118c.8-1.7,1.5-3.6,2.5-5.4s3.4-5.1,4.6-8,.8-10.4-1.6-13c-.3,5.7-.9,7.9-4.6,12.2S282.5,114.6,285.1,118ZM31.7,132.3c5.2-2.6,15-18.3,14.4-22.8a68,68,0,0,1-5.7,5c-3.5,2.8-7.1,5.4-7.6,10.4C32.6,127.3,32.1,129.7,31.7,132.3Zm128.5-.9c-2.2,5-6.8,9.6-4.4,16.1l7.5.7C162.3,142.5,161.2,136.9,160.2,131.4ZM341.6,88.2a17.5,17.5,0,0,0-.4,13.1c1.5,4.3,3.3,8.6,5,12.9.4.9.6,1.8,1.1,3.2.5-1.3.6-2,1-2.8,1.5-3.4,1.1-6.2-1.2-9.4C343.6,100.2,340.7,94.8,341.6,88.2Zm249.3,76.7,1.5-8.4c.2-1.7-.5-2.6-2.3-2.4l-6.4.8C584.3,159.5,586.8,162.6,590.9,164.9ZM40.5,32.1c1.8-7,2.6-14.1,1.3-21.2-.5-2.8-2.4-5.3-3.6-8C39,12.8,39.7,22.5,40.5,32.1ZM588.9,145l-5.1,3.9c-.5.4-1.2,1.4-1,1.7a2.8,2.8,0,0,0,1.9,1.3c1.9,0,3.9-.4,5.9-.6C590.1,149.3,589.5,147.3,588.9,145ZM77,92.7a39.2,39.2,0,0,0,3.3,5.2c1.1,1.2,2.4,1.2,3.1-.6s1-3,1.5-4.6Zm395.4,55.8c1.1-6.3-5.1-10.8-2.8-16.9-1.3,2.5-2.7,4.9-1.5,7.8S470.8,145.2,472.4,148.5ZM349.8,140c3.2,5.3,4.9,5.3,7.9,0Zm136.9-.9c2.2-4.5-2.2-6-3.4-9l-.8.3Zm-2.1,8.7c-.5,5.4.8,8,3.7,7.8C487.1,152.9,485.8,150.3,484.6,147.8ZM347,159.8a5,5,0,0,1,.2-1.2,29.6,29.6,0,0,0-9.4-1.2v.7Z"/><path d="M539.9,162.7l8.8-1-1.5,2.7c.3,0,.8-.1,1.1.1a19.9,19.9,0,0,1,2.1,2,9.7,9.7,0,0,1-3,1.6,9.5,9.5,0,0,1-3-.4c-.3,1.1-.4,2.6-.7,2.6a7.4,7.4,0,0,1-3.6-.5c-.6-.3-.8-1.5-1.3-2.6s-4.2,2.3-6.3-.4c.4-2.3,2.2-2.4,4-2.3S540.3,165,539.9,162.7Zm-5.6,3.6v.3l7.6-.6-1.2,2.9,1.9.7c-.3-2.6,1-3.5,3.9-2.9l2.5.2a3.4,3.4,0,0,1,.1-1l-4.3-.7,1.7-2.5Z"/><path d="M497.7,171.8c2.9-2.7,13.5-2.6,16.7.1C512.3,174.5,501.7,174.6,497.7,171.8Zm15,.8c-4.3-2-11.1-2-12.9,0Z"/><path d="M510.4,175.7l6.7-.4.3,1c-.8.4-1.6,1.2-2.3,1.1S511.7,178.4,510.4,175.7Z"/><path d="M517.6,172.7c4.4-1.6,6.2-1.3,7.2.8C522.6,173.7,520.4,174.2,517.6,172.7Z"/><path d="M115.5,158.1c.3,3.9-1.7,6.5-4,9.2l8.1,5.4a5.5,5.5,0,0,1,1.7,2.3c.6,1.4.2,2.6-1.6,2.5s-4.6-.7-6.9-.8h-9.5a85.1,85.1,0,0,1,.6,9.6c0,1.3-1,2.5-1.8,3.7s-.8.7-1.9,1.5c-.7-1.9-1.5-3.6-2.1-5.3a40.8,40.8,0,0,1-1.6-6c-.8-4.8-1.3-5.2-5.7-3-2.5,1.3-4.9,3-7.4,4.3a35.7,35.7,0,0,1-4.5,1.9l-.8-1,10.8-12.6c-1.3-2.1-2.6-4.2-4-6.3s-1-3.9,2-3.9a34.2,34.2,0,0,1,8.5,1.2c4,1.3,7.5,1.2,11.2-1.2A11.3,11.3,0,0,1,115.5,158.1Zm-10.2,12.5c-.3-1.5-.9-2.8-.5-3.9s1.5-2.5,2.6-4.1c-3,1.3-5.2,3.2-8.4,1.9s-7.1-2.2-10.6-3.3a12.1,12.1,0,0,0-1.9-.1,7.6,7.6,0,0,0,.8,2.1c1,1.4,2.2,2.8,3.1,4.3a3.4,3.4,0,0,1-.6,5,25,25,0,0,0-2.2,2.8c3.9.1,7.5-2.4,10.4,1.6C97.7,170.8,103,171.9,105.3,170.6Z"/><path d="M216.6,179.8l7.3,4.9c.6.4,1.4.7,1.7,1.3a29.8,29.8,0,0,1,1.1,4c-1.3.2-2.8.9-4,.6-3.6-.9-7.1-2.2-10.7-3.3-2-.6-3.3.2-3.8,2.2a11,11,0,0,1-1.1,3.2c-.8,1.2-2.1,3.1-3,3s-2.4-1.8-3.5-2.9a4.3,4.3,0,0,1-.6-2c-.3-5.1-.3-4.9-5.4-3.8s-8.2,1.1-12.4,1.7l-.5-1.3c2.2-1.3,4.2-2.7,6.4-3.8s3.1-.9,4.5-1.7a3.9,3.9,0,0,0,1.9-2.5c0-.8-.9-1.9-1.6-2.7a9.4,9.4,0,0,1-2.5-2.7,11.7,11.7,0,0,1,3.2-.2,49.6,49.6,0,0,0,19.2-.9c2.2-.6,4.7-.1,7.1.3.8.1,2.2,1.1,2.2,1.8s-1,1.8-1.7,2.4A42,42,0,0,1,216.6,179.8Zm-13.9,11.8c1.3-4.8,3.1-8.9,9.2-8.7-1-4,0-5.3,5.6-8.2-7,2.4-14.3,1.9-21.7,1,2.3,4.6,2.2,4.9-2,8.7a53,53,0,0,1,6.9-.2,2.7,2.7,0,0,1,1.9,1.8A34.7,34.7,0,0,1,202.7,191.6Z"/><path d="M143.2,176.8c1.8-.8,3.6-1.9,5.5-2.1,4.7-.4,9.4-.4,14.1-.4a2.6,2.6,0,0,1,2.8,3c-.2,1.7-.9,3.4-3.3,3.5s-6.9,1-10.4,1-6.1-1.9-8.6-3.9Zm1.6,1.2c1.7.4,3,1.1,4.2,1,3.6-.1,7.1-.6,10.7-.9l2.6-.3C158,175.1,149.1,175.1,144.8,178Z"/><path d="M148.7,182.5a13.7,13.7,0,0,1,3.5,0c.9.3,2.2,1,2.3,1.8s-.7,2-1.5,2.4c-4.4,2-9,1.5-13.5,0-.5-.1-1.1-1.1-1-1.3a3.9,3.9,0,0,1,1.8-1.8c2.7-.6,5.5-1,8.3-1.5Zm-8.5,2.8c3.4,2,6.8-1.1,10.2-.3C147,184.1,143.5,182.9,140.2,185.3Z"/><path d="M134.7,182.1c-1.6-.3-3.2-.5-4.7-.9a1.8,1.8,0,0,1-1.1-1.3,1.8,1.8,0,0,1,1.1-1.3c2.8-.4,5.5-.8,8.2-1,.4,0,1.3,1,1.2,1.4a3.8,3.8,0,0,1-1.3,2.4A11.4,11.4,0,0,1,134.7,182.1Z"/><path d="M329.9,195.1c4.4-5,8-10.5,13-14.3s18.4-6.1,25.6.2c3.3,2.9,6.3,1.9,9.6.4,6-2.8,11.6-.4,13.6,6a4.2,4.2,0,0,0,3.1,3.3c3.4,1.2,5.3,3.8,6.2,7.2s-.2,3.5-2.6,3.5-4.6-.3-6.9-.3a25.9,25.9,0,0,0-4.8.4,37.7,37.7,0,0,1-14.2-.3c-2.4-.5-5.1.2-7.7.3a91.9,91.9,0,0,1-29.9-4.5Zm1.7-1.9a50.3,50.3,0,0,0,4.8,1.5c6.4,1.4,12.8,3.6,19.3,3.9,11.3.5,22.7-.2,34-.4l.8-.2c-5.2-3.1-10.1-6-16.5-5.3-4.3.4-8.4-.7-11.5-4.3-.9-1.1-2.7-1.6-4.2-2.1-4.2-1.3-8.3-.5-12.4.5S336.1,189.4,331.6,193.2Zm54.6-2.7c0-4.1-2.7-6.4-6.3-5.3s-8.3.8-11.7-1.8a20,20,0,0,0-14.3-4.3c-6.5.6-12,2.9-15.9,8.9l2.5-.8c7.5-2.9,14.9-3.9,22.6-.7a17.2,17.2,0,0,0,7,1.7C375.6,188.1,381,188,386.2,190.5Z"/><path d="M299.7,171.2l20.9,3.2a16.7,16.7,0,0,1,5.3,2.4c1.9,1.2,2.8,4.4,2,6.6s-2.6,2.4-4.6,2.3c-6.7-.2-13.4-.3-20.1-.6-5.2-.2-10.5-.5-15.6-1.1a15.1,15.1,0,0,1-5.6-2.3c-1.9-1.1-1.8-2.8-.3-4.5,3-3.4,7.1-4.1,11-5.1C294.7,171.6,296.8,171.6,299.7,171.2Zm-17.5,8c1.7,2.6,4.2,3.3,7,3.4s6.9.7,10.1-.2,9.1-1.1,13.8-.7,6.7.1,10,.1l.2-.8c-.9-.4-1.8-1-2.7-1.3l-19.8-6.2a4.5,4.5,0,0,0-2.3,0c-2,.2-3.9.8-5.9.7A11.9,11.9,0,0,0,282.2,179.2Z"/><path d="M127.1,136.8c1.7-3,.9-4.6-2.1-6s-3.1-3.1-2.7-6-.9-3.7-2.1-5.1-2-5.3.5-8.1c-.3,2.8-1.1,5.4,1.5,7,2.3-3.5,1.5-7.1-.1-10.6,4.9,4.3,2.5,9.8,2.5,15.1,3.4-2.4,3-5.8,3.2-8.9a7.6,7.6,0,0,1,.3,7.6c-.6,1.2-1.3,2.3-2,3.5-1.4,2.7-1.3,3.2,1.8,4.9l-.7-3.8c2.8,1.5,1.8,6,5.8,6-1.4-2.2-3.2-4.5.3-6.4a4.2,4.2,0,0,0-1.2-2.3c-2.3-1.4-2-2.8-.4-4.5s2.3-5.8,1-9.1c2.3,1.6,3,4.5,2.6,8.7l2.6-3.6c.9,1.6.7,2.7-1.7,5.4s-1.8,2-.8,3.9-.7,2.9-1.2,4.5l-.7-.2c.7,1.6,1.4,3.2,2.4,5.8l2.7-7.9c.8,3,.6,5.6-1.1,7.9s-3.8,4.1-3.2,7.3v.3c-.3.9-.8,1.8-1,2.7a4.1,4.1,0,0,0,.2,2.2,9.3,9.3,0,0,0,1.9,2.1l-.5.8c-1-.6-2.2-.9-2.8-1.7a25.9,25.9,0,0,1-3.3-5.5c-1-2.3-1.8-4.4-4.4-5.4-.9-.3-1.7-1.7-2-2.7s-2.3-2.7-4.2-2.3c-4.5,1.1-7.9-1.1-10.8-3.9s-2.8-4.7-4-7.1c-.2-.3.1-.9.2-1.4l4.9,7.8.9-.3c-.5-1.6-.8-3.2-1.4-4.7s-1.7-3.6.2-5.5c1.3,4.3,2.6,8.6,3.8,12.8l.5-.2c-.2-1.4-.4-2.8-.7-4.2h.6l2.3,3.6c.8,1.3,1.6,2.8,3.3,1.4-2.2-3.4-4.6-6.7-6.6-10.2a6.3,6.3,0,0,1,.2-6.6c.7,2.4,1.3,4.7,1.9,6.9h1.4c.3-2.4.7-4.8,1-7.2,2,2.1,1.8,4.9.7,7.2s-.2,5,1,6.6c2.6,3.2,6.6,5.3,8.5,9.3C126.1,136.7,126.6,136.6,127.1,136.8Zm3.3-3.2c-1.8,6-1.2,7.2,1.2,9.4.3-2.6.6-5.3,1-8.1Z"/><path d="M404.3,149.1a14.3,14.3,0,0,0-2.8.7,10,10,0,0,0-2,1.6,14.3,14.3,0,0,0-1.2,2.1,16.2,16.2,0,0,1-1.9-1.8,5.3,5.3,0,0,1-.4-1.8c-2.7-.5-5.5,2.5-8.4-.7,1.1-.4,1.8-1,2.6-1s3.6-.5,2.8-2.8l10.5-.9-1.5,2.1,2.5,1.8Zm-9.9-3c.8,3.9-3.5,1.5-4.3,3.5a1.7,1.7,0,0,0,1,.1c2-.2,3.9-2.1,6-.2a3.1,3.1,0,0,0,1.2-1,9.3,9.3,0,0,0,.4-2.4Z"/><path d="M598,185.4c4.5-3,10.4-2.3,11.7,1C605.6,188.2,601.7,186.9,598,185.4Z"/></svg>