<svg id="Layer_1" data-name="Layer 1" xmlns="http://www.w3.org/2000/svg" viewBox="0 0 377.8 541.7"><defs><style>.cls-1{fill:#fff;}</style></defs><path d="M272.6,394l2.8.6c5,.9,8.7,3.4,10.5,8.3.3,1,.7,2,1,3s.4,1.3.8,1.5c2.6,1.1,1.8,3.1,1.3,4.9s-1,2.5-1.6,3.7c-3.7,6.3-7.4,12.6-12.2,18.1s-7.8,7.5-13.5,8a27.5,27.5,0,0,1-5.7-.5l-3.1-.5c-.7,1.2-.2,1.8.5,2.2s1.9,1.2,2.9,1.9c3.2,2.5,3.1,6.5-.3,8.7a10,10,0,0,0-3.5,3.3,8.1,8.1,0,0,1-2.8,2.3c-2.8,1.6-6,1.9-9.2,2h-3.9a13.5,13.5,0,0,0,1.3,2.1c1,1.7,2.2,3.3,3.2,5.1a4.2,4.2,0,0,1-.1,4.9,1.1,1.1,0,0,0-.3.8c-.7,4.5-3.7,7-7.8,8.2a3.4,3.4,0,0,0-2.2,2,47.5,47.5,0,0,1-10.2,14.2c-1.4,1.3-2.9,2.3-5.3,1.8.1-1.1.1-2.1.2-3.3a4.6,4.6,0,0,0,4.9-2.3c.5-1.1.5-1.3-.4-3.3l-1.9,3h-.4c0-.4-.2-.9,0-1.2a10.9,10.9,0,0,0,1-5.9c0-.8.5-1.6.5-2.5s0-2.3-1.5-2.6a21.8,21.8,0,0,1-9.9-4.5c-.5.6-1,.9-1.2,1.4-1.7,2.8-4.2,3.6-7.2,3.2a20.9,20.9,0,0,1-9.5-4.2,64.9,64.9,0,0,0-6.2-3.9,16.7,16.7,0,0,0-2.3,1.2,6.7,6.7,0,0,1-6.8,1l-6.2-2.3-4.2-1.8a22.8,22.8,0,0,1-8.1-6.7c-1.5-2-3.2-3.8-4.7-5.8a8.5,8.5,0,0,1-1.7-6c.1-1.3,0-2.7,0-4a9.7,9.7,0,0,1,1.6-6,5.9,5.9,0,0,0,.6-1.6l-5-2.4a19.9,19.9,0,0,1-7.3-7.1,55.8,55.8,0,0,0-3.9-5.6,3.3,3.3,0,0,1-.2-4.3l2.2-3.8-1.3-1.8a10.1,10.1,0,0,1-2.6-6.6,49,49,0,0,1-.4-5.4,10.5,10.5,0,0,1,3.4-7.6,19.5,19.5,0,0,1,3-2.2l-1-2.2c-1.9-4-.9-7.8,1.8-10.9s2.4-3.4,2-5.9,0-4.4,2.2-5.8a4.5,4.5,0,0,1,3.7-1.2,6.4,6.4,0,0,0,2,.1c-.9-2.2-1.5-4.1-2.4-5.8-1.9-3.4-1.5-6.9-.4-10.4s2.4-7,3.7-10.7c-1.5.1-2.1,1.2-2.9,1.8a74.5,74.5,0,0,1-20.9,13.6c-4.5,2-9.2,3.5-14.2,3.3a12.1,12.1,0,0,1-7.4-2.6c-4.6-3.4-4.3-9-3.1-13s3.7-6.8,6.2-9.8l1.1-1.5-2.9-.6A50.3,50.3,0,0,1,94,331.1a28,28,0,0,1-9.8-6.5c-2.3-2.3-2.4-5.6-.7-9.1s4-4.9,6.5-6.8c4-2.9,8.7-4.4,13.3-5.9,8.8-2.8,17.9-3.4,27-3.5,4.1,0,8.1-.1,12.1.8.3.1.7-.1,1.3-.2a13,13,0,0,0-.3-2.2c-3-10.9-2.2-21.7-.1-32.5a151,151,0,0,1,6.1-23.1c1.3-3.7,3-7.4,4.6-11s2.7-5.5,4.1-8.2a71.4,71.4,0,0,1,10.3-14.2,2.8,2.8,0,0,0,.5-.8c-2-1.5-5.1-1.7-6.2-4.2a27,27,0,0,1-2.6-7.2c-.5-2.8,1.7-4.7,3.1-6.7-.9-2.9-1.6-5.7-2.5-8.4a18.3,18.3,0,0,1,1-13.4c1.1-2.5,2.4-5,3.7-7.5,2.2-4.3,9.3-6.3,13.5-3.3a34.5,34.5,0,0,1,3.2,2,28.4,28.4,0,0,1,2.4,2.9l2.1-3.3a4.7,4.7,0,0,1,4.3-2.9,2.2,2.2,0,0,0,1.1-.2c2.3-1.6,4.7-1.1,7.1-.3a6.9,6.9,0,0,1,4.7,3.6c.9,1.8,2,2.8,4.2,2.2s3.8.4,5.4,1.9c5.6,5.3,6.4,11.6,4.4,18.5,0,.3-.1.6-.1.9v.5c5.3-.7,10.6-1.8,16-2.2s10.9-.1,16.4-.1c-.4-3.1-.8-6-1-8.8s-.5-6.7-.5-10a52.6,52.6,0,0,0-1.7-14.2c-1.3-5.4-2-10.9-3.8-16.2-3.5-9.9-8.1-19.1-15.1-26.9a208.1,208.1,0,0,0-14.6-15.1c-4.6-4.3-8.9-9-13.2-13.7a13.8,13.8,0,0,1-2.5-4.8c-.7-1.8-.3-2.5,1.5-3.4,4.6-2.5,9.3-4.9,13.9-7.6a66.1,66.1,0,0,0,16.2-13.1c3.2-3.7,5.5-7.7,4.1-12.9-.4-1.5.2-1.9,1.9-1.8a29.7,29.7,0,0,0,4.2-.3c6.6-.5,12.7,1.3,18.5,4.4,10.4,5.5,18,13.9,24.1,23.8a93.8,93.8,0,0,1,13.1,39.5c.3,3.1.8,6.3.8,9.4-.3,10.7-1.2,21.3-6,31.1a24.2,24.2,0,0,0-2.5,12.6,51.7,51.7,0,0,0,2.5,12.9,9.9,9.9,0,0,0,.9,1.8l1.7-2.6a87.6,87.6,0,0,0,10.7-29.3,138.3,138.3,0,0,0,1.6-30.1c-.4-8.4-.8-16.9-3.2-25a11.3,11.3,0,0,1,0-2.6,9.2,9.2,0,0,0,2.5-.9,4.6,4.6,0,0,1,3.8-.5c9,2.3,18.1,2.3,27.2,1.9a42,42,0,0,0,14-2.8c3-1.1,5.8-2.3,5.7-6.5,1.3,1.9,1.3,2.8.2,4.3a12.9,12.9,0,0,1-5.5,4,41.7,41.7,0,0,1-13.4,3.2c-5.6.4-11.3.5-16.9.6a45.2,45.2,0,0,1-6.3-.8h-2.8l1.5,3a38.5,38.5,0,0,1,5.1,14.2c1,6.4,2.2,12.7,2.8,19a55,55,0,0,1-2.5,21.3,75.8,75.8,0,0,1-3.3,8.6,15.4,15.4,0,0,1-1.3,1.7,18.1,18.1,0,0,1,1-6.5c.8-4.1,1.9-8.1,2.7-12.1a57.1,57.1,0,0,0,0-18.9c-.8-4.5-1.5-9-2.2-13.6a65.3,65.3,0,0,0-4.7-15.6c-.7-1.6-1.7-2.2-3.7-1.9.5,1.3.8,2.4,1.2,3.6,2.1,5.4,4.4,10.9,5.1,16.7a113.9,113.9,0,0,1,1.1,15.4A98.3,98.3,0,0,1,306,149c-1.3,3.3-2.7,6.6-4.2,9.8a41.6,41.6,0,0,1-7.4,11.6c-7,7.6-9.2,16.8-8.6,26.8a8.6,8.6,0,0,0,3.7,6.3c2.1,1.5,4.4,2.7,6.6,4.1a4.8,4.8,0,0,0,3.9.4c5-1.1,8.7-4.2,12-7.9,1.4-1.7,2.7-3.4,3-5.8s1.1-2.8,1.9-4.1A32.5,32.5,0,0,1,327.5,179q3.8-2.5,7.8-4.8c15.9-9,27.9-21.5,34.8-38.6a63.6,63.6,0,0,0,4.4-18.9A57.1,57.1,0,0,0,368.7,86a19.8,19.8,0,0,1-1.1-2c-.2-.2-.3-.5-.9-.5a11.8,11.8,0,0,0,.4,2,28.5,28.5,0,0,1,1.6,9.6c.1,5.7.4,11.3.4,17-.1,13.1-4.1,24.9-12.6,35a81.9,81.9,0,0,1-10,9.5c-2.9,2.5-6,4.7-9.1,6.9a23.9,23.9,0,0,1-4.3,2l-.4-.7,3.2-2.1a92.4,92.4,0,0,0,21.4-19,45.5,45.5,0,0,0,9.5-22.3c1-6.8.5-13.7.3-20.6a31.7,31.7,0,0,1-.2-4.3c.5-5.5-1-10.7-2.5-15.8a20.9,20.9,0,0,0-5.5-8.7l-2.5-2.7c1.5-1,2.2-.1,2.9.5,6.3,4.8,10.7,11.1,13.9,18.3a53.4,53.4,0,0,1,4.5,18.9c1.1,18.5-4.9,34.5-16.3,48.7a80.3,80.3,0,0,1-26.2,21.6l-.8.4c-8.2,3.1-12.6,9.9-16.1,17.1a34.2,34.2,0,0,1-9.4,12.2l-2.1,1.7c2.2,2,4.2,3.8,6.2,5.8a109,109,0,0,1,30.5,58.3,95.5,95.5,0,0,1-4.2,51.3,91,91,0,0,1-9.9,19.4,100,100,0,0,1-13.1,15.2,3.8,3.8,0,0,0-1.3,4c2,9.7,4,19.3,5.8,29s3.2,18.3,4.7,27.5,3.1,19.2,4.6,28.9c.3,1.5.6,2.7,2.4,3.2a6,6,0,0,1,2.3,1.7l13.9,12.8c2.2,2,2.7,7.2,1.1,9.7a2.3,2.3,0,0,1-2.5.9c-3.3-.3-6.2-1.9-8.9-3.7L336,471c-1.1,2.6,0,4.8.2,7,.7,5.9,1.6,11.8,2.4,17.6a4.9,4.9,0,0,1,.1,1.2c-.2,3.5-2,5.2-5.5,4l-3.4-1.5a3.9,3.9,0,0,1-2.3-3.1c-.8-5-1.5-10-2.3-15l-.6-3.3H324c-.8,3-1.4,5.9-2.2,8.8s-1,2.7-1.5,4-1.4,1.7-2.7,1.4a19.3,19.3,0,0,1-4.1-1.2c-2.9-1.4-3.6-2.2-2.7-5.3a13,13,0,0,0,.6-6.5c-.4-1.5.6-3.4,1-5,1.4-5.6,2.9-11.1,4.4-16.7.5-2,.7-4,1.9-5.9s.4-3.7.2-5.6c-.6-6.9-1.4-13.7-2.1-20.5-.5-4-.9-8-1.3-12l-.6-7.7c-.6-8.7-1.1-17.4-1.8-26.1-.4-5.3-1.1-10.6-1.6-15.9H311l-.5.2a104.6,104.6,0,0,1-17.8,10.6c1.9,2.3,3.5,4.4,5,6.4,6.4,8.2,12,16.9,15.3,26.9a32.9,32.9,0,0,1,1.4,13.9c-.3,4-2.1,7.6-4.3,10.9-3.6,5.4-7.2,10.9-11,16.2s-7.1,9.2-10.8,13.8l-26.8,33.1c-7,8.6-13.9,17.3-21,25.8-2.5,3.2-5.3,6.1-8,9.1a13.7,13.7,0,0,1-2.9,2.4c-6.8,4.4-14.1,7.9-22.3,8.4s-14,.6-21,.4c-3.1,0-6.1-.6-9.2-.1a3,3,0,0,1-2.3-1.7,7.6,7.6,0,0,1,0-7.7c1.2-2,2.5-4,5.1-4.8a2.6,2.6,0,0,1,2.7.2c1.1.9,2.2.7,3.5.6a33.4,33.4,0,0,0,12.6-3.8,32.3,32.3,0,0,1,6.4-2.3,5.8,5.8,0,0,1,5.7,1.1,2.6,2.6,0,0,0,3.2.2c3-1.9,6.2-3.6,8.7-6a112.2,112.2,0,0,0,9.7-11c8.3-10.2,16.4-20.5,24.5-30.8s16.8-21.6,25.2-32.4c3.2-4,6.4-7.9,9.4-12a28.4,28.4,0,0,0,3.9-7,13.5,13.5,0,0,0,.5-5.7,57.3,57.3,0,0,0-3.4-18.8c-.2-.6-.5-1.1-.7-1.6l-.7-.4-1.5,4.9H289a3.3,3.3,0,0,1-.4-1.7,8.5,8.5,0,0,1,.4-2.2,13.2,13.2,0,0,0-1.6-9.5,44.1,44.1,0,0,0-9.7-11.6l-4.7,4.4a5.1,5.1,0,0,1-1.5-.7l-6.1-5.2c-1.3-1.1-1.2-1.6,0-2.8a15.5,15.5,0,0,0,2.1-2.3c1.8-2.8,1.5-2.7-.7-5.2s-7.1-5.7-11-8.2c-6.8-4.2-13.5-8.8-20.5-12.8-4.7-2.7-9.8-4.6-14.8-6.8a70.9,70.9,0,0,0-9-3.7,78.3,78.3,0,0,0-8.4-1.8,1.9,1.9,0,0,0-2.5,1.3L193.9,352l2.7,1.2,9.5,4.2,5.8,2.6c2.4,1,4.7.5,7-.4,3.9-1.5,7.7-1.2,11.6-.2l8.8,2.7a8,8,0,0,1,3.8,2.3c1.3,1.4,3.2,2.1,4.6,3.4,3.2,2.7,6.3,5.6,7.9,9.7a7.5,7.5,0,0,0,5.6,4.1,8.9,8.9,0,0,1,6.3,4.9,40,40,0,0,0,5.2,7.5l-3.4-1.8c-1.1,1.5-2.1,3-3.3,4.4a35,35,0,0,1-3.8,3.9,41.3,41.3,0,0,1-4.2,3.1c.7.5,1.2.6,1.5.4a25.7,25.7,0,0,0,3.7-2.8c2.5-2.4,4.7-5,8.2-6.1C271.9,394.9,272.2,394.3,272.6,394ZM166.4,439.8l-.9-2.9c-1.7,1.4-1.8,1.9-.4,2.6a3.4,3.4,0,0,0,1.4.2c2.7,3.2,5.4,3.3,8.8.3a20.3,20.3,0,0,0-2.9-7.4c-1.1,1.7-2,3.1-2.8,4.5S168.1,439.6,166.4,439.8Zm62.5-189.7a16.7,16.7,0,0,0,1.2-1.6,113,113,0,0,1,12.5-18.2c6.7-8,14.3-15,23.5-20.1,4-2.2,8.3-3.9,12.5-5.7,1.2-.5,2.5-.8,3.8.7l-1.8.6c-2.8,1.1-5.6,2-8.3,3.2-13.8,6.5-24.4,16.6-33.2,28.7a87.9,87.9,0,0,0-9.2,14.9c-2.9,6.1-5.9,12.1-7.2,18.7a14.6,14.6,0,0,1-.5,2,75.6,75.6,0,0,0-2.8,40.8,44.6,44.6,0,0,0,8.7,19.3,9.5,9.5,0,0,0,2.1,1.9l11.3,6.3a16.6,16.6,0,0,1,1.4,1.3,40.1,40.1,0,0,0,3.9,3.3,98.2,98.2,0,0,1,13.6,9.6l3.6,2.8a29.8,29.8,0,0,1,2-3.2,7.3,7.3,0,0,1,2.2-2.1c2.2-1.4,4-.7,5.1,1.7a6.6,6.6,0,0,0,1.5,2.6c5.4,4,10,8.8,14.7,13.5,1.8,1.8,1.8,1.7,4.2.6,14.7-6.8,26.3-17.4,35.3-30.8a80,80,0,0,0,9.6-20.5c7.3-22.4,6-44.7-2.3-66.6a108.5,108.5,0,0,0-28.4-41.7c-2-1.9-3.6-2.5-6.3-1.6-9.9,3.1-16.9-3-21.4-10.7a6.9,6.9,0,0,1-.5-1.3c-.2-.6-.5-1.2-.8-2-8.9.9-16.1-2.2-20.9-9.1l-4.1.2c-3.8-.3-7.6-.8-11.5-.9a94.3,94.3,0,0,0-35.6,6.8,87.5,87.5,0,0,0-29,19.4l-2.7,3,1.7,1.1c1.4.7,3,1.2,4.4,2s3.6,4.4,6.7,5c.5.1,1,1.1,1.3,1.8a14.8,14.8,0,0,1,1.2,2.9c1.2,3.4,1.1,3.4,4.8,3.6h1.4c3.7.4,6.8,2,8.4,5.3s3.8,4.6,7.5,3.8,3.8.8,4.5,3.1l.5,1.7c.7,2.1,1,2.4,3,1.5s5.8-1.2,7.7,2ZM199.9,69l3.1,1.7a49.8,49.8,0,0,1,5.7,2.7,69.9,69.9,0,0,1,15.4,13.8c4.2,4.8,8.1,10,12,15.1a88.8,88.8,0,0,1,12.5,21.5,134,134,0,0,1,5.2,18.8,111.4,111.4,0,0,1,2.5,25.1,39,39,0,0,0,1.5,11.3c2.2,7.3,6.8,12.4,14.5,14.2a9.8,9.8,0,0,0,6.1-.2c-.5-9.3,4.1-16.2,9.9-22.5a38.9,38.9,0,0,1-3.3-22c.3-2.5.5-5.3,1.5-7.5,5.9-13,7.4-26.5,5.9-40.5a88.7,88.7,0,0,0-5.1-22.1c-4.9-13.3-11.8-25.3-22.9-34.6a42.9,42.9,0,0,0-21.9-10.1c-2-.3-4.1-.3-6.2-.4a6.3,6.3,0,0,0,0,1.4A10.1,10.1,0,0,1,235,43a41,41,0,0,1-5.3,7.1A61.2,61.2,0,0,1,215,61.2C210.3,63.8,205.4,66.2,199.9,69Zm13.9,403c0-1.7-.1-2.7,0-3.6s.8-2.2,1-3.4c.8-3.1,1.2-6.2,0-9.3a34.8,34.8,0,0,0-2.2-4.3c-.4-.8-1.2-1.6-.2-2.6,4.3,1.2,7.2,4.7,7.7,9.6.2,2.2,1,4.4.6,6.7a16.7,16.7,0,0,0,.3,3.8,2.8,2.8,0,0,0,1.4,2.6c.8.4,1.8.7,1.9,2.1l-2.9-.9c-1.3,5.9,1.6,10.2,4.1,15a11.6,11.6,0,0,0,4.7-7c.3-1.5,0-2.7-1.5-3.4a2.6,2.6,0,0,1-1.9-2.3l3.4,1.9c.6-2.2.7-7.5-.1-8.9a5.8,5.8,0,0,0-1.9-1.9,11.9,11.9,0,0,0-2-.8c3.3-.4,4.6.3,5.3,2.8a25.7,25.7,0,0,1,.9,10.3,14.6,14.6,0,0,0,0,2.1c5.7-1.6,7.3-5.2,4.8-9.9-1.6-2.9-3-5.8-4.4-8.7s-.5-2.5,1.5-2.5a22.6,22.6,0,0,1,2.6.1c3.9.1,7.7.2,11.3-1.5a4.4,4.4,0,0,0,3.1-2.9l-3.7-3.2a6.8,6.8,0,0,1,5.1.2c1.7.7,2.4.4,3.4-1s.9-2.5-.3-3.6a39.3,39.3,0,0,0-4.2-2.9c-1.1-.8-2.2-1.4-3.5-2.2l1.6-2.3a47.5,47.5,0,0,1-5-3.1c-1.7-1.3-3.6-.3-5.6-.7.7-2,.2-3.4-1.6-4.4a18.5,18.5,0,0,1-1.4-1.4,14.6,14.6,0,0,0-3.1-3,18.8,18.8,0,0,0-3.9-1.6c.4-3.3-2.6-4.2-4.5-5.6s-5.2-1.1-7.8-.8l-.8-.9c-2.9-2.8-7.5-3.6-10.8-1.5a67.4,67.4,0,0,0-6.2,4.7l-1.9,1.3c-1.2-1.4-.4-2.4-.1-3.5a11,11,0,0,0-.6-9.2c-1-1.7-1.6-1.9-3.6-1.5l-3.3.5,1.7-5.1a5.4,5.4,0,0,0-1.6-6,10.5,10.5,0,0,0-5.8-3h-2.3l4.6,24.6,4,.5a1.7,1.7,0,0,1,1.5,2.1c-.2,1.2-1.1,1.3-2.2,1s-3-.3-4,.6c-.9,4.2-.3,8.1.1,12a17.3,17.3,0,0,1-1.1-3.7c-.4-1.7-.6-3.4-1.1-5.1a2.2,2.2,0,0,0-3.2-1.6,39.6,39.6,0,0,0-4.7,2.1,3.8,3.8,0,0,0-1.6,4.9c.4,1.4,1,2.7,1.5,4.1,1,3.1,1.2,3.2,4.5,2.9l1.4-.3c3.3-.4,6.6-1.2,10-.5,1.1.2,2.3.8,3.3.7,2.8-.3,3.7,2,5.4,3.4a4.1,4.1,0,0,1-1.6-.2c-1.8-.6-3.4-1.5-5.2-1.7-5.7-.9-11.2.5-16.7,2l-.5.3c-5.2,2.7-10.4,5.3-15.5,8.1-1.2.7-2.4.9-3.2.1a3.2,3.2,0,0,1-1.1-2.7,37.3,37.3,0,0,1,2.6-7.3c1.4-2.8,3.1-5.4,4.8-8.3-2.4-1.5-2.4-3.5-1.9-5.8,1.3-5.8,2.4-11.7,3.6-17.5.1-.5.1-1.1.2-2.4l-2,2.5c-3.5,4.9-3.2,5.5-10.1,2.3-2.2-1-2.5-2.1-1.1-4s2.6-3.4,3.9-5,2.4-3.2,1-5.3c-.1-.1.1-.5.2-1l2.6,1.4c2.6-3.1,5.2-6,7.7-9.1a5.6,5.6,0,0,0,1.4-4.1c-2.5-.8-2.5-.8-4.8.2s-3.2,2-5.4,1.6a4,4,0,0,1,2.1-3.5,9.5,9.5,0,0,0,3.2-4l.8-1.7c1.8,1,.5,2.5.9,3.8l4.6,1.4,7.7-19.1a92.8,92.8,0,0,0-24.5-2.5v5.2c5.8,2.4,9.5,5.4,10,8.2-2.8-2.1-4.5,1.1-6.9,1.3-1.8-2.3,1.2-3,1.7-4.8l-1.3-1c-2.5-1.7-3.9-1.3-4.6,1.8a1.7,1.7,0,0,1-2.1,1.4c-.8-.1-1.8-.5-2.2-.2s-2.9,2.3-3.8,4.4c1.1.2,2.1.1,2.7.5a6,6,0,0,1,1.6,2.2c.1.2-.5,1.1-.9,1.1-2.5.2-4.1,1.9-5.8,3.4s-3.1,4.9-1.3,8c.8,1.3,1.9,2.6,2.9,3.9s1.1,1.9-.3,3.1l-2.9,2.7c-2,1.7-3.1,3.7-2.1,6.4a3.4,3.4,0,0,1,0,1c-2.7,1.8-3,2.8-1.1,5.3a15.7,15.7,0,0,0,3.8,3c1.9,1.3,2.2,2.1.9,3.9a3.1,3.1,0,0,0-.6,3.5,33.6,33.6,0,0,0,4,6.9c1.2,1.5,2.1,2.7,1.1,4.5,2.2,1.7,4.4,3.1,7.2,2.7s1.9.7,1.9,1.9-.3,1.3-.3,2a13.5,13.5,0,0,0-.3,4,56.9,56.9,0,0,0,1.2,7c.2,1.1.5,2.7,1.3,3.1,2.6,1.3,3.7,4,5.6,5.9a5.7,5.7,0,0,0,2.2,1.7,12.1,12.1,0,0,1,5.6,4.3,4.4,4.4,0,0,0,2.9,1.7l5.9.7c2.3.2,3-.4,3.6-2.7.2-.8-.1-2,1.5-2.4.5,1.2,1.2,2.5,1.7,3.8a7.5,7.5,0,0,0,3,4l1.8,1.5c2.6,2.2,5.4,4,8.9,4.2a4.7,4.7,0,0,0,4.1-1.5c1.1-1.3,1.6-2.6.8-4.2s.2-.7.4-1.5c2.1,1.7,3.9,3.3,5.9,4.7a14.6,14.6,0,0,0,7.3,2.3c.9-2.5.7-7.7-.3-10.6ZM172.9,218.5c-.4.6-.8.9-1,1.3-4.3,7.2-8.7,14.4-11.9,22.3a124.1,124.1,0,0,0-6.5,20.1,84.9,84.9,0,0,0-1.4,26.6,11.6,11.6,0,0,0,1.8,5.8,4,4,0,0,1,4.6-.5,31.2,31.2,0,0,1,4.3,2.7c1.6,1.2,2.2,1.2,3.3-.4s.3-.7.5-1,1.9-2,3.9-1.3l4.6,1.4c2.4.9,4.3.7,6-1.6s4.1-2.9,7-1.3c5.1,2.8,9.2,1.8,12.2-3.1.9-1.4,1.7-1.6,3.1-.5s1.5,1.5,2.3,2.1,2.2.8,3.2-.5a16.9,16.9,0,0,0,2.1-3.1c3.3-6.6,6.5-13.2,9.7-19.9.2-.3.3-.7.5-1,2.6-3.9,3.8-8.5,5.8-12.7.7-1.7-.3-3.3-1.4-4.5s-2.4-1-3.7-.3l-1.9.7c-1.8.5-2.9,0-3.7-1.8a10.6,10.6,0,0,1-.6-1.9c-.8-2.8-1.2-3.1-4-2.9h-1.1c-2.8.5-4.8-.4-5.9-2.9-2.1-4.5-5.5-6.5-10.3-6.4a2.6,2.6,0,0,1-1.5-.1c-1-.5-2.5-.8-2.8-1.6-.9-2.3-2.8-3-4.6-4a10.2,10.2,0,0,1-1.8-1.8,36.4,36.4,0,0,0-4.5-4.3A61.6,61.6,0,0,0,172.9,218.5Zm33.9,320.8h1.3c6.8-.8,12.6-3.8,18.4-7.1a15.1,15.1,0,0,0,3.6-2.4c2.9-2.9,5.8-5.9,8.4-9,6.5-7.8,12.8-15.7,19.2-23.6s14.9-18,22.2-27.1,13.4-15.8,19.1-24.4c3.1-4.7,6.2-9.2,9.4-13.8s4.6-11.1,3.7-17.3c-1.1-7.9-4.5-15-8.7-21.7a146.1,146.1,0,0,0-24.2-28.4,80.6,80.6,0,0,0-6.4-5.2c-.9.7-1.7,1.4-2.5,1.9a1.8,1.8,0,0,0-.6,2.7,22.7,22.7,0,0,0,1.8,2.5c.4.5.9.8,1.2,1.2s1.1,2.2-.4,3.6l-3.9,3.7,4.5,5.2c.9-1.4,1.8-2.5,2.5-3.7s2.2-3,4.5-1a62.8,62.8,0,0,1,8.3,8,62,62,0,0,1,13.6,32.1c.7,5.6-.3,10.9-4.4,15.2a36.5,36.5,0,0,0-4.1,5.4c-4.3,7.1-9.7,13.3-15,19.6-7.2,8.8-14.2,17.9-21.2,26.8-2.7,3.6-5.2,7.4-8,10.9-6.6,7.8-13.3,15.5-19.9,23.4a28.9,28.9,0,0,1-10.2,8.2,35.7,35.7,0,0,1-4.6,1.6l-2.1.5C210.3,531.3,208.6,535.2,206.8,539.3ZM117.9,333.9c-.5.7-1.1,1.4-1.6,2.2-2.4,4.2-4.5,8.6-7.2,12.7a11.2,11.2,0,0,0-2.2,5.7c-.2,3,.5,4,3.4,4.8s7.7.3,11.3-.9a73,73,0,0,0,35.6-26.3c3.2-4.3,3.1-4.4-1-8.1-1-.9-1.8-1-2.7-.1l-3,2.7-27,22.5-3.3,2.7a3.3,3.3,0,0,1-1.4.1c7.1-7.8,15.4-14.1,23-21.1-4.6.5-8.9,2.5-13.5,2.2l9.4-3.4c4.2-1.5,8.3-2.9,12.4-4.7s4.7-2.5,1.9-6.9a3.9,3.9,0,0,0-3.8-1.9c-4.5.2-9,.2-13.5.3l-21.1.6c-.9,0-2.1.4-3.1-1.1a28,28,0,0,1,3.6-.5l31.6-1,3.5-.4c-.3-1-.6-1.6-.8-2.2s-1.7-3.1-4-2.8a11.2,11.2,0,0,1-3.1-.5c-8.3-2-16.7-1.5-24.9-.5-6.2.8-12.2,2.4-18.3,3.8a15.2,15.2,0,0,0-9.5,6.5c-2.4,3.8-1.8,6.9,2.1,9.1a34.3,34.3,0,0,0,5.5,2.5c4.8,1.8,9.9,2.2,14.9,2.6a2.4,2.4,0,0,0,1.7-.2c1.2-1,2.1-.5,3.1.3Zm53.3-141.8c-.7.6-1.2,1.3-1.8,1.5s-3,2.4-4.1,3.9a3.5,3.5,0,0,0-.5,2.4,17.5,17.5,0,0,0,2.2,4.3c1.6,1.9,3.6,1.9,5.4.2l1-1c6.7-7,14.8-11.6,23.8-14.8,4.8-1.6,9.7-2.9,14.6-4.1,2.1-.6,3.6-1.6,4.2-3.6,1.4-4.4,1.4-8.9-1.1-13a2.6,2.6,0,0,0-2.5-1.5l-6.6-.2c-1.9-.1-2.3-.4-2.1-2.1s-.4-3.3-1.7-3.7-4.3-1.8-6.7-.7a3.1,3.1,0,0,0-.8,1.1,13.3,13.3,0,0,1-1.4,1.9,27,27,0,0,0-7.6,9.2c-.3.6-1,.9-1.6,1.5a3.7,3.7,0,0,1-.7-1c-1.1-1.8-.7-3.8-.5-5.9a7,7,0,0,0-2.8-6.5c-2.3-1.9-4.7-1.3-7-.2a8.6,8.6,0,0,0-3.8,4.2l-3.9,8a20.8,20.8,0,0,0-1,14.3c.3,1.2.9,2.3,2.3,2.3S169.9,190.1,171.2,192.1ZM202,290.6a7.5,7.5,0,0,0-.9.9c-3,4.7-8.3,5.4-12.9,3.3s-4.1-1.9-6.9,1.5l-.5.7a6.5,6.5,0,0,1-8.8.9l-1.8-1.4-.6.3-1.5,3.7c-.7,1.9-2,2.5-3.8,1.7s-2.3-1.3-3.5-1.9l-3.3-1.8c-1.2,1.4-2.5,2.5-2,4.4a41,41,0,0,0,1.4,5c2.7,6.1,5.5,12.2,8.3,18.2.8,1.7,1.2,1.9,2.9,1.2s4.1-1.7,6.2-2.2a53.6,53.6,0,0,1,17.4-1.6c2.9.1,2.9.1,4-2.5,3-6.9,6.1-13.7,9.1-20.5l2.6-6ZM221,417l-4.9-5.6c-2.1-2.6-4.5-5-6.2-7.8-4-6.4-6.8-13.2-3.3-20.8.7-1.7-.3-3-1.3-4.1s-2-1.5-2.9-2.3a16.5,16.5,0,0,1-3.1-3.4c-2.2-4.1-6.1-4.6-9.8-5.9l-.5.8-7.8,21.6a20.5,20.5,0,0,0-.5,2.4l1.1.4a15.3,15.3,0,0,1,8.5,4c2.3,1.9,3.6,4.3,3,7.5s-.3,2.1,1.8,3.1a5.1,5.1,0,0,1,2.4,1.9,35.7,35.7,0,0,1,1.9,4.5c.3.8.4,1.7.7,2.7,1.7-1,3.1-1.9,4.5-2.6a8.1,8.1,0,0,1,8.7.3,20.5,20.5,0,0,1,3.4,2.6A4,4,0,0,0,221,417Zm45.2,14.9-.3-.5-1,.3c-8.4,1.8-13.4-2.8-12.2-11.3.5-3.5,2.3-6.5,4.3-9.4,1-1.4,2.1-2.8,3.4-4.7-5.3,1.6-10,2.2-14.2-1.1.4-1.4.7-2.6,1-3.8h-.6l-.9.7c-5.5,5.2-11.9,6.8-19.1,4.8s-11.2-8.9-9.2-16a14.1,14.1,0,0,0,.6-2.2c1-6.4,5.7-10,10.1-13.9a6.9,6.9,0,0,1,1.5-.7c4.6-1.6,9-1.8,13.4.6l2.8,1.3a9.3,9.3,0,0,0-1-1.7c-.9-.8-2.2-1.3-2.9-2.3s-1.9-1.2-3.2-1.3c-3.7-.3-7.4-.5-11.1-1a3.2,3.2,0,0,0-3.3,1,80.4,80.4,0,0,0-5.6,6.2c-2.1,2.7-4.4,5.1-5.5,8.4s-1.8,5.5-1.1,8.4A38.6,38.6,0,0,0,223,412c2.9,2.8,6.5,4.8,10.7,4.2a7,7,0,0,1,6.8,2.6c1.8,2.1,3.6,4,3.3,7.3a6.3,6.3,0,0,0,2.2,5.4c2.5,2.1,4.7,4.6,8,5.5h1.1c3.3.3,5.6-1.7,8.2-3.1A19.4,19.4,0,0,0,266.2,431.9Zm-41.9-100a22.7,22.7,0,0,0-1.2-2.6,54,54,0,0,1-6.6-22.1c-.4-3.8-.3-7.7-.5-11.5,0-1,.2-2.2-1.6-2.6-4.3,9.5-6.9,19.7-10.2,29.6-.2.8-.3,1.6-.4,2.1Zm-33.5.5c-12-1.2-28.8,7.8-31.8,16.9,4.1-.3,8.1-.9,12-.8s8,.6,12.2,1C185.7,344,188.1,338.3,190.8,332.4ZM180.2,540.3l.7.2,22.9-.5c1,0,1.5-.6,1.9-1.5s1.6-3.6,2.2-5.5a23.6,23.6,0,0,0,1.2-5.1,2.1,2.1,0,0,0-2.8-2.5c-2.3.5-4.4,1.3-6.6,1.9s-5.1,1.7-7.7,2.3a46.3,46.3,0,0,1-6.5,1,2.1,2.1,0,0,0-2.1,1.6C182.4,534.8,181.3,537.4,180.2,540.3Zm64.7-105.8-5.9-5.6c-3.2-3.1-6.1-6.5-10-8.7a21.8,21.8,0,0,1-2.8-2.5c-2.2-2.3-4.5-4.4-6.5-6.9a48.3,48.3,0,0,1-6.5-8.4c-3.7-6.7-4.5-13.8-.4-20.8s8.1-10.7,12.7-15.5c1.2-1.2,3-1.7,4.5-2.5l1.3-.8c-2.3-1.1-4.2-1.2-6,.6s-1,.8-1.5,1.3c-4.2,5.2-8.6,10.3-12.5,15.7a26.9,26.9,0,0,0-3.7,8.7c-.9,4,.2,7.8,2.3,11.3,4.1,6.8,9.4,12.5,15.2,17.9s9.8,9.1,14.7,13.7C241.2,433.3,242.6,434.6,244.9,434.5Zm11.7-32,3.2-2.7,7.3-6.8a3.4,3.4,0,0,0,.9-2.5,5.2,5.2,0,0,0-1-2.6c-2.1-3.9-6.2-4.7-9.8-6.2a1.3,1.3,0,0,0-.3.7c-.9,4.6-.3,9.5-2.8,13.9a2.6,2.6,0,0,0,.1,2.4A33.6,33.6,0,0,0,256.6,402.5Zm-6.1,3.1c.1-.2.4-.4.4-.7-.1-4.6,1.3-8.8,3-13a6,6,0,0,0,.6-2.2,88.1,88.1,0,0,0,0-8.9,9.3,9.3,0,0,0-2.9-6.4,23.9,23.9,0,0,0-2.2-2.3c-.8-.8-1.8-2-2.6-2s-.9-1.4-1.7-1.9c-4.7-2.9-9.6-4.3-15-2.6-1.2.4-2.6.9-2.9,2.8a37.3,37.3,0,0,0,11.4,1.5c3.4-.1,5.9.7,7.9,3.4a9.3,9.3,0,0,0,1.4,1.4c4.9,4.5,5.9,10.2,4.5,16.3a95.8,95.8,0,0,1-3.9,11.4C247.6,404.8,247.6,405.1,250.5,405.6Zm-69.3-51.7c-5.9-.9-11.5-2-17.2-1.9-1.6.1-3.2.4-4.8.4-3.5.3-5.2,2.3-4.7,6.4l3.8.3,10.8,1,8.2,1.5c1,.2,1.9-.2,1.7-1.2s.3-3.9,2-5.2A7,7,0,0,0,181.2,353.9Zm30.6,19.3-3.9.2a4.2,4.2,0,0,1-3.4-1.7c-1.7-2.3-1.2-4.3,1.5-6.4s4.5-1.3,6.2,1.2c.6.9,1,2,1.7,3.3l3.8-4.4-4.2-1.3c-1.4-.4-2.9-1-4.4-1.3s-5.8,1.4-7.4,4.7-.6,4.9,1.7,7l5.4,5.1Zm-15.2-5.4,4.5-7.8a35.2,35.2,0,0,0-8.7-3.5l-2.5,8.5,3.5,1.2Zm84,38c.3-1.5.6-2.8.8-4.1a3.1,3.1,0,0,0-.4-1.9c-1.1-1.8-5.2-3.4-7.4-2.9s-7.8,4.2-9.6,7.4c1.5-.9,3-1.9,4.5-2.7a7,7,0,0,1,7.6.2C277.6,402.9,278.9,404.3,280.6,405.8Zm-55.7-3.3a3.8,3.8,0,0,0,1.2-4.1c-.5-1.8-.8-3.7-1.2-5.5a3.5,3.5,0,0,0-.3-1.1c-.4-.6-1-1.3-1.5-1.4a2.5,2.5,0,0,0-1.7,1.2,8.3,8.3,0,0,0-.3,6.9C221.8,400.2,222.6,402,224.9,402.5Zm5.4,15.4v.4l10.7,8.5c1.3-3.6-.9-5.7-2.9-7.8a2.5,2.5,0,0,0-1.5-.8C234.5,418,232.4,418,230.3,417.9Zm52.8-13.1c-.8,3.7-1.6,7.4-2.2,11.1-.2,1.1.7,1.8,1.6,2.3C285.9,414.8,287.4,411.9,283.1,404.8ZM158.5,448.4l.5.5c2.9-2.2,6.4-3.4,9.7-5.8l-6-3.4-.6,1.2Zm102.9-20.9c-.2-.6-.1-1-.4-1.3s-1.5-3.8-1.2-6a4.2,4.2,0,0,0-.2-2.2,1.5,1.5,0,0,0-1.2-1,1.9,1.9,0,0,0-1.2,1,9,9,0,0,0,.3,8.7C258.4,428.2,259,428.3,261.4,427.5Zm-40.1,55.3c-.7,3.8-1.9,6.9.5,9.9,1.8-.7,3.2-2,3-3.6A9.1,9.1,0,0,0,221.3,482.8Zm54.2-54.5c-4.3,5-9.9,8-15.8,10.6C265.5,439.8,272.9,434.8,275.5,428.3ZM177.6,539.4c2.9-2.4,3.4-5.4,3.4-8.8a21.7,21.7,0,0,0-3.9,4.7A2.9,2.9,0,0,0,177.6,539.4ZM209,367c-2.5,1.5-2.8,2.3-1.7,3.6s1.4,1.2,2.4.4S210.9,368.9,209,367Zm47.8,38.6-3.7-4c-1.1,1.5-1.3,3.1-.2,4S255.1,405.7,256.8,405.6Zm10.9-45.8.4.5c2.4-.9,2.4-.9,2.4-3.3ZM173.8,422c1.8-.8,1.8-.8.9-2.6Z"/><path d="M103.1,47.9c.2,12.6-3.8,23.5-11,33.2A53.6,53.6,0,0,1,75.7,95.4c-7.2,4.3-14.9,7.2-23.3,7.5a25.2,25.2,0,0,1-12.3-2.5A54.9,54.9,0,0,1,33.8,97c-4.6-2.9-9.6-5.1-13.9-8.7-10.8-9.2-17.1-20.7-18-35S5.2,28.1,13.9,18A48,48,0,0,1,40.8,2c2.5-.6,5.1-.7,7.7-1.1S50.9.3,52.1.2a38.3,38.3,0,0,1,18,2.7,57,57,0,0,1,23,16.3A41,41,0,0,1,103.1,47.9Zm-8.8-2.1a41.3,41.3,0,0,0-3.4-17.4c-3.2-7.9-8-14.6-15.4-19.1S61.3,3.6,53.6,2.7a34.5,34.5,0,0,0-12.4.4,48.3,48.3,0,0,0-25.4,16C7.1,29.8,3,42,5,56A46.7,46.7,0,0,0,21.9,86.1c4.7,3.8,9.8,7.2,16,7.9a79.4,79.4,0,0,0,12.9.2A43.9,43.9,0,0,0,75,85.3,46.7,46.7,0,0,0,85.8,73.1,50.3,50.3,0,0,0,94.3,45.8Z"/><path d="M0,174.1c0-11.2,4.5-20.4,12.2-28.3a39.7,39.7,0,0,1,19.9-11.4,36.7,36.7,0,0,1,21,1.2,31.5,31.5,0,0,0,4.4,1.1,8.2,8.2,0,0,1,2.4,1,64,64,0,0,1,15.5,13.4,32.2,32.2,0,0,1,6.7,15.4c2,13.1-1.9,24.4-10.6,34.3A41.7,41.7,0,0,1,49,214.3c-9.3,2.1-18.7,1.9-27.4-2.8A35.7,35.7,0,0,1,7.4,197.9c-3.3-5.5-6.1-11.3-6.9-17.8C.3,178.1.2,176.1,0,174.1Zm2.7,1c-.7,4.3,1.7,9.8,4.7,14.8s7.5,11,13.7,14.4,12.3,5.2,19,4.3a41.8,41.8,0,0,0,23.5-11.2,40.7,40.7,0,0,0,10.9-18.1c2.5-8.4,1.6-16.4-3.7-23.8l-6.3-9.2-1.1-.9c-8.7-7.4-18.7-9.9-30-8a37.4,37.4,0,0,0-17.7,7.8C7,152.3,2.9,161.9,2.7,175.1Z"/><path d="M39.3,356.5c-10.4-.2-18.8-4.6-25.5-12.4-4.7-5.5-8.3-11.6-9.7-18.7-2.3-12.5,1-23.4,9.7-32.5A34.9,34.9,0,0,1,35.1,282c2.2-.3,4.4-1.3,6.5-1.1a49.2,49.2,0,0,1,10.7,2,35.5,35.5,0,0,1,19.1,15c1.5,2.4,3.3,4.7,4.6,7.2,2.3,5.1,2.3,10.4,1.5,15.8a43.3,43.3,0,0,1-11.1,23.6C59.2,352.3,50.2,356.6,39.3,356.5Zm-7-6.5c3.7.6,6.7,1.4,9.9.8A31.8,31.8,0,0,0,57.5,344c4.3-3.5,8-7.5,10.2-12.7,4.3-10.4,4.1-21,.7-31.7a19.2,19.2,0,0,0-6.7-9.2A36.5,36.5,0,0,0,43,283c-2.7-.2-5.6-.6-8.2-.2a34,34,0,0,0-22.1,13.5,34.5,34.5,0,0,0-6.2,29.9c1,3.9,3.4,7.1,5.7,10.2a46.8,46.8,0,0,0,4.6,4.3c1.1,1,2.2,2.2,3.4,3.1s1.2,1.4,2.1,1.3a63.1,63.1,0,0,1-1.5-6.7c-.2-2.7.9-3.4,3.6-2.9a24.4,24.4,0,0,0,2.8-.1c2.3,1.5,4.5,3,6.8,4.3a35.7,35.7,0,0,0,4.5,1.9c2.2.9,2.5,2.4,2.6,4.4s-1.1,2.7-3.2,3.2Zm-8-11.4a6.7,6.7,0,0,0,4,7.3,53.6,53.6,0,0,0,5.7,1.7,7.3,7.3,0,0,0,3.3-.2,2.2,2.2,0,0,0,1-3.9,7.1,7.1,0,0,0-1.7-1.1C32.9,340,28.6,339.6,24.3,338.6Z"/><path d="M100.9,426.5a19.3,19.3,0,0,1-5.5,14.1,30.6,30.6,0,0,1-8.2,6.2c-7.7,3.7-14.9,2.4-21.7-2.2a21.9,21.9,0,0,1-9.9-16.1c-1.5-11.6,6.3-22.7,15.9-25.8l.8-.2c3.6-2.5,7.5-2.1,11.4-1.3a19.9,19.9,0,0,1,11.1,6.6,22.3,22.3,0,0,1,5.6,13.6C100.6,423.3,100.8,425.2,100.9,426.5Zm-43.1-1.6a18.2,18.2,0,0,0,2,9.2c5.1,10.1,15,13.8,24.8,9.1a18.5,18.5,0,0,0,9-9.7c1-2.1,1.7-4.2,2.7-6.3a12.1,12.1,0,0,0,1-7c-1.1-7.5-6.9-15.9-16.4-16.8-2-.2-4,.2-6,0a6.5,6.5,0,0,0-4.1.8C62.4,408.6,58.2,415.5,57.8,424.9Z"/><path d="M139.8,491.8a11.7,11.7,0,0,1-7.8,10.8c-3.3,1.2-6.4,2-9.8,1.1-6.8-1.9-11.1-6.8-10.1-14.2a13.3,13.3,0,0,1,9.4-10.3l3-1a9.4,9.4,0,0,1,1.6-.4c3.7.4,7.4.9,9.9,4.3S139.8,488.7,139.8,491.8Zm-6.4-3a10.6,10.6,0,0,1-.3,1.8c-.3,2.7-2.3,4.3-4.9,3.6-.8-.2-2-1.1-2-1.7.1-2.6-1.3-4.2-3.3-5.6a1.6,1.6,0,0,1-.2-2.7,7.9,7.9,0,0,1,1.8-1.4c1.7-1.1,3.5-.2,5.5.2-3.8-3-8.5-2.7-11.6.3s-4.4,9.3-1.2,13.2,8.7,5.4,12.8,2.9A8.4,8.4,0,0,0,133.4,488.8Zm-9.3-3.7a16.4,16.4,0,0,1,3.4,2.8c.8,1,1.1,2.5,1.7,3.8,1.5-1.1,1.6-1.5.8-3.5S127.7,484.8,124.1,485.1Z"/><path class="cls-1" d="M224.9,402.5c-2.3-.5-3.1-2.3-3.8-4a8.3,8.3,0,0,1,.3-6.9,2.5,2.5,0,0,1,1.7-1.2c.5.1,1.1.8,1.5,1.4a3.5,3.5,0,0,1,.3,1.1c.4,1.8.7,3.7,1.2,5.5A3.8,3.8,0,0,1,224.9,402.5Z"/><path class="cls-1" d="M261.4,427.5c-2.4.8-3,.7-3.9-.8a9,9,0,0,1-.3-8.7,1.9,1.9,0,0,1,1.2-1,1.5,1.5,0,0,1,1.2,1,4.2,4.2,0,0,1,.2,2.2c-.3,2.2-.2,4.2,1.2,6S261.2,426.9,261.4,427.5Z"/><path class="cls-1" d="M24.3,338.6c4.3,1,8.6,1.4,12.3,3.8a7.1,7.1,0,0,1,1.7,1.1,2.2,2.2,0,0,1-1,3.9,7.3,7.3,0,0,1-3.3.2,53.6,53.6,0,0,1-5.7-1.7A6.7,6.7,0,0,1,24.3,338.6Z"/><path class="cls-1" d="M124.1,485.1c3.6-.3,4.8.3,5.9,3.1s.7,2.4-.8,3.5c-.6-1.3-.9-2.8-1.7-3.8A16.4,16.4,0,0,0,124.1,485.1Z"/><path d="M248.1,269.4l-6.7-4.3c.9-1.1,1.5-2,2.3-2.8l7.2-6.5,1.4-1.5a3.6,3.6,0,0,0-2.4-5.9H249c-1.2-.2-2.5-.4-2.6-2.1a3.1,3.1,0,0,1,2.8-3.1c9.3.1,18.6-1.2,27.7,1.4a24.3,24.3,0,0,1,3.7,1.6c1,.5,1.8,1.5,1.4,2.5a2.8,2.8,0,0,1-2.1,1.6c-1.8.1-2.7,1.1-3.6,2.5-3.6,5.6-9.3,7.1-14.7,5-2.1-.8-3.2-.2-4.4,1.2s-3.1,3.4-4.6,5.2Zm8.2-24.2c-1.2,4.6-.1,8,3.4,9.7a16.9,16.9,0,0,0,6.2,1.7c3.7.5,6.4-1.5,8.6-4.3s1.1-2,.3-4c-5.4,6.4-9.9,7.8-13.1,4.2,8.1.8,10.6-1.7,11.1-6.5-2.6-1.3-10.9-1.8-14-.9-.1,1.3-.2,2.6-.3,4.5C257.7,247.9,257.1,246.7,256.3,245.2Zm1.2,10.5-2.3-1.6-10.8,10.6,3.3,2.1Z"/><path d="M206.9,68c2.8-.5,5,.9,7,2.4a115.6,115.6,0,0,1,18.6,16.3c4.1,4.4,7.3,9.3,10.6,14.3A166.9,166.9,0,0,1,254,120.9a37.9,37.9,0,0,1,3.5,13.8l-1.4-1.5a33.1,33.1,0,0,1-2.2-4.7c-5.4-14.7-14.1-27.4-23.3-39.8a90.9,90.9,0,0,0-15.7-15.9A27.5,27.5,0,0,0,206.9,68Z"/><path d="M287.2,116.9c-.8-3.6-1.5-7.2-2.2-10.9-1.5-6.6-2.7-13.3-4.4-19.9a69.5,69.5,0,0,0-14.4-26.9c-5.2-6-11.1-11.4-16.8-16.9-2.6-2.5-6.4-4.1-9.8-5.1a5.2,5.2,0,0,1,1.7-.2,19.1,19.1,0,0,1,8.6,3.8,71.5,71.5,0,0,1,7.3,6.1c3.2,3.1,6.6,6.1,9.5,9.5a82.8,82.8,0,0,1,18.8,38.9,159.9,159.9,0,0,1,2.4,16.7,40.1,40.1,0,0,1,.1,4.9Z"/><path d="M192.4,427.2l.4,1.4-.4.2a5.8,5.8,0,0,0-.5-1.4Z"/><path d="M193.9,431.5l.5,1.6H194c-.1-.5-.3-1.1-.4-1.6Z"/><path d="M122.1,333.5h0Z"/><path d="M183.3,182.1c-1.7.4-3.2.9-3.5,2.8a3.5,3.5,0,0,0,4,4.4,8.2,8.2,0,0,1,2.2-.2c.6.1,1.6.7,1.5.9s-.5,1.6-1.1,1.8a6.1,6.1,0,0,1-3,0,10.8,10.8,0,0,1-2.8-1.5c-4-2.3-3.4-5.4-1.3-8.2S181.5,180.7,183.3,182.1Z"/><path d="M199.4,179.2c1.1-1.6,1.9-2.5,2.5-3.5s1.2-3.7-1-5.4l-2.5-1.9c1.8-.7,2.8-.6,4,.6s2.9,3.5,2,5.9S202.6,178.8,199.4,179.2Z"/><path d="M160.8,358.2a2.2,2.2,0,0,1-2.5-2.1,2.6,2.6,0,0,1,2.4-2.7c1.5-.1,3.3,1.2,3.3,2.5S162.6,358.2,160.8,358.2Zm.3-3.7c-.7,1.1-.9,1.8.1,2.2s.7-.3,1.1-.5Z"/><path d="M172.4,359.1c-1.9,0-3-.7-3-2a2.9,2.9,0,0,1,3-2.5,2.6,2.6,0,0,1,2.7,2.3C175.1,358.3,174.1,359.1,172.4,359.1Zm1.1-2.5c-1.6-.5-1.6-.5-2.2.9A1.5,1.5,0,0,0,173.5,356.6Z"/><path d="M50.4,8.6a41.6,41.6,0,0,1,10.7,2.3,8.4,8.4,0,0,1,5.4,5.3c1.5,4.7,4.9,7,9.2,8.7a13.3,13.3,0,0,1,8.1,13,17,17,0,0,1-1.7,5.7c-1.2,2.4-3.3,3.5-6.1,3.6A18.3,18.3,0,0,1,66.6,45a6.2,6.2,0,0,1-2.8-4.1,22.9,22.9,0,0,1-.5-5.2,12.7,12.7,0,0,0-2.5-8,31.9,31.9,0,0,0-3.3-4,8.2,8.2,0,0,0-5.1-2.9,17.8,17.8,0,0,1-7.8-3.5c-3.3-2.4-3.1-5.7.6-7.4C46.8,9.1,48.7,9,50.4,8.6Zm1.5,2.9a20.9,20.9,0,0,0-3.8.3,13.2,13.2,0,0,0-2.5,1.6,7.3,7.3,0,0,0,1.6,2.2q3.6,2.3,7.2,4.2c6.2,3.3,10.1,8.1,10.9,15.2a26.8,26.8,0,0,1,.2,4,5.6,5.6,0,0,0,3,4.9,13.2,13.2,0,0,0,8.7,1.2,3.7,3.7,0,0,0,2.5-1.7,14,14,0,0,0,1.9-5.3,11.5,11.5,0,0,0-7.8-11.8L70.6,25a10.8,10.8,0,0,1-5.7-5.8,14.2,14.2,0,0,0-.8-1.8,7.4,7.4,0,0,0-5.8-4.7Z"/><path d="M34,70.6,28.7,73a7.2,7.2,0,0,0,4.8,3.8c3.2.9,6.5,1.4,9.8,2,1.4.3,2.9.3,4.3.6,3.5.7,5.6,4.4,4.6,8.2a5.7,5.7,0,0,1-7.7,4.3,30.1,30.1,0,0,1-4.4-2.2c-2.8-1.6-5.5-3.5-8.4-5-4.6-2.3-6.1-6.4-6.3-11.1A3.7,3.7,0,0,1,28.5,70h5.3Zm-5,5.2a8.3,8.3,0,0,0,4.1,6.8l9,6.1a19.1,19.1,0,0,0,2.8,1.5c2.7,1.1,5.5-.3,5.7-3.2.4-4.7-1.5-6.4-5.1-6.8l-6-.7A28.8,28.8,0,0,1,29,75.8Z"/><path d="M34.9,147.4c.2,1.4.3,2.2.4,3.2-2.3.4-2.9-1.8-4.4-2.5,2.3-4.3,4.7-5.6,9.2-5l7.6,1.1c7,1.1,12.8,4.6,17.7,9.5,6.5,6.8,4.8,15.7-.9,21.3-3,2.9-6.8,2.1-8.4-1.7a21.5,21.5,0,0,1-1.2-5,23.3,23.3,0,0,0-8.2-14.7,36,36,0,0,0-9.2-5.6Zm2.6-1.4v.8a23.3,23.3,0,0,1,3.3,1.4,31.4,31.4,0,0,1,6.4,3.7c2.7,2.2,5.9,4.1,7.2,7.6a68.1,68.1,0,0,1,2.6,7.6c.5,1.5.6,3.2,1.2,4.7,1.2,3.3,3.1,3.6,5.4,1a12.5,12.5,0,0,0-.6-17.9A29.7,29.7,0,0,0,47.6,147a59.9,59.9,0,0,0-7.1-.9Z"/><path class="cls-1" d="M19.2,186.3a6,6,0,0,1,.8-.8c1.3,1.5,2.4,3.2,4.2,4.3a28.7,28.7,0,0,0,9,4.3,12.6,12.6,0,0,1,3.8,1.5,13.8,13.8,0,0,1,3.4,3c1.4,1.9.4,3.6-1.9,3.7a13.3,13.3,0,0,1-2.8-.3,22,22,0,0,1-11.4-3.7C20.6,195.8,17.8,192.3,19.2,186.3Z"/><path d="M19.2,186.3c-1.4,6,1.4,9.5,5.1,12A22,22,0,0,0,35.7,202a13.3,13.3,0,0,0,2.8.3c2.3-.1,3.3-1.8,1.9-3.7a13.8,13.8,0,0,0-3.4-3,12.6,12.6,0,0,0-3.8-1.5,28.7,28.7,0,0,1-9-4.3c-1.8-1.1-2.9-2.8-4.2-4.3.9-1.1,2-.9,3-.1s2.5,1.7,3.7,2.7a20.1,20.1,0,0,0,8,4.3,14.9,14.9,0,0,1,7.2,4.6,4.4,4.4,0,0,1,.9,4.6c-.7,1.7-2.2,2.1-4,2.1-7-.1-13.5-1.7-18.4-7.2-2.3-2.7-3.2-5.7-2.1-9.1A8.7,8.7,0,0,1,19.2,186.3Z"/><path d="M34,293.3l5.7,2.8a7.9,7.9,0,0,1-7.6-.7c-1.7-1-1.9-2.2-.8-3.8s3.4-3,5.7-3.7,6.1-.1,9.1.2a35.4,35.4,0,0,1,4.5.8,7.4,7.4,0,0,1,5.6,4.9,8.5,8.5,0,0,0,3.4,4.1,24.2,24.2,0,0,1,5.2,4.9c2.5,3.2,2.2,10.1-.5,13.2a7.3,7.3,0,0,1-6.6,2.7,12.4,12.4,0,0,1-3.6-1.1c-2.9-1.2-4.1-3.4-4-6.6a55.6,55.6,0,0,0-.2-7.1,8.7,8.7,0,0,0-3.5-6.1,29.3,29.3,0,0,0-11.3-4.9Zm1.8-2.1v.6l1.8.6c3,1.3,6.2,2.4,9.2,3.9a10.1,10.1,0,0,1,5.2,7.8c.3,2.4.4,4.8.5,7.2s1,4.2,3.7,5a5.6,5.6,0,0,0,6.7-1.9c2.3-3.3,1.6-9.5-1.4-12.2a19,19,0,0,0-3.7-2.6,8.4,8.4,0,0,1-4.1-4.6,5.3,5.3,0,0,0-3.9-3.6,94.6,94.6,0,0,0-10.7-1.2C38.1,290.2,36.9,290.9,35.8,291.2Z"/><path d="M76.5,409.3c.7-2,2-2.8,4.2-2.6l4,.4c4.1.5,8.2,5,8.5,9.2v2c-.1,3.2-1.4,5-4,5.4a5.9,5.9,0,0,1-6-3.4,5.2,5.2,0,0,1-.6-1.6c-.2-.8-.3-1.5-.5-2.3C81.2,411.9,80.5,411.1,76.5,409.3Zm2.3-.2c3.6,1.6,4.5,4.6,5.2,7.7a10.2,10.2,0,0,0,1.1,2.9c.7,1.5,1.8,2.6,3.5,2.5s2.6-1.5,2.9-3.1a6.1,6.1,0,0,0,0-3C89.5,410.6,86,408.3,78.8,409.1Z"/><path d="M70,435.3l8.8,2.1c1.3.3,2.8.7,2.7,2.4s-1.3,2.3-2.6,2.7a4.3,4.3,0,0,1-2.5.2,24.4,24.4,0,0,1-5.3-1.4C67.7,439.8,67.5,438.2,70,435.3Zm.1,2.7c1.6,2.6,4.3,2.8,7,3,1.1.2,2.3.1,2.5-1.6C76.5,437.8,73.2,438.7,70.1,438Z"/><path class="cls-1" d="M51.9,11.5l6.4,1.2a7.4,7.4,0,0,1,5.8,4.7,14.2,14.2,0,0,1,.8,1.8A10.8,10.8,0,0,0,70.6,25l3.2,1.3a11.5,11.5,0,0,1,7.8,11.8,14,14,0,0,1-1.9,5.3,3.7,3.7,0,0,1-2.5,1.7,13.2,13.2,0,0,1-8.7-1.2,5.6,5.6,0,0,1-3-4.9,26.8,26.8,0,0,0-.2-4c-.8-7.1-4.7-11.9-10.9-15.2q-3.6-1.9-7.2-4.2a7.3,7.3,0,0,1-1.6-2.2,13.2,13.2,0,0,1,2.5-1.6A20.9,20.9,0,0,1,51.9,11.5Z"/><path class="cls-1" d="M29,75.8a28.8,28.8,0,0,0,10.5,3.7l6,.7c3.6.4,5.5,2.1,5.1,6.8-.2,2.9-3,4.3-5.7,3.2a19.1,19.1,0,0,1-2.8-1.5l-9-6.1A8.3,8.3,0,0,1,29,75.8Z"/><path class="cls-1" d="M37.5,146h3a59.9,59.9,0,0,1,7.1.9,29.7,29.7,0,0,1,15.3,7.9,12.5,12.5,0,0,1,.6,17.9c-2.3,2.6-4.2,2.3-5.4-1-.6-1.5-.7-3.2-1.2-4.7a68.1,68.1,0,0,0-2.6-7.6c-1.3-3.5-4.5-5.4-7.2-7.6a31.4,31.4,0,0,0-6.4-3.7,23.3,23.3,0,0,0-3.3-1.4Z"/><path class="cls-1" d="M35.8,291.2c1.1-.3,2.3-1,3.4-1a94.6,94.6,0,0,1,10.7,1.2,5.3,5.3,0,0,1,3.9,3.6,8.4,8.4,0,0,0,4.1,4.6,19,19,0,0,1,3.7,2.6c3,2.7,3.7,8.9,1.4,12.2a5.6,5.6,0,0,1-6.7,1.9c-2.7-.8-3.6-2.2-3.7-5s-.2-4.8-.5-7.2a10.1,10.1,0,0,0-5.2-7.8c-3-1.5-6.2-2.6-9.2-3.9l-1.8-.6Z"/><path class="cls-1" d="M78.8,409.1c7.2-.8,10.7,1.5,12.7,7a6.1,6.1,0,0,1,0,3c-.3,1.6-1.1,3-2.9,3.1s-2.8-1-3.5-2.5a10.2,10.2,0,0,1-1.1-2.9C83.3,413.7,82.4,410.7,78.8,409.1Z"/><path class="cls-1" d="M70.1,438c3.1.7,6.4-.2,9.5,1.4-.2,1.7-1.4,1.8-2.5,1.6C74.4,440.8,71.7,440.6,70.1,438Z"/></svg>