<?xml version="1.0" encoding="utf-8"?>
<!-- Generator: Adobe Illustrator 25.4.1, SVG Export Plug-In . SVG Version: 6.00 Build 0)  -->
<svg version="1.1" id="Layer_1" xmlns="http://www.w3.org/2000/svg" xmlns:xlink="http://www.w3.org/1999/xlink" x="0px" y="0px"
	 viewBox="0 0 440.2 576.4" style="enable-background:new 0 0 440.2 576.4;" xml:space="preserve">
<style type="text/css">
	.st0{fill:#FFFFFF;}
	.st1{fill:#231F20;}
	.st2{fill:none;stroke:#231F20;stroke-miterlimit:10;}
</style>
<path d="M338.3,183c16.5,7,31.3,17.5,43.4,30.6l2.6-3.5c3.5-4.6,7-9.4,10.6-14c1.2-1.5,1.8-3.5,1.4-5.4c-0.6-3.9-1.2-7.7-1.7-11.5
	c-0.1-1.5-0.2-3.1-0.1-4.6c0-1.3,0.8-2.5,2-2.9c1.1-0.5,2.1-1,3.2-0.1c0.8,0.8,1,2,0.6,3.1c-1.2,4.2,0.2,8.2,0.7,12.8
	c0.6-0.4,1.2-0.9,1.7-1.4c1.3-1.5,2.6-2.9,3.8-4.5c2.3-3.2,5.7-4.9,9.2-6.4c1.2-0.5,2.2-0.5,3,0.6s0.1,2.1-0.7,2.9
	c-3.2,3.5-6.5,6.9-9.7,10.3c-0.5,0.6-1,1.3-1.4,2.1l3,0.3h5.9c1.3,0,2.2,0.5,2.2,1.9s-1.1,1.8-2.3,1.8l-7.4,0.6l-6,0.5
	c-1.7,0.1-2.2,1.5-2.9,2.5c-3.5,4.6-6.8,9.2-10.2,13.9l-3.7,5l3.9,5c5.2,6.7,9.9,13.8,14,21.2c5.1,9.1,9.3,18.7,12.7,28.6
	c2.8,7.9,5,16,6.6,24.2c1.1,6.5,2.4,13.1,3.3,19.6c0.6,4.2,0.8,8.5,1.1,12.8s0.8,11.2,1.1,16.8c0.1,2.3-0.3,4.5-0.3,6.8
	c-0.4,18.4-3.7,36.5-9.9,53.8c-3.4,9.7-7.4,19.1-12.1,28.2c-0.2,0.6-0.4,1.3-0.5,1.9c0.9-0.4,1.6-0.5,2.1-0.8c5.3-2.9,11-4.9,17-5.9
	c9.5-1.4,15.1,3.5,15.6,12.1c0.2,6.2,0.1,12.6-2.4,18.5c-1.3,2.9-3.1,5.7-4.7,8.6c-2.6,4.5-5.3,9-8.1,13.4c-1.4,1.9-2.9,3.7-4.5,5.4
	c-6.1,7-12.1,14.1-20.2,19.1c-5.5,3.4-10.8,7-16.2,10.5c-0.3,0.2-0.7,0.4-1.1,0.6c-6.8,2.1-13.1,5.9-20.4,6.8
	c-4.7,0.8-9.4-0.1-13.6-2.3c-2-1.1-3.6-2.9-4.4-5c-1.6-3.7-1.2-7.6-0.4-11.4l0.3-1.8c0-0.2-0.2-0.3-0.4-0.6l-5.2,4.2
	c-4.1,3.3-8,6.7-12.2,9.8c-3.9,2.7-8.2,4.7-12.7,5.9l-19.6,6.2c-4.8,1.4-9.7,2.5-14.6,3.6s-7.5,1.5-11.6,2.3v6.5
	c-0.1,1.2-0.4,2.4-0.5,3.6s-1.1,4.2-3.4,5.4s-1.6,2.1-2.5,3.1c-3.1,3.8-6.5,7.3-11.6,8c-2.1,0.2-4.1,0.2-6.2,0.1l-3.8,7.1
	c-2.6,4.6-6.3,7-11.8,6.4c-2.3-0.3-4.7,0.2-7,0.4c-5.2,0.5-8.3-2.2-10.3-6.7c-0.7-1.6-1.3-3.4-2.1-5.6c-1,0.8-2.1,1.3-2.6,2.2
	c-2.1,3.7-5.7,4-9.3,4.2c-2.1,0.1-4.2-0.6-5.9-0.9s-0.8-2.4-1.5-2.9c-3.2-2.4-4-5.8-4.4-9.4c-0.2-2,0-4.1,0-6.4
	c-0.4-0.1-0.9-0.1-1.3-0.1c-5.5,0.9-11-1.1-14.5-5.4c-2.9-3.2-3.1-8-0.5-11.4c1.5-2.2,3.6-4,5.6-6.2c-0.6-0.4-1.2-0.7-1.9-1
	c-7.3-2.5-14.8-4.7-22.1-7.5c-16.1-6.3-31.3-14.7-45.2-24.9l-1.5-1c-0.1-0.1-0.4,0-0.6,0c0.1,4.2,0.7,8.5,0.2,12.6
	c-0.4,4.3-1.9,8.4-4.3,11.9l-2.2-1.8c-4.3,2.5-9.2,2.7-14.2,2.4s-10.4-2-15.4-3.8C56,510.5,45.9,504.2,36.4,497
	c-6.6-5.2-12.8-10.9-18.4-17.2c-6.1-6.4-11-13.9-14.5-22C1.6,453.5,0,449,0,444.2c0-8.9,5.3-14.6,13.4-16.4c5.7-1.3,11.4-0.5,17,0.9
	c6.4,1.7,12.5,4.2,18.2,7.4l4.6,2.4c0-0.7,0.1-1.2-0.1-1.5c-3.2-6.4-6.8-12.6-9.7-19.1c-2.6-6-4.9-12.2-6.9-18.5
	c-3-8.9-4.7-18.2-6.3-27.5c-1.8-12.6-2.3-25.3-1.3-38c0.6-9.8,2.2-19.6,4.6-29.1c3.4-13.8,8.4-27.1,15.1-39.6
	c5.7-10.8,12.3-21.1,19.9-30.6c6.2-7.8,13.1-15.1,20.5-21.7c0.3-0.2,0.5-0.6,1.1-1.2c-6.1-8.3-12.7-16.2-19.7-23.7
	c-0.7,2.6-1.3,4.5-1.8,6.4s-1.3,4.5-1.8,6.8c-0.2,1.2-1.2,2.1-2.4,2c-2.3,0.3-4.5-0.5-6.1-2.1c-1.1-1.3-2.8-2.1-4.5-2.2
	c-3.4-0.3-4.1-1.3-3.2-4.6s1.6-5.3,2.4-7.9s1.3-3.7,2-5.9l-13-5.6c0.8-0.8,2.1-1,3.1-0.4l7.3,2.7l3,0.9c1.4-2.2,2.3-4.6,2.7-7.2
	c-0.1-1.1-0.5-2.2-1.1-3.1c-0.9-1.8-2.1-3.5-3.1-5.3s-0.5-2.6,0.8-3.4s2.4-0.6,3.4,0.9s1.1,1.5,1.6,2.2s0.4,0.2,0.9,0.4
	c1.8-4.7,3.6-9.4,5.3-14c-6-4.3-11.5-8.5-14.5-15.1c-5.6-11.7-2.7-25.7,7-34.3c9.5-8.4,20.5-10.7,32.4-6.6s17,12.1,19.1,23.3
	c0.9,5.4,1,10.8,0.1,16.2c-1,6.5-4.3,11.4-9.1,15.6c-1.3,1.1-2.8,2-4.1,3.1s-5.4,2.7-8.4,3.4s-7.4,2.4-8.8,6.6s-2.7,6.5-3.8,9.8
	c-0.5,1.7-0.8,3.5-1,5.3c-0.1,1,0.2,2-0.1,2.8c-0.9,2.6,0.2,4.6,1.6,6.5l14.8,19.7l3,3.5c11.9-9.8,24.8-18.4,38.6-25.4
	c-2.4-3.4-4.9-6.5-6.9-9.7c-3.7-5.6-6-12-7-18.6c-0.4-3.1-0.3-6.3,1.2-9c3-5.9,7.1-7.4,13.9-5.9c4.4,1,8.5,3.3,11.7,6.5
	c4,3.8,7.7,7.7,9.9,12.8c1.3,3,2.2,6.1,3.2,9.2c0.4,1.1,0.5,2.2,0.8,3.2c3.2,0.2,3.4,0,4.2-2.9c0.7-2.4,2.3-4.4,4.5-5.6l1.6-0.9
	c-0.2-0.5-0.2-0.8-0.4-1l-8.6-7.3c-4.7-3.9-8-8.5-8.3-14.9c-0.1-2.7-0.8-5.5-0.5-8.2c0.5-6.9,1.8-13.6,4.1-20.1
	c0.6-1.8,1.2-3.7,1.9-5.5c0.6-1.1,0.2-2.5-0.9-3.2c-1.7-1.2-3.4-2.4-5.1-3.4s-5.4-1.1-7.2,1.6s-1.2,2.6-1.9,3.9
	c-0.5,0.6-1,1.2-1.5,1.8c-0.3-1.1-0.7-1.6-0.6-2.2c0.4-3.3,2.6-6.2,5.7-7.5c3-1.3,5.7,0,8.2,1.8l4.5,3.5l8.6-14.2
	c-1.3-0.3-2.7-0.5-4.1-0.5c-5.3,0.1-8.5-3.1-11.3-7c-0.8-1.1-0.8-2.7,0-3.8c0.9-1.2,1.9-2.3,3.1-3.2c0.9-0.6,1.3-1.6,1.3-2.6
	c-0.2-6.4,0.4-9.3,6.1-12.3l4.6-2.4l-2.4-1.8c-1.8-1.2-3.3-2.4-3.2-5.1s-1.1-2.8-1.7-4.2c-1.8-3.8-0.6-7.2,1.7-10.3
	c3.7-5.1,9.2-7.4,15-8.8l2.4-0.7c1.1-0.3,2-1.2,2.2-2.3c1.3-5,3.7-9.6,6.8-13.7c0.2-0.2,0.3-0.5,0.6-0.7s1.5-2.1,2.7-1.4
	s0.8,1.7,0.9,2.6c0.1,1.3,0.1,2.7,0,4c2.6-1.4,4.9-1.8,6.3-3.9c1.1-1.6,3-2.6,5-2.4h4.4c2.8-0.1,5.5,0.8,7.6,2.7l2.5,2
	c0.5-0.4,1-0.8,1.4-1.3c7.1-10.5,20.8-12.5,31.3-7.5c2,1,4,2.1,6,3c6,2.9,8.1,8.1,8.9,14.2c0.1,1.3,0.1,2.6,0.2,4.1
	c0.9,0,1.7,0,2.6-0.2c2.4-0.5,4.8-0.9,7.2,0c0.9,0.1,1.9,0,2.8-0.2c-0.1-6-2.6-10.8-5.5-15.7c3.2-2,6.2-1.2,9.1,0.1s7,5.6,9.3,9.6
	s5,10.7,5.3,16.8c0.1,2.4,0.9,4.7,3.9,5.2c0.6,0.1,1.2,0.3,1.6,0.8c2.3,2.5,4.6,5,6,8.2s0.1,6.4-0.4,9.6c-0.2,1.2-0.6,2.3-1,3.8
	c4.7,0.9,8.5,2.7,9.5,7.7s1.6,8.5-2.4,12c0.4,0.6,0.9,1.1,1.4,1.6c2.9,2.9,2.9,6.2,0.1,9.2c-0.4,0.6-0.7,1.3-0.8,2.1
	c-0.1,0.4,0.1,0.8,0.1,1.2c0.2,2.1-0.1,3.9-2.6,4.4c0,2.1,1.7,3.1,2.6,4.5s1.3,0.3,1.9,0.1s2.2-1.1,3.4-1.6c2.8-1,4.5-0.2,5.2,2.8
	s0.7,4.2,1,6.3s0.1,2.1-1.2,2.1s-1.4-0.8-1.7-1.4c-0.6-1.5-1.1-3.1-1.5-4.7c-0.4-2-0.9-2.6-2.1-2.3s-3.2,2.1-3.1,3.3
	s0.3,1.2,0.4,1.8c0.4,2.5,0.7,5,1.1,7.5s0.3,2.3,0.4,3.4c0.2,1.3,0.3,2.6,0.2,3.9c-1.4,7.8-2.3,15.6-5.2,23
	c-0.8,2.2-1.7,4.4-2.6,6.6c-1.4,3.3-3.7,6.1-6.7,8.1c1.1,1.6,2.5,3.1,3.1,4.8s0.6,3.5,0.8,5.7c1.1-0.7,1.2-1.7,1.5-2.6
	c1.4-4.4,3-8.7,5.9-12.4s7.8-7.7,13.3-8.9c2.6-0.4,5.2,0.5,7.1,2.3c3.7,3.1,5,7.3,5.3,12C341.9,170.8,340.8,177.2,338.3,183z
	 M303.2,171.5c-0.4-2.7-1.4-4.2-3.5-4.9s-4.4,1-5.2,2.4s-1.8,1.9-3.5,1.4c-1.3-0.3-2.6-0.4-3.9-0.1c-4.1,0.6-8.3,1.2-12.3,2.2
	c-6.1,1.5-12.4,1.6-18.6,1.8s-15.5,1.2-23.3,0.3s-12.6-0.5-19-0.8c-3.5-0.2-7.1-0.4-10.7-0.8c-2.6-0.2-5.3-0.6-7.8-1.4
	c-6.6-2.1-13.2-4.5-19.7-6.9c-1.5-0.6-3.4-1-4,0.1s-4.5,4.1-3.2,7.7c0.6,1.8-0.4,2.5-2.3,2.7c-1.1,0.1-2.1,0.3-3.1,0.8
	c-11.3,6.6-21.8,14.5-31.2,23.5c-4.5,4.3-8.7,9.2-12.9,14c-8,9.3-14.8,19.6-20.3,30.6c-8.4,16.3-14.2,33.7-17.1,51.8
	c-1.5,8.6-1.9,17.5-2.4,26.2c-0.2,4.2,0.4,8.4,0.5,12.6c0.3,8.5,1.3,16.9,3.1,25.2c2.9,14.4,7.5,28.3,13.7,41.6
	c6.7,14.1,15.3,27.3,25.5,39.1c7.6,8.8,16.1,16.7,25.4,23.5c7.7,5.8,16,10.8,24.7,15c6.7,3.1,13.6,5.8,20.6,8.1
	c11.3,3.7,23,5.9,34.9,6.4c8.6,0.5,17.3,0.2,25.8-1c7.4-1,14.7-2.5,21.9-4.5c12.4-3.6,24.3-8.9,35.3-15.7c8.2-5.2,16-11.1,23.2-17.7
	c25.1-23.7,42.3-54.5,49.3-88.3c2.4-11.7,4.1-23.5,3.9-35.6c-0.1-5.4-0.2-10.8-0.6-16.2c-0.1-4.6-0.6-9.2-1.3-13.8
	c-1.4-7.4-2.9-14.8-5-22.1c-2.4-8-5.2-15.8-8.4-23.4c-4.5-10.5-10.1-20.4-16.7-29.7c-5.5-7.7-11.5-15-18.1-21.7
	c-5.8-5.8-12-11.2-18.6-16.1c-3.7-2.8-7.5-5.3-12.3-6c-0.8-0.1-1.6-0.3-2.3-0.7c-0.7-0.5-1.6-1.3-1.6-1.9s-0.8-1.8-1.7-2.2l-2.6-1
	c-1.6-0.8-1.8-2-0.4-3.1C298.9,171.3,301.2,170.8,303.2,171.5L303.2,171.5z M55.1,431.4c3,4.8,5.8,9.3,8.8,13.7
	c0.4,0.7,1.2,1,1.9,1.5c3.1,2.3,6.6,4.2,9.5,6.8c9.3,8,16.3,18,22.6,28.5c0.5,1,1.2,1.9,2,2.7l6.6,5.1
	c14.5,10.8,30.3,19.6,47.1,26.3c11.8,4.7,24.1,8.2,36.6,10.6c6,1.2,12.1,1.9,18.2,2.7c3.6,0.6,7.3,0.8,11,0.8
	c9.3-0.2,18.6,0.7,27.9-0.6c2.4-0.4,4.6-0.6,6.7-1.8c2.5-1.2,5.2-1.9,8-1.9c3.6-0.1,7.1-0.6,10.6-1l0.6-0.2l22.3-5.6
	c7.3-2,14.4-4.7,21.2-8c8.6-4,16.8-8.6,24.7-13.8c4.8-3.2,9.7-6.2,12-11.9l0.4-0.5c4.7-7.1,9.9-13.9,15.7-20.1
	c1.9-1.9,3.8-3.6,5.9-5.3c1.7-1.5,3.6-2.6,5.3-4.1l8.3-7.4c0.5-0.4,1-1,1.3-1.6c1-2.2,1.9-4.5,2.8-6.7s0.7-2,1-3l-0.6-0.4
	c-1,0.7-2,1.3-3.1,1.8c-1.3,0.7-2.9,0.7-4.1-0.1c-1.4-0.9-1.6-2.2-1.1-3.8c0.2-0.7,0.4-1.4,0.4-2.1c0-0.7,0-1.4-0.1-2.1l-3.9,1.9
	c-2,0.8-4.1,0.8-5.7-0.8s-0.9-3-0.3-4.6c0.4-1.1,0.7-2.2,0.9-3.3c0-0.7,0-1.3-0.1-2c-1.5,1-2.6,1.9-3.9,2.6
	c-1.1,0.7-2.4,1.1-3.7,1.2c-1-0.1-2-1-3.1-1.6s-1,1.4-1.5,2.2c-5.9,9.3-12.7,17.9-20.3,25.8c-4,4.2-8.5,7.9-12.9,11.8
	c-5.7,4.9-11.7,9.3-18.2,13.1c-10.8,6.6-22.3,11.9-34.4,15.6c-11,3.5-22.5,5.5-34,6.1c-9.4,0.6-18.9,0.2-28.2-1
	c-7.5-0.9-15-2.4-22.3-4.5c-12.4-3.6-24.3-8.8-35.5-15.2c-11.1-6.5-21.4-14.1-30.8-22.9c-7.1-6.7-13.5-14.1-19.1-22
	c-3.8-5.3-7.1-10.8-10.7-16.2c-0.6-0.9-1.3-1.7-2.3-2.2c-2.1-0.7-4.3-1.1-6.5-1.6l-4.9-1.1l-0.5,0.6c1,1.7,1.8,3.5,2.9,5
	c1,1.4,1.1,3.2,0.4,4.7c-1.2-0.2-2.3-0.5-3.5-0.8l-6.6-3.2c-2.2-0.9-3.2-0.5-3.9,1.9c-0.4,1.5-0.6,3-0.7,4.5
	c-0.2,2.2-1.3,3.1-3.5,2.4c-0.7-0.3-1.4-0.6-2-0.9l-6.5-3.1c-1.3,1.6-1.4,1.6-1.4,3.4S58,430.1,55.1,431.4z M295.2,85.5
	c-0.6,2.2-1.2,4-1.7,5.9c-0.8,3,0.5,6.1,3.1,7.7c1.3,0.9,2.4,0.7,3.3-0.8c0.4-0.7,0.8-1.4,1.1-2.2l1.9-2.4l0.9,0.5
	c0.2,0.5,0.3,0.9,0.4,1.4c0.1,0.7,0.2,1.5,0.4,2.2c0.6,1.7,2.4,2.5,4.1,1.9c0,0,0.1,0,0.1,0c1.6-0.4,2.2-1.5,1.7-3.4
	c-0.2-1-0.7-1.9-1.3-2.7c-0.7-1.1-0.6-1.9,0.2-2.6h3c1.8-0.2,3.2-1.7,3-3.6c0-0.2-0.1-0.4-0.1-0.6c-0.7-2.2-2.6-3.8-4.9-4
	c-0.7-0.1-1.4,0.1-2.1,0s-2.2-1.3-1.2-2.8s3.9-5.2,5.8-7.9c0.5-0.5,0.7-1.2,0.7-1.9c-0.1-4-5.6-7.5-9.2-5.9
	c-1.3,0.6-2.4,0.8-3.5,0.1c0.5-1.3,1-2.6,1.3-3.9c0.3-2.7,0.5-5.5,0.7-8.2c0.1-1.5-0.2-3.1-1.1-4.4c-0.7-1.3-1.2-2.8-1.4-4.3
	c-0.1-1.6-0.8-2.1-2.5-2.2c-0.5,1.3-0.8,2.6-1,3.9c-0.4,2.4-0.4,4.9-0.8,7.3c-1,4.9-3,9.6-6,13.6c-0.8,1-1.7,1.9-2.6,2.7
	c-1.3,0.8-2.9,0.5-3.9-0.6c-0.9-1.2-0.1-1.9,0.6-2.7s0.7-1.2,1.1-1.8l-1.2-1.5l-12.5-10.9c-0.7-0.8-1.9-0.8-2.7-0.1c0,0,0,0,0,0
	l-2.4,1.5c-0.8,0.6-2,0.5-2.7-0.4c0,0,0,0,0,0c0.5-0.6,1-1.1,1.6-1.5c1.2-1,2.6-1.8,3.7-2.8c5.9-5.2,8.7-12,9.9-19.6
	c0.3-1.5-0.3-2.4-1.9-2.9s-8.5-0.1-11.2,2.3c-0.7,0.8-1.8,1-2.8,0.6c-1-0.3-1.7-1.4-1.4-2.4c0.4-3.5-1.1-6.7-2.3-9.8
	s-2.5-5.8-5.6-7.4c-1.6-0.8-2.9-1.9-4-3.3c-1.2-1.6-3-2.6-4.9-2.8c-2-0.3-4.1-0.5-6.1-0.6c-8-0.3-13.6,3.7-18.2,9.7
	c-0.8,1-1.2,2.4-0.9,3.7c0.1,1.3,0,2.5-0.1,3.8c-0.8-0.2-1.6-0.6-2.4-1c-0.7-0.7-1.4-1.5-2-2.3c-4.1-5.3-15.4-6.3-20.4-2
	c-1.2,1-1.7,2.7-1,4.1c3.3,11.2,9.8,21.2,18.6,28.8c1.3,1.1,2.6,2.3,3.8,3.6c0.5,0.7,0.7,1.6,0.5,2.5c-0.6,0.6-1.5,0.8-2.3,0.7
	c-0.9-0.1-1.8-0.5-2.5-1.1c-0.9-0.7-2.3-0.7-3.1,0.2l-12.4,8.9c-1.3,1-1.3,1.5-0.3,2.8s1.9,0.9,1.6,2.6c-2.8-0.2-4.8-1.9-6.5-3.6
	c-4.1-4-7.3-8.9-9.2-14.4c-1.9-5.4-2.6-11.2-2.2-16.9c0.2-2,0.5-4.2-0.4-6.5c-5.5,1.6-10.4,3.7-14.4,7.9c-2.2,2.4-3.3,4.9-2.8,8
	c0.2,1.5,0.8,3,1.7,4.2c0.4,0.7,1.7,0.8,2.5,1.3c3.4,1.7,6.3,4.3,8.5,7.4c0.2,0.1,0.2,0.3,0.3,0.5s-0.3,2.1-1.6,1.9
	c-5.9-1-10.2,1.7-13.6,6.2c-0.7,0.7-0.8,1.8-0.1,2.5c0.1,0.1,0.1,0.1,0.2,0.2c2.2,2.1,1.7,5,2.5,7.4c-0.5,0.4-0.7,0.6-0.9,0.6H159
	c-3,0-5.6,2.5-4.7,4.7s2.4,3.7,4.7,4c1.7,0.4,3.5,0,4.9-1c3.7-2.6,8.3-2.6,12.7-3.1c0.6-0.1,1.2,0.3,1.8,0.4c0.1,2-1.1,2.8-2.1,3.8
	s-1.2,2.8,0.4,3.8s5.9,0.4,6.3-3.1c0.2-1.4,0.4-2.6,2.7-2.4c0.1,1.2,0.1,2.4,0,3.6c-0.4,2.5-0.5,2.5,1.6,3.8c1,0.7,2.1,1.3,3.3,1.7
	c0.6,0.2,1.6,0.3,2-0.1c2.1-1.9,5.2-2.4,6.6-5.3c0.5-1.1,1.5-1.2,2.6-0.2l-0.3,1.7c-0.4,2.5,0.2,3.2,2.7,3.4h3.6
	c2.4,0.5,4.8-0.8,5.8-3.1c0.5-0.8,0.8-1.9,1.3-2.7s1.2-0.9,1.8-1.4c0.5,0.5,0.9,1.2,1.1,1.9c0.5,4.7,2,5.5,6.1,3.1h0.3
	c2.8-3.1,5.9-6,7-10.3c0.4-1.9,0.8-3.8,1.4-5.6c0.4-1,0.3-3.1,2.3-2.7s1.4,2.2,1.2,3.4c-0.5,4.3,2.2,6.5,5.5,8.4s5.5,0.7,8.3,0.2
	c0.6-0.1,1.6-0.2,1.9,0.2c0.3,0.6,0.3,1.3,0,1.9c-0.1,0.8-0.7,1.5-0.6,2.2c0.3,2.5,1.9,4.2,3.6,5.9s2.7,0.5,4.1,0.4h7.3
	c2.7-2.3,1.1-6.4,5-7.8c0.3,1.2,0.6,2.5,0.7,3.8c0,3.7,2.1,4.8,5.4,5.1c5.9,0.6,11.3,0.4,14.6-5.7C292.6,85.2,293.6,84.9,295.2,85.5
	z M70,242.1c-2.3,0.8-4.2,2.4-5.4,4.5c-4.1,6.7-8.4,13.4-12.1,20.3c-6.8,12.5-11.8,25.9-15,39.8c-1.3,5.2-1.9,10.5-2.9,15.7
	c-1.2,6.4-1.8,13-1.8,19.5c0,5.7,0.2,11.5,0.5,17.2c0.2,4.5,0.7,9,1.5,13.4c1.4,8.6,3.4,17,5.9,25.3c3,9.2,6.7,18.1,10.9,26.8
	c0.4,0.8,1,1.5,1.4,2.2h0.7c0.3-1.3,0.5-2.7,0.8-4.1c0.7-3,3.6-4.9,6.7-4.3c0.3,0.1,0.6,0.2,0.9,0.3l5.4,2c1-2.8,2.2-5.2,4.7-6.8
	s5.2,0.2,8.1,0.6c-0.1-0.8-0.2-1.5-0.2-2.3c0.1-2.3,1.1-3.4,3.4-3.3c1.2,0.1,2.4,0.3,3.6,0.6l5.5,1.7c0.7,0.1,1.5,0.1,2.2,0
	l-1.1-2.5c-2.7-6.1-5.7-12.1-8-18.3c-7.2-18.8-11.1-38.6-11.5-58.7c0-5-0.1-10.1,0.1-15.1c-0.1-3.4,0.1-6.8,0.6-10.1
	c0.9-6.4,1.8-12.7,3.1-19s2.9-11.5,4.7-17.2s3.5-9.8,5.3-14.7c0.8-2.1,1.2-4.1-0.4-6.6c-1,1.3-2,2.7-2.9,4.1c-0.5,1.3-1.7,2.1-3.1,2
	c-1.4-0.2-2.5-1.1-2.9-2.5c-0.4-1.5-0.7-3.1-1.2-4.9c-0.4,0.2-0.8,0.5-1.2,0.8c-1.1,1-2.2,2.1-3.8,1.2c-1.6-0.6-2.5-2.2-2.3-3.9
	C70.2,244.6,70.2,243.3,70,242.1z M161.1,105.7c-0.4,0.7-0.7,1.4-1,2.1c-0.9,2.7-1.9,5.4-2.6,8.2c-1.9,7.6-3.8,15.3-2,23.2
	c1.3,6,4.4,11.4,8.9,15.5c4.2,3.9,9.1,7.1,14.4,9.3c4.5,1.9,9.2,3.4,13.9,4.6c4.5,1.1,9,1.8,13.6,2.1c3,0.3,6.1,1,9-1
	c0.8-0.3,1.6-0.4,2.4-0.2c2.5,0.2,5.1,0.4,7.6,0.8c5.3,1,10.7,1.5,16.1,1.4c4.4-0.2,8.8,0.5,13.2-0.7c1.9-0.6,4-0.8,6-0.8
	c4.5,0,8.8-1.1,13-2s8.8-2.2,13-3.5c3.3-0.8,6.5-2.1,9.4-3.8c6.5-4,10.5-10.2,13.1-17.3c3.1-8.8,4.5-18.2,4-27.5
	c-0.1-0.9-0.2-1.7-0.3-2.6h-0.9c-3.9,3-7.8,6-11.6,9.1c-0.4,0.3-0.7,0.7-0.9,1.2l-3,9.7l3.6,0.9c1.9,0.6,3.8,1.2,5.7,2
	c1.8,0.9,1.8,1.4,1.2,3.9c-0.8,0.1-1.6,0.1-2.4,0c-3.4-1.4-6.9-0.8-10.3-0.3c-8.4,1-15.7,4-19.6,12.3c-0.3,0.4-0.7,0.8-1.2,1.1
	l-1.7-2.1l-1.5,3.6l-0.7-0.2c-0.2-0.8-0.2-1.7-0.1-2.5c0.4-3.4,0.3-3.6-3-4.4l-1.2-0.3c-11.3-3.8-17.6-12.2-20.8-23.2
	c-1.3-4.5-1.8-9.3-1.5-14c0.2-1.8-0.8-3.4-2.5-4.1c-2.9-1.6-6-1.3-9.1-1.1s-5.3,1.8-4.8,6c0,0.1,0,0.2,0.1,0.3
	c0.6,3.9,0.1,7.8-1.2,11.5c-0.3,0.9-0.6,1.9-0.8,2.8l3.4-1.1c4.9-1.5,10.8,0.6,13.2,4.8c0.7,1.4,1.2,2.8,1.5,4.3c1,4.7-1,8.9-5,11.6
	c-2.2,1.4-4.6,1.1-6.9,1.1c-4.8,0.2-9.1-2.7-10.7-7.2c-0.5-2-0.9-4-1.2-6c-2.5,2.1-5,4.6-7.8,6.7s-6.5,2.7-10.2,3.3
	c1,2.2,2,4.2,2.7,6.2s1.3,4,0.3,6.1c-2.5,0-2.8-0.2-3.7-2.3s-1.6-4.4-2.6-6.6s-1.8-3.3-3.7-3.9c-1.8-0.8-3.3-2.1-4.4-3.7
	c-2.1-2.7-5-4.7-8.3-5.5c-2.1-0.6-4.2-0.8-6.4-1.2c-1.7-0.3-3.5,0-5,0.9c-1.5,1.1-3.2,0.9-5.3,0c3.1-4.7,8.3-3.3,12.1-4.6
	c-1.4-4.7-2.7-9.2-4.1-13.6c-0.2-0.8-0.7-1.5-1.3-2c-2.3-2-4.6-3.8-7-5.7C163.2,106.7,162.2,106.2,161.1,105.7L161.1,105.7z
	 M85.6,514.1c2.8,0.3,5.6-0.2,8.2-1.4c1.2-0.7,2.7-1.5,2.6-3.1s-0.3-6.3-1.3-9c-2.3-5.9-5.1-11.7-7.9-17.4
	c-4.5-9.1-10.6-17.3-17.9-24.3c-4.6-4.5-9.4-8.7-13.7-13.4s-7.6-5.8-11.9-7.9c-1.8-0.9-3.7-1.7-5.6-2.4c-7.2-2.5-14.2-4.9-22.1-3.8
	s-12.4,8.9-10.6,16.2S11.8,464,17.2,471c6.7,8.7,14.6,16.5,23.3,23.2c9.9,7.6,20.6,13.9,32.5,17.7C77,513.4,81.3,514.2,85.6,514.1z
	 M370.9,419.3l0.6,0.3l3.4-2.5c1.2-0.9,2.4-2,3.7-2.8s3.5-0.4,3.6,1.9c0,1.3-0.1,2.6-0.3,3.9c-0.4,2.3-0.9,4.5-1.4,7.3l5.7-3
	c2.4-1.3,4.8-0.5,4.6,2.8c-0.3,1.7-0.2,3.4,0.3,5c1.6-1,2.9-2.2,4.4-2.5c1.7-0.4,3.1-1.7,3.5-3.4c4.1-9.2,7.3-18.7,9.8-28.4
	c1.2-5.4,2.3-10.9,3.3-16.4c0.7-3.7,0.7-7.5,1.4-11.2c1-5.4,1.1-10.9,1.4-16.4c0.1-4.5,0-9-0.5-13.5c-0.4-6.1-1-12.1-1.6-18.2
	c-0.8-6.9-2-13.7-3.5-20.4c-2.6-11.4-6.1-22.6-10.4-33.4c-0.4-1-0.6-2.3-1.8-2.9c-2.2,4.3-4.4,4.7-7.9,1.6l-1.5-1.1
	c-0.8,0.9-1.3,1.9-2.2,2.3s-1.8,2.7-1.3,4.7c1.9,7.6,3.8,15.2,5.3,23c1,4.8,1,9.7,1.9,14.5s0.6,11.5,0.8,17.2
	c0.1,5.7-0.2,11.4-0.9,17.1c-0.6,6-1.4,12-2.4,17.9c-2.4,14.2-6.8,28-12.9,41C373.7,408.8,373,414.2,370.9,419.3z M349.3,513.9
	c0,2.4,1.8,4.7,6.4,5.7c1.6,0.3,3.3,0.4,4.9,0.2c4.8-0.5,9.4-2,13.6-4.3c10.9-5.3,20.2-12.8,29-21.1c3.4-3.5,6.7-7.2,9.7-11
	c3.1-3.5,5.7-7.4,7.8-11.6c1.6-3.5,3.7-6.6,5.5-9.9c1.8-3.1,3.4-6.4,4.7-9.7c1.4-3.4,1.7-7.1,1.1-10.7c-1.2-6.4-3.8-8.1-10.2-6.7
	s-14,5.1-20.5,8.9c-0.8,0.5-1.4,1.1-1.9,1.9c-1.1,1.6-2.1,3.3-4.4,3.3c-0.2,0-0.5,0.3-0.8,0.5c-6.1,3.5-11.8,7.4-16.5,13
	s-11,12.9-15.6,20.1c-3.3,5.1-6.5,10.2-9.3,15.6S349.3,506.8,349.3,513.9L349.3,513.9z M260.2,536.6c-3-1.1-5.5-2.1-8.1-2.9
	c-1.4-0.3-2.9-0.5-4.3-0.4c-5.4,0.3-10.8,1-16.2,1.1s-9.2-0.4-13.8-0.7s-11.2-0.5-16.8-1.3c-6.3-0.8-12.5-2-18.6-3.5
	c-2.6-0.7-5.4,0-7.3,1.9c-1,0.8-2,1.8-2.8,2.8c-1.7,2.3-2.5,4.8-1.1,7.5s3.2,4.7,6.6,4.5c1.8-0.1,3.5,0,5.3,0s4-0.4,5.4-2.2
	c0.4-0.6,1-1,1.7-1.3c1.9-0.7,3,0.1,3,2.1s-1.5,3.6-3.2,4.5c-1.2,0.6-2,1.8-2.1,3.1c-0.5,3.2-0.1,6.4,1.2,9.4
	c1.5,3.2,4.3,4.3,7.8,3.8s5.7-3.4,7.5-6.2c1.6-2.3,2.4-5,2.2-7.8c-0.2-2.1,0.5-3.1,2.4-3.5c1.4-0.3,2.8,0.5,3.1,1.9
	c0,0.2,0.1,0.4,0.1,0.6c0.5,3.1,0.9,6.3-0.4,9.3c-0.5,0.8-0.6,1.8-0.5,2.7c0.8,2.7,2,5.4,3.3,7.9c1.4,2.8,4.6,4.3,7.6,3.4
	c3.9-0.6,7.3-2.8,9.5-6.1c0.5-1,1.1-2,1.8-2.9c2.1-2.3,3.5-5,4.2-8c0.3-1,0.8-1.9,1.5-2.6c1.8-1.8,4.2-1.2,4.7,1.2
	c0.3,1.8,0.4,3.5,0.5,5.3c0.7,0.3,1.4,0.5,2.2,0.6c1.8-0.3,3.6-0.8,5.3-1.3c1.2-0.4,0.9-1.7,1.1-2.6c0.2-0.6,0.5-1.1,0.8-1.6
	c1.2-1.6,2.6-3,3.8-4.5c0.4-0.7,0.8-1.4,1.1-2.1c0.5-1.8,0.5-3.7,1.1-5.4C260.4,541.1,260.6,538.8,260.2,536.6L260.2,536.6z
	 M82.1,139.4l-11.4-23.8l0.5-0.3l1,1.4c2.6,5.5,5.3,10.9,7.9,16.3c0.5,1.2,1.1,2.4,1.9,3.5c2.3,3.3,3.2,3.4,6.6,1.2
	c7.1-4.5,10.3-13.1,8-21.1c-2.2-7.9-7.5-12.5-15.4-14.1c-0.3-0.1-0.7,0.2-1.5,0.4c3,8.2,8,15.5,10.2,23.8
	c-4.3-7.7-8.1-15.6-11.4-23.7c-1.2,0-2.4,0.1-3.5,0.4c-3.4,1.3-6.8,2.8-10,4.5c-1,0.6-1.4,2.5-2.1,3.8h-0.3
	c-0.6,0.9-1.2,1.9-1.6,2.9c-3.4,9.9,1.8,20.7,11.7,24.2c0.2,0.1,0.5,0.2,0.7,0.2c0.9,0.2,1.7,0.3,2.6,0.3c-3-6-6-11.5-8.1-17.3
	c1.2,1.7,2.3,3.6,3.2,5.5c2,3.6,3.9,7.2,6,10.7S79.4,140.4,82.1,139.4z M270.2,95.6c2,0.2,4,0.5,5.9,1c10.6,3.4,16.5,14.8,13,25.4
	c-0.9,2.9-2.5,5.5-4.5,7.7c-3.8,4-9,6.3-14.5,6.3c-6.1,0.2-11.1-2.5-15.3-6.8c-6.7-7-7-18-0.7-25.4c2-2.4,4.4-4.4,7.2-5.8
	c0.9-0.4,2-0.7,1.5-1.8c-2.9-0.8-5.5-1.6-8.2-2.2c-0.5-0.2-1-0.2-1.5,0c-3.6,1.8-7.2,3.6-7.3,8.5c0,1.8,0.3,3.7-0.1,5.4
	c-1,4-0.5,7.9,0,11.9c0.4,3.8,1.5,7.4,3.2,10.8c3.5,7.1,8.7,12.3,16.5,14.6c3.1,0.9,6.3,0.9,8.7-1.5c4-4.1,8.4-7.5,14.1-8.8
	c1.4-0.3,2.6-1.3,3.2-2.6c3.1-6,5-12.1,4.2-19.1c-0.5-3.9-1.5-7.8-3-11.5c-1.5-3.5-4-4.8-7.8-4.4c-1.6,0.3-3.2,0-4.7-0.7
	c-2-1.1-4-2-6.1-2.8C271.8,92.9,271.8,92.9,270.2,95.6z M222,110c-0.1-1.9-0.1-3.9-0.3-5.8c-0.3-4.3-2.4-8.2-5.9-10.7
	c-0.7-0.6-1.6-0.9-2.5-0.7c-2.7,0.4-5.5,0.3-8.2-0.3c-8.9-1.9-17.3,0.1-25.2,4.2c-4.3,2.2-5.7,6.6-5.5,10.9c0,3.6,0.4,7.2,1.2,10.8
	c0.8,3.2,2.5,6.2,3.9,9.3c1,2.2,2.9,3.8,5.1,4.6c3.2,1.5,6.3,3.4,9.4,5.1c0.9,0.6,2,1,3.1,1.2c2.5-0.1,4.9-0.3,7.4-0.6
	c1.2-0.1,2.4-0.4,3.5-1c4-2.9,7.7-6,10.1-10.5S222.6,116,222,110z M155.7,173.1c-1.1-1.6-1.9-2.6-2.6-3.7c-2-3-4.3-5.8-5.9-8.9
	c-2.7-5.4-6.6-10.1-11.3-13.9c-1.8-1.4-3.9-2.4-6.1-2.9c-2.8-0.8-4.9,0.5-6,3.3c-0.5,1.3-0.8,2.8-0.8,4.2c-0.1,3.8,0.5,7.5,2,11
	c2.5,7,6.9,12.9,11.3,19L155.7,173.1z M72.2,236.5c3.2,1.2,1.7,4.2,2.7,6.5c0.9-0.5,1.8-1.1,2.7-1.8c1.1-0.9,2.2-1.8,3.6-1.1
	s0.9,2.4,1,3.6s0,3.4,0,5.7c1.9-1.8,3.1-3.1,4.5-4.2s2.4-0.9,3.3,0.9c0.3,0.6,0.6,1.1,1,1.6l12.3-21.4l-11-11.3
	C85.1,221.9,78.2,228.6,72.2,236.5z M96.5,211.3c2.8,4.4,6.6,7.1,10,10.8c13.4-18.9,30.6-34.8,50.5-46.6
	C134.8,183.6,114.3,195.8,96.5,211.3z M243.7,104.2c-0.8-3.7,1.6-5.7,3.9-7.8l4.4-3.8l-3.3-8.5c-4.3-0.3-8.7-1.1-12.1-4.7
	c-0.4,0.7-0.8,0.9-0.9,1.3c-1.6,4.3-4.1,7.5-9.2,7.7c-0.8,0-1.5,0.6-2.3,0.7s-3.9,1.9-6.1,0.3c-0.2-0.1-0.9,0.5-1.9,1.1
	c1.1,0.3,2.2,0.7,3.2,1.2c0.6,0.3,1.2,0.7,1.7,1.2c1.1,1.4,2,3,3,4.5c1.1,1.3,1.7,2.8,1.9,4.5c0,0.7,0.6,1.4,0.9,2.2
	c2.9-0.4,5.5-1.2,8.1-1.2S240.3,103.7,243.7,104.2z M85,147.1h1.3l1.5-0.4c4.9-1.8,9.1-5,12.2-9.1c5.2-6.9,6.6-16,3.8-24.2
	c-2.2-7.3-6.6-13-13.5-16c-9.3-4.2-18.4-3-26.7,3.1c-6.5,4.6-10.5,11.9-11,19.8c-0.6,6.8,1.7,13.6,6.2,18.8c1.5,1.9,3,4.1,6.2,5
	c-0.7-1.2-1.3-2-1.7-2.9s-0.9-1.8-0.7-2.3s-0.1-2.1-0.9-2.9c-6.4-6.6-7.4-16.7-2.5-24.4c1.4-2.1,3.4-3.8,4.7-6s4.1-4.2,6.9-5.3
	c4.4-1.7,8.8-2.7,13.4-1.4s7.2,2.3,10.1,5c5.3,5,7.7,11,7.7,18.4c-0.2,9.4-6.2,17.7-15,20.8C84.5,143.9,84.5,143.9,85,147.1z
	 M392.1,264.6l0.8-0.2c0.5-2.4,2.6-4.5,1.1-7.4c-4-7.6-8.4-15.1-13.2-22.2c-1.2-1.7-2.5-3.3-3.8-4.9c-2.2,3.3-4.2,6.1-6,9.1
	c-0.2,0.8-0.2,1.6,0.2,2.3c4,7.6,7.5,15.5,10.4,23.6l0.9,1.8c1,0.1,1.8-0.7,1.9-1.7c0,0,0-0.1,0-0.1c0.1-0.8,0.1-1.6,0.2-2.5
	c0.1-1.1,0.9-2.1,2-2.4c1.2-0.3,2.4,0.2,2.9,1.3C390.3,262.5,391.1,263.6,392.1,264.6z M329.6,180.3c0.3-0.9,0.6-1.7,0.8-2.6
	c0.5-4.6,1.5-9.2,2.9-13.7c0.8-2.1,1-4.4,0.4-6.6c-1.1-3.4-3.1-4.6-6.5-3.4c-0.7,0.2-1.3,0.6-1.9,1c-6.2,3.7-10.1,9.5-12.7,16
	c-2,4.9-1.9,5,3,6.8l0.9,0.3c1.2,0.4,2,0.1,2.4-1.1s1.3-3.2,2.1-4.8s2.7-6.2,4.1-9.2c0.5-1.2,1.1-2.3,2.7-1.9c0.8,1,0.8,2.4,0.1,3.5
	l-4,9.3c-0.6,1.5-1.2,3-1.8,4.7L329.6,180.3z M209.1,50.2c-2.5-2.5-4.8-4.6-6.8-6.8c-0.8-1.1-2.4-1.4-3.5-0.6c0,0,0,0,0,0l-12.3,6.4
	c-1.2,0.6-1.7,1.4-0.9,2.7c1.8,3,3.9,6,6,8.8c1.2,1.6,2.4,1.5,3.9,0.4l2.6-2.2L209.1,50.2z M173.4,84.7c-1.1,0.9-2.3,1.4-3,2.3
	c-3.8,4.8-6.3,10.4-8.6,16.5c4.1,1.2,6.4,4.9,10.8,6.3v-4.1c0-2.2,0.6-4.3,1.9-6c2.5-3.7,6.3-5.5,10.1-7.2l3-1.2L185,89
	c-0.8-0.7-1.8-0.9-2.8-0.6C178.6,89.3,175.5,88.7,173.4,84.7z M285.8,122.4l0.7,0.2c3.3-6.1,1.5-16.1-5.6-21.1s-14.1-6.2-22.1-0.1
	c-5.6,4.3-8.9,12.9-6.1,18.2c0.1-0.5,0.3-0.9,0.5-1.4c0.6-2.1,1.3-4.1,2.2-6c3.7-6.6,10-8.3,16.9-8.5l1.2,0.2
	c7.3,1.6,12.7,8.7,12.3,15.3C285.7,120.3,285.8,121.4,285.8,122.4z M339.4,197.1l-0.3,0.4c0,0.2,0.1,0.4,0.2,0.6l1,1.1
	c10,10.1,18.7,21.3,26,33.5c0.5,0.7,1.1,1.3,1.7,1.9l4-5.8c1.7-2.7,1.6-3-0.5-5.2c-7.7-7.8-16-15-24.9-21.5
	C344.3,200.3,341.8,198.7,339.4,197.1L339.4,197.1z M238.4,135.1c0.6-3.7-1.8-6.2-4.7-8.3c-1.3-0.9-2.9-1.3-4.4-0.9
	c-5.2,1.2-8.5,6.4-7.3,11.6c0.1,0.6,0.3,1.2,0.6,1.8c1.5,3.2,5.9,5.9,8.7,5.3S238.4,139.7,238.4,135.1L238.4,135.1z M271.2,49.4
	c2.9,2.2,5.6,4,8.1,6.1s4.7,4.4,7.3,6.9c2-2.9,3.2-6.2,3.5-9.7c0.1-0.8-0.8-1.8-1.5-2.4c-1.5-1.3-3.2-2.5-4.9-3.6l-6.6-4.2
	L271.2,49.4z M182,37.8c0.5,2.8,0.9,5.6,1.5,8.4s1.3,2.9,3.8,1.3l7.9-4.8c1-0.5,1.9-1.1,2.8-1.8c0.5-0.3,0.8-0.9,0.8-1.5
	c-0.2-2.4-3.5-5.3-5.9-5.3c-1.9,0-3.9,0-5.8-0.2C182.3,33.1,182.3,33,182,37.8z M280.9,32.1c-0.7,2.3-1.4,4.4-2.2,6.5
	s-0.2,2.1,1,2.8l9.2,5.6c0.7,0.3,1.4,0.4,2.1,0.5c1.5-5.3,0.6-10.3-0.4-15.4H280.9z M300,117.4l10.5-8.6c0.7-0.6,1-1.4,1-2.3
	c-0.4-1.7-1-3.6-2.2-4.6s-3.7-1.4-5.6-2.1l-0.5,0.2c-2,1.8-4.3,2.2-7.4,2C298.5,106.7,299.9,112,300,117.4z M77.4,150l-2-0.7
	c-4.1-1-5.5-0.3-6.6,3.6s-2.7,9.9-4.1,14.8c-0.6,1.9-0.3,3.4,1.7,4.8c1.8-2.5,3.1-5.3,3.9-8.2c0.4-1.5,0.5-2.9,2-3.9
	c0.6-0.4,1-1,1.3-1.7C74.8,155.9,76,153.1,77.4,150z M184.1,21.5c-1.1,2.6-1.7,5.4-1.8,8.2c0,1.6,0.7,2.2,2.2,2.2h5.6l3.9-0.4
	l-3.4-7.7c-0.4-0.7-1.1-1.2-1.9-1.4C187.2,22,185.6,21.7,184.1,21.5z M281.6,29.5c2.8,0,5.4,0.4,8.1-0.4c-0.4-3.6-1.9-6.6-3.2-9.6
	c-0.3-0.5-0.8-0.9-1.4-1.1c-1.9-0.3-3.7,1-4,2.9c-0.1,0.4-0.1,0.8,0,1.2c0.2,1.2,0.2,2.4,0.3,3.6S281.5,28.3,281.6,29.5z
	 M277.7,114.8c0.1-2-0.9-3.9-2.6-5c-1.4-1.1-3.5-1-4.8,0.2c-1.3,1.1-1.8,2.8-1.2,4.4c0.6,2,2.2,3,3.9,3.7S277.7,117.7,277.7,114.8z
	 M58.3,197.3c1.3-4.3,2.4-8.2,3.5-12.1c0.1-0.4,0.2-0.7,0.3-1.1c-0.1-0.4-0.3-0.9-0.6-1c-0.5-0.1-1-0.1-1.4,0.2
	c-0.4,0.4-0.7,0.9-0.9,1.5c-1.1,2.8-2.3,5.7-3.3,8.6c-0.3,0.9-0.5,1.9-0.6,2.9L58.3,197.3z M276.6,9.6c0,0.3-0.1,0.6,0,0.8
	c1,2.1,2,4.2,3.1,6.2s1.5,1.4,2.8,0.7s1.7-1.7,0.9-2.7S279.8,10.1,276.6,9.6z M188.5,12.5l-0.9-0.2c-0.9,2.1-2,4.2-2.8,6.3
	c-0.3,0.7,0,1.5,0.7,1.9c0.2,0.1,0.4,0.1,0.6,0.1c1.1,0,2.1,0,3.2-0.2C189,17.5,188.8,15,188.5,12.5z M80,144.3
	c-4-0.8-7.4-1-8.9-0.4c1.6,1.5,3.5,2.5,5.6,3C78.9,147.5,79.4,147.1,80,144.3z M63.6,180.3l-0.9-3C61,179.4,61,179.4,63.6,180.3z
	 M291.8,95.9c-0.5-0.3-0.8-0.7-1.1-0.7s-0.5,0.5-0.8,0.7s0.6,0.7,0.9,0.8S291.3,96.3,291.8,95.9z"/>
<path class="st0" d="M277.7,114.8c0,2.9-1.9,4.3-4.7,3.3s-3.3-1.7-3.9-3.7c-0.6-1.6-0.1-3.3,1.2-4.4c1.3-1.2,3.4-1.3,4.8-0.2
	C276.8,110.9,277.8,112.8,277.7,114.8z"/>
<path d="M291.8,95.9c-0.5,0.4-0.8,0.8-1,0.8s-0.6-0.5-0.9-0.8s0.5-0.7,0.8-0.7S291.3,95.6,291.8,95.9z"/>
<path d="M178.3,175.7h1.4c9.1,3.4,18.4,6.4,28,7.8c5,0.7,9.9,1.4,14.9,1.8c7.8,0.5,15.7,1,23.6,1.1s13.1-0.7,19.6-1.1l9.6-0.4
	c-2.5,1.6-5.4,2.5-8.4,2.6c-3.5,0.4-7.1,0.4-10.7,0.6s-10,0.8-15,0.7s-12.4-0.8-18.7-1.1c-6-0.3-12-1.1-17.9-2.4
	c-8.5-1.9-16.8-4.6-24.8-7.9c-0.7-0.4-1.3-0.8-1.9-1.2L178.3,175.7z"/>
<path d="M254.4,461.3c-0.9,0.5-1.4,1.1-2,1.2c-3.6,1.2-7.3,2.2-11,2.9c-5.9,1-11.8,1-17.7,0.1c-7.9-1.3-15.9-2.4-23.8-3.9
	c-3.2-0.8-6.2-1.9-9.2-3.2c-1-0.5-1.9-1.1-2.7-1.8l0.3-0.6l1.5,0.2c7.5,3.2,15.4,4.7,23.5,5.5l13.1,1.5c7.2,0.6,14.5-0.2,21.5-2.2
	l3.2-1C252.3,459.7,252.4,459.8,254.4,461.3z"/>
<path d="M227.5,417.2c-0.6-4.5-2-7.8-4.5-9.9c0.6-1.4,1.4-1.7,2.5-0.6c0.4,0.5,0.8,1,1,1.6c2.3,5.4,4.6,10.9,7,16.2
	c1.1,2.5,0.1,4.6-0.6,6.8s-1.3,1.5-2.5,1c-2.8-1.2-5.2-3.3-6.7-6c-1.6-2.8-0.9-5.5,1.7-7.6L227.5,417.2z"/>
<path d="M221.1,151.3c0.7,0.5,1.3,1,1.9,1.6c1.7,2.1,4.1,3.4,6.8,3.7c0.8,0.2,1.6,0.1,2.3-0.3l5.6-4.6c0.4-0.3,1.1-0.6,1.3-0.5
	s0.9,1,0.8,1.5c-0.4,2.5-2.2,4.6-4.6,5.3c-4,1.5-7.8,0.7-11.4-1.5C222,155.5,220.9,153.4,221.1,151.3z"/>
<path d="M65.1,114.9l1.8,3.7C65,117.2,65,117.2,65.1,114.9z"/>
<path d="M67.7,108.4l1.6,2.4c-1.5-0.1-1.7-1.2-2.1-2.1L67.7,108.4z"/>
<path d="M197.8,133.3c-6.2,0.4-10.5-2.9-14.2-7.4c-2.3-2.8-3.7-6.1-4.2-9.7c-0.5-3.6,0.3-7.3,2.1-10.4c3.4-5.9,8.4-9.3,15.4-10.4
	s10.9,0.9,15.2,4.6c3.2,3,5.2,7,5.6,11.4c0.9,10.5-5.1,18.8-15.3,21.4C200.9,133.1,199.3,133.1,197.8,133.3z M181.9,114.8
	c0.4-0.7,0.7-1.5,1-2.3c3-7.1,9.6-10.7,17.4-9.5c2.3,0.3,4.9,0.5,6.9,2.3c3.8,3.3,6.2,7.2,6.1,12.5c0,0.9,0.1,1.9,0.3,2.8
	c3.6-3.9,1.7-13.1-1.8-17.3c-5-6.1-13.1-7.9-18.1-5.8C185.7,100.8,181.8,107.2,181.9,114.8L181.9,114.8z M202.7,116.9
	c2.8,0,3.8-0.9,3.9-3.6s-2.6-6.2-7-4.9c-1.9,0.5-3.4,3.1-2.8,4.5C197.9,115.2,200.2,116.8,202.7,116.9L202.7,116.9z"/>
<path d="M134.9,154.2l5.2,7.1l7.7,10.3c0.3,0.3,0.7,0.6,0.7,0.9s0.2,1.4-0.1,1.7c-0.5,0.2-1.1,0.2-1.6-0.1c-1.4-1.2-2.8-2.5-4-3.9
	c-3.4-4.3-6.4-8.9-8-14.3l-0.3-1.2L134.9,154.2z"/>
<path class="st0" d="M202.7,116.9c-2.5-0.2-4.8-1.7-5.9-4c-0.6-1.4,0.9-4,2.8-4.5c4.4-1.3,7.1,0.9,7,4.9S205.5,116.9,202.7,116.9z"
	/>
<path class="st1" d="M150,238.2l-6.8,1.9l-0.7-2.3l16.1-4.5l0.7,2.3l-6.8,1.9l4.7,16.7l-2.5,0.7L150,238.2z"/>
<path class="st1" d="M169.9,237.5c-2.6,0.6-4.2,3.2-3.5,5.8c0,0,0,0.1,0,0.1l1.8,8l-2.4,0.5l-4.5-20.2l2.4-0.5l1.7,7.8
	c0.5-2,2.2-3.6,4.3-3.9c3.4-0.8,6.3,1.3,7.1,4.9l2,9.1l-2.4,0.5l-1.9-8.9c-0.3-2.1-2.2-3.5-4.3-3.3
	C170.1,237.5,170,237.5,169.9,237.5z"/>
<path class="st1" d="M179.9,241.2c-0.8-4.7,1.7-8.5,5.9-9.1s7.7,2.3,8.4,7.1c0.1,0.1,0.1,0.3,0.1,0.5l-11.7,1.9
	c0.6,2.5,3,4.1,5.5,3.8c1.9-0.2,3.5-1.8,3.6-3.7l2.9,0.4c-0.3,2.8-2.8,5.2-6.1,5.7S180.6,245.7,179.9,241.2z M191.4,237.8
	c-0.7-2.3-2.9-3.7-5.3-3.4c-2.3,0.4-3.7,2.3-3.8,4.8L191.4,237.8z"/>
<path class="st1" d="M205.5,225.4l1.8,19.7l-2.5,0.2l-1.9-19.7L205.5,225.4z"/>
<path class="st1" d="M217.4,231.2c-2.7,0.3-4.6,2.6-4.4,5.3l0.4,8.1H211l-0.8-15.2h2.1l0.5,2.8c0.7-2,2.7-3.4,4.8-3.4
	c3.5-0.2,6.1,2.3,6.2,6l0.5,9.3h-2.4l-0.5-9.1c0-2.1-1.7-3.8-3.8-3.8C217.5,231.2,217.5,231.2,217.4,231.2z"/>
<path class="st1" d="M225.6,228.8h1c0.9,0,1.7-0.8,1.6-1.8c0,0,0-0.1,0-0.1v-2h2.3v3.9h3.3v2.4h-3.3v8.8c-0.1,1,0.7,1.9,1.7,1.9
	c0.1,0,0.3,0,0.4,0c0.4,0,0.8,0,1.2-0.2v2.5l-1.7,0.2c-2.5,0-4.2-1.5-4.2-3.9v-9.3h-2.5L225.6,228.8z"/>
<path class="st1" d="M235.7,236.5c0.2-4.7,3.4-7.9,7.7-7.8s7,3.9,6.8,8.8c0,0.2,0,0.3-0.1,0.5l-11.8-0.5c0.3,2.7,2.1,4.7,4.6,4.8
	c1.9,0.2,3.7-1,4.3-2.9l2.7,1c-0.8,2.6-3.7,4.5-7.1,4.3S235.5,241.1,235.7,236.5z M247.6,235.5c-0.2-2.4-2.1-4.3-4.5-4.4
	c-2.2-0.1-4,1.5-4.6,4L247.6,235.5z"/>
<path class="st1" d="M253.9,229.8l2,0.2v2.5c0.7-1.6,2.4-2.7,4.2-2.5l1.7,0.5l-0.4,2.9c-1.6-1.2-3.8-0.9-5.1,0.6
	c-0.5,0.7-0.8,1.5-0.7,2.4l-0.9,8.8l-2.4-0.3L253.9,229.8z"/>
<path class="st1" d="M271.2,233.9c-2.5-0.4-4.8,1.4-5.3,4.3l-1.2,8l-2.4-0.3l2.3-15.1l2,0.3v2.8c1.2-1.8,3.4-2.8,5.5-2.4
	c3.4,0.5,5.4,3.5,4.9,7.2l-1.4,9.1l-2.4-0.3l1.4-9c0.4-2.1-0.8-4.1-2.9-4.5C271.5,234,271.4,233.9,271.2,233.9z"/>
<path class="st1" d="M279.3,240.8c1-4.5,4.7-7.2,8.9-6.3s6.3,4.9,5.3,9.7c-0.1,0.1-0.1,0.3-0.2,0.5l-11.5-2.5
	c-0.2,2.8,1.2,5,3.7,5.5c1.9,0.5,3.8-0.4,4.7-2.1l2.5,1.4c-1.2,2.5-4.4,3.8-7.7,3.1S278.4,245.3,279.3,240.8z M291.3,241.8
	c0.2-2.4-1.4-4.5-3.8-5c-2.2-0.5-4.2,0.8-5.2,3.1L291.3,241.8z"/>
<path class="st1" d="M296.4,236.7l0.9,0.2c1,0.3,1.8-0.3,2.1-1.4l0.5-1.9l2.3,0.6l-1,3.7l3.2,0.9l-0.6,2.3l-3.2-0.9l-2.3,8.6
	c-0.2,1,0.4,2,1.4,2.3c0.1,0,0.1,0,0.2,0c0.4,0.2,0.8,0.2,1.2,0.2l-0.5,2.4l-1.7-0.2c-2.4-0.7-3.6-2.6-3-4.9l2.3-9l-2.4-0.6
	L296.4,236.7z"/>
<path class="st1" d="M316.6,242.5L312,257l-2.3-0.7l4.6-14.6L316.6,242.5z M317.3,236.5c1,0.4,1.5,1.5,1.2,2.5
	c-0.3,1-1.3,1.6-2.3,1.3c0,0,0,0-0.1,0c-1-0.3-1.6-1.4-1.2-2.4c0,0,0-0.1,0-0.1C315.2,236.8,316.2,236.2,317.3,236.5
	C317.3,236.5,317.3,236.5,317.3,236.5L317.3,236.5z"/>
<path class="st1" d="M321.6,258.3c1.6,0.5,3.1,0.1,3.5-1.1c1.2-3.3-7.8-4.9-6-9.9c1-2.6,3.7-3.1,6.6-2.1s4.5,3.5,4,5.9l-2.7-0.3
	c0.5-1.4-0.5-2.9-2.1-3.5s-2.9-0.2-3.3,1c-1.2,3.1,7.9,4.8,6,9.8c-0.9,2.5-3.7,3.5-7,2.3s-5.3-4.1-4.5-6.9l2.7,0.3
	C318.3,255.6,319.6,257.5,321.6,258.3z"/>
<path class="st1" d="M158.6,305.6l-5.2,0.7l-0.4-3l1.7-0.3c2.1-0.2,3.4-2.1,3.2-4.4l-0.2-1.7l3.2-0.4l3.1,25.8l-3.3,0.4L158.6,305.6
	z"/>
<path class="st1" d="M167.7,319.6c-0.2-1.4,0.7-2.7,2.1-2.9c0,0,0.1,0,0.1,0c1.4-0.2,2.6,0.7,2.9,2.1c0,0.1,0,0.2,0,0.2
	c0.2,1.4-0.7,2.6-2.1,2.9c-0.1,0-0.2,0-0.2,0c-1.3,0.2-2.5-0.7-2.8-2C167.7,319.8,167.7,319.7,167.7,319.6z"/>
<path class="st1" d="M184.7,307.7c1.3-0.8,4-2.1,3.7-5.6c0-2.7-2.2-4.9-4.9-4.9c-0.1,0-0.3,0-0.4,0c-2.9,0.2-4.8,2.7-4.6,5.9
	c0.1,0.4,0.1,0.9,0.3,1.6l-3.6,0.6c-0.1-0.8-0.1-1.4-0.2-2c-0.6-4.6,2.7-8.8,7.3-9.4c0.2,0,0.3,0,0.5,0c4.8-0.3,8.5,2.7,8.8,7.6
	s-3.2,7.5-5.6,9.1s-6.3,3.7-6.2,6.7l13.1-1l0.2,3.4L176,321v-1C175.5,313.7,179.1,311.2,184.7,307.7z"/>
<path class="st1" d="M227.1,301.5c-3,0-5.4,2.8-5.4,6.6l0.2,10.6h-3.2v-11.8c-0.1-3.1-1.9-5.3-4.7-5.3s-5.5,2.9-5.4,6.7v10.6h-3.2
	l-0.3-20h2.6l0.6,3.5c0.9-2.5,3.4-4.1,6-4c2.9-0.1,5.6,1.7,6.7,4.4c0.9-2.8,3.6-4.7,6.6-4.6c4.4-0.1,7.2,3.5,7.2,8l0.2,12.3h-3.2
	l-0.2-12C231.6,303.5,229.8,301.4,227.1,301.5z"/>
<path class="st1" d="M241.9,291.1c1.4,0,2.6,1.2,2.6,2.7c0,1.4-1.2,2.6-2.7,2.5c-1.4-0.1-2.5-1.2-2.4-2.6c0,0,0-0.1,0-0.1
	C239.4,292.2,240.5,291.1,241.9,291.1z M243.3,298.8l-0.4,20h-3.1l0.3-20H243.3z"/>
<path class="st1" d="M252.5,291.9l-0.9,27.2h-3.2l0.9-27.2H252.5z"/>
<path class="st1" d="M261.4,292.3l-1.3,27.2l-3.2-0.2l1.3-27.2L261.4,292.3z"/>
<path class="st1" d="M270,300l-1.2,19.9l-3.2-0.2l1.2-19.9L270,300z M268.9,292.2c1.4,0.1,2.5,1.3,2.5,2.7s-1.3,2.5-2.7,2.5
	c-1.4-0.1-2.5-1.3-2.5-2.7c0,0,0-0.1,0-0.1c0-1.3,1.1-2.4,2.4-2.4C268.7,292.2,268.8,292.2,268.9,292.2z"/>
<path class="st1" d="M273.6,310.1c0.5-6,5-10.1,10.8-9.6s9.6,5.2,9.1,11.3s-5,10.1-10.8,9.6S273.1,316.2,273.6,310.1z M283,318.2
	c3.8,0.3,6.8-2.5,7.2-6.7s-2.2-7.5-6-7.9s-6.9,2.6-7.3,6.8S279.1,317.9,283,318.2z"/>
<path class="st1" d="M307.4,306c-3.5-0.3-6.5,2.3-6.8,5.8c0,0,0,0.1,0,0.1l-1.2,10.6l-3.2-0.4l2.3-19.8l2.7,0.3v3.7
	c1.3-2.5,4.2-3.9,7-3.4c4.5,0.5,7.3,4.3,6.8,9.2l-1.4,12l-3.2-0.3l1.4-11.9C312.1,308.8,310.4,306.4,307.4,306z"/>
<path class="st1" d="M147.7,359.4l-0.8,4.1l3.8,0.7l-0.4,2l-3.8-0.6l-1.4,7.8c-0.3,1.8,0,2.9,1.5,3.2h1.6l-0.3,2
	c-0.8,0.1-1.6,0.1-2.4-0.1c-1.1-0.1-2-0.7-2.6-1.6c-0.6-1.2-0.8-2.7-0.4-4l1.5-7.9l-2.3-0.4l0.4-2l2.2,0.4l0.7-3.5L147.7,359.4z"/>
<path class="st1" d="M153.3,372.7c-0.5,3.5,1.5,5.4,4.2,5.8c1.4,0.3,2.8,0.3,4.1-0.1l0.2,2c-1.6,0.4-3.3,0.4-5,0.1
	c-4.5-0.7-6.7-4.1-6-8.5s3.9-7.4,8.1-6.7s5.4,5.1,4.9,7.8c0,0.4-0.1,0.8-0.3,1.2L153.3,372.7z M161.4,372c0.3-1.7,0-4.4-3-4.9
	s-4.2,1.9-4.7,3.7L161.4,372z"/>
<path class="st1" d="M167.2,371.5c0.2-1.7,0.4-3.2,0.5-4.5l2.3,0.3l-0.3,2.9h0.1c0.7-1.8,2.6-2.8,4.5-2.6l0.8,0.2l-0.4,2.5l-0.9-0.3
	c-1.9-0.2-3.6,1.1-4,2.9c-0.2,0.4-0.3,0.9-0.3,1.3l-1.1,7.8l-2.7-0.4L167.2,371.5z"/>
<path class="st1" d="M183.5,383.9v-1.8h-0.1c-1.2,1.3-3,1.9-4.8,1.7c-2.3-0.1-4.1-2.1-3.9-4.4c0-0.1,0-0.2,0-0.4
	c0.4-3.5,3.8-5.1,9.5-4.4v-0.3c0.1-1.2,0.1-3.4-2.9-3.8c-1.4-0.1-2.8,0.1-4,0.7l-0.4-1.9c1.6-0.6,3.3-0.9,5-0.7
	c4.5,0.6,5.2,3.8,4.8,6.7l-0.6,5.5c-0.2,1.2-0.3,2.3-0.2,3.5L183.5,383.9z M184,376.4c-2.9-0.4-6.3-0.3-6.6,2.5
	c-0.3,1.3,0.5,2.6,1.8,2.9c0.1,0,0.2,0,0.4,0c1.6,0.2,3.1-0.6,3.8-2l0.3-0.9L184,376.4z"/>
<path class="st1" d="M189.7,384.7c0.1-1,0.3-2.5,0.5-3.8l1.7-17.8l2.6,0.3l-0.9,9.2h0.1c1.2-1.6,3.3-2.5,5.3-2.2
	c3.6,0.3,5.9,3.6,5.4,8.1s-4,7.5-7.3,7.2c-2-0.1-3.9-1.3-4.7-3.2h-0.1l-0.3,2.4L189.7,384.7z M193,379v1c0.3,1.9,1.8,3.3,3.7,3.5
	c2.8,0.3,4.7-1.8,5.1-5.2s-1-5.6-3.9-5.9c-1.9-0.1-3.7,1.1-4.4,2.9c-0.1,0.4-0.2,0.7-0.2,1.1L193,379z"/>
<path class="st1" d="M208.7,371.6l2.7,8.9c0.2,1,0.5,2.2,0.7,3.1h0.1l1.1-3l3.5-8.5l2.9,0.2l-4.8,10.3c-2.3,4.9-3.7,7.4-5.7,8.8
	c-1,0.8-2.2,1.3-3.4,1.5l-0.5-2.3c0.9-0.2,1.7-0.6,2.4-1.1c1-0.7,1.9-1.7,2.5-2.8l0.3-0.7c0-0.1-0.1-0.3-0.2-0.7l-4.5-13.9
	L208.7,371.6z"/>
<path class="st1" d="M225.1,368.3l-0.2,4.3h3.8v2.1l-3.8-0.2l-0.4,8c-0.1,1.8,0.4,2.8,1.9,2.9h1.5v2c-0.8,0.2-1.6,0.3-2.4,0.3
	c-1.1,0-2.2-0.5-2.9-1.3c-0.7-0.8-0.9-2.1-0.8-3.9l0.4-8h-2.3v-2.1h2.3v-3.5L225.1,368.3z"/>
<path class="st1" d="M232.8,380.8c0,3.6,2.3,5.1,5,5.2c1.4,0,2.8-0.2,4.1-0.7l0.4,1.9c-1.5,0.7-3.2,1-4.9,0.9
	c-4.6-0.1-7.2-3.2-7.1-7.6s2.8-7.9,7.1-7.8s6,4.3,5.9,7c0,0.6-0.1,1-0.1,1.3L232.8,380.8z M240.7,379c0.1-1.7-0.6-4.4-3.6-4.4
	s-3.9,2.4-4.2,4.2L240.7,379z"/>
<path class="st1" d="M246.5,385.1c1.1,0.7,2.3,1,3.5,1.1c2-0.1,2.9-1,2.9-2.3s-0.8-1.9-2.8-2.7s-3.9-2.3-3.9-4.1s1.8-4.3,5-4.4
	c1.3,0,2.5,0.3,3.6,0.9l-0.6,2c-0.9-0.6-1.9-0.9-3-0.9c-1.6,0.1-2.5,1-2.5,2.1s0.9,1.7,2.8,2.5s3.9,2.2,3.9,4.4s-1.9,4.4-5.4,4.4
	c-1.5,0.1-2.9-0.2-4.2-0.9L246.5,385.1z"/>
<path class="st1" d="M264.9,365.8h2.7l1,21.6h-2.7L264.9,365.8z"/>
<path class="st1" d="M281.6,386.4l-0.3-1.8h-0.1c-1,1.5-2.6,2.4-4.4,2.5c-2.3,0.3-4.4-1.2-4.8-3.5c0-0.1,0-0.2,0-0.3
	c-0.3-3.6,2.8-5.8,8.4-6.2v-0.3c-0.1-1.2-0.6-3.4-3.6-3.1c-1.4,0.1-2.6,0.6-3.7,1.4l-0.8-1.8c1.4-0.9,3.1-1.5,4.8-1.6
	c4.5-0.4,5.8,2.6,6,5.5l0.4,5.5c0.1,1.2,0.3,2.4,0.5,3.6L281.6,386.4z M280.6,379c-2.9,0.1-6.2,0.9-5.9,3.8c0,1.3,1,2.3,2.3,2.3
	c0.1,0,0.3,0,0.4,0c1.6-0.1,3-1.2,3.4-2.7c0.1-0.3,0.1-0.6,0-0.9L280.6,379z"/>
<path class="st1" d="M287.4,375.7c-0.2-1.7-0.4-3.2-0.6-4.6l2.3-0.2l0.4,2.8h0.2c0.3-1.9,1.8-3.4,3.7-3.6c0.2-0.1,0.5-0.1,0.7,0
	l0.3,2.5c-0.3-0.1-0.6-0.1-0.9,0c-1.9,0.3-3.3,1.9-3.2,3.8v1.3l0.9,7.8l-2.6,0.3L287.4,375.7z"/>
<path class="st1" d="M309.1,368.1c0.1,1,0.2,2.2,0.5,4l1.3,8.4c0.5,3.4,0.2,5.5-1,7c-1.3,1.5-3.1,2.4-5,2.6
	c-1.7,0.3-3.5,0.2-5.1-0.4l0.4-2.2c1.4,0.6,2.9,0.8,4.4,0.5c2.7-0.4,4.5-2.1,3.9-5.8l-0.2-1.6h-0.1c-0.8,1.7-2.4,2.9-4.2,3.1
	c-3.7,0.6-6.7-2.1-7.4-6.1s2-8.2,5.4-8.8c1.8-0.4,3.8,0.3,4.9,1.8h0.1l-0.2-2.2L309.1,368.1z M307.2,374.2c0-0.4-0.1-0.8-0.3-1.1
	c-0.7-1.6-2.4-2.6-4.1-2.3c-2.6,0.4-4,2.9-3.5,6.2s2.3,5,5.1,4.6c1.7-0.3,3-1.6,3.3-3.3v-1.4L307.2,374.2z"/>
<path class="st1" d="M316.4,374.6c0.8,3.5,3.4,4.5,6,3.9c1.4-0.3,2.7-0.8,3.8-1.6l0.9,1.8c-1.4,0.9-3,1.6-4.6,1.9
	c-4.4,1-7.7-1.3-8.7-5.7s0.9-8.3,5.1-9.2s6.8,2.8,7.4,5.4c0.1,0.4,0.2,0.9,0.2,1.3L316.4,374.6z M323.6,371
	c-0.3-1.6-1.6-4.1-4.5-3.4s-3.3,3.3-3.1,5.1L323.6,371z"/>
<path class="st2" d="M536,314.6"/>
<path class="st2" d="M-162.6,223.4"/>
</svg>
