<svg id="Layer_1" data-name="Layer 1" xmlns="http://www.w3.org/2000/svg" viewBox="0 0 562.2 576.4"><defs><style>.cls-1{fill:#fff;}.cls-2{fill:#231f20;}.cls-3{fill:none;stroke:#231f20;stroke-miterlimit:10;}</style></defs><path d="M338.3,183a126.9,126.9,0,0,1,43.4,30.6l2.6-3.5c3.5-4.6,7-9.4,10.6-14a6.6,6.6,0,0,0,1.4-5.4c-.6-3.9-1.2-7.7-1.7-11.5a35.3,35.3,0,0,1-.1-4.6,3,3,0,0,1,2-2.9c1.1-.5,2.1-1,3.2-.1a2.9,2.9,0,0,1,.6,3.1c-1.2,4.2.2,8.2.7,12.8a10.3,10.3,0,0,0,1.7-1.4c1.3-1.5,2.6-2.9,3.8-4.5,2.3-3.2,5.7-4.9,9.2-6.4,1.2-.5,2.2-.5,3,.6s.1,2.1-.7,2.9c-3.2,3.5-6.5,6.9-9.7,10.3a10.8,10.8,0,0,0-1.4,2.1l3,.3h5.9c1.3,0,2.2.5,2.2,1.9s-1.1,1.8-2.3,1.8l-7.4.6-6,.5c-1.7.1-2.2,1.5-2.9,2.5-3.5,4.6-6.8,9.2-10.2,13.9l-3.7,5,3.9,5a158.6,158.6,0,0,1,14,21.2,174.1,174.1,0,0,1,12.7,28.6,169.8,169.8,0,0,1,6.6,24.2c1.1,6.5,2.4,13.1,3.3,19.6.6,4.2.8,8.5,1.1,12.8s.8,11.2,1.1,16.8c.1,2.3-.3,4.5-.3,6.8a170.1,170.1,0,0,1-9.9,53.8,219.6,219.6,0,0,1-12.1,28.2,12.4,12.4,0,0,0-.5,1.9c.9-.4,1.6-.5,2.1-.8a52.1,52.1,0,0,1,17-5.9c9.5-1.4,15.1,3.5,15.6,12.1.2,6.2.1,12.6-2.4,18.5-1.3,2.9-3.1,5.7-4.7,8.6-2.6,4.5-5.3,9-8.1,13.4a44.4,44.4,0,0,1-4.5,5.4c-6.1,7-12.1,14.1-20.2,19.1-5.5,3.4-10.8,7-16.2,10.5a6,6,0,0,1-1.1.6c-6.8,2.1-13.1,5.9-20.4,6.8a21.4,21.4,0,0,1-13.6-2.3,9.4,9.4,0,0,1-4.4-5c-1.6-3.7-1.2-7.6-.4-11.4l.3-1.8c0-.2-.2-.3-.4-.6l-5.2,4.2c-4.1,3.3-8,6.7-12.2,9.8a39.8,39.8,0,0,1-12.7,5.9l-19.6,6.2c-4.8,1.4-9.7,2.5-14.6,3.6s-7.5,1.5-11.6,2.3v6.5c-.1,1.2-.4,2.4-.5,3.6s-1.1,4.2-3.4,5.4-1.6,2.1-2.5,3.1c-3.1,3.8-6.5,7.3-11.6,8a42.3,42.3,0,0,1-6.2.1l-3.8,7.1c-2.6,4.6-6.3,7-11.8,6.4-2.3-.3-4.7.2-7,.4-5.2.5-8.3-2.2-10.3-6.7-.7-1.6-1.3-3.4-2.1-5.6-1,.8-2.1,1.3-2.6,2.2-2.1,3.7-5.7,4-9.3,4.2-2.1.1-4.2-.6-5.9-.9s-.8-2.4-1.5-2.9c-3.2-2.4-4-5.8-4.4-9.4-.2-2,0-4.1,0-6.4a4.5,4.5,0,0,0-1.3-.1,15.4,15.4,0,0,1-14.5-5.4,9,9,0,0,1-.5-11.4c1.5-2.2,3.6-4,5.6-6.2a8.5,8.5,0,0,0-1.9-1c-7.3-2.5-14.8-4.7-22.1-7.5a203.4,203.4,0,0,1-45.2-24.9l-1.5-1c-.1-.1-.4,0-.6,0,.1,4.2.7,8.5.2,12.6a24.6,24.6,0,0,1-4.3,11.9L96.9,516c-4.3,2.5-9.2,2.7-14.2,2.4s-10.4-2-15.4-3.8C56,510.5,45.9,504.2,36.4,497A143,143,0,0,1,18,479.8a77.1,77.1,0,0,1-14.5-22C1.6,453.5,0,449,0,444.2c0-8.9,5.3-14.6,13.4-16.4,5.7-1.3,11.4-.5,17,.9a75.6,75.6,0,0,1,18.2,7.4l4.6,2.4c0-.7.1-1.2-.1-1.5-3.2-6.4-6.8-12.6-9.7-19.1a195,195,0,0,1-6.9-18.5c-3-8.9-4.7-18.2-6.3-27.5a172.5,172.5,0,0,1-1.3-38,157.6,157.6,0,0,1,4.6-29.1,171.2,171.2,0,0,1,15.1-39.6,193.4,193.4,0,0,1,19.9-30.6A175.4,175.4,0,0,1,89,212.9c.3-.2.5-.6,1.1-1.2A280.9,280.9,0,0,0,70.4,188c-.7,2.6-1.3,4.5-1.8,6.4s-1.3,4.5-1.8,6.8a2.3,2.3,0,0,1-2.4,2,7.1,7.1,0,0,1-6.1-2.1,6.3,6.3,0,0,0-4.5-2.2c-3.4-.3-4.1-1.3-3.2-4.6s1.6-5.3,2.4-7.9,1.3-3.7,2-5.9l-13-5.6a2.6,2.6,0,0,1,3.1-.4l7.3,2.7,3,.9a17.6,17.6,0,0,0,2.7-7.2,6.1,6.1,0,0,0-1.1-3.1c-.9-1.8-2.1-3.5-3.1-5.3s-.5-2.6.8-3.4,2.4-.6,3.4.9,1.1,1.5,1.6,2.2.4.2.9.4c1.8-4.7,3.6-9.4,5.3-14-6-4.3-11.5-8.5-14.5-15.1a29.1,29.1,0,0,1,7-34.3c9.5-8.4,20.5-10.7,32.4-6.6s17,12.1,19.1,23.3a48.9,48.9,0,0,1,.1,16.2c-1,6.5-4.3,11.4-9.1,15.6-1.3,1.1-2.8,2-4.1,3.1s-5.4,2.7-8.4,3.4-7.4,2.4-8.8,6.6-2.7,6.5-3.8,9.8a31,31,0,0,0-1,5.3c-.1,1,.2,2-.1,2.8-.9,2.6.2,4.6,1.6,6.5l14.8,19.7,3,3.5A212.6,212.6,0,0,1,132.7,183c-2.4-3.4-4.9-6.5-6.9-9.7a46.3,46.3,0,0,1-7-18.6c-.4-3.1-.3-6.3,1.2-9,3-5.9,7.1-7.4,13.9-5.9a24.3,24.3,0,0,1,11.7,6.5c4,3.8,7.7,7.7,9.9,12.8,1.3,3,2.2,6.1,3.2,9.2.4,1.1.5,2.2.8,3.2,3.2.2,3.4,0,4.2-2.9a9,9,0,0,1,4.5-5.6l1.6-.9c-.2-.5-.2-.8-.4-1l-8.6-7.3c-4.7-3.9-8-8.5-8.3-14.9-.1-2.7-.8-5.5-.5-8.2a77.3,77.3,0,0,1,4.1-20.1c.6-1.8,1.2-3.7,1.9-5.5a2.5,2.5,0,0,0-.9-3.2c-1.7-1.2-3.4-2.4-5.1-3.4s-5.4-1.1-7.2,1.6-1.2,2.6-1.9,3.9a15.5,15.5,0,0,1-1.5,1.8c-.3-1.1-.7-1.6-.6-2.2a9.4,9.4,0,0,1,5.7-7.5c3-1.3,5.7,0,8.2,1.8l4.5,3.5,8.6-14.2a20.8,20.8,0,0,0-4.1-.5c-5.3.1-8.5-3.1-11.3-7a3.3,3.3,0,0,1,0-3.8,18.8,18.8,0,0,1,3.1-3.2,3,3,0,0,0,1.3-2.6c-.2-6.4.4-9.3,6.1-12.3l4.6-2.4-2.4-1.8c-1.8-1.2-3.3-2.4-3.2-5.1s-1.1-2.8-1.7-4.2c-1.8-3.8-.6-7.2,1.7-10.3,3.7-5.1,9.2-7.4,15-8.8l2.4-.7a3,3,0,0,0,2.2-2.3,39.1,39.1,0,0,1,6.8-13.7c.2-.2.3-.5.6-.7s1.5-2.1,2.7-1.4.8,1.7.9,2.6a26.2,26.2,0,0,1,0,4c2.6-1.4,4.9-1.8,6.3-3.9a5.5,5.5,0,0,1,5-2.4h4.4a10.6,10.6,0,0,1,7.6,2.7l2.5,2a17.9,17.9,0,0,0,1.4-1.3C226.8-.4,240.5-2.4,251,2.6c2,1,4,2.1,6,3,6,2.9,8.1,8.1,8.9,14.2.1,1.3.1,2.6.2,4.1a10.6,10.6,0,0,0,2.6-.2c2.4-.5,4.8-.9,7.2,0a9.2,9.2,0,0,0,2.8-.2c-.1-6-2.6-10.8-5.5-15.7,3.2-2,6.2-1.2,9.1.1s7,5.6,9.3,9.6,5,10.7,5.3,16.8c.1,2.4.9,4.7,3.9,5.2a2.5,2.5,0,0,1,1.6.8c2.3,2.5,4.6,5,6,8.2s.1,6.4-.4,9.6c-.2,1.2-.6,2.3-1,3.8,4.7.9,8.5,2.7,9.5,7.7s1.6,8.5-2.4,12a11.4,11.4,0,0,0,1.4,1.6c2.9,2.9,2.9,6.2.1,9.2a4.4,4.4,0,0,0-.8,2.1c-.1.4.1.8.1,1.2.2,2.1-.1,3.9-2.6,4.4,0,2.1,1.7,3.1,2.6,4.5s1.3.3,1.9.1,2.2-1.1,3.4-1.6c2.8-1,4.5-.2,5.2,2.8s.7,4.2,1,6.3.1,2.1-1.2,2.1-1.4-.8-1.7-1.4a36.8,36.8,0,0,1-1.5-4.7c-.4-2-.9-2.6-2.1-2.3s-3.2,2.1-3.1,3.3.3,1.2.4,1.8c.4,2.5.7,5,1.1,7.5s.3,2.3.4,3.4a17.3,17.3,0,0,1,.2,3.9c-1.4,7.8-2.3,15.6-5.2,23-.8,2.2-1.7,4.4-2.6,6.6a17.7,17.7,0,0,1-6.7,8.1c1.1,1.6,2.5,3.1,3.1,4.8s.6,3.5.8,5.7c1.1-.7,1.2-1.7,1.5-2.6,1.4-4.4,3-8.7,5.9-12.4s7.8-7.7,13.3-8.9a8.5,8.5,0,0,1,7.1,2.3c3.7,3.1,5,7.3,5.3,12A39.5,39.5,0,0,1,338.3,183Zm-35.1-11.5c-.4-2.7-1.4-4.2-3.5-4.9s-4.4,1-5.2,2.4-1.8,1.9-3.5,1.4a8.5,8.5,0,0,0-3.9-.1c-4.1.6-8.3,1.2-12.3,2.2-6.1,1.5-12.4,1.6-18.6,1.8s-15.5,1.2-23.3.3-12.6-.5-19-.8c-3.5-.2-7.1-.4-10.7-.8a34.5,34.5,0,0,1-7.8-1.4c-6.6-2.1-13.2-4.5-19.7-6.9-1.5-.6-3.4-1-4,.1s-4.5,4.1-3.2,7.7c.6,1.8-.4,2.5-2.3,2.7a7.9,7.9,0,0,0-3.1.8,165.7,165.7,0,0,0-31.2,23.5c-4.5,4.3-8.7,9.2-12.9,14a152,152,0,0,0-20.3,30.6,173.4,173.4,0,0,0-17.1,51.8c-1.5,8.6-1.9,17.5-2.4,26.2-.2,4.2.4,8.4.5,12.6a142.3,142.3,0,0,0,3.1,25.2,182.8,182.8,0,0,0,13.7,41.6A170.8,170.8,0,0,0,122,440.6a153,153,0,0,0,25.4,23.5,145.3,145.3,0,0,0,24.7,15,191.3,191.3,0,0,0,20.6,8.1,129.5,129.5,0,0,0,34.9,6.4,131.1,131.1,0,0,0,25.8-1,149.3,149.3,0,0,0,21.9-4.5,143.1,143.1,0,0,0,35.3-15.7,167.2,167.2,0,0,0,23.2-17.7,169.1,169.1,0,0,0,49.3-88.3c2.4-11.7,4.1-23.5,3.9-35.6-.1-5.4-.2-10.8-.6-16.2a107.3,107.3,0,0,0-1.3-13.8c-1.4-7.4-2.9-14.8-5-22.1a217.4,217.4,0,0,0-8.4-23.4A160.5,160.5,0,0,0,355,225.6a179.5,179.5,0,0,0-18.1-21.7,177.4,177.4,0,0,0-18.6-16.1c-3.7-2.8-7.5-5.3-12.3-6a6.2,6.2,0,0,1-2.3-.7c-.7-.5-1.6-1.3-1.6-1.9s-.8-1.8-1.7-2.2l-2.6-1c-1.6-.8-1.8-2-.4-3.1A5.4,5.4,0,0,1,303.2,171.5ZM55.1,431.4c3,4.8,5.8,9.3,8.8,13.7.4.7,1.2,1,1.9,1.5,3.1,2.3,6.6,4.2,9.5,6.8,9.3,8,16.3,18,22.6,28.5a11.1,11.1,0,0,0,2,2.7l6.6,5.1A207.2,207.2,0,0,0,153.6,516a204.1,204.1,0,0,0,36.6,10.6c6,1.2,12.1,1.9,18.2,2.7a67.1,67.1,0,0,0,11,.8c9.3-.2,18.6.7,27.9-.6,2.4-.4,4.6-.6,6.7-1.8a18.5,18.5,0,0,1,8-1.9c3.6-.1,7.1-.6,10.6-1l.6-.2,22.3-5.6a120.1,120.1,0,0,0,21.2-8,192.4,192.4,0,0,0,24.7-13.8c4.8-3.2,9.7-6.2,12-11.9l.4-.5a151,151,0,0,1,15.7-20.1,74.3,74.3,0,0,1,5.9-5.3c1.7-1.5,3.6-2.6,5.3-4.1l8.3-7.4a5.1,5.1,0,0,0,1.3-1.6c1-2.2,1.9-4.5,2.8-6.7s.7-2,1-3l-.6-.4a31.4,31.4,0,0,1-3.1,1.8,4,4,0,0,1-4.1-.1c-1.4-.9-1.6-2.2-1.1-3.8a7.1,7.1,0,0,0,.4-2.1,17,17,0,0,0-.1-2.1l-3.9,1.9c-2,.8-4.1.8-5.7-.8s-.9-3-.3-4.6a20.2,20.2,0,0,0,.9-3.3,16.4,16.4,0,0,0-.1-2c-1.5,1-2.6,1.9-3.9,2.6a8.5,8.5,0,0,1-3.7,1.2c-1-.1-2-1-3.1-1.6s-1,1.4-1.5,2.2a162.3,162.3,0,0,1-20.3,25.8c-4,4.2-8.5,7.9-12.9,11.8a123.5,123.5,0,0,1-18.2,13.1,150.2,150.2,0,0,1-34.4,15.6,135.7,135.7,0,0,1-34,6.1,147.9,147.9,0,0,1-28.2-1,151.9,151.9,0,0,1-22.3-4.5,163.8,163.8,0,0,1-35.5-15.2,172.2,172.2,0,0,1-30.8-22.9,147.8,147.8,0,0,1-19.1-22c-3.8-5.3-7.1-10.8-10.7-16.2a6,6,0,0,0-2.3-2.2c-2.1-.7-4.3-1.1-6.5-1.6l-4.9-1.1-.5.6c1,1.7,1.8,3.5,2.9,5a4.6,4.6,0,0,1,.4,4.7,35.9,35.9,0,0,1-3.5-.8l-6.6-3.2c-2.2-.9-3.2-.5-3.9,1.9a22.2,22.2,0,0,0-.7,4.5c-.2,2.2-1.3,3.1-3.5,2.4a17.6,17.6,0,0,1-2-.9l-6.5-3.1c-1.3,1.6-1.4,1.6-1.4,3.4S58,430.1,55.1,431.4ZM295.2,85.5c-.6,2.2-1.2,4-1.7,5.9a6.9,6.9,0,0,0,3.1,7.7c1.3.9,2.4.7,3.3-.8a22.6,22.6,0,0,0,1.1-2.2l1.9-2.4.9.5a10.3,10.3,0,0,1,.4,1.4,17,17,0,0,0,.4,2.2,3.2,3.2,0,0,0,4.2,1.9c1.6-.4,2.2-1.5,1.7-3.4a6.8,6.8,0,0,0-1.3-2.7c-.7-1.1-.6-1.9.2-2.6h3a3.3,3.3,0,0,0,2.9-4.2,5.6,5.6,0,0,0-4.9-4c-.7-.1-1.4.1-2.1,0s-2.2-1.3-1.2-2.8,3.9-5.2,5.8-7.9a2.8,2.8,0,0,0,.7-1.9c-.1-4-5.6-7.5-9.2-5.9-1.3.6-2.4.8-3.5.1a29.6,29.6,0,0,0,1.3-3.9c.3-2.7.5-5.5.7-8.2a6.9,6.9,0,0,0-1.1-4.4,12.8,12.8,0,0,1-1.4-4.3c-.1-1.6-.8-2.1-2.5-2.2a18.6,18.6,0,0,0-1,3.9c-.4,2.4-.4,4.9-.8,7.3a34,34,0,0,1-6,13.6,22.3,22.3,0,0,1-2.6,2.7,3.1,3.1,0,0,1-3.9-.6c-.9-1.2-.1-1.9.6-2.7s.7-1.2,1.1-1.8l-1.2-1.5L271.6,51.4a1.9,1.9,0,0,0-2.7-.1l-2.4,1.5a1.9,1.9,0,0,1-2.7-.4,11.4,11.4,0,0,1,1.6-1.5c1.2-1,2.6-1.8,3.7-2.8,5.9-5.2,8.7-12,9.9-19.6.3-1.5-.3-2.4-1.9-2.9s-8.5-.1-11.2,2.3a2.5,2.5,0,0,1-2.8.6,2,2,0,0,1-1.4-2.4c.4-3.5-1.1-6.7-2.3-9.8s-2.5-5.8-5.6-7.4a11.6,11.6,0,0,1-4-3.3,7.3,7.3,0,0,0-4.9-2.8c-2-.3-4.1-.5-6.1-.6-8-.3-13.6,3.7-18.2,9.7a4.4,4.4,0,0,0-.9,3.7,25.3,25.3,0,0,1-.1,3.8,12.3,12.3,0,0,1-2.4-1,22,22,0,0,1-2-2.3c-4.1-5.3-15.4-6.3-20.4-2a3.4,3.4,0,0,0-1,4.1A61.6,61.6,0,0,0,212.4,47a43.5,43.5,0,0,1,3.8,3.6,2.9,2.9,0,0,1,.5,2.5,2.8,2.8,0,0,1-2.3.7,5.1,5.1,0,0,1-2.5-1.1,2.3,2.3,0,0,0-3.1.2l-12.4,8.9c-1.3,1-1.3,1.5-.3,2.8s1.9.9,1.6,2.6c-2.8-.2-4.8-1.9-6.5-3.6A37.1,37.1,0,0,1,182,49.2a42.2,42.2,0,0,1-2.2-16.9c.2-2,.5-4.2-.4-6.5-5.5,1.6-10.4,3.7-14.4,7.9-2.2,2.4-3.3,4.9-2.8,8a9.1,9.1,0,0,0,1.7,4.2c.4.7,1.7.8,2.5,1.3a23.3,23.3,0,0,1,8.5,7.4c.2.1.2.3.3.5s-.3,2.1-1.6,1.9c-5.9-1-10.2,1.7-13.6,6.2a1.8,1.8,0,0,0,.1,2.7c2.2,2.1,1.7,5,2.5,7.4-.5.4-.7.6-.9.6H159c-3,0-5.6,2.5-4.7,4.7s2.4,3.7,4.7,4a5.9,5.9,0,0,0,4.9-1c3.7-2.6,8.3-2.6,12.7-3.1.6-.1,1.2.3,1.8.4.1,2-1.1,2.8-2.1,3.8s-1.2,2.8.4,3.8,5.9.4,6.3-3.1c.2-1.4.4-2.6,2.7-2.4a21.6,21.6,0,0,1,0,3.6c-.4,2.5-.5,2.5,1.6,3.8a12.9,12.9,0,0,0,3.3,1.7c.6.2,1.6.3,2-.1,2.1-1.9,5.2-2.4,6.6-5.3.5-1.1,1.5-1.2,2.6-.2l-.3,1.7c-.4,2.5.2,3.2,2.7,3.4h3.6a5.2,5.2,0,0,0,5.8-3.1c.5-.8.8-1.9,1.3-2.7s1.2-.9,1.8-1.4a5.2,5.2,0,0,1,1.1,1.9c.5,4.7,2,5.5,6.1,3.1h.3c2.8-3.1,5.9-6,7-10.3a57.3,57.3,0,0,1,1.4-5.6c.4-1,.3-3.1,2.3-2.7s1.4,2.2,1.2,3.4c-.5,4.3,2.2,6.5,5.5,8.4s5.5.7,8.3.2c.6-.1,1.6-.2,1.9.2a2.5,2.5,0,0,1,0,1.9c-.1.8-.7,1.5-.6,2.2.3,2.5,1.9,4.2,3.6,5.9s2.7.5,4.1.4h7.3c2.7-2.3,1.1-6.4,5-7.8a22.2,22.2,0,0,1,.7,3.8c0,3.7,2.1,4.8,5.4,5.1,5.9.6,11.3.4,14.6-5.7C292.6,85.2,293.6,84.9,295.2,85.5ZM70,242.1a10.6,10.6,0,0,0-5.4,4.5c-4.1,6.7-8.4,13.4-12.1,20.3a158.3,158.3,0,0,0-15,39.8c-1.3,5.2-1.9,10.5-2.9,15.7a99,99,0,0,0-1.8,19.5c0,5.7.2,11.5.5,17.2a119.4,119.4,0,0,0,1.5,13.4,201.7,201.7,0,0,0,5.9,25.3,214.9,214.9,0,0,0,10.9,26.8c.4.8,1,1.5,1.4,2.2h.7c.3-1.3.5-2.7.8-4.1a5.6,5.6,0,0,1,7.6-4l5.4,2c1-2.8,2.2-5.2,4.7-6.8s5.2.2,8.1.6a21.5,21.5,0,0,1-.2-2.3c.1-2.3,1.1-3.4,3.4-3.3a15.1,15.1,0,0,1,3.6.6l5.5,1.7a8,8,0,0,0,2.2,0l-1.1-2.5c-2.7-6.1-5.7-12.1-8-18.3a175.4,175.4,0,0,1-11.5-58.7c0-5-.1-10.1.1-15.1a67.7,67.7,0,0,1,.6-10.1c.9-6.4,1.8-12.7,3.1-19s2.9-11.5,4.7-17.2,3.5-9.8,5.3-14.7c.8-2.1,1.2-4.1-.4-6.6a44.9,44.9,0,0,0-2.9,4.1,3.1,3.1,0,0,1-3.1,2,3.4,3.4,0,0,1-2.9-2.5c-.4-1.5-.7-3.1-1.2-4.9a12.5,12.5,0,0,0-1.2.8c-1.1,1-2.2,2.1-3.8,1.2a3.6,3.6,0,0,1-2.3-3.9A23.6,23.6,0,0,0,70,242.1Zm91.1-136.4a17.8,17.8,0,0,0-1,2.1c-.9,2.7-1.9,5.4-2.6,8.2-1.9,7.6-3.8,15.3-2,23.2a29.3,29.3,0,0,0,8.9,15.5,48.8,48.8,0,0,0,14.4,9.3,98.4,98.4,0,0,0,13.9,4.6,77,77,0,0,0,13.6,2.1c3,.3,6.1,1,9-1a3.8,3.8,0,0,1,2.4-.2c2.5.2,5.1.4,7.6.8a79,79,0,0,0,16.1,1.4c4.4-.2,8.8.5,13.2-.7a20.2,20.2,0,0,1,6-.8c4.5,0,8.8-1.1,13-2s8.8-2.2,13-3.5a37.1,37.1,0,0,0,9.4-3.8c6.5-4,10.5-10.2,13.1-17.3a71.5,71.5,0,0,0,4-27.5,23,23,0,0,0-.3-2.6h-.9c-3.9,3-7.8,6-11.6,9.1a2.2,2.2,0,0,0-.9,1.2l-3,9.7,3.6.9a54.9,54.9,0,0,1,5.7,2c1.8.9,1.8,1.4,1.2,3.9a6.5,6.5,0,0,1-2.4,0c-3.4-1.4-6.9-.8-10.3-.3-8.4,1-15.7,4-19.6,12.3a4.4,4.4,0,0,1-1.2,1.1l-1.7-2.1-1.5,3.6-.7-.2a7,7,0,0,1-.1-2.5c.4-3.4.3-3.6-3-4.4l-1.2-.3c-11.3-3.8-17.6-12.2-20.8-23.2a39.2,39.2,0,0,1-1.5-14,4,4,0,0,0-2.5-4.1c-2.9-1.6-6-1.3-9.1-1.1s-5.3,1.8-4.8,6a.4.4,0,0,0,.1.3,23.8,23.8,0,0,1-1.2,11.5,25.5,25.5,0,0,0-.8,2.8l3.4-1.1c4.9-1.5,10.8.6,13.2,4.8a19.9,19.9,0,0,1,1.5,4.3c1,4.7-1,8.9-5,11.6-2.2,1.4-4.6,1.1-6.9,1.1a10.9,10.9,0,0,1-10.7-7.2,42.5,42.5,0,0,1-1.2-6c-2.5,2.1-5,4.6-7.8,6.7s-6.5,2.7-10.2,3.3c1,2.2,2,4.2,2.7,6.2s1.3,4,.3,6.1c-2.5,0-2.8-.2-3.7-2.3s-1.6-4.4-2.6-6.6-1.8-3.3-3.7-3.9a9.9,9.9,0,0,1-4.4-3.7,15.1,15.1,0,0,0-8.3-5.5c-2.1-.6-4.2-.8-6.4-1.2a6.9,6.9,0,0,0-5,.9c-1.5,1.1-3.2.9-5.3,0,3.1-4.7,8.3-3.3,12.1-4.6-1.4-4.7-2.7-9.2-4.1-13.6a4.6,4.6,0,0,0-1.3-2c-2.3-2-4.6-3.8-7-5.7A27,27,0,0,0,161.1,105.7ZM85.6,514.1a15.9,15.9,0,0,0,8.2-1.4c1.2-.7,2.7-1.5,2.6-3.1s-.3-6.3-1.3-9c-2.3-5.9-5.1-11.7-7.9-17.4a87.4,87.4,0,0,0-17.9-24.3c-4.6-4.5-9.4-8.7-13.7-13.4s-7.6-5.8-11.9-7.9a39.3,39.3,0,0,0-5.6-2.4c-7.2-2.5-14.2-4.9-22.1-3.8S3.6,440.3,5.4,447.6,11.8,464,17.2,471a127.9,127.9,0,0,0,23.3,23.2c9.9,7.6,20.6,13.9,32.5,17.7A35.2,35.2,0,0,0,85.6,514.1Zm285.3-94.8.6.3,3.4-2.5c1.2-.9,2.4-2,3.7-2.8s3.5-.4,3.6,1.9a25.6,25.6,0,0,1-.3,3.9c-.4,2.3-.9,4.5-1.4,7.3l5.7-3c2.4-1.3,4.8-.5,4.6,2.8a9.6,9.6,0,0,0,.3,5c1.6-1,2.9-2.2,4.4-2.5a4.7,4.7,0,0,0,3.5-3.4,176.5,176.5,0,0,0,9.8-28.4c1.2-5.4,2.3-10.9,3.3-16.4.7-3.7.7-7.5,1.4-11.2,1-5.4,1.1-10.9,1.4-16.4a101.6,101.6,0,0,0-.5-13.5c-.4-6.1-1-12.1-1.6-18.2a197.4,197.4,0,0,0-3.5-20.4,226.8,226.8,0,0,0-10.4-33.4c-.4-1-.6-2.3-1.8-2.9-2.2,4.3-4.4,4.7-7.9,1.6l-1.5-1.1c-.8.9-1.3,1.9-2.2,2.3s-1.8,2.7-1.3,4.7c1.9,7.6,3.8,15.2,5.3,23,1,4.8,1,9.7,1.9,14.5s.6,11.5.8,17.2a121.7,121.7,0,0,1-.9,17.1c-.6,6-1.4,12-2.4,17.9a159.1,159.1,0,0,1-12.9,41C373.7,408.8,373,414.2,370.9,419.3Zm-21.6,94.6c0,2.4,1.8,4.7,6.4,5.7a16.1,16.1,0,0,0,4.9.2,36.7,36.7,0,0,0,13.6-4.3c10.9-5.3,20.2-12.8,29-21.1a129.1,129.1,0,0,0,9.7-11,57.5,57.5,0,0,0,7.8-11.6c1.6-3.5,3.7-6.6,5.5-9.9a72.2,72.2,0,0,0,4.7-9.7,19.4,19.4,0,0,0,1.1-10.7c-1.2-6.4-3.8-8.1-10.2-6.7s-14,5.1-20.5,8.9a6.9,6.9,0,0,0-1.9,1.9c-1.1,1.6-2.1,3.3-4.4,3.3-.2,0-.5.3-.8.5-6.1,3.5-11.8,7.4-16.5,13s-11,12.9-15.6,20.1c-3.3,5.1-6.5,10.2-9.3,15.6S349.3,506.8,349.3,513.9Zm-89.1,22.7c-3-1.1-5.5-2.1-8.1-2.9a15.3,15.3,0,0,0-4.3-.4c-5.4.3-10.8,1-16.2,1.1s-9.2-.4-13.8-.7-11.2-.5-16.8-1.3a169.2,169.2,0,0,1-18.6-3.5,7.4,7.4,0,0,0-7.3,1.9,18.5,18.5,0,0,0-2.8,2.8c-1.7,2.3-2.5,4.8-1.1,7.5s3.2,4.7,6.6,4.5c1.8-.1,3.5,0,5.3,0s4-.4,5.4-2.2a4.3,4.3,0,0,1,1.7-1.3c1.9-.7,3,.1,3,2.1s-1.5,3.6-3.2,4.5a3.6,3.6,0,0,0-2.1,3.1,16.9,16.9,0,0,0,1.2,9.4c1.5,3.2,4.3,4.3,7.8,3.8s5.7-3.4,7.5-6.2a11.9,11.9,0,0,0,2.2-7.8c-.2-2.1.5-3.1,2.4-3.5a2.6,2.6,0,0,1,3.2,2.5c.5,3.1.9,6.3-.4,9.3a4.4,4.4,0,0,0-.5,2.7,45.5,45.5,0,0,0,3.3,7.9,6.5,6.5,0,0,0,7.6,3.4,14.1,14.1,0,0,0,9.5-6.1,28.2,28.2,0,0,1,1.8-2.9,17.7,17.7,0,0,0,4.2-8,6.1,6.1,0,0,1,1.5-2.6c1.8-1.8,4.2-1.2,4.7,1.2a43.4,43.4,0,0,1,.5,5.3,6,6,0,0,0,2.2.6,45.6,45.6,0,0,0,5.3-1.3c1.2-.4.9-1.7,1.1-2.6a6,6,0,0,1,.8-1.6c1.2-1.6,2.6-3,3.8-4.5a10.6,10.6,0,0,0,1.1-2.1c.5-1.8.5-3.7,1.1-5.4A15.4,15.4,0,0,0,260.2,536.6ZM82.1,139.4,70.7,115.6l.5-.3,1,1.4c2.6,5.5,5.3,10.9,7.9,16.3a19.5,19.5,0,0,0,1.9,3.5c2.3,3.3,3.2,3.4,6.6,1.2a18.8,18.8,0,0,0,8-21.1c-2.2-7.9-7.5-12.5-15.4-14.1-.3-.1-.7.2-1.5.4,3,8.2,8,15.5,10.2,23.8A215.4,215.4,0,0,1,78.5,103a12.5,12.5,0,0,0-3.5.4,74.6,74.6,0,0,0-10,4.5c-1,.6-1.4,2.5-2.1,3.8h-.3a16.4,16.4,0,0,0-1.6,2.9A19,19,0,0,0,73.4,139a12.3,12.3,0,0,0,2.6.3c-3-6-6-11.5-8.1-17.3a37.6,37.6,0,0,1,3.2,5.5c2,3.6,3.9,7.2,6,10.7S79.4,140.4,82.1,139.4ZM270.2,95.6a34.5,34.5,0,0,1,5.9,1,20.2,20.2,0,0,1,8.5,33.1,19.9,19.9,0,0,1-14.5,6.3c-6.1.2-11.1-2.5-15.3-6.8a18.9,18.9,0,0,1-.7-25.4,22.5,22.5,0,0,1,7.2-5.8c.9-.4,2-.7,1.5-1.8-2.9-.8-5.5-1.6-8.2-2.2a1.9,1.9,0,0,0-1.5,0c-3.6,1.8-7.2,3.6-7.3,8.5,0,1.8.3,3.7-.1,5.4-1,4-.5,7.9,0,11.9a31.4,31.4,0,0,0,3.2,10.8c3.5,7.1,8.7,12.3,16.5,14.6,3.1.9,6.3.9,8.7-1.5,4-4.1,8.4-7.5,14.1-8.8a4.4,4.4,0,0,0,3.2-2.6c3.1-6,5-12.1,4.2-19.1a45.3,45.3,0,0,0-3-11.5c-1.5-3.5-4-4.8-7.8-4.4a7.8,7.8,0,0,1-4.7-.7,42.2,42.2,0,0,0-6.1-2.8C271.8,92.9,271.8,92.9,270.2,95.6ZM222,110c-.1-1.9-.1-3.9-.3-5.8a14.4,14.4,0,0,0-5.9-10.7,2.8,2.8,0,0,0-2.5-.7,20.7,20.7,0,0,1-8.2-.3c-8.9-1.9-17.3.1-25.2,4.2-4.3,2.2-5.7,6.6-5.5,10.9a55.8,55.8,0,0,0,1.2,10.8c.8,3.2,2.5,6.2,3.9,9.3a8.9,8.9,0,0,0,5.1,4.6c3.2,1.5,6.3,3.4,9.4,5.1a8,8,0,0,0,3.1,1.2,61.5,61.5,0,0,0,7.4-.6,8.3,8.3,0,0,0,3.5-1c4-2.9,7.7-6,10.1-10.5S222.6,116,222,110Zm-66.3,63.1c-1.1-1.6-1.9-2.6-2.6-3.7-2-3-4.3-5.8-5.9-8.9a42.5,42.5,0,0,0-11.3-13.9,16.4,16.4,0,0,0-6.1-2.9c-2.8-.8-4.9.5-6,3.3a12,12,0,0,0-.8,4.2,25.9,25.9,0,0,0,2,11c2.5,7,6.9,12.9,11.3,19ZM72.2,236.5c3.2,1.2,1.7,4.2,2.7,6.5a25.1,25.1,0,0,0,2.7-1.8c1.1-.9,2.2-1.8,3.6-1.1s.9,2.4,1,3.6,0,3.4,0,5.7c1.9-1.8,3.1-3.1,4.5-4.2s2.4-.9,3.3.9a10.1,10.1,0,0,0,1,1.6l12.3-21.4L92.3,215C85.1,221.9,78.2,228.6,72.2,236.5Zm24.3-25.2c2.8,4.4,6.6,7.1,10,10.8A166.3,166.3,0,0,1,157,175.5,192.5,192.5,0,0,0,96.5,211.3ZM243.7,104.2c-.8-3.7,1.6-5.7,3.9-7.8l4.4-3.8-3.3-8.5c-4.3-.3-8.7-1.1-12.1-4.7-.4.7-.8.9-.9,1.3-1.6,4.3-4.1,7.5-9.2,7.7-.8,0-1.5.6-2.3.7s-3.9,1.9-6.1.3c-.2-.1-.9.5-1.9,1.1a25,25,0,0,1,3.2,1.2,5.2,5.2,0,0,1,1.7,1.2c1.1,1.4,2,3,3,4.5a8.3,8.3,0,0,1,1.9,4.5c0,.7.6,1.4.9,2.2,2.9-.4,5.5-1.2,8.1-1.2S240.3,103.7,243.7,104.2ZM85,147.1h1.3l1.5-.4a27,27,0,0,0,12.2-9.1,26.2,26.2,0,0,0,3.8-24.2c-2.2-7.3-6.6-13-13.5-16-9.3-4.2-18.4-3-26.7,3.1a26.3,26.3,0,0,0-11,19.8,25.4,25.4,0,0,0,6.2,18.8c1.5,1.9,3,4.1,6.2,5-.7-1.2-1.3-2-1.7-2.9s-.9-1.8-.7-2.3-.1-2.1-.9-2.9a19.8,19.8,0,0,1-2.5-24.4c1.4-2.1,3.4-3.8,4.7-6s4.1-4.2,6.9-5.3c4.4-1.7,8.8-2.7,13.4-1.4s7.2,2.3,10.1,5c5.3,5,7.7,11,7.7,18.4a22.5,22.5,0,0,1-15,20.8C84.5,143.9,84.5,143.9,85,147.1ZM392.1,264.6l.8-.2c.5-2.4,2.6-4.5,1.1-7.4a223.8,223.8,0,0,0-13.2-22.2,60.4,60.4,0,0,0-3.8-4.9c-2.2,3.3-4.2,6.1-6,9.1a3.2,3.2,0,0,0,.2,2.3,191.8,191.8,0,0,1,10.4,23.6l.9,1.8a1.8,1.8,0,0,0,1.9-1.8c.1-.8.1-1.6.2-2.5a2.7,2.7,0,0,1,2-2.4,2.5,2.5,0,0,1,2.9,1.3A26.9,26.9,0,0,0,392.1,264.6Zm-62.5-84.3a23.8,23.8,0,0,0,.8-2.6,72.7,72.7,0,0,1,2.9-13.7,10.6,10.6,0,0,0,.4-6.6c-1.1-3.4-3.1-4.6-6.5-3.4a6.9,6.9,0,0,0-1.9,1c-6.2,3.7-10.1,9.5-12.7,16-2,4.9-1.9,5,3,6.8l.9.3c1.2.4,2,.1,2.4-1.1s1.3-3.2,2.1-4.8,2.7-6.2,4.1-9.2c.5-1.2,1.1-2.3,2.7-1.9a3,3,0,0,1,.1,3.5l-4,9.3c-.6,1.5-1.2,3-1.8,4.7ZM209.1,50.2c-2.5-2.5-4.8-4.6-6.8-6.8a2.5,2.5,0,0,0-3.5-.6l-12.3,6.4c-1.2.6-1.7,1.4-.9,2.7a104.9,104.9,0,0,0,6,8.8c1.2,1.6,2.4,1.5,3.9.4l2.6-2.2ZM173.4,84.7c-1.1.9-2.3,1.4-3,2.3-3.8,4.8-6.3,10.4-8.6,16.5,4.1,1.2,6.4,4.9,10.8,6.3v-4.1a10,10,0,0,1,1.9-6c2.5-3.7,6.3-5.5,10.1-7.2l3-1.2L185,89a2.8,2.8,0,0,0-2.8-.6C178.6,89.3,175.5,88.7,173.4,84.7Zm112.4,37.7.7.2c3.3-6.1,1.5-16.1-5.6-21.1s-14.1-6.2-22.1-.1c-5.6,4.3-8.9,12.9-6.1,18.2a10.9,10.9,0,0,1,.5-1.4,38.9,38.9,0,0,1,2.2-6c3.7-6.6,10-8.3,16.9-8.5l1.2.2c7.3,1.6,12.7,8.7,12.3,15.3C285.7,120.3,285.8,121.4,285.8,122.4Zm53.6,74.7-.3.4a1.4,1.4,0,0,0,.2.6l1,1.1a171.9,171.9,0,0,1,26,33.5,23.8,23.8,0,0,0,1.7,1.9l4-5.8c1.7-2.7,1.6-3-.5-5.2a203.2,203.2,0,0,0-24.9-21.5C344.3,200.3,341.8,198.7,339.4,197.1Zm-101-62c.6-3.7-1.8-6.2-4.7-8.3a5.3,5.3,0,0,0-4.4-.9,9.7,9.7,0,0,0-6.7,13.4c1.5,3.2,5.9,5.9,8.7,5.3S238.4,139.7,238.4,135.1Zm32.8-85.7c2.9,2.2,5.6,4,8.1,6.1s4.7,4.4,7.3,6.9a20.8,20.8,0,0,0,3.5-9.7c.1-.8-.8-1.8-1.5-2.4a44.1,44.1,0,0,0-4.9-3.6l-6.6-4.2ZM182,37.8c.5,2.8.9,5.6,1.5,8.4s1.3,2.9,3.8,1.3l7.9-4.8a19.2,19.2,0,0,0,2.8-1.8,1.9,1.9,0,0,0,.8-1.5c-.2-2.4-3.5-5.3-5.9-5.3a55.2,55.2,0,0,1-5.8-.2C182.3,33.1,182.3,33,182,37.8Zm98.9-5.7c-.7,2.3-1.4,4.4-2.2,6.5s-.2,2.1,1,2.8l9.2,5.6a8.1,8.1,0,0,0,2.1.5c1.5-5.3.6-10.3-.4-15.4ZM300,117.4l10.5-8.6a2.8,2.8,0,0,0,1-2.3c-.4-1.7-1-3.6-2.2-4.6s-3.7-1.4-5.6-2.1l-.5.2c-2,1.8-4.3,2.2-7.4,2A32.7,32.7,0,0,1,300,117.4ZM77.4,150l-2-.7c-4.1-1-5.5-.3-6.6,3.6s-2.7,9.9-4.1,14.8c-.6,1.9-.3,3.4,1.7,4.8a26.8,26.8,0,0,0,3.9-8.2c.4-1.5.5-2.9,2-3.9a3.7,3.7,0,0,0,1.3-1.7C74.8,155.9,76,153.1,77.4,150ZM184.1,21.5a24.2,24.2,0,0,0-1.8,8.2c0,1.6.7,2.2,2.2,2.2h5.6l3.9-.4-3.4-7.7a3.4,3.4,0,0,0-1.9-1.4A41.7,41.7,0,0,0,184.1,21.5Zm97.5,8c2.8,0,5.4.4,8.1-.4-.4-3.6-1.9-6.6-3.2-9.6a2.2,2.2,0,0,0-1.4-1.1,3.5,3.5,0,0,0-4,4.1c.2,1.2.2,2.4.3,3.6S281.5,28.3,281.6,29.5Zm-3.9,85.3a5.6,5.6,0,0,0-2.6-5,3.7,3.7,0,0,0-4.8.2,4,4,0,0,0-1.2,4.4c.6,2,2.2,3,3.9,3.7S277.7,117.7,277.7,114.8ZM58.3,197.3c1.3-4.3,2.4-8.2,3.5-12.1a4.5,4.5,0,0,0,.3-1.1c-.1-.4-.3-.9-.6-1a1.7,1.7,0,0,0-1.4.2,3.8,3.8,0,0,0-.9,1.5c-1.1,2.8-2.3,5.7-3.3,8.6a12.4,12.4,0,0,0-.6,2.9ZM276.6,9.6c0,.3-.1.6,0,.8,1,2.1,2,4.2,3.1,6.2s1.5,1.4,2.8.7,1.7-1.7.9-2.7S279.8,10.1,276.6,9.6Zm-88.1,2.9-.9-.2c-.9,2.1-2,4.2-2.8,6.3a1.4,1.4,0,0,0,1.3,2,17.2,17.2,0,0,0,3.2-.2C189,17.5,188.8,15,188.5,12.5ZM80,144.3c-4-.8-7.4-1-8.9-.4a11.8,11.8,0,0,0,5.6,3C78.9,147.5,79.4,147.1,80,144.3Zm-16.4,36-.9-3C61,179.4,61,179.4,63.6,180.3ZM291.8,95.9c-.5-.3-.8-.7-1.1-.7s-.5.5-.8.7.6.7.9.8S291.3,96.3,291.8,95.9Z"/><path class="cls-1" d="M277.7,114.8c0,2.9-1.9,4.3-4.7,3.3s-3.3-1.7-3.9-3.7a4,4,0,0,1,1.2-4.4,3.7,3.7,0,0,1,4.8-.2A5.6,5.6,0,0,1,277.7,114.8Z"/><path d="M291.8,95.9c-.5.4-.8.8-1,.8s-.6-.5-.9-.8.5-.7.8-.7S291.3,95.6,291.8,95.9Z"/><path d="M178.3,175.7h1.4c9.1,3.4,18.4,6.4,28,7.8,5,.7,9.9,1.4,14.9,1.8,7.8.5,15.7,1,23.6,1.1s13.1-.7,19.6-1.1l9.6-.4a17.4,17.4,0,0,1-8.4,2.6c-3.5.4-7.1.4-10.7.6s-10,.8-15,.7-12.4-.8-18.7-1.1a108.4,108.4,0,0,1-17.9-2.4,155.4,155.4,0,0,1-24.8-7.9,19.9,19.9,0,0,1-1.9-1.2Z"/><path d="M254.4,461.3c-.9.5-1.4,1.1-2,1.2a89.3,89.3,0,0,1-11,2.9,55.3,55.3,0,0,1-17.7.1c-7.9-1.3-15.9-2.4-23.8-3.9a52.9,52.9,0,0,1-9.2-3.2,15.9,15.9,0,0,1-2.7-1.8l.3-.6,1.5.2c7.5,3.2,15.4,4.7,23.5,5.5l13.1,1.5a60.2,60.2,0,0,0,21.5-2.2l3.2-1C252.3,459.7,252.4,459.8,254.4,461.3Z"/><path d="M227.5,417.2c-.6-4.5-2-7.8-4.5-9.9.6-1.4,1.4-1.7,2.5-.6a6.2,6.2,0,0,1,1,1.6c2.3,5.4,4.6,10.9,7,16.2,1.1,2.5.1,4.6-.6,6.8s-1.3,1.5-2.5,1a14.5,14.5,0,0,1-6.7-6c-1.6-2.8-.9-5.5,1.7-7.6Z"/><path d="M221.1,151.3a11.9,11.9,0,0,1,1.9,1.6,10.1,10.1,0,0,0,6.8,3.7,3.5,3.5,0,0,0,2.3-.3l5.6-4.6c.4-.3,1.1-.6,1.3-.5s.9,1,.8,1.5a6.6,6.6,0,0,1-4.6,5.3c-4,1.5-7.8.7-11.4-1.5A5.4,5.4,0,0,1,221.1,151.3Z"/><path d="M65.1,114.9l1.8,3.7C65,117.2,65,117.2,65.1,114.9Z"/><path d="M67.7,108.4l1.6,2.4c-1.5-.1-1.7-1.2-2.1-2.1Z"/><path d="M197.8,133.3c-6.2.4-10.5-2.9-14.2-7.4a19.3,19.3,0,0,1-4.2-9.7,16.4,16.4,0,0,1,2.1-10.4c3.4-5.9,8.4-9.3,15.4-10.4s10.9.9,15.2,4.6a17.3,17.3,0,0,1,5.6,11.4c.9,10.5-5.1,18.8-15.3,21.4C200.9,133.1,199.3,133.1,197.8,133.3Zm-15.9-18.5a17.8,17.8,0,0,0,1-2.3c3-7.1,9.6-10.7,17.4-9.5,2.3.3,4.9.5,6.9,2.3,3.8,3.3,6.2,7.2,6.1,12.5a16.7,16.7,0,0,0,.3,2.8c3.6-3.9,1.7-13.1-1.8-17.3-5-6.1-13.1-7.9-18.1-5.8C185.7,100.8,181.8,107.2,181.9,114.8Zm20.8,2.1c2.8,0,3.8-.9,3.9-3.6s-2.6-6.2-7-4.9c-1.9.5-3.4,3.1-2.8,4.5A7,7,0,0,0,202.7,116.9Z"/><path d="M134.9,154.2l5.2,7.1,7.7,10.3c.3.3.7.6.7.9s.2,1.4-.1,1.7a1.8,1.8,0,0,1-1.6-.1,36.8,36.8,0,0,1-4-3.9c-3.4-4.3-6.4-8.9-8-14.3l-.3-1.2Z"/><path class="cls-1" d="M202.7,116.9a7,7,0,0,1-5.9-4c-.6-1.4.9-4,2.8-4.5,4.4-1.3,7.1.9,7,4.9S205.5,116.9,202.7,116.9Z"/><text/><path class="cls-2" d="M150,238.2l-6.8,1.9-.7-2.3,16.1-4.5.7,2.3-6.8,1.9,4.7,16.7-2.5.7Z"/><path class="cls-2" d="M169.9,237.5a4.8,4.8,0,0,0-3.5,5.9l1.8,8-2.4.5-4.5-20.2,2.4-.5,1.7,7.8a5.3,5.3,0,0,1,4.3-3.9c3.4-.8,6.3,1.3,7.1,4.9l2,9.1-2.4.5-1.9-8.9A3.8,3.8,0,0,0,169.9,237.5Z"/><path class="cls-2" d="M179.9,241.2c-.8-4.7,1.7-8.5,5.9-9.1s7.7,2.3,8.4,7.1a.7.7,0,0,1,.1.5l-11.7,1.9a5,5,0,0,0,5.5,3.8,4,4,0,0,0,3.6-3.7l2.9.4c-.3,2.8-2.8,5.2-6.1,5.7S180.6,245.7,179.9,241.2Zm11.5-3.4a4.8,4.8,0,0,0-5.3-3.4c-2.3.4-3.7,2.3-3.8,4.8Z"/><path class="cls-2" d="M205.5,225.4l1.8,19.7-2.5.2-1.9-19.7Z"/><path class="cls-2" d="M217.4,231.2a4.9,4.9,0,0,0-4.4,5.3l.4,8.1H211l-.8-15.2h2.1l.5,2.8a5.2,5.2,0,0,1,4.8-3.4c3.5-.2,6.1,2.3,6.2,6l.5,9.3h-2.4l-.5-9.1A3.8,3.8,0,0,0,217.4,231.2Z"/><path class="cls-2" d="M225.6,228.8h1a1.7,1.7,0,0,0,1.6-1.9v-2h2.3v3.9h3.3v2.4h-3.3V240a1.8,1.8,0,0,0,2.1,1.9,2.3,2.3,0,0,0,1.2-.2v2.5l-1.7.2c-2.5,0-4.2-1.5-4.2-3.9v-9.3h-2.5Z"/><path class="cls-2" d="M235.7,236.5c.2-4.7,3.4-7.9,7.7-7.8s7,3.9,6.8,8.8a1.3,1.3,0,0,1-.1.5l-11.8-.5c.3,2.7,2.1,4.7,4.6,4.8a4.1,4.1,0,0,0,4.3-2.9l2.7,1c-.8,2.6-3.7,4.5-7.1,4.3S235.5,241.1,235.7,236.5Zm11.9-1a4.7,4.7,0,0,0-4.5-4.4c-2.2-.1-4,1.5-4.6,4Z"/><path class="cls-2" d="M253.9,229.8l2,.2v2.5a4.2,4.2,0,0,1,4.2-2.5l1.7.5-.4,2.9a3.6,3.6,0,0,0-5.8,3l-.9,8.8-2.4-.3Z"/><path class="cls-2" d="M271.2,233.9c-2.5-.4-4.8,1.4-5.3,4.3l-1.2,8-2.4-.3,2.3-15.1,2,.3v2.8a5.5,5.5,0,0,1,5.5-2.4c3.4.5,5.4,3.5,4.9,7.2l-1.4,9.1-2.4-.3,1.4-9A3.8,3.8,0,0,0,271.2,233.9Z"/><path class="cls-2" d="M279.3,240.8c1-4.5,4.7-7.2,8.9-6.3s6.3,4.9,5.3,9.7c-.1.1-.1.3-.2.5l-11.5-2.5c-.2,2.8,1.2,5,3.7,5.5a4.1,4.1,0,0,0,4.7-2.1l2.5,1.4c-1.2,2.5-4.4,3.8-7.7,3.1S278.4,245.3,279.3,240.8Zm12,1a4.7,4.7,0,0,0-3.8-5c-2.2-.5-4.2.8-5.2,3.1Z"/><path class="cls-2" d="M296.4,236.7l.9.2c1,.3,1.8-.3,2.1-1.4l.5-1.9,2.3.6-1,3.7,3.2.9-.6,2.3-3.2-.9-2.3,8.6a1.9,1.9,0,0,0,1.6,2.3,2.7,2.7,0,0,0,1.2.2l-.5,2.4-1.7-.2c-2.4-.7-3.6-2.6-3-4.9l2.3-9-2.4-.6Z"/><path class="cls-2" d="M316.6,242.5,312,257l-2.3-.7,4.6-14.6Zm.7-6a2,2,0,0,1,1.2,2.5,1.9,1.9,0,0,1-2.4,1.3,1.9,1.9,0,0,1-1.2-2.5A1.9,1.9,0,0,1,317.3,236.5Z"/><path class="cls-2" d="M321.6,258.3c1.6.5,3.1.1,3.5-1.1,1.2-3.3-7.8-4.9-6-9.9,1-2.6,3.7-3.1,6.6-2.1s4.5,3.5,4,5.9l-2.7-.3c.5-1.4-.5-2.9-2.1-3.5s-2.9-.2-3.3,1c-1.2,3.1,7.9,4.8,6,9.8-.9,2.5-3.7,3.5-7,2.3s-5.3-4.1-4.5-6.9l2.7.3C318.3,255.6,319.6,257.5,321.6,258.3Z"/><path class="cls-2" d="M158.6,305.6l-5.2.7-.4-3,1.7-.3c2.1-.2,3.4-2.1,3.2-4.4l-.2-1.7,3.2-.4,3.1,25.8-3.3.4Z"/><path class="cls-2" d="M167.7,319.6a2.5,2.5,0,0,1,2.2-2.9,2.5,2.5,0,0,1,2.9,2.3,2.5,2.5,0,0,1-2.3,2.9A2.4,2.4,0,0,1,167.7,319.6Z"/><path class="cls-2" d="M184.7,307.7c1.3-.8,4-2.1,3.7-5.6a4.9,4.9,0,0,0-5.3-4.9c-2.9.2-4.8,2.7-4.6,5.9.1.4.1.9.3,1.6l-3.6.6c-.1-.8-.1-1.4-.2-2a8.4,8.4,0,0,1,7.8-9.4c4.8-.3,8.5,2.7,8.8,7.6s-3.2,7.5-5.6,9.1-6.3,3.7-6.2,6.7l13.1-1,.2,3.4L176,321v-1C175.5,313.7,179.1,311.2,184.7,307.7Z"/><path class="cls-2" d="M227.1,301.5c-3,0-5.4,2.8-5.4,6.6l.2,10.6h-3.2V306.9c-.1-3.1-1.9-5.3-4.7-5.3s-5.5,2.9-5.4,6.7v10.6h-3.2l-.3-20h2.6l.6,3.5a6.2,6.2,0,0,1,6-4,7.1,7.1,0,0,1,6.7,4.4,6.7,6.7,0,0,1,6.6-4.6c4.4-.1,7.2,3.5,7.2,8l.2,12.3h-3.2l-.2-12C231.6,303.5,229.8,301.4,227.1,301.5Z"/><path class="cls-2" d="M241.9,291.1a2.6,2.6,0,0,1-.1,5.2,2.5,2.5,0,0,1-2.4-2.7A2.5,2.5,0,0,1,241.9,291.1Zm1.4,7.7-.4,20h-3.1l.3-20Z"/><path class="cls-2" d="M252.5,291.9l-.9,27.2h-3.2l.9-27.2Z"/><path class="cls-2" d="M261.4,292.3l-1.3,27.2-3.2-.2,1.3-27.2Z"/><path class="cls-2" d="M270,300l-1.2,19.9-3.2-.2,1.2-19.9Zm-1.1-7.8a2.6,2.6,0,1,1-2.7,2.4A2.4,2.4,0,0,1,268.9,292.2Z"/><path class="cls-2" d="M273.6,310.1c.5-6,5-10.1,10.8-9.6s9.6,5.2,9.1,11.3-5,10.1-10.8,9.6S273.1,316.2,273.6,310.1Zm9.4,8.1c3.8.3,6.8-2.5,7.2-6.7s-2.2-7.5-6-7.9-6.9,2.6-7.3,6.8S279.1,317.9,283,318.2Z"/><path class="cls-2" d="M307.4,306a6.3,6.3,0,0,0-6.8,5.9l-1.2,10.6-3.2-.4,2.3-19.8,2.7.3v3.7a6.6,6.6,0,0,1,7-3.4c4.5.5,7.3,4.3,6.8,9.2l-1.4,12-3.2-.3,1.4-11.9C312.1,308.8,310.4,306.4,307.4,306Z"/><path class="cls-2" d="M147.7,359.4l-.8,4.1,3.8.7-.4,2-3.8-.6-1.4,7.8c-.3,1.8,0,2.9,1.5,3.2h1.6l-.3,2a6.8,6.8,0,0,1-2.4-.1,3.7,3.7,0,0,1-2.6-1.6,5.7,5.7,0,0,1-.4-4l1.5-7.9-2.3-.4.4-2,2.2.4.7-3.5Z"/><path class="cls-2" d="M153.3,372.7c-.5,3.5,1.5,5.4,4.2,5.8a8.9,8.9,0,0,0,4.1-.1l.2,2a11.2,11.2,0,0,1-5,.1c-4.5-.7-6.7-4.1-6-8.5s3.9-7.4,8.1-6.7,5.4,5.1,4.9,7.8a3.5,3.5,0,0,1-.3,1.2Zm8.1-.7c.3-1.7,0-4.4-3-4.9s-4.2,1.9-4.7,3.7Z"/><path class="cls-2" d="M167.2,371.5c.2-1.7.4-3.2.5-4.5l2.3.3-.3,2.9h.1a4.3,4.3,0,0,1,4.5-2.6l.8.2-.4,2.5-.9-.3a3.8,3.8,0,0,0-4,2.9,5,5,0,0,0-.3,1.3l-1.1,7.8-2.7-.4Z"/><path class="cls-2" d="M183.5,383.9v-1.8h-.1a5.7,5.7,0,0,1-4.8,1.7,4.2,4.2,0,0,1-3.9-4.8c.4-3.5,3.8-5.1,9.5-4.4v-.3c.1-1.2.1-3.4-2.9-3.8a7.5,7.5,0,0,0-4,.7l-.4-1.9a10.2,10.2,0,0,1,5-.7c4.5.6,5.2,3.8,4.8,6.7l-.6,5.5a14.5,14.5,0,0,0-.2,3.5Zm.5-7.5c-2.9-.4-6.3-.3-6.6,2.5a2.4,2.4,0,0,0,2.2,2.9,3.7,3.7,0,0,0,3.8-2l.3-.9Z"/><path class="cls-2" d="M189.7,384.7c.1-1,.3-2.5.5-3.8l1.7-17.8,2.6.3-.9,9.2h.1a5.7,5.7,0,0,1,5.3-2.2c3.6.3,5.9,3.6,5.4,8.1s-4,7.5-7.3,7.2a5.4,5.4,0,0,1-4.7-3.2h-.1l-.3,2.4ZM193,379v1a4.2,4.2,0,0,0,3.7,3.5c2.8.3,4.7-1.8,5.1-5.2s-1-5.6-3.9-5.9a4.4,4.4,0,0,0-4.4,2.9,3.6,3.6,0,0,0-.2,1.1Z"/><path class="cls-2" d="M208.7,371.6l2.7,8.9c.2,1,.5,2.2.7,3.1h.1l1.1-3,3.5-8.5,2.9.2-4.8,10.3c-2.3,4.9-3.7,7.4-5.7,8.8a7.1,7.1,0,0,1-3.4,1.5l-.5-2.3a5.7,5.7,0,0,0,2.4-1.1,7.8,7.8,0,0,0,2.5-2.8l.3-.7c0-.1-.1-.3-.2-.7l-4.5-13.9Z"/><path class="cls-2" d="M225.1,368.3l-.2,4.3h3.8v2.1l-3.8-.2-.4,8c-.1,1.8.4,2.8,1.9,2.9h1.5v2a7.8,7.8,0,0,1-2.4.3,3.8,3.8,0,0,1-2.9-1.3c-.7-.8-.9-2.1-.8-3.9l.4-8h-2.3v-2.1h2.3v-3.5Z"/><path class="cls-2" d="M232.8,380.8c0,3.6,2.3,5.1,5,5.2a10.4,10.4,0,0,0,4.1-.7l.4,1.9a11.2,11.2,0,0,1-4.9.9c-4.6-.1-7.2-3.2-7.1-7.6s2.8-7.9,7.1-7.8,6,4.3,5.9,7c0,.6-.1,1-.1,1.3Zm7.9-1.8c.1-1.7-.6-4.4-3.6-4.4s-3.9,2.4-4.2,4.2Z"/><path class="cls-2" d="M246.5,385.1a7.2,7.2,0,0,0,3.5,1.1c2-.1,2.9-1,2.9-2.3s-.8-1.9-2.8-2.7-3.9-2.3-3.9-4.1,1.8-4.3,5-4.4a7,7,0,0,1,3.6.9l-.6,2a5.6,5.6,0,0,0-3-.9c-1.6.1-2.5,1-2.5,2.1s.9,1.7,2.8,2.5,3.9,2.2,3.9,4.4-1.9,4.4-5.4,4.4a7.5,7.5,0,0,1-4.2-.9Z"/><path class="cls-2" d="M264.9,365.8h2.7l1,21.6h-2.7Z"/><path class="cls-2" d="M281.6,386.4l-.3-1.8h-.1a5.6,5.6,0,0,1-4.4,2.5,4.2,4.2,0,0,1-4.8-3.8c-.3-3.6,2.8-5.8,8.4-6.2v-.3c-.1-1.2-.6-3.4-3.6-3.1a6.4,6.4,0,0,0-3.7,1.4l-.8-1.8a9.8,9.8,0,0,1,4.8-1.6c4.5-.4,5.8,2.6,6,5.5l.4,5.5a31.3,31.3,0,0,0,.5,3.6Zm-1-7.4c-2.9.1-6.2.9-5.9,3.8a2.3,2.3,0,0,0,2.7,2.3,3.7,3.7,0,0,0,3.4-2.7,2.7,2.7,0,0,0,0-.9Z"/><path class="cls-2" d="M287.4,375.7c-.2-1.7-.4-3.2-.6-4.6l2.3-.2.4,2.8h.2a4.3,4.3,0,0,1,3.7-3.6.8.8,0,0,1,.7,0l.3,2.5a1.4,1.4,0,0,0-.9,0,3.7,3.7,0,0,0-3.2,3.8v1.3l.9,7.8-2.6.3Z"/><path class="cls-2" d="M309.1,368.1c.1,1,.2,2.2.5,4l1.3,8.4c.5,3.4.2,5.5-1,7a7.7,7.7,0,0,1-5,2.6,9.5,9.5,0,0,1-5.1-.4l.4-2.2a7.4,7.4,0,0,0,4.4.5c2.7-.4,4.5-2.1,3.9-5.8l-.2-1.6h-.1a5.3,5.3,0,0,1-4.2,3.1c-3.7.6-6.7-2.1-7.4-6.1s2-8.2,5.4-8.8a4.8,4.8,0,0,1,4.9,1.8h.1l-.2-2.2Zm-1.9,6.1a2,2,0,0,0-.3-1.1,3.8,3.8,0,0,0-4.1-2.3c-2.6.4-4,2.9-3.5,6.2s2.3,5,5.1,4.6a4,4,0,0,0,3.3-3.3v-1.4Z"/><path class="cls-2" d="M316.4,374.6c.8,3.5,3.4,4.5,6,3.9a9.8,9.8,0,0,0,3.8-1.6l.9,1.8a12,12,0,0,1-4.6,1.9c-4.4,1-7.7-1.3-8.7-5.7s.9-8.3,5.1-9.2,6.8,2.8,7.4,5.4a10.5,10.5,0,0,1,.2,1.3Zm7.2-3.6c-.3-1.6-1.6-4.1-4.5-3.4s-3.3,3.3-3.1,5.1Z"/><path class="cls-3" d="M536,314.6"/><path class="cls-3" d="M-162.6,223.4"/></svg>