<svg id="Layer_1" data-name="Layer 1" xmlns="http://www.w3.org/2000/svg" viewBox="0 0 562.19 576.39"><defs><style>.cls-1{fill:#fff;}.cls-2,.cls-4{font-size:30.48px;}.cls-2,.cls-3,.cls-4{fill:#231f20;}.cls-2,.cls-3{font-family:ApfelGrotezk-Regular, Apfel Grotezk;}.cls-3{font-size:40px;}.cls-4{font-family:MyriadPro-Regular, Myriad Pro;}.cls-5{fill:none;stroke:#231f20;stroke-miterlimit:10;}</style></defs><path d="M538.6,193.07A127.42,127.42,0,0,1,582,223.66c1.06-1.39,1.86-2.41,2.64-3.44,3.5-4.67,6.94-9.39,10.53-14a6.72,6.72,0,0,0,1.41-5.45c-.56-3.84-1.21-7.66-1.69-11.5a28.5,28.5,0,0,1,0-4.62,3.07,3.07,0,0,1,2-2.88c1-.47,2.1-1,3.16-.05a2.66,2.66,0,0,1,.64,3.07c-1.2,4.18.15,8.2.72,12.76a15.21,15.21,0,0,0,1.69-1.36c1.28-1.47,2.59-2.92,3.74-4.49,2.36-3.2,5.74-4.87,9.25-6.38a2.26,2.26,0,0,1,3,.59c.94,1.25.09,2.08-.71,2.92-3.26,3.41-6.53,6.81-9.76,10.24a16.33,16.33,0,0,0-1.32,2.1c1.26.13,2.13.27,3,.29,2,0,3.9,0,5.85,0,1.32,0,2.26.48,2.23,1.92s-1.09,1.74-2.35,1.81c-2.44.14-4.88.36-7.32.56-2,.17-4.06.43-6.09.53-1.66.08-2.14,1.46-2.9,2.48-3.43,4.59-6.8,9.25-10.19,13.88l-3.69,5,3.9,5a158.76,158.76,0,0,1,14,21.23,179.49,179.49,0,0,1,12.71,28.6A154.92,154.92,0,0,1,623,306.72c1.19,6.51,2.44,13,3.38,19.56.61,4.24.75,8.55,1.06,12.83.41,5.6.85,11.2,1.11,16.81.11,2.24-.32,4.49-.35,6.74a167.67,167.67,0,0,1-9.82,53.81,239.23,239.23,0,0,1-12.09,28.25,15.12,15.12,0,0,0-.58,1.85,18.44,18.44,0,0,0,2.15-.79,52.43,52.43,0,0,1,17-5.9c9.43-1.4,15.09,3.53,15.51,12.15.3,6.17.19,12.55-2.38,18.41a87.38,87.38,0,0,1-4.69,8.6c-2.63,4.5-5.24,9-8.06,13.4a45.4,45.4,0,0,1-4.49,5.43c-6.18,7-12.18,14.12-20.24,19.12-5.47,3.4-10.82,7-16.22,10.5a4.74,4.74,0,0,1-1.06.62c-6.84,2.07-13.11,5.82-20.38,6.73a21.92,21.92,0,0,1-13.68-2.23,9.67,9.67,0,0,1-4.34-5c-1.57-3.77-1.17-7.59-.43-11.44.11-.6.22-1.2.28-1.8,0-.15-.19-.31-.36-.56-1.74,1.39-3.49,2.78-5.22,4.18-4.05,3.27-8,6.74-12.18,9.79a41.16,41.16,0,0,1-12.74,6c-6.57,1.93-13,4.19-19.6,6.1-4.8,1.41-9.68,2.56-14.55,3.68-3.74.86-7.53,1.51-11.64,2.32,0,1.95.06,4.18,0,6.41,0,1.21-.32,2.41-.47,3.61-.3,2.34-1.1,4.22-3.4,5.44-1.07.57-1.63,2.06-2.48,3.09-3.11,3.76-6.45,7.28-11.6,8a44.54,44.54,0,0,1-6.24,0c-1.19,2.27-2.43,4.7-3.75,7.09-2.57,4.64-6.27,7-11.83,6.4-2.29-.26-4.68.28-7,.48-5.18.45-8.3-2.28-10.27-6.7-.75-1.68-1.31-3.44-2.14-5.62-1,.81-2.08,1.32-2.57,2.17-2.12,3.69-5.74,4.05-9.31,4.19a30.07,30.07,0,0,1-5.91-.88c-.63-1.31-.81-2.43-1.47-2.9-3.25-2.36-4-5.83-4.41-9.42a60.74,60.74,0,0,1,0-6.36,3.8,3.8,0,0,0-1.25-.14,15.32,15.32,0,0,1-14.52-5.36,9,9,0,0,1-.51-11.39,68.57,68.57,0,0,1,5.68-6.24,13.89,13.89,0,0,0-1.93-1c-7.36-2.51-14.85-4.72-22.1-7.52a198.29,198.29,0,0,1-45.18-24.85,17.58,17.58,0,0,0-1.53-1c-.15-.08-.39,0-.57,0,.08,4.2.63,8.47.13,12.62a24,24,0,0,1-4.32,11.89l-2.13-1.79c-4.33,2.49-9.24,2.68-14.18,2.38-5.36-.34-10.46-2-15.46-3.77-11.3-4.09-21.34-10.42-30.89-17.62a139.45,139.45,0,0,1-18.37-17.24,79.69,79.69,0,0,1-14.57-22c-1.88-4.32-3.47-8.84-3.45-13.61,0-8.92,5.33-14.57,13.37-16.38,5.74-1.29,11.44-.55,17.05.84a73.1,73.1,0,0,1,18.15,7.46c1.41.79,2.86,1.51,4.59,2.42,0-.79.13-1.22,0-1.51-3.27-6.39-6.86-12.63-9.78-19.16-2.67-6-4.8-12.22-6.87-18.44A176,176,0,0,1,230.56,382c-2.06-12.64-2.12-25.3-1.37-38a159.33,159.33,0,0,1,4.66-29.09A174,174,0,0,1,248.9,275.3a189.09,189.09,0,0,1,20-30.61A174.61,174.61,0,0,1,289.31,223a14.82,14.82,0,0,0,1.06-1.19,259.14,259.14,0,0,0-19.62-23.7c-.73,2.52-1.31,4.43-1.84,6.35-.63,2.27-1.27,4.55-1.8,6.84a2.3,2.3,0,0,1-2.34,2,7,7,0,0,1-6.15-2.13,6.42,6.42,0,0,0-4.53-2.21c-3.38-.27-4.07-1.23-3.18-4.57.7-2.67,1.59-5.29,2.44-7.92.58-1.84,1.24-3.65,2-5.85L242.29,185a2.66,2.66,0,0,1,3.17-.41c2.41.87,4.82,1.76,7.23,2.62.95.34,1.92.62,3,1a16.81,16.81,0,0,0,2.66-7.24c.17-.95-.52-2.14-1-3.11-.95-1.82-2.11-3.52-3.08-5.33-.86-1.58-.56-2.57.81-3.35s2.36-.56,3.37.87c.54.75,1,1.52,1.59,2.26.1.13.36.14.91.35l5.26-14c-6-4.25-11.47-8.53-14.49-15.07a29.1,29.1,0,0,1,7-34.27c9.48-8.43,20.45-10.78,32.34-6.62,10.88,3.8,17,12.11,19.14,23.31a47.32,47.32,0,0,1,.07,16.19c-1,6.42-4.26,11.42-9,15.58-1.3,1.13-2.81,2-4.17,3.12-2.47,2-5.33,2.72-8.4,3.35-3.82.78-7.34,2.39-8.81,6.64-1.13,3.29-2.64,6.45-3.77,9.75a29.17,29.17,0,0,0-1,5.38c-.13.9.21,1.93-.09,2.75-1,2.61.22,4.62,1.64,6.53Q284,205.18,291.42,215c.85,1.13,1.81,2.17,3,3.55A215.66,215.66,0,0,1,333,193.05c-2.43-3.39-4.83-6.44-6.89-9.71a46.36,46.36,0,0,1-7-18.57,14.9,14.9,0,0,1,1.17-9c3-5.82,7.11-7.33,14-5.83a24.6,24.6,0,0,1,11.68,6.47c4,3.76,7.73,7.7,9.91,12.78,1.29,3,2.19,6.13,3.21,9.23.35,1.06.52,2.17.76,3.24,3.18.12,3.41-.08,4.25-2.95a8.75,8.75,0,0,1,4.46-5.61c.53-.26,1-.59,1.56-.91-.16-.43-.17-.8-.37-1-2.86-2.46-5.74-4.92-8.64-7.35-4.65-3.89-8-8.46-8.21-14.84-.09-2.75-.84-5.53-.58-8.22a83.15,83.15,0,0,1,4.11-20.08c.65-1.84,1.19-3.72,1.91-5.52a2.41,2.41,0,0,0-.9-3.22c-1.68-1.17-3.35-2.37-5.11-3.41-2.8-1.67-5.38-1.08-7.15,1.68-.77,1.19-1.21,2.59-1.89,3.85a12.91,12.91,0,0,1-1.56,1.81c-.28-1.07-.63-1.65-.54-2.16a9.57,9.57,0,0,1,5.62-7.57c3.05-1.32,5.79,0,8.25,1.87,1.44,1.1,2.86,2.22,4.48,3.48l8.6-14.27a29.33,29.33,0,0,0-4.13-.49c-5.28.12-8.48-3.08-11.25-6.93a3.2,3.2,0,0,1,0-3.79,18,18,0,0,1,3.12-3.3,2.78,2.78,0,0,0,1.23-2.53c-.13-6.43.47-9.29,6.17-12.33l4.54-2.43c-1.05-.77-1.68-1.27-2.36-1.72-1.85-1.22-3.3-2.48-3.22-5.12,0-1.38-1.11-2.8-1.75-4.19-1.75-3.84-.5-7.22,1.77-10.33,3.72-5.08,9.13-7.38,15-8.83.79-.19,1.58-.39,2.36-.64a3.15,3.15,0,0,0,2.16-2.37,40.35,40.35,0,0,1,6.84-13.64,4.11,4.11,0,0,1,.57-.72c.81-.71,1.5-2.14,2.72-1.44.62.36.79,1.73.92,2.67a33.23,33.23,0,0,1,0,4c2.52-1.39,4.84-1.79,6.27-3.88a5.62,5.62,0,0,1,5-2.45c1.43,0,2.87.05,4.31,0a10.73,10.73,0,0,1,7.65,2.66c.77.65,1.58,1.25,2.48,1.95A8.18,8.18,0,0,0,420,20.1c7.09-10.4,20.78-12.39,31.34-7.41,2,1,4,2.06,6,3,5.95,2.84,8.1,8.05,8.81,14.14.16,1.3.13,2.62.2,4.15A24.16,24.16,0,0,0,469,33.8c2.42-.48,4.81-.89,7.28-.07a8.07,8.07,0,0,0,2.8-.15c-.18-6-2.69-10.83-5.58-15.68,3.23-2,6.23-1.21,9.17.11,4.35,1.95,7,5.62,9.24,9.59a38.08,38.08,0,0,1,5.34,16.83c.13,2.36.86,4.7,3.9,5.12a2.91,2.91,0,0,1,1.59.88c2.29,2.48,4.63,4.91,6,8.12s.16,6.44-.37,9.62c-.2,1.19-.61,2.33-1,3.83,4.68.92,8.55,2.64,9.53,7.64.85,4.29,1.64,8.59-2.43,12.07.55.61,1,1.14,1.45,1.62,2.88,2.82,2.86,6.11.07,9.12a4.77,4.77,0,0,0-.78,2.12,4,4,0,0,0,.12,1.21c.22,2.11-.09,3.93-2.62,4.39,0,2.14,1.64,3.14,2.6,4.51.23.33,1.33.31,1.91.11,1.16-.41,2.19-1.14,3.34-1.57,2.87-1.08,4.51-.25,5.21,2.75a54.12,54.12,0,0,1,1,6.35c.1.88.09,2.1-1.18,2.07-.58,0-1.39-.81-1.66-1.44a27.53,27.53,0,0,1-1.51-4.63c-.47-2-.9-2.6-2.11-2.38-1.47.28-3.21,2.09-3.1,3.31.06.6.33,1.18.42,1.79.36,2.52.68,5,1,7.58.15,1.11.32,2.22.42,3.34a15.21,15.21,0,0,1,.24,4c-1.4,7.75-2.32,15.6-5.21,23-.85,2.18-1.73,4.34-2.56,6.52a17.93,17.93,0,0,1-6.76,8.11c1.12,1.65,2.5,3.08,3.16,4.78s.53,3.58.79,5.7a4,4,0,0,0,1.48-2.57c1.4-4.41,3-8.66,5.93-12.4,3.47-4.46,7.71-7.71,13.24-8.84a8.38,8.38,0,0,1,7.07,2.22c3.71,3.15,5,7.38,5.3,12A39,39,0,0,1,538.6,193.07Zm-35.13-11.53c-.33-2.67-1.36-4.18-3.4-4.87-1.3-.43-4.49,1-5.24,2.43-.82,1.61-1.8,1.87-3.49,1.38a9.3,9.3,0,0,0-3.9-.09c-4.13.63-8.3,1.16-12.35,2.17-6.12,1.53-12.42,1.67-18.57,1.82-7.73.19-15.47,1.21-23.27.35-6.28-.7-12.66-.55-19-.85-3.57-.17-7.15-.4-10.7-.79a38.77,38.77,0,0,1-7.83-1.36c-6.62-2.15-13.16-4.55-19.7-7-1.45-.54-3.35-1-4,.09-1.34,2.4-4.51,4.1-3.21,7.76.61,1.72-.38,2.48-2.3,2.65a7.59,7.59,0,0,0-3.14.83,167.46,167.46,0,0,0-31.13,23.43c-4.57,4.4-8.76,9.22-12.92,14A156.44,156.44,0,0,0,299,254.23,175.16,175.16,0,0,0,281.88,306c-1.46,8.64-1.83,17.49-2.35,26.26-.25,4.16.38,8.37.48,12.56A146.69,146.69,0,0,0,283.1,370a180.42,180.42,0,0,0,13.74,41.61,170.54,170.54,0,0,0,25.44,39,157.42,157.42,0,0,0,25.47,23.53,142.63,142.63,0,0,0,24.67,15,188.79,188.79,0,0,0,20.6,8.08,130.11,130.11,0,0,0,34.91,6.45,137.25,137.25,0,0,0,25.77-1,149.36,149.36,0,0,0,21.92-4.55,143.8,143.8,0,0,0,35.29-15.72,161,161,0,0,0,23.18-17.69,155.39,155.39,0,0,0,18.18-20,164.5,164.5,0,0,0,19.88-33.51,168.46,168.46,0,0,0,11.29-34.73c2.42-11.74,4.11-23.58,3.91-35.6-.09-5.43-.26-10.85-.59-16.27a112.4,112.4,0,0,0-1.35-13.72,219.41,219.41,0,0,0-5-22.14A200.55,200.55,0,0,0,572,265.35a162.86,162.86,0,0,0-16.72-29.67A179.73,179.73,0,0,0,537.22,214a171.25,171.25,0,0,0-18.59-16.07c-3.7-2.81-7.53-5.31-12.28-6a5.5,5.5,0,0,1-2.31-.77c-.69-.47-1.66-1.3-1.62-1.92.08-1.45-.79-1.74-1.74-2.13s-1.74-.63-2.56-1.05c-1.58-.8-1.75-1.93-.41-3.11A5.65,5.65,0,0,1,503.47,181.54ZM255.37,441.45c3.06,4.8,5.89,9.3,8.81,13.75a6.76,6.76,0,0,0,1.9,1.49c3.18,2.24,6.59,4.22,9.52,6.75,9.34,8.07,16.32,18.07,22.6,28.59a10.38,10.38,0,0,0,2.06,2.62c2.11,1.78,4.33,3.45,6.54,5.11a204.8,204.8,0,0,0,83.69,36.92c6,1.17,12.12,1.93,18.2,2.69a76.44,76.44,0,0,0,11,.79c9.31-.19,18.64.74,27.95-.62,2.35-.34,4.55-.53,6.72-1.71a17.74,17.74,0,0,1,8-1.94c3.55-.11,7.08-.65,10.62-1a4.49,4.49,0,0,0,.59-.19c7.42-1.89,14.83-3.81,22.27-5.64a113.38,113.38,0,0,0,21.23-8,202.2,202.2,0,0,0,24.69-13.81c4.81-3.16,9.68-6.22,12-11.9a3.24,3.24,0,0,1,.36-.49,146.48,146.48,0,0,1,15.74-20,56.79,56.79,0,0,1,5.9-5.37c1.71-1.43,3.62-2.63,5.32-4.08,2.8-2.39,5.51-4.89,8.23-7.38a5.34,5.34,0,0,0,1.34-1.59c1-2.23,1.89-4.5,2.79-6.76.38-1,.69-2,1-3l-.58-.39c-1,.59-2,1.24-3.1,1.76a3.91,3.91,0,0,1-4.09-.05,3.06,3.06,0,0,1-1.16-3.79,10.88,10.88,0,0,0,.43-2.1,16.92,16.92,0,0,0-.13-2.18c-1.52.76-2.66,1.44-3.87,1.92-2,.82-4.11.81-5.74-.82-1.35-1.34-.84-3-.27-4.59a24.41,24.41,0,0,0,.89-3.25,9,9,0,0,0-.14-2,38.19,38.19,0,0,1-3.85,2.54,8.35,8.35,0,0,1-3.67,1.19c-1,0-2-1-3.09-1.6-.48.69-1,1.42-1.52,2.2a161.71,161.71,0,0,1-20.31,25.79c-4,4.21-8.55,8-12.92,11.83a130.13,130.13,0,0,1-18.16,13.12,149,149,0,0,1-34.39,15.55A136.4,136.4,0,0,1,444.71,508a149.1,149.1,0,0,1-28.24-1,150.94,150.94,0,0,1-57.78-19.75A168.09,168.09,0,0,1,328,464.36a142.48,142.48,0,0,1-19.19-22c-3.75-5.26-7.08-10.8-10.67-16.17a5.55,5.55,0,0,0-2.29-2.2,56.57,56.57,0,0,0-6.49-1.65c-1.62-.38-3.26-.7-4.89-1l-.47.61a52.77,52.77,0,0,0,2.82,5,4.48,4.48,0,0,1,.4,4.69,21.24,21.24,0,0,1-3.43-.86c-2.26-1-4.42-2.16-6.67-3.13s-3.19-.48-3.88,1.86a23.52,23.52,0,0,0-.69,4.51c-.22,2.25-1.31,3.07-3.5,2.43a14.2,14.2,0,0,1-1.95-.88l-6.58-3.09c-1.26,1.52-1.32,1.52-1.37,3.35C259,438.2,258.34,440.21,255.37,441.45ZM495.47,95.59c-.6,2.19-1.17,4-1.62,5.9a6.85,6.85,0,0,0,3,7.71,2.14,2.14,0,0,0,3.37-.8c.43-.69.65-1.52,1.09-2.2.56-.87,1.26-1.65,1.85-2.41.57.32.83.38.9.53a6.52,6.52,0,0,1,.48,1.41,20.81,20.81,0,0,0,.33,2.12,3.32,3.32,0,0,0,4.27,2c1.51-.48,2.11-1.54,1.66-3.44a8.73,8.73,0,0,0-1.3-2.74c-.7-1.07-.6-1.87.22-2.51a26,26,0,0,0,3,0,3.38,3.38,0,0,0,3-4.2,5.74,5.74,0,0,0-4.91-4c-.71,0-1.44.13-2.15,0-1.76-.21-2.19-1.34-1.14-2.77,1.93-2.63,3.86-5.26,5.73-7.93a3.52,3.52,0,0,0,.77-1.91c-.14-4-5.62-7.47-9.23-5.87a3.55,3.55,0,0,1-3.55.07,22.76,22.76,0,0,0,1.3-3.93c.38-2.72.53-5.47.77-8.21A7.67,7.67,0,0,0,502.13,58a12,12,0,0,1-1.37-4.26c-.17-1.58-.87-2.1-2.56-2.25a32.84,32.84,0,0,0-1,3.88c-.34,2.42-.36,4.9-.8,7.29a32.91,32.91,0,0,1-6,13.69,15.34,15.34,0,0,1-2.6,2.62,2.92,2.92,0,0,1-3.85-.61c-.91-1.1-.08-1.85.58-2.66.43-.53.75-1.14,1.16-1.76a14.69,14.69,0,0,0-1.28-1.53L472,61.44a2,2,0,0,0-2.77-.07,17.68,17.68,0,0,1-2.34,1.47,1.9,1.9,0,0,1-2.73-.33,18.53,18.53,0,0,1,1.62-1.58c1.21-.93,2.55-1.71,3.7-2.72,5.91-5.2,8.67-12,9.9-19.6.25-1.57-.31-2.43-1.89-3-3.07-1-8.55-.09-11.22,2.3a2.56,2.56,0,0,1-2.77.65A2,2,0,0,1,462,36.19c.38-3.54-1.06-6.67-2.3-9.77-1.16-2.92-2.5-5.82-5.62-7.43a12.08,12.08,0,0,1-4-3.28,7.33,7.33,0,0,0-4.87-2.82,47.43,47.43,0,0,0-6.07-.59c-8-.36-13.59,3.72-18.2,9.68a4.2,4.2,0,0,0-.94,3.69,17.73,17.73,0,0,1-.12,3.84,10.67,10.67,0,0,1-2.33-1,16.32,16.32,0,0,1-2-2.29c-4.09-5.26-15.39-6.35-20.38-2a3.49,3.49,0,0,0-1.08,4.09A62.6,62.6,0,0,0,412.7,57.12a39.22,39.22,0,0,1,3.81,3.58,2.74,2.74,0,0,1,.5,2.44c-.28.54-1.54.85-2.32.78a6.08,6.08,0,0,1-2.48-1.12,2.38,2.38,0,0,0-3.06.14c-4.1,3.06-8.3,6-12.44,9-1.31.95-1.31,1.5-.27,2.75.58.71,1.88.95,1.62,2.59-2.82-.22-4.87-1.93-6.56-3.62a37,37,0,0,1-9.18-14.37,41.11,41.11,0,0,1-2.22-16.86c.18-2.08.56-4.22-.37-6.52-5.46,1.63-10.42,3.65-14.38,7.88-2.24,2.39-3.37,4.9-2.84,8A11.16,11.16,0,0,0,364.17,56c.45.68,1.73.79,2.6,1.23a24.42,24.42,0,0,1,8.49,7.38,1.81,1.81,0,0,1,.24.57c.38,1.26-.24,2.06-1.53,1.85-5.92-.92-10.2,1.69-13.64,6.21a1.77,1.77,0,0,0,.1,2.69c2.16,2.14,1.7,5,2.49,7.46-.53.35-.7.55-.87.55-.91,0-1.82-.06-2.73-.07-2.95,0-5.61,2.53-4.68,4.72a6.17,6.17,0,0,0,4.69,4,6.41,6.41,0,0,0,4.91-1c3.72-2.61,8.27-2.66,12.63-3.11a5.7,5.7,0,0,1,1.86.45c.11,1.94-1.15,2.76-2.15,3.78-1.34,1.37-1.15,2.74.43,3.82,2.8,1.9,5.95.38,6.31-3.11.15-1.47.44-2.62,2.71-2.42a22.28,22.28,0,0,1,0,3.57c-.42,2.49-.52,2.52,1.61,3.86a17,17,0,0,0,3.28,1.63,2.47,2.47,0,0,0,2-.06c2.12-1.88,5.25-2.46,6.62-5.32.53-1.11,1.56-1.24,2.63-.21-.09.53-.22,1.12-.31,1.71-.37,2.46.22,3.22,2.66,3.36,1.22.08,2.48-.1,3.69.08,2.74.41,4.53-.82,5.78-3.09a30.12,30.12,0,0,1,1.29-2.75A7.21,7.21,0,0,1,417,92.39c.38.63,1,1.24,1.09,1.91.52,4.68,2,5.47,6.15,3.12a1.17,1.17,0,0,0,.27-.15c2.84-3.07,5.93-6,7-10.25a45.22,45.22,0,0,1,1.39-5.62c.41-1.05.31-3.1,2.26-2.7,1.79.36,1.4,2.14,1.27,3.36-.48,4.35,2.19,6.57,5.45,8.4,2.71,1.53,5.54.74,8.36.23.61-.11,1.55-.17,1.86.18s.17,1.26.05,1.89-.75,1.55-.66,2.26c.31,2.47,1.93,4.2,3.64,5.88,1.32,1.28,2.68.48,4.06.36.71-.07,1.43-.05,2.15-.05h5.21c2.64-2.36,1.09-6.44,4.91-7.84a21.18,21.18,0,0,1,.75,3.83c0,3.66,2.11,4.82,5.37,5.13,5.89.56,11.37.33,14.6-5.74C492.9,95.25,493.89,95,495.47,95.59ZM270.35,252.16a10.77,10.77,0,0,0-5.42,4.5c-4.09,6.75-8.38,13.39-12.15,20.31a160,160,0,0,0-15,39.86c-1.22,5.16-1.86,10.46-2.91,15.67A99.73,99.73,0,0,0,233.13,352c0,5.73.18,11.47.53,17.19a117.48,117.48,0,0,0,1.44,13.37,192.84,192.84,0,0,0,6,25.36,218.67,218.67,0,0,0,10.84,26.76,18.53,18.53,0,0,0,1.46,2.19l.64-.07c.27-1.36.49-2.73.83-4.07a5.54,5.54,0,0,1,7.55-4.07c1.8.62,3.57,1.34,5.46,2.05,1-2.84,2.15-5.2,4.65-6.87,2.9-1.92,5.25.24,8.08.63-.05-.86-.14-1.55-.13-2.23,0-2.31,1.06-3.41,3.38-3.39a13.72,13.72,0,0,1,3.57.62c1.87.51,3.69,1.2,5.57,1.72a9.83,9.83,0,0,0,2.21,0c-.49-1.06-.83-1.79-1.16-2.52-2.7-6.08-5.66-12.06-8-18.27a173.09,173.09,0,0,1-7.53-25.62,165.7,165.7,0,0,1-3.89-33.12c-.05-5-.09-10.06,0-15.08a87.24,87.24,0,0,1,.66-10.1c.88-6.36,1.8-12.74,3.13-19,1.22-5.8,2.84-11.53,4.61-17.19,1.55-5,3.55-9.82,5.36-14.72a6.89,6.89,0,0,0-.39-6.62,49.32,49.32,0,0,0-2.93,4.14c-.73,1.29-1.57,2.1-3.14,1.94a3.12,3.12,0,0,1-2.81-2.46c-.47-1.52-.77-3.09-1.2-4.88a10.35,10.35,0,0,0-1.29.82c-1.09,1-2.14,2.09-3.77,1.22a3.76,3.76,0,0,1-2.29-4A26.75,26.75,0,0,0,270.35,252.16Zm91.08-136.42a21.48,21.48,0,0,0-1,2.1c-.89,2.72-1.87,5.43-2.56,8.2-1.92,7.65-3.83,15.31-2,23.29a28.91,28.91,0,0,0,8.92,15.42,47.48,47.48,0,0,0,14.35,9.34A113.26,113.26,0,0,0,393,178.72a84.34,84.34,0,0,0,13.6,2.1c3,.25,6.12.93,8.95-1a4,4,0,0,1,2.41-.23c2.54.22,5.09.4,7.6.83a76.36,76.36,0,0,0,16.16,1.4c4.38-.2,8.8.5,13.16-.72a22.5,22.5,0,0,1,6.06-.78c4.46,0,8.73-1.07,13-2s8.73-2.17,13-3.51a41.37,41.37,0,0,0,9.37-3.73c6.52-4.05,10.46-10.22,13.05-17.37a71.56,71.56,0,0,0,4.08-27.46c0-.87-.2-1.73-.3-2.59-.54,0-.8,0-.93.1q-5.84,4.5-11.62,9a2.68,2.68,0,0,0-.93,1.19c-1,3.19-1.95,6.39-3,9.75,1.23.29,2.43.5,3.58.86a45.84,45.84,0,0,1,5.76,2.06c1.73.82,1.78,1.39,1.12,3.9a6.73,6.73,0,0,1-2.33,0c-3.42-1.38-6.88-.78-10.33-.34-8.43,1.09-15.72,4-19.61,12.37-.18.39-.7.63-1.2,1.07l-1.66-2.11L470.5,165l-.72-.12a13.58,13.58,0,0,1-.11-2.54c.43-3.35.31-3.58-2.93-4.35a11.5,11.5,0,0,1-1.19-.3c-11.34-3.83-17.62-12.23-20.84-23.27a39.89,39.89,0,0,1-1.52-14c.14-2-.8-3.16-2.52-4.11-2.9-1.61-6-1.28-9-1.08-4.2.27-5.3,1.79-4.82,6a2.65,2.65,0,0,0,.06.3c.77,4,0,7.74-1.2,11.48-.26.8-.45,1.62-.77,2.79,1.48-.46,2.44-.78,3.42-1.07,4.84-1.44,10.77.65,13.16,4.81a15.48,15.48,0,0,1,1.48,4.31c1,4.67-1,8.94-5,11.55-2.2,1.42-4.51,1.17-6.84,1.17a10.89,10.89,0,0,1-10.67-7.27,41.55,41.55,0,0,1-1.28-6c-2.5,2.18-5,4.61-7.76,6.69s-6.47,2.72-10.16,3.32c1,2.27,1.94,4.19,2.66,6.19s1.33,4.09.33,6.18c-2.56,0-2.86-.23-3.7-2.36s-1.67-4.41-2.63-6.55c-.76-1.71-1.8-3.34-3.66-4a9,9,0,0,1-4.43-3.63,14.77,14.77,0,0,0-8.32-5.48,56.24,56.24,0,0,0-6.34-1.2,6.45,6.45,0,0,0-5,.89c-1.57,1.07-3.25.85-5.31,0,3.09-4.72,8.3-3.31,12.07-4.64-1.4-4.65-2.72-9.14-4.12-13.61a4.51,4.51,0,0,0-1.32-2q-3.37-2.91-6.91-5.62A27.37,27.37,0,0,0,361.43,115.74ZM285.88,524.18a16.06,16.06,0,0,0,8.19-1.42c1.29-.64,2.78-1.43,2.64-3.09-.25-3-.27-6.25-1.33-9-2.28-5.92-5.07-11.64-7.82-17.36a87.58,87.58,0,0,0-18-24.35c-4.53-4.47-9.35-8.66-13.65-13.33-3.39-3.67-7.6-5.81-11.92-7.91a50.22,50.22,0,0,0-5.63-2.46c-7.13-2.42-14.16-4.82-22-3.71-8.41,1.17-12.44,8.82-10.69,16.19,2.1,8.79,6.49,16.35,11.88,23.41a125.17,125.17,0,0,0,23.27,23.12c9.89,7.62,20.55,13.91,32.52,17.73C277.34,523.25,281.4,524.36,285.88,524.18Zm285.37-94.82.59.35,3.39-2.54a40.59,40.59,0,0,1,3.69-2.75c2-1.19,3.46-.45,3.56,1.84a19.59,19.59,0,0,1-.31,4c-.36,2.24-.85,4.47-1.39,7.24,2.29-1.19,4-2,5.71-3,2.45-1.35,4.84-.52,4.58,2.81a11,11,0,0,0,.33,5c1.59-1,2.88-2.18,4.38-2.54a4.8,4.8,0,0,0,3.58-3.31c3.83-9.27,7.44-18.62,9.72-28.4q1.9-8.17,3.34-16.44c.65-3.7.7-7.52,1.4-11.21,1-5.44,1.1-10.94,1.42-16.42a106.28,106.28,0,0,0-.52-13.45q-.63-9.13-1.63-18.23a196.76,196.76,0,0,0-3.49-20.43,233.15,233.15,0,0,0-10.34-33.35c-.4-1.06-.67-2.3-1.89-2.92-2.1,4.3-4.35,4.71-7.89,1.58-.43-.38-.94-.68-1.48-1.07-.78.88-1.31,1.93-2.16,2.34-2.3,1.12-1.8,2.68-1.32,4.61,1.9,7.64,3.81,15.29,5.35,23,1,4.79,1,9.77,1.89,14.57,1.09,5.72.51,11.46.75,17.17a124.69,124.69,0,0,1-.89,17.14q-.87,9-2.37,17.9a160.56,160.56,0,0,1-12.9,40.94C574,418.84,573.35,424.29,571.25,429.36ZM549.61,524c0,2.44,1.76,4.7,6.43,5.72a15.77,15.77,0,0,0,4.85.23,39.55,39.55,0,0,0,13.67-4.28c10.88-5.36,20.18-12.87,28.91-21.1a116,116,0,0,0,9.71-11A55,55,0,0,0,621,481.85c1.59-3.42,3.72-6.58,5.49-9.92a78.81,78.81,0,0,0,4.67-9.61,19.63,19.63,0,0,0,1.16-10.73c-1.27-6.42-3.86-8.16-10.2-6.68-7.38,1.72-14,5.09-20.5,8.85a6.66,6.66,0,0,0-1.92,1.93c-1.13,1.57-2.08,3.29-4.37,3.33-.27,0-.54.28-.81.43-6.16,3.5-11.86,7.44-16.53,13-5.49,6.51-11,13-15.62,20.14-3.24,5.09-6.44,10.24-9.25,15.57C551,512.33,549.66,516.9,549.61,524Zm-89.09,22.72c-3-1.07-5.53-2.09-8.13-2.85a12.49,12.49,0,0,0-4.22-.43c-5.41.3-10.81,1-16.22,1.05-4.59.08-9.19-.36-13.79-.65-5.61-.36-11.25-.52-16.82-1.28-6.26-.85-12.48-2.08-18.64-3.53a7.52,7.52,0,0,0-7.3,1.88,19.4,19.4,0,0,0-2.82,2.84c-1.68,2.25-2.51,4.73-1.09,7.46s3.21,4.75,6.65,4.52c1.73-.12,3.48,0,5.23,0,2.13,0,4.05-.4,5.45-2.23a4.19,4.19,0,0,1,1.72-1.24c1.84-.72,3,.12,3,2.1,0,2.32-1.5,3.55-3.25,4.46a3.83,3.83,0,0,0-2.13,3.15,17.53,17.53,0,0,0,1.28,9.33c1.43,3.24,4.31,4.34,7.78,3.86,3.91-.53,5.68-3.45,7.48-6.2a12.27,12.27,0,0,0,2.21-7.79c-.18-2.08.46-3.14,2.37-3.48a2.62,2.62,0,0,1,3.26,2.47c.48,3.11.83,6.25-.47,9.31a4.13,4.13,0,0,0-.45,2.63,50.28,50.28,0,0,0,3.25,7.92,6.66,6.66,0,0,0,7.59,3.44,13.92,13.92,0,0,0,9.52-6.17,21.45,21.45,0,0,1,1.84-2.83,18.2,18.2,0,0,0,4.22-8,6,6,0,0,1,1.51-2.62c1.72-1.74,4.12-1.11,4.66,1.27a40.59,40.59,0,0,1,.48,5.27c.7.21,1.52.74,2.23.63a36.9,36.9,0,0,0,5.26-1.35c1.25-.4.95-1.63,1.16-2.61a4.13,4.13,0,0,1,.8-1.61c1.22-1.52,2.52-3,3.73-4.49a5.72,5.72,0,0,0,1.16-2.08c.45-1.76.52-3.64,1.09-5.35A16.56,16.56,0,0,0,460.52,546.68ZM282.4,149.53q-5.7-11.92-11.41-23.85l.56-.29a14.43,14.43,0,0,1,.93,1.42c2.66,5.43,5.29,10.87,7.95,16.3a25,25,0,0,0,1.88,3.5c2.3,3.26,3.23,3.4,6.6,1.22a18.94,18.94,0,0,0,8-21.17c-2.21-7.86-7.52-12.44-15.43-14.1-.34-.07-.74.19-1.56.43,3,8.24,8,15.45,10.28,23.8a207.19,207.19,0,0,1-11.41-23.73,14.63,14.63,0,0,0-3.54.4,83.09,83.09,0,0,0-9.94,4.48c-1.09.61-1.44,2.51-2.14,3.81-.05.08-.21.09-.26.17a15.35,15.35,0,0,0-1.67,2.83,19.27,19.27,0,0,0,12.41,24.37,14.69,14.69,0,0,0,2.65.24c-3-6-6-11.45-8.1-17.29a39.88,39.88,0,0,1,3.19,5.5c2,3.6,3.87,7.23,6,10.71C278.81,150.46,279.73,150.53,282.4,149.53Zm188.07-43.85a48.48,48.48,0,0,1,6,1,19.76,19.76,0,0,1,14,18.63,19.37,19.37,0,0,1-5.56,14.48,19.89,19.89,0,0,1-14.49,6.36c-6.09.16-11-2.54-15.25-6.82a18.89,18.89,0,0,1-.68-25.43,21.72,21.72,0,0,1,7.13-5.75c.89-.43,2-.78,1.53-1.87-2.89-.79-5.52-1.53-8.16-2.21a2.37,2.37,0,0,0-1.49.08c-3.68,1.74-7.27,3.59-7.3,8.49A25.6,25.6,0,0,1,446,118c-.91,4-.48,7.84,0,11.84a32.74,32.74,0,0,0,3.21,10.81c3.54,7.09,8.74,12.33,16.56,14.58,3.1.89,6.27,1,8.62-1.47,4-4.14,8.44-7.47,14.17-8.76a4.54,4.54,0,0,0,3.19-2.6c3.1-6,5-12.13,4.15-19.11a42.65,42.65,0,0,0-3-11.5c-1.46-3.52-3.95-4.8-7.73-4.44a7.26,7.26,0,0,1-4.75-.74,44.62,44.62,0,0,0-6.06-2.72C472.08,103,472.07,103,470.47,105.68Zm-48.13,14.41c-.1-2-.13-3.9-.31-5.84a14.32,14.32,0,0,0-5.92-10.64,2.82,2.82,0,0,0-2.45-.76,21,21,0,0,1-8.2-.29c-8.93-1.9-17.3.08-25.22,4.21-4.31,2.26-5.75,6.66-5.57,10.91a56.37,56.37,0,0,0,1.27,10.81c.78,3.23,2.52,6.23,3.89,9.31a9.29,9.29,0,0,0,5.09,4.62c3.24,1.48,6.27,3.41,9.43,5.09a7.31,7.31,0,0,0,3.12,1.16,56.25,56.25,0,0,0,7.32-.57,8.17,8.17,0,0,0,3.5-1c4-2.83,7.71-6,10.14-10.48C421.23,131.37,423,126.05,422.34,120.09ZM356,183.19l-2.55-3.72c-2-3-4.35-5.74-5.94-8.91a42.5,42.5,0,0,0-11.31-13.91,16.75,16.75,0,0,0-6-2.87c-2.82-.79-5,.53-6,3.31a14.9,14.9,0,0,0-.87,4.17,27.71,27.71,0,0,0,2.07,11.07c2.53,7,6.88,12.89,11.26,18.93Zm-83.41,63.43c3.16,1.15,1.7,4.19,2.69,6.41a29.14,29.14,0,0,0,2.71-1.75c1.07-.85,2.14-1.76,3.58-1.07s.92,2.33,1,3.58c.08,1.68,0,3.37,0,5.68,1.86-1.77,3.08-3.13,4.5-4.23s2.38-.81,3.25,1a15.83,15.83,0,0,0,1.05,1.59c4.26-7.47,8.36-14.67,12.24-21.46l-11-11.26C285.42,232,278.54,238.68,272.56,246.62Zm24.24-25.27c2.8,4.41,6.62,7.16,10,10.88a166,166,0,0,1,50.58-46.61A193.81,193.81,0,0,0,296.8,221.35ZM444,114.32c-.82-3.73,1.54-5.76,3.91-7.81,1.51-1.31,3-2.66,4.35-3.87-1.11-2.9-2.15-5.6-3.27-8.49-4.31-.28-8.68-1.08-12.07-4.64a6.91,6.91,0,0,0-1,1.25c-1.54,4.37-4.08,7.49-9.15,7.7a15.31,15.31,0,0,0-2.32.76c-2,.43-4,1.9-6.11.3-.18-.13-.91.49-1.9,1,1.54.56,2.41.81,3.22,1.2a4.21,4.21,0,0,1,1.68,1.2c1.07,1.46,2,3.06,3,4.55a8.22,8.22,0,0,1,1.87,4.45,7.17,7.17,0,0,0,.95,2.22c2.84-.45,5.45-1.2,8.05-1.19S440.64,113.77,444,114.32ZM285.29,157.2a10.09,10.09,0,0,0,1.37,0,8.29,8.29,0,0,0,1.48-.4,27.07,27.07,0,0,0,12.15-9.11c5.29-7.33,6.5-15.55,3.86-24.24-2.21-7.25-6.64-12.92-13.5-16-9.33-4.15-18.46-3-26.74,3.11a26.48,26.48,0,0,0-11,19.8,25.44,25.44,0,0,0,6.19,18.8c1.57,1.9,3,4.12,6.19,5-.72-1.24-1.27-2.06-1.68-2.95-.34-.72-.92-1.72-.66-2.24.7-1.42-.15-2.08-.93-2.9a19.85,19.85,0,0,1-2.47-24.41c1.33-2.15,3.4-3.86,4.69-6,1.64-2.78,4.12-4.23,6.92-5.31,4.32-1.66,8.76-2.63,13.39-1.36,3.68,1,7.21,2.24,10.09,5,5.3,5,7.67,11,7.69,18.38,0,9.69-7,18.13-15,20.83C284.82,154,284.82,154,285.29,157.2ZM592.41,274.67l.76-.19c.55-2.44,2.63-4.54,1.1-7.44a218.65,218.65,0,0,0-13.11-22.19c-1.07-1.56-2.36-3-3.85-4.84-2.18,3.26-4.15,6.09-5.95,9a2.8,2.8,0,0,0,.17,2.3A205.89,205.89,0,0,1,582,275c.25.64.61,1.23.9,1.8a1.7,1.7,0,0,0,1.88-1.77c.08-.82.12-1.64.21-2.45a2.58,2.58,0,0,1,2-2.43,2.39,2.39,0,0,1,2.81,1.3A35.61,35.61,0,0,0,592.41,274.67Zm-62.5-84.32a16.53,16.53,0,0,0,.81-2.55,68.36,68.36,0,0,1,2.91-13.7,10.22,10.22,0,0,0,.36-6.61c-1.08-3.4-3.09-4.57-6.47-3.41a10.13,10.13,0,0,0-1.92,1c-6.23,3.78-10.05,9.49-12.68,16.07-2,4.92-1.86,5,3,6.8.29.1.57.22.87.31a1.73,1.73,0,0,0,2.43-1.15c.63-1.61,1.32-3.21,2-4.8,1.37-3.09,2.75-6.17,4.18-9.23.51-1.11,1.11-2.24,2.69-1.85a3.27,3.27,0,0,1,.1,3.53q-2.06,4.62-4,9.28c-.62,1.47-1.16,3-1.84,4.7ZM409.37,60.28c-2.5-2.5-4.71-4.62-6.79-6.84a2.51,2.51,0,0,0-3.5-.58c-4.05,2.19-8.14,4.31-12.23,6.41-1.21.62-1.78,1.46-1,2.69,1.95,3,3.85,6,6,8.85,1.2,1.58,2.42,1.52,4,.34.9-.68,1.72-1.44,2.59-2.14ZM373.69,94.82a15.35,15.35,0,0,0-3,2.25c-3.82,4.86-6.33,10.4-8.58,16.49,4,1.26,6.36,4.89,10.75,6.34,0-1.74.05-3,0-4.15a9.58,9.58,0,0,1,2-6c2.48-3.73,6.22-5.47,10.06-7.17.9-.4,1.81-.77,3-1.25-1.05-.92-1.82-1.55-2.55-2.23a2.69,2.69,0,0,0-2.8-.65C378.94,99.35,375.79,98.79,373.69,94.82Zm112.39,37.71.7.11c3.34-6,1.54-16.08-5.53-21-8-5.59-14.17-6.28-22.12-.18-5.63,4.33-8.86,13-6.14,18.28.22-.61.38-1,.53-1.47a40.22,40.22,0,0,1,2.24-6c3.67-6.6,9.92-8.31,16.89-8.48a5.47,5.47,0,0,1,1.2.2c7.22,1.57,12.67,8.71,12.24,15.29C486,130.35,486.08,131.44,486.08,132.53Zm53.62,74.63-.31.46a2,2,0,0,0,.23.56,13.62,13.62,0,0,0,1,1.15,171.31,171.31,0,0,1,26,33.43,16.86,16.86,0,0,0,1.69,2c1.49-2.16,2.77-4,4-5.86,1.76-2.64,1.67-3-.52-5.22A206.61,206.61,0,0,0,547,212.13C544.62,210.38,542.12,208.81,539.7,207.16Zm-100.94-62c.6-3.72-1.87-6.17-4.74-8.33a5.23,5.23,0,0,0-4.39-.89,9.7,9.7,0,0,0-6.72,13.39c1.55,3.22,5.9,5.88,8.69,5.31C435.57,153.87,438.76,149.81,438.76,145.2Zm32.73-85.75c2.94,2.22,5.62,4.07,8.1,6.16s4.71,4.42,7.34,6.91a20.83,20.83,0,0,0,3.53-9.75c.07-.76-.8-1.8-1.5-2.39a60.26,60.26,0,0,0-5-3.59c-2.1-1.42-4.25-2.77-6.54-4.26ZM382.28,47.84c.52,2.8.93,5.63,1.57,8.4s1.27,2.92,3.79,1.34,5.26-3.18,7.89-4.77A24.64,24.64,0,0,0,398.37,51a2.12,2.12,0,0,0,.73-1.53c-.21-2.34-3.49-5.21-5.89-5.27a42,42,0,0,1-5.84-.18C382.57,43.17,382.59,43.08,382.28,47.84Zm99-5.69c-.79,2.29-1.45,4.44-2.29,6.53-.55,1.35-.11,2.07,1,2.75,3.08,1.85,6.09,3.78,9.17,5.62a8.74,8.74,0,0,0,2.18.57c1.44-5.33.53-10.3-.45-15.47Zm19,85.36c3.8-3.1,7.19-5.79,10.48-8.62a3,3,0,0,0,1.05-2.33c-.46-1.63-1-3.6-2.2-4.55-1.5-1.18-3.7-1.47-5.6-2.12a.72.72,0,0,0-.56.21c-1.92,1.76-4.29,2.14-7.31,2A33,33,0,0,1,500.3,127.51Zm-222.6,32.6c-.86-.3-1.42-.54-2-.7-4.12-1.06-5.45-.36-6.58,3.62-1.4,4.92-2.68,9.88-4.11,14.8a3.9,3.9,0,0,0,1.69,4.79,27.83,27.83,0,0,0,3.95-8.23c.39-1.53.53-2.94,2-3.88a4.09,4.09,0,0,0,1.22-1.75C275.14,166,276.35,163.19,277.7,160.11ZM384.42,31.59a24.87,24.87,0,0,0-1.81,8.18c0,1.57.69,2.23,2.23,2.2,1.84,0,3.69,0,5.53,0,1.16,0,2.32-.2,3.9-.34-1.24-2.89-2.21-5.35-3.38-7.71a3.28,3.28,0,0,0-1.9-1.41A41.76,41.76,0,0,0,384.42,31.59Zm97.46,8c2.87,0,5.45.42,8.15-.44-.4-3.55-1.94-6.54-3.24-9.6a2.1,2.1,0,0,0-1.33-1.07,3.56,3.56,0,0,0-4.07,4.09,33.33,33.33,0,0,1,.29,3.62C481.75,37.28,481.81,38.36,481.88,39.59ZM478,124.84a5.35,5.35,0,0,0-2.56-4.91c-1.84-1.19-3.11-1.13-4.76.2a3.74,3.74,0,0,0-1.22,4.4,5.67,5.67,0,0,0,3.89,3.62C476.12,129.17,478,127.8,478,124.84ZM258.63,207.37c1.25-4.27,2.38-8.16,3.51-12.05a3.18,3.18,0,0,0,.26-1.17,1.34,1.34,0,0,0-.59-1,1.71,1.71,0,0,0-1.38.15,4.05,4.05,0,0,0-.89,1.54c-1.14,2.84-2.29,5.68-3.34,8.55a19.61,19.61,0,0,0-.63,3ZM477,19.64c0,.31-.16.63-.06.83,1,2.1,2,4.19,3.14,6.25.64,1.22,1.51,1.39,2.79.67s1.71-1.72.91-2.73C482,22.43,480.17,20.18,477,19.64Zm-88.13,2.95-.88-.18c-1,2.1-2,4.17-2.85,6.32-.44,1.07.28,1.84,1.33,1.94a19.88,19.88,0,0,0,3.21-.21C389.35,27.55,389.1,25.07,388.84,22.59ZM280.36,154.38c-4-.8-7.4-1-9-.42a11.73,11.73,0,0,0,5.59,3C279.25,157.62,279.71,157.22,280.36,154.38Zm-16.44,36-.86-3C261.36,189.53,261.36,189.53,263.92,190.37ZM492.14,106c-.54-.38-.86-.78-1.14-.76s-.5.48-.75.75c.29.26.55.64.87.72S491.66,106.39,492.14,106Z" transform="translate(-200.32 -10.08)"/><path class="cls-1" d="M478,124.84c0,3-1.87,4.33-4.65,3.31a5.67,5.67,0,0,1-3.89-3.62,3.74,3.74,0,0,1,1.22-4.4c1.65-1.33,2.92-1.39,4.76-.2A5.35,5.35,0,0,1,478,124.84Z" transform="translate(-200.32 -10.08)"/><path d="M492.14,106c-.48.36-.8.76-1,.71s-.58-.46-.87-.72c.25-.27.48-.73.75-.75S491.6,105.65,492.14,106Z" transform="translate(-200.32 -10.08)"/><path d="M378.58,185.77a4.49,4.49,0,0,1,1.42,0c9.13,3.39,18.39,6.36,28.06,7.78,4.93.72,9.88,1.45,14.85,1.8,7.86.56,15.73,1.06,23.6,1.09,6.53,0,13.07-.67,19.61-1,3-.17,6-.31,9.61-.49a18.72,18.72,0,0,1-8.4,2.69c-3.55.36-7.14.39-10.72.57-5,.25-10,.78-15,.69-6.22-.11-12.43-.78-18.65-1.11A112.73,112.73,0,0,1,405,195.43a166,166,0,0,1-24.82-8,9.6,9.6,0,0,1-1.85-1.23Z" transform="translate(-200.32 -10.08)"/><path d="M454.72,471.34a9.55,9.55,0,0,1-2,1.28,108.39,108.39,0,0,1-11,2.87,53.64,53.64,0,0,1-17.7.09c-7.94-1.25-15.89-2.41-23.78-3.93a56.43,56.43,0,0,1-9.28-3.16,13.36,13.36,0,0,1-2.64-1.79l.28-.59a6.27,6.27,0,0,1,1.52.22,80.63,80.63,0,0,0,23.47,5.45c4.36.42,8.71,1,13.07,1.49a57.74,57.74,0,0,0,21.55-2.21c1.08-.3,2.15-.67,3.24-.94S452.67,469.86,454.72,471.34Z" transform="translate(-200.32 -10.08)"/><path d="M427.84,427.23c-.59-4.47-2.07-7.73-4.49-9.86.54-1.37,1.33-1.72,2.44-.57a4.9,4.9,0,0,1,1,1.54c2.35,5.42,4.59,10.89,7,16.28,1.11,2.46.09,4.59-.57,6.79a1.63,1.63,0,0,1-2.48,1,14.57,14.57,0,0,1-6.76-6c-1.59-2.81-.88-5.56,1.68-7.62C426.38,428.21,427.15,427.72,427.84,427.23Z" transform="translate(-200.32 -10.08)"/><path d="M421.38,161.34a15.77,15.77,0,0,1,1.9,1.63,10.06,10.06,0,0,0,6.85,3.68,3.49,3.49,0,0,0,2.27-.3c2-1.44,3.76-3.09,5.65-4.61.35-.27,1.09-.57,1.29-.42a2,2,0,0,1,.78,1.46,6.65,6.65,0,0,1-4.59,5.3c-4,1.53-7.85.72-11.37-1.49A5.52,5.52,0,0,1,421.38,161.34Z" transform="translate(-200.32 -10.08)"/><path d="M265.4,125c.56,1.14,1.12,2.28,1.86,3.76C265.36,127.28,265.36,127.28,265.4,125Z" transform="translate(-200.32 -10.08)"/><path d="M268.05,118.46c.53.8,1.06,1.61,1.58,2.42-1.47-.12-1.69-1.15-2.1-2Z" transform="translate(-200.32 -10.08)"/><path d="M398.12,143.37c-6.25.44-10.5-2.92-14.16-7.36a19.56,19.56,0,0,1-4.25-9.74,16.11,16.11,0,0,1,2.13-10.36c3.34-5.94,8.34-9.37,15.34-10.47,6.09-1,11,1,15.2,4.66a16.84,16.84,0,0,1,5.6,11.34c.95,10.53-5,18.87-15.3,21.42A32.62,32.62,0,0,1,398.12,143.37Zm-15.89-18.46c.47-1.07.76-1.69,1-2.31,3-7.16,9.54-10.75,17.37-9.54,2.32.36,4.86.51,6.88,2.29,3.79,3.35,6.24,7.26,6.09,12.51a20.08,20.08,0,0,0,.33,2.79c3.63-3.86,1.66-13.05-1.76-17.24-5-6.12-13.13-7.93-18.17-5.85C386,110.87,382.15,117.32,382.23,124.91ZM403.05,127c2.73,0,3.75-.94,3.86-3.58.15-4-2.58-6.24-7-5-1.9.55-3.35,3.12-2.84,4.49A7.23,7.23,0,0,0,403.05,127Z" transform="translate(-200.32 -10.08)"/><path d="M335.21,164.24c1.79,2.46,3.49,4.84,5.23,7.18,2.55,3.42,5.14,6.82,7.71,10.23.24.32.64.62.7,1,.08.54.13,1.34-.18,1.62a1.63,1.63,0,0,1-1.59-.11,30.5,30.5,0,0,1-3.93-3.86,42.53,42.53,0,0,1-8-14.29,9.59,9.59,0,0,1-.27-1.18C334.83,164.74,334.93,164.65,335.21,164.24Z" transform="translate(-200.32 -10.08)"/><path class="cls-1" d="M403.05,127a7.23,7.23,0,0,1-6-4c-.51-1.37.94-3.94,2.84-4.49,4.41-1.28,7.14,1,7,5C406.8,126.05,405.78,127,403.05,127Z" transform="translate(-200.32 -10.08)"/><text x="-200.32" y="-10.08"/><text class="cls-2" transform="translate(123.2 266) rotate(-22.09)"> </text><text class="cls-2" transform="matrix(0.94, -0.35, 0.35, 0.94, 129.3, 263.53)"> </text><text class="cls-2" transform="matrix(0.94, -0.33, 0.33, 0.94, 135.48, 261.19)"> </text><text class="cls-2" transform="translate(141.69 259) rotate(-18.07)"> </text><text class="cls-2" transform="matrix(0.96, -0.27, 0.27, 0.96, 147.85, 256.88)">T</text><text class="cls-2" transform="matrix(0.98, -0.22, 0.22, 0.98, 163.77, 252.37)">h</text><text class="cls-2" transform="matrix(0.99, -0.16, 0.16, 0.99, 180.09, 248.77)">e</text><text class="cls-2" transform="translate(196.15 246.31) rotate(-6.7)"> </text><text class="cls-2" transform="translate(202.69 245.54) rotate(-5.32)">I</text><text class="cls-2" transform="translate(209.15 244.82) rotate(-2.87)">n</text><text class="cls-2" transform="translate(225.41 244.08) rotate(-0.15)">t</text><text class="cls-2" transform="translate(234.39 243.96) rotate(2.57)">e</text><text class="cls-2" transform="translate(250.59 244.76) rotate(5.45)">r</text><text class="cls-2" transform="matrix(0.99, 0.15, -0.15, 0.99, 260.52, 245.62)">n</text><text class="cls-2" transform="matrix(0.98, 0.21, -0.21, 0.98, 276.81, 248.02)">e</text><text class="cls-2" transform="matrix(0.97, 0.25, -0.25, 0.97, 292.3, 251.37)">t</text><text class="cls-2" transform="matrix(0.96, 0.28, -0.28, 0.96, 301.29, 253.74)"> </text><text class="cls-2" transform="translate(307.63 255.61) rotate(17.81)">i</text><text class="cls-2" transform="matrix(0.94, 0.34, -0.34, 0.94, 313.85, 257.53)">s</text><text class="cls-2" transform="matrix(0.93, 0.38, -0.38, 0.93, 326.71, 262.27)"> </text><text class="cls-2" transform="translate(135.49 326.48) rotate(-9.74)"> </text><text class="cls-2" transform="translate(142.04 325.36) rotate(-8.87)"> </text><text class="cls-2" transform="matrix(0.99, -0.14, 0.14, 0.99, 148.6, 324.34)"> </text><text class="cls-3" transform="translate(155.14 323.39) rotate(-6.97)">1</text><text class="cls-3" transform="translate(166.64 322) rotate(-5.87)">.</text><text class="cls-3" transform="matrix(1, -0.08, 0.08, 1, 174.45, 321.12)">2</text><text class="cls-3" transform="translate(194.42 319.67) rotate(-2.9)"> </text><text class="cls-3" transform="matrix(1, -0.01, 0.01, 1, 203.03, 319)">m</text><text class="cls-3" transform="translate(236.95 318.72) rotate(1.13)">i</text><text class="cls-3" transform="translate(245.66 318.9) rotate(1.9)">l</text><text class="cls-3" transform="translate(254.23 319.18) rotate(2.66)">l</text><text class="cls-3" transform="translate(262.82 319.58) rotate(3.41)">i</text><text class="cls-3" transform="matrix(1, 0.08, -0.08, 1, 271.49, 320.01)">o</text><text class="cls-3" transform="translate(293.81 321.86) rotate(6.56)">n</text><text class="cls-3" transform="translate(315.55 324.43) rotate(7.78)"> </text><text class="cls-4" transform="translate(132.63 375.84) rotate(11.05)"> </text><text class="cls-4" transform="translate(138.91 377.08) rotate(10.3)">t</text><text class="cls-4" transform="matrix(0.99, 0.16, -0.16, 0.99, 148.55, 378.86)">e</text><text class="cls-4" transform="translate(163.54 381.26) rotate(8.1)">r</text><text class="cls-4" transform="translate(173.14 382.66) rotate(7.01)">a</text><text class="cls-4" transform="translate(187.59 384.45) rotate(5.52)">b</text><text class="cls-4" transform="translate(204.52 386.08) rotate(3.98)">y</text><text class="cls-4" transform="translate(218.74 387.05) rotate(2.7)">t</text><text class="cls-4" transform="translate(228.96 387.56) rotate(1.26)">e</text><text class="cls-4" transform="translate(244.62 387.88) rotate(-0.46)">s</text><text class="cls-4" transform="translate(256.99 387.75) rotate(-1.72)"> </text><text class="cls-4" transform="matrix(1, -0.05, 0.05, 1, 263.69, 387.55)">l</text><text class="cls-4" transform="matrix(1, -0.08, 0.08, 1, 271.25, 387.24)">a</text><text class="cls-4" transform="translate(286.37 386.04) rotate(-6.46)">r</text><text class="cls-4" transform="translate(296.62 384.95) rotate(-8.95)">g</text><text class="cls-4" transform="translate(314.22 382.14) rotate(-12.41)">e</text><path class="cls-5" d="M736.35,324.7" transform="translate(-200.32 -10.08)"/><path class="cls-5" d="M37.74,233.51" transform="translate(-200.32 -10.08)"/></svg>