<svg xmlns="http://www.w3.org/2000/svg" viewBox="0 0 456.2 267.4"><defs><style>.cls-1{fill:#fff;}.cls-2{fill:none;stroke:#231f20;stroke-miterlimit:10;}</style></defs><g id="Layer_1" data-name="Layer 1"><path d="M331,74.5a62.3,62.3,0,0,1-6.2-5.1c-2.4-2.5-2.5-5.8-2.1-9s1.2-6.1,1.8-9.2c.3-1.4.7-2.8,1.1-4.2h-.1l3.7-4.8c-.6,1.9-1.2,3.8-1.9,5.8,1.7.6,2.6,2.5,4.8,2.4.2-1.7-.2-3.6,1.7-4.5-1.2,2.6-.8,5.3-.4,8s1.7,6.8,5.6,8.1a8.4,8.4,0,0,1,2.1,1.1,7.2,7.2,0,0,0,8.5-.4c5.7-4.2,6.2-10.3,4.9-16.1-.4-1.6-1.5-3.3-3.4-3.5-5.1-.6-10.1-.8-15,1.1l2.9-2.6c2.7.7,4.3-1.3,6.2-2.7a20,20,0,0,1,.6,2.3c3.3,1.4,5.2-.4,6.8-3l1.1,2.8,2.8-.4L353.7,42l3.9,6h7l1.9-2.4c-.7,3.8-1.2,7.6-.3,11.5s3.6,8.3,8.3,10a4.4,4.4,0,0,0,5.3-1,12,12,0,0,1,4.5-2.9c2.3-.7,3.3-2.2,4.1-4.2a14.4,14.4,0,0,0-.2-10.6c-1.2-3.2-1.9-3.6-5.8-2.9l1.6,1.8a9.3,9.3,0,0,1-1,13.9c-3.9,3.2-10,2.3-13.3-1.9a7.8,7.8,0,0,1,.1-10.2c-.4,1.7-.7,3.4-1,5l.7.4c1.4-4.5,4.5-6.7,8.9-6.3s5.9,3.7,6.6,7.9c1.1-4.7-.4-7.8-3.9-9.8s-5.4-1.3-8.1-.2l.7-1.7-5.5-.6c1.7-1.9-1-3-.6-4.4l-5.9-2.1c-1.3,1.7-2.1,4.4-5.2,3.4l2.6-4.3c.8-1.3,0-3.4,1.6-4.1,1,1.7,1.6,3.6,2.9,4.5s3.4.8,5.1,1.1c-.4,4.9,2.8,5.2,7.1,4.1l1.8-3.5c.5,1.7.9,2.7,1.3,4.2s3.7.4,5.3-.1,2.9-1.8,4.6-3c-.3,2.6-2,5.3,1.7,6.6l2.4-2.9c.2,1.2.6,2.2.3,2.4a30.3,30.3,0,0,1-3.5,2.3,16.6,16.6,0,0,1,1,2.9c.3.9.5,1.9.8,3.2l2.9-2.2c.7-.7,1.9-1.4,2-2.2s-.7-2.1-1.1-3.3c1.9-1,0-2.5.3-3.8s2.8-.2,2.7-2-2.4-1.9-4.1-2.7c1-1.4,1.9-2.7,2.7-4s.7-2.7-.8-3.5a22.4,22.4,0,0,0-4.2-.8,11.1,11.1,0,0,0-1.7-10.8c-.2,1.8-.4,2.9-.5,4a15.1,15.1,0,0,1-3.5,8.3c-.7.8-1.5,1.5-2.6.3s1.5-2.5-.5-3.3c1.3.8,2.3.6,2.9-.9s1-3.4-1.3-4.8a38.2,38.2,0,0,1-4.2-2.8l-2.4,3.8-3.1,1c3.9-3.8,5.6-6.3,6.2-9.6s-.3-3.6-3.1-2.9a25.8,25.8,0,0,0-4.2,1.4c-.2-1-.4-1.8-.5-2.5-.5-4.3-3.2-7.2-6.6-9S359.9.7,356.9,3a7.2,7.2,0,0,0-3.2,6c-.8-.5-1.2-.7-1.4-1.1-1.8-2.7-4.6-2.7-7.3-2.4s-3.6,1.6-2.6,4.2a19.2,19.2,0,0,0,2.5,5.2c1.8,2.5,4,4.8,6,7.3.7.7,2.1,1.2,1.4,2.9a5.1,5.1,0,0,0-5.1.2h.1l1.4-2.3-3.5-3.4L341.3,21l3-2.5c-1.5-4-4.7-2.3-7.4-2.9a11.7,11.7,0,0,0,1.3,8.3c1.3,2.5,3.3,4.5,5,6.8a6,6,0,0,1-2.6-1.4,16.3,16.3,0,0,1-5-10.5c-.2-2.1,0-4.2,0-6.7l-3,.7c.3-.2.6-.8,1-.8s2.6-1.5,3.1-3,1.1-1.9,1.6-2.9c-.1,1.1-.2,2.2-.4,3.8.8-.5,1.8-.8,1.7-1s.8-2.7-1.4-2.7l2.4-3.7,1.1,3c2-.8,3.8-2.1,5.8-2.3s3.8.8,6.3,1.3A11.4,11.4,0,0,1,366.5.6c5.1,1.5,9.4,3.9,8.9,10.2h6.2l-2.2-7c2.1-.9,3.8-.6,5.8,1.4a16.4,16.4,0,0,1,4.2,8.4c.4,2.3.9,4.1,3.2,5.6a5.7,5.7,0,0,1,2.5,6.8c-.2.8-.2,1.6-.4,2.6,1.9.7,4,1.5,4.2,3.8s-.2,3.7-.3,6.2,1.2,2.6-.2,4.6a9.1,9.1,0,0,0-1.1,3.4,1.6,1.6,0,0,0,1.7,1.9l1.6-.6a1.7,1.7,0,0,1,2.5,1.5c.1,1,.3,2.1.5,3.7-2.1-.9-1.8-2.6-2.6-3.9s-2.1.8-1.8,2.2c1.5,6.1.4,12-1.7,17.7a54.4,54.4,0,0,1-3.6,7.3c.3.7.9,2,1.5,3.5.5-1.1,1-2.1,1.4-3.2a12.5,12.5,0,0,1,5.6-6.2c3.2-1.7,6.3-.6,7.3,2.8a30.4,30.4,0,0,1,.5,7.4,20.7,20.7,0,0,1-.9,4c3.6,2.1,7.2,4,10.5,6.3s6.1,5,9.5,7.8c2.1-2.7,4.2-5.4,6.1-8.3.6-.8.3-2.2.2-3.3s-.4-3.6-.5-5.4.5-2.3,2.4-2.2c.1,2.2.3,4.4.5,7.1,2.9-1.9,4.3-5.5,8.4-5.3-.9,3.1-4.1,4.1-5.1,6.9,1.4,1.1,3.5-.3,4.6,1.2-.7,1.6-2,1.1-3,1.1-3.4,0-5.8,1.1-7.5,4.2a60.5,60.5,0,0,1-4.5,6.2c11.9,14.3,17.3,31,19.2,49.1a88.5,88.5,0,0,1-10,52c3.2-1,5.7-1.9,8.3-2.5,4.9-1.1,7.9,1.5,7.8,6.5a21.3,21.3,0,0,1-2.9,11c-4.2,7.4-9.3,13.8-16.2,18.6-3.9,2.7-8,5.3-12.6,6.6a22,22,0,0,1-6.7,1.2c-4.6-.1-6.7-2.7-6.3-7.3,0-.6.1-1.1.2-2.3a21.4,21.4,0,0,0-2.9,2.2,35.7,35.7,0,0,1-15.8,8.4c-5.3,1.5-10.7,2.8-16,4.2-.6,2.1-.7,4.6-1.9,6.5a21.5,21.5,0,0,1-5.3,5.1c-1.1.7-2.8.6-4.7,1s-1.2,2.2-2,3.4a4.8,4.8,0,0,1-4.5,2.5h-1c-4.3.8-7.5-.3-8.5-5.4-2.6,2.2-5.3,4.2-8.3,2s-3.4-4.7-2.7-8c-3.4-.2-6.7-.6-8.2-4.1s1.1-4.8,3.2-7a101.8,101.8,0,0,1-33-15.9c.1,4,.3,7.6-1.8,10.9-.4,0-.8-.2-1.2,0-7,2.3-13.3-.2-19.2-3.4-9.9-5.3-18.2-12.4-23.5-22.5a22.1,22.1,0,0,1-2.1-6.1c-1-4.6,1.6-8.4,6.3-9.2a17.4,17.4,0,0,1,10.3,1.3c2.4.9,4.8,2.1,7.5,3.3-19.7-39.2-13.2-74,17.2-105.2-1.5-1.9-3-3.9-4.7-5.9-.4-.5-1.3-.5-1.9-.7l-1.8-.8-6.1-3.1c2.8-1.1,5.1,1.2,7.9,1.8-1.1-2-2.1-3.7-3.2-5.4s-2.3-3.2-3.5-4.8l.5-.5,5.5,6.2c.9-2.7-1.3-5.1,0-7.9a3.2,3.2,0,0,1,1.5,3c-.3,5.7,2.1,10.3,5.8,14.4.7.7,1.3,1.5,1.9,2.2l17.8-11.8a21.6,21.6,0,0,1-2.7-4c-1.3-2.9-2.8-5.8-3.3-8.9-1-5.2,2.9-8.4,7.9-6.5s8.3,6.2,10.1,11.3c.4,1.1.6,2.1,1.1,3.8l4.5-5.9,3.7,1.5A29.7,29.7,0,0,0,350,79.1a60,60,0,0,1,9.5.3c1.2,0,2.4.3,3.7.3a74.2,74.2,0,0,0,22.4-3.4,14,14,0,0,0,9.5-9,28.5,28.5,0,0,0,2.2-12.6,6.1,6.1,0,0,0-.5-1.8c-6.3,4.4-6,4-6.8,9,1.5.9,3.8.5,4.8,3.1h-2.5c-4.8-.1-9.4.3-12.3,4.9a2,2,0,0,1-2.9.9c.6-1.9-1-1.9-2.2-2.3a14.1,14.1,0,0,1-8.3-7.6,20.8,20.8,0,0,1-1.8-8.2c-.1-3-.9-3.8-3.9-3.8-1.1,0-2.2.3-3.4.4-.3,3-.5,5.8-.7,8.6l1,.6c-3.3,2.9-3.8,4.7-1.9,7s3.5,2,5.3.6,2-4.1-1-7.9c2-.3,3.1.8,3.9,2.2a5.1,5.1,0,0,1-1.9,7.1,5.7,5.7,0,0,1-7.5-1.9,18.5,18.5,0,0,1-1.3-2.9l-7.8,4.5c.2,1.5,2,3.1.6,5.5-4.1-6.7-8.1-13.1-17.6-10.4,1.3-2.6,3.7-1.8,5.2-2.6-.9-4.4-2-8.5-7.2-10.4A36.9,36.9,0,0,0,323.9,61,13.4,13.4,0,0,0,329,72.4C329.7,73,330.3,73.8,331,74.5ZM321.7,81l2.4-.6c-1.9-3.1-3.5-5.9-5.3-8.4a23.4,23.4,0,0,0-3.7-4c-1.2-1-2.8-1.9-4.4-1s-1.7,2.5-1.6,4.2a3.8,3.8,0,0,0,.1,1,25.7,25.7,0,0,0,6.4,11.9l6.1-3.1Zm8.3-.3c-1.3.7-2.5,1.1-3.5,1.7a74.7,74.7,0,0,0-19,16.4c-16.8,20.9-22.3,44.5-16.5,70.6,4.1,18.3,13.4,33.4,28.2,44.9s29.6,16,47.1,14.6c23.1-2,40.6-13.5,52.9-32.9s15.4-40.5,10.2-62.8a78,78,0,0,0-29.6-46c-1.1-.8-2.2-1.9-3.4-2.1-2.9-.4-4.6-2.6-7-4.2l3.1-2.1c-1.7-1.7-2-1.9-2.8-1.1s-3.3,1.1-5,1.4a105.7,105.7,0,0,1-19.5,2c-10.6-.1-21.1,0-31.1-4.4-1.9-.8-2.6-.5-3.5,1.4A19.8,19.8,0,0,0,330,80.7ZM278.3,200.3l-.6.5c1.8,2.2,3.1,5,5.3,6.5,5.8,4,10,9.2,13.7,15a17.2,17.2,0,0,0,3.6,4,92.7,92.7,0,0,0,38.9,17.8,86.7,86.7,0,0,0,27.8,1.5c1.9-.3,3.6-1.3,5.5-1.5,4.7-.3,9.1-1.6,13.7-2.6,9.8-2.2,18.4-6.8,26.6-12.5a8.4,8.4,0,0,0,2.1-2.1A62.2,62.2,0,0,1,431,209.1c2.1-1.6,2.8-3.8,3.6-6.1-1.3,0-2.7.4-3.3-.1s-.5-2-.7-3c-4.3,1.1-4.5.9-4.3-3.7l-5.1,1.1a76.2,76.2,0,0,1-14,16.3c-19.1,16.1-40.7,21.4-64.9,14.8-19-5.1-33.5-16.8-43.7-33.6-1.8-3-4.3-3.5-7.4-3.7.6,1.6,1,2.8,1.6,4.7l-6.4-2.4c-.5,1.7-1,3.1-1.4,4.6l-5.1-1.9Zm17.3-9.6c0-.5,0-.8-.1-.9l-.9-2.2a83.6,83.6,0,0,1-7.9-43.7,79.1,79.1,0,0,1,5.8-24.4c.4-1.1,1.2-2.2.2-3.5-3.4,3.3-3.2,2.6-4.9-.5-2.7.5-2.7.5-3.6-2.7-4.8,3-12.6,19.1-15.2,31.3-3.9,18.7-1.2,36.5,7.3,53.5,1.1-1.3,1.8-2.9,2.9-3.3s2.8.3,4.2.4c1.1-2.4,2.7-3.9,5.4-2.7C290,189.5,290,189.5,295.6,190.7Zm-5.5,47.8c6.3.1,7.5-1.5,6.2-6l-.6-1.6c-1.1-2.2-1.9-4.6-3.2-6.7a100.3,100.3,0,0,0-6.4-9.2c-2.1-2.5-4.7-4.6-7-7-4.6-5.1-10.6-7.4-17.2-8s-8.6,3.2-7.1,8.2a28.7,28.7,0,0,0,3.9,8.3,55.1,55.1,0,0,0,23.8,19.7A49.5,49.5,0,0,0,290.1,238.5ZM432,123.7c-2.1,1-1.8,2.5-1.3,4.3,5.5,20.5,4.3,40.6-4.5,60.1-.8,1.8-1.2,3.8-2,6.3l5.2-2.8c-.2,2.5-.3,4.2-.4,6.1l4-1.1a17.8,17.8,0,0,0,.3,2l.3,1.6c3.1-1.4,3.1-1.4,4.2-3.9l1.5-3.8a90.1,90.1,0,0,0,5-35.3,104.8,104.8,0,0,0-3.7-22.4c-1.1-3.8-2.5-7.5-3.8-11.3C434.4,124.9,434.4,124.9,432,123.7ZM414.2,235.2c-.3,4.6,1.5,6.4,4.7,6a19.2,19.2,0,0,0,5.8-1.6,55.6,55.6,0,0,0,17.4-13.4c3.7-4.1,5.9-9.1,8.7-13.7a14.7,14.7,0,0,0,1.7-5.5c.6-4.4-1.5-6.1-5.7-5l-1.3.4c-6.6,2.2-11.6,6.8-17,10.8l-.5.4c-3.6,4.9-7.3,9.6-10.6,14.5C415.7,230.6,414.9,233.6,414.2,235.2Zm-72.1,16.4c-.7,1.2-.9,2.2-1.5,2.6s-1.6,3.3-1.1,5.2,3.9,3.8,6.2,1.4a8,8,0,0,0,2.3-5.2c0-.5.7-1.3,1.1-1.3s1.3.7,1.3,1.1a13.4,13.4,0,0,1-.1,4c-.3,2.1,1,5.4,2.6,6.2s4.4.1,6.1-1.8l.4-.5c1-1.6,2-3.3,2.9-5s.7-1.9,2.4-1.7.8,2.3,1.1,3.4a2.7,2.7,0,0,0,3.4-1,24.6,24.6,0,0,0,2.2-3.4,9.3,9.3,0,0,0,1.2-6.7,27.8,27.8,0,0,0-4.4-1.4,18.6,18.6,0,0,0-4.7.1c-6.8,1-13.5-.2-20.3-.9-2.3-.2-4.6-1-7-1.3s-4.8,2-5,4.1,1.5,3.7,4.3,3.5S339.3,252.2,342.1,251.6ZM289.8,111.3c.2,1.3.4,2.5.7,4.1,1.4-1.8,2.7-2.2,4.1-1,1.9-3.3,3.6-6.5,4.9-8.7l-4.8-6-8.8,9.4,1,3.2Zm32.4-28.5a83.3,83.3,0,0,0-25.7,15.5l5.2,4.4A84.3,84.3,0,0,1,322.2,82.8ZM427,106.7l-1.3,1.9c-1.6,1.7-1.6,3.4-.4,5.5s2.2,4.9,3.3,7.4c.3.7.7,1.3,1.1,2.1.7-1.2,1.1-2.1,1.7-3.2l3.1,2.4c.2-1.4.7-2.6.3-3.3A61.9,61.9,0,0,0,427,106.7ZM404.9,83.5a83.7,83.7,0,0,0,2-8.4,4.7,4.7,0,0,0-1-3.3c-.9-1-2.4-.3-3.4.4a15.8,15.8,0,0,0-6.1,9.4l3.1,1.1c1.8-2.7,2-5.8,4.2-7.8l.8.4c-.9,2.4-1.9,4.8-2.9,7.6Zm6.2,9.6,11.8,15.5,2.5-3.8A63.8,63.8,0,0,0,411.1,93.1Zm-24-78h-4.8l-1.1,3.7,6.2,3.6C387.3,19.5,387.2,17.4,387.1,15.1Zm-49.9-4.8c-.2,1.4-.3,2.8-.6,4.3H342C340.9,12.4,341,9.9,337.2,10.3Zm49.4,3.3-1.9-5.1c-2.4,1-2.4,1-1.8,5.1Zm-8.4,37a8.4,8.4,0,0,0-1.3,1.7c-.3,1,.9,2.3,2.2,2.5s1.6-.4,1.7-1.5S379.9,50.8,378.2,50.6Zm4.1-42.2c1.7-1.7,1.5-2.1-1.7-3.5C381.2,6.2,381.7,7.3,382.3,8.4Z"/><path d="M108.7,31.2c5.1-2.1,9.9-4,14.4-6.3,2.4-1.2,4.2-3.3,6.5-4.9s2.1-1.2,2.9-.9,1.6,1.6,1.7,2.6a13.1,13.1,0,0,1-2.2,9,20.1,20.1,0,0,1-7.7,7.6,37.5,37.5,0,0,0-3.6,2.4c3.9,3.8,3.9,4.7.1,8.3l-1.2,1.2c-.2.2-.2.4-.4.9h1.2c8.3-3.6,17-5.8,25.8-7.7a105.4,105.4,0,0,1,13.7-2.1,38.2,38.2,0,0,1,9.5.8c9.6,1.9,19,4.7,27,10.6a50.9,50.9,0,0,1,7.8,7.6c4.3,5,8.7,10.1,11.4,16.4a60.1,60.1,0,0,1,3.7,13c.8,3.8,1.1,7.7,1.8,11.5.9,5.4.6,10.8.2,16.2-.2,2.7-.3,5.5-.4,8.2-.5,11.9-2.9,23.6-5.5,35.2-2.2,9.9-5.6,19.4-8.9,28.9s-5.3,16.7-8.3,24.9S191,231,184.8,237.7c-4.5,4.7-8.8,9.8-14.3,13.5-2.4,1.6-4.6,3.6-7,5.4a7.4,7.4,0,0,1-5.6,1.9,22.6,22.6,0,0,0-5,.8c-6.3.9-12.7,1.4-19,.4a109.6,109.6,0,0,1-22.3-5.9c-10.4-3.9-20.9-7.6-31.3-11.6a58.3,58.3,0,0,1-10.4-5.7c-9.2-6.1-18.5-12-27.1-18.9-12.1-9.8-22.4-21.2-28.9-35.7-1.9-4.2-4.3-8.3-6.5-12.4A59.6,59.6,0,0,1,.2,146.6a60.1,60.1,0,0,1,1.9-20.2c2.5-9.3,6.8-17.8,10.5-26.6,1.9-4.7,5.4-8,9.3-11a60,60,0,0,0,4.6-4,38.9,38.9,0,0,1,16.2-9.1,43.5,43.5,0,0,0,5.2-2.1l-5.6-4.8c-3.9-2.9-4.9-7.2-5.9-11.5-.6-2.4.1-2.9,3.6-4.5l-6.7-3.5C27.2,46.1,23,37.9,24,31c0-.2.2-.3.5-.6,1.3,1.2,2.7,2.2,3.9,3.5,4,4.4,9.3,6.8,14.6,9.2a15.4,15.4,0,0,0,5.6,1,22.4,22.4,0,0,1,10.6,2.2,3.6,3.6,0,0,0,2.6.3c-1.2-1.5-2.5-3-3.6-4.5s-2.8-2.2-4.8-2.8A26.4,26.4,0,0,1,39,29.6a8.3,8.3,0,0,1-1-8c3.8,1.2,7.8,1.9,11.1,4.5A33.9,33.9,0,0,0,53,28.8a10.8,10.8,0,0,1,4.8,5.1,7.6,7.6,0,0,0,5,4.4c3,1,6,2.1,9.1,2.9S78,44,77.8,48.1c0,.8.4,1.6.4,2.3s1.3,2.3,2.9,2.2l3-.2c3.7-.3,4.7-1.2,4.8-4.7s-.3-6.6-.6-9.9a16.9,16.9,0,0,1,1-8L94.2,19a17.7,17.7,0,0,1,1.2-1.7C102.8,18.8,106.2,24.2,108.7,31.2ZM66.9,66.3c-1.7,1.9-3.5,3.7-5.1,5.6A8.6,8.6,0,0,1,52.4,75a6.5,6.5,0,0,0-3.9.5,60.6,60.6,0,0,0-14.6,7.9c-8,5.7-15.4,12.1-19.8,21.1A125,125,0,0,0,6.3,123c-1.4,4.1-1.6,8.7-2,13.1A83.8,83.8,0,0,0,4,147.3a50.1,50.1,0,0,0,6.1,20c2.6,5.1,5.6,9.9,8.3,14.9a112.2,112.2,0,0,0,21.3,28,209.5,209.5,0,0,0,17,14.2c4.9,3.7,10.1,6.9,15.3,10.2a98.4,98.4,0,0,0,19.7,9.2c13.4,4.9,26.6,10.4,40.8,13a40.6,40.6,0,0,0,22.1-1.6c3.2-1.2,6.4-2.8,9.6-4.3a3,3,0,0,0,1.3-.9c4.7-5.3,9.6-10.4,13.8-16s7.1-12.4,9.6-19.1c3.2-8.4,5.7-17,8.4-25.5,3.5-11.1,7.3-22.2,9.1-33.8,1.3-8.3,2.7-16.5,3.8-24.8a99.7,99.7,0,0,0,.7-10.9,77.7,77.7,0,0,0,.5-11.8c-.6-6.9-1.7-13.8-2.7-20.6a36.9,36.9,0,0,0-1.8-6.5c-2.2-6.7-6.3-12.3-10.9-17.6-1.6-1.8-3.2-3.9-5.2-5.2-12.6-8-26.2-11.8-41.2-8.7l-9,1.6c-6.4,1.2-12.7,2.3-19,3.7s-9.8,2.6-12.6,7.3-4.9,3.7-8.3,3.1l-2.3-.3c-.2,2,.1,4.1-.8,5.4-2.3,3.3-5.1,6-9.6,6.4a19.9,19.9,0,0,1-8-.8c-5-1.6-9.6-3.5-12.1-8.5C67.7,67,67.3,66.8,66.9,66.3ZM90.8,45.2c3.2-3.4,5-7.7,9.4-9.1-3.3,3.5-6.5,7-8.1,12,4.2-1.2,8.4-1.8,10.9-5.6a1,1,0,0,1,.5-.4c4.1-2.3,8.1-5,13.1-5.2a7.4,7.4,0,0,0,3.8-1.2c3.9-2.6,7.5-5.6,9.5-10a13.3,13.3,0,0,0,.8-3.3l-1.4.3c-5.3,4.4-11.5,6.8-18.1,8.4a5.7,5.7,0,0,0-3.9,2.4c-.8,1.2-1.7.8-2.4-.6-1.4-3.2-2.8-6.4-4.4-9.4s-2.2-3.2-4.4-3.2C91.3,28.1,89.3,37.2,90.8,45.2Zm-44,14.9c-.6,3.4,1.6,5.4,2.5,7.8a5.5,5.5,0,0,0,7.9,2.6A20.6,20.6,0,0,0,63,66.3c2.6-3.4,5.3-6.7,6.9-10.9-.5-.3-1-.8-1.3-.7-3.3,1.1-5.5-.9-8-2.5S54,48,50,47.7A30.5,30.5,0,0,1,28.6,37.3,29.6,29.6,0,0,0,26,34.9l-.8.6c1.6,4.5,3.3,9,8,11.5a99.5,99.5,0,0,0,10.5,4.8,23.9,23.9,0,0,1,8.6,5.3,6.6,6.6,0,0,0,5.8,2.1l4.1-.5c.3,0,.8.5.9.8a1.2,1.2,0,0,1-.5,1.1,2.2,2.2,0,0,1-1.6.5l-9.8-.6Zm45.1-8.3c.4,1.3.7,2.7,1.1,3.9s1,1.7,1.4,1.6c2.9-.4,4.5,1.8,6.6,3s2.6,1.2,3.4.7c3.6-2.1,7.3-4.5,7.9-9l-6.5-3c-.3-.2-.7-.5-.9-.4-2.1.5-4,.7-5.5-1.2a1.7,1.7,0,0,0-1,0C96,48.4,93.4,48.9,91.9,51.8ZM67.6,62.5a11,11,0,0,0,.3,3,11,11,0,0,0,13.6,6,3,3,0,0,0,1.8-2.1,4.7,4.7,0,0,0-.2-2.6c-.7-2,.2-3,1.9-3.5,2.2,1.6,4.2,3.2,6.2,4.8a2.7,2.7,0,0,0,3.2.5c1.2-.7,1.2-1.8,1.2-2.9a7,7,0,0,0-3-6.3c-3.4,2.2-7.1,3.6-11.2,3.1a10.2,10.2,0,0,0-3.4.6C74.7,64.1,71.4,64.8,67.6,62.5ZM53.1,36.7c-1.9-7.1-6.8-13-14.1-13.2C38.5,28.6,44.3,34.1,53.1,36.7Zm9.4,5.6a11.5,11.5,0,0,0,4.7,5.2c2.8,1.8,5.4,3.7,5.4,7.7l3.2-.9a24.2,24.2,0,0,1-1-5.1A5.3,5.3,0,0,0,71,44.1,63.4,63.4,0,0,0,62.5,42.3ZM71,60.9c4,1,12.1-1.5,14.7-4.3C80.7,55.2,73.9,57.1,71,60.9ZM115.3,42c-4,.9-7.1,1.8-9.7,4.7,2.9,1.4,5.5.8,8,.6.5,0,1.1-.8,1.3-1.3A31.4,31.4,0,0,0,115.3,42ZM44,56.9l-4.7-1.8c-.7,3.3,1.6,8.9,4.1,10.7C43.2,62.9,41.9,60,44,56.9ZM81.9,74.4c.7.2,1.4.7,1.9.5l6.9-3.4-4.1-1.9ZM50.6,58.6a10,10,0,0,0-5.7-3.7C46,59,46.9,59.6,50.6,58.6Zm67.8-15.8h-1c0,1.2-.1,2.4-.2,3.6C118.5,45.3,119.8,44.2,118.4,42.8ZM68.9,53.1l.6-.7c-.6-.9-1.1-1.8-3.3-1.5Z"/><path d="M333.6,40.3c-1.7-1.5-2.4.2-3.4,1.1l-2.3-1.2a19.4,19.4,0,0,1-3.6-1.5c-2.1-1.6-2-2.5-.4-4.8a6.2,6.2,0,0,0,.8-2.4c.3-2.6,1.4-4.4,4.2-4.9l-3.5,2.2a2.7,2.7,0,0,1,.7.8c.5,1.4.9,2.7,1.5,4.3a5.6,5.6,0,0,0-2.1.4c-.7.4-1.8,1.3-1.7,1.7a3.4,3.4,0,0,0,1.8,2.1,4.1,4.1,0,0,0,2.8-.5,13.2,13.2,0,0,1,6.2-1.1C334.2,37.9,333.9,39.1,333.6,40.3Z"/><path d="M331.9,13a22.2,22.2,0,0,0-3.3,2.8c-2.2,2.3-1.7,4.7,1,6.3a9.7,9.7,0,0,1,3.9,3.9l-4.8.7c.1-.5.4-1.4.2-1.5s-1.6-2.3-2.1-3.7C325.2,17.3,327.2,13.9,331.9,13Z"/><path d="M325.6,47l-2.5-.9c-2.3-1.2-2.8-1.1-4.3,1.1l-1,1.8c.2-4.2,2.8-5.7,5.7-3.7l2,1.7Z"/><path class="cls-1" d="M378.2,50.6c1.7.2,2.7,1.3,2.6,2.7s-.6,1.6-1.7,1.5-2.5-1.5-2.2-2.5A8.4,8.4,0,0,1,378.2,50.6Z"/><path d="M68.9,53.1l-2.7-2.2c2.2-.3,2.7.6,3.3,1.5Z"/><path d="M339.1,41.7l-5.6-1.5c2.8.2,2.8.2,4.2-2.6C338.2,39.1,338.7,40.4,339.1,41.7Z"/><path d="M347.2,25.3l-1.6,1.8-.4-.5,2.1-1.3Z"/><path d="M377.4,86.4c-12.7,1.6-25.4,1.8-37.6-2.9C352.2,86.7,364.8,87,377.4,86.4Z"/><path d="M342.6,212.9c3,.4,5.9,1,9,1.3a55.8,55.8,0,0,0,9.1.7c2.9-.1,5.8-.9,8.7-1-9.1,4.2-18.1,1.5-27-.3Z"/><path d="M357.5,184.4c-.2-1.2-.4-2.1-.6-3.1l.5-.2c1,2.4,2.1,4.7,2.9,7.1s-.1,2.3-.2,3.5C355.1,190.2,354.4,187.9,357.5,184.4Z"/><path d="M362.9,70.5c.1,2.1-1.2,2.9-2.9,3a4.3,4.3,0,0,1-5-2.5C357.8,73.6,360.3,72.5,362.9,70.5Z"/><path d="M372.5,46c-1,1.1-1.9,2.2-2.9,3.2C370.6,48.2,371.5,47.1,372.5,46Z"/><path d="M353.1,52.7a9.1,9.1,0,0,1-9.4,9.1c-4.3,0-8.3-4.1-8.5-8.6s4.3-8.9,9.6-9.1S353,48,353.1,52.7Zm-1.5,2.5c.8-6-2-9.7-6.9-10.2a6.7,6.7,0,0,0-7.4,5.8C343.5,45.4,348.6,46.7,351.6,55.2Zm-3.7-2.8c-.1-1.4-1.1-2.5-2.4-2.2a3.9,3.9,0,0,0-2,1.8c-.4.8,1.3,2.2,2.5,2.2S347.8,53.7,347.9,52.4Z"/><path d="M321.7,81a12.5,12.5,0,0,1-2.8-1.5c-1.7-1.7-3.1-3.6-3.2-6.3l5.9,7.8Z"/><path d="M110.3,132.2c-3.2-1.3-6.1-2.3-8.9-3.7l-18.2-9.2c-4.8-2.4-9-5.3-11.3-10.4a11.4,11.4,0,0,1-1-3.6c-.5-3.5,2.3-5.6,5.6-4.1a6.6,6.6,0,0,1,3.8,4.9,21.2,21.2,0,0,0,1.3,3.8c1,1.7,2.6,1.8,3.5.1a56.6,56.6,0,0,0,2.8-7.2c.9-2.9,1.8-3.8,4.4-3.9s3.7,1.3,3,3.6a22,22,0,0,1-3.2,5.6c-1.7,2.7-1.6,3.1.8,5.5a25.8,25.8,0,0,0,14.2,7.4,9.2,9.2,0,0,1,6,3.6,4.4,4.4,0,0,1,.4,5.1C112.9,130.7,111.6,131.3,110.3,132.2Zm-17-30.9-.8-.5c-2.2.9-3.8,2.2-4.3,4.9a19.4,19.4,0,0,1-2,5.7,3.7,3.7,0,0,1-6.5-.2,16.6,16.6,0,0,1-1.2-3.1,18,18,0,0,0-1.2-3.5c-.7-1.2-1.8-2.3-3.4-1.6s-1.1,2.1-.7,3.3a17.9,17.9,0,0,0,10.1,10.9c7.2,3.4,14.4,6.6,21,11l1.5.4c.6-1,1-1.9,1.5-2.8h.8l.6,3.7c1.4.3,2.7.5,3.4-.9a3.1,3.1,0,0,0-.9-3.7,5.4,5.4,0,0,0-2.1-1.6,22.5,22.5,0,0,0-4.2-1.3c-4.3-.9-8.3-2.4-11.5-5.4s-6.7-4.5-1.7-11.2a8.2,8.2,0,0,0,1.1-1.7A11.1,11.1,0,0,0,93.3,101.3Z"/><path d="M123.4,98c2.1,1.1,2.8,2.7,3.6,4.3s.9,1.8,3.7.8c-.4-.8-.7-1.6-1.1-2.3s-1.9-2.6-2.7-3.9a6.3,6.3,0,0,0-3.8-3.2,4,4,0,0,1-2.7-3.9,7.8,7.8,0,0,1,3.2-7.5l4.9-3.5c3-2.1,9.7-2.8,13.4.6a27.2,27.2,0,0,1,2.4,2.4,15.2,15.2,0,0,0,8.5,5.2c4,.8,5.9,3.1,6.3,7.3a24.4,24.4,0,0,1,.1,2.7c-.1,5.4-4.5,8.2-9.5,6.2l-1.9-.9c-.2.5-.5.8-.4,1,.6,4.1-2,6.7-4.6,9s-4.7,1.3-7.1.6-3.2-1.2-4.8-1.8a6.5,6.5,0,0,1-4.3-4.4,8.4,8.4,0,0,0-1.8-2.8C123.6,102.3,122.4,100.6,123.4,98Zm22.2,3c1.7-1.3,2.7,0,3.9.9s3.7,1.3,5.7.3a4.2,4.2,0,0,0,2.7-4.6,55.9,55.9,0,0,0-1.2-5.6,4.6,4.6,0,0,0-4.7-3.7,11,11,0,0,1-8.3-4.1c-3.8-4.8-8.3-5.5-13.9-3.5a13.8,13.8,0,0,0-5.7,3.4c-2.8,2.8-2.2,6.5,1.1,8.5a7.8,7.8,0,0,1,2.6,2.1,73.9,73.9,0,0,1,4.2,6.6c1.2,2.3.7,3.3-1.7,3.9l-2,.7c.4,1.5,1,2.7,2.4,3.2a44.7,44.7,0,0,0,6,2.5c1.7.5,3.6.9,5.2-.5s4.7-4.9,3.7-8.8A5.7,5.7,0,0,1,145.6,101Z"/><path d="M28.9,162l-2-.9a12.5,12.5,0,0,0,5,7.4,27.8,27.8,0,0,1,4.1,3.6c2,2.2,2,4.3.4,6.8s-1.6,5,1.8,6.8a23.9,23.9,0,0,0,4.4,1.8c4.1,1.7,5.2,3.4,4,7.7s.3,6.8,3.2,9.3a3.6,3.6,0,0,0,3.4.9c2.9-1.1,4.8.4,6.4,2.5s1.1,2.1,1.9,2.8,3,2.6,4.7,3.2,4.8-.6,5.2-3.6a8.5,8.5,0,0,1,.4-2.3c1.6-3.7.3-6.6-1.8-9.5-.6-.9-1.1-1.9-1.7-2.9,4.5,3,6.3,7.2,5,12.2l-.3,2a5.9,5.9,0,0,1-8.6,5.1,10.4,10.4,0,0,1-5.3-4.6c-1.4-2.6-3.1-3.9-6.3-3.1s-7.7-3.2-8.3-7.1a18.3,18.3,0,0,1,.2-5.7c.6-3.1.2-4-2.7-5.2a51.9,51.9,0,0,1-5.9-2.4,9,9,0,0,1-2.8-3.3c-.9-1.5-.3-3,.7-4.4,2-3.2,1.8-4.9-.9-7.4a22.7,22.7,0,0,0-2.5-1.8c-3.8-2.5-5.6-6.4-7-10.5-.8-2.4.8-4,3.1-3.1a22.8,22.8,0,0,1,3.9,2.4l-.3.7-3.6-1.1-.4.5C27.2,159.8,28,160.9,28.9,162Z"/><path d="M68.4,195.8c-2.2-1.3-2.5-3.6-2.4-5.6.1-4.4-2.2-7.3-5.2-9.9s-3.7-3-5.4-4.6c-3.3-3.1-7.7-3.8-11.5-5.7s-7-3.2-10.5-5a7.5,7.5,0,0,1-1.9-1.7l20.1,8.4.6.2c5,3.7,10.1,7.4,13.4,12.8,1,1.6,1.2,3.6,1.6,5.5S68,193.9,68.4,195.8Z"/><path d="M162.4,147.8c-2.4-2.5-3.5-8.1-2.1-10.6a3.1,3.1,0,0,1,2-1.5c.3-.1,1.3.6,1.4,1.1C164.7,140.6,164.7,144.3,162.4,147.8Z"/><path d="M160.9,196.1c.4,4.8,1.8,9.6,0,14.7-1.7-.9-1.6-2.2-1.7-3.3C158.6,201.3,159,198.2,160.9,196.1Z"/><path d="M178.5,173.9c1.1,4.2,1.1,7.8-.9,11.6-2-1.6-2-3.5-1.8-5.4S175.4,175.5,178.5,173.9Z"/><path d="M192.5,172.3A26.5,26.5,0,0,1,190,186C187.8,182.1,188.9,175.3,192.5,172.3Z"/><path d="M202.6,152a31.3,31.3,0,0,1-.5-3.6c0-2.2.2-4.5.4-6.7a1.9,1.9,0,0,1,2.4-1.7C205.8,144.4,205.6,148.6,202.6,152Z"/><path d="M53.3,80a7.9,7.9,0,0,1-7.9,6.9A2.8,2.8,0,0,1,46.8,83Z"/><path d="M103.2,70.6c3.4-1.7,6.5-3.2,10.8-3.1a9.5,9.5,0,0,1-6.4,4.4C106.2,72.2,104.8,72.8,103.2,70.6Z"/><path d="M182,109.2a8.1,8.1,0,0,1-2.1-9.7C182.6,101.2,183.5,105.1,182,109.2Z"/><path d="M28.7,114c4.4,1.5,5.5,3.4,4.5,7.6,0,.1-.1.2-.1.3-1,4.1.5,6.3,4.7,6.6,2,.1,3.9-.2,5.9-.1-2.5.1-4.7,1.4-7.4.6s-5.1-3.1-4.2-6.9.9-4.6-2.7-7.4c-.3-.1-.4-.5-.6-.8Z"/><path d="M89.9,149.4c1.2-.7,1.9.2,2.5,1,1.8,2.4,3.4,4.9,3.5,8.2C92.2,156.1,89.9,152.6,89.9,149.4Z"/><path d="M166.2,90.2c-3.8-1.4-5.1-4.5-7.3-7.1C162.5,82,165.6,85,166.2,90.2Z"/><path d="M130.6,249.4c4.4-1.2,8.2-1.1,12.5-.8C139.7,251.3,134.1,251.7,130.6,249.4Z"/><path d="M43.5,96.8A10.8,10.8,0,0,1,50,91.6c2.8-1,4.2.2,4.5,3.2s-2,6.5-4.8,8.8a16.3,16.3,0,0,1,1.1-1.7c.9-1.8,1.9-3.6,2.7-5.4a2.7,2.7,0,0,0-1.1-3.6,3.7,3.7,0,0,0-3.1.1A61.9,61.9,0,0,0,43.5,96.8Z"/><path d="M67.6,228.3c-5.1-1-9-4-9.2-7.8l9.6,7.2Z"/><path d="M169.8,116.3c1.9,3.6,3.9,7.2,3.4,11.7C170.7,126.2,169.1,121.1,169.8,116.3Z"/><path d="M180.3,146.9c.1,3,1.3,5.9,0,9.3-2.3-2-2.6-4.3-2.5-6.6S178.3,147.1,180.3,146.9Z"/><path d="M125.9,151.6c-3.2-2.6-4.6-6.2-3.6-9.5C124.3,143.1,126.1,147.7,125.9,151.6Z"/><path d="M144.3,147.6c-3.6-3.5-4.3-7-2.3-9.9C143.6,139.6,144.6,143.8,144.3,147.6Z"/><path d="M116,228.7a33.8,33.8,0,0,1-10.1-6C109.9,222.4,115.1,225.7,116,228.7Z"/><path d="M177.8,75.4l-7.4-5.3c1.6-1.2,3.2-1.1,5.5.4S178.4,72.8,177.8,75.4Z"/><path d="M137.8,229c2.9,2.4,6.6,4.2,9,8.3C141.7,236,139.7,232.5,137.8,229Z"/><path d="M109.6,155.9c1,2.9,2,5.6,3.1,8.4-3.1-1-4.2-3.3-5-5.8C107.4,157.5,107.5,156.5,109.6,155.9Z"/><path d="M67.5,141.4c-4.5-2.8-6.4-6-5-8.3C65,134.7,66.8,137.5,67.5,141.4Z"/><path d="M95.2,180.3A13.4,13.4,0,0,1,99.5,191C96.4,187.5,96,183.8,95.2,180.3Z"/><path d="M18,168a8.7,8.7,0,0,1,5,7.3C19.4,173.9,17.6,171.3,18,168Z"/><path d="M139.4,198.9c-2.4-2.2-3.6-6.7-2.8-10.2C138.3,190.6,139.8,196.1,139.4,198.9Z"/><path d="M38.6,108.5c1.9,3.5,2.8,6.4,2.1,9.9C38.1,115.9,37.3,112.6,38.6,108.5Z"/><path d="M93.8,133.9a10.1,10.1,0,0,1-4.3-4.4c-.4-.9-.6-1.9.5-2.3a2.5,2.5,0,0,1,1.9.8C93.3,129.6,93.5,131.7,93.8,133.9Z"/><path d="M159.8,178.1c2.1,1.9,3.4,5.7,2.7,7.3s-1.2,1.2-1.4,1.1-1.1-.9-1.6-1.5a3.4,3.4,0,0,1-.1-1C159.5,182.2,159.7,180.4,159.8,178.1Z"/><path d="M11.1,129.3c1.2,4.2,1.2,7.2.2,9.7C8.9,136.2,8.7,133.2,11.1,129.3Z"/><path d="M170,53.6l-9.8,2.1c1-2.9,5.9-4.1,9.8-2.8Z"/><path d="M198.9,76.4a9.4,9.4,0,0,1-5.3-4.8,2,2,0,0,1,.4-1.8c.1-.2,1.1-.1,1.4.1A7.8,7.8,0,0,1,198.9,76.4Z"/><path d="M28.8,113.9c-3-1.7-2.1-4.7-1.7-7,.6-4.3,3.4-7.1,7.6-8.6a5.3,5.3,0,0,1-1.2,1,10.8,10.8,0,0,0-5.6,8.5,12.2,12.2,0,0,0,.2,3.3c.1,1,.4,1.9.6,2.9Z"/><path d="M116.1,196.1a42.3,42.3,0,0,1,7.4,9.7C119.9,204.6,116.9,200.7,116.1,196.1Z"/><path d="M94.9,85.8c-2.9.3-4.4-1.3-5.5-3.1s0-1.5.4-2a2.1,2.1,0,0,1,1.7.2C93,82.2,94.5,83.4,94.9,85.8Z"/><path d="M130.8,165.9l3.1,6.6C129.8,172.3,128.5,169.9,130.8,165.9Z"/><path d="M18.4,110.4a8.7,8.7,0,0,1-.2,8C16.2,116.3,16.2,113.2,18.4,110.4Z"/><path d="M81.8,96.4l3.7,9.8C81.8,105.1,80.7,102.5,81.8,96.4Z"/><path d="M86.4,217.7c-3.3-1.6-6-3-7.5-6C81.9,211.5,84.8,213.7,86.4,217.7Z"/><path d="M46.4,143.7a13.5,13.5,0,0,1,6.1,8.3C50,151.1,47.9,148.4,46.4,143.7Z"/><path d="M73.9,162.7c2.9-.2,4.9,2.5,5.4,7.3C76.6,168,74.6,165.9,73.9,162.7Z"/><path d="M81.8,197c-4.2-1.5-5.8-2.9-7-5.9.5-.1,1-.4,1.3-.2A17.8,17.8,0,0,1,81.8,197Z"/><path d="M174.2,234.5c.2-4.5,2.5-7.8,5-11.3C178.8,226.3,175.9,232.7,174.2,234.5Z"/><path d="M30.5,139q-3.7-3.1-1.5-8.1C30.4,132.6,31.1,136.6,30.5,139Z"/><path d="M207.5,113.3c-1.3-2.7-2-5.2-.9-8.2.5.4,1.2.6,1.3.9C208.4,108.3,209.8,110.7,207.5,113.3Z"/><path d="M83,237.5a10.8,10.8,0,0,1,8.6,2.8C88.3,240.9,85.6,239.3,83,237.5Z"/><path d="M19.4,132c-2.5-3.1-2.6-5.3,0-7.7C19.9,127,20.7,129.4,19.4,132Z"/><path d="M66.4,84.3c0-3.7,1.2-5.1,4.2-5C70.6,82.3,69.9,83.2,66.4,84.3Z"/><path d="M120.8,250.8c-3.2.5-5.6-.7-8.5-2.6A8.9,8.9,0,0,1,120.8,250.8Z"/><path d="M109.8,243.7c-3.4,1-5.5-.2-6.7-3.6C105.9,240.3,107.6,242,109.8,243.7Z"/><path d="M165,227.6c.3,3,.5,5.6.8,8.7C162.9,233.8,162.7,231,165,227.6Z"/><path d="M204.9,127.4c1,3.3.4,6.2-1.6,9.5C202.6,133.1,204.4,130.4,204.9,127.4Z"/><path d="M33.2,195.3c2.9,1.4,4.5,4.1,5.9,6.8C36.6,200.4,34.1,198.5,33.2,195.3Z"/><path d="M96,109.3c1.4,2.2,2.5,3.9,2.2,6.2C95.1,114.2,94.3,112.3,96,109.3Z"/><path d="M148.8,67.7h-9.1A6.9,6.9,0,0,1,148.8,67.7Z"/><path d="M133.4,116.8c1.8,2.1,2.1,2.9,2.1,5.6C132.6,121.5,131.8,119.3,133.4,116.8Z"/><path d="M204.5,84.4a11.4,11.4,0,0,1,1.6,7.6C204.3,90,203.6,87.7,204.5,84.4Z"/><path d="M123.1,59.4c2.2-2.2,5.1-1.9,7.7-2.3A10.7,10.7,0,0,1,123.1,59.4Z"/><path d="M195.4,86.8c2.2,2.4,2.6,4.6,2.3,7.6C195.8,92.1,194.9,90.1,195.4,86.8Z"/><path d="M56.1,99.8a17.7,17.7,0,0,1,2.7-7.9C59.4,94.6,58.9,96.1,56.1,99.8Z"/><path d="M30,91.9l-4.2,6.5-.8-.5a15.2,15.2,0,0,1,4.2-6.4Z"/><path d="M74.8,121.4a4,4,0,0,1-3.9-2.1,1.4,1.4,0,0,1,.2-1.4,1.6,1.6,0,0,1,1.5-.2C73.7,118.6,74.8,119.5,74.8,121.4Z"/><path d="M110.8,95.3a7.4,7.4,0,0,1-3.6-4C109.7,91.5,110.1,91.9,110.8,95.3Z"/><path d="M151.6,165.5c-.3-2-.5-4.1-.9-6.7C152.4,161.3,152.6,162.4,151.6,165.5Z"/><path d="M151.5,111.5c-1.4-1.2-2.5-2.6-1.7-4.7C151.3,107.9,151.3,107.9,151.5,111.5Z"/><path d="M46.1,112.2c-.7-2.5.3-4.6,2-6.4C47.4,107.9,46.8,110.1,46.1,112.2Z"/><path d="M9.6,148.4l1.3,4.8C9.1,151.4,9.1,151.4,9.6,148.4Z"/><path d="M195.3,125.8l.4-3.5h.8c-.2,1.1-.3,2.3-.4,3.4Z"/><path d="M47.7,122.5l1-2.8.6.3-1.7,2.4Z"/><path d="M47.6,122.4l-.6,3-.6-.2,1.3-2.7Z"/><path class="cls-1" d="M347.9,52.4c-.1,1.3-.7,1.8-1.9,1.8s-2.9-1.4-2.5-2.2a3.9,3.9,0,0,1,2-1.8C346.8,49.9,347.8,51,347.9,52.4Z"/><path d="M52.1,195.8l3.3,4.4a2.1,2.1,0,0,1-3.1-.1C51.2,199.1,50.7,197.9,52.1,195.8Z"/><path d="M44.1,182.6c-2.2-.3-3.5-.6-3.4-3C42.5,179.8,43.5,180.5,44.1,182.6Z"/><path d="M58.3,182.8a13.4,13.4,0,0,1,1.2,2.4,1.3,1.3,0,0,1-.7,1.2,1.5,1.5,0,0,1-1.3-.6,12.3,12.3,0,0,1-.2-2.7Z"/><path d="M134.7,89.1a24,24,0,0,1-2.9-1.9,1.5,1.5,0,0,1-.2-2.3,1.4,1.4,0,0,1,2.3.5c.6,1,1,2,1.6,2.9Z"/><path d="M154,91.8v3.8c-1.5.2-2.5-.5-2.4-1.7s1.1-1.6,1.7-2.4Z"/><path d="M139,101.6l1.8,4c-1.9.4-2.9-.2-3.5-1.4S137.2,102.3,139,101.6Z"/><path class="cls-2" d="M365.6,48.3s-.2-1.9,4.5-5"/><path class="cls-2" d="M373.7,44.4s-5.5,4.9-5.2,8.1"/></g></svg>