<svg id="Layer_1" data-name="Layer 1" xmlns="http://www.w3.org/2000/svg" viewBox="0 0 593.3 537.5"><defs><style>.cls-1{fill:#fff;}</style></defs><path d="M270.8,21.7a4.8,4.8,0,0,0,2.7-3.6,31.5,31.5,0,0,1,6.7-11.8c.4-.5,1.3-1,1.7-.8s.8,1.1.9,1.7.2,2.4.3,4c7.3-4.1,14.2-5.3,21.1.5.7-.9,1.4-1.7,1.9-2.5,4.1-6.1,9.8-9,17.2-9.2a21.6,21.6,0,0,1,16.4,6.5c3.5,3.5,6,7.8,6.3,13a3.6,3.6,0,0,0,.2,1c0,.2.2.3.5.6a27.4,27.4,0,0,0,3.7-.8c1.5-.4,2.9-.7,4.3.1a1.9,1.9,0,0,0,1,.3c1.5.1,2.3-.6,2-2s-1.8-5.7-2.7-8.5a17.4,17.4,0,0,0-1-1.9c-.8-1.5-.5-2.2,1.3-2.4,3.7-.5,6.9,1,9.5,3.6a32,32,0,0,1,7.8,14.2c.5,2.1.8,4.2,1.1,6.4s.9,3.5,3.1,4.1a6,6,0,0,1,3.1,2.6,18.1,18.1,0,0,1,2.9,14.6c-.2.7-.3,1.5-.5,2.3a15.2,15.2,0,0,0,2.2.8c5.7.4,8.6,8.7,4.9,13.5l-.5.6c-1.4,1.9-1.4,1.9.5,3.4s3.1,6.5-.3,8.8c-.2.1-.4.3-.1.1-.7,2.5-1.2,4.4-1.7,6.4h-.6l1.1,1.8c1.9,2.6,1.9,2.5,4.9,1.1a9,9,0,0,1,2.2-.6c1.9-.3,2.8.2,3.3,2.1a42.2,42.2,0,0,1,1,6.2c.1.4-.4,1-.7,1.5s-1.3-.6-1.6-1.1a29.6,29.6,0,0,1-1.3-4.5c-.4-1.7-1.3-2.1-2.9-1.2s-2.1,1.7-1.5,3.5c1.4,3.7,1.1,7.6,1.6,11.4s-.5,5.7-.9,8.6c-.1,1-.3,2-.4,3.4a9.4,9.4,0,0,0,1.5-.8c1.3-1.4,2.7-2.8,3.9-4.2a33.7,33.7,0,0,1,12.9-8.9c2.4-1,5-2,7.8-1.8,6,.5,11.2,3.9,13.1,9.8a31.4,31.4,0,0,1,1.7,9.7,62.5,62.5,0,0,1-2.1,11.6c-.2.9-.6,1.7-.9,2.9s1.6.4,2.3.4l11.6-.5h24.5c1.8,0,3.5-.2,5.3-.3s2.7-.3,4.1.6a4.3,4.3,0,0,0,2.3.3c2.4.1,4.9-.1,7.4.1l5.7.6,2.9.2a16.1,16.1,0,0,1,6.1,1.1,24.4,24.4,0,0,0,5.3,1.4c5.1,1,9.5,3.5,13.7,6.4a81.9,81.9,0,0,1,13.2,11.7,56,56,0,0,1,10.4,16.6c1,2.8,2.4,5.4,3.5,8.2s1.5,4.9,2.3,7.4,1.4,5.6,2.3,8.3,1,7.2,1,10.7-.3,4.9.7,7.3a7.6,7.6,0,0,1,.2,2.6c0,3.9.1,7.8,0,11.7s1.1,4.6,2.7,6.5a15.8,15.8,0,0,0,2.2,2.3c2.7,2.4,4.4,5.6,6.5,8.4s3.7,4.7,5.5,7,1.8,2.1,2.6,3.3,4.4,3.4,6.7,2.1a8.4,8.4,0,0,1,4-.8h3.7a4,4,0,0,1,4.3,1.9c.4.6,1.1,1.6.9,1.9a3.7,3.7,0,0,1-2.3,1.8,33.7,33.7,0,0,1-5.5.1h-6.1l-.6.4c2.5,3.7,6.2,5.9,9.9,8.2v4.8c-2.6.9-4.4-.3-6-1.9s-5.7-5-7.5-8.4c-.1-.2-.4-.3-.6-.5a11.5,11.5,0,0,0-.2,7.1,5.8,5.8,0,0,1,.6,1.7c.1,3.7.1,7.4.1,11-2.3,1.3-3.9,0-5.5-1.1s-.5-1.2-.5-1.9c.1-5.9.2-11.9.2-17.9a3.5,3.5,0,0,0-.6-1.6,31.3,31.3,0,0,0-2-3c-4.2-5.5-7.1-11.6-10-17.8l-1.6-2.9h-.6l-.3,2.2V252c0,1.8.2,3.7-.8,5.4a6.3,6.3,0,0,0-.2,2.4c-.1,13.4.1,26.9-.5,40.3-.3,6.4-.5,12.8-.7,19.2a15.5,15.5,0,0,1-.4,2.1,29.5,29.5,0,0,0-.1,4.2c.1,1.7.5,3.4.5,5.2.1,4.7,0,9.5.1,14.2,0,2.2.5,4.4.6,6.5a41.9,41.9,0,0,1-.3,5,13.8,13.8,0,0,1-.3,2,2.5,2.5,0,0,0,1.1.5,83.3,83.3,0,0,0,9.9,1.1,11.1,11.1,0,0,1,7.2,2.7,14.9,14.9,0,0,0,1.4,1.2c3.9,2.4,6,6.3,8.3,10a20.2,20.2,0,0,1,2.1,5.3c1,3.2,1.9,6.5,2.7,9.8s.4,4,.6,6a27,27,0,0,0,.8,4.1,6.1,6.1,0,0,1-.2,4.4,4.5,4.5,0,0,0-.5,1.9c.2,4.8-1.7,9.1-3,13.5a82.2,82.2,0,0,1-4.5,10.6c-2.2,4.7-4.2,9.6-6.5,14.2-1.5,3-3.4,5.7-5.2,8.6s-2.1,3.6-3.3,5.3c-4.4,6.4-8.7,12.9-13.4,19.1a176.1,176.1,0,0,1-11.8,14.1c-4.2,4.6-8.7,8.9-13.2,13.2a48.3,48.3,0,0,1-4.5,3.4c-4.7,3.2-9.4,6.5-14.2,9.5a65.8,65.8,0,0,1-7.4,4l-8.3,3.8c-2.3,1-4.5,2.2-7.2,2.2a1.7,1.7,0,0,0-1,.1c-3.4,1.8-7.1.9-10.6.9-1.8-.1-3.6-1-5.5-1.6a10.5,10.5,0,0,0-2.9-.8c-4.6,0-8.7-1.6-12.5-3.6a21.6,21.6,0,0,1-9.9-9.9c-.6-1.3-1.3-2.6-1.9-4a3.7,3.7,0,0,1,.3-4.3c-.5-2-.8-3.6-1.2-5.3-1.9-.7-3.9-.3-5.9-.1a49.1,49.1,0,0,1-6.6.6c-13.3.2-26.7.2-40.1.3a37.8,37.8,0,0,0-4.7.6l-4.7.5-3.1.2a9.3,9.3,0,0,1,.7,1.9,4.9,4.9,0,0,1,.3,2.3,24.2,24.2,0,0,1-2.5,5.4,6,6,0,0,1-2.8,1.7l-4.6,1.4c-1,4-2.4,7.6-5.6,10.2s-5.5,3.8-9,3.3a20.5,20.5,0,0,1-5.3-1.7c-1.5-.6-1.7-.7-2.4.8a31.3,31.3,0,0,0-1.9,3.6c-1.6,3.8-4.5,5.7-8.3,6.8a19.8,19.8,0,0,1-5.3,1c-1.1-.1-2.3.1-3.2-.8a1,1,0,0,0-1-.3c-3.9.2-6.9-1.6-9.4-4.6a7.6,7.6,0,0,0-1.6,1.4,10.3,10.3,0,0,1-6.9,4c-3.2.5-6.7,1-10-.6-1.5-.7-3.3-.5-5-1.3s-6.9-5-8.1-7.5c0-.2-.1-.3-.1-.5s-.2-2.3-.5-3.4a28.7,28.7,0,0,0-1.2-3.4s-.3-.3-.6-.2c-2.3.4-4.2-.9-6.2-1.5s-3.1-2.2-4.5-3.6-2.2-2.7-3.5-3.9a2.8,2.8,0,0,1-.5-3.4,28.2,28.2,0,0,1,2.4-3.6c.2-.5.7-1.2.5-1.3a2,2,0,0,0-1.4-.8c-4.6-.1-9.2-.2-13.8,0l-12.6.6-7.4.2c-5.5,0-10.9-.1-16.4,0s-11.4.4-17.1.7c-1.9.1-2.2.4-2.2,2.5a27.8,27.8,0,0,1-2.4,10.6,25.2,25.2,0,0,1-2.9,4.6c-.5.8-1.3,1.4-1.9,2.2-2.5,3-6.1,4.3-9.6,5.7a4.5,4.5,0,0,1-2.8-.2c-1.5-.5-2.7-.1-4.1,0-3.8.4-7.7,1.8-11.7.5a61.7,61.7,0,0,0-6.2-1c-7.5-1.3-14.3-4.6-21.1-8.1a102.5,102.5,0,0,1-14.7-9.5c-4-3.1-7.8-6.6-11.6-10s-5.2-4.9-7.6-7.6-5.7-6.3-8.5-9.7-4.9-6.1-7.2-9.3a142.4,142.4,0,0,1-14.2-24.1q-3-6.9-5.7-13.8c-2-5.2-3.9-10.6-5.7-15.9a38.2,38.2,0,0,1-1.7-15l.3-5.5c0-1.7-.3-3.4.9-4.8a3.7,3.7,0,0,0,.1-1.1c1.2-8.5,5.7-14.9,12.6-19.7,4.1-2.9,8.8-4.2,13.8-5.2a13.6,13.6,0,0,0,.2-2c-.1-21-.1-41.9-.3-62.8a86.5,86.5,0,0,0-1-8.9c0-.2-.3-.4-.6-.9-.6,1.2-1.2,2.1-1.6,3.1-1.2,2.9-2.3,5.9-3.5,8.7a2.7,2.7,0,0,1-1,1.5c-1,.8-2.2.4-2.2-.9a5.1,5.1,0,0,0-1.9-3.3L45,277.2l-.6-.5c-2.4-2.9-2.4-2.9-5.7-1.5a22.9,22.9,0,0,1-7.7,2.3c-1.7.1-3.3,1.3-5.1,1l-2-.3-3.6-.9a58.4,58.4,0,0,1-5.9-2C7.3,272.2,3.3,266.6,1,259.4A24.6,24.6,0,0,1,.4,248a19.8,19.8,0,0,1,3.3-8.8c2.4-3.3,4.5-6.8,7.7-9.5a69.2,69.2,0,0,1,8.3-5.9c1.3-.9,3.1-1,4.8-1.3,3.3-.5,6.7-1,10,.3s6.4,1.9,9.5,3a8.8,8.8,0,0,1,3.3,2.4c3.2,3.8,6.7,7.5,8.3,12.4s2.6,8.9,1.8,13.5a25,25,0,0,1-1.8,4.8c-.4.8-1,1.6-1.3,2.4a3,3,0,0,0,1.3,4.2l8.6,5.9,1.8,1,5.1-8.9c1.7-3,3.3-6,5.1-8.9s3.5-5.2,5.3-7.8a4.9,4.9,0,0,0,1.1-3.1c0-3.5.1-6.9,0-10.3-.1-1.8-.9-3.6-.9-5.4a116.8,116.8,0,0,1,.1-14.5c.4-3.3.4-6.7,1.1-9.9,1.4-5.5,2.6-11,4.9-16.2a89.5,89.5,0,0,1,9.1-15.9,65.9,65.9,0,0,1,10.2-10.9c5.2-4.6,11.3-7.7,17.5-10.5,2.9-1.3,6.2-1.7,9.3-2.7s8.3-1,12.5-1.2a1.7,1.7,0,0,0,1-.1c2.2-1.4,4.6-.9,6.9-1l21.9-.2a5.9,5.9,0,0,0,1.9-.1c2.6-1.1,5.3-.8,8-.8l25.4-.6c2.3,0,2.6-.4,1.5-2.6a59.6,59.6,0,0,1-4.3-14.2,28.7,28.7,0,0,1,1.9-15.9c1.2-2.9,3.8-5,6.4-6.8s4.2-1.5,6.5-1.6a24.6,24.6,0,0,1,10.8,1.7,28,28,0,0,1,7.1,5.3,42.8,42.8,0,0,1,4.5,5.8l.9,1.3c.5-2.4,1.3-4.3,1.4-6.3.2-6.5,2.3-12.4,4.4-18.3.5-1.4.4-2.4-.8-3.3a37.1,37.1,0,0,0-4.1-2.8c-3.4-1.5-5.4-.9-7.2,2.6-.6,1.1-1,2.3-1.7,3.7a3.3,3.3,0,0,1-.5-3.7,12.8,12.8,0,0,1,1.5-2.5c2.6-3.3,6.6-3.5,10-.7,1.1,1,2.4,1.9,3.7,2.9,2.2-1.8,2.8-4.3,4.1-6.4s2.9-3.6,3.7-6.2a28.8,28.8,0,0,0-3.9-.3,7.6,7.6,0,0,1-6.8-2.7,21.6,21.6,0,0,1-2.5-2.7c-1.1-1.4-1.3-2.5-.1-3.8a41.8,41.8,0,0,1,4.8-4.4,2.2,2.2,0,0,0-.3-1.1,6.6,6.6,0,0,1,2.4-8.7,82.5,82.5,0,0,1,7.3-4.1,13.3,13.3,0,0,0-1.7-1.6,20.9,20.9,0,0,1-5.1-5.6,9.5,9.5,0,0,1,.6-10.7c3.2-4.3,7.7-6.5,12.8-7.6l2.1-.4c-.7.4-1.4,1.1-2.1,1.4a23.7,23.7,0,0,0-11,7.4,6,6,0,0,0-1.3,2.8,8.9,8.9,0,0,0,2.7,8.4,23.4,23.4,0,0,0,6.6,5.1c.8.5,2,.9,1.7,2.5a13.4,13.4,0,0,0-3.4-.3,19.7,19.7,0,0,0-6.2,2.5c-3.9,2.5-5.3,5.9-2.3,10.3.4.6.6,1.3,1.2,2.4h-2.5a4.4,4.4,0,0,0-4,1.5,2.5,2.5,0,0,0-.4,3.3c2.6,3.4,6.2,6.3,11.1,4.3a33.5,33.5,0,0,0,5.2-3c1.2-.7,2.1-1.9,3.7-1.8s-.2,1.5-1,2.1a2.7,2.7,0,0,0-.4,4.1c1,.8,2.1,1.7,3.6,1.1s2.5-1.3,2.5-3a2.7,2.7,0,0,1,.3-1.6,2.4,2.4,0,0,1,1.2-.7,1.1,1.1,0,0,1,.8.9,4.5,4.5,0,0,1-.1,2.3,1.9,1.9,0,0,0,1,2.8,20.2,20.2,0,0,0,3.2,1.8c3.1,1,5.7-.3,7-3.3a2.3,2.3,0,0,1,.4-1c.4-.4.9-1,1.3-1s1,.9.7,1.7a1.9,1.9,0,0,0,.7,2.5c.9.8,7.1,1.1,8.1.4s.7-.3.9-.6,1.4-2.2,2-3.3.3-1.1.6-1.5a1.2,1.2,0,0,1,1.1-.4c.3,0,.6.4.8.8a1.7,1.7,0,0,1,0,1,3.1,3.1,0,0,0,2,3.6,17.5,17.5,0,0,0,4.2-1.6,14.6,14.6,0,0,0,7.5-12.8c.1-.5,0-1.1.1-1.5s.7-1.5,1.1-1.5,1.3.8,1.3,1.6v2.4a5,5,0,0,0,1.5,3.8c2.8,3,6.2,3.7,10.1,2.7h2a10.1,10.1,0,0,1-.2,1.9,2.7,2.7,0,0,0,0,3c.9,1.3,1.8,2.6,2.8,3.8a2.9,2.9,0,0,0,1.9.7c2.2,0,4.4-.2,6.6-.4s3.3-.9,3.7-3.5a8.6,8.6,0,0,1,.5-2.3,1,1,0,0,1,1.9.3,22.5,22.5,0,0,1,0,2.6c-.1,1.8.7,3.1,2.5,3.4s4.9.5,7.3.8,6.1-1.1,7.6-4.3a5.3,5.3,0,0,1,1.1-1.5,7.9,7.9,0,0,1,2.1-.6c-.6,1.4-1,2.1-1.3,2.9a7.7,7.7,0,0,0,1.5,8.3c2,2.1,4,1.8,5.5-.7a19.9,19.9,0,0,0,1.2-2.2l1.4,3c.5,1.3,1.7,1.4,2.9,1.3s2.5-.3,3-1.7a2.8,2.8,0,0,0-.8-3.2c-.5-.4-.9-1.1-1.4-1.6s.4-.6.5-.6l2.3-.5c2.7-.5,3.6-2.6,2-4.9a4.5,4.5,0,0,0-4.1-2.3,11.6,11.6,0,0,1-1.8-.4l-.2-.5c3.9-2.3,6.5-5.3,5.4-10s-5.5-5.7-10.2-5.6c2.4-1.6,3.1-2.8,3.3-4.8a19.5,19.5,0,0,0-3.5-12.4c-.7-1-1.5-2.3-2.9-2s-1.3,2-1.3,3.1a32.7,32.7,0,0,1-3.2,13.5,19.5,19.5,0,0,1-4.8,6.9,2.6,2.6,0,0,1-3.4-.2c-1-.9-.4-1.8.3-2.5s.9-2-.1-2.9c-3-2.6-6-5.1-8.8-7.9s-4.1-2.5-6.5-.4c-.7.6-1.5.7-2.3-.5l2.1-1.5c6.7-4.6,9.9-11.2,11-19a2,2,0,0,0-1.9-2.6c-3.3-.5-6.5-.3-9.3,1.8-.5.4-1.4.8-1.7.6a2.2,2.2,0,0,1-1-1.9c.2-3.5-1.1-6.7-2.6-9.8C337.4,4.6,328.6.6,319.4,2.1c-5.3.9-9.1,4.2-12.3,8.3-1.2,1.6-1.6,3.1-.6,4.9.1.2-.1.5-.1.7-1.6.4-1.6.4-2.5-.8s-2.9-3.7-5-4.6c-4.8-2.1-9.3-1.1-13.7,1.2a2.9,2.9,0,0,0-1.4,3.4,35.6,35.6,0,0,0,1.8,5.8,57.3,57.3,0,0,0,15,20.4,12.4,12.4,0,0,1,2.8,2.8,2.2,2.2,0,0,1,.1,2.1c-.2.4-1.2.5-1.9.5A3,3,0,0,1,300,46a2.4,2.4,0,0,0-3.3.1c-3.2,2.5-6.5,4.8-9.8,7.1l-1.8,1.6,2.5,3.6a9.9,9.9,0,0,1-5.9-3.1,32.5,32.5,0,0,1-7.5-11.1A35.6,35.6,0,0,1,271.7,28C271.9,25.9,272.2,23.6,270.8,21.7ZM397.5,282.2c1.3.2,1.9,1.3,2.6,2.3a38.3,38.3,0,0,0,4.1,4.8,3.9,3.9,0,0,0,5.8-.4,28,28,0,0,0,3-4.6c1.2-2.2,2-4.5,3.2-6.6s3.8-3.3,6.5-2l3.8,2.3c1.8,1,2.6.8,3-1.2s.3-4,.5-6,.2-2.2,1.5-2.5,1.9.4,2.6,1.3a21.1,21.1,0,0,0,3,3.7,3.7,3.7,0,0,0,5.6-.8c1.3-2.1,2.4-4.4,3.7-6.6s1.5-3.4,2.8-4.3,3.6-2.2,5.8-.7a29.2,29.2,0,0,0,4.7,2.3l4.6,2.1a26.9,26.9,0,0,0,1.7-3.4c.7-1.8,1.1-3.7,1.9-5.4,1.5-3.4,3.4-4.1,6.7-2.5,1.5.7,2.9,1.6,4.7,2.6a24.3,24.3,0,0,0,1.4-2.8c.7-2.1,1.1-4.2,1.7-6.3a11.4,11.4,0,0,1,2.8-4.7q1.4-1.5,2.7-.3a13,13,0,0,1,2.2,1.9c1.1,1.1,2.2,2.3,3.4,3.3s2.5,1,3.2-.8a26.7,26.7,0,0,0,1.4-3.6c1.8-4.5,4.9-5.6,8.6-2.6.3.2.5.5.8.6a10.1,10.1,0,0,0,2.3.7,1.9,1.9,0,0,0,1.9-1.5,41.9,41.9,0,0,1,1.6-4.6c.9-2,3.2-3.8,5.8-1.8a17.1,17.1,0,0,1,2.6,2.1c.7.7,1.5,1.3,2.5.6,1-3.7,1.8-4.7,5-6.1l3.5.7,3.1-3.8c.8-.9,1.6-1.1,2.5-.2s1.6.4,2.5-.2,1.9-3.8,4.1-4.5c.2,0,.3-.5.3-.7-.1-2.7-.2-5.4-.2-8.1-2.2-2.1-2.5-4.9-2.9-7.7a27,27,0,0,0-.5-4.1c-1.1-4.4-1.7-8.8-3.1-13.2a131.8,131.8,0,0,0-4.7-12.4,63.6,63.6,0,0,0-12.2-17.7,52.8,52.8,0,0,0-14.3-10.5,53.5,53.5,0,0,0-8.6-3.5c-5.2-1.8-10.5-3.2-16.1-3.1a7.4,7.4,0,0,1-2.6-.3c-3.3-1.4-6.7-.9-10.1-.4-1.4.2-2.9.6-4.3.7l-44.4.3-3.7.3a35.6,35.6,0,0,1-4.7.5l-34.8.6a8,8,0,0,0-3.9,1.4,19.3,19.3,0,0,1-5.6,2.7c-4.5,1-9.2,1.5-13.7,2.3-1.2.3-2.4.8-3.6,1-4.4.6-8.8.4-13.3,1.1s-10.9.4-16.3.4-8.4-.1-12.7-.3l-2.6-.3a19.1,19.1,0,0,0-3.3-.6c-3.2-.2-6.5-.2-9.7-.3l-1.8-.3-3.3-.7c-4.2-.4-8.5-.5-12.3-2.4a12,12,0,0,0-5.6-1.2l-61.3.2-3.9.4c-2.3.2-4.6.6-6.8.6H162.1a109.7,109.7,0,0,0-22.8,1.9,61.9,61.9,0,0,0-11.1,3.4,54.4,54.4,0,0,0-13.8,8.1c-2.8,2.3-5.8,4.3-8.2,7A68.6,68.6,0,0,0,93.9,186a59.5,59.5,0,0,0-5.5,17.5c-.1.2-.1.5-.2.8A30.5,30.5,0,0,0,87,215.9c.1,1.5.3,3.2,1.1,4.2a20.5,20.5,0,0,1,3.1,6.3c1,2.8,2,5.6,3.1,8.4s1.5,1.7,2.8.6,1-1.2,1.6-1.7a38.7,38.7,0,0,1,4.7-5.2c2.2-2,4.6-1.3,5.6,1.5s1.8,6.3,2.8,9.4.8,4.1,2.6,5.7l4-3.9a22,22,0,0,1,2.7-2.6c2.2-1.7,4-1.3,5.4,1.1a28,28,0,0,1,1.5,3c1.1,2.5,1.9,5.2,3.3,7.4s2.7,4.4,6.3,2.2a62.3,62.3,0,0,1,7.6-4.1c3.2-1.5,6-1.1,7.6,2.1.9,1.7,1.6,3.7,2.5,5.5s1.4,2.8,2.2,4.1,1.1,1.4,2.5.4,3.4-2.8,5.2-3.9,4.4-1.1,5.3,2,1.3,4.7,1.9,7.1,1.4,2,2.7.8,1.3-1.4,2-2.1a21.8,21.8,0,0,1,2.2-2.1c2.6-2.1,5.2-1.1,5.9,2.1a22.4,22.4,0,0,0,3.3,7.4,2.2,2.2,0,0,0,2.1,1.2c2.1.2,3.6-1.2,5.1-2.3s5.4-1.5,7.2,1.3,1.9,3.2,2.9,4.7a6.6,6.6,0,0,0,4.4,3.1c1.2-.9,2.4-2,3.8-2.9s4.9-2.7,7,.8c.7.9,1.2,1.9,1.9,2.8s1.9,2.5,2.9,3.8a6.3,6.3,0,0,1,1.4-.9c.9-.7,1.7-1.6,2.6-2.2s3.9-1.1,5.3,1.3,1.2,2.5,1.8,3.8a7.4,7.4,0,0,0,5.7,4.2c.5.1,1.1,0,1.5.3s1.1,1,1,1.3a3.3,3.3,0,0,1-1.3,1.3c-.2.2-.6.1-.8.1a9.1,9.1,0,0,1-8.3-4.7l-3-5.3-3,2.4a3.3,3.3,0,0,1-3.7.6,7.9,7.9,0,0,1-3.1-2.3,44.8,44.8,0,0,1-3.2-4.4c-1-1.3-2.2-1.5-3.4-.5s-.7.8-1.1,1.1a6.1,6.1,0,0,1-8.9-.1,23.2,23.2,0,0,1-4.5-5.8c-1.2-2.1-2.2-2.3-4.2-.9a15.1,15.1,0,0,1-2.8,1.5,6.2,6.2,0,0,1-7.8-1.7,21.5,21.5,0,0,1-3.1-6.5c-.4-.9-.8-1.8-1.3-3.1a19.2,19.2,0,0,0-2,1.9c-1.3,1.4-2.5,2.9-3.9,4.2a2.8,2.8,0,0,1-3.9.1,7.2,7.2,0,0,1-2.6-4.4c-.6-2.1-1.1-4.3-1.8-6.8a22.9,22.9,0,0,0-2.8,1.7c-1.3.9-2.4,2-3.7,2.8a3.9,3.9,0,0,1-5.1-.3,14.6,14.6,0,0,1-2.7-3.8c-1.1-2.2-1.8-4.5-2.9-6.7s-2.2-2.6-4.7-1.2l-.6.5a46.7,46.7,0,0,1-5.7,3.3c-4.4,1.7-7.9,1.3-10.3-2.2a37.1,37.1,0,0,1-2.4-4.9c-.8-1.9-1.5-3.9-2.4-5.8s-1.3-1.3-2.3-.4-1.5,1.7-2.3,2.6a13.8,13.8,0,0,1-2.2,2.6c-2.3,2.2-4.6,2-6.3-.5a16.2,16.2,0,0,1-1.7-3.5c-.9-2.8-1.5-5.6-2.3-8.3s-1-2.6-1.6-4.3l-4,4.3a38.9,38.9,0,0,1-3.8,4.3,2.4,2.4,0,0,1-3.5-.2,7,7,0,0,1-1.3-1.7l-3-8.1c-.3-.8-.5-1.6-1.5-1.5s-1.4,1.1-1.2,2a60.4,60.4,0,0,0,2,8.4,8.8,8.8,0,0,1,.3,5.3c-.6,2.4-2.1,4.4-2,7,.1,7.2,0,14.4,0,21.6a20.6,20.6,0,0,0,.3,2.6,37.8,37.8,0,0,1,.6,4.7c.1,24.5.2,49.1.2,73.6.1,1.6,0,3.2.1,4.8a5.7,5.7,0,0,0,.2,2.3c1,2.2.9,4.5.9,6.8s.2,1.8.3,3c5-.5,9.4,1,13.9,2.2,2,.5,4.1.8,6.1,1.5a46.2,46.2,0,0,1,5.7,2.4,66.4,66.4,0,0,1,13.1,7.1c4,2.9,8,5.7,11.9,8.7a83.2,83.2,0,0,1,7.7,6.8c4,4,7.9,8.2,11.8,12.5a114.4,114.4,0,0,1,12.5,16.8c.6,1.1,1.1,2.8,3.2,3.1,0-1.5,0-2.9.1-4.3s1.5-3.4,3.8-2.3l4,2.1c2.6,1.5,3.9,1,4.6-2a56.6,56.6,0,0,0,1.3-5.6,2.1,2.1,0,0,1,2.1-1.9,14.3,14.3,0,0,1,3.6.6c1.6.6,3,1.5,4.5,2.2,3.5,1.5,6.5.7,8.4-2.5a37.4,37.4,0,0,0,2.2-4.5c1.3-3.1,3.8-3.7,6.5-1.6a20.6,20.6,0,0,0,4.6,3.1,3.3,3.3,0,0,0,4.9-1.8c.5-1.5.9-3,1.4-4.5s.9-2.3,2.2-2.4,3.5-.6,4.9.9a9,9,0,0,0,2,1.4c1.4.8,2.8.4,3.2-1.3a57.2,57.2,0,0,0,1.1-5.7c.3-2.2,1.7-3.2,3.8-2.4a12.4,12.4,0,0,1,3,1.6,5.1,5.1,0,0,0,6.5-.3c1.4-1,2.9-1.9,4.3-3,3.6-3.1,8-4.3,12.5-5a13,13,0,0,1,1.4.5l-2.5,1.6c-3.5,1.8-7.3,3.1-10.3,5.7l-1.9,1.5c-3.4,2.7-7.2,3.9-11.5,2l-2.2-.7c-.2,1.6-.3,3-.6,4.3-.5,3.1-2.5,4.7-5.6,4.7s-3.1-.9-4.6-1.7l-2-1.1a4.1,4.1,0,0,0-.5,1.6,10.9,10.9,0,0,1-2.7,5.6,6.1,6.1,0,0,1-5.6,2.3,16.1,16.1,0,0,1-4.3-1.7,38.3,38.3,0,0,1-4.2-2.8,11.6,11.6,0,0,0-1.2,2,19.2,19.2,0,0,1-4.2,6,7,7,0,0,1-6,1.9,13.6,13.6,0,0,1-7.6-2.6c-1.4-1.2-2.8-.4-3.2,1.5a20.1,20.1,0,0,1-1,3.5c-1.2,3.2-2.9,4.2-6.2,3.7a3.3,3.3,0,0,1-1.5-.5l-4.9-2.5-1.6,7.7c2.4,4.7,5.1,9.9,7.6,15.2a109.9,109.9,0,0,1,5.1,12.3c1.3,3.9,2.1,8.1,3,12.1s1.1,5.8,1.6,8.8-.6,6.1,1.2,8.9c.2.3.1.7.1,1.1s.1,2.6.2,3.9.4,3,3.1,2.9l2.6-.2a47.8,47.8,0,0,1,5.3-.6c16.1-.3,32.2-.4,48.3-.6l43.2-.6a25.8,25.8,0,0,0,4-.4c1.7-.1,3.5-.5,5.2-.5l56-.2a19.3,19.3,0,0,0,4.2-.4,31,31,0,0,1,8.6-.8h57.3l3.4-.2c.4-5.2-.3-10.1,1.1-14.9.6-2.1.8-4.4,1.2-6.6,1.1-5.8,3.2-11.2,5.1-16.7a88,88,0,0,1,5.5-12.1c2.7-5.2,5.5-10.3,8.6-15.1s7.5-10.9,11.4-16.3c1.2-1.7,2.5-3.3,3.7-4.9a9.2,9.2,0,0,0-.9-1.3c-1.5-2-1.5-1.9-3.8-.9a5.6,5.6,0,0,1-7.4-2c-.8-1.2-1.3-2.6-2-3.9l-1,.4-3.4,3.3c-1.8,1.7-3.2,1.7-5.4.8s-4.1-3.8-5.5-6.1-1.2-1.7-2.2-3.1c-1.4,1.7-2.3,3-3.5,4.2a3.3,3.3,0,0,1-4.3.7,9.9,9.9,0,0,1-4.4-3.7c-1-1.8-2.4-3.5-3.3-5.3-1.9-3.7-2.6-4.9-6-.9s-6.2,2.8-8.7,1.5a9.6,9.6,0,0,1-4.5-4.6c-1.1-1.9-2-4-3.1-6.1-.5.4-1,.5-1.2.8s-1.1,3.1-1.5,4.7-1,2.2-2.2,2.3-1.7-1.1-2.1-2.1-.1-.5-.2-.7c-.7-2.6-1.5-5.2-2.2-7.8-.2-.9-.7-2.1.9-2.9.9,3.2,1.8,6.2,2.7,9.2,1.7-.1,1.6-1.3,1.8-2.3s1.4-4.9,4.3-5.7a9.5,9.5,0,0,1,3,3.6,45.7,45.7,0,0,0,3.5,7c1.7,2.6,4.2,3.2,6.9,1.1a16.1,16.1,0,0,0,2.3-2.2c2.8-2.7,6.1-2.3,8.1,1s2,3.8,3.2,5.7a26,26,0,0,0,3,3.6c1.1,1,1.7.8,2.6-.3a27.5,27.5,0,0,1,2.2-2.6c2.9-3.1,5.3-2.9,7.3,1.2a52.1,52.1,0,0,0,3.4,5.6c1.6,2.2,2.7,1.6,4.3-.5a29.7,29.7,0,0,1,2.8-3.4c2.5-2.3,4.2-2,5.7,1.1.6,1.4,1.3,2.8,1.9,4.3s1.6,1.2,2.7.8a19.2,19.2,0,0,0,1.7-1.3,3.3,3.3,0,0,1,4.8.7,5.8,5.8,0,0,0,1,1.2c1,1.2,1.6,1.3,2.8.3l2-2.1c4.2-4.2,8.2-8.5,12.6-12.5s6.9-5.6,10.4-8.3a121.2,121.2,0,0,1,20-12.4,83.3,83.3,0,0,1,18-6.8,2.3,2.3,0,0,0,2-2.4v-2.1l.3-106.1a6.5,6.5,0,0,1,.1-2.4c.5-1.8,1.4-3.5-.3-5.3a3.3,3.3,0,0,1,0-1l.3-10.3a4.6,4.6,0,0,0-.4-1.3c-1.7,1.3-3.4,1.5-4.7.4-1.2,1.4-2.2,3-3.6,3.8a4.5,4.5,0,0,1-4.8-.5c-.5.4-.9.6-1.1,1s-1.1,2.3-1.7,3.4-3,2.8-5,1.2-3.2-2.3-4.8-3.5c-1.8,1.2-2.1,3.2-2.5,4.9a5.1,5.1,0,0,1-8.4,2.5l-2.1-1.4c-1-.5-1.9-.5-2.4.7s-1,2.1-1.3,3.1c-1.1,3.9-2.6,5.4-5.9,5a6.7,6.7,0,0,1-2.9-1.5,55.1,55.1,0,0,1-4.3-4.1,4,4,0,0,0-1.9,2.9,50.2,50.2,0,0,1-2.3,7.8c-1.1,3-3.2,3.7-6.1,2.2l-4.9-2.5a12.5,12.5,0,0,0-2.8,6.2c-1,4.5-4.6,6.6-8.5,4.8l-8.3-4.1a28.1,28.1,0,0,0-2.7,3.6c-1.5,2.5-2.8,5-4.2,7.5s-6.1,4.5-9,2.6-3.7-1.8-3.9,2.1c-.2,1.8-.8,2.7-2.7,3a5.3,5.3,0,0,1-2.8-.1,49.7,49.7,0,0,1-5.2-2.5c-1.5-.8-2.3-.8-3.3.8a44.6,44.6,0,0,0-2.2,5,18.5,18.5,0,0,1-4.9,6.8,5.5,5.5,0,0,1-7.1.9,25.3,25.3,0,0,1-4.2-3.1,23.8,23.8,0,0,1-1.9-1.7,8.6,8.6,0,0,1-.3,2.1c-.6,1.2-1,2.9-1.9,3.5s-2.4-.8-3.3-1.7a6.7,6.7,0,0,1-1.4-1.9c-.2-.3.2-.9.4-2,1,1.9,1.5,3.4,3.7,3.3.1-1.8.2-3.7.2-5.5A2.9,2.9,0,0,1,397.5,282.2Zm176.1,112h-.3a41.7,41.7,0,0,0,0-5c-.5-3.4-.8-6.9-2-10a24.8,24.8,0,0,0-6.4-9.1c-4.5-4.3-10-5.3-15.5-5.1a47.3,47.3,0,0,0-18,4.5c-3.9,1.8-7.8,3.5-11.5,5.6a108.5,108.5,0,0,0-16.4,11.3l-3.6,3c-3.3,2.9-6.8,5.6-9.8,8.7s-8,8.6-11.9,13a150.6,150.6,0,0,0-12.8,16.7,218.3,218.3,0,0,0-11.5,19.3,109.1,109.1,0,0,0-10.1,24.5c-.8,3-1.8,5.9-2.5,8.8a88.5,88.5,0,0,0-1.6,8.7,63.2,63.2,0,0,0-.1,8.7,23.6,23.6,0,0,0,1,4.6c.1.4.5.7.7,1.1A22,22,0,0,1,443,506a33.8,33.8,0,0,0,2.4,4.1,53.8,53.8,0,0,0,5.2,5.5,17.8,17.8,0,0,0,9.2,4.3c3.5.5,7.2,2.3,10.9.1h.3c5.2.1,10.1-1.9,14.8-3.7a89,89,0,0,0,13.6-7.3,118.5,118.5,0,0,0,18.4-13.9c8.2-7.6,16.3-15.4,23.1-24.4a237.9,237.9,0,0,0,14.5-21.5,159.7,159.7,0,0,0,12.1-25.4c1.2-3.5,2.1-7,3.2-10.5s1.2-5.6,1.9-8.4S573.3,397.8,573.6,394.2ZM186.3,503.7h.4l-1.5-11.4a14.2,14.2,0,0,0-.3-3.6c-1.2-3.3-1.4-6.8-2.4-10.1-.2-.7-.3-1.5-.5-2.3l-2.4-8c-1.3-3.8-2.4-7.6-4-11.3s-3.4-7.1-5.2-10.6-2.7-5.1-4.1-7.6-2.8-5-4.3-7.5-4.5-7.3-6.9-10.8a79.5,79.5,0,0,0-4.8-6.6c-2.7-3.3-5.3-6.8-8.3-9.9s-5.7-5.1-8.7-7.6-3.8-3.1-5.7-4.6-2.3-1.4-3.3-2.2a43.7,43.7,0,0,0-11-7c-3.3-1.5-6.3-3.8-10.1-4.2-1.9-.3-3.7-1.6-5.5-2.3l-3.3-.9-2.1-.3c-3.3-.8-6.6-1.8-9.9.1a1,1,0,0,1-.7.2c-3.6.4-6.6,2.3-9.4,4.3-6.5,4.6-8.6,11.6-10.2,18.8-.3,1.3.1,3.3-.7,4s-1.7,3.5-1.1,5.5a14.9,14.9,0,0,1,.2,2.1c.2,2.1.2,4.2,1.2,6.1a22.6,22.6,0,0,1,1.5,4.1c.9,2.7,1.6,5.4,2.5,8s2,5.1,2.3,7.8a23.5,23.5,0,0,0,1.4,5.2,134.9,134.9,0,0,0,9.4,18.1c3.7,5.8,7.4,11.5,11.5,16.9s8.3,10,12.7,14.7c2.8,3,6,5.7,9.1,8.5s6.2,5.3,9.4,7.8a114,114,0,0,0,16.9,10.6,66.5,66.5,0,0,0,16.6,6.2,85.2,85.2,0,0,0,8.8,1.6,10.2,10.2,0,0,0,3-.3l2.4-.5c4.9-.2,9-2.4,12.6-5.7a12.5,12.5,0,0,0,3.2-4.4,33,33,0,0,0,1.3-7.1A22.8,22.8,0,0,0,186.3,503.7ZM387.5,98.4l-1.9,1.2c-2.2,1.8-4.4,3.8-6.8,5.4s-3.1,3.4-3.9,5.9c-2.2,7.1-6.4,12.9-13.4,16.1a64.6,64.6,0,0,1-9.4,3.1,4.7,4.7,0,0,1-2.3-.4l-1.9-.8c-2.3-.9-4.8-1.5-6.9-2.7-7.1-4.2-11.2-10.7-13.2-18.6a35.3,35.3,0,0,1-1.2-11.7c.1-1.7-.8-2.6-2.1-3.4s-5.5-1.5-8.4-1.1a5.4,5.4,0,0,0-3.3,1.8,10,10,0,0,0-1,4.6,25.5,25.5,0,0,1-2.1,10.2,11.7,11.7,0,0,0-.3,2.3,13.3,13.3,0,0,1,2.3-1c5.7-2.5,13.6-.9,14.7,7.1.6,4.1-.3,8.2-4.8,10.4-1.7.8-3.4.6-5.1.7-5.7.5-10.7-4.6-10.5-10.7,0-.3-.1-.7-.2-1.7a21.2,21.2,0,0,1-2.2,2.5c-2.1,1.8-4,4-6.4,5.1a19,19,0,0,1-14.8.7,15.1,15.1,0,0,1-4.2-2.5c-3.7-2.8-7-5.9-9.2-10a40.4,40.4,0,0,1-3.3-9.4,5.3,5.3,0,0,0-1.4-3c-2.2-2-4.6-3.8-7-5.6s-2.3-.8-2.9,1-1.9,6.1-2.6,9.3-.8,5.2-1.4,7.7a21.3,21.3,0,0,0,.7,12.5c1.8,5.1,4.5,9.8,9,13.3a9.1,9.1,0,0,1,1.7,1.7,10.5,10.5,0,0,0,4.7,3.1c2.3,1.1,4.7,2,7.1,2.9s4.7,1.5,7.2,2.1,5.3.9,8,1.2,6.9.7,10.4.9a5.9,5.9,0,0,0,2.3-.4,12.8,12.8,0,0,1,3.3-.6c2.3.1,4.7.5,7,.8s5.6,1,8.3,1c5.6,0,11.2.5,16.8-.6s12.1-1.7,18.2-2.5l1.3-.4c2.4-.7,4.8-1.7,7.2-2.2,4-.9,7.5-3,10.9-4.9a18.6,18.6,0,0,0,5.7-5.8c3.2-4.7,4.9-10.1,6.3-15.5a59.6,59.6,0,0,0,1.3-16.3C387.7,100.4,387.6,99.6,387.5,98.4ZM356.8,508.8a6.9,6.9,0,0,1,4.5.4,10.1,10.1,0,0,0,4.9.2c.7-.1,1.6-1.4,1.8-2.2.6-3.1-2.7-6.8-6-6.8l-44,.2a8.2,8.2,0,0,0-2.7.2c-3.5.9-7.1.8-10.7.8H275a4.6,4.6,0,0,0-4.7,3.7c-.2.9-.6,1.8-.9,3,1.8,1.7,3.6,3.6,5.6,5.3s2,.6,2.9,1.1a5.6,5.6,0,0,0,5.2-.1c1.6-.7,3.2-2.5,5.4-1.1.3,1.8.7,3.6-1.3,4.8s-1.5.2-2,.5A21.8,21.8,0,0,0,283,521c1.1,1.6.6,3.7,2.1,5.2a27.2,27.2,0,0,1,2.4,2.4c1.6,1.9,4,2.3,6.2,2.8a13.4,13.4,0,0,1,3.8,1c.8.4,2.1,0,3.2-.2s1.2-.6,1.7-.6c3.1-.2,4.3-2.6,5.9-4.7a37,37,0,0,1,3.7-4.2,1.7,1.7,0,0,1,1.7,0c1,.6,1.1,2.2.8,3.4s-.4,2.5-.6,3.6l2.6,1.5c3.5,1.7,9.9,2.4,13.9.2,1.8-1,3.7-2.5,4.1-4.6s.8-5.1-.6-7.5c1.6-2.2,3.4-3.5,5.8-2.5l2.7,3.9-.5,1.1c3,2.4,6.4,1.5,9.7,1.6a2.7,2.7,0,0,0,1.4-.5,43.6,43.6,0,0,0,4.3-4.3c1.5-1.9,1.7-3.4.6-4.6S356.4,510.8,356.8,508.8ZM329.9,85.5a29.6,29.6,0,0,0-.7,3.7c-.2,1.6.1,3.3-.2,5a32.3,32.3,0,0,0,.9,14.5c2.5,8.3,7.3,14.6,15.8,17.4a10.2,10.2,0,0,0,3.8.7,24.2,24.2,0,0,0,6.7-1.4c5.9-2.4,10.6-6,13.5-11.9a27.2,27.2,0,0,0,3.1-12.1,29,29,0,0,0-2.5-12,9.6,9.6,0,0,0-2.2-3.3c-2.9-2.3-6.1-4-10.1-3.9a14.3,14.3,0,0,1-4.6-.7,6.5,6.5,0,0,0-5.8.4,10.1,10.1,0,0,1-9.1.4c-1.8-.8-3.6-.9-5.1.6a4.1,4.1,0,0,1-1.5.7l-.3-.5,3-2.6c-.8-2-1.7-3.7-2.2-5.4s-.3-2.2-2.6-2.4-6.5-1.1-8.7-4.1c-.1-.3-.5-.4-1-.8a11.3,11.3,0,0,0-1.3,2,13.9,13.9,0,0,1-6.4,6.7c-2.6,1.2-5.1,3.2-8,.7-.5-.5-1.4-.2-1.7,1l2.7,1.3a7,7,0,0,1,2.3,1.5,41.5,41.5,0,0,1,2.4,3.4,24.9,24.9,0,0,1,1.5,2.8c.4.9.4,2.3,1.1,2.8s1.9.1,3,.1a3.9,3.9,0,0,0,1.5-.2,12.3,12.3,0,0,1,7.8.4l1.9.4C328,86.7,328,86.7,329.9,85.5Zm-93.7,57.3c2.9,0,5.8.4,8.5-.3.8-2.8-.4-5-1.1-7.2-1.1-3.9-2.9-7.7-4.4-11.6a40.5,40.5,0,0,0-1.7-4.9c-1.6-3.4-3.5-6.6-5.4-9.9a.8.8,0,0,0-.5-.5c-2.5-1.9-5.2-3.5-8.4-3a10.8,10.8,0,0,0-8.3,5.4,21.2,21.2,0,0,0-3.1,10.9,36.1,36.1,0,0,0,.8,6.5,48.5,48.5,0,0,0,4.7,13.4,2.6,2.6,0,0,0,2.9,1.7l9.2-.5,3.3-.2-1.5-3.1a48.8,48.8,0,0,0-5-10.6,5,5,0,0,1-.3-5.5c.5.4,1.1.6,1.3,1C230.2,130.4,234.3,135.8,236.2,142.8Zm169.4-4.1a10.8,10.8,0,0,0,1.9.4l12.3-.9a2.3,2.3,0,0,0,2-2.1,34.7,34.7,0,0,1,1.4-7.7,49.4,49.4,0,0,0,1.5-8.7,51.7,51.7,0,0,0,.1-6.8,4.8,4.8,0,0,0-1.2-2.6c-1.8-2.3-4.7-2.1-7.1-3-.3-.1-.8.3-1.2.4a4.2,4.2,0,0,1-1.5.4c-3.1.2-5.7,1.6-8.2,3.2s-4.2,2.9-6.2,4.4a32.3,32.3,0,0,0-3.7,3.7,79.2,79.2,0,0,0-9.2,14.3A12,12,0,0,0,385,139h13.4a5.9,5.9,0,0,0,5.4-2.6l5.6-7.9c1.3-1.9,2.3-3.9,3.6-5.9a6,6,0,0,1,1.4-1.3,2.9,2.9,0,0,1,.2,3.7l-6.4,9.5C407.3,135.9,406.6,137.2,405.6,138.7ZM308.5,95.4V92.3c.3-5.3-2.6-8.9-6.6-11.8a2.4,2.4,0,0,0-3.1-.3,5.4,5.4,0,0,1-4.1.5,37.5,37.5,0,0,0-5.7-.9c-4.6-.3-9,.9-13.3,2.5s-5.9,2.1-7.3,5.5-2.1,5.1-1.1,8.1.3,3.3.5,4.9a16.5,16.5,0,0,0,.4,3.1,27.5,27.5,0,0,0,9,13.7,11.6,11.6,0,0,0,4.5,2.4,38.5,38.5,0,0,0,13.1-.2,3.5,3.5,0,0,0,1.4-.6A27.2,27.2,0,0,0,307.4,105,25.8,25.8,0,0,0,308.5,95.4ZM3.2,251.1h0c0,1.4.1,2.8,0,4.2a11.1,11.1,0,0,0,2,6.7c1.9,3.2,4,6.5,7.7,8.4s5.7,3.5,9.1,3.7,6.7-.1,10-.2a7.9,7.9,0,0,0,2.2-.6,26.6,26.6,0,0,0,9.3-6.2,18.3,18.3,0,0,0,5.8-11.5c.6-4.9.3-9.8-2.2-14.3a25.1,25.1,0,0,0-7.6-8.9,27.4,27.4,0,0,0-9.3-3.9c-4.4-1.1-8.3-.1-12.2,1.4-2.3.9-4.3,2.5-6.5,3.3a7.5,7.5,0,0,0-4.2,3.6c-2.4,3.8-4.4,7.7-4.1,12.4Zm46.3,16.1c-1.8,1.6-3.3,3-4.8,4.2s-1.5,1.6-.3,2.7c2.8,2.7,5.7,5.2,8.7,7.7s6.8,4.9,9.9,7.7,6.3,6.1,9.5,9.1c1.2,1,2.5,1.7,3.9,2.7,1.2-2.2,2.3-4.1,3.3-6.1-2.9-2.4-5.6-4.7-8.5-6.9s-7.4-5.3-11-8.1a17.2,17.2,0,0,1-3.3-3.3c-2-2.6-3.7-5.3-5.5-8A9.7,9.7,0,0,0,49.5,267.2ZM82.3,290c.8-2,.7-31.6-.1-34-2.1,1.5-11.9,16.5-12.8,19.6Q76,282.8,82.3,290ZM278.4,79.2l-1-.8c-1.3-1.2-2.5-2.1-4.6-1.3a4.3,4.3,0,0,1-5.1-1.3,13.9,13.9,0,0,1-1.6-2.8,8.6,8.6,0,0,0-1.7,1.5,57.9,57.9,0,0,0-7.8,13.7,1.8,1.8,0,0,0,.9,2.4l3.8,2.7,4,2.5c.1-1.7.3-2.8.3-3.8a7.5,7.5,0,0,1,1.6-5.4c2.2-3.1,5.3-4.8,8.7-6.1A15.1,15.1,0,0,0,278.4,79.2ZM297,43.6c-1.9-2-3.5-3.7-5.2-5.3s-2.1-1.9-4.5-.7l-9.5,5c-1.3.6-1.7,1.4-1,2.5,1.8,2.8,3.7,5.5,5.6,8.2a7.6,7.6,0,0,0,1.3.7A116.7,116.7,0,0,0,297,43.6Zm25.8,74.5v-2c-.5-3.8-4.6-7.1-8.2-6.5s-4.2,2.3-5.4,4.4c-2.8,4.3.3,10.6,5.3,11.7,2.2.5,3.5-.8,5-1.7S323.2,120.8,322.8,118.1Zm45.4-72a9.4,9.4,0,0,0-1.5-2.2l-8.6-6c-1.5-1-1.9-.9-3,.5L352.9,41c-1.5,1.7-1.5,1.9.2,3.3l9.5,8.2.8.7c.9.7,1.8.7,2.2-.4S367.3,48.4,368.2,46.1Zm-94.3-17c-.1.9-.2,1.4-.2,1.9-.4,3.1.6,6,1.2,9s1.4,2.6,3.4,1.4l7.3-4.5a11.3,11.3,0,0,0,1.8-1.2,2.2,2.2,0,0,0,.8-1.5c0-1.6-3-4.4-4.7-4.6l-7.3-.6A19.3,19.3,0,0,0,273.9,29.1Zm102.5,73,8.8-7.1c.8-.7,1.6-1.6,1.2-2.7s-1-2.9-1.9-3.6-3.2-1.4-4.8-2a.7.7,0,0,0-.7.2,8.8,8.8,0,0,1-6.2,2A30.3,30.3,0,0,1,376.4,102.1ZM369.2,36h.2c-.4-2.3-.7-4.5-1-6.8a1.5,1.5,0,0,0-1.5-1.5h-5.8a1.9,1.9,0,0,0-1.9,1.5l-1.5,4.5a1.7,1.7,0,0,0,.6,2.1c2.9,1.7,5.7,3.5,8.6,5.1,1.1.6,1.9.3,2.1-1S369.1,37.3,369.2,36Zm-85.3-8.7a34.6,34.6,0,0,1-1.7-4.3c-.6-3-2.9-3.7-5.3-4.4a1.6,1.6,0,0,0-2,1.2c-.3,1.5-.8,2.9-1.1,4.3s.1,3.6,3,3.6h4.7A13.2,13.2,0,0,0,283.9,27.3ZM263.1,140.9c-4.9-2.7-7.8-7.5-11.9-11.7.6,4,1.2,7.6,1.8,11.1.1.6.7,1.5,1.1,1.5l8.6-.2C262.8,141.6,262.8,141.3,263.1,140.9ZM367.8,25.1c-1.1-2.8-2-5.3-3.1-7.8s-1.3-1.6-3-1.1a2.3,2.3,0,0,0-1.9,2.7l.3,4.7c.1.7.3,1.3.4,2.1C362.9,25.5,365.1,26.1,367.8,25.1ZM355.9,8.6l2.9,5.9c.6,1.1,1.6.9,2.5.4a1.4,1.4,0,0,0,.5-2.4,57.3,57.3,0,0,0-4.5-3.9C357.1,8.4,356.7,8.6,355.9,8.6Zm-75.8,9.1c-.4-2.7-.6-4.8-1-7.3-2,1.8-2.3,4.1-3,6.1-.1.3.6,1.2,1,1.2A15,15,0,0,0,280.1,17.7Zm85.6,64.9c1.3.6,1.8,1.7,3.5,1.3l-1.4-2.8ZM382.5,137l-1.4,2.1C382.8,138.9,382.8,138.9,382.5,137Z"/><path d="M307.8,131.7l1.8,1.7a14.4,14.4,0,0,0,2.5,1.8c2.1,1.1,4.2,1.8,6.2-.2a20.7,20.7,0,0,1,3.8-2.8,1.3,1.3,0,0,1,1.3-.3c.3.2.6,1,.4,1.3s-1.3,2.8-2.5,3.5a10.5,10.5,0,0,1-5.2,1.5,11.3,11.3,0,0,1-6.5-2.4C308.2,134.7,307.8,133.9,307.8,131.7Z"/><path d="M364.8,105.8a13.3,13.3,0,0,0,1-2.8c.7-5.9-1.9-12.8-8-15.9a33.9,33.9,0,0,0-5.3-2c-.7-.3-1.7-.1-1.7-1.3,4.1-1.4,10.9,2.2,14.3,7.6s3.5,16.4-2.8,22.1-14.1,7.1-22.2,1.7a16.9,16.9,0,0,1-7.4-17.3,18.1,18.1,0,0,1,7.7-11.3c2.1-1.4,4.4-2.8,7.7-2.1-5.8,1.6-10,4.7-12.4,9.8a13.6,13.6,0,0,0-.7,9.8,12.2,12.2,0,0,0,.7-1.7c.8-3.1,2-6,4.5-8.2s4.3-3.2,7.2-3.4h.8a12.8,12.8,0,0,1,15.7,12.2c.1.9.1,1.9.2,2.8Zm-8-6a5,5,0,0,0-2.3-4.4,2.9,2.9,0,0,0-3.6.1,3.2,3.2,0,0,0-1.6,3.4,4.9,4.9,0,0,0,3.9,3.8C355.7,103.2,356.8,102.2,356.8,99.8Z"/><path d="M287.2,115.8c-6.9.7-12.5-5.4-14.5-10.2-3.3-7.9-.3-15,5.8-19.6,2.2-1.7,4.9-2.4,7.8-3,4.9-1.1,9,.5,12.6,3.4a14,14,0,0,1,3.9,4.8,16.8,16.8,0,0,1-15.6,24.6ZM273.8,97.5h.6l.6-1c3.1-5.3,7.6-7.7,13.6-7.1,3,.3,5.8.7,8.1,3.1a16.2,16.2,0,0,1,4.3,9.6,14.2,14.2,0,0,0,.5,2.2h.6a16,16,0,0,0,.1-9.2c-1.7-5.8-5.8-9.3-11.6-10.6a11.9,11.9,0,0,0-6.5.1c-4.9,1.8-8.2,5.5-10.1,10.4A6.7,6.7,0,0,0,273.8,97.5Zm17.8,4.1c2.7,0,4.2-1.8,3.4-4.5a4.2,4.2,0,0,0-5-3.2c-2.2.3-4.1,2.9-3.4,4.5S289.6,101.6,291.6,101.6Z"/><path d="M45.9,252.3A15.7,15.7,0,0,1,42.4,264a19.4,19.4,0,0,1-11,7.7c-2.3.6-4.5,1.3-6.9,1a25.5,25.5,0,0,1-12.4-5,16.7,16.7,0,0,1-6-9.7c-1.2-6.2-.5-12.3,3.7-17.5,1.3-1.6,2.6-3.3,4-4.9a9.2,9.2,0,0,1,2.5-1.7c6.3-3.3,12.7-3.7,19-.1a20.9,20.9,0,0,1,8.9,10.1A15,15,0,0,1,45.9,252.3Zm-7.8-1.1a5.5,5.5,0,0,1,1.8.6,23.9,23.9,0,0,1,2.2,1.6c1.3-2.2.8-4.3.2-6.1a18.4,18.4,0,0,0-9-10.2c-1.3-.7-2.9-.9-4.3-1.5a8.2,8.2,0,0,0-7.3,0,16.9,16.9,0,0,1-3.1,1.3c-3.7,1-6.6,2.8-8.4,6.3-.8,1.6-1.1,2.6.1,3.9-2.5.9-2.5,1.2-1.9,4.6l1.8,1,7,4.5,4.9,3.1c3.6,2.1,7.2,4.3,10.9,6.3a2.6,2.6,0,0,0,2.4-.1c3.4-1.7,5.4-4.8,7-8.2.5-1.1.9-2.6-.2-3.7s-2.1-1.6-3.1-2.4a4.8,4.8,0,0,1-.9-1.1ZM30.2,269a2.4,2.4,0,0,0-1.6-2.3c-1.6-1-3.2-1.9-4.7-3L10,254c-.3-.3-1.2-.6-1.3-.4a2.1,2.1,0,0,0-.5,1.5c.1.9.7,1.7.8,2.5.5,4.3,3.7,6.8,6.7,9S24.9,270,30.2,269Z"/><path class="cls-1" d="M356.8,99.8c0,2.4-1.1,3.4-3.6,2.9a4.9,4.9,0,0,1-3.9-3.8,3.2,3.2,0,0,1,1.6-3.4,2.9,2.9,0,0,1,3.6-.1A5,5,0,0,1,356.8,99.8Z"/><path class="cls-1" d="M291.6,101.6c-2,0-4.4-1.5-5-3.2s1.2-4.2,3.4-4.5a4.2,4.2,0,0,1,5,3.2C295.8,99.8,294.3,101.6,291.6,101.6Z"/><path d="M35.5,264.3a22.1,22.1,0,0,1-3.5-1.6l-13.2-9.2c-2.5-1.8-5.1-3.6-7.4-5.6,8.6,4.5,16.1,10.8,24.6,15.6Z"/><path d="M24,239.7l8.1,6.2c-.5.1-1.1.4-1.3.3-2.3-1.7-4.5-3.5-6.7-5.3a2.2,2.2,0,0,1-.5-.8Z"/><path d="M38.2,251.1c-2.2-.1-3-2.1-4.3-3.2,1.4,1,3.5,1.3,4.2,3.3Z"/></svg>